<svg xmlns="http://www.w3.org/2000/svg" xmlns:xlink="http://www.w3.org/1999/xlink" width="500" zoomAndPan="magnify" viewBox="0 0 375 374.999991" height="500" preserveAspectRatio="xMidYMid meet" version="1.0"><defs><clipPath id="866ce92eae"><path d="M 62 7.390625 L 364.84375 7.390625 L 364.84375 310 L 62 310 Z M 62 7.390625 " clip-rule="nonzero"/></clipPath><clipPath id="965816884a"><path d="M 10.09375 166 L 206 166 L 206 363 L 10.09375 363 Z M 10.09375 166 " clip-rule="nonzero"/></clipPath></defs><g clip-path="url(#866ce92eae)"><path fill="#00f3f7" d="M 213.519531 7.390625 C 132.164062 7.390625 65.671875 71.757812 62.421875 152.328125 C 70.003906 149.078125 78.03125 146.726562 86.28125 145.34375 C 88.855469 119.507812 99.3125 95.761719 115.140625 76.910156 L 127.722656 89.492188 C 130.039062 91.695312 132.949219 92.851562 135.972656 92.851562 C 138.886719 92.851562 141.910156 91.695312 144.113281 89.492188 C 148.78125 84.9375 148.78125 77.507812 144.113281 72.953125 L 131.570312 60.371094 C 151.019531 44.203125 175.324219 33.710938 201.871094 31.285156 L 201.871094 49.09375 C 201.871094 55.480469 207.097656 60.742188 213.519531 60.742188 C 219.941406 60.742188 225.167969 55.515625 225.167969 49.09375 L 225.167969 31.246094 C 251.714844 33.675781 276.054688 44.164062 295.359375 60.332031 L 282.777344 72.914062 C 278.222656 77.46875 278.222656 84.898438 282.777344 89.453125 C 285.089844 91.65625 288.003906 92.8125 291.027344 92.8125 C 294.050781 92.8125 296.964844 91.65625 299.277344 89.453125 L 311.859375 76.871094 C 328.027344 96.175781 338.519531 120.515625 340.945312 147.0625 L 323.136719 147.0625 C 316.75 147.0625 311.488281 152.289062 311.488281 158.710938 C 311.488281 165.132812 316.714844 170.359375 323.136719 170.359375 L 340.945312 170.359375 C 338.519531 196.90625 328.027344 221.246094 311.859375 240.550781 L 299.277344 227.96875 C 294.722656 223.414062 287.292969 223.414062 282.738281 227.96875 C 278.183594 232.632812 278.183594 239.953125 282.738281 244.507812 L 295.320312 257.089844 C 276.464844 272.917969 252.832031 283.296875 226.996094 285.949219 C 225.617188 294.199219 223.152344 302.226562 220.128906 309.808594 C 300.585938 306.445312 364.839844 239.953125 364.839844 158.710938 C 364.839844 75.265625 296.964844 7.390625 213.519531 7.390625 Z M 213.519531 7.390625 " fill-opacity="1" fill-rule="nonzero"/></g><path fill="#00f3f7" d="M 266.796875 158.710938 C 266.796875 152.289062 261.570312 147.0625 255.148438 147.0625 L 225.09375 147.0625 L 225.09375 93.5625 C 225.09375 87.140625 219.867188 81.910156 213.445312 81.910156 C 207.023438 81.910156 201.796875 87.101562 201.796875 93.5625 L 201.796875 158.710938 C 201.796875 165.132812 207.023438 170.359375 213.445312 170.359375 L 255.109375 170.359375 C 261.605469 170.359375 266.796875 165.167969 266.796875 158.710938 Z M 266.796875 158.710938 " fill-opacity="1" fill-rule="nonzero"/><g clip-path="url(#965816884a)"><path fill="#00f3f7" d="M 107.898438 166.589844 C 53.910156 166.589844 10.152344 210.382812 10.152344 264.371094 C 10.152344 314.773438 48.347656 356.175781 97.371094 361.480469 C 156.058594 367.601562 205.679688 321.867188 205.679688 264.371094 C 205.679688 210.382812 161.921875 166.589844 107.898438 166.589844 Z M 70.972656 289.683594 C 70.824219 288.152344 72.128906 286.84375 73.660156 286.84375 L 88.371094 286.84375 C 89.605469 286.84375 90.761719 287.667969 90.949219 288.863281 C 91.917969 294.796875 97.070312 299.351562 103.304688 299.351562 L 111.742188 299.351562 C 117.976562 299.351562 123.765625 295.132812 124.773438 288.972656 C 126.082031 281.171875 120.03125 274.375 112.453125 274.375 L 104.761719 274.375 C 87.8125 274.375 72.652344 262.015625 71.011719 245.140625 C 69.292969 227.667969 81.539062 212.699219 97.929688 209.933594 L 97.929688 197.167969 C 97.929688 195.710938 99.125 194.515625 100.582031 194.515625 L 115.214844 194.515625 C 116.671875 194.515625 117.867188 195.710938 117.867188 197.167969 L 117.867188 209.933594 C 132.277344 212.363281 143.515625 224.273438 144.824219 239.054688 C 144.972656 240.585938 143.664062 241.894531 142.132812 241.894531 L 127.425781 241.894531 C 126.191406 241.894531 125.035156 241.074219 124.847656 239.878906 C 123.878906 233.941406 118.726562 229.386719 112.488281 229.386719 L 104.050781 229.386719 C 97.816406 229.386719 92.03125 233.605469 91.023438 239.765625 C 89.714844 247.570312 95.765625 254.402344 103.34375 254.402344 L 112.488281 254.402344 C 131.457031 254.402344 146.6875 270.753906 144.785156 290.09375 C 143.367188 304.65625 131.867188 315.78125 117.867188 318.582031 L 117.867188 331.609375 C 117.867188 333.066406 116.671875 334.261719 115.214844 334.261719 L 100.582031 334.261719 C 99.125 334.261719 97.929688 333.066406 97.929688 331.609375 L 97.929688 318.804688 C 83.519531 316.378906 72.28125 304.429688 70.972656 289.683594 Z M 70.972656 289.683594 " fill-opacity="1" fill-rule="nonzero"/></g></svg>