<svg xmlns="http://www.w3.org/2000/svg" xmlns:xlink="http://www.w3.org/1999/xlink" width="500" zoomAndPan="magnify" viewBox="0 0 375 374.999991" height="500" preserveAspectRatio="xMidYMid meet" version="1.0"><defs><clipPath id="5e16da3440"><path d="M 125 62.5 L 375 62.5 L 375 312.5 L 125 312.5 Z M 125 62.5 " clip-rule="nonzero"/></clipPath><clipPath id="8d89b81cce"><path d="M 0 62.5 L 137.5 62.5 L 137.5 312.5 L 0 312.5 Z M 0 62.5 " clip-rule="nonzero"/></clipPath></defs><g clip-path="url(#5e16da3440)"><path fill="#00f3f7" d="M 354.167969 304.167969 L 145.832031 304.167969 C 138.941406 304.167969 133.332031 298.558594 133.332031 291.667969 L 133.332031 137.5 L 366.667969 137.5 L 366.667969 291.667969 C 366.667969 298.558594 361.058594 304.167969 354.167969 304.167969 Z M 145.832031 87.5 L 170.832031 87.5 L 170.832031 100 C 170.832031 106.894531 176.441406 112.5 183.332031 112.5 C 190.226562 112.5 195.832031 106.894531 195.832031 100 L 195.832031 87.5 L 237.5 87.5 L 237.5 100 C 237.5 106.894531 243.105469 112.5 250 112.5 C 256.894531 112.5 262.5 106.894531 262.5 100 L 262.5 87.5 L 304.167969 87.5 L 304.167969 100 C 304.167969 106.894531 309.773438 112.5 316.667969 112.5 C 323.558594 112.5 329.167969 106.894531 329.167969 100 L 329.167969 87.5 L 354.167969 87.5 C 361.058594 87.5 366.667969 93.105469 366.667969 100 L 366.667969 129.167969 L 133.332031 129.167969 L 133.332031 100 C 133.332031 93.105469 138.941406 87.5 145.832031 87.5 Z M 179.167969 75 C 179.167969 72.703125 181.035156 70.832031 183.332031 70.832031 C 185.628906 70.832031 187.5 72.703125 187.5 75 L 187.5 100 C 187.5 102.296875 185.628906 104.167969 183.332031 104.167969 C 181.035156 104.167969 179.167969 102.296875 179.167969 100 Z M 245.832031 75 C 245.832031 72.703125 247.703125 70.832031 250 70.832031 C 252.296875 70.832031 254.167969 72.703125 254.167969 75 L 254.167969 100 C 254.167969 102.296875 252.296875 104.167969 250 104.167969 C 247.703125 104.167969 245.832031 102.296875 245.832031 100 Z M 312.5 75 C 312.5 72.703125 314.371094 70.832031 316.667969 70.832031 C 318.964844 70.832031 320.832031 72.703125 320.832031 75 L 320.832031 100 C 320.832031 102.296875 318.964844 104.167969 316.667969 104.167969 C 314.371094 104.167969 312.5 102.296875 312.5 100 Z M 354.167969 79.167969 L 329.167969 79.167969 L 329.167969 75 C 329.167969 68.105469 323.558594 62.5 316.667969 62.5 C 309.773438 62.5 304.167969 68.105469 304.167969 75 L 304.167969 79.167969 L 262.5 79.167969 L 262.5 75 C 262.5 68.105469 256.894531 62.5 250 62.5 C 243.105469 62.5 237.5 68.105469 237.5 75 L 237.5 79.167969 L 195.832031 79.167969 L 195.832031 75 C 195.832031 68.105469 190.226562 62.5 183.332031 62.5 C 176.441406 62.5 170.832031 68.105469 170.832031 75 L 170.832031 79.167969 L 145.832031 79.167969 C 134.347656 79.167969 125 88.511719 125 100 L 125 291.667969 C 125 303.152344 134.347656 312.5 145.832031 312.5 L 354.167969 312.5 C 365.652344 312.5 375 303.152344 375 291.667969 L 375 100 C 375 88.511719 365.652344 79.167969 354.167969 79.167969 " fill-opacity="1" fill-rule="nonzero"/></g><path fill="#00f3f7" d="M 341.667969 183.332031 L 333.332031 183.332031 L 333.332031 175 L 341.667969 175 Z M 345.832031 166.667969 L 329.167969 166.667969 C 326.867188 166.667969 325 168.53125 325 170.832031 L 325 187.5 C 325 189.800781 326.867188 191.667969 329.167969 191.667969 L 345.832031 191.667969 C 348.132812 191.667969 350 189.800781 350 187.5 L 350 170.832031 C 350 168.53125 348.132812 166.667969 345.832031 166.667969 " fill-opacity="1" fill-rule="nonzero"/><path fill="#00f3f7" d="M 258.332031 266.667969 L 250 266.667969 L 250 258.332031 L 258.332031 258.332031 Z M 262.5 250 L 245.832031 250 C 243.53125 250 241.667969 251.867188 241.667969 254.167969 L 241.667969 270.832031 C 241.667969 273.132812 243.53125 275 245.832031 275 L 262.5 275 C 264.800781 275 266.667969 273.132812 266.667969 270.832031 L 266.667969 254.167969 C 266.667969 251.867188 264.800781 250 262.5 250 " fill-opacity="1" fill-rule="nonzero"/><path fill="#00f3f7" d="M 216.667969 183.332031 L 208.332031 183.332031 L 208.332031 175 L 216.667969 175 Z M 220.832031 166.667969 L 204.167969 166.667969 C 201.867188 166.667969 200 168.53125 200 170.832031 L 200 187.5 C 200 189.800781 201.867188 191.667969 204.167969 191.667969 L 220.832031 191.667969 C 223.132812 191.667969 225 189.800781 225 187.5 L 225 170.832031 C 225 168.53125 223.132812 166.667969 220.832031 166.667969 " fill-opacity="1" fill-rule="nonzero"/><path fill="#00f3f7" d="M 175 225 L 166.667969 225 L 166.667969 216.667969 L 175 216.667969 Z M 179.167969 208.332031 L 162.5 208.332031 C 160.199219 208.332031 158.332031 210.199219 158.332031 212.5 L 158.332031 229.167969 C 158.332031 231.46875 160.199219 233.332031 162.5 233.332031 L 179.167969 233.332031 C 181.46875 233.332031 183.332031 231.46875 183.332031 229.167969 L 183.332031 212.5 C 183.332031 210.199219 181.46875 208.332031 179.167969 208.332031 " fill-opacity="1" fill-rule="nonzero"/><path fill="#00f3f7" d="M 216.667969 225 L 208.332031 225 L 208.332031 216.667969 L 216.667969 216.667969 Z M 220.832031 208.332031 L 204.167969 208.332031 C 201.867188 208.332031 200 210.199219 200 212.5 L 200 229.167969 C 200 231.46875 201.867188 233.332031 204.167969 233.332031 L 220.832031 233.332031 C 223.132812 233.332031 225 231.46875 225 229.167969 L 225 212.5 C 225 210.199219 223.132812 208.332031 220.832031 208.332031 " fill-opacity="1" fill-rule="nonzero"/><path fill="#00f3f7" d="M 175 266.667969 L 166.667969 266.667969 L 166.667969 258.332031 L 175 258.332031 Z M 179.167969 250 L 162.5 250 C 160.199219 250 158.332031 251.867188 158.332031 254.167969 L 158.332031 270.832031 C 158.332031 273.132812 160.199219 275 162.5 275 L 179.167969 275 C 181.46875 275 183.332031 273.132812 183.332031 270.832031 L 183.332031 254.167969 C 183.332031 251.867188 181.46875 250 179.167969 250 " fill-opacity="1" fill-rule="nonzero"/><path fill="#00f3f7" d="M 216.667969 266.667969 L 208.332031 266.667969 L 208.332031 258.332031 L 216.667969 258.332031 Z M 220.832031 250 L 204.167969 250 C 201.867188 250 200 251.867188 200 254.167969 L 200 270.832031 C 200 273.132812 201.867188 275 204.167969 275 L 220.832031 275 C 223.132812 275 225 273.132812 225 270.832031 L 225 254.167969 C 225 251.867188 223.132812 250 220.832031 250 " fill-opacity="1" fill-rule="nonzero"/><path fill="#00f3f7" d="M 288.683594 202.136719 C 287.761719 203.082031 287.339844 204.414062 287.554688 205.71875 L 290.109375 221.367188 L 277.015625 214.132812 C 276.386719 213.785156 275.695312 213.613281 275 213.613281 C 274.304688 213.613281 273.613281 213.785156 272.984375 214.132812 L 259.890625 221.367188 L 262.445312 205.71875 C 262.660156 204.414062 262.238281 203.082031 261.316406 202.136719 L 250.3125 190.859375 L 265.328125 188.5625 C 266.703125 188.355469 267.882812 187.472656 268.472656 186.214844 L 275 172.304688 L 281.527344 186.214844 C 282.117188 187.472656 283.296875 188.355469 284.671875 188.5625 L 299.6875 190.859375 Z M 308.960938 183.847656 L 288.125 180.660156 L 278.773438 160.730469 C 278.085938 159.265625 276.617188 158.332031 275 158.332031 C 273.382812 158.332031 271.914062 159.265625 271.226562 160.730469 L 261.875 180.660156 L 241.039062 183.847656 C 239.492188 184.082031 238.210938 185.160156 237.714844 186.640625 C 237.21875 188.121094 237.59375 189.757812 238.683594 190.875 L 253.882812 206.453125 L 250.285156 228.496094 C 250.03125 230.070312 250.695312 231.652344 252 232.574219 C 253.304688 233.492188 255.019531 233.585938 256.414062 232.8125 L 275 222.539062 L 293.585938 232.8125 C 294.214844 233.160156 294.910156 233.332031 295.601562 233.332031 C 296.445312 233.332031 297.285156 233.078125 298 232.574219 C 299.304688 231.652344 299.96875 230.070312 299.714844 228.496094 L 296.117188 206.453125 L 311.316406 190.875 C 312.40625 189.757812 312.78125 188.121094 312.285156 186.640625 C 311.789062 185.160156 310.507812 184.082031 308.960938 183.847656 " fill-opacity="1" fill-rule="nonzero"/><path fill="#00f3f7" d="M 341.667969 225 L 333.332031 225 L 333.332031 216.667969 L 341.667969 216.667969 Z M 345.832031 208.332031 L 329.167969 208.332031 C 326.867188 208.332031 325 210.199219 325 212.5 L 325 229.167969 C 325 231.46875 326.867188 233.332031 329.167969 233.332031 L 345.832031 233.332031 C 348.132812 233.332031 350 231.46875 350 229.167969 L 350 212.5 C 350 210.199219 348.132812 208.332031 345.832031 208.332031 " fill-opacity="1" fill-rule="nonzero"/><path fill="#00f3f7" d="M 341.667969 266.667969 L 333.332031 266.667969 L 333.332031 258.332031 L 341.667969 258.332031 Z M 345.832031 250 L 329.167969 250 C 326.867188 250 325 251.867188 325 254.167969 L 325 270.832031 C 325 273.132812 326.867188 275 329.167969 275 L 345.832031 275 C 348.132812 275 350 273.132812 350 270.832031 L 350 254.167969 C 350 251.867188 348.132812 250 345.832031 250 " fill-opacity="1" fill-rule="nonzero"/><path fill="#00f3f7" d="M 300 266.667969 L 291.667969 266.667969 L 291.667969 258.332031 L 300 258.332031 Z M 304.167969 250 L 287.5 250 C 285.199219 250 283.332031 251.867188 283.332031 254.167969 L 283.332031 270.832031 C 283.332031 273.132812 285.199219 275 287.5 275 L 304.167969 275 C 306.46875 275 308.332031 273.132812 308.332031 270.832031 L 308.332031 254.167969 C 308.332031 251.867188 306.46875 250 304.167969 250 " fill-opacity="1" fill-rule="nonzero"/><g clip-path="url(#8d89b81cce)"><path fill="#00f3f7" d="M 58.96875 253.527344 L 58.96875 194.976562 C 40.707031 189.761719 27.320312 181.863281 18.789062 171.292969 C 10.269531 160.71875 6.007812 147.886719 6.007812 132.792969 C 6.007812 117.515625 10.828125 104.679688 20.464844 94.289062 C 30.113281 83.902344 42.945312 77.921875 58.96875 76.335938 L 58.96875 62.5 L 79.230469 62.5 L 79.230469 76.335938 C 94.042969 78.105469 105.828125 83.160156 114.585938 91.496094 C 123.339844 99.835938 128.929688 110.992188 131.355469 124.964844 L 96 129.578125 C 93.855469 118.589844 88.265625 111.132812 79.230469 107.222656 L 79.230469 161.859375 C 101.589844 167.917969 116.824219 175.765625 124.925781 185.402344 C 133.03125 195.050781 137.085938 207.417969 137.085938 222.507812 C 137.085938 239.371094 131.984375 253.582031 121.785156 265.128906 C 111.578125 276.683594 97.398438 283.765625 79.230469 286.371094 L 79.230469 312.5 L 58.96875 312.5 L 58.96875 287.066406 C 42.847656 285.109375 29.761719 279.101562 19.699219 269.039062 C 9.636719 258.976562 3.210938 244.773438 0.414062 226.417969 L 36.886719 222.507812 C 38.375 229.960938 41.171875 236.390625 45.273438 241.792969 C 49.371094 247.195312 53.9375 251.109375 58.96875 253.527344 Z M 58.96875 106.796875 C 53.46875 108.664062 49.089844 111.828125 45.832031 116.300781 C 42.570312 120.769531 40.941406 125.710938 40.941406 131.113281 C 40.941406 136.050781 42.429688 140.636719 45.414062 144.875 C 48.390625 149.117188 52.910156 152.542969 58.964844 155.148438 L 58.964844 106.796875 Z M 79.230469 255.484375 C 86.21875 254.183594 91.898438 250.945312 96.277344 245.769531 C 100.65625 240.605469 102.847656 234.523438 102.847656 227.539062 C 102.847656 221.296875 101.007812 215.917969 97.324219 211.394531 C 93.644531 206.878906 87.613281 203.414062 79.230469 200.988281 Z M 79.230469 255.484375 " fill-opacity="1" fill-rule="nonzero"/></g></svg>