<svg xmlns="http://www.w3.org/2000/svg" xmlns:xlink="http://www.w3.org/1999/xlink" width="500" zoomAndPan="magnify" viewBox="0 0 375 374.999991" height="500" preserveAspectRatio="xMidYMid meet" version="1.0"><defs><clipPath id="7f4955d3fd"><path d="M 4.21875 170 L 183 170 L 183 330 L 4.21875 330 Z M 4.21875 170 " clip-rule="nonzero"/></clipPath><clipPath id="6df85fe886"><path d="M 193 205 L 370.96875 205 L 370.96875 330 L 193 330 Z M 193 205 " clip-rule="nonzero"/></clipPath></defs><path fill="#00f3f7" d="M 164.5625 175.09375 L 256.382812 46.113281 L 219.464844 46.113281 L 135.527344 164.027344 C 151.609375 166.59375 160.152344 170.511719 164.5625 175.09375 Z M 164.5625 175.09375 " fill-opacity="1" fill-rule="nonzero"/><path fill="#00f3f7" d="M 119.796875 139.386719 C 146.316406 139.386719 163.109375 121.265625 163.109375 92.320312 C 163.109375 63.582031 146.316406 45.460938 119.796875 45.460938 C 93.257812 45.460938 76.488281 63.582031 76.488281 92.320312 C 76.488281 121.265625 93.257812 139.386719 119.796875 139.386719 Z M 119.796875 66.902344 C 131.277344 66.902344 138.136719 76.398438 138.136719 92.320312 C 138.136719 108.230469 131.277344 117.945312 119.796875 117.945312 C 108.296875 117.945312 101.4375 108.21875 101.4375 92.320312 C 101.4375 76.398438 108.296875 66.902344 119.796875 66.902344 Z M 119.796875 66.902344 " fill-opacity="1" fill-rule="nonzero"/><path fill="#00f3f7" d="M 227.609375 198.140625 C 238.492188 196.492188 252.683594 195.460938 271.148438 195.195312 C 283.050781 187.453125 289.96875 173.398438 289.96875 154.863281 C 289.96875 126.125 273.175781 108.003906 246.660156 108.003906 C 220.152344 108.003906 203.347656 126.125 203.347656 154.863281 C 203.335938 176.054688 212.375 191.414062 227.609375 198.140625 Z M 246.648438 129.445312 C 258.148438 129.445312 265 138.941406 265 154.863281 C 265 170.773438 258.148438 180.5 246.648438 180.5 C 235.160156 180.5 228.296875 170.761719 228.296875 154.863281 C 228.308594 138.941406 235.160156 129.445312 246.648438 129.445312 Z M 246.648438 129.445312 " fill-opacity="1" fill-rule="nonzero"/><g clip-path="url(#7f4955d3fd)"><path fill="#00f3f7" d="M 158.753906 208.507812 C 158.789062 208.265625 158.925781 208.035156 158.925781 207.785156 L 158.925781 186.410156 C 158.925781 172.789062 110.472656 170.75 81.574219 170.75 C 52.671875 170.75 4.21875 172.789062 4.21875 186.421875 L 4.21875 207.796875 C 4.21875 213.9375 14.105469 217.703125 27.589844 220.007812 C 27.554688 220.246094 27.417969 220.476562 27.417969 220.726562 L 27.417969 242.089844 C 27.417969 244.484375 28.984375 246.511719 31.597656 248.230469 C 24.484375 250.5 19.9375 253.582031 19.9375 257.738281 L 19.9375 279.101562 C 19.9375 282.46875 22.902344 285.117188 27.792969 287.210938 C 25.996094 288.722656 24.90625 290.40625 24.90625 292.367188 L 24.90625 313.730469 C 24.90625 327.347656 73.359375 329.386719 102.25 329.386719 C 131.136719 329.386719 179.601562 327.347656 179.601562 313.730469 L 179.601562 292.367188 C 179.601562 289 176.636719 286.351562 171.746094 284.257812 C 173.53125 282.746094 174.621094 281.058594 174.621094 279.101562 L 174.621094 257.738281 C 174.621094 255.34375 173.0625 253.328125 170.449219 251.597656 C 177.554688 249.332031 182.125 246.261719 182.125 242.089844 L 182.125 220.726562 C 182.125 214.601562 172.238281 210.820312 158.753906 208.507812 Z M 81.574219 180.707031 C 114.746094 180.707031 136.0625 183.808594 145.066406 186.421875 C 136.0625 189.042969 114.757812 192.136719 81.574219 192.136719 C 48.390625 192.136719 27.082031 189.035156 18.082031 186.421875 C 27.082031 183.796875 48.390625 180.707031 81.574219 180.707031 Z M 81.574219 223.441406 C 101.816406 223.441406 131.621094 222.421875 147.679688 217.144531 C 157.128906 218.207031 164.09375 219.515625 168.273438 220.726562 C 159.269531 223.351562 137.964844 226.445312 104.769531 226.445312 C 78.492188 226.445312 59.789062 224.496094 48.617188 222.390625 C 60.097656 223.214844 71.917969 223.441406 81.574219 223.441406 Z M 165.753906 292.390625 C 156.761719 295.011719 135.445312 298.105469 102.261719 298.105469 C 69.078125 298.105469 47.78125 295 38.769531 292.390625 C 39.96875 292.046875 41.4375 291.667969 43.085938 291.3125 C 59.523438 294.152344 81.367188 294.78125 97.289062 294.78125 C 114.871094 294.78125 139.683594 294.015625 156.441406 290.339844 C 160.335938 291.015625 163.453125 291.714844 165.753906 292.390625 Z M 160.785156 257.75 C 151.78125 260.375 130.472656 263.464844 97.289062 263.464844 C 64.105469 263.464844 42.800781 260.363281 33.796875 257.75 C 37.578125 256.640625 43.636719 255.480469 51.699219 254.484375 C 67.988281 257.15625 89.191406 257.761719 104.757812 257.761719 C 118.023438 257.761719 135.398438 257.316406 150.335938 255.539062 C 154.734375 256.261719 158.273438 257.027344 160.785156 257.75 Z M 160.785156 257.75 " fill-opacity="1" fill-rule="nonzero"/></g><g clip-path="url(#6df85fe886)"><path fill="#00f3f7" d="M 354.882812 247.074219 C 356.53125 245.621094 357.507812 243.980469 357.507812 242.101562 L 357.507812 220.738281 C 357.507812 207.121094 309.042969 205.082031 280.152344 205.082031 C 251.265625 205.082031 202.8125 207.121094 202.8125 220.738281 L 202.8125 242.101562 C 202.8125 247.050781 209.214844 250.453125 218.699219 252.789062 C 217.039062 254.257812 216.074219 255.894531 216.074219 257.761719 L 216.074219 279.125 C 216.074219 279.546875 216.257812 279.925781 216.339844 280.316406 C 203.371094 282.640625 193.96875 286.386719 193.96875 292.390625 L 193.96875 313.753906 C 193.96875 327.371094 242.433594 329.410156 271.320312 329.410156 C 300.210938 329.410156 348.664062 327.371094 348.664062 313.753906 L 348.664062 292.390625 C 348.664062 291.964844 348.480469 291.597656 348.398438 291.199219 C 361.378906 288.859375 370.769531 285.125 370.769531 279.113281 L 370.769531 257.75 C 370.769531 252.8125 364.367188 249.421875 354.882812 247.074219 Z M 280.164062 215.023438 C 313.335938 215.023438 334.65625 218.117188 343.65625 220.738281 C 334.65625 223.363281 313.347656 226.457031 280.164062 226.457031 C 246.980469 226.457031 225.6875 223.351562 216.671875 220.738281 C 225.6875 218.105469 246.980469 215.023438 280.164062 215.023438 Z M 271.320312 298.105469 C 238.148438 298.105469 216.832031 295 207.828125 292.390625 C 211.984375 291.1875 218.894531 289.867188 228.25 288.804688 C 244.515625 293.820312 273.578125 294.773438 293.417969 294.773438 C 304.289062 294.773438 317.941406 294.484375 330.738281 293.398438 C 320.140625 295.746094 300.257812 298.105469 271.320312 298.105469 Z M 293.429688 263.464844 C 260.257812 263.464844 238.925781 260.363281 229.933594 257.75 C 231.972656 257.15625 234.746094 256.535156 238.078125 255.929688 C 252.167969 257.382812 267.917969 257.761719 280.164062 257.761719 C 296.511719 257.761719 319.097656 257.109375 335.664062 254.085938 C 345.46875 255.160156 352.625 256.5 356.921875 257.75 C 347.90625 260.375 326.613281 263.464844 293.429688 263.464844 Z M 293.429688 263.464844 " fill-opacity="1" fill-rule="nonzero"/></g></svg>