<svg xmlns="http://www.w3.org/2000/svg" xmlns:xlink="http://www.w3.org/1999/xlink" width="500" zoomAndPan="magnify" viewBox="0 0 375 374.999991" height="500" preserveAspectRatio="xMidYMid meet" version="1.0"><defs><clipPath id="2118084c57"><path d="M 41 74.785156 L 137 74.785156 L 137 123 L 41 123 Z M 41 74.785156 " clip-rule="nonzero"/></clipPath><clipPath id="521726dd58"><path d="M 0 102 L 179 102 L 179 300.617188 L 0 300.617188 Z M 0 102 " clip-rule="nonzero"/></clipPath><clipPath id="1b26e55815"><path d="M 185.734375 144 L 251 144 L 251 208 L 185.734375 208 Z M 185.734375 144 " clip-rule="nonzero"/></clipPath><clipPath id="01df36bab9"><path d="M 253 133 L 374.902344 133 L 374.902344 230.617188 L 253 230.617188 Z M 253 133 " clip-rule="nonzero"/></clipPath><clipPath id="120c831988"><path d="M 212 74.785156 L 300 74.785156 L 300 193 L 212 193 Z M 212 74.785156 " clip-rule="nonzero"/></clipPath></defs><g clip-path="url(#2118084c57)"><path fill="#00f3f7" d="M 46.675781 117.183594 L 131.652344 117.183594 L 131.652344 103.863281 C 131.652344 101.714844 130.773438 99.761719 129.355469 98.34375 C 127.9375 96.925781 125.984375 96.046875 123.835938 96.046875 L 107.75 96.046875 C 106.292969 96.046875 105.109375 94.863281 105.109375 93.40625 C 105.109375 93.230469 105.128906 93.058594 105.160156 92.894531 C 105.183594 92.726562 105.199219 92.554688 105.210938 92.386719 C 105.226562 92.199219 105.234375 91.984375 105.234375 91.746094 C 105.234375 88.652344 103.5625 85.804688 100.855469 83.703125 C 97.964844 81.457031 93.929688 80.066406 89.4375 80.066406 C 84.949219 80.066406 80.914062 81.457031 78.023438 83.703125 C 75.316406 85.804688 73.644531 88.652344 73.644531 91.746094 C 73.644531 91.984375 73.652344 92.199219 73.664062 92.386719 C 73.679688 92.597656 73.703125 92.808594 73.734375 93.015625 L 73.738281 93.015625 C 73.953125 94.460938 72.957031 95.804688 71.515625 96.019531 C 71.367188 96.039062 71.222656 96.050781 71.078125 96.046875 L 54.492188 96.046875 C 52.34375 96.046875 50.390625 96.925781 48.972656 98.34375 C 47.554688 99.761719 46.675781 101.714844 46.675781 103.863281 Z M 134.292969 122.464844 L 44.035156 122.464844 C 42.574219 122.464844 41.390625 121.28125 41.390625 119.824219 L 41.390625 103.863281 C 41.390625 100.257812 42.863281 96.980469 45.238281 94.609375 C 47.609375 92.238281 50.886719 90.761719 54.492188 90.761719 L 68.394531 90.761719 C 68.703125 86.347656 71.085938 82.40625 74.78125 79.535156 C 78.5625 76.601562 83.746094 74.785156 89.4375 74.785156 C 95.128906 74.785156 100.316406 76.601562 104.09375 79.535156 C 107.792969 82.40625 110.171875 86.347656 110.484375 90.761719 L 123.835938 90.761719 C 127.441406 90.761719 130.71875 92.238281 133.089844 94.609375 C 135.460938 96.980469 136.9375 100.257812 136.9375 103.863281 L 136.9375 119.824219 C 136.9375 121.28125 135.753906 122.464844 134.292969 122.464844 Z M 134.292969 122.464844 " fill-opacity="1" fill-rule="nonzero"/></g><g clip-path="url(#521726dd58)"><path fill="#00f3f7" d="M 44.035156 107.605469 C 45.492188 107.605469 46.675781 106.421875 46.675781 104.964844 C 46.675781 103.503906 45.492188 102.320312 44.035156 102.320312 L 2.757812 102.320312 C 1.296875 102.320312 0.113281 103.503906 0.113281 104.964844 L 0.113281 297.570312 C 0.113281 299.03125 1.296875 300.214844 2.757812 300.214844 L 176.121094 300.214844 C 177.578125 300.214844 178.761719 299.03125 178.761719 297.570312 L 178.761719 235.933594 C 178.761719 234.476562 177.578125 233.292969 176.121094 233.292969 C 174.664062 233.292969 173.480469 234.476562 173.480469 235.933594 L 173.480469 294.929688 L 5.398438 294.929688 L 5.398438 107.605469 Z M 173.480469 211.449219 C 173.480469 212.910156 174.664062 214.09375 176.121094 214.09375 C 177.578125 214.09375 178.761719 212.910156 178.761719 211.449219 L 178.761719 104.964844 C 178.761719 103.503906 177.578125 102.320312 176.121094 102.320312 L 134.292969 102.320312 C 132.835938 102.320312 131.652344 103.503906 131.652344 104.964844 C 131.652344 106.421875 132.835938 107.605469 134.292969 107.605469 L 173.480469 107.605469 Z M 173.480469 211.449219 " fill-opacity="1" fill-rule="nonzero"/></g><path fill="#00f3f7" d="M 17.066406 138.09375 L 41.832031 138.09375 C 43.289062 138.09375 44.472656 139.277344 44.472656 140.738281 L 44.472656 165.503906 C 44.472656 166.960938 43.289062 168.144531 41.832031 168.144531 L 17.066406 168.144531 C 15.605469 168.144531 14.421875 166.960938 14.421875 165.503906 L 14.421875 140.738281 C 14.421875 139.277344 15.605469 138.09375 17.066406 138.09375 Z M 39.191406 143.378906 L 19.707031 143.378906 L 19.707031 162.863281 L 39.191406 162.863281 Z M 39.191406 143.378906 " fill-opacity="1" fill-rule="nonzero"/><path fill="#00f3f7" d="M 17.066406 177.445312 L 41.832031 177.445312 C 43.289062 177.445312 44.472656 178.628906 44.472656 180.089844 L 44.472656 204.855469 C 44.472656 206.3125 43.289062 207.496094 41.832031 207.496094 L 17.066406 207.496094 C 15.605469 207.496094 14.421875 206.3125 14.421875 204.855469 L 14.421875 180.089844 C 14.421875 178.628906 15.605469 177.445312 17.066406 177.445312 Z M 39.191406 182.730469 L 19.707031 182.730469 L 19.707031 202.210938 L 39.191406 202.210938 Z M 39.191406 182.730469 " fill-opacity="1" fill-rule="nonzero"/><path fill="#00f3f7" d="M 17.066406 216.796875 L 41.832031 216.796875 C 43.289062 216.796875 44.472656 217.980469 44.472656 219.4375 L 44.472656 244.207031 C 44.472656 245.664062 43.289062 246.847656 41.832031 246.847656 L 17.066406 246.847656 C 15.605469 246.847656 14.421875 245.664062 14.421875 244.207031 L 14.421875 219.4375 C 14.421875 217.980469 15.605469 216.796875 17.066406 216.796875 Z M 39.191406 222.082031 L 19.707031 222.082031 L 19.707031 241.5625 L 39.191406 241.5625 Z M 39.191406 222.082031 " fill-opacity="1" fill-rule="nonzero"/><path fill="#00f3f7" d="M 17.066406 256.148438 L 41.832031 256.148438 C 43.289062 256.148438 44.472656 257.332031 44.472656 258.789062 L 44.472656 283.558594 C 44.472656 285.015625 43.289062 286.199219 41.832031 286.199219 L 17.066406 286.199219 C 15.605469 286.199219 14.421875 285.015625 14.421875 283.558594 L 14.421875 258.789062 C 14.421875 257.332031 15.605469 256.148438 17.066406 256.148438 Z M 39.191406 261.433594 L 19.707031 261.433594 L 19.707031 280.914062 L 39.191406 280.914062 Z M 39.191406 261.433594 " fill-opacity="1" fill-rule="nonzero"/><path fill="#00f3f7" d="M 53.390625 144.148438 C 51.929688 144.148438 50.746094 145.332031 50.746094 146.789062 C 50.746094 148.25 51.929688 149.433594 53.390625 149.433594 L 155.207031 149.433594 C 156.667969 149.433594 157.851562 148.25 157.851562 146.789062 C 157.851562 145.332031 156.667969 144.148438 155.207031 144.148438 Z M 53.390625 144.148438 " fill-opacity="1" fill-rule="nonzero"/><path fill="#00f3f7" d="M 53.390625 160.660156 C 51.929688 160.660156 50.746094 161.84375 50.746094 163.300781 C 50.746094 164.761719 51.929688 165.945312 53.390625 165.945312 L 155.207031 165.945312 C 156.667969 165.945312 157.851562 164.761719 157.851562 163.300781 C 157.851562 161.84375 156.667969 160.660156 155.207031 160.660156 Z M 53.390625 160.660156 " fill-opacity="1" fill-rule="nonzero"/><path fill="#00f3f7" d="M 53.390625 182.125 C 51.929688 182.125 50.746094 183.308594 50.746094 184.765625 C 50.746094 186.226562 51.929688 187.40625 53.390625 187.40625 L 155.207031 187.40625 C 156.667969 187.40625 157.851562 186.226562 157.851562 184.765625 C 157.851562 183.308594 156.667969 182.125 155.207031 182.125 Z M 53.390625 182.125 " fill-opacity="1" fill-rule="nonzero"/><path fill="#00f3f7" d="M 53.390625 198.636719 C 51.929688 198.636719 50.746094 199.820312 50.746094 201.277344 C 50.746094 202.734375 51.929688 203.917969 53.390625 203.917969 L 155.207031 203.917969 C 156.667969 203.917969 157.851562 202.734375 157.851562 201.277344 C 157.851562 199.820312 156.667969 198.636719 155.207031 198.636719 Z M 53.390625 198.636719 " fill-opacity="1" fill-rule="nonzero"/><path fill="#00f3f7" d="M 89.164062 87.726562 C 92.171875 87.726562 94.898438 88.949219 96.871094 90.917969 C 98.839844 92.890625 100.0625 95.617188 100.0625 98.625 C 100.0625 104.632812 95.167969 109.523438 89.164062 109.523438 C 86.15625 109.523438 83.429688 108.300781 81.457031 106.328125 C 79.488281 104.359375 78.265625 101.632812 78.265625 98.625 C 78.265625 92.613281 83.152344 87.726562 89.164062 87.726562 Z M 93.132812 94.65625 C 92.117188 93.640625 90.714844 93.011719 89.164062 93.011719 C 86.132812 93.011719 83.550781 95.519531 83.550781 98.625 C 83.550781 100.175781 84.179688 101.578125 85.195312 102.59375 C 86.210938 103.609375 87.613281 104.238281 89.164062 104.238281 C 92.269531 104.238281 94.777344 101.734375 94.777344 98.625 C 94.777344 97.074219 94.148438 95.671875 93.132812 94.65625 Z M 93.132812 94.65625 " fill-opacity="1" fill-rule="nonzero"/><path fill="#00f3f7" d="M 201.285156 209.332031 C 202.34375 210.328125 204.011719 210.277344 205.011719 209.21875 C 206.007812 208.160156 205.957031 206.492188 204.898438 205.492188 L 192.671875 193.933594 C 191.613281 192.9375 189.945312 192.988281 188.949219 194.046875 C 187.949219 195.109375 188 196.777344 189.0625 197.773438 Z M 201.285156 209.332031 " fill-opacity="1" fill-rule="nonzero"/><path fill="#00f3f7" d="M 117.808594 281.578125 L 132.636719 253.746094 L 132.628906 253.742188 C 132.773438 253.46875 132.960938 253.230469 133.175781 253.035156 L 189.75 193.199219 L 197.792969 184.695312 L 197.792969 184.683594 C 198.796875 183.625 200.46875 183.578125 201.527344 184.582031 C 201.570312 184.621094 201.613281 184.664062 201.652344 184.707031 L 213.742188 196.136719 L 213.75 196.136719 C 214.8125 197.140625 214.859375 198.8125 213.855469 199.871094 C 213.816406 199.914062 213.773438 199.957031 213.730469 199.996094 L 205.410156 208.792969 L 149.300781 268.136719 L 149.300781 268.144531 C 149.089844 268.367188 148.851562 268.542969 148.59375 268.675781 L 121.394531 285.273438 L 121.398438 285.28125 C 120.152344 286.039062 118.527344 285.644531 117.765625 284.402344 C 117.21875 283.503906 117.269531 282.40625 117.808594 281.578125 Z M 137.105469 256.546875 L 126.875 275.757812 L 145.707031 264.265625 L 201.574219 205.183594 L 208.210938 198.160156 L 199.816406 190.226562 L 193.589844 196.8125 Z M 137.105469 256.546875 " fill-opacity="1" fill-rule="nonzero"/><path fill="#00f3f7" d="M 137.167969 252.636719 C 136.109375 251.640625 134.441406 251.691406 133.441406 252.75 C 132.445312 253.8125 132.496094 255.480469 133.554688 256.476562 L 145.761719 268.015625 C 146.820312 269.011719 148.488281 268.960938 149.484375 267.902344 C 150.484375 266.84375 150.433594 265.175781 149.371094 264.175781 Z M 137.167969 252.636719 " fill-opacity="1" fill-rule="nonzero"/><path fill="#00f3f7" d="M 135.605469 274.332031 C 136.664062 275.332031 138.332031 275.28125 139.328125 274.21875 C 140.328125 273.160156 140.277344 271.492188 139.214844 270.496094 L 131.410156 263.113281 C 130.351562 262.117188 128.683594 262.167969 127.683594 263.226562 C 126.6875 264.289062 126.738281 265.957031 127.796875 266.953125 Z M 135.605469 274.332031 " fill-opacity="1" fill-rule="nonzero"/><path fill="#00f3f7" d="M 54.488281 220.921875 C 53.03125 220.921875 51.847656 222.105469 51.847656 223.566406 C 51.847656 225.023438 53.03125 226.207031 54.488281 226.207031 L 144.75 226.207031 C 146.210938 226.207031 147.390625 225.023438 147.390625 223.566406 C 147.390625 222.105469 146.210938 220.921875 144.75 220.921875 Z M 54.488281 220.921875 " fill-opacity="1" fill-rule="nonzero"/><path fill="#00f3f7" d="M 54.488281 239.636719 C 53.03125 239.636719 51.847656 240.820312 51.847656 242.277344 C 51.847656 243.734375 53.03125 244.917969 54.488281 244.917969 L 115.03125 244.917969 C 116.488281 244.917969 117.671875 243.734375 117.671875 242.277344 C 117.671875 240.820312 116.488281 239.636719 115.03125 239.636719 Z M 54.488281 239.636719 " fill-opacity="1" fill-rule="nonzero"/><path fill="#00f3f7" d="M 56.691406 259.449219 C 55.234375 259.449219 54.050781 260.632812 54.050781 262.089844 C 54.050781 263.550781 55.234375 264.734375 56.691406 264.734375 L 113.929688 264.734375 C 115.386719 264.734375 116.570312 263.550781 116.570312 262.089844 C 116.570312 260.632812 115.386719 259.449219 113.929688 259.449219 Z M 56.691406 259.449219 " fill-opacity="1" fill-rule="nonzero"/><path fill="#00f3f7" d="M 54.488281 279.261719 C 53.03125 279.261719 51.847656 280.445312 51.847656 281.902344 C 51.847656 283.363281 53.03125 284.546875 54.488281 284.546875 L 108.425781 284.546875 C 109.886719 284.546875 111.066406 283.363281 111.066406 281.902344 C 111.066406 280.445312 109.886719 279.261719 108.425781 279.261719 Z M 54.488281 279.261719 " fill-opacity="1" fill-rule="nonzero"/><path fill="#00f3f7" d="M 211.699219 113.53125 L 194.570312 127.605469 L 241.867188 185.167969 Z M 211.699219 113.53125 " fill-opacity="1" fill-rule="nonzero"/><path fill="#00f3f7" d="M 278 189.699219 L 253.921875 199.835938 L 260.785156 208.191406 L 280.953125 191.617188 C 280.011719 190.976562 279.019531 190.335938 278 189.699219 " fill-opacity="1" fill-rule="nonzero"/><g clip-path="url(#1b26e55815)"><path fill="#00f3f7" d="M 185.773438 167.167969 L 250.972656 207.234375 L 199.582031 144.699219 Z M 185.773438 167.167969 " fill-opacity="1" fill-rule="nonzero"/></g><path fill="#00f3f7" d="M 263.539062 214.957031 L 274.628906 221.773438 L 289.28125 197.929688 C 288.5625 197.320312 287.71875 196.640625 286.757812 195.878906 L 263.539062 214.957031 " fill-opacity="1" fill-rule="nonzero"/><g clip-path="url(#01df36bab9)"><path fill="#00f3f7" d="M 336.128906 148.117188 C 334.546875 144.417969 331.214844 141.753906 327.3125 140.765625 L 296.941406 133.070312 L 311.75 168.015625 C 311.75 168.015625 308.234375 167.496094 302.699219 166.253906 C 301.535156 165.996094 300.277344 165.699219 298.945312 165.371094 C 298.808594 165.335938 298.660156 165.300781 298.519531 165.265625 C 297.410156 164.988281 296.246094 164.683594 295.042969 164.363281 C 294.652344 164.253906 294.246094 164.144531 293.84375 164.035156 C 292.816406 163.75 291.753906 163.445312 290.671875 163.125 C 290.222656 162.992188 289.777344 162.863281 289.320312 162.722656 C 288.023438 162.328125 286.695312 161.90625 285.339844 161.460938 C 285.109375 161.382812 284.886719 161.316406 284.65625 161.238281 C 283.09375 160.714844 281.496094 160.152344 279.886719 159.554688 C 279.433594 159.390625 278.976562 159.207031 278.523438 159.035156 C 277.34375 158.585938 276.15625 158.121094 274.964844 157.632812 C 274.398438 157.398438 273.832031 157.160156 273.265625 156.917969 C 272.109375 156.425781 270.949219 155.910156 269.792969 155.378906 C 269.269531 155.140625 268.75 154.90625 268.226562 154.65625 C 266.574219 153.871094 264.925781 153.054688 263.300781 152.183594 C 262.246094 151.621094 261.125 151.359375 260.03125 151.359375 C 256.976562 151.355469 254.121094 153.398438 253.503906 156.664062 C 252.265625 163.214844 255.171875 167.636719 262.703125 174.070312 C 263.933594 175.121094 265.3125 175.980469 266.753906 176.761719 C 266.945312 176.863281 267.152344 176.949219 267.347656 177.050781 C 270.882812 178.878906 274.804688 180.214844 278.371094 181.972656 C 279.15625 182.359375 279.976562 182.703125 280.714844 183.148438 C 285.363281 185.960938 289.398438 189 292.277344 191.34375 C 292.535156 191.554688 292.734375 191.726562 292.976562 191.921875 C 295.421875 193.949219 296.90625 195.351562 296.90625 195.351562 C 296.90625 195.351562 299.84375 215.023438 335.6875 223.714844 L 345.164062 230.453125 L 374.953125 202.074219 C 374.953125 202.074219 351.363281 183.808594 336.128906 148.117188 " fill-opacity="1" fill-rule="nonzero"/></g><g clip-path="url(#120c831988)"><path fill="#00f3f7" d="M 229.574219 118.441406 C 230.625 105.816406 241.710938 96.4375 254.328125 97.484375 C 266.949219 98.535156 276.335938 109.617188 275.289062 122.242188 C 274.238281 134.863281 263.152344 144.25 250.53125 143.199219 C 237.910156 142.152344 228.527344 131.066406 229.574219 118.441406 Z M 258.171875 179.375 C 251.480469 173.660156 244.523438 166.621094 246.648438 155.367188 C 247.847656 149 253.476562 144.378906 260.03125 144.378906 C 262.304688 144.378906 264.574219 144.953125 266.59375 146.03125 C 277.886719 152.082031 290.242188 155.953125 299.339844 158.261719 L 264.175781 74.78125 L 212.175781 96.683594 L 252.652344 192.800781 L 269.554688 185.683594 C 265.800781 184.15625 261.691406 182.382812 258.171875 179.375 " fill-opacity="1" fill-rule="nonzero"/></g><path fill="#00f3f7" d="M 251.195312 117.707031 C 250.769531 117.539062 250.472656 117.382812 250.261719 117.253906 C 249.558594 116.820312 249.007812 116.382812 248.621094 115.9375 C 248.3125 115.59375 248.101562 115.230469 248.011719 114.910156 C 247.898438 114.472656 247.835938 114.035156 247.8125 113.566406 C 247.871094 112.25 248.371094 111.222656 249.367188 110.339844 C 250.015625 109.769531 250.867188 109.394531 251.898438 109.21875 Z M 256.238281 124.511719 C 256.78125 124.832031 257.203125 125.195312 257.5 125.605469 C 258.085938 126.386719 258.296875 127.613281 258.125 129.246094 L 258.117188 129.296875 C 258.117188 129.320312 258.097656 129.527344 257.886719 130.015625 C 257.765625 130.316406 257.574219 130.601562 257.265625 130.914062 C 257 131.195312 256.566406 131.46875 256.011719 131.710938 C 255.890625 131.765625 255.765625 131.808594 255.625 131.851562 Z M 252.316406 140.214844 C 252.878906 140.214844 253.4375 140.042969 253.976562 139.691406 C 254.660156 139.222656 255.074219 138.488281 255.144531 137.628906 L 255.199219 137 C 257.363281 136.773438 259.109375 136.058594 260.394531 134.867188 C 261.945312 133.414062 262.882812 131.722656 263.171875 129.890625 C 263.34375 128.929688 263.375 127.9375 263.261719 126.851562 C 263.144531 125.714844 262.808594 124.621094 262.265625 123.585938 C 261.703125 122.550781 260.84375 121.589844 259.707031 120.722656 C 258.890625 120.097656 257.886719 119.578125 256.683594 119.148438 L 257.398438 110.492188 C 257.703125 110.78125 257.972656 111.09375 258.199219 111.425781 C 258.488281 111.847656 258.695312 112.296875 258.816406 112.765625 C 258.953125 113.375 259.019531 113.902344 259.019531 114.40625 C 259.03125 115.367188 259.441406 115.957031 259.777344 116.285156 L 260.777344 116.96875 L 261.566406 116.933594 C 262.777344 116.878906 263.714844 116.085938 264.160156 114.402344 C 264.316406 111.75 263.628906 109.507812 262.109375 107.746094 C 260.984375 106.433594 259.566406 105.476562 257.867188 104.878906 L 257.953125 103.878906 C 258.011719 103.039062 257.726562 102.265625 257.101562 101.652344 C 256.46875 101.066406 255.808594 100.898438 255.347656 100.863281 C 254.910156 100.820312 254.21875 100.882812 253.363281 101.472656 C 252.964844 101.800781 252.46875 102.40625 252.378906 103.429688 L 252.320312 104.121094 C 251.378906 104.183594 250.476562 104.335938 249.617188 104.574219 C 248.1875 104.984375 246.9375 105.609375 245.910156 106.4375 C 244.859375 107.285156 244.03125 108.320312 243.441406 109.5 C 242.835938 110.71875 242.53125 112.046875 242.546875 113.464844 C 242.597656 116.035156 243.5 118.21875 245.230469 119.953125 C 246.59375 121.328125 248.425781 122.316406 250.757812 122.917969 L 250.042969 131.570312 C 248.804688 131.246094 247.835938 130.773438 247.144531 130.164062 C 246.152344 129.261719 245.589844 128.273438 245.441406 127.265625 C 245.351562 125.992188 244.414062 125.058594 243.039062 124.890625 C 241.9375 124.75 241.261719 125.234375 240.964844 125.535156 C 240.664062 125.828125 240.1875 126.488281 240.320312 127.539062 C 240.601562 130.292969 241.832031 132.511719 243.972656 134.117188 C 245.527344 135.300781 247.421875 136.136719 249.621094 136.613281 L 249.574219 137.160156 C 249.484375 138.179688 249.875 138.871094 250.351562 139.40625 C 250.976562 139.996094 251.640625 140.164062 252.105469 140.207031 C 252.175781 140.210938 252.242188 140.214844 252.316406 140.214844 " fill-opacity="1" fill-rule="nonzero"/></svg>