<svg xmlns="http://www.w3.org/2000/svg" xmlns:xlink="http://www.w3.org/1999/xlink" width="500" zoomAndPan="magnify" viewBox="0 0 375 374.999991" height="500" preserveAspectRatio="xMidYMid meet" version="1.0"><defs><clipPath id="ab1de8f5a6"><path d="M 5.726562 6.863281 L 369 6.863281 L 369 368.363281 L 5.726562 368.363281 Z M 5.726562 6.863281 " clip-rule="nonzero"/></clipPath></defs><path fill="#00f3f7" d="M 229.9375 180.726562 C 249.417969 180.707031 265.238281 165.074219 265.644531 145.664062 L 251.558594 159.785156 L 222.789062 152.09375 L 215.085938 123.292969 L 229.175781 109.171875 C 209.789062 109.601562 194.191406 125.453125 194.1875 144.957031 C 194.1875 150.945312 195.667969 156.570312 198.261719 161.523438 L 183.242188 176.574219 L 148.207031 141.566406 L 145.730469 126.738281 L 121.402344 114.628906 L 112.25 123.835938 L 124.367188 148.164062 L 139.195312 150.617188 L 174.21875 185.617188 L 145.867188 214.023438 C 142.832031 212.824219 139.546875 212.125 136.089844 212.125 C 121.285156 212.136719 109.273438 224.164062 109.273438 238.996094 C 109.273438 241.082031 109.566406 243.089844 110.011719 245.035156 L 124.21875 230.796875 L 140.027344 235.03125 L 144.265625 250.847656 L 130.050781 265.085938 C 132 265.53125 134 265.828125 136.089844 265.820312 C 150.898438 265.8125 162.90625 253.777344 162.90625 238.957031 C 162.90625 235.484375 162.195312 232.199219 160.996094 229.152344 L 181.667969 208.441406 C 181.914062 208.734375 182.164062 209.019531 182.429688 209.289062 L 228.933594 255.757812 C 231.679688 258.484375 235.351562 260.042969 239.03125 260.042969 C 239.039062 260.042969 239.050781 260.042969 239.058594 260.042969 C 242.332031 260.035156 245.351562 258.804688 247.554688 256.582031 L 254.238281 249.882812 C 259.132812 244.980469 258.75 236.613281 253.371094 231.238281 L 206.863281 184.773438 C 206.609375 184.511719 206.332031 184.261719 206.042969 184.015625 L 213.386719 176.65625 C 218.339844 179.246094 223.957031 180.738281 229.9375 180.726562 " fill-opacity="1" fill-rule="nonzero"/><g clip-path="url(#ab1de8f5a6)"><path fill="#00f3f7" d="M 211.015625 295.023438 C 203.390625 296.703125 195.496094 297.558594 187.347656 297.558594 C 126.171875 297.558594 76.585938 247.953125 76.585938 186.785156 C 76.585938 125.605469 126.171875 76.027344 187.347656 76.03125 C 248.515625 76.03125 298.140625 125.605469 298.140625 186.789062 C 298.140625 239.820312 260.800781 284.203125 211.015625 295.023438 Z M 343.964844 191.890625 L 368.964844 182.144531 L 367.117188 160.890625 L 341.035156 155.496094 C 339.089844 145.75 336.152344 136.402344 332.480469 127.410156 L 351.21875 108.378906 L 340.878906 89.714844 L 314.695312 95.484375 C 308.980469 87.539062 302.574219 80.15625 295.519531 73.40625 L 304.878906 48.265625 L 287.855469 35.472656 L 266.308594 51.433594 C 257.917969 46.503906 249.054688 42.40625 239.789062 39.136719 L 238.058594 12.351562 L 217.285156 7.640625 L 204.191406 30.882812 C 198.660156 30.300781 193.042969 29.957031 187.351562 29.957031 C 183.148438 29.957031 179.03125 30.25 174.898438 30.574219 L 162.410156 6.851562 L 141.464844 11.015625 L 139.035156 37.613281 C 129.636719 40.648438 120.597656 44.53125 112.058594 49.171875 L 91.101562 32.734375 L 73.703125 45.082031 L 82.394531 70.496094 C 75.160156 77.019531 68.523438 84.214844 62.605469 91.988281 L 36.5625 85.480469 L 25.710938 103.84375 L 43.953125 123.417969 C 40.03125 132.289062 36.949219 141.589844 34.722656 151.199219 L 8.347656 155.886719 L 5.949219 177.109375 L 30.535156 187.488281 C 30.597656 197.492188 31.609375 207.21875 33.449219 216.691406 L 11.335938 231.710938 L 17.808594 252.023438 L 44.59375 251.472656 C 48.65625 260.433594 53.511719 268.910156 59.105469 276.890625 L 45.03125 299.6875 L 59.230469 315.59375 L 83.507812 304.121094 C 90.796875 310.578125 98.691406 316.335938 107.101562 321.371094 L 103.539062 347.96875 L 123.027344 356.667969 L 140.363281 336.457031 C 149.601562 339.335938 159.207031 341.339844 169.082031 342.503906 L 176.675781 368.140625 L 198.019531 368.140625 L 205.617188 342.519531 C 210.769531 341.933594 215.871094 341.113281 220.875 340.035156 C 223.992188 339.351562 227.046875 338.476562 230.089844 337.605469 L 246.929688 358.414062 L 266.644531 350.226562 L 263.828125 323.59375 C 272.402344 318.796875 280.464844 313.230469 287.933594 306.960938 L 311.839844 319.109375 L 326.484375 303.570312 L 313.023438 280.417969 C 318.855469 272.605469 324 264.234375 328.300781 255.429688 L 355.042969 256.699219 L 362.042969 236.589844 L 340.3125 220.9375 C 342.410156 211.519531 343.648438 201.839844 343.964844 191.890625 " fill-opacity="1" fill-rule="nonzero"/></g></svg>