<svg xmlns="http://www.w3.org/2000/svg" xmlns:xlink="http://www.w3.org/1999/xlink" width="500" zoomAndPan="magnify" viewBox="0 0 375 374.999991" height="500" preserveAspectRatio="xMidYMid meet" version="1.0"><defs><clipPath id="8fda441a43"><path d="M 138 203 L 237 203 L 237 356.25 L 138 356.25 Z M 138 203 " clip-rule="nonzero"/></clipPath><clipPath id="821d1ca1a7"><path d="M 116 18.75 L 259 18.75 L 259 183 L 116 183 Z M 116 18.75 " clip-rule="nonzero"/></clipPath><clipPath id="f38a2e027b"><path d="M 247 56 L 356.25 56 L 356.25 199 L 247 199 Z M 247 56 " clip-rule="nonzero"/></clipPath><clipPath id="5bb70f8631"><path d="M 18.75 56 L 128 56 L 128 199 L 18.75 199 Z M 18.75 56 " clip-rule="nonzero"/></clipPath></defs><g clip-path="url(#8fda441a43)"><path fill="#00f3f7" d="M 138.507812 301.816406 L 138.507812 350.804688 C 138.507812 353.800781 140.957031 356.25 143.953125 356.25 L 231.046875 356.25 C 234.042969 356.25 236.492188 353.800781 236.492188 350.804688 L 236.492188 301.816406 C 236.492188 282.925781 222.664062 267.246094 204.59375 264.253906 C 213.902344 258.484375 220.160156 248.195312 220.160156 236.492188 C 220.160156 218.472656 205.519531 203.832031 187.5 203.832031 C 169.480469 203.832031 154.839844 218.472656 154.839844 236.492188 C 154.839844 248.25 161.097656 258.484375 170.40625 264.253906 C 152.335938 267.246094 138.507812 282.925781 138.507812 301.816406 Z M 165.726562 236.492188 C 165.726562 224.460938 175.46875 214.71875 187.5 214.71875 C 199.53125 214.71875 209.273438 224.460938 209.273438 236.492188 C 209.273438 248.523438 199.53125 258.265625 187.5 258.265625 C 175.46875 258.265625 165.726562 248.523438 165.726562 236.492188 Z M 176.613281 274.597656 L 198.386719 274.597656 C 213.410156 274.597656 225.605469 286.789062 225.605469 301.816406 L 225.605469 345.363281 L 149.394531 345.363281 L 149.394531 301.816406 C 149.394531 286.789062 161.589844 274.597656 176.613281 274.597656 Z M 176.613281 274.597656 " fill-opacity="1" fill-rule="nonzero"/></g><path fill="#00f3f7" d="M 252.824219 301.816406 L 252.824219 345.363281 C 252.824219 348.355469 255.273438 350.804688 258.265625 350.804688 L 334.476562 350.804688 C 337.46875 350.804688 339.917969 348.355469 339.917969 345.363281 L 339.917969 301.816406 C 339.917969 285.59375 327.996094 272.09375 312.484375 269.589844 C 319.996094 264.417969 324.949219 255.816406 324.949219 246.019531 C 324.949219 230.230469 312.101562 217.441406 296.371094 217.441406 C 280.640625 217.441406 267.792969 230.230469 267.792969 246.019531 C 267.792969 255.816406 272.746094 264.472656 280.257812 269.589844 C 264.742188 272.09375 252.824219 285.539062 252.824219 301.816406 Z M 278.679688 246.019531 C 278.679688 236.273438 286.628906 228.328125 296.371094 228.328125 C 306.113281 228.328125 314.0625 236.273438 314.0625 246.019531 C 314.0625 255.761719 306.113281 263.710938 296.371094 263.710938 C 286.628906 263.710938 278.679688 255.761719 278.679688 246.019531 Z M 263.710938 301.816406 C 263.710938 289.785156 273.453125 280.039062 285.484375 280.039062 L 307.257812 280.039062 C 319.289062 280.039062 329.03125 289.785156 329.03125 301.816406 L 329.03125 339.917969 L 263.710938 339.917969 Z M 263.710938 301.816406 " fill-opacity="1" fill-rule="nonzero"/><g clip-path="url(#821d1ca1a7)"><path fill="#00f3f7" d="M 258.265625 138.507812 L 258.265625 29.636719 C 258.265625 23.648438 253.367188 18.75 247.378906 18.75 L 127.621094 18.75 C 121.632812 18.75 116.734375 23.648438 116.734375 29.636719 L 116.734375 138.507812 C 116.734375 144.496094 121.632812 149.394531 127.621094 149.394531 L 172.695312 149.394531 L 182.328125 178.355469 C 183.089844 180.585938 185.160156 182.054688 187.5 182.054688 C 189.839844 182.054688 191.910156 180.53125 192.671875 178.355469 L 202.304688 149.394531 L 247.378906 149.394531 C 253.367188 149.394531 258.265625 144.496094 258.265625 138.507812 Z M 198.386719 138.507812 C 196.046875 138.507812 193.976562 140.03125 193.214844 142.210938 L 187.5 159.355469 L 181.785156 142.210938 C 181.023438 139.976562 178.953125 138.507812 176.613281 138.507812 L 127.621094 138.507812 L 127.621094 29.636719 L 247.378906 29.636719 L 247.378906 138.507812 Z M 198.386719 138.507812 " fill-opacity="1" fill-rule="nonzero"/></g><g clip-path="url(#f38a2e027b)"><path fill="#00f3f7" d="M 345.363281 56.855469 L 274.597656 56.855469 L 274.597656 67.742188 L 345.363281 67.742188 L 345.363281 165.726562 L 305.679688 165.726562 C 303.503906 165.726562 301.542969 167.03125 300.671875 169.046875 L 296.371094 179.117188 L 292.070312 169.046875 C 291.199219 167.03125 289.238281 165.726562 287.0625 165.726562 L 247.378906 165.726562 L 247.378906 176.613281 L 283.46875 176.613281 L 291.363281 195.066406 C 292.234375 197.082031 294.195312 198.386719 296.371094 198.386719 C 298.546875 198.386719 300.507812 197.082031 301.378906 195.066406 L 309.273438 176.613281 L 345.363281 176.613281 C 351.351562 176.613281 356.25 171.714844 356.25 165.726562 L 356.25 67.742188 C 356.25 61.753906 351.351562 56.855469 345.363281 56.855469 Z M 345.363281 56.855469 " fill-opacity="1" fill-rule="nonzero"/></g><path fill="#00f3f7" d="M 35.082031 301.816406 L 35.082031 345.363281 C 35.082031 348.355469 37.53125 350.804688 40.523438 350.804688 L 116.734375 350.804688 C 119.726562 350.804688 122.175781 348.355469 122.175781 345.363281 L 122.175781 301.816406 C 122.175781 285.59375 110.257812 272.09375 94.742188 269.589844 C 102.253906 264.417969 107.207031 255.816406 107.207031 246.019531 C 107.207031 230.230469 94.359375 217.441406 78.628906 217.441406 C 62.898438 217.441406 50.050781 230.230469 50.050781 246.019531 C 50.050781 255.816406 55.003906 264.472656 62.515625 269.589844 C 47.003906 272.09375 35.082031 285.539062 35.082031 301.816406 Z M 60.9375 246.019531 C 60.9375 236.273438 68.886719 228.328125 78.628906 228.328125 C 88.371094 228.328125 96.320312 236.273438 96.320312 246.019531 C 96.320312 255.761719 88.371094 263.710938 78.628906 263.710938 C 68.886719 263.710938 60.9375 255.761719 60.9375 246.019531 Z M 45.96875 301.816406 C 45.96875 289.785156 55.710938 280.039062 67.742188 280.039062 L 89.515625 280.039062 C 101.546875 280.039062 111.289062 289.785156 111.289062 301.816406 L 111.289062 339.917969 L 45.96875 339.917969 Z M 45.96875 301.816406 " fill-opacity="1" fill-rule="nonzero"/><g clip-path="url(#5bb70f8631)"><path fill="#00f3f7" d="M 29.636719 176.613281 L 65.726562 176.613281 L 73.621094 195.066406 C 74.492188 197.082031 76.453125 198.386719 78.628906 198.386719 C 80.804688 198.386719 82.765625 197.082031 83.636719 195.066406 L 91.53125 176.613281 L 127.621094 176.613281 L 127.621094 165.726562 L 87.9375 165.726562 C 85.761719 165.726562 83.800781 167.03125 82.929688 169.046875 L 78.628906 179.117188 L 74.328125 169.046875 C 73.457031 167.03125 71.496094 165.726562 69.320312 165.726562 L 29.636719 165.726562 L 29.636719 67.742188 L 100.402344 67.742188 L 100.402344 56.855469 L 29.636719 56.855469 C 23.648438 56.855469 18.75 61.753906 18.75 67.742188 L 18.75 165.726562 C 18.75 171.714844 23.648438 176.613281 29.636719 176.613281 Z M 29.636719 176.613281 " fill-opacity="1" fill-rule="nonzero"/></g><path fill="#00f3f7" d="M 217.113281 73.183594 L 211.507812 73.183594 L 214.390625 61.699219 C 216.023438 55.167969 212.429688 48.582031 206.28125 46.621094 C 200.019531 44.660156 193.324219 47.925781 190.984375 54.023438 L 185.59375 68.449219 C 184.558594 71.28125 181.785156 73.183594 178.789062 73.183594 L 176.613281 73.183594 C 176.613281 70.191406 174.164062 67.796875 171.167969 67.796875 L 149.394531 67.796875 C 146.402344 67.796875 143.953125 70.246094 143.953125 73.238281 L 143.953125 116.789062 C 143.953125 119.78125 146.402344 122.230469 149.394531 122.230469 L 171.167969 122.230469 C 173.835938 122.230469 175.960938 120.273438 176.394531 117.769531 L 181.730469 121.304688 C 182.601562 121.90625 183.691406 122.230469 184.722656 122.230469 L 214.71875 122.230469 C 221.792969 122.230469 227.78125 116.898438 228.542969 109.820312 L 230.886719 88.589844 C 231.320312 84.671875 230.070312 80.699219 227.402344 77.757812 C 224.734375 74.820312 220.976562 73.132812 217.003906 73.132812 Z M 165.726562 111.34375 L 154.839844 111.34375 L 154.839844 78.683594 L 165.726562 78.683594 Z M 217.765625 108.621094 C 217.601562 110.148438 216.296875 111.34375 214.773438 111.34375 L 186.410156 111.34375 L 179.605469 106.828125 C 178.734375 106.226562 177.648438 105.902344 176.613281 105.902344 L 176.613281 84.074219 L 178.734375 84.074219 C 186.246094 84.074219 193.105469 79.335938 195.773438 72.261719 L 201.164062 57.835938 C 201.382812 57.179688 202.144531 56.691406 203.015625 56.964844 C 203.667969 57.179688 204.046875 58.160156 203.832031 58.976562 L 199.257812 77.269531 C 198.824219 78.902344 199.257812 80.644531 200.238281 81.949219 C 201.21875 83.257812 202.851562 84.019531 204.539062 84.019531 L 217.113281 84.019531 C 218.308594 84.019531 219.019531 84.671875 219.398438 85.050781 C 219.78125 85.433594 220.269531 86.25 220.160156 87.394531 L 217.820312 108.621094 Z M 217.765625 108.621094 " fill-opacity="1" fill-rule="nonzero"/><path fill="#00f3f7" d="M 291.582031 135.785156 L 300.890625 142.863281 C 301.867188 143.625 303.011719 143.953125 304.15625 143.953125 C 305.296875 143.953125 306.496094 143.570312 307.421875 142.863281 L 316.730469 135.785156 C 322.609375 131.324219 327.5625 125.769531 331.480469 119.238281 C 336.054688 111.671875 335.183594 101.820312 329.304688 95.339844 C 325.929688 91.585938 321.355469 89.515625 316.457031 89.515625 C 311.777344 89.515625 307.421875 91.421875 304.101562 94.851562 C 300.78125 91.421875 296.371094 89.515625 291.742188 89.515625 C 286.84375 89.515625 282.273438 91.585938 278.898438 95.339844 C 273.074219 101.820312 272.148438 111.671875 276.71875 119.238281 C 280.640625 125.769531 285.59375 131.324219 291.472656 135.785156 Z M 287.0625 102.636719 C 288.367188 101.164062 290.054688 100.402344 291.796875 100.402344 C 293.539062 100.402344 295.28125 101.21875 296.589844 102.636719 L 300.179688 106.609375 C 302.25 108.894531 306.222656 108.894531 308.238281 106.609375 L 311.832031 102.636719 C 314.445312 99.75 318.742188 99.75 321.355469 102.636719 C 323.914062 105.519531 324.351562 110.203125 322.28125 113.632812 C 319.070312 118.964844 315.042969 123.484375 310.253906 127.132812 L 304.210938 131.703125 L 298.167969 127.132812 C 293.378906 123.539062 289.347656 118.964844 286.136719 113.632812 C 284.070312 110.257812 284.503906 105.519531 287.0625 102.636719 Z M 287.0625 102.636719 " fill-opacity="1" fill-rule="nonzero"/><path fill="#00f3f7" d="M 48.691406 92.238281 L 59.578125 92.238281 L 59.578125 103.125 L 48.691406 103.125 Z M 48.691406 92.238281 " fill-opacity="1" fill-rule="nonzero"/><path fill="#00f3f7" d="M 75.90625 92.238281 L 86.792969 92.238281 L 86.792969 103.125 L 75.90625 103.125 Z M 75.90625 92.238281 " fill-opacity="1" fill-rule="nonzero"/><path fill="#00f3f7" d="M 67.742188 141.230469 C 82.765625 141.230469 94.960938 129.035156 94.960938 114.011719 L 84.074219 114.011719 C 84.074219 122.992188 76.722656 130.34375 67.742188 130.34375 C 58.761719 130.34375 51.410156 122.992188 51.410156 114.011719 L 40.523438 114.011719 C 40.523438 129.035156 52.71875 141.230469 67.742188 141.230469 Z M 67.742188 141.230469 " fill-opacity="1" fill-rule="nonzero"/></svg>