<svg xmlns="http://www.w3.org/2000/svg" xmlns:xlink="http://www.w3.org/1999/xlink" width="500" zoomAndPan="magnify" viewBox="0 0 375 374.999991" height="500" preserveAspectRatio="xMidYMid meet" version="1.0"><defs><clipPath id="dd9ec552f6"><path d="M 6.75 6.75 L 368.25 6.75 L 368.25 368.25 L 6.75 368.25 Z M 6.75 6.75 " clip-rule="nonzero"/></clipPath></defs><g clip-path="url(#dd9ec552f6)"><path fill="#00f3f7" d="M 110.863281 267.222656 L 122.824219 267.222656 C 126.046875 267.222656 128.65625 269.832031 128.65625 273.054688 L 128.65625 308.640625 C 128.65625 311.863281 126.046875 314.472656 122.824219 314.472656 L 87.238281 314.472656 C 84.015625 314.472656 81.40625 311.863281 81.40625 308.640625 L 81.40625 273.054688 C 81.40625 269.832031 84.015625 267.222656 87.238281 267.222656 L 99.199219 267.222656 L 99.199219 239.867188 C 99.199219 236.644531 101.8125 234.035156 105.03125 234.035156 L 192.3125 234.035156 L 192.3125 201.160156 L 141.007812 201.160156 C 136.042969 201.160156 132.019531 197.113281 132.019531 192.179688 L 132.019531 42.195312 C 132.019531 37.234375 136.046875 33.207031 141.007812 33.207031 L 221.890625 33.207031 C 224.253906 33.207031 226.3125 34.023438 228 35.609375 L 261.238281 63.207031 C 261.378906 63.320312 261.511719 63.441406 261.636719 63.570312 C 263.375 65.304688 264.269531 67.445312 264.269531 69.917969 L 264.269531 192.179688 C 264.269531 197.121094 260.230469 201.160156 255.289062 201.160156 L 203.972656 201.160156 L 203.972656 234.035156 L 291.257812 234.035156 C 294.476562 234.035156 297.085938 236.644531 297.085938 239.867188 L 297.085938 267.222656 L 309.050781 267.222656 C 312.269531 267.222656 314.882812 269.832031 314.882812 273.054688 L 314.882812 308.640625 C 314.882812 311.863281 312.269531 314.472656 309.050781 314.472656 L 273.460938 314.472656 C 270.242188 314.472656 267.632812 311.863281 267.632812 308.640625 L 267.632812 273.054688 C 267.632812 269.832031 270.242188 267.222656 273.460938 267.222656 L 285.425781 267.222656 C 285.425781 259.1875 285.425781 245.695312 285.425781 245.695312 L 203.972656 245.695312 L 203.972656 267.222656 L 215.9375 267.222656 C 219.160156 267.222656 221.769531 269.832031 221.769531 273.054688 L 221.769531 308.640625 C 221.769531 311.863281 219.160156 314.472656 215.9375 314.472656 L 180.347656 314.472656 C 177.128906 314.472656 174.519531 311.863281 174.519531 308.640625 L 174.519531 273.054688 C 174.519531 269.832031 177.128906 267.222656 180.347656 267.222656 L 192.3125 267.222656 L 192.3125 245.695312 C 172.777344 245.695312 110.863281 245.695312 110.863281 245.695312 Z M 116.996094 278.882812 C 116.996094 278.882812 93.066406 278.882812 93.066406 278.882812 C 93.066406 278.882812 93.066406 302.8125 93.066406 302.8125 C 93.066406 302.8125 116.996094 302.8125 116.996094 302.8125 Z M 303.21875 278.882812 C 303.21875 278.882812 279.292969 278.882812 279.292969 278.882812 C 279.292969 278.882812 279.292969 302.8125 279.292969 302.8125 C 279.292969 302.8125 303.21875 302.8125 303.21875 302.8125 Z M 210.109375 278.882812 C 210.109375 278.882812 186.179688 278.882812 186.179688 278.882812 C 186.179688 278.882812 186.179688 302.8125 186.179688 302.8125 C 186.179688 302.8125 210.109375 302.8125 210.109375 302.8125 Z M 216.058594 44.867188 L 143.679688 44.867188 L 143.679688 189.496094 L 252.609375 189.496094 L 252.609375 75.746094 L 224.863281 75.746094 C 219.78125 75.746094 216.058594 71.695312 216.058594 67.40625 Z M 227.71875 51.417969 L 227.71875 64.085938 L 242.734375 64.085938 Z M 210.101562 91.285156 C 211.949219 91.890625 213.746094 92.636719 215.484375 93.515625 L 218.980469 91.960938 C 221.1875 90.980469 223.769531 91.457031 225.472656 93.164062 L 232.734375 100.425781 C 234.4375 102.128906 234.917969 104.707031 233.941406 106.910156 C 233.941406 106.910156 232.390625 110.410156 232.390625 110.410156 C 233.273438 112.152344 234.019531 113.957031 234.625 115.8125 L 238.191406 117.183594 C 240.445312 118.050781 241.929688 120.210938 241.929688 122.625 L 241.929688 132.894531 C 241.929688 135.308594 240.445312 137.46875 238.191406 138.335938 C 238.191406 138.335938 234.621094 139.710938 234.621094 139.710938 C 234.015625 141.558594 233.269531 143.359375 232.390625 145.09375 L 233.941406 148.601562 C 234.917969 150.804688 234.4375 153.378906 232.734375 155.085938 L 225.472656 162.34375 C 223.769531 164.046875 221.191406 164.527344 218.988281 163.554688 C 218.988281 163.554688 215.488281 162.003906 215.488281 162.003906 C 213.753906 162.882812 211.949219 163.628906 210.097656 164.234375 L 208.726562 167.804688 C 207.859375 170.054688 205.695312 171.539062 203.285156 171.539062 L 193.015625 171.539062 C 190.601562 171.539062 188.441406 170.054688 187.574219 167.804688 C 187.574219 167.804688 186.199219 164.234375 186.199219 164.234375 C 184.34375 163.628906 182.542969 162.878906 180.804688 162 L 177.296875 163.554688 C 175.09375 164.527344 172.519531 164.046875 170.8125 162.34375 L 163.554688 155.085938 C 161.847656 153.378906 161.367188 150.796875 162.347656 148.59375 C 162.347656 148.59375 163.902344 145.097656 163.902344 145.097656 C 163.023438 143.363281 162.277344 141.5625 161.671875 139.710938 L 158.09375 138.335938 C 155.84375 137.46875 154.359375 135.308594 154.359375 132.894531 L 154.359375 122.625 C 154.359375 120.210938 155.84375 118.050781 158.09375 117.183594 C 158.09375 117.183594 161.667969 115.808594 161.667969 115.808594 C 162.277344 113.957031 163.023438 112.152344 163.90625 110.414062 L 162.347656 106.917969 C 161.367188 104.710938 161.847656 102.128906 163.554688 100.425781 L 170.8125 93.164062 C 172.519531 91.457031 175.101562 90.980469 177.304688 91.960938 C 177.304688 91.960938 180.804688 93.515625 180.804688 93.515625 C 182.542969 92.632812 184.34375 91.890625 186.191406 91.285156 L 187.574219 87.703125 C 188.441406 85.453125 190.605469 83.96875 193.015625 83.96875 L 203.285156 83.96875 C 205.699219 83.96875 207.859375 85.457031 208.726562 87.710938 Z M 200.261719 98.191406 L 199.277344 95.632812 L 197.015625 95.632812 L 196.023438 98.199219 C 195.332031 99.988281 193.800781 101.328125 191.933594 101.769531 C 189.1875 102.421875 186.566406 103.507812 184.160156 104.992188 C 182.519531 106 180.488281 106.136719 178.730469 105.355469 L 176.226562 104.242188 L 174.632812 105.839844 L 175.746094 108.34375 C 176.527344 110.101562 176.390625 112.132812 175.382812 113.769531 C 173.894531 116.183594 172.808594 118.804688 172.148438 121.566406 C 171.699219 123.429688 170.363281 124.957031 168.570312 125.648438 L 166.019531 126.628906 L 166.019531 128.890625 L 168.570312 129.871094 C 170.359375 130.5625 171.699219 132.085938 172.144531 133.949219 C 172.808594 136.699219 173.890625 139.332031 175.375 141.730469 C 176.390625 143.371094 176.527344 145.40625 175.746094 147.167969 L 174.632812 149.671875 L 176.230469 151.269531 L 178.738281 150.160156 C 180.492188 149.382812 182.511719 149.519531 184.148438 150.519531 C 186.558594 151.996094 189.179688 153.09375 191.9375 153.746094 C 193.8125 154.191406 195.34375 155.53125 196.035156 157.328125 L 197.019531 159.878906 L 199.28125 159.878906 L 200.261719 157.328125 C 200.953125 155.53125 202.484375 154.191406 204.355469 153.75 C 207.097656 153.097656 209.722656 152.015625 212.121094 150.53125 C 213.757812 149.519531 215.789062 149.378906 217.550781 150.160156 L 220.054688 151.269531 L 221.660156 149.667969 L 220.550781 147.160156 C 219.773438 145.40625 219.90625 143.386719 220.910156 141.753906 C 222.386719 139.339844 223.484375 136.71875 224.136719 133.964844 C 224.582031 132.09375 225.921875 130.5625 227.714844 129.871094 L 230.269531 128.890625 L 230.269531 126.628906 L 227.714844 125.648438 C 225.921875 124.957031 224.582031 123.421875 224.136719 121.550781 C 223.484375 118.796875 222.398438 116.175781 220.917969 113.769531 C 219.910156 112.132812 219.769531 110.105469 220.550781 108.351562 C 220.550781 108.351562 221.660156 105.84375 221.660156 105.84375 L 220.058594 104.242188 L 217.554688 105.355469 C 215.796875 106.136719 213.765625 106 212.128906 104.992188 C 209.722656 103.507812 207.101562 102.421875 204.355469 101.769531 C 202.484375 101.324219 200.953125 99.988281 200.261719 98.191406 Z M 198.144531 104.011719 C 211.261719 104.011719 221.898438 114.636719 221.898438 127.753906 C 221.898438 140.871094 211.261719 151.507812 198.144531 151.507812 C 185.027344 151.507812 174.402344 140.871094 174.402344 127.753906 C 174.402344 114.636719 185.023438 104.011719 198.144531 104.011719 Z M 198.144531 115.671875 C 191.46875 115.671875 186.0625 121.078125 186.0625 127.753906 C 186.0625 134.429688 191.46875 139.847656 198.144531 139.847656 C 204.820312 139.847656 210.234375 134.433594 210.234375 127.753906 C 210.234375 121.078125 204.820312 115.671875 198.144531 115.671875 Z M 356.652344 251.289062 L 356.984375 251.050781 C 359.597656 249.175781 363.246094 249.773438 365.121094 252.386719 C 366.996094 255.003906 366.398438 258.648438 363.78125 260.523438 L 345.875 273.378906 C 344.203125 274.574219 341.992188 274.824219 340.070312 273.953125 C 339.96875 273.90625 339.703125 273.769531 339.671875 273.753906 C 338.710938 273.230469 337.957031 272.46875 337.441406 271.585938 C 337.023438 270.871094 336.757812 270.066406 336.671875 269.214844 L 334.496094 247.28125 C 334.179688 244.078125 336.519531 241.21875 339.722656 240.902344 C 342.925781 240.585938 345.78125 242.925781 346.101562 246.128906 L 346.105469 246.195312 C 352.886719 227.910156 356.589844 208.132812 356.589844 187.5 C 356.589844 94.175781 280.824219 18.410156 187.5 18.410156 C 159.199219 18.410156 132.515625 25.375 109.070312 37.6875 C 106.222656 39.183594 102.691406 38.085938 101.195312 35.238281 C 99.703125 32.386719 100.800781 28.859375 103.648438 27.363281 C 128.714844 14.199219 157.246094 6.75 187.5 6.75 C 287.257812 6.75 368.25 87.742188 368.25 187.5 C 368.25 209.949219 364.148438 231.449219 356.652344 251.289062 Z M 18.589844 123.066406 L 17.699219 123.683594 C 15.050781 125.511719 11.417969 124.847656 9.589844 122.199219 C 7.757812 119.550781 8.425781 115.914062 11.074219 114.085938 L 29.210938 101.5625 C 30.902344 100.394531 33.117188 100.183594 35.023438 101.089844 C 35.09375 101.125 35.289062 101.226562 35.316406 101.238281 C 36.265625 101.757812 37.011719 102.5 37.53125 103.367188 C 37.980469 104.125 38.265625 104.984375 38.335938 105.890625 L 40.113281 127.863281 C 40.375 131.070312 37.980469 133.882812 34.773438 134.144531 C 31.832031 134.382812 29.21875 132.386719 28.605469 129.578125 C 22.011719 147.648438 18.410156 167.160156 18.410156 187.5 C 18.410156 280.824219 94.175781 356.589844 187.5 356.589844 C 215.800781 356.589844 242.484375 349.625 265.929688 337.3125 C 268.777344 335.816406 272.308594 336.914062 273.804688 339.761719 C 275.296875 342.613281 274.199219 346.140625 271.351562 347.636719 C 246.285156 360.800781 217.753906 368.25 187.5 368.25 C 87.742188 368.25 6.75 287.257812 6.75 187.5 C 6.75 164.808594 10.941406 143.085938 18.589844 123.066406 Z M 18.589844 123.066406 " fill-opacity="1" fill-rule="evenodd"/></g></svg>