<svg xmlns="http://www.w3.org/2000/svg" xmlns:xlink="http://www.w3.org/1999/xlink" width="500" zoomAndPan="magnify" viewBox="0 0 375 374.999991" height="500" preserveAspectRatio="xMidYMid meet" version="1.0"><defs><clipPath id="1cd4fa60fa"><path d="M 71 131.210938 L 362.839844 131.210938 L 362.839844 364.023438 L 71 364.023438 Z M 71 131.210938 " clip-rule="nonzero"/></clipPath></defs><path fill="#00f3f7" d="M 146.863281 201.050781 L 146.863281 156.304688 C 146.863281 151.085938 142.636719 146.859375 137.421875 146.859375 L 98.484375 146.859375 C 80.914062 146.855469 66.667969 161.101562 66.667969 178.671875 C 66.664062 196.246094 80.910156 210.492188 98.484375 210.492188 L 137.417969 210.492188 C 142.636719 210.492188 146.863281 206.265625 146.863281 201.050781 " fill-opacity="1" fill-rule="nonzero"/><path fill="#00f3f7" d="M 313.554688 178.707031 C 313.554688 175.511719 310.964844 172.921875 307.769531 172.921875 L 280.464844 172.921875 C 277.265625 172.921875 274.675781 175.511719 274.675781 178.707031 C 274.675781 181.902344 277.265625 184.492188 280.464844 184.492188 L 307.769531 184.492188 C 310.964844 184.492188 313.554688 181.902344 313.554688 178.707031 " fill-opacity="1" fill-rule="nonzero"/><path fill="#00f3f7" d="M 284.761719 118.222656 L 263.265625 135.058594 C 260.75 137.03125 260.308594 140.664062 262.277344 143.179688 C 264.25 145.695312 267.882812 146.140625 270.398438 144.167969 L 291.898438 127.328125 C 294.414062 125.359375 294.855469 121.722656 292.882812 119.207031 C 290.914062 116.691406 287.277344 116.25 284.761719 118.222656 " fill-opacity="1" fill-rule="nonzero"/><path fill="#00f3f7" d="M 263.265625 222.351562 L 284.761719 239.191406 C 287.277344 241.164062 290.914062 240.71875 292.882812 238.203125 C 294.855469 235.6875 294.414062 232.050781 291.898438 230.082031 L 270.398438 213.246094 C 267.882812 211.273438 264.25 211.714844 262.277344 214.230469 C 260.308594 216.746094 260.75 220.382812 263.265625 222.351562 " fill-opacity="1" fill-rule="nonzero"/><path fill="#00f3f7" d="M 155.996094 210.898438 C 174.632812 213.171875 204.746094 221.984375 234.667969 252.519531 C 238.875 256.8125 246.175781 253.824219 246.191406 247.816406 L 246.386719 179.066406 L 246.578125 110.320312 C 246.59375 104.308594 239.3125 101.28125 235.082031 105.550781 C 204.960938 135.945312 174.773438 144.574219 156.125 146.738281 C 157.597656 149.609375 158.4375 152.859375 158.4375 156.304688 L 158.433594 201.050781 C 158.433594 204.542969 157.585938 207.902344 155.996094 210.898438 " fill-opacity="1" fill-rule="nonzero"/><path fill="#00f3f7" d="M 96.613281 222.019531 L 96.507812 259.808594 C 96.476562 270.332031 104.984375 278.886719 115.507812 278.914062 C 126.03125 278.945312 134.589844 270.4375 134.617188 259.914062 L 134.722656 222.066406 L 98.480469 222.0625 C 97.859375 222.0625 97.234375 222.046875 96.613281 222.019531 " fill-opacity="1" fill-rule="nonzero"/><path fill="#00f3f7" d="M 293.699219 27.128906 C 291.664062 22.195312 285.042969 21.324219 281.78125 25.554688 L 271.554688 38.824219 C 271.265625 38.59375 270.953125 38.386719 270.613281 38.207031 C 218.4375 10.953125 156.65625 11.9375 105.359375 40.84375 C 87.238281 51.058594 71.308594 64.21875 58.007812 79.964844 C 45.160156 95.175781 35.101562 112.386719 28.117188 131.117188 C 14.042969 168.832031 13.546875 210.398438 26.710938 248.15625 C 27.761719 251.171875 31.0625 252.765625 34.078125 251.714844 C 37.09375 250.65625 38.6875 247.363281 37.636719 244.34375 C 11.960938 170.707031 42.832031 89.363281 111.039062 50.925781 C 158.648438 24.097656 215.925781 23.042969 264.445312 48.050781 L 255.679688 59.425781 C 252.417969 63.65625 254.960938 69.824219 260.257812 70.519531 L 302.628906 76.109375 C 307.925781 76.808594 312.003906 71.515625 309.96875 66.582031 L 293.699219 27.128906 " fill-opacity="1" fill-rule="nonzero"/><g clip-path="url(#1cd4fa60fa)"><path fill="#00f3f7" d="M 353.808594 135.191406 C 352.773438 132.167969 349.480469 130.558594 346.457031 131.59375 C 346.117188 131.710938 345.792969 131.859375 345.488281 132.03125 C 343.105469 133.371094 341.941406 136.261719 342.863281 138.945312 C 368.015625 212.324219 337.03125 293.335938 269.183594 331.570312 C 222.074219 358.113281 165.285156 359.410156 117.054688 335.09375 L 125.921875 323.398438 C 129.152344 319.140625 126.5625 312.996094 121.257812 312.339844 L 78.84375 307.082031 C 73.542969 306.425781 69.503906 311.75 71.578125 316.664062 L 88.160156 355.992188 C 90.230469 360.910156 96.859375 361.730469 100.085938 357.472656 L 110.007812 344.390625 C 110.273438 344.59375 110.558594 344.777344 110.867188 344.933594 C 162.757812 371.503906 224.0625 370.273438 274.863281 341.648438 C 292.917969 331.476562 308.800781 318.371094 322.070312 302.699219 C 334.894531 287.558594 344.945312 270.425781 351.957031 251.785156 C 366.0625 214.261719 366.71875 172.855469 353.808594 135.191406 " fill-opacity="1" fill-rule="nonzero"/></g></svg>