<svg xmlns="http://www.w3.org/2000/svg" xmlns:xlink="http://www.w3.org/1999/xlink" width="500" zoomAndPan="magnify" viewBox="0 0 375 374.999991" height="500" preserveAspectRatio="xMidYMid meet" version="1.0"><defs><clipPath id="5bbf299e00"><path d="M 78 16.828125 L 297 16.828125 L 297 51 L 78 51 Z M 78 16.828125 " clip-rule="nonzero"/></clipPath><clipPath id="5d520e1228"><path d="M 19 76 L 356 76 L 356 358.078125 L 19 358.078125 Z M 19 76 " clip-rule="nonzero"/></clipPath></defs><g clip-path="url(#5bbf299e00)"><path fill="#00f3f7" d="M 268.484375 36.164062 C 268.484375 37.074219 267.753906 37.789062 266.867188 37.789062 L 195.511719 37.789062 C 194.621094 37.789062 193.886719 37.074219 193.886719 36.164062 L 193.886719 31.0625 C 193.886719 30.160156 194.621094 29.429688 195.511719 29.429688 L 266.867188 29.429688 C 267.753906 29.429688 268.484375 30.160156 268.484375 31.0625 Z M 141.433594 37.789062 L 128.785156 37.789062 L 128.785156 29.429688 L 141.433594 29.429688 Z M 125.382812 37.789062 L 114.34375 37.789062 L 114.34375 29.429688 L 125.382812 29.429688 Z M 110.933594 37.789062 L 98.554688 37.789062 L 98.554688 29.429688 L 110.933594 29.429688 Z M 277.152344 16.804688 L 98.039062 16.804688 C 87.320312 16.804688 78.644531 26.355469 78.644531 38.160156 L 78.644531 50.429688 L 296.550781 50.429688 L 296.550781 38.160156 C 296.550781 26.355469 287.859375 16.804688 277.152344 16.804688 " fill-opacity="1" fill-rule="nonzero"/></g><g clip-path="url(#5d520e1228)"><path fill="#00f3f7" d="M 215.417969 269.828125 C 215.417969 271.199219 214.335938 272.285156 212.988281 272.285156 L 162.210938 272.285156 C 160.863281 272.285156 159.777344 271.199219 159.777344 269.828125 L 159.777344 261.9375 C 159.777344 260.589844 160.863281 259.480469 162.210938 259.480469 L 212.988281 259.480469 C 214.335938 259.480469 215.417969 260.589844 215.417969 261.9375 Z M 327.804688 76.011719 L 301.339844 76.011719 L 301.339844 86.863281 L 326.765625 86.863281 C 338.207031 86.863281 344.957031 93.539062 344.957031 104.855469 C 344.972656 148.480469 344.972656 192.105469 344.972656 235.742188 L 344.972656 238.726562 L 30.648438 238.726562 C 29.863281 237.820312 30.253906 236.765625 30.253906 235.808594 C 30.222656 192.167969 30.222656 148.542969 30.238281 104.910156 C 30.238281 93.570312 36.976562 86.863281 48.359375 86.863281 L 73.859375 86.863281 L 73.859375 76.011719 L 47.335938 76.011719 C 31.046875 76.011719 19.386719 87.65625 19.386719 103.933594 C 19.371094 157.625 19.371094 211.328125 19.386719 265.03125 C 19.386719 281.492188 31.007812 293.078125 47.566406 293.078125 C 83.957031 293.078125 120.371094 293.078125 156.757812 293.09375 C 157.960938 293.09375 159.230469 292.691406 160.253906 293.371094 L 160.253906 314.785156 C 154.289062 314.785156 148.523438 314.738281 142.773438 314.800781 C 123.132812 315.0625 106.152344 332.328125 106.199219 351.898438 C 106.222656 356.171875 108.113281 358.179688 112.324219 358.179688 C 162.527344 358.195312 212.703125 358.195312 262.902344 358.179688 C 267.089844 358.179688 268.984375 356.15625 269 351.867188 C 269 332.285156 252.023438 315.0625 232.394531 314.800781 C 226.558594 314.722656 220.730469 314.785156 214.8125 314.785156 L 214.8125 293.078125 L 218.800781 293.078125 C 255.210938 293.078125 291.617188 293.09375 328.007812 293.078125 C 344.070312 293.054688 355.8125 281.359375 355.8125 265.332031 C 355.828125 211.515625 355.828125 157.703125 355.8125 103.886719 C 355.8125 87.644531 344.117188 76.011719 327.804688 76.011719 " fill-opacity="1" fill-rule="nonzero"/></g><path fill="#00f3f7" d="M 84.820312 213.394531 L 84.820312 62.683594 L 290.378906 62.683594 L 290.378906 213.394531 L 296.390625 213.394531 L 296.390625 56.410156 L 78.800781 56.410156 L 78.800781 213.394531 L 84.820312 213.394531 " fill-opacity="1" fill-rule="nonzero"/><path fill="#00f3f7" d="M 133.941406 99.945312 C 139.160156 99.976562 143.519531 95.648438 143.582031 90.382812 C 143.632812 85.140625 139.277344 80.738281 133.996094 80.714844 C 128.792969 80.691406 124.402344 85.039062 124.351562 90.269531 C 124.296875 95.519531 128.652344 99.90625 133.941406 99.945312 " fill-opacity="1" fill-rule="nonzero"/><path fill="#00f3f7" d="M 163.84375 108.011719 C 162.742188 107.140625 161.710938 106.324219 160.6875 105.511719 C 157.882812 103.277344 155.089844 101.046875 152.285156 98.8125 C 150.808594 97.636719 149.371094 97.644531 147.945312 98.875 C 143.734375 102.539062 139.523438 106.203125 135.3125 109.859375 C 135.160156 110 134.996094 110.128906 134.796875 110.296875 C 133.363281 108.695312 131.964844 107.117188 130.5625 105.539062 C 126.128906 100.542969 121.703125 95.546875 117.269531 90.558594 C 115.8125 88.921875 113.859375 88.898438 112.371094 90.507812 C 109.902344 93.171875 107.453125 95.847656 104.988281 98.527344 C 104.71875 98.820312 104.441406 99.113281 104.097656 99.484375 L 104.097656 79.042969 L 163.84375 79.042969 Z M 167.261719 72.476562 L 100.714844 72.476562 C 99.152344 72.476562 97.882812 73.746094 97.882812 75.308594 L 97.882812 127.378906 C 97.882812 128.949219 99.152344 130.222656 100.714844 130.222656 L 167.261719 130.222656 C 168.832031 130.222656 170.101562 128.949219 170.101562 127.378906 L 170.101562 75.308594 C 170.101562 73.746094 168.832031 72.476562 167.261719 72.476562 " fill-opacity="1" fill-rule="nonzero"/><path fill="#00f3f7" d="M 244.304688 152.914062 L 113.425781 152.914062 L 113.425781 147.042969 L 244.304688 147.042969 L 244.304688 152.914062 " fill-opacity="1" fill-rule="nonzero"/><path fill="#00f3f7" d="M 202.332031 165.878906 L 113.425781 165.878906 L 113.425781 160.003906 L 202.332031 160.003906 L 202.332031 165.878906 " fill-opacity="1" fill-rule="nonzero"/><path fill="#00f3f7" d="M 249.5625 196.941406 C 243.300781 195.054688 237.027344 193.175781 230.777344 191.277344 C 229.539062 190.898438 228.277344 190.714844 226.875 190.714844 C 203.796875 190.691406 180.714844 190.667969 157.636719 190.644531 C 157.289062 190.644531 156.929688 190.582031 156.636719 190.691406 C 156.589844 196.234375 156.550781 201.753906 156.503906 207.3125 C 156.757812 207.320312 156.976562 207.328125 157.191406 207.335938 C 180.378906 207.355469 203.558594 207.371094 226.742188 207.402344 C 228.191406 207.402344 229.484375 207.164062 230.714844 206.742188 C 237.011719 204.539062 243.316406 202.347656 249.613281 200.144531 C 250.152344 199.953125 250.738281 199.78125 251.09375 199.429688 C 252.039062 198.488281 251.460938 197.519531 249.5625 196.941406 " fill-opacity="1" fill-rule="nonzero"/><path fill="#00f3f7" d="M 145.765625 186.117188 C 149.746094 186.132812 153.742188 186.148438 157.714844 186.15625 C 162.816406 186.179688 167.914062 186.203125 173.019531 186.21875 C 177.113281 186.234375 181.203125 186.25 185.296875 186.265625 C 185.789062 186.273438 186.304688 186.265625 186.789062 186.226562 C 188.34375 186.109375 189.445312 185.585938 190.167969 184.726562 C 191.554688 183.070312 189.792969 180.730469 185.8125 180.722656 C 185.082031 180.722656 184.34375 180.722656 183.609375 180.722656 C 178.46875 180.714844 173.332031 180.699219 168.183594 180.675781 C 160.394531 180.652344 152.585938 180.621094 144.78125 180.589844 C 138.066406 180.574219 133.386719 183.484375 133.320312 187.726562 C 133.320312 188.671875 133.394531 189.628906 133.449219 190.714844 C 128.914062 190.675781 124.628906 190.621094 120.355469 190.605469 C 116.265625 190.582031 113.257812 192.492188 113.21875 195.0625 C 113.195312 197.117188 113.21875 199.167969 113.164062 201.230469 C 113.132812 202.652344 113.019531 204.078125 114.25 205.363281 C 114.589844 205.917969 115.734375 206.402344 116.019531 206.511719 C 116.066406 206.535156 116.089844 206.542969 116.089844 206.542969 C 117.089844 206.949219 118.152344 207.140625 119.253906 207.226562 C 120.171875 207.296875 121.085938 207.296875 122.039062 207.296875 C 125.488281 207.296875 128.929688 207.296875 132.378906 207.296875 C 138.652344 207.304688 144.917969 207.3125 151.203125 207.3125 C 151.515625 207.3125 151.863281 207.378906 152.054688 207.296875 C 152.085938 203.863281 152.117188 200.453125 152.132812 197.050781 C 152.171875 194.910156 152.171875 192.777344 152.195312 190.644531 C 151.21875 190.636719 150.230469 190.636719 149.214844 190.628906 C 148.539062 190.628906 147.84375 190.621094 147.152344 190.621094 C 145.449219 190.613281 143.757812 190.605469 142.046875 190.589844 C 142.054688 189.828125 142.0625 189.113281 142.070312 188.390625 C 142.085938 186.402344 142.578125 186.101562 145.765625 186.117188 " fill-opacity="1" fill-rule="nonzero"/></svg>