<svg xmlns="http://www.w3.org/2000/svg" xmlns:xlink="http://www.w3.org/1999/xlink" width="500" zoomAndPan="magnify" viewBox="0 0 375 374.999991" height="500" preserveAspectRatio="xMidYMid meet" version="1.0"><defs><clipPath id="8aba591fd7"><path d="M 62 44 L 305 44 L 305 345.457031 L 62 345.457031 Z M 62 44 " clip-rule="nonzero"/></clipPath><clipPath id="156c023e54"><path d="M 11.441406 249 L 56 249 L 56 294 L 11.441406 294 Z M 11.441406 249 " clip-rule="nonzero"/></clipPath><clipPath id="eec49d6543"><path d="M 319 103 L 363.191406 103 L 363.191406 148 L 319 148 Z M 319 103 " clip-rule="nonzero"/></clipPath><clipPath id="ecdb9405b4"><path d="M 62 29.707031 L 78 29.707031 L 78 45 L 62 45 Z M 62 29.707031 " clip-rule="nonzero"/></clipPath></defs><g clip-path="url(#8aba591fd7)"><path fill="#00f3f7" d="M 297.53125 44.453125 C 101.996094 44.464844 113.628906 44.292969 112 44.773438 C 110.867188 45.117188 109.832031 45.746094 109.03125 46.53125 C 108.734375 46.816406 65.078125 90.46875 64.863281 90.695312 C 63.539062 92.054688 62.789062 93.917969 62.789062 95.800781 L 62.789062 337.882812 C 62.789062 341.9375 66.070312 345.21875 70.121094 345.21875 L 297.53125 345.21875 C 301.582031 345.21875 304.867188 341.9375 304.867188 337.882812 L 304.867188 51.789062 C 304.867188 47.738281 301.582031 44.453125 297.53125 44.453125 Z M 106.804688 69.496094 L 106.804688 88.464844 L 87.832031 88.464844 Z M 290.195312 330.546875 L 77.460938 330.546875 L 77.460938 315.875 L 143.480469 315.875 C 147.53125 315.875 150.816406 312.59375 150.816406 308.539062 C 150.816406 304.488281 147.53125 301.203125 143.480469 301.203125 L 77.460938 301.203125 L 77.460938 103.136719 L 114.136719 103.136719 C 118.1875 103.136719 121.472656 99.855469 121.472656 95.800781 L 121.472656 59.125 L 290.195312 59.125 Z M 290.195312 330.546875 " fill-opacity="1" fill-rule="nonzero"/></g><path fill="#00f3f7" d="M 202.167969 66.460938 L 216.839844 66.460938 L 216.839844 81.128906 L 202.167969 81.128906 Z M 202.167969 66.460938 " fill-opacity="1" fill-rule="nonzero"/><path fill="#00f3f7" d="M 224.175781 66.460938 L 282.859375 66.460938 L 282.859375 81.128906 L 224.175781 81.128906 Z M 224.175781 66.460938 " fill-opacity="1" fill-rule="nonzero"/><path fill="#00f3f7" d="M 202.167969 88.464844 L 216.839844 88.464844 L 216.839844 103.136719 L 202.167969 103.136719 Z M 202.167969 88.464844 " fill-opacity="1" fill-rule="nonzero"/><path fill="#00f3f7" d="M 224.175781 88.464844 L 282.859375 88.464844 L 282.859375 103.136719 L 224.175781 103.136719 Z M 224.175781 88.464844 " fill-opacity="1" fill-rule="nonzero"/><g clip-path="url(#156c023e54)"><path fill="#00f3f7" d="M 33.445312 249.851562 C 21.308594 249.851562 11.4375 259.722656 11.4375 271.859375 C 11.4375 283.996094 21.308594 293.867188 33.445312 293.867188 C 45.582031 293.867188 55.453125 283.996094 55.453125 271.859375 C 55.453125 259.722656 45.582031 249.851562 33.445312 249.851562 Z M 33.445312 279.195312 C 29.398438 279.195312 26.109375 275.90625 26.109375 271.859375 C 26.109375 267.820312 29.398438 264.523438 33.445312 264.523438 C 37.492188 264.523438 40.78125 267.820312 40.78125 271.859375 C 40.78125 275.90625 37.492188 279.195312 33.445312 279.195312 Z M 33.445312 279.195312 " fill-opacity="1" fill-rule="nonzero"/></g><path fill="#00f3f7" d="M 330.542969 286.53125 C 320.429688 286.53125 312.203125 294.761719 312.203125 304.871094 C 312.203125 314.984375 320.429688 323.210938 330.542969 323.210938 C 340.652344 323.210938 348.882812 314.984375 348.882812 304.871094 C 348.882812 294.761719 340.652344 286.53125 330.542969 286.53125 Z M 330.542969 308.539062 C 328.519531 308.539062 326.875 306.890625 326.875 304.871094 C 326.875 302.847656 328.519531 301.203125 330.542969 301.203125 C 332.566406 301.203125 334.210938 302.847656 334.210938 304.871094 C 334.210938 306.890625 332.566406 308.539062 330.542969 308.539062 Z M 330.542969 308.539062 " fill-opacity="1" fill-rule="nonzero"/><g clip-path="url(#eec49d6543)"><path fill="#00f3f7" d="M 341.546875 103.136719 C 329.410156 103.136719 319.539062 113.007812 319.539062 125.144531 C 319.539062 137.28125 329.410156 147.152344 341.546875 147.152344 C 353.679688 147.152344 363.554688 137.277344 363.554688 125.144531 C 363.554688 113.011719 353.679688 103.136719 341.546875 103.136719 Z M 341.546875 132.480469 C 337.5 132.480469 334.210938 129.191406 334.210938 125.144531 C 334.210938 121.101562 337.5 117.808594 341.546875 117.808594 C 345.589844 117.808594 348.882812 121.101562 348.882812 125.144531 C 348.882812 129.191406 345.589844 132.480469 341.546875 132.480469 Z M 341.546875 132.480469 " fill-opacity="1" fill-rule="nonzero"/></g><g clip-path="url(#ecdb9405b4)"><path fill="#00f3f7" d="M 70.125 44.453125 C 74.175781 44.453125 77.460938 41.171875 77.460938 37.117188 C 77.460938 33.070312 74.175781 29.78125 70.125 29.78125 C 66.074219 29.78125 62.789062 33.070312 62.789062 37.117188 C 62.789062 41.171875 66.074219 44.453125 70.125 44.453125 Z M 70.125 44.453125 " fill-opacity="1" fill-rule="nonzero"/></g><path fill="#00f3f7" d="M 33.445312 95.800781 C 37.496094 95.800781 40.78125 92.519531 40.78125 88.464844 C 40.78125 84.417969 37.496094 81.128906 33.445312 81.128906 C 29.394531 81.128906 26.109375 84.417969 26.109375 88.464844 C 26.109375 92.519531 29.394531 95.800781 33.445312 95.800781 Z M 33.445312 95.800781 " fill-opacity="1" fill-rule="nonzero"/><path fill="#00f3f7" d="M 348.882812 213.171875 C 344.832031 213.171875 341.546875 216.460938 341.546875 220.507812 C 341.546875 224.5625 344.832031 227.84375 348.882812 227.84375 C 352.933594 227.84375 356.21875 224.5625 356.21875 220.507812 C 356.21875 216.460938 352.933594 213.171875 348.882812 213.171875 Z M 348.882812 213.171875 " fill-opacity="1" fill-rule="nonzero"/><path fill="#00f3f7" d="M 165.488281 301.203125 C 161.4375 301.203125 158.152344 304.488281 158.152344 308.539062 C 158.152344 312.59375 161.4375 315.875 165.488281 315.875 C 169.539062 315.875 172.824219 312.59375 172.824219 308.539062 C 172.824219 304.488281 169.539062 301.203125 165.488281 301.203125 Z M 165.488281 301.203125 " fill-opacity="1" fill-rule="nonzero"/><path fill="#00f3f7" d="M 33.445312 183.832031 C 37.496094 183.832031 40.78125 180.550781 40.78125 176.496094 C 40.78125 172.449219 37.496094 169.160156 33.445312 169.160156 C 29.394531 169.160156 26.109375 172.449219 26.109375 176.496094 C 26.109375 180.550781 29.394531 183.832031 33.445312 183.832031 Z M 33.445312 183.832031 " fill-opacity="1" fill-rule="nonzero"/><path fill="#00f3f7" d="M 48.117188 323.210938 C 44.066406 323.210938 40.78125 326.496094 40.78125 330.546875 C 40.78125 334.601562 44.066406 337.882812 48.117188 337.882812 C 52.167969 337.882812 55.453125 334.601562 55.453125 330.546875 C 55.453125 326.496094 52.167969 323.210938 48.117188 323.210938 Z M 48.117188 323.210938 " fill-opacity="1" fill-rule="nonzero"/><path fill="#00f3f7" d="M 326.875 66.460938 C 330.925781 66.460938 334.210938 63.179688 334.210938 59.125 C 334.210938 55.074219 330.925781 51.789062 326.875 51.789062 C 322.824219 51.789062 319.539062 55.074219 319.539062 59.125 C 319.539062 63.179688 322.824219 66.460938 326.875 66.460938 Z M 326.875 66.460938 " fill-opacity="1" fill-rule="nonzero"/><path fill="#00f3f7" d="M 119.761719 125.144531 C 108.570312 125.144531 99.46875 134.25 99.46875 145.441406 L 99.46875 266.234375 C 99.46875 277.425781 108.570312 286.53125 119.761719 286.53125 L 247.894531 286.53125 C 259.082031 286.53125 268.1875 277.425781 268.1875 266.234375 L 268.1875 145.441406 C 268.1875 134.25 259.082031 125.144531 247.894531 125.144531 Z M 150.816406 242.515625 L 150.816406 227.84375 L 216.839844 227.84375 L 216.839844 242.515625 Z M 216.839844 257.1875 L 216.839844 271.859375 L 150.816406 271.859375 L 150.816406 257.1875 Z M 216.839844 213.171875 L 150.816406 213.171875 L 150.816406 198.503906 L 216.839844 198.503906 Z M 231.507812 198.503906 L 253.515625 198.503906 L 253.515625 213.171875 L 231.507812 213.171875 Z M 136.144531 213.171875 L 114.136719 213.171875 L 114.136719 198.503906 L 136.144531 198.503906 Z M 114.136719 183.832031 L 114.136719 169.160156 L 136.144531 169.160156 L 136.144531 183.832031 Z M 114.136719 227.84375 L 136.144531 227.84375 L 136.144531 242.515625 L 114.136719 242.515625 Z M 231.507812 227.84375 L 253.515625 227.84375 L 253.515625 242.515625 L 231.507812 242.515625 Z M 253.515625 183.832031 L 231.507812 183.832031 L 231.507812 169.160156 L 253.515625 169.160156 Z M 216.839844 183.832031 L 150.816406 183.832031 L 150.816406 169.160156 L 216.839844 169.160156 Z M 150.816406 154.488281 L 150.816406 139.816406 L 216.839844 139.816406 L 216.839844 154.488281 Z M 119.761719 139.816406 L 136.144531 139.816406 L 136.144531 154.488281 L 114.136719 154.488281 L 114.136719 145.441406 C 114.136719 142.339844 116.660156 139.816406 119.761719 139.816406 Z M 114.136719 266.234375 L 114.136719 257.1875 L 136.144531 257.1875 L 136.144531 271.859375 L 119.761719 271.859375 C 116.660156 271.859375 114.136719 269.335938 114.136719 266.234375 Z M 247.894531 271.859375 L 231.507812 271.859375 L 231.507812 257.1875 L 253.515625 257.1875 L 253.515625 266.234375 C 253.515625 269.335938 250.996094 271.859375 247.894531 271.859375 Z M 253.515625 145.441406 L 253.515625 154.488281 L 231.507812 154.488281 L 231.507812 139.816406 L 247.894531 139.816406 C 250.996094 139.816406 253.515625 142.339844 253.515625 145.441406 Z M 253.515625 145.441406 " fill-opacity="1" fill-rule="nonzero"/></svg>