<svg xmlns="http://www.w3.org/2000/svg" xmlns:xlink="http://www.w3.org/1999/xlink" width="500" zoomAndPan="magnify" viewBox="0 0 375 374.999991" height="500" preserveAspectRatio="xMidYMid meet" version="1.0"><defs><clipPath id="836b2f2b09"><path d="M 11.578125 92 L 363.328125 92 L 363.328125 327.390625 L 11.578125 327.390625 Z M 11.578125 92 " clip-rule="nonzero"/></clipPath><clipPath id="d0d5abed9b"><path d="M 30 69 L 345 69 L 345 327.390625 L 30 327.390625 Z M 30 69 " clip-rule="nonzero"/></clipPath><clipPath id="982d3cf1ef"><path d="M 49 47.640625 L 326 47.640625 L 326 327.390625 L 49 327.390625 Z M 49 47.640625 " clip-rule="nonzero"/></clipPath><clipPath id="1f726d8d16"><path d="M 183 92 L 192 92 L 192 327.390625 L 183 327.390625 Z M 183 92 " clip-rule="nonzero"/></clipPath></defs><g clip-path="url(#836b2f2b09)"><path fill="#00f3f7" d="M 359.203125 327.355469 L 15.796875 327.355469 C 13.527344 327.355469 11.671875 325.5 11.671875 323.234375 L 11.671875 96.699219 C 11.671875 94.433594 13.527344 92.578125 15.796875 92.578125 L 34.554688 92.578125 C 40.117188 92.578125 40.117188 100.824219 34.554688 100.824219 L 19.917969 100.824219 L 19.917969 319.113281 L 355.082031 319.113281 L 355.082031 100.824219 L 340.445312 100.824219 C 335.085938 100.824219 335.085938 92.578125 340.445312 92.578125 L 359.203125 92.578125 C 361.472656 92.578125 363.328125 94.433594 363.328125 96.699219 L 363.328125 323.234375 C 363.328125 325.5 361.472656 327.355469 359.203125 327.355469 Z M 359.203125 327.355469 " fill-opacity="1" fill-rule="evenodd"/></g><g clip-path="url(#d0d5abed9b)"><path fill="#00f3f7" d="M 187.5 327.355469 C 187.085938 327.355469 186.675781 327.355469 186.261719 327.355469 C 77.015625 294.375 35.378906 296.644531 34.964844 296.644531 C 32.492188 296.851562 30.429688 294.996094 30.429688 292.519531 L 30.429688 73.203125 C 30.429688 70.933594 32.285156 69.078125 34.554688 69.078125 L 53.3125 69.078125 C 58.671875 69.078125 58.671875 77.324219 53.3125 77.324219 L 38.675781 77.324219 L 38.675781 288.398438 C 51.867188 288.605469 95.980469 291.492188 187.5 318.90625 C 279.226562 291.492188 323.132812 288.605469 336.324219 288.398438 L 336.324219 77.324219 L 321.6875 77.324219 C 316.328125 77.324219 316.328125 69.078125 321.6875 69.078125 L 340.445312 69.078125 C 342.714844 69.078125 344.570312 70.933594 344.570312 73.203125 L 344.570312 292.519531 C 344.570312 294.996094 342.507812 296.851562 340.238281 296.644531 C 339.828125 296.644531 297.984375 294.375 188.738281 327.152344 C 188.324219 327.355469 187.910156 327.355469 187.5 327.355469 Z M 187.5 327.355469 " fill-opacity="1" fill-rule="evenodd"/></g><g clip-path="url(#982d3cf1ef)"><path fill="#00f3f7" d="M 187.5 327.355469 C 186.675781 327.355469 185.851562 327.152344 185.230469 326.738281 C 142.152344 296.851562 53.515625 279.949219 52.691406 279.742188 C 50.632812 279.328125 49.1875 277.679688 49.1875 275.824219 L 49.1875 51.96875 C 49.1875 49.703125 51.25 47.640625 53.722656 47.847656 C 118.035156 54.238281 175.957031 85.363281 187.5 91.960938 C 199.25 85.363281 257.171875 54.238281 321.277344 48.054688 C 323.75 47.640625 325.8125 49.703125 325.8125 51.96875 L 325.8125 275.824219 C 325.8125 277.679688 324.574219 279.535156 322.511719 279.742188 C 321.6875 279.949219 233.054688 296.851562 189.972656 326.738281 C 189.148438 327.152344 188.324219 327.355469 187.5 327.355469 Z M 57.433594 272.320312 C 74.128906 275.617188 146.894531 291.492188 187.5 318.285156 C 228.3125 291.492188 300.871094 275.617188 317.566406 272.320312 L 317.566406 56.710938 C 249.75 64.542969 190.386719 100 189.765625 100.410156 C 188.324219 101.027344 186.675781 101.027344 185.4375 100.410156 C 184.820312 100 125.457031 64.542969 57.433594 56.710938 Z M 321.894531 275.824219 Z M 321.894531 275.824219 " fill-opacity="1" fill-rule="evenodd"/></g><g clip-path="url(#1f726d8d16)"><path fill="#00f3f7" d="M 187.5 327.355469 C 185.230469 327.355469 183.378906 325.5 183.378906 323.234375 L 183.378906 96.699219 C 183.378906 91.339844 191.621094 91.339844 191.621094 96.699219 L 191.621094 323.234375 C 191.621094 325.5 189.765625 327.355469 187.5 327.355469 Z M 187.5 327.355469 " fill-opacity="1" fill-rule="evenodd"/></g><path fill="#00f3f7" d="M 158.640625 144.109375 L 80.933594 123.289062 C 75.574219 121.847656 77.839844 114.015625 82.992188 115.25 L 159.671875 135.863281 C 164.414062 137.101562 163.382812 144.109375 158.640625 144.109375 Z M 158.640625 144.109375 " fill-opacity="1" fill-rule="evenodd"/><path fill="#00f3f7" d="M 158.640625 178.945312 L 80.933594 158.332031 C 75.574219 156.890625 77.839844 148.851562 82.992188 150.292969 L 159.671875 170.90625 C 164.414062 172.144531 163.382812 178.945312 158.640625 178.945312 Z M 158.640625 178.945312 " fill-opacity="1" fill-rule="evenodd"/><path fill="#00f3f7" d="M 158.640625 213.988281 L 80.933594 193.375 C 75.574219 191.929688 77.839844 183.890625 82.992188 185.335938 L 159.671875 205.949219 C 164.414062 207.183594 163.589844 213.988281 158.640625 213.988281 Z M 158.640625 213.988281 " fill-opacity="1" fill-rule="evenodd"/><path fill="#00f3f7" d="M 158.640625 249.027344 L 80.933594 228.414062 C 75.574219 226.972656 77.839844 218.933594 82.992188 220.375 L 159.671875 240.988281 C 164.414062 242.226562 163.589844 249.027344 158.640625 249.027344 Z M 158.640625 249.027344 " fill-opacity="1" fill-rule="evenodd"/><path fill="#00f3f7" d="M 158.640625 284.070312 L 80.933594 263.457031 C 75.574219 262.015625 77.839844 253.976562 82.992188 255.417969 L 159.671875 276.03125 C 164.414062 277.269531 163.589844 284.070312 158.640625 284.070312 Z M 158.640625 284.070312 " fill-opacity="1" fill-rule="evenodd"/><path fill="#00f3f7" d="M 216.359375 144.109375 C 211.617188 144.109375 210.792969 137.101562 215.328125 135.863281 L 292.210938 115.25 C 297.367188 114.015625 299.425781 121.847656 294.273438 123.289062 Z M 216.359375 144.109375 " fill-opacity="1" fill-rule="evenodd"/><path fill="#00f3f7" d="M 216.359375 178.945312 C 211.617188 178.945312 210.792969 172.144531 215.328125 170.90625 L 292.210938 150.292969 C 297.367188 149.054688 299.425781 156.890625 294.273438 158.332031 Z M 216.359375 178.945312 " fill-opacity="1" fill-rule="evenodd"/><path fill="#00f3f7" d="M 216.359375 213.988281 C 211.617188 213.988281 210.792969 207.183594 215.328125 205.949219 L 292.210938 185.335938 C 297.367188 183.890625 299.425781 191.929688 294.273438 193.375 Z M 216.359375 213.988281 " fill-opacity="1" fill-rule="evenodd"/><path fill="#00f3f7" d="M 216.359375 249.027344 C 211.617188 249.027344 210.792969 242.226562 215.328125 240.988281 L 292.210938 220.375 C 297.367188 218.933594 299.425781 226.972656 294.273438 228.414062 Z M 216.359375 249.027344 " fill-opacity="1" fill-rule="evenodd"/><path fill="#00f3f7" d="M 216.359375 284.070312 C 211.617188 284.070312 210.792969 277.269531 215.328125 276.03125 L 292.210938 255.417969 C 297.367188 253.976562 299.425781 262.015625 294.273438 263.457031 Z M 216.359375 284.070312 " fill-opacity="1" fill-rule="evenodd"/><path fill="#00f3f7" d="M 110.40625 114.632812 C 108.964844 114.632812 107.523438 114.015625 106.902344 112.570312 L 99.277344 99.378906 C 96.390625 94.84375 103.605469 90.515625 106.285156 95.257812 L 112.058594 104.945312 L 135.96875 92.164062 C 140.707031 89.484375 144.625 96.699219 139.882812 99.378906 C 135.96875 101.441406 112.675781 114.632812 110.40625 114.632812 Z M 110.40625 114.632812 " fill-opacity="1" fill-rule="evenodd"/><path fill="#00f3f7" d="M 272.425781 113.601562 L 236.144531 104.121094 C 230.992188 102.679688 233.054688 94.84375 238.414062 96.082031 L 273.453125 105.5625 C 277.988281 106.800781 277.164062 113.601562 272.425781 113.601562 Z M 272.425781 113.601562 " fill-opacity="1" fill-rule="evenodd"/><path fill="#00f3f7" d="M 241.917969 121.847656 C 238.414062 121.847656 236.558594 117.3125 239.03125 114.839844 L 264.796875 89.074219 C 268.507812 85.363281 274.484375 91.132812 270.570312 94.84375 L 245.007812 120.609375 C 244.183594 121.433594 243.152344 121.847656 241.917969 121.847656 Z M 241.917969 121.847656 " fill-opacity="1" fill-rule="evenodd"/></svg>