<svg xmlns="http://www.w3.org/2000/svg" xmlns:xlink="http://www.w3.org/1999/xlink" width="500" zoomAndPan="magnify" viewBox="0 0 375 374.999991" height="500" preserveAspectRatio="xMidYMid meet" version="1.0"><defs><clipPath id="18047b3597"><path d="M 13.304688 18.75 L 362 18.75 L 362 356.25 L 13.304688 356.25 Z M 13.304688 18.75 " clip-rule="nonzero"/></clipPath></defs><path fill="#00f3f7" d="M 160.011719 178.652344 L 160.011719 187.636719 C 163.820312 187.636719 164.363281 186.273438 164.363281 183.007812 C 164.09375 180.015625 163.546875 178.652344 160.011719 178.652344 Z M 160.011719 178.652344 " fill-opacity="1" fill-rule="nonzero"/><path fill="#00f3f7" d="M 187.5 104.621094 C 142.046875 104.621094 104.757812 141.636719 104.757812 187.363281 C 104.757812 232.816406 141.773438 270.105469 187.5 270.105469 C 232.953125 270.105469 270.242188 233.089844 270.242188 187.363281 C 270.242188 141.910156 232.953125 104.621094 187.5 104.621094 Z M 147.21875 198.796875 C 147.21875 208.320312 143.40625 208.867188 134.699219 208.867188 L 127.621094 208.867188 L 127.621094 173.753906 L 134.96875 173.753906 C 141.773438 173.753906 147.488281 173.753906 147.488281 182.191406 C 147.488281 186.003906 146.402344 189.542969 141.773438 190.085938 L 141.773438 190.359375 C 146.671875 190.359375 147.21875 194.167969 147.21875 198.796875 Z M 165.453125 208.867188 C 164.363281 207.503906 164.363281 205.328125 164.363281 203.964844 L 164.363281 196.617188 C 164.363281 194.167969 163.003906 192.808594 161.371094 192.808594 L 160.011719 192.808594 L 160.011719 208.867188 L 152.117188 208.867188 L 152.117188 173.753906 L 160.011719 173.753906 C 167.902344 173.753906 172.53125 174.570312 172.53125 181.921875 C 172.53125 186.273438 170.625 189.269531 166.269531 189.8125 C 170.082031 189.8125 172.53125 191.445312 172.53125 196.347656 L 172.53125 203.695312 C 172.53125 205.054688 172.800781 207.234375 173.890625 208.59375 L 165.453125 208.59375 Z M 190.222656 208.867188 L 189.40625 200.15625 L 184.777344 200.15625 L 183.417969 208.867188 L 176.613281 208.867188 L 182.601562 173.753906 L 193.761719 173.753906 L 198.386719 208.867188 Z M 225.058594 208.867188 L 214.71875 208.867188 L 208.730469 179.472656 L 208.730469 208.867188 L 201.109375 208.867188 L 201.109375 173.753906 L 213.355469 173.753906 L 218.527344 199.339844 L 218.527344 173.753906 L 225.058594 173.753906 C 225.058594 173.753906 225.058594 208.867188 225.058594 208.867188 Z M 237.851562 208.867188 L 228.328125 208.867188 L 228.328125 173.753906 L 237.851562 173.753906 C 247.105469 173.753906 250.101562 175.117188 250.101562 185.730469 L 250.101562 198.25 C 250.101562 204.785156 248.195312 208.867188 237.851562 208.867188 Z M 237.851562 208.867188 " fill-opacity="1" fill-rule="nonzero"/><path fill="#00f3f7" d="M 237.582031 178.652344 L 237.582031 203.695312 C 241.664062 203.695312 241.933594 202.0625 241.933594 198.796875 L 241.933594 184.371094 C 241.933594 179.742188 241.664062 178.652344 237.582031 178.652344 Z M 237.582031 178.652344 " fill-opacity="1" fill-rule="nonzero"/><path fill="#00f3f7" d="M 187.226562 179.199219 L 185.59375 194.984375 L 188.589844 194.984375 Z M 187.226562 179.199219 " fill-opacity="1" fill-rule="nonzero"/><path fill="#00f3f7" d="M 134.699219 178.652344 L 134.699219 187.910156 C 137.148438 187.636719 139.050781 188.726562 139.050781 183.28125 C 139.050781 180.015625 138.78125 178.652344 134.699219 178.652344 Z M 134.699219 178.652344 " fill-opacity="1" fill-rule="nonzero"/><path fill="#00f3f7" d="M 134.699219 193.078125 L 134.699219 203.964844 C 139.050781 204.238281 139.050781 201.789062 139.050781 198.25 C 139.050781 193.078125 138.234375 193.078125 134.699219 193.078125 Z M 134.699219 193.078125 " fill-opacity="1" fill-rule="nonzero"/><g clip-path="url(#18047b3597)"><path fill="#00f3f7" d="M 346.453125 153.613281 C 342.367188 148.171875 338.285156 143 336.925781 138.371094 C 335.292969 133.472656 335.5625 126.667969 335.5625 119.589844 C 335.835938 107.886719 336.109375 94.824219 328.488281 84.207031 C 320.867188 73.59375 308.074219 69.785156 296.914062 66.246094 C 290.109375 64.066406 283.851562 62.164062 279.769531 59.441406 C 275.957031 56.445312 272.148438 51.003906 268.0625 45.289062 C 261.261719 35.488281 253.910156 24.601562 241.117188 20.519531 C 237.851562 19.429688 234.585938 18.886719 230.777344 18.886719 C 222.066406 18.886719 213.902344 21.878906 205.734375 24.601562 C 199.203125 26.78125 192.671875 29.230469 187.5 29.230469 C 182.328125 29.230469 175.796875 27.050781 168.992188 24.601562 C 160.828125 21.878906 152.660156 18.886719 143.953125 18.886719 C 140.140625 18.886719 136.875 19.429688 133.609375 20.519531 C 121.089844 24.601562 113.46875 35.761719 106.664062 45.289062 C 102.582031 51.003906 99.042969 56.445312 94.960938 59.441406 C 90.875 62.433594 84.617188 64.339844 77.8125 66.246094 C 66.652344 69.785156 53.859375 73.59375 46.238281 84.207031 C 38.617188 94.824219 38.890625 107.886719 39.164062 119.589844 C 39.433594 126.667969 39.433594 133.472656 37.800781 138.371094 C 36.441406 143 32.359375 148.171875 28.277344 153.613281 C 21.472656 163.140625 13.304688 173.753906 13.304688 187.363281 C 13.304688 200.972656 21.472656 211.585938 28.546875 221.113281 C 32.632812 226.558594 36.714844 231.730469 38.074219 236.355469 C 39.707031 241.253906 39.433594 248.058594 39.433594 255.136719 C 39.164062 266.839844 38.890625 280.175781 46.511719 290.519531 C 54.132812 301.132812 66.925781 304.945312 78.085938 308.484375 C 84.890625 310.660156 91.148438 312.566406 95.230469 315.289062 C 99.042969 318.28125 102.851562 323.726562 106.933594 329.441406 C 113.738281 339.238281 121.089844 350.125 133.882812 354.480469 C 137.148438 355.570312 140.683594 356.113281 144.222656 356.113281 C 152.933594 356.113281 161.097656 353.121094 169.265625 350.398438 C 176.070312 347.949219 182.601562 345.769531 187.773438 345.769531 C 192.945312 345.769531 199.476562 347.949219 206.28125 350.398438 C 214.445312 353.121094 222.609375 356.113281 231.320312 356.113281 C 235.128906 356.113281 238.398438 355.570312 241.664062 354.480469 C 254.183594 350.398438 261.804688 339.238281 268.609375 329.710938 C 272.691406 323.996094 276.230469 318.554688 280.3125 315.558594 C 284.394531 312.566406 290.65625 310.660156 297.460938 308.753906 C 308.617188 305.488281 321.410156 301.40625 329.03125 290.792969 C 336.652344 280.175781 336.378906 267.113281 336.109375 255.40625 C 335.835938 248.332031 335.835938 241.527344 337.46875 236.628906 C 338.832031 232 342.914062 226.828125 346.996094 221.386719 C 353.527344 211.585938 361.691406 200.972656 361.691406 187.363281 C 361.691406 173.753906 353.527344 163.140625 346.453125 153.613281 Z M 275.414062 126.394531 L 284.394531 123.128906 L 286.84375 113.875 C 287.117188 112.242188 288.476562 111.972656 289.292969 113.332031 L 295.28125 120.953125 L 304.808594 120.410156 C 306.441406 120.410156 306.984375 121.226562 306.167969 122.585938 L 300.726562 130.480469 L 304.265625 139.460938 C 304.808594 140.820312 303.992188 141.910156 302.628906 141.367188 L 293.375 138.644531 L 286.027344 144.902344 C 284.9375 145.992188 283.851562 145.449219 283.578125 143.816406 L 283.304688 134.289062 L 275.140625 129.117188 C 273.78125 128.027344 273.78125 126.941406 275.414062 126.394531 Z M 231.59375 89.652344 L 237.851562 82.304688 L 235.128906 73.050781 C 234.585938 71.417969 235.675781 70.871094 237.035156 71.417969 L 246.019531 74.953125 L 253.910156 69.511719 C 255.273438 68.695312 256.359375 69.238281 256.089844 70.871094 L 255.542969 80.398438 L 263.164062 86.386719 C 264.527344 87.476562 264.253906 88.5625 262.621094 88.835938 L 253.367188 91.285156 L 250.101562 100.265625 C 249.554688 101.628906 248.46875 101.898438 247.652344 100.539062 L 242.480469 92.375 L 232.679688 92.101562 C 231.046875 92.101562 230.777344 91.011719 231.59375 89.652344 Z M 171.167969 61.347656 L 180.695312 59.984375 L 185.050781 51.273438 C 185.867188 49.914062 186.957031 49.914062 187.5 51.273438 L 191.855469 59.984375 L 201.378906 61.347656 C 203.015625 61.617188 203.285156 62.707031 202.199219 63.796875 L 195.121094 70.328125 L 196.753906 79.855469 C 197.027344 81.488281 196.210938 82.03125 194.578125 81.488281 L 186.140625 77.132812 L 177.703125 81.488281 C 176.339844 82.304688 175.25 81.488281 175.523438 79.855469 L 177.15625 70.328125 L 170.351562 63.523438 C 169.265625 62.433594 169.535156 61.347656 171.167969 61.347656 Z M 108.839844 85.570312 L 116.460938 79.582031 L 115.917969 70.054688 C 115.917969 68.421875 116.734375 67.878906 118.09375 68.695312 L 125.988281 74.136719 L 134.96875 70.601562 C 136.332031 70.054688 137.417969 70.871094 136.875 72.234375 L 134.152344 81.488281 L 140.414062 88.835938 C 141.5 90.195312 140.957031 91.011719 139.324219 91.285156 L 129.796875 91.558594 L 124.625 99.722656 C 123.808594 101.082031 122.722656 101.082031 122.175781 99.449219 L 118.910156 90.46875 L 109.65625 88.019531 C 108.023438 87.476562 107.75 86.386719 108.839844 85.570312 Z M 66.652344 118.503906 L 76.179688 119.046875 L 82.167969 111.425781 C 83.257812 110.066406 84.34375 110.335938 84.617188 111.972656 L 87.066406 121.226562 L 96.046875 124.492188 C 97.410156 125.035156 97.679688 126.125 96.320312 126.941406 L 88.15625 132.113281 L 87.882812 141.636719 C 87.882812 143.269531 86.792969 143.816406 85.433594 142.726562 L 78.085938 136.46875 L 68.832031 139.1875 C 67.199219 139.734375 66.652344 138.644531 67.199219 137.285156 L 70.734375 128.300781 L 65.292969 120.410156 C 64.476562 119.320312 65.019531 118.230469 66.652344 118.503906 Z M 57.128906 203.695312 L 55.765625 194.167969 L 47.054688 189.8125 C 45.695312 188.996094 45.695312 187.910156 47.054688 187.363281 L 55.765625 183.007812 L 57.128906 173.484375 C 57.398438 171.851562 58.488281 171.578125 59.578125 172.667969 L 66.382812 179.472656 L 75.90625 177.835938 C 77.539062 177.566406 78.085938 178.382812 77.539062 180.015625 L 73.183594 188.453125 L 77.539062 196.890625 C 78.355469 198.25 77.539062 199.339844 75.90625 199.066406 L 66.382812 197.433594 L 59.578125 204.238281 C 58.488281 205.601562 57.398438 205.054688 57.128906 203.695312 Z M 95.230469 252.6875 L 86.25 255.953125 L 83.800781 265.207031 C 83.527344 266.839844 82.167969 267.113281 81.351562 265.75 L 75.363281 258.128906 L 65.835938 258.675781 C 64.203125 258.675781 63.660156 257.859375 64.476562 256.496094 L 69.917969 248.605469 L 66.382812 239.621094 C 65.835938 238.261719 66.652344 237.171875 68.015625 237.714844 L 77.269531 240.4375 L 84.617188 234.179688 C 85.976562 233.089844 86.792969 233.632812 87.066406 235.265625 L 87.339844 244.792969 L 95.503906 249.964844 C 96.863281 250.78125 96.863281 252.140625 95.230469 252.6875 Z M 138.78125 289.15625 L 132.519531 296.507812 L 135.242188 305.761719 C 135.785156 307.394531 134.699219 307.9375 133.335938 307.394531 L 124.355469 303.855469 L 116.460938 309.300781 C 115.101562 310.117188 114.011719 309.570312 114.285156 307.9375 L 114.828125 298.414062 L 107.207031 292.425781 C 105.847656 291.335938 106.117188 290.246094 107.75 289.976562 L 117.007812 287.523438 L 120.273438 278.542969 C 120.816406 277.183594 121.90625 276.910156 122.722656 278.269531 L 127.894531 286.4375 L 137.417969 286.707031 C 139.324219 286.980469 139.867188 287.796875 138.78125 289.15625 Z M 199.476562 317.738281 L 189.949219 319.097656 L 185.59375 327.808594 C 184.777344 329.167969 183.6875 329.167969 183.144531 327.808594 L 178.789062 319.097656 L 169.265625 317.738281 C 167.632812 317.464844 167.359375 316.375 168.449219 315.289062 L 175.25 308.484375 L 173.617188 298.957031 C 173.347656 297.324219 174.164062 296.777344 175.796875 297.324219 L 184.234375 301.679688 L 192.671875 297.324219 C 194.03125 296.507812 195.121094 297.324219 194.847656 298.957031 L 193.214844 308.484375 L 200.019531 315.289062 C 201.378906 316.375 201.109375 317.464844 199.476562 317.738281 Z M 261.53125 293.511719 L 253.910156 299.5 L 254.457031 309.027344 C 254.457031 310.660156 253.640625 311.203125 252.277344 310.386719 L 244.386719 304.945312 L 235.402344 308.484375 C 234.042969 309.027344 232.953125 308.210938 233.496094 306.851562 L 236.21875 297.59375 L 229.960938 290.246094 C 228.871094 289.15625 229.414062 288.070312 231.046875 287.796875 L 240.574219 287.523438 L 245.746094 279.359375 C 246.5625 278 247.652344 278.269531 248.195312 279.632812 L 251.460938 288.613281 L 260.714844 291.0625 C 262.621094 291.335938 262.894531 292.425781 261.53125 293.511719 Z M 187.5 281.265625 C 135.515625 281.265625 93.597656 239.078125 93.597656 187.363281 C 93.597656 135.648438 135.515625 93.460938 187.5 93.460938 C 239.484375 93.460938 281.402344 135.648438 281.402344 187.363281 C 281.402344 239.351562 239.484375 281.265625 187.5 281.265625 Z M 303.992188 260.578125 L 294.464844 260.035156 L 288.476562 267.65625 C 287.390625 269.015625 286.300781 268.746094 286.027344 267.113281 L 283.578125 257.859375 L 274.597656 254.589844 C 273.234375 254.046875 272.964844 252.957031 274.324219 252.140625 L 282.488281 246.972656 L 282.761719 237.445312 C 282.761719 235.8125 283.851562 235.265625 285.210938 236.355469 L 292.558594 242.617188 L 301.8125 239.894531 C 303.445312 239.351562 303.992188 240.4375 303.445312 241.800781 L 299.910156 250.78125 L 305.351562 258.675781 C 306.167969 259.761719 305.351562 260.578125 303.992188 260.578125 Z M 323.589844 191.71875 L 314.878906 196.074219 L 313.519531 205.601562 C 313.246094 207.234375 312.15625 207.503906 311.066406 206.417969 L 304.265625 199.613281 L 294.738281 201.246094 C 293.105469 201.515625 292.558594 200.699219 293.105469 199.066406 L 297.460938 190.628906 L 293.105469 182.191406 C 292.289062 180.832031 293.105469 179.742188 294.738281 180.015625 L 304.265625 181.648438 L 311.066406 174.84375 C 312.15625 173.753906 313.246094 174.027344 313.519531 175.660156 L 314.878906 185.1875 L 323.589844 189.542969 C 324.949219 189.8125 324.949219 190.902344 323.589844 191.71875 Z M 323.589844 191.71875 " fill-opacity="1" fill-rule="nonzero"/></g></svg>