<svg xmlns="http://www.w3.org/2000/svg" xmlns:xlink="http://www.w3.org/1999/xlink" width="500" zoomAndPan="magnify" viewBox="0 0 375 374.999991" height="500" preserveAspectRatio="xMidYMid meet" version="1.0"><defs><clipPath id="7e823a3aac"><path d="M 267 263 L 368.667969 263 L 368.667969 359 L 267 359 Z M 267 263 " clip-rule="nonzero"/></clipPath><clipPath id="ece5d030e9"><path d="M 83 15.695312 L 185 15.695312 L 185 173 L 83 173 Z M 83 15.695312 " clip-rule="nonzero"/></clipPath></defs><path fill="#00f3f7" d="M 259.003906 324.875 C 257.632812 324.664062 256.597656 324.554688 255.859375 324.546875 C 254.964844 324.535156 254.050781 324.480469 253.199219 324.410156 C 227.804688 322.554688 152.800781 327.496094 152.226562 327.550781 C 149.144531 327.910156 143.351562 327.351562 141.480469 326.828125 L 141.332031 326.800781 C 138.617188 326.191406 136.167969 324.65625 133.582031 323.027344 L 133.511719 322.984375 C 106.292969 305.921875 84.753906 293.757812 63.679688 283.550781 C 56.625 280.132812 49.40625 276.796875 42.425781 273.558594 C 35.679688 270.445312 28.707031 267.21875 21.917969 263.9375 C 15.902344 261.023438 12.96875 258.589844 13.648438 253.390625 C 14.277344 248.546875 17.941406 245.359375 24.867188 243.660156 C 27.457031 243.019531 30.113281 242.699219 32.867188 242.699219 C 36.574219 242.699219 40.460938 243.285156 44.589844 244.445312 C 63.179688 249.699219 99.039062 260.457031 107.609375 263.542969 C 107.582031 263.835938 107.546875 264.109375 107.5 264.386719 C 106.203125 272.335938 107.261719 279.246094 110.664062 284.917969 C 114.082031 290.605469 119.675781 294.769531 127.304688 297.292969 C 134.148438 299.570312 141.285156 300.0625 146.734375 300.246094 C 159.308594 300.65625 182.519531 298.921875 194.875 297.09375 C 196.640625 296.835938 198.183594 295.90625 199.246094 294.46875 C 200.304688 293.042969 200.742188 291.289062 200.476562 289.527344 C 200.242188 287.964844 199.453125 286.539062 198.265625 285.503906 C 197.078125 284.464844 195.5625 283.886719 193.980469 283.867188 C 185.0625 283.769531 169.78125 284.226562 157.5 284.589844 C 148.167969 284.875 139.359375 285.140625 137.300781 285.019531 C 129.316406 284.582031 122.671875 278.960938 121.859375 271.960938 C 121.007812 264.703125 125.148438 259.75 134.160156 257.230469 C 136.644531 256.542969 139.414062 256.015625 142.640625 255.621094 C 150.984375 254.605469 159.546875 253.949219 167.824219 253.308594 C 182.960938 252.148438 198.597656 250.941406 213.832031 247.496094 C 215.878906 247.3125 221.148438 246.015625 232.207031 243.164062 C 236.558594 242.050781 240.660156 240.988281 241.976562 240.734375 C 253.859375 239.097656 264.195312 242.070312 273.578125 249.835938 C 279.996094 255.144531 287.441406 260.273438 296.316406 265.492188 Z M 302.640625 263.929688 C 302.355469 262.769531 301.589844 261.753906 300.554688 261.148438 C 291.398438 255.839844 283.804688 250.660156 277.335938 245.304688 C 266.734375 236.539062 254.542969 233.039062 241.089844 234.914062 L 240.964844 234.941406 C 239.519531 235.207031 235.644531 236.203125 230.746094 237.460938 C 224.816406 238.996094 214.890625 241.546875 213.328125 241.640625 L 213.035156 241.640625 L 212.75 241.710938 C 197.863281 245.101562 182.367188 246.289062 167.378906 247.441406 C 159.035156 248.082031 150.40625 248.75 141.925781 249.78125 C 138.410156 250.210938 135.347656 250.796875 132.578125 251.5625 C 126.792969 253.179688 122.414062 255.792969 119.5625 259.351562 C 116.648438 262.976562 115.414062 267.574219 116.007812 272.648438 C 116.574219 277.445312 118.996094 281.929688 122.855469 285.285156 C 126.683594 288.613281 131.699219 290.605469 136.972656 290.898438 C 139.277344 291.023438 147.402344 290.785156 157.683594 290.476562 C 169.898438 290.109375 185.117188 289.652344 193.90625 289.753906 C 194.144531 289.753906 194.308594 289.855469 194.402344 289.9375 C 194.5 290.019531 194.621094 290.175781 194.65625 290.402344 C 194.695312 290.660156 194.601562 290.859375 194.519531 290.96875 C 194.429688 291.089844 194.273438 291.234375 194.015625 291.269531 C 182.15625 293.027344 158.996094 294.761719 146.925781 294.359375 C 141.5625 294.1875 135.253906 293.730469 129.152344 291.710938 C 116.640625 287.5625 111.164062 278.441406 113.3125 265.335938 C 113.449219 264.484375 113.515625 263.671875 113.578125 262.886719 C 113.605469 262.566406 113.632812 262.246094 113.660156 261.925781 L 113.851562 260.027344 L 112.1875 259.085938 C 108.46875 256.984375 60.691406 242.882812 46.191406 238.789062 C 37.992188 236.464844 30.5625 236.191406 23.460938 237.9375 C 11.726562 240.835938 8.472656 247.535156 7.808594 252.632812 C 6.464844 262.996094 14.851562 267.054688 19.359375 269.238281 C 26.195312 272.535156 33.183594 275.773438 39.957031 278.90625 C 46.910156 282.125 54.113281 285.449219 61.113281 288.839844 C 81.996094 298.957031 103.351562 311.019531 130.375 327.972656 L 130.457031 328.019531 C 133.335938 329.828125 136.304688 331.691406 139.980469 332.523438 C 142.089844 333.089844 146.332031 333.546875 149.859375 333.546875 C 150.957031 333.546875 151.980469 333.511719 152.855469 333.410156 C 154.347656 333.300781 227.875 328.457031 252.761719 330.285156 C 253.710938 330.347656 254.734375 330.421875 255.796875 330.429688 C 256.125 330.429688 256.972656 330.496094 258.984375 330.824219 C 260.757812 331.117188 262.519531 330.332031 263.480469 328.804688 L 302.09375 267.355469 C 302.730469 266.339844 302.921875 265.097656 302.640625 263.929688 " fill-opacity="1" fill-rule="nonzero"/><path fill="#00f3f7" d="M 306.878906 334.925781 C 301.03125 334.925781 296.269531 330.164062 296.269531 324.316406 C 296.269531 318.46875 301.03125 313.707031 306.878906 313.707031 C 312.738281 313.707031 317.5 318.46875 317.5 324.316406 C 317.5 330.164062 312.738281 334.925781 306.878906 334.925781 Z M 306.878906 307.820312 C 297.789062 307.820312 290.394531 315.222656 290.394531 324.316406 C 290.394531 333.417969 297.789062 340.820312 306.878906 340.820312 C 315.984375 340.820312 323.375 333.417969 323.375 324.316406 C 323.375 315.222656 315.984375 307.820312 306.878906 307.820312 " fill-opacity="1" fill-rule="nonzero"/><g clip-path="url(#7e823a3aac)"><path fill="#00f3f7" d="M 315.515625 351.625 L 273.871094 334.195312 L 314.558594 269.457031 L 359.582031 283.558594 Z M 315.910156 263.707031 C 313.605469 262.988281 311.09375 263.910156 309.804688 265.957031 L 268.542969 331.617188 C 267.710938 332.953125 267.5 334.570312 267.976562 336.070312 C 268.453125 337.558594 269.550781 338.765625 271 339.378906 L 317.78125 358.945312 L 368.722656 280.269531 L 315.910156 263.707031 " fill-opacity="1" fill-rule="nonzero"/></g><path fill="#00f3f7" d="M 134.011719 49.269531 C 140.363281 49.269531 145.535156 54.441406 145.535156 60.792969 C 145.535156 67.152344 140.363281 72.324219 134.011719 72.324219 C 127.652344 72.324219 122.480469 67.152344 122.480469 60.792969 C 122.480469 54.441406 127.652344 49.269531 134.011719 49.269531 Z M 134.011719 78.210938 C 143.617188 78.210938 151.421875 70.398438 151.421875 60.792969 C 151.421875 51.199219 143.617188 43.382812 134.011719 43.382812 C 124.40625 43.382812 116.59375 51.199219 116.59375 60.792969 C 116.59375 70.398438 124.40625 78.210938 134.011719 78.210938 " fill-opacity="1" fill-rule="nonzero"/><g clip-path="url(#ece5d030e9)"><path fill="#00f3f7" d="M 90.75 135 C 90.777344 134.726562 90.796875 134.542969 90.804688 134.460938 C 91.234375 129.925781 92.851562 126.902344 96.042969 124.652344 C 97.722656 123.476562 99.222656 122.132812 100.664062 120.835938 C 101.652344 119.949219 102.585938 119.105469 103.542969 118.339844 C 105.820312 116.539062 106.777344 114.328125 106.460938 111.59375 C 106.101562 108.453125 105.78125 105.234375 105.480469 102.117188 C 105.226562 99.503906 104.960938 96.808594 104.667969 94.148438 C 104.121094 89.09375 104.011719 84.023438 104.347656 79.070312 L 104.359375 78.90625 C 104.449219 71.285156 105.949219 63.882812 108.953125 56.277344 C 110.488281 52.375 112.453125 48.375 114.804688 44.351562 L 115.660156 42.910156 C 115.71875 42.816406 115.773438 42.726562 115.835938 42.632812 L 116.0625 42.242188 C 116.429688 41.648438 116.8125 41.042969 117.234375 40.394531 L 117.242188 40.378906 C 117.683594 39.699219 118.140625 38.988281 118.632812 38.273438 C 119.152344 37.488281 119.710938 36.683594 120.277344 35.871094 L 120.40625 35.6875 L 120.414062 35.679688 C 122.835938 32.261719 125.667969 28.78125 129.5625 24.410156 C 129.984375 23.945312 130.4375 23.46875 130.933594 22.984375 L 130.980469 22.941406 C 131.792969 22.144531 132.871094 21.707031 134.003906 21.707031 C 135.144531 21.707031 136.214844 22.144531 137.039062 22.941406 L 137.066406 22.96875 C 137.578125 23.46875 138.023438 23.9375 138.453125 24.410156 C 142.367188 28.808594 145.199219 32.289062 147.601562 35.679688 L 147.730469 35.871094 C 148.304688 36.683594 148.863281 37.5 149.382812 38.273438 C 149.867188 38.996094 150.335938 39.699219 150.765625 40.378906 L 150.78125 40.394531 C 151.195312 41.035156 151.578125 41.648438 151.941406 42.242188 L 152.199219 42.660156 C 152.246094 42.742188 152.300781 42.828125 152.34375 42.917969 L 153.203125 44.351562 L 153.214844 44.351562 C 155.605469 48.445312 157.542969 52.402344 159.109375 56.398438 C 162.078125 63.945312 163.566406 71.3125 163.660156 78.898438 L 163.667969 79.050781 C 163.996094 84.015625 163.886719 89.09375 163.347656 94.148438 C 163.074219 96.679688 162.816406 99.25 162.582031 101.734375 C 162.261719 104.96875 161.929688 108.3125 161.558594 111.59375 C 161.246094 114.335938 162.195312 116.546875 164.460938 118.339844 C 165.429688 119.105469 166.355469 119.9375 167.332031 120.824219 C 168.785156 122.121094 170.285156 123.476562 171.964844 124.644531 C 175.164062 126.902344 176.78125 129.925781 177.210938 134.460938 C 177.21875 134.542969 177.238281 134.726562 177.265625 135 C 178.609375 148.140625 178.726562 153.195312 178.683594 155.039062 L 178.683594 155.230469 C 178.765625 158.796875 178.5625 161.75 178.0625 164.507812 C 177.816406 165.886719 177.457031 166.28125 177.394531 166.34375 L 177.15625 166.382812 L 176.917969 166.472656 C 176.910156 166.472656 176.390625 166.582031 174.980469 165.898438 C 169.910156 163.421875 166.070312 161.464844 162.542969 159.546875 L 162.441406 159.492188 C 162.398438 159.464844 162.359375 159.445312 162.304688 159.417969 C 159.507812 157.984375 157.070312 158.332031 154.867188 160.476562 C 154.75 160.578125 154.65625 160.667969 154.601562 160.734375 L 154.554688 160.78125 C 154.144531 161.210938 153.699219 161.582031 153.195312 161.929688 C 151.332031 163.230469 148.953125 163.914062 146.414062 164.65625 C 142.21875 165.871094 138.050781 166.519531 134.003906 166.574219 C 129.964844 166.519531 125.789062 165.871094 121.574219 164.644531 C 119.050781 163.914062 116.675781 163.230469 114.8125 161.929688 C 114.308594 161.582031 113.871094 161.210938 113.460938 160.78125 L 113.394531 160.714844 C 113.339844 160.660156 113.257812 160.578125 113.148438 160.476562 C 110.972656 158.347656 108.460938 157.992188 105.691406 159.425781 L 105.480469 159.546875 C 101.925781 161.472656 98.089844 163.429688 93.035156 165.898438 C 91.9375 166.425781 91.378906 166.480469 91.1875 166.480469 C 91.144531 166.480469 91.117188 166.480469 91.117188 166.480469 L 90.859375 166.382812 L 90.613281 166.34375 C 90.539062 166.273438 90.191406 165.871094 89.945312 164.507812 C 89.488281 162.011719 89.351562 156.859375 89.332031 155.085938 L 89.332031 155.039062 C 89.277344 153.195312 89.40625 148.140625 90.75 135 Z M 84.160156 165.558594 C 84.984375 170.148438 87.367188 171.644531 89.316406 172.085938 C 91.125 172.660156 93.179688 172.367188 95.613281 171.1875 C 100.730469 168.695312 104.632812 166.691406 108.25 164.726562 C 108.304688 164.699219 108.371094 164.671875 108.425781 164.636719 C 108.597656 164.554688 108.714844 164.507812 108.800781 164.480469 C 108.863281 164.527344 108.953125 164.597656 109.074219 164.726562 L 109.226562 164.875 L 109.257812 164.902344 C 109.921875 165.59375 110.671875 166.21875 111.457031 166.765625 C 114.109375 168.613281 117.070312 169.46875 119.957031 170.300781 C 124.671875 171.671875 129.386719 172.394531 133.96875 172.449219 L 134.039062 172.449219 C 138.628906 172.394531 143.34375 171.671875 148.078125 170.300781 C 150.9375 169.46875 153.898438 168.613281 156.539062 166.773438 C 157.34375 166.226562 158.085938 165.59375 158.761719 164.902344 L 158.925781 164.726562 C 159.050781 164.609375 159.152344 164.527344 159.21875 164.480469 C 159.300781 164.507812 159.445312 164.5625 159.648438 164.671875 L 159.675781 164.683594 C 159.703125 164.699219 159.730469 164.71875 159.765625 164.726562 C 163.367188 166.683594 167.257812 168.683594 172.40625 171.1875 C 174.835938 172.367188 176.902344 172.660156 178.710938 172.085938 C 180.648438 171.644531 183.023438 170.136719 183.855469 165.558594 C 184.429688 162.414062 184.648438 159.097656 184.566406 155.140625 C 184.648438 151.640625 184.148438 144.476562 183.125 134.40625 C 183.097656 134.148438 183.078125 133.984375 183.070312 133.902344 C 182.476562 127.679688 179.953125 123.082031 175.347656 119.828125 C 173.957031 118.851562 172.652344 117.679688 171.261719 116.4375 C 170.265625 115.542969 169.234375 114.609375 168.128906 113.734375 C 167.351562 113.121094 167.332031 112.875 167.394531 112.261719 C 167.78125 108.9375 168.109375 105.5625 168.429688 102.300781 C 168.675781 99.832031 168.921875 97.285156 169.195312 94.78125 C 169.773438 89.40625 169.890625 84.015625 169.542969 78.742188 C 169.425781 70.460938 167.808594 62.445312 164.582031 54.242188 C 162.808594 49.707031 160.597656 45.230469 157.828125 40.597656 L 157.820312 38.46875 L 156.53125 38.46875 C 156.273438 38.054688 156 37.636719 155.71875 37.195312 C 155.269531 36.492188 154.777344 35.742188 154.265625 34.984375 C 153.753906 34.226562 153.214844 33.429688 152.644531 32.628906 L 152.507812 32.433594 C 149.949219 28.808594 146.972656 25.125 142.839844 20.5 C 142.328125 19.925781 141.78125 19.359375 141.167969 18.753906 L 141.148438 18.726562 C 139.230469 16.855469 136.691406 15.820312 134.003906 15.820312 C 131.324219 15.820312 128.785156 16.855469 126.867188 18.726562 L 126.839844 18.765625 C 126.226562 19.359375 125.679688 19.925781 125.167969 20.5 C 121.0625 25.097656 118.082031 28.78125 115.496094 32.433594 L 115.371094 32.617188 L 115.359375 32.628906 C 114.804688 33.429688 114.265625 34.21875 113.742188 34.984375 C 113.242188 35.742188 112.746094 36.484375 112.289062 37.195312 C 112.007812 37.636719 111.742188 38.066406 111.476562 38.476562 L 110.1875 38.476562 L 110.1875 40.605469 C 107.472656 45.148438 105.226562 49.6875 103.480469 54.113281 C 100.226562 62.375 98.582031 70.433594 98.472656 78.75 C 98.117188 84.023438 98.234375 89.414062 98.820312 94.78125 C 99.101562 97.410156 99.367188 100.097656 99.625 102.695312 C 99.933594 105.828125 100.246094 109.0625 100.609375 112.269531 C 100.683594 112.875 100.664062 113.113281 99.878906 113.734375 C 98.78125 114.621094 97.742188 115.550781 96.734375 116.457031 C 95.355469 117.691406 94.058594 118.859375 92.660156 119.839844 C 88.0625 123.074219 85.53125 127.679688 84.9375 133.902344 C 84.9375 133.984375 84.917969 134.148438 84.890625 134.40625 C 83.859375 144.503906 83.367188 151.6875 83.449219 155.167969 C 83.457031 155.699219 83.53125 162.121094 84.160156 165.558594 " fill-opacity="1" fill-rule="nonzero"/></g><path fill="#00f3f7" d="M 61.605469 229.949219 C 63.1875 213.472656 71.511719 206.253906 89.441406 205.789062 C 91.460938 205.742188 93.773438 205.359375 95.621094 202.9375 C 99.523438 197.820312 104.21875 195.289062 109.894531 195.289062 C 111.257812 195.289062 112.671875 195.433594 114.144531 195.726562 C 116.558594 196.203125 118.933594 194.96875 119.921875 192.730469 C 120.359375 191.742188 120.726562 190.917969 121.109375 190.105469 C 123.464844 185.117188 127.6875 182.019531 132.679688 181.605469 C 137.648438 181.203125 142.484375 183.664062 145.609375 188.203125 C 145.773438 188.441406 145.9375 188.671875 146.101562 188.910156 C 146.84375 189.960938 147.539062 190.945312 147.914062 191.90625 C 149.21875 195.277344 151.953125 196.785156 155.589844 196.164062 C 162.296875 195.011719 167.632812 197.105469 171.902344 202.5625 C 172.871094 203.796875 174.863281 206.34375 178.792969 205.832031 C 185.636719 204.957031 192.300781 206.929688 197.554688 211.398438 C 202.945312 215.988281 206.179688 222.757812 206.417969 229.988281 C 206.417969 230.003906 206.417969 230.085938 206.34375 230.160156 C 206.300781 230.195312 206.234375 230.242188 206.125 230.242188 L 61.890625 230.242188 C 61.808594 230.242188 61.734375 230.214844 61.679688 230.152344 C 61.597656 230.058594 61.605469 229.976562 61.605469 229.949219 Z M 61.890625 236.136719 L 206.125 236.136719 C 207.796875 236.136719 209.417969 235.441406 210.566406 234.246094 C 211.738281 233.046875 212.351562 231.46875 212.292969 229.796875 C 212.011719 220.914062 208.027344 212.578125 201.363281 206.910156 C 194.832031 201.355469 186.542969 198.898438 178.035156 200.003906 C 177.558594 200.058594 177.429688 200.074219 176.542969 198.933594 C 170.886719 191.722656 163.503906 188.835938 154.59375 190.363281 C 153.953125 190.472656 153.742188 190.390625 153.742188 190.390625 C 153.742188 190.390625 153.585938 190.269531 153.394531 189.777344 C 152.765625 188.148438 151.789062 186.75 150.917969 185.519531 C 150.765625 185.296875 150.609375 185.078125 150.453125 184.859375 C 146.113281 178.574219 139.292969 175.164062 132.203125 175.738281 C 125.15625 176.316406 119.023438 180.746094 115.789062 187.59375 C 115.441406 188.324219 115.121094 189.035156 114.757812 189.851562 C 110.058594 189.007812 105.683594 189.367188 101.742188 190.882812 C 97.660156 192.464844 94.023438 195.324219 90.941406 199.363281 C 90.675781 199.71875 90.558594 199.875 89.296875 199.910156 C 78.804688 200.175781 71.019531 202.652344 65.472656 207.496094 C 59.871094 212.386719 56.691406 219.542969 55.75 229.394531 C 55.585938 231.109375 56.160156 232.828125 57.320312 234.109375 C 58.492188 235.398438 60.152344 236.136719 61.890625 236.136719 " fill-opacity="1" fill-rule="nonzero"/></svg>