<svg xmlns="http://www.w3.org/2000/svg" xmlns:xlink="http://www.w3.org/1999/xlink" width="500" zoomAndPan="magnify" viewBox="0 0 375 374.999991" height="500" preserveAspectRatio="xMidYMid meet" version="1.0"><defs><clipPath id="66cd3144c8"><path d="M 10.335938 21 L 364.335938 21 L 364.335938 356.25 L 10.335938 356.25 Z M 10.335938 21 " clip-rule="nonzero"/></clipPath></defs><g clip-path="url(#66cd3144c8)"><path fill="#00f3f7" d="M 302.320312 131.863281 L 320.527344 111.648438 C 320.878906 111.253906 321.164062 110.816406 321.378906 110.332031 C 321.597656 109.847656 321.730469 109.339844 321.785156 108.8125 C 321.839844 108.285156 321.8125 107.765625 321.703125 107.246094 C 321.59375 106.726562 321.40625 106.238281 321.140625 105.78125 L 303.34375 74.929688 C 303.078125 74.46875 302.746094 74.0625 302.351562 73.707031 C 301.957031 73.351562 301.515625 73.0625 301.03125 72.847656 C 300.542969 72.632812 300.035156 72.496094 299.507812 72.441406 C 298.976562 72.386719 298.453125 72.417969 297.933594 72.53125 L 271.320312 78.1875 L 244.929688 32.484375 C 244.585938 31.890625 244.21875 31.316406 243.824219 30.761719 C 243.429688 30.203125 243.011719 29.667969 242.5625 29.152344 C 242.117188 28.636719 241.648438 28.140625 241.15625 27.667969 C 240.660156 27.199219 240.148438 26.75 239.613281 26.328125 C 239.074219 25.90625 238.519531 25.507812 237.945312 25.140625 C 237.375 24.769531 236.785156 24.429688 236.175781 24.117188 C 235.570312 23.804688 234.949219 23.519531 234.316406 23.265625 C 233.683594 23.011719 233.039062 22.789062 232.386719 22.59375 C 231.730469 22.402344 231.070312 22.242188 230.398438 22.113281 C 229.730469 21.984375 229.054688 21.886719 228.375 21.820312 C 227.695312 21.757812 227.015625 21.722656 226.332031 21.722656 C 225.648438 21.722656 224.96875 21.757812 224.289062 21.820312 C 223.609375 21.886719 222.9375 21.984375 222.265625 22.113281 C 221.597656 22.242188 220.933594 22.40625 220.277344 22.597656 C 219.625 22.789062 218.980469 23.011719 218.347656 23.269531 C 217.714844 23.523438 217.09375 23.804688 216.488281 24.117188 C 215.882812 24.433594 215.292969 24.773438 214.71875 25.144531 C 214.144531 25.511719 213.589844 25.910156 213.054688 26.332031 C 212.519531 26.753906 212.003906 27.203125 211.511719 27.671875 C 211.019531 28.144531 210.546875 28.640625 210.101562 29.15625 C 209.65625 29.671875 209.234375 30.210938 208.839844 30.765625 C 208.445312 31.324219 208.078125 31.898438 207.738281 32.488281 C 207.398438 33.082031 207.089844 33.6875 206.808594 34.308594 C 206.523438 34.929688 206.273438 35.5625 206.050781 36.207031 C 205.832031 36.855469 205.640625 37.507812 205.480469 38.171875 C 205.320312 38.835938 205.195312 39.503906 205.101562 40.179688 C 205.003906 40.855469 204.941406 41.535156 204.914062 42.21875 C 204.882812 42.898438 204.882812 43.582031 204.917969 44.261719 C 204.953125 44.945312 205.019531 45.621094 205.121094 46.296875 C 205.21875 46.972656 205.351562 47.640625 205.515625 48.304688 C 205.679688 48.964844 205.871094 49.621094 206.097656 50.261719 C 206.324219 50.90625 206.582031 51.539062 206.867188 52.160156 L 174.953125 91.328125 L 33.363281 91.328125 C 32.625 91.328125 31.890625 91.363281 31.15625 91.4375 C 30.421875 91.511719 29.691406 91.621094 28.96875 91.765625 C 28.242188 91.910156 27.527344 92.089844 26.820312 92.304688 C 26.117188 92.519531 25.421875 92.765625 24.738281 93.050781 C 24.058594 93.332031 23.390625 93.648438 22.742188 93.996094 C 22.089844 94.34375 21.457031 94.722656 20.84375 95.136719 C 20.230469 95.546875 19.640625 95.984375 19.066406 96.453125 C 18.496094 96.921875 17.953125 97.417969 17.429688 97.9375 C 16.90625 98.460938 16.414062 99.007812 15.945312 99.578125 C 15.476562 100.148438 15.035156 100.738281 14.625 101.355469 C 14.214844 101.96875 13.835938 102.601562 13.488281 103.25 C 13.140625 103.902344 12.824219 104.566406 12.542969 105.25 C 12.257812 105.933594 12.011719 106.625 11.796875 107.332031 C 11.582031 108.039062 11.402344 108.753906 11.257812 109.476562 C 11.113281 110.203125 11.003906 110.929688 10.929688 111.664062 C 10.859375 112.398438 10.820312 113.136719 10.820312 113.875 L 10.820312 271.597656 C 10.820312 272.335938 10.859375 273.070312 10.933594 273.804688 C 11.003906 274.539062 11.113281 275.269531 11.257812 275.992188 C 11.402344 276.714844 11.582031 277.429688 11.796875 278.136719 C 12.011719 278.84375 12.261719 279.539062 12.542969 280.21875 C 12.828125 280.902344 13.140625 281.566406 13.488281 282.21875 C 13.839844 282.867188 14.21875 283.5 14.628906 284.113281 C 15.039062 284.726562 15.476562 285.320312 15.945312 285.890625 C 16.414062 286.460938 16.910156 287.007812 17.429688 287.527344 C 17.953125 288.050781 18.5 288.546875 19.070312 289.015625 C 19.640625 289.484375 20.230469 289.921875 20.84375 290.332031 C 21.460938 290.742188 22.089844 291.121094 22.742188 291.46875 C 23.394531 291.816406 24.058594 292.132812 24.742188 292.417969 C 25.421875 292.699219 26.117188 292.949219 26.824219 293.164062 C 27.527344 293.378906 28.242188 293.558594 28.96875 293.703125 C 29.691406 293.847656 30.421875 293.957031 31.15625 294.027344 C 31.890625 294.101562 32.625 294.136719 33.363281 294.140625 L 106.433594 294.140625 L 93.59375 315.941406 L 77.128906 315.941406 C 76.472656 315.941406 75.816406 315.976562 75.160156 316.039062 C 74.503906 316.105469 73.855469 316.203125 73.210938 316.332031 C 72.5625 316.460938 71.925781 316.621094 71.296875 316.8125 C 70.664062 317.003906 70.046875 317.226562 69.4375 317.476562 C 68.832031 317.730469 68.238281 318.011719 67.65625 318.320312 C 67.074219 318.632812 66.511719 318.972656 65.964844 319.335938 C 65.417969 319.703125 64.886719 320.09375 64.378906 320.511719 C 63.871094 320.929688 63.382812 321.371094 62.917969 321.835938 C 62.453125 322.304688 62.011719 322.789062 61.59375 323.300781 C 61.175781 323.808594 60.785156 324.335938 60.417969 324.882812 C 60.050781 325.429688 59.714844 325.996094 59.402344 326.574219 C 59.09375 327.15625 58.8125 327.75 58.558594 328.359375 C 58.304688 328.964844 58.085938 329.585938 57.894531 330.214844 C 57.703125 330.84375 57.542969 331.484375 57.414062 332.128906 C 57.28125 332.773438 57.1875 333.425781 57.121094 334.078125 C 57.054688 334.734375 57.023438 335.390625 57.023438 336.050781 L 57.023438 351.140625 C 57.023438 351.46875 57.054688 351.796875 57.117188 352.117188 C 57.183594 352.441406 57.277344 352.753906 57.40625 353.058594 C 57.53125 353.363281 57.683594 353.652344 57.867188 353.929688 C 58.050781 354.203125 58.257812 354.457031 58.492188 354.6875 C 58.726562 354.921875 58.980469 355.128906 59.253906 355.3125 C 59.527344 355.496094 59.816406 355.648438 60.121094 355.777344 C 60.425781 355.902344 60.738281 355.996094 61.0625 356.0625 C 61.386719 356.125 61.710938 356.160156 62.042969 356.160156 L 238.105469 356.160156 C 238.4375 356.160156 238.761719 356.125 239.085938 356.0625 C 239.410156 355.996094 239.722656 355.902344 240.027344 355.777344 C 240.332031 355.648438 240.621094 355.496094 240.894531 355.3125 C 241.167969 355.128906 241.421875 354.921875 241.65625 354.6875 C 241.890625 354.457031 242.097656 354.203125 242.28125 353.929688 C 242.464844 353.652344 242.617188 353.363281 242.742188 353.058594 C 242.871094 352.753906 242.964844 352.441406 243.03125 352.117188 C 243.09375 351.796875 243.125 351.46875 243.125 351.140625 L 243.125 336.0625 C 243.125 335.402344 243.09375 334.746094 243.027344 334.09375 C 242.960938 333.4375 242.863281 332.785156 242.734375 332.140625 C 242.605469 331.496094 242.445312 330.859375 242.253906 330.226562 C 242.0625 329.597656 241.84375 328.980469 241.589844 328.371094 C 241.335938 327.761719 241.054688 327.167969 240.746094 326.589844 C 240.433594 326.007812 240.097656 325.445312 239.730469 324.898438 C 239.367188 324.351562 238.972656 323.820312 238.554688 323.3125 C 238.136719 322.804688 237.695312 322.316406 237.230469 321.851562 C 236.765625 321.386719 236.277344 320.945312 235.769531 320.527344 C 235.261719 320.109375 234.734375 319.714844 234.1875 319.351562 C 233.640625 318.984375 233.074219 318.644531 232.496094 318.335938 C 231.914062 318.023438 231.320312 317.742188 230.710938 317.492188 C 230.105469 317.238281 229.484375 317.015625 228.855469 316.824219 C 228.226562 316.632812 227.589844 316.472656 226.941406 316.34375 C 226.296875 316.214844 225.648438 316.117188 224.992188 316.054688 C 224.335938 315.988281 223.679688 315.953125 223.023438 315.953125 L 206.554688 315.953125 L 193.742188 294.152344 L 266.789062 294.152344 C 267.527344 294.152344 268.261719 294.113281 268.996094 294.039062 C 269.730469 293.96875 270.460938 293.859375 271.183594 293.714844 C 271.910156 293.570312 272.625 293.390625 273.328125 293.175781 C 274.035156 292.960938 274.730469 292.710938 275.410156 292.429688 C 276.09375 292.144531 276.757812 291.832031 277.410156 291.484375 C 278.0625 291.132812 278.691406 290.753906 279.304688 290.34375 C 279.921875 289.933594 280.511719 289.496094 281.082031 289.027344 C 281.652344 288.558594 282.199219 288.0625 282.722656 287.542969 C 283.242188 287.019531 283.738281 286.472656 284.207031 285.902344 C 284.675781 285.332031 285.113281 284.742188 285.523438 284.128906 C 285.933594 283.511719 286.3125 282.882812 286.660156 282.230469 C 287.011719 281.578125 287.324219 280.914062 287.609375 280.230469 C 287.890625 279.550781 288.140625 278.855469 288.355469 278.148438 C 288.570312 277.445312 288.75 276.730469 288.894531 276.003906 C 289.039062 275.28125 289.148438 274.550781 289.21875 273.816406 C 289.292969 273.082031 289.332031 272.347656 289.332031 271.609375 L 289.332031 201.246094 L 292.578125 200.722656 C 292.972656 201.277344 293.390625 201.816406 293.835938 202.335938 C 294.28125 202.851562 294.75 203.347656 295.242188 203.820312 C 295.734375 204.292969 296.25 204.742188 296.785156 205.164062 C 297.320312 205.589844 297.875 205.988281 298.449219 206.359375 C 299.019531 206.730469 299.609375 207.074219 300.21875 207.386719 C 300.824219 207.703125 301.441406 207.988281 302.074219 208.242188 C 302.707031 208.5 303.351562 208.722656 304.007812 208.917969 C 304.660156 209.113281 305.324219 209.273438 305.996094 209.40625 C 306.664062 209.539062 307.339844 209.636719 308.019531 209.703125 C 308.699219 209.769531 309.378906 209.804688 310.0625 209.804688 C 310.746094 209.808594 311.425781 209.777344 312.105469 209.714844 C 312.789062 209.652344 313.460938 209.554688 314.132812 209.425781 C 314.804688 209.300781 315.46875 209.140625 316.125 208.949219 C 316.777344 208.757812 317.425781 208.535156 318.058594 208.285156 C 318.691406 208.03125 319.3125 207.75 319.921875 207.4375 C 320.527344 207.125 321.121094 206.785156 321.695312 206.417969 C 322.269531 206.050781 322.828125 205.65625 323.363281 205.234375 C 323.902344 204.8125 324.417969 204.367188 324.914062 203.898438 C 325.410156 203.425781 325.878906 202.933594 326.328125 202.417969 C 326.777344 201.902344 327.199219 201.367188 327.597656 200.8125 C 327.992188 200.257812 328.363281 199.683594 328.703125 199.09375 C 329.046875 198.5 329.359375 197.894531 329.644531 197.273438 C 329.929688 196.652344 330.183594 196.019531 330.40625 195.375 C 330.632812 194.730469 330.824219 194.078125 330.984375 193.414062 C 331.148438 192.75 331.277344 192.078125 331.375 191.402344 C 331.472656 190.726562 331.539062 190.050781 331.570312 189.367188 C 331.605469 188.683594 331.605469 188.003906 331.574219 187.320312 C 331.539062 186.636719 331.476562 185.960938 331.378906 185.285156 C 331.28125 184.609375 331.152344 183.9375 330.992188 183.273438 C 330.832031 182.609375 330.640625 181.957031 330.417969 181.308594 C 330.195312 180.664062 329.941406 180.03125 329.65625 179.410156 C 329.375 178.789062 329.0625 178.183594 328.71875 177.589844 Z M 296.492188 83.121094 L 310.640625 107.640625 L 297.058594 122.722656 L 288.457031 107.851562 C 287.421875 104.148438 285.5625 100.925781 282.871094 98.175781 L 276.628906 87.355469 Z M 177.09375 209.222656 L 141.722656 147.992188 L 212.113281 61.613281 L 287.066406 191.453125 Z M 133.230469 153.363281 L 140.058594 165.175781 L 168.179688 213.890625 L 142.675781 228.621094 C 141.839844 229.097656 140.980469 229.535156 140.101562 229.933594 C 139.222656 230.328125 138.328125 230.679688 137.414062 230.988281 C 136.5 231.292969 135.574219 231.558594 134.632812 231.773438 C 133.695312 231.992188 132.746094 232.160156 131.792969 232.285156 C 130.835938 232.410156 129.875 232.488281 128.914062 232.519531 C 127.949219 232.550781 126.988281 232.53125 126.023438 232.46875 C 125.0625 232.40625 124.105469 232.292969 123.15625 232.136719 C 122.203125 231.980469 121.261719 231.777344 120.332031 231.527344 C 119.402344 231.277344 118.484375 230.984375 117.582031 230.644531 C 116.679688 230.304688 115.796875 229.921875 114.933594 229.496094 C 114.066406 229.070312 113.226562 228.601562 112.40625 228.09375 C 111.585938 227.585938 110.792969 227.039062 110.027344 226.453125 C 109.261719 225.867188 108.527344 225.246094 107.824219 224.589844 C 107.117188 223.933594 106.449219 223.242188 105.808594 222.519531 C 105.171875 221.796875 104.574219 221.042969 104.007812 220.261719 C 103.445312 219.480469 102.921875 218.671875 102.4375 217.835938 L 96.945312 208.324219 C 96.460938 207.488281 96.023438 206.632812 95.625 205.753906 C 95.230469 204.875 94.875 203.976562 94.566406 203.0625 C 94.257812 202.152344 93.992188 201.222656 93.777344 200.285156 C 93.558594 199.34375 93.386719 198.398438 93.261719 197.441406 C 93.136719 196.484375 93.054688 195.523438 93.027344 194.5625 C 92.996094 193.597656 93.011719 192.632812 93.074219 191.671875 C 93.136719 190.710938 93.246094 189.753906 93.40625 188.800781 C 93.5625 187.851562 93.765625 186.910156 94.015625 185.976562 C 94.265625 185.046875 94.558594 184.128906 94.898438 183.226562 C 95.238281 182.324219 95.621094 181.4375 96.046875 180.574219 C 96.472656 179.710938 96.941406 178.867188 97.449219 178.046875 C 97.957031 177.230469 98.503906 176.4375 99.09375 175.671875 C 99.679688 174.90625 100.300781 174.171875 100.960938 173.464844 C 101.617188 172.761719 102.308594 172.089844 103.035156 171.453125 C 103.757812 170.816406 104.511719 170.21875 105.296875 169.65625 C 106.078125 169.09375 106.886719 168.570312 107.722656 168.085938 Z M 223.023438 325.992188 C 223.683594 325.992188 224.335938 326.058594 224.984375 326.1875 C 225.632812 326.316406 226.261719 326.507812 226.871094 326.761719 C 227.484375 327.015625 228.0625 327.324219 228.613281 327.691406 C 229.160156 328.058594 229.671875 328.476562 230.136719 328.945312 C 230.605469 329.414062 231.023438 329.921875 231.390625 330.46875 C 231.757812 331.019531 232.066406 331.601562 232.320312 332.210938 C 232.574219 332.820312 232.765625 333.449219 232.894531 334.097656 C 233.023438 334.746094 233.085938 335.402344 233.089844 336.0625 L 233.089844 346.132812 L 67.042969 346.132812 L 67.042969 336.0625 C 67.042969 335.402344 67.109375 334.746094 67.238281 334.097656 C 67.367188 333.449219 67.558594 332.820312 67.8125 332.210938 C 68.066406 331.601562 68.375 331.019531 68.746094 330.46875 C 69.113281 329.921875 69.527344 329.414062 69.996094 328.945312 C 70.464844 328.476562 70.972656 328.058594 71.523438 327.691406 C 72.070312 327.324219 72.652344 327.015625 73.261719 326.761719 C 73.871094 326.507812 74.503906 326.316406 75.148438 326.1875 C 75.796875 326.058594 76.453125 325.992188 77.113281 325.992188 Z M 194.90625 315.953125 L 105.242188 315.953125 L 118.082031 294.152344 L 182.089844 294.152344 Z M 266.789062 284.113281 L 33.363281 284.113281 C 32.542969 284.113281 31.734375 284.03125 30.929688 283.867188 C 30.128906 283.707031 29.347656 283.46875 28.589844 283.15625 C 27.835938 282.839844 27.117188 282.457031 26.4375 282 C 25.753906 281.542969 25.125 281.027344 24.546875 280.449219 C 23.964844 279.867188 23.449219 279.238281 22.992188 278.558594 C 22.539062 277.875 22.152344 277.160156 21.839844 276.402344 C 21.523438 275.644531 21.285156 274.867188 21.125 274.0625 C 20.964844 273.257812 20.882812 272.449219 20.878906 271.628906 L 20.878906 263.789062 L 279.308594 263.789062 L 279.308594 271.609375 C 279.308594 272.429688 279.226562 273.242188 279.066406 274.050781 C 278.90625 274.855469 278.667969 275.636719 278.351562 276.394531 C 278.039062 277.152344 277.652344 277.875 277.195312 278.558594 C 276.738281 279.238281 276.21875 279.871094 275.636719 280.453125 C 275.054688 281.03125 274.421875 281.550781 273.738281 282.007812 C 273.058594 282.464844 272.335938 282.847656 271.578125 283.164062 C 270.816406 283.476562 270.035156 283.714844 269.230469 283.875 C 268.421875 284.035156 267.609375 284.113281 266.789062 284.113281 Z M 279.292969 253.734375 L 20.859375 253.734375 L 20.859375 113.875 C 20.859375 113.054688 20.941406 112.238281 21.101562 111.433594 C 21.261719 110.628906 21.5 109.847656 21.8125 109.089844 C 22.128906 108.332031 22.511719 107.609375 22.96875 106.929688 C 23.425781 106.246094 23.945312 105.613281 24.523438 105.035156 C 25.105469 104.453125 25.738281 103.933594 26.417969 103.476562 C 27.101562 103.023438 27.820312 102.636719 28.578125 102.320312 C 29.339844 102.007812 30.121094 101.769531 30.925781 101.609375 C 31.730469 101.445312 32.542969 101.367188 33.363281 101.363281 L 166.769531 101.363281 L 134.375 141.097656 L 102.703125 159.410156 C 101.585938 160.058594 100.5 160.757812 99.449219 161.511719 C 98.402344 162.265625 97.390625 163.070312 96.417969 163.921875 C 95.449219 164.777344 94.519531 165.675781 93.636719 166.621094 C 92.753906 167.5625 91.921875 168.546875 91.136719 169.574219 C 90.347656 170.601562 89.613281 171.664062 88.933594 172.761719 C 88.25 173.859375 87.625 174.988281 87.050781 176.148438 C 86.480469 177.304688 85.96875 178.492188 85.511719 179.699219 C 85.058594 180.910156 84.664062 182.140625 84.328125 183.386719 C 83.992188 184.636719 83.71875 185.898438 83.507812 187.175781 C 83.300781 188.449219 83.152344 189.730469 83.066406 191.023438 C 82.980469 192.3125 82.960938 193.601562 83 194.894531 C 83.042969 196.1875 83.148438 197.472656 83.316406 198.753906 C 83.484375 200.035156 83.714844 201.308594 84.003906 202.566406 C 84.296875 203.824219 84.652344 205.066406 85.066406 206.292969 C 85.480469 207.515625 85.953125 208.71875 86.484375 209.894531 C 87.015625 211.074219 87.605469 212.222656 88.25 213.34375 L 93.742188 222.855469 C 95.035156 225.105469 96.539062 227.203125 98.246094 229.152344 C 99.957031 231.101562 101.839844 232.863281 103.902344 234.4375 C 105.960938 236.015625 108.152344 237.375 110.480469 238.515625 C 112.808594 239.65625 115.226562 240.554688 117.734375 241.21875 C 121.121094 242.128906 124.570312 242.589844 128.082031 242.589844 C 131.523438 242.589844 134.90625 242.140625 138.234375 241.246094 C 141.558594 240.351562 144.710938 239.039062 147.691406 237.3125 L 179.367188 219.023438 L 279.292969 202.867188 Z M 321.15625 191.304688 C 320.863281 192.398438 320.417969 193.425781 319.824219 194.390625 C 319.226562 195.355469 318.503906 196.210938 317.652344 196.957031 C 316.800781 197.707031 315.859375 198.3125 314.828125 198.78125 C 313.796875 199.25 312.71875 199.558594 311.597656 199.707031 C 310.472656 199.855469 309.351562 199.839844 308.234375 199.65625 C 307.117188 199.472656 306.050781 199.128906 305.035156 198.628906 C 304.015625 198.125 303.097656 197.488281 302.269531 196.714844 C 301.441406 195.9375 300.746094 195.0625 300.179688 194.078125 L 216.382812 48.9375 C 216.007812 48.285156 215.699219 47.601562 215.460938 46.890625 C 215.21875 46.179688 215.050781 45.449219 214.953125 44.703125 C 214.855469 43.957031 214.832031 43.207031 214.882812 42.457031 C 214.933594 41.707031 215.054688 40.96875 215.25 40.242188 C 215.445312 39.515625 215.710938 38.816406 216.042969 38.140625 C 216.378906 37.464844 216.773438 36.832031 217.234375 36.234375 C 217.691406 35.636719 218.203125 35.09375 218.769531 34.597656 C 219.335938 34.101562 219.945312 33.664062 220.597656 33.289062 C 221.25 32.914062 221.929688 32.605469 222.644531 32.363281 C 223.355469 32.125 224.085938 31.953125 224.832031 31.855469 C 225.578125 31.757812 226.324219 31.734375 227.074219 31.785156 C 227.828125 31.835938 228.566406 31.957031 229.292969 32.152344 C 230.019531 32.347656 230.71875 32.609375 231.394531 32.945312 C 232.066406 33.277344 232.703125 33.671875 233.300781 34.132812 C 233.898438 34.589844 234.445312 35.101562 234.9375 35.667969 C 235.433594 36.234375 235.871094 36.84375 236.246094 37.492188 L 264.488281 86.375 L 278.136719 110.054688 L 320.027344 182.609375 C 320.789062 183.925781 321.265625 185.335938 321.460938 186.84375 C 321.65625 188.351562 321.554688 189.835938 321.15625 191.304688 Z M 342.464844 78.710938 C 342.179688 78.875 341.882812 79.011719 341.570312 79.117188 C 341.257812 79.222656 340.9375 79.296875 340.609375 79.339844 C 340.285156 79.382812 339.957031 79.394531 339.625 79.375 C 339.296875 79.351562 338.972656 79.300781 338.65625 79.214844 C 338.335938 79.128906 338.03125 79.011719 337.734375 78.867188 C 337.4375 78.722656 337.160156 78.546875 336.898438 78.347656 C 336.636719 78.148438 336.394531 77.921875 336.179688 77.675781 C 335.960938 77.425781 335.769531 77.160156 335.605469 76.875 C 335.441406 76.589844 335.304688 76.289062 335.199219 75.976562 C 335.09375 75.664062 335.019531 75.347656 334.976562 75.019531 C 334.933594 74.691406 334.921875 74.363281 334.945312 74.035156 C 334.964844 73.707031 335.019531 73.382812 335.105469 73.0625 C 335.191406 72.746094 335.304688 72.4375 335.453125 72.140625 C 335.597656 71.847656 335.769531 71.566406 335.972656 71.304688 C 336.171875 71.046875 336.398438 70.804688 336.644531 70.589844 C 336.894531 70.371094 337.160156 70.179688 337.445312 70.015625 L 350.03125 62.75 C 350.316406 62.585938 350.617188 62.449219 350.925781 62.34375 C 351.238281 62.238281 351.558594 62.164062 351.886719 62.121094 C 352.214844 62.078125 352.539062 62.066406 352.871094 62.085938 C 353.199219 62.109375 353.523438 62.160156 353.839844 62.246094 C 354.160156 62.332031 354.464844 62.449219 354.761719 62.59375 C 355.058594 62.738281 355.335938 62.914062 355.597656 63.113281 C 355.859375 63.3125 356.097656 63.539062 356.316406 63.785156 C 356.535156 64.035156 356.726562 64.300781 356.890625 64.585938 C 357.054688 64.871094 357.191406 65.171875 357.296875 65.484375 C 357.402344 65.792969 357.476562 66.113281 357.519531 66.441406 C 357.5625 66.769531 357.574219 67.097656 357.550781 67.425781 C 357.53125 67.753906 357.476562 68.078125 357.390625 68.394531 C 357.304688 68.714844 357.191406 69.019531 357.042969 69.316406 C 356.898438 69.613281 356.722656 69.890625 356.523438 70.152344 C 356.324219 70.414062 356.097656 70.652344 355.851562 70.871094 C 355.601562 71.085938 355.335938 71.277344 355.050781 71.441406 Z M 303.722656 48.984375 L 307.46875 34.941406 C 307.550781 34.625 307.667969 34.316406 307.8125 34.023438 C 307.960938 33.726562 308.132812 33.449219 308.332031 33.1875 C 308.535156 32.925781 308.757812 32.683594 309.003906 32.46875 C 309.253906 32.25 309.519531 32.058594 309.804688 31.894531 C 310.089844 31.730469 310.390625 31.59375 310.703125 31.488281 C 311.011719 31.382812 311.332031 31.308594 311.660156 31.265625 C 311.988281 31.222656 312.3125 31.210938 312.644531 31.234375 C 312.972656 31.253906 313.296875 31.308594 313.613281 31.394531 C 313.933594 31.476562 314.238281 31.59375 314.535156 31.738281 C 314.832031 31.886719 315.109375 32.058594 315.371094 32.257812 C 315.632812 32.460938 315.871094 32.683594 316.089844 32.929688 C 316.304688 33.179688 316.496094 33.445312 316.660156 33.730469 C 316.828125 34.015625 316.960938 34.316406 317.066406 34.628906 C 317.175781 34.9375 317.25 35.257812 317.292969 35.585938 C 317.335938 35.910156 317.34375 36.238281 317.324219 36.570312 C 317.300781 36.898438 317.25 37.222656 317.164062 37.539062 L 313.417969 51.582031 C 313.332031 51.898438 313.21875 52.207031 313.074219 52.503906 C 312.925781 52.800781 312.753906 53.078125 312.554688 53.339844 C 312.355469 53.601562 312.128906 53.84375 311.882812 54.058594 C 311.632812 54.277344 311.367188 54.46875 311.082031 54.632812 C 310.796875 54.800781 310.496094 54.9375 310.183594 55.042969 C 309.871094 55.148438 309.554688 55.222656 309.226562 55.265625 C 308.898438 55.308594 308.570312 55.320312 308.242188 55.300781 C 307.910156 55.277344 307.589844 55.222656 307.269531 55.140625 C 306.949219 55.054688 306.644531 54.9375 306.347656 54.792969 C 306.050781 54.644531 305.773438 54.472656 305.511719 54.273438 C 305.25 54.070312 305.011719 53.847656 304.792969 53.597656 C 304.574219 53.351562 304.382812 53.082031 304.21875 52.796875 C 304.054688 52.511719 303.917969 52.210938 303.8125 51.898438 C 303.707031 51.585938 303.632812 51.265625 303.589844 50.941406 C 303.546875 50.613281 303.539062 50.285156 303.558594 49.957031 C 303.582031 49.625 303.636719 49.300781 303.722656 48.984375 Z M 364.003906 118.648438 C 363.921875 118.964844 363.808594 119.273438 363.664062 119.570312 C 363.519531 119.867188 363.34375 120.148438 363.144531 120.410156 C 362.945312 120.671875 362.722656 120.910156 362.472656 121.128906 C 362.226562 121.347656 361.957031 121.539062 361.671875 121.703125 C 361.386719 121.871094 361.089844 122.003906 360.773438 122.109375 C 360.460938 122.214844 360.144531 122.289062 359.816406 122.332031 C 359.488281 122.375 359.160156 122.382812 358.832031 122.363281 C 358.5 122.339844 358.175781 122.285156 357.859375 122.199219 L 343.816406 118.453125 C 343.5 118.367188 343.191406 118.25 342.894531 118.105469 C 342.601562 117.960938 342.320312 117.785156 342.058594 117.585938 C 341.796875 117.386719 341.558594 117.160156 341.339844 116.914062 C 341.125 116.664062 340.933594 116.398438 340.765625 116.113281 C 340.601562 115.828125 340.464844 115.527344 340.359375 115.214844 C 340.253906 114.902344 340.179688 114.585938 340.136719 114.257812 C 340.09375 113.929688 340.082031 113.601562 340.105469 113.273438 C 340.125 112.945312 340.179688 112.621094 340.265625 112.300781 C 340.351562 111.984375 340.464844 111.675781 340.613281 111.378906 C 340.757812 111.085938 340.933594 110.804688 341.132812 110.542969 C 341.332031 110.28125 341.558594 110.042969 341.804688 109.828125 C 342.054688 109.609375 342.320312 109.417969 342.605469 109.253906 C 342.894531 109.089844 343.191406 108.953125 343.503906 108.847656 C 343.816406 108.742188 344.136719 108.667969 344.464844 108.625 C 344.789062 108.582031 345.117188 108.570312 345.449219 108.59375 C 345.777344 108.617188 346.101562 108.667969 346.417969 108.753906 L 360.457031 112.5 C 360.773438 112.585938 361.082031 112.703125 361.375 112.847656 C 361.671875 112.992188 361.949219 113.167969 362.210938 113.367188 C 362.472656 113.566406 362.714844 113.792969 362.929688 114.039062 C 363.148438 114.285156 363.339844 114.554688 363.503906 114.839844 C 363.667969 115.125 363.804688 115.421875 363.910156 115.734375 C 364.015625 116.046875 364.089844 116.367188 364.132812 116.691406 C 364.175781 117.019531 364.1875 117.347656 364.164062 117.675781 C 364.144531 118.003906 364.089844 118.328125 364.003906 118.648438 Z M 364.003906 118.648438 " fill-opacity="1" fill-rule="nonzero"/></g></svg>