<svg xmlns="http://www.w3.org/2000/svg" xmlns:xlink="http://www.w3.org/1999/xlink" width="500" zoomAndPan="magnify" viewBox="0 0 375 374.999991" height="500" preserveAspectRatio="xMidYMid meet" version="1.0"><defs><clipPath id="c1a4a5ce07"><path d="M 303 46.523438 L 371.316406 46.523438 L 371.316406 312 L 303 312 Z M 303 46.523438 " clip-rule="nonzero"/></clipPath><clipPath id="69fecc8060"><path d="M 3.816406 149 L 22 149 L 22 207 L 3.816406 207 Z M 3.816406 149 " clip-rule="nonzero"/></clipPath><clipPath id="0a4f7c1d87"><path d="M 41 233 L 111 233 L 111 328.523438 L 41 328.523438 Z M 41 233 " clip-rule="nonzero"/></clipPath></defs><g clip-path="url(#c1a4a5ce07)"><path fill="#00f3f7" d="M 355.886719 311.417969 L 319.066406 311.417969 C 310.667969 311.417969 303.777344 304.527344 303.777344 296.128906 L 303.777344 61.847656 C 303.777344 53.449219 310.667969 46.558594 319.066406 46.558594 L 355.886719 46.558594 C 364.5 46.558594 371.175781 53.449219 371.175781 61.847656 L 371.175781 296.128906 C 371.175781 304.527344 364.5 311.417969 355.886719 311.417969 Z M 337.585938 295.914062 C 329.832031 295.914062 321.21875 297.421875 321.21875 291.609375 L 321.21875 259.738281 C 321.21875 253.925781 329.832031 255.433594 337.585938 255.433594 C 346.414062 255.433594 353.734375 262.753906 353.734375 271.582031 L 353.734375 279.550781 C 353.734375 288.59375 346.414062 295.914062 337.585938 295.914062 Z M 330.046875 287.300781 C 344.90625 287.300781 345.121094 286.441406 345.121094 271.582031 C 345.121094 262.753906 335.214844 264.046875 330.046875 264.046875 Z M 349.429688 247.464844 C 348.136719 247.464844 346.84375 246.820312 345.984375 245.742188 L 330.046875 224.425781 L 330.046875 243.15625 C 330.046875 248.757812 321.433594 248.757812 321.433594 243.15625 L 321.433594 211.503906 C 321.433594 207.414062 326.601562 205.476562 329.1875 208.921875 L 345.121094 230.238281 L 345.121094 211.289062 C 345.121094 205.691406 353.734375 205.691406 353.734375 211.289062 L 353.734375 243.15625 C 353.734375 245.527344 351.796875 247.464844 349.429688 247.464844 Z M 340.597656 86.394531 C 336.292969 86.394531 332.847656 86.609375 330.261719 86.609375 L 330.261719 93.714844 C 337.371094 93.714844 344.691406 95.222656 344.691406 90.054688 C 344.691406 87.6875 343.183594 86.824219 340.597656 86.394531 Z M 321.648438 82.089844 C 321.433594 79.074219 321.648438 74.121094 321.648438 66.367188 C 321.648438 64 323.585938 62.0625 325.957031 62.0625 L 341.246094 62.0625 C 352.875 62.0625 356.101562 75.199219 350.503906 82.089844 C 356.101562 89.195312 352.875 102.328125 341.246094 102.328125 C 319.28125 102.328125 321.21875 105.992188 321.648438 82.089844 Z M 340.816406 77.78125 C 343.183594 77.566406 344.691406 76.488281 344.691406 74.121094 C 344.691406 69.167969 337.371094 70.675781 330.261719 70.675781 L 330.261719 77.78125 Z M 326.171875 150.566406 C 319.710938 150.566406 322.296875 141.089844 321.863281 133.769531 L 322.082031 113.097656 C 323.585938 108.574219 332.847656 110.296875 339.308594 110.296875 C 355.671875 110.296875 357.394531 132.691406 344.476562 137.429688 L 349.210938 143.890625 C 352.441406 148.410156 345.550781 153.363281 342.105469 148.84375 L 334.570312 138.289062 C 333.0625 138.289062 331.554688 138.289062 330.480469 138.289062 C 330.480469 143.457031 331.554688 150.566406 326.171875 150.566406 Z M 330.480469 118.910156 L 330.480469 129.675781 C 336.078125 129.675781 344.691406 130.96875 344.691406 124.292969 C 344.691406 117.617188 336.292969 118.910156 330.480469 118.910156 Z M 348.996094 199.015625 C 345.765625 199.015625 344.90625 196.429688 344.261719 194.277344 L 330.910156 194.277344 L 330.261719 196.214844 C 328.324219 201.597656 320.140625 198.582031 322.082031 193.414062 L 333.492188 161.546875 C 335 157.886719 340.167969 157.886719 341.675781 161.546875 L 353.089844 193.414062 C 353.949219 196 352.011719 199.015625 348.996094 199.015625 Z M 341.03125 185.664062 L 337.585938 175.757812 L 333.925781 185.664062 Z M 341.03125 185.664062 " fill-opacity="1" fill-rule="evenodd"/></g><path fill="#00f3f7" d="M 215.492188 269.859375 C 196.324219 262.539062 158.640625 247.894531 139.90625 240.574219 C 143.785156 236.265625 145.9375 230.667969 145.9375 224.640625 L 145.9375 131.398438 C 145.9375 124.941406 143.785156 119.554688 140.125 115.25 L 215.492188 86.179688 Z M 215.492188 269.859375 " fill-opacity="1" fill-rule="evenodd"/><path fill="#00f3f7" d="M 97.058594 228.085938 L 50.761719 228.085938 C 38.484375 228.085938 28.367188 217.964844 28.367188 205.691406 L 28.367188 150.347656 C 28.367188 138.074219 38.484375 127.953125 50.761719 127.953125 L 97.058594 127.953125 Z M 84.136719 160.039062 L 41.5 160.039062 C 35.6875 160.039062 35.6875 151.425781 41.5 151.425781 L 84.136719 151.425781 C 89.734375 151.425781 89.734375 160.039062 84.136719 160.039062 Z M 84.136719 182.21875 L 41.5 182.21875 C 35.6875 182.21875 35.6875 173.605469 41.5 173.605469 L 84.136719 173.605469 C 89.734375 173.605469 89.734375 182.21875 84.136719 182.21875 Z M 84.136719 204.613281 L 41.5 204.613281 C 35.6875 204.613281 35.6875 196 41.5 196 L 84.136719 196 C 89.734375 196 89.734375 204.613281 84.136719 204.613281 Z M 84.136719 204.613281 " fill-opacity="1" fill-rule="evenodd"/><g clip-path="url(#69fecc8060)"><path fill="#00f3f7" d="M 21.257812 206.335938 L 17.597656 206.335938 C 10.0625 206.335938 3.816406 200.089844 3.816406 192.554688 L 3.816406 163.484375 C 3.816406 155.949219 10.0625 149.703125 17.597656 149.703125 L 21.257812 149.703125 Z M 21.257812 206.335938 " fill-opacity="1" fill-rule="evenodd"/></g><path fill="#00f3f7" d="M 262.433594 218.609375 L 262.003906 218.609375 L 262.003906 137.429688 C 272.984375 137.429688 281.597656 146.042969 281.597656 156.808594 L 281.597656 199.230469 C 281.597656 209.996094 272.984375 218.609375 262.433594 218.609375 Z M 262.433594 218.609375 " fill-opacity="1" fill-rule="evenodd"/><g clip-path="url(#0a4f7c1d87)"><path fill="#00f3f7" d="M 82.199219 328.429688 L 65.832031 328 C 51.835938 328 43.007812 315.941406 41.714844 298.066406 L 108.683594 298.066406 C 111.484375 308.621094 110.839844 317.664062 100.285156 325.199219 C 96.625 327.785156 90.167969 328.429688 82.199219 328.429688 Z M 41.5 289.453125 L 41.5 233.683594 C 44.515625 234.761719 47.53125 235.191406 50.761719 235.191406 L 97.058594 235.191406 C 91.457031 255.863281 100.285156 273.949219 105.886719 289.453125 Z M 41.5 289.453125 " fill-opacity="1" fill-rule="evenodd"/></g><path fill="#00f3f7" d="M 121.390625 242.082031 C 111.914062 242.082031 104.164062 234.328125 104.164062 224.640625 L 104.164062 131.398438 C 104.164062 108.574219 138.832031 108.574219 138.832031 131.398438 L 138.832031 224.640625 C 138.832031 234.113281 131.078125 242.082031 121.390625 242.082031 Z M 121.390625 242.082031 " fill-opacity="1" fill-rule="evenodd"/><path fill="#00f3f7" d="M 238.746094 292.898438 C 229.917969 292.898438 222.597656 285.792969 222.597656 276.75 L 222.597656 81.011719 C 222.597656 59.695312 254.894531 59.695312 254.894531 81.011719 L 254.894531 276.75 C 254.894531 285.792969 247.789062 292.898438 238.746094 292.898438 Z M 238.746094 292.898438 " fill-opacity="1" fill-rule="evenodd"/></svg>