<svg xmlns="http://www.w3.org/2000/svg" xmlns:xlink="http://www.w3.org/1999/xlink" width="500" zoomAndPan="magnify" viewBox="0 0 375 374.999991" height="500" preserveAspectRatio="xMidYMid meet" version="1.0"><defs><clipPath id="48b6251b16"><path d="M 19 9 L 356 9 L 356 365.929688 L 19 365.929688 Z M 19 9 " clip-rule="nonzero"/></clipPath></defs><g clip-path="url(#48b6251b16)"><path fill="#00f3f7" d="M 230.164062 35.097656 L 243.578125 23.003906 C 246.65625 20.144531 246.875 15.527344 244.019531 12.226562 C 241.160156 9.148438 236.320312 8.929688 233.242188 11.789062 L 219.828125 24.101562 C 213.230469 21.242188 205.972656 22.78125 201.132812 27.179688 C 200.253906 28.0625 199.375 28.941406 198.714844 29.820312 C 194.976562 29.601562 191.238281 29.378906 187.5 29.378906 C 141.539062 29.378906 97.773438 48.292969 66.105469 81.28125 L 66.105469 72.921875 C 66.105469 71.824219 65.226562 70.945312 64.128906 70.945312 C 52.03125 70.945312 42.355469 80.621094 42.355469 92.714844 L 42.355469 112.949219 C 27.183594 138.679688 19.265625 167.925781 19.265625 197.835938 C 19.265625 289.980469 94.035156 366.070312 187.5 366.070312 C 230.382812 366.070312 272.386719 349.796875 304.273438 318.789062 L 330.445312 318.789062 C 331.542969 318.789062 332.421875 317.90625 332.421875 316.808594 L 332.421875 282.722656 C 347.378906 257.210938 355.292969 227.742188 355.292969 197.835938 C 355.734375 121.085938 304.273438 54.449219 230.164062 35.097656 Z M 236.320312 14.867188 C 237.640625 13.765625 239.839844 13.765625 241.160156 15.085938 C 242.480469 16.40625 242.257812 18.605469 240.9375 19.925781 L 228.402344 31.359375 C 227.964844 30.480469 227.085938 29.601562 226.425781 28.722656 C 225.546875 27.839844 224.664062 26.960938 224.003906 26.523438 Z M 223.125 31.359375 C 228.402344 37.296875 227.523438 45.875 222.246094 50.710938 C 216.308594 55.988281 207.730469 55.109375 202.894531 49.832031 C 199.59375 46.09375 198.496094 41.035156 200.035156 36.417969 C 200.695312 34.21875 202.015625 32.238281 203.773438 30.699219 C 209.492188 25.203125 218.289062 25.863281 223.125 31.359375 Z M 211.691406 58.1875 L 138.238281 144.394531 C 136.039062 147.035156 131.863281 147.914062 128.78125 146.375 L 205.3125 56.429688 C 207.292969 57.53125 209.710938 57.96875 211.691406 58.1875 Z M 98.875 113.167969 C 97.773438 109.871094 98.875 106.128906 101.953125 103.929688 L 195.195312 39.9375 C 195.195312 42.136719 195.417969 44.335938 196.296875 46.3125 Z M 198.054688 50.050781 C 198.496094 50.933594 199.15625 51.59375 199.816406 52.25 C 200.476562 52.910156 201.132812 53.570312 201.792969 54.230469 L 170.785156 90.738281 L 139.117188 90.738281 Z M 187.5 33.777344 C 190.578125 33.777344 193.4375 33.777344 196.515625 34 C 196.515625 34 196.515625 34 196.515625 34.21875 L 114.046875 90.738281 L 66.105469 90.738281 L 66.105469 87.65625 C 97.117188 53.351562 141.316406 33.777344 187.5 33.777344 Z M 46.316406 92.714844 C 46.316406 83.699219 53.132812 76.222656 61.929688 75.121094 L 61.929688 234.558594 C 55.550781 235.21875 50.054688 238.519531 46.316406 243.355469 Z M 63.910156 238.738281 C 65.007812 238.738281 65.886719 237.859375 65.886719 236.757812 L 65.886719 94.914062 L 107.890625 94.914062 L 99.3125 100.851562 C 94.476562 104.152344 92.71875 110.527344 95.136719 115.808594 L 88.976562 119.984375 C 88.097656 120.644531 87.878906 121.964844 88.539062 122.84375 C 88.976562 123.503906 89.636719 123.722656 90.296875 123.722656 C 90.738281 123.722656 91.175781 123.503906 91.398438 123.285156 L 99.09375 118.007812 L 132.742188 94.914062 L 167.046875 94.914062 L 124.164062 145.714844 L 118.007812 152.972656 C 117.347656 153.851562 117.347656 155.171875 118.226562 155.832031 C 118.667969 156.269531 119.105469 156.269531 119.546875 156.269531 C 120.207031 156.269531 120.644531 156.050781 121.085938 155.609375 L 125.925781 149.894531 C 127.683594 150.992188 129.882812 151.652344 132.082031 151.652344 C 135.601562 151.652344 138.898438 150.113281 141.316406 147.472656 L 185.742188 95.136719 L 287.78125 95.136719 L 287.78125 180.242188 L 194.316406 273.707031 L 63.910156 273.707031 C 54.230469 273.707031 46.316406 265.789062 46.316406 256.113281 C 46.316406 246.65625 54.230469 238.738281 63.910156 238.738281 Z M 23.445312 197.835938 C 23.445312 171.226562 29.820312 145.054688 42.136719 121.523438 L 42.136719 256.332031 C 42.136719 268.425781 51.8125 278.105469 63.910156 278.105469 L 190.359375 278.105469 L 153.851562 314.609375 L 72.484375 314.609375 C 42.136719 284.699219 23.445312 243.355469 23.445312 197.835938 Z M 187.5 361.890625 C 145.277344 361.890625 106.351562 346.058594 76.664062 318.789062 L 298.335938 318.789062 C 268.867188 345.835938 229.503906 361.890625 187.5 361.890625 Z M 303.613281 314.609375 L 159.570312 314.609375 L 328.464844 145.714844 L 328.464844 157.371094 L 324.507812 157.371094 C 323.40625 157.371094 322.527344 158.25 322.527344 159.351562 C 322.527344 160.449219 323.40625 161.328125 324.507812 161.328125 L 328.464844 161.328125 L 328.464844 175.625 L 324.507812 175.625 C 323.40625 175.625 322.527344 176.503906 322.527344 177.601562 C 322.527344 178.703125 323.40625 179.582031 324.507812 179.582031 L 328.464844 179.582031 L 328.464844 193.875 L 324.507812 193.875 C 323.40625 193.875 322.527344 194.757812 322.527344 195.855469 C 322.527344 196.957031 323.40625 197.835938 324.507812 197.835938 L 328.464844 197.835938 L 328.464844 212.128906 L 324.507812 212.128906 C 323.40625 212.128906 322.527344 213.007812 322.527344 214.109375 C 322.527344 215.207031 323.40625 216.085938 324.507812 216.085938 L 328.464844 216.085938 L 328.464844 230.382812 L 324.507812 230.382812 C 323.40625 230.382812 322.527344 231.261719 322.527344 232.363281 C 322.527344 233.460938 323.40625 234.339844 324.507812 234.339844 L 328.464844 234.339844 L 328.464844 248.636719 L 324.507812 248.636719 C 323.40625 248.636719 322.527344 249.515625 322.527344 250.613281 C 322.527344 251.714844 323.40625 252.59375 324.507812 252.59375 L 328.464844 252.59375 L 328.464844 266.886719 L 324.507812 266.886719 C 323.40625 266.886719 322.527344 267.769531 322.527344 268.867188 C 322.527344 269.964844 323.40625 270.847656 324.507812 270.847656 L 328.464844 270.847656 L 328.464844 285.140625 L 324.507812 285.140625 C 323.40625 285.140625 322.527344 286.019531 322.527344 287.121094 C 322.527344 288.21875 323.40625 289.097656 324.507812 289.097656 L 328.464844 289.097656 L 328.464844 303.394531 L 324.507812 303.394531 C 323.40625 303.394531 322.527344 304.273438 322.527344 305.371094 C 322.527344 306.472656 323.40625 307.351562 324.507812 307.351562 L 328.464844 307.351562 L 328.464844 313.507812 L 303.613281 313.507812 Z M 332.863281 140.65625 C 332.863281 139.777344 332.421875 139.117188 331.542969 138.679688 C 330.664062 138.457031 329.785156 138.457031 329.34375 139.117188 L 292.179688 176.285156 L 292.179688 92.714844 C 292.179688 91.617188 291.300781 90.738281 290.199219 90.738281 L 189.480469 90.738281 L 217.628906 57.53125 C 220.265625 56.871094 222.90625 55.550781 224.886719 53.570312 C 228.84375 49.832031 230.824219 44.773438 230.601562 39.496094 C 301.855469 58.847656 351.554688 123.503906 351.554688 197.835938 C 351.554688 224.445312 344.957031 250.613281 332.863281 274.144531 Z M 332.863281 140.65625 " fill-opacity="1" fill-rule="nonzero"/></g><path fill="#00f3f7" d="M 128.125 331.324219 C 128.125 332.421875 129.003906 333.300781 130.101562 333.300781 L 180.460938 333.300781 C 181.5625 333.300781 182.441406 332.421875 182.441406 331.324219 C 182.441406 330.222656 181.5625 329.34375 180.460938 329.34375 L 130.324219 329.34375 C 129.222656 329.34375 128.125 330.222656 128.125 331.324219 Z M 128.125 331.324219 " fill-opacity="1" fill-rule="nonzero"/><path fill="#00f3f7" d="M 188.597656 333.300781 L 196.957031 333.300781 C 198.054688 333.300781 198.9375 332.421875 198.9375 331.324219 C 198.9375 330.222656 198.054688 329.34375 196.957031 329.34375 L 188.597656 329.34375 C 187.5 329.34375 186.621094 330.222656 186.621094 331.324219 C 186.621094 332.421875 187.5 333.300781 188.597656 333.300781 Z M 188.597656 333.300781 " fill-opacity="1" fill-rule="nonzero"/><path fill="#00f3f7" d="M 203.992188 333.300781 L 209.492188 333.300781 C 210.589844 333.300781 211.46875 332.421875 211.46875 331.324219 C 211.46875 330.222656 210.589844 329.34375 209.492188 329.34375 L 203.992188 329.34375 C 202.894531 329.34375 202.015625 330.222656 202.015625 331.324219 C 202.015625 332.421875 202.894531 333.300781 203.992188 333.300781 Z M 203.992188 333.300781 " fill-opacity="1" fill-rule="nonzero"/><path fill="#00f3f7" d="M 192.339844 341.4375 C 192.339844 342.539062 193.21875 343.417969 194.316406 343.417969 L 244.675781 343.417969 C 245.777344 343.417969 246.65625 342.539062 246.65625 341.4375 C 246.65625 340.339844 245.777344 339.460938 244.675781 339.460938 L 194.316406 339.460938 C 193.21875 339.460938 192.339844 340.339844 192.339844 341.4375 Z M 192.339844 341.4375 " fill-opacity="1" fill-rule="nonzero"/><path fill="#00f3f7" d="M 175.84375 341.4375 C 175.84375 342.539062 176.722656 343.417969 177.824219 343.417969 L 186.402344 343.417969 C 187.5 343.417969 188.378906 342.539062 188.378906 341.4375 C 188.378906 340.339844 187.5 339.460938 186.402344 339.460938 L 178.042969 339.460938 C 176.945312 339.460938 175.84375 340.339844 175.84375 341.4375 Z M 175.84375 341.4375 " fill-opacity="1" fill-rule="nonzero"/><path fill="#00f3f7" d="M 171.007812 339.460938 L 165.507812 339.460938 C 164.410156 339.460938 163.53125 340.339844 163.53125 341.4375 C 163.53125 342.539062 164.410156 343.417969 165.507812 343.417969 L 171.007812 343.417969 C 172.105469 343.417969 172.984375 342.539062 172.984375 341.4375 C 172.984375 340.339844 172.105469 339.460938 171.007812 339.460938 Z M 171.007812 339.460938 " fill-opacity="1" fill-rule="nonzero"/><path fill="#00f3f7" d="M 302.953125 207.949219 C 302.074219 207.730469 301.195312 207.730469 300.753906 208.390625 L 288.878906 220.265625 L 234.5625 274.363281 L 222.464844 286.460938 C 221.804688 287.121094 221.585938 288 222.027344 288.660156 C 222.246094 289.539062 223.125 289.980469 224.003906 289.980469 L 302.296875 289.980469 C 303.394531 289.980469 304.273438 289.097656 304.273438 288 L 304.273438 209.710938 C 304.054688 208.832031 303.613281 208.171875 302.953125 207.949219 Z M 288 226.644531 L 288 273.707031 L 240.9375 273.707031 Z M 299.875 286.019531 L 228.84375 286.019531 L 236.761719 278.105469 L 290.199219 278.105469 C 291.300781 278.105469 292.179688 277.222656 292.179688 276.125 L 292.179688 222.683594 L 299.875 214.988281 Z M 299.875 286.019531 " fill-opacity="1" fill-rule="nonzero"/><path fill="#00f3f7" d="M 170.566406 166.828125 L 177.824219 168.585938 C 178.703125 171.886719 180.023438 175.183594 181.78125 178.042969 L 177.824219 184.421875 C 177.382812 185.300781 177.382812 186.398438 178.042969 187.058594 L 187.941406 196.957031 C 188.597656 197.613281 189.699219 197.835938 190.578125 197.175781 L 196.957031 193.214844 C 200.035156 194.976562 203.113281 196.296875 206.414062 197.175781 L 208.171875 204.433594 C 208.390625 205.3125 209.273438 205.972656 210.152344 205.972656 L 224.003906 205.972656 C 224.886719 205.972656 225.765625 205.3125 225.984375 204.433594 L 227.746094 197.175781 C 231.042969 196.296875 234.121094 194.976562 237.199219 193.214844 L 243.578125 197.175781 C 244.457031 197.613281 245.558594 197.613281 246.21875 196.957031 L 256.113281 187.058594 C 256.773438 186.398438 256.992188 185.300781 256.332031 184.421875 L 252.375 178.042969 C 254.132812 175.183594 255.453125 171.886719 256.332031 168.585938 L 263.589844 166.828125 C 264.46875 166.605469 265.128906 165.726562 265.128906 164.847656 L 265.128906 150.992188 C 265.128906 150.113281 264.46875 149.234375 263.589844 149.015625 L 256.332031 147.253906 C 255.453125 143.957031 254.132812 140.878906 252.375 137.796875 L 256.332031 131.421875 C 256.773438 130.542969 256.773438 129.441406 256.113281 128.78125 L 246.21875 118.886719 C 245.558594 118.226562 244.457031 118.007812 243.578125 118.664062 L 237.199219 122.625 C 234.339844 120.863281 231.042969 119.546875 227.746094 118.664062 L 225.984375 111.410156 C 225.765625 110.527344 224.886719 109.871094 224.003906 109.871094 L 210.152344 109.871094 C 209.273438 109.871094 208.390625 110.527344 208.171875 111.410156 L 206.414062 118.664062 C 203.113281 119.546875 200.035156 120.863281 196.957031 122.625 L 190.578125 118.664062 C 189.699219 118.226562 188.597656 118.226562 187.941406 118.886719 L 178.042969 128.78125 C 177.382812 129.441406 177.164062 130.542969 177.824219 131.421875 L 181.78125 137.796875 C 180.023438 140.65625 178.703125 143.957031 177.824219 147.253906 L 170.566406 149.015625 C 169.6875 149.234375 169.027344 150.113281 169.027344 150.992188 L 169.027344 164.847656 C 169.027344 165.726562 169.6875 166.605469 170.566406 166.828125 Z M 173.207031 152.3125 L 180.023438 150.773438 C 180.683594 150.554688 181.34375 149.894531 181.5625 149.234375 C 182.441406 145.496094 183.980469 141.976562 185.960938 138.679688 C 186.402344 138.019531 186.402344 137.136719 185.960938 136.480469 L 182.222656 130.542969 L 189.699219 123.0625 L 195.636719 126.800781 C 196.296875 127.242188 197.175781 127.242188 197.835938 126.800781 C 201.132812 124.824219 204.652344 123.285156 208.390625 122.40625 C 209.050781 122.183594 209.710938 121.523438 209.929688 120.863281 L 211.46875 113.828125 L 222.027344 113.828125 L 223.566406 120.863281 C 223.785156 121.746094 224.445312 122.183594 225.105469 122.40625 C 228.84375 123.285156 232.363281 124.824219 235.660156 126.800781 C 236.320312 127.242188 237.199219 127.242188 237.859375 126.800781 L 243.796875 123.0625 L 251.273438 130.542969 L 247.535156 136.480469 C 247.097656 137.136719 247.097656 138.019531 247.535156 138.679688 C 249.515625 141.976562 251.054688 145.496094 251.933594 149.234375 C 252.15625 149.894531 252.816406 150.554688 253.472656 150.773438 L 260.511719 152.3125 L 260.511719 162.867188 L 253.472656 164.40625 C 252.59375 164.628906 252.15625 165.289062 251.933594 165.949219 C 251.054688 169.6875 249.515625 173.203125 247.535156 176.503906 C 247.097656 177.164062 247.097656 178.042969 247.535156 178.703125 L 251.273438 184.640625 L 243.796875 192.117188 L 237.859375 188.378906 C 237.199219 187.9375 236.320312 187.9375 235.660156 188.378906 C 232.363281 190.359375 228.84375 191.898438 225.105469 192.777344 C 224.226562 192.996094 223.785156 193.65625 223.566406 194.316406 L 222.027344 201.351562 L 211.46875 201.351562 L 209.929688 194.316406 C 209.710938 193.4375 209.050781 192.996094 208.390625 192.777344 C 204.652344 191.898438 201.132812 190.359375 197.835938 188.378906 C 197.175781 187.9375 196.296875 187.9375 195.636719 188.378906 L 189.699219 192.117188 L 182.222656 184.640625 L 185.960938 178.703125 C 186.402344 178.042969 186.402344 177.164062 185.960938 176.503906 C 183.980469 173.203125 182.441406 169.6875 181.5625 165.949219 C 181.34375 165.289062 180.683594 164.628906 180.023438 164.40625 L 173.207031 163.089844 Z M 173.207031 152.3125 " fill-opacity="1" fill-rule="nonzero"/><path fill="#00f3f7" d="M 216.96875 178.921875 C 228.625 178.921875 238.300781 169.464844 238.300781 157.589844 C 238.300781 145.933594 228.84375 136.257812 216.96875 136.257812 C 205.3125 136.257812 195.636719 145.714844 195.636719 157.589844 C 195.855469 169.464844 205.3125 178.921875 216.96875 178.921875 Z M 216.96875 140.65625 C 226.425781 140.65625 234.121094 148.355469 234.121094 157.808594 C 234.121094 167.265625 226.425781 174.964844 216.96875 174.964844 C 207.511719 174.964844 199.816406 167.265625 199.816406 157.808594 C 200.035156 148.355469 207.511719 140.65625 216.96875 140.65625 Z M 216.96875 140.65625 " fill-opacity="1" fill-rule="nonzero"/><path fill="#00f3f7" d="M 97.554688 207.730469 L 102.171875 208.832031 C 102.832031 211.03125 103.710938 213.007812 104.59375 214.769531 L 101.953125 218.945312 C 101.511719 219.828125 101.511719 220.925781 102.171875 221.585938 L 108.992188 228.402344 C 109.648438 229.0625 110.75 229.28125 111.628906 228.621094 L 115.808594 225.984375 C 117.789062 227.082031 119.765625 227.964844 121.964844 228.402344 L 123.066406 233.242188 C 123.285156 234.121094 124.164062 234.78125 125.042969 234.78125 L 134.71875 234.78125 C 135.601562 234.78125 136.480469 234.121094 136.699219 233.242188 L 138.019531 228.621094 C 140.21875 227.964844 142.199219 227.082031 143.957031 226.203125 L 148.136719 228.84375 C 149.015625 229.28125 150.113281 229.28125 150.773438 228.621094 L 157.589844 221.804688 C 158.25 221.144531 158.472656 220.046875 157.8125 219.167969 L 155.171875 214.988281 C 156.273438 213.007812 157.152344 211.03125 157.589844 209.050781 L 162.429688 207.949219 C 163.308594 207.730469 163.96875 206.851562 163.96875 205.972656 L 163.96875 196.296875 C 163.96875 195.414062 163.308594 194.535156 162.429688 194.316406 L 157.8125 192.777344 C 157.152344 190.578125 156.273438 188.597656 155.390625 186.839844 L 158.03125 182.660156 C 158.472656 181.78125 158.472656 180.679688 157.8125 180.023438 L 150.996094 173.203125 C 150.335938 172.542969 149.234375 172.324219 148.355469 172.984375 L 144.175781 175.625 C 142.199219 174.523438 140.21875 173.644531 138.238281 173.203125 L 137.140625 168.367188 C 136.917969 167.488281 136.039062 166.828125 135.160156 166.828125 L 125.484375 166.828125 C 124.605469 166.828125 123.726562 167.488281 123.503906 168.367188 L 122.40625 173.203125 C 120.207031 173.863281 118.226562 174.742188 116.46875 175.625 L 112.289062 172.984375 C 111.410156 172.542969 110.308594 172.542969 109.648438 173.203125 L 102.832031 180.023438 C 102.171875 180.679688 101.953125 181.78125 102.613281 182.660156 L 105.253906 186.839844 C 104.152344 188.820312 103.273438 190.796875 102.832031 192.777344 L 98.214844 193.875 C 97.335938 194.097656 96.675781 194.976562 96.675781 195.855469 L 96.675781 205.53125 C 95.796875 206.632812 96.457031 207.511719 97.554688 207.730469 Z M 99.972656 197.613281 L 104.371094 196.515625 C 105.03125 196.296875 105.691406 195.636719 105.910156 194.976562 C 106.570312 192.335938 107.453125 189.917969 108.992188 187.71875 C 109.429688 187.058594 109.429688 186.179688 108.992188 185.519531 L 106.570312 181.78125 L 111.191406 177.164062 L 114.929688 179.582031 C 115.589844 180.023438 116.46875 180.023438 117.128906 179.582031 C 119.328125 178.261719 121.746094 177.164062 124.382812 176.503906 C 125.042969 176.285156 125.703125 175.625 125.925781 174.964844 L 127.023438 170.566406 L 133.402344 170.566406 L 134.5 174.964844 C 134.71875 175.84375 135.378906 176.285156 136.039062 176.503906 C 138.679688 177.164062 141.097656 178.042969 143.296875 179.582031 C 143.957031 180.023438 144.835938 180.023438 145.496094 179.582031 L 149.234375 177.164062 L 153.851562 181.78125 L 151.433594 185.519531 C 150.996094 186.179688 150.996094 187.058594 151.433594 187.71875 C 152.753906 189.917969 153.851562 192.335938 154.511719 194.976562 C 154.734375 195.636719 155.390625 196.296875 156.050781 196.515625 L 160.449219 197.613281 L 160.449219 203.992188 L 156.050781 205.09375 C 155.171875 205.3125 154.734375 205.972656 154.511719 206.632812 C 153.851562 209.269531 152.972656 211.691406 151.433594 213.886719 C 150.996094 214.546875 150.996094 215.429688 151.433594 216.085938 L 153.851562 219.828125 L 148.796875 224.222656 L 145.054688 221.804688 C 144.398438 221.367188 143.515625 221.367188 142.859375 221.804688 C 140.660156 223.125 138.238281 224.222656 135.601562 224.882812 C 134.71875 225.105469 134.28125 225.765625 134.0625 226.421875 L 132.960938 230.820312 L 126.582031 230.820312 L 125.484375 226.421875 C 125.265625 225.542969 124.605469 225.105469 123.945312 224.882812 C 121.304688 224.222656 118.886719 223.34375 116.6875 221.804688 C 116.027344 221.367188 115.148438 221.367188 114.488281 221.804688 L 110.96875 224.222656 L 106.351562 219.605469 L 108.769531 215.867188 C 109.210938 215.207031 109.210938 214.328125 108.769531 213.667969 C 107.453125 211.46875 106.351562 209.050781 105.691406 206.410156 C 105.472656 205.75 104.8125 205.09375 104.152344 204.871094 L 99.753906 203.773438 L 99.753906 197.613281 Z M 99.972656 197.613281 " fill-opacity="1" fill-rule="nonzero"/><path fill="#00f3f7" d="M 129.882812 216.085938 C 138.460938 216.085938 145.277344 209.269531 145.277344 200.695312 C 145.277344 192.117188 138.238281 185.300781 129.882812 185.300781 C 121.304688 185.300781 114.488281 192.335938 114.488281 200.695312 C 114.488281 209.269531 121.527344 216.085938 129.882812 216.085938 Z M 129.882812 189.476562 C 136.039062 189.476562 141.097656 194.535156 141.097656 200.695312 C 141.097656 206.851562 136.039062 211.910156 129.882812 211.910156 C 123.726562 211.910156 118.667969 206.851562 118.667969 200.695312 C 118.667969 194.535156 123.726562 189.476562 129.882812 189.476562 Z M 129.882812 189.476562 " fill-opacity="1" fill-rule="nonzero"/></svg>