<svg xmlns="http://www.w3.org/2000/svg" xmlns:xlink="http://www.w3.org/1999/xlink" width="500" zoomAndPan="magnify" viewBox="0 0 375 374.999991" height="500" preserveAspectRatio="xMidYMid meet" version="1.0"><defs><clipPath id="0553d7af23"><path d="M 181 5.632812 L 194 5.632812 L 194 24 L 181 24 Z M 181 5.632812 " clip-rule="nonzero"/></clipPath><clipPath id="f878c9113c"><path d="M 146 287 L 229 287 L 229 369.382812 L 146 369.382812 Z M 146 287 " clip-rule="nonzero"/></clipPath><clipPath id="118df2b33c"><path d="M 287 210 L 369.382812 210 L 369.382812 294 L 287 294 Z M 287 210 " clip-rule="nonzero"/></clipPath><clipPath id="a8cf7ee5f1"><path d="M 5.632812 210 L 88 210 L 88 294 L 5.632812 294 Z M 5.632812 210 " clip-rule="nonzero"/></clipPath></defs><g clip-path="url(#0553d7af23)"><path fill="#00f3f7" d="M 181.628906 5.632812 L 193.363281 5.632812 L 193.363281 23.234375 L 181.628906 23.234375 Z M 181.628906 5.632812 " fill-opacity="1" fill-rule="nonzero"/></g><path fill="#00f3f7" d="M 137.148438 176.097656 C 144.566406 189.390625 153.328125 202.105469 162.125 214.460938 C 145.234375 219.386719 134.699219 229.042969 134.699219 240.296875 C 134.699219 257.019531 157.394531 269.628906 187.496094 269.628906 C 217.597656 269.628906 240.296875 257.019531 240.296875 240.296875 C 240.296875 228.925781 229.601562 219.207031 212.410156 214.320312 C 220.988281 201.976562 229.601562 189.261719 237.046875 175.921875 C 251.273438 150.390625 257.894531 128.585938 257.894531 107.300781 C 257.894531 67.414062 226.328125 34.964844 187.527344 34.964844 C 148.753906 34.964844 117.164062 67.414062 117.097656 107.300781 C 117.097656 129.644531 123.46875 151.503906 137.148438 176.097656 Z M 228.5625 240.296875 C 228.5625 248.601562 210.996094 257.894531 187.496094 257.894531 C 163.996094 257.894531 146.429688 248.601562 146.429688 240.296875 C 146.429688 235.039062 154.527344 228.085938 169.445312 224.71875 C 173.96875 231.039062 178.445312 237.316406 182.664062 243.574219 C 183.753906 245.195312 185.578125 246.160156 187.527344 246.160156 C 187.542969 246.160156 187.5625 246.160156 187.578125 246.160156 C 189.550781 246.144531 191.375 245.136719 192.449219 243.480469 C 196.402344 237.378906 200.730469 231.113281 205.230469 224.65625 C 218.710938 227.664062 228.5625 234.101562 228.5625 240.296875 Z M 187.527344 46.699219 C 219.863281 46.699219 246.164062 73.882812 246.164062 107.300781 C 246.164062 126.507812 240.007812 146.5 226.800781 170.207031 C 218.378906 185.289062 208.242188 199.820312 198.4375 213.871094 C 194.617188 219.347656 190.941406 224.613281 187.4375 229.800781 C 184.054688 224.953125 180.574219 220.089844 177.058594 215.199219 C 166.710938 200.753906 156.003906 185.820312 147.398438 170.382812 C 134.734375 147.617188 128.832031 127.570312 128.832031 107.3125 C 128.882812 73.890625 155.21875 46.699219 187.527344 46.699219 Z M 187.527344 46.699219 " fill-opacity="1" fill-rule="nonzero"/><path fill="#00f3f7" d="M 187.496094 152.296875 C 213.375 152.296875 234.429688 131.242188 234.429688 105.363281 C 234.429688 79.488281 213.375 58.433594 187.496094 58.433594 C 161.621094 58.433594 140.5625 79.488281 140.5625 105.363281 C 140.5625 131.242188 161.621094 152.296875 187.496094 152.296875 Z M 187.496094 70.164062 C 206.910156 70.164062 222.695312 85.953125 222.695312 105.363281 C 222.695312 124.777344 206.910156 140.5625 187.496094 140.5625 C 168.085938 140.5625 152.296875 124.777344 152.296875 105.363281 C 152.296875 85.953125 168.085938 70.164062 187.496094 70.164062 Z M 187.496094 70.164062 " fill-opacity="1" fill-rule="nonzero"/><path fill="#00f3f7" d="M 172.429688 112.210938 L 170.835938 122.019531 C 170.472656 124.238281 171.410156 126.464844 173.246094 127.761719 C 175.078125 129.054688 177.492188 129.1875 179.464844 128.101562 L 187.496094 123.65625 L 195.535156 128.097656 C 196.417969 128.585938 197.398438 128.832031 198.375 128.832031 C 199.558594 128.832031 200.742188 128.46875 201.753906 127.757812 C 203.589844 126.464844 204.527344 124.230469 204.164062 122.015625 L 202.566406 112.207031 L 209.296875 105.304688 C 210.832031 103.734375 211.363281 101.433594 210.65625 99.34375 C 209.960938 97.261719 208.152344 95.742188 205.980469 95.410156 L 196.917969 94.023438 L 192.804688 85.273438 C 191.835938 83.210938 189.773438 81.898438 187.496094 81.898438 C 185.21875 81.898438 183.15625 83.210938 182.1875 85.273438 L 178.074219 94.023438 L 169.011719 95.410156 C 166.839844 95.742188 165.035156 97.257812 164.335938 99.34375 C 163.636719 101.429688 164.164062 103.734375 165.695312 105.304688 Z M 182.945312 105.148438 C 184.878906 104.855469 186.535156 103.609375 187.367188 101.84375 L 187.496094 101.570312 L 187.625 101.84375 C 188.457031 103.617188 190.113281 104.855469 192.050781 105.148438 L 192.921875 105.28125 L 192.097656 106.132812 C 190.792969 107.464844 190.207031 109.335938 190.507812 111.171875 L 190.636719 111.980469 L 190.335938 111.816406 C 189.457031 111.332031 188.476562 111.085938 187.496094 111.085938 C 186.515625 111.085938 185.542969 111.332031 184.65625 111.816406 L 184.351562 111.980469 L 184.480469 111.171875 C 184.78125 109.335938 184.195312 107.464844 182.890625 106.132812 L 182.0625 105.28125 Z M 182.945312 105.148438 " fill-opacity="1" fill-rule="nonzero"/><g clip-path="url(#f878c9113c)"><path fill="#00f3f7" d="M 152.296875 287.226562 C 149.058594 287.226562 146.429688 289.855469 146.429688 293.09375 L 146.429688 363.492188 C 146.429688 366.730469 149.058594 369.359375 152.296875 369.359375 L 222.695312 369.359375 C 225.933594 369.359375 228.5625 366.730469 228.5625 363.492188 L 228.5625 293.09375 C 228.5625 289.855469 225.933594 287.226562 222.695312 287.226562 Z M 181.628906 298.960938 L 193.363281 298.960938 L 193.363281 316.5625 L 181.628906 316.5625 Z M 216.828125 357.625 L 158.164062 357.625 L 158.164062 298.960938 L 169.898438 298.960938 L 169.898438 322.425781 C 169.898438 325.664062 172.523438 328.292969 175.761719 328.292969 L 199.230469 328.292969 C 202.46875 328.292969 205.097656 325.664062 205.097656 322.425781 L 205.097656 298.960938 L 216.828125 298.960938 Z M 216.828125 357.625 " fill-opacity="1" fill-rule="nonzero"/></g><g clip-path="url(#118df2b33c)"><path fill="#00f3f7" d="M 363.492188 210.960938 L 293.09375 210.960938 C 289.855469 210.960938 287.226562 213.589844 287.226562 216.828125 L 287.226562 287.226562 C 287.226562 290.464844 289.855469 293.09375 293.09375 293.09375 L 363.492188 293.09375 C 366.730469 293.09375 369.359375 290.464844 369.359375 287.226562 L 369.359375 216.828125 C 369.359375 213.589844 366.730469 210.960938 363.492188 210.960938 Z M 322.425781 222.695312 L 334.160156 222.695312 L 334.160156 240.296875 L 322.425781 240.296875 Z M 357.625 281.363281 L 298.960938 281.363281 L 298.960938 222.695312 L 310.695312 222.695312 L 310.695312 246.160156 C 310.695312 249.398438 313.324219 252.027344 316.5625 252.027344 L 340.027344 252.027344 C 343.265625 252.027344 345.894531 249.398438 345.894531 246.160156 L 345.894531 222.695312 L 357.625 222.695312 Z M 357.625 281.363281 " fill-opacity="1" fill-rule="nonzero"/></g><g clip-path="url(#a8cf7ee5f1)"><path fill="#00f3f7" d="M 11.5 293.09375 L 81.898438 293.09375 C 85.136719 293.09375 87.765625 290.464844 87.765625 287.226562 L 87.765625 216.828125 C 87.765625 213.589844 85.136719 210.960938 81.898438 210.960938 L 11.5 210.960938 C 8.261719 210.960938 5.632812 213.589844 5.632812 216.828125 L 5.632812 287.226562 C 5.632812 290.464844 8.261719 293.09375 11.5 293.09375 Z M 40.832031 222.695312 L 52.566406 222.695312 L 52.566406 240.296875 L 40.832031 240.296875 Z M 17.367188 222.695312 L 29.097656 222.695312 L 29.097656 246.160156 C 29.097656 249.398438 31.726562 252.027344 34.964844 252.027344 L 58.433594 252.027344 C 61.671875 252.027344 64.300781 249.398438 64.300781 246.160156 L 64.300781 222.695312 L 76.03125 222.695312 L 76.03125 281.363281 L 17.367188 281.363281 Z M 17.367188 222.695312 " fill-opacity="1" fill-rule="nonzero"/></g><path fill="#00f3f7" d="M 269.628906 99.5 L 287.226562 99.5 L 287.226562 111.230469 L 269.628906 111.230469 Z M 269.628906 99.5 " fill-opacity="1" fill-rule="nonzero"/><path fill="#00f3f7" d="M 87.765625 99.5 L 105.363281 99.5 L 105.363281 111.230469 L 87.765625 111.230469 Z M 87.765625 99.5 " fill-opacity="1" fill-rule="nonzero"/><path fill="#00f3f7" d="M 112.828125 38.992188 L 121.125 30.695312 L 133.570312 43.140625 L 125.273438 51.4375 Z M 112.828125 38.992188 " fill-opacity="1" fill-rule="nonzero"/><path fill="#00f3f7" d="M 241.421875 43.140625 L 253.867188 30.695312 L 262.164062 38.992188 L 249.71875 51.4375 Z M 241.421875 43.140625 " fill-opacity="1" fill-rule="nonzero"/><path fill="#00f3f7" d="M 124.171875 172.472656 L 121.757812 160.992188 C 94.8125 166.671875 71.367188 176.210938 53.949219 188.574219 L 60.742188 198.144531 C 76.859375 186.703125 98.789062 177.828125 124.171875 172.472656 Z M 124.171875 172.472656 " fill-opacity="1" fill-rule="nonzero"/><path fill="#00f3f7" d="M 325.824219 309.609375 L 319.03125 300.039062 C 300.886719 312.921875 274.667969 322.75 245.195312 327.703125 L 247.136719 339.277344 C 278.773438 333.960938 305.984375 323.699219 325.824219 309.609375 Z M 325.824219 309.609375 " fill-opacity="1" fill-rule="nonzero"/><path fill="#00f3f7" d="M 49.167969 309.609375 C 69.007812 323.699219 96.226562 333.957031 127.863281 339.277344 L 129.804688 327.703125 C 100.332031 322.75 74.109375 312.921875 55.96875 300.039062 Z M 49.167969 309.609375 " fill-opacity="1" fill-rule="nonzero"/><path fill="#00f3f7" d="M 256.65625 172.671875 C 281.625 178.074219 303.195312 186.878906 319.03125 198.132812 L 325.824219 188.5625 C 308.707031 176.402344 285.644531 166.941406 259.132812 161.203125 Z M 256.65625 172.671875 " fill-opacity="1" fill-rule="nonzero"/></svg>