<svg xmlns="http://www.w3.org/2000/svg" xmlns:xlink="http://www.w3.org/1999/xlink" width="500" zoomAndPan="magnify" viewBox="0 0 375 374.999991" height="500" preserveAspectRatio="xMidYMid meet" version="1.0"><defs><clipPath id="828b0a4978"><path d="M 170 9.5 L 205 9.5 L 205 77 L 170 77 Z M 170 9.5 " clip-rule="nonzero"/></clipPath><clipPath id="79e5a360c3"><path d="M 170 298 L 205 298 L 205 365.75 L 170 365.75 Z M 170 298 " clip-rule="nonzero"/></clipPath><clipPath id="00e5efb42f"><path d="M 298 170 L 365.75 170 L 365.75 205 L 298 205 Z M 298 170 " clip-rule="nonzero"/></clipPath><clipPath id="025969b43d"><path d="M 9.5 170 L 77 170 L 77 205 L 9.5 205 Z M 9.5 170 " clip-rule="nonzero"/></clipPath></defs><path fill="#00f3f7" d="M 135.960938 298.636719 C 133.175781 297.246094 129.835938 298.636719 128.441406 301.425781 C 127.050781 304.210938 128.441406 307.550781 131.226562 308.945312 C 132.898438 309.78125 134.847656 310.617188 136.519531 311.171875 C 137.078125 311.453125 137.914062 311.730469 138.75 311.730469 C 140.976562 311.730469 142.925781 310.335938 144.039062 308.386719 C 145.15625 305.601562 143.761719 302.257812 140.976562 301.144531 C 139.027344 300.03125 137.355469 299.472656 135.960938 298.636719 Z M 135.960938 298.636719 " fill-opacity="1" fill-rule="nonzero"/><path fill="#00f3f7" d="M 72.453125 229.558594 C 71.339844 226.773438 68.273438 225.101562 65.210938 226.214844 C 62.425781 227.328125 60.753906 230.394531 61.867188 233.457031 C 62.425781 235.40625 63.261719 237.078125 64.097656 238.75 C 64.929688 240.976562 67.160156 242.09375 69.109375 242.09375 C 69.945312 242.09375 70.503906 242.09375 71.339844 241.535156 C 74.125 240.421875 75.515625 237.078125 74.402344 234.292969 C 73.566406 232.898438 73.007812 231.226562 72.453125 229.558594 Z M 72.453125 229.558594 " fill-opacity="1" fill-rule="nonzero"/><path fill="#00f3f7" d="M 73.289062 257.132812 C 74.402344 258.804688 75.238281 260.476562 76.351562 262.148438 C 77.464844 263.820312 79.136719 264.65625 81.085938 264.65625 C 82.203125 264.65625 83.316406 264.375 84.152344 263.820312 C 86.660156 262.148438 87.496094 258.527344 85.542969 256.019531 C 84.429688 254.628906 83.59375 252.957031 82.757812 251.5625 C 81.085938 249.054688 77.746094 248.21875 75.238281 249.613281 C 72.453125 251.003906 71.617188 254.347656 73.289062 257.132812 Z M 73.289062 257.132812 " fill-opacity="1" fill-rule="nonzero"/><path fill="#00f3f7" d="M 115.90625 86.660156 C 117.019531 86.660156 118.136719 86.378906 118.972656 85.824219 C 120.363281 84.707031 122.035156 83.875 123.429688 83.039062 C 125.933594 81.367188 126.769531 78.023438 125.378906 75.238281 C 123.984375 72.453125 120.363281 71.617188 117.855469 73.289062 C 116.183594 74.402344 114.515625 75.238281 112.84375 76.351562 C 110.335938 78.023438 109.5 81.644531 111.449219 84.152344 C 112.5625 85.824219 114.234375 86.660156 115.90625 86.660156 Z M 115.90625 86.660156 " fill-opacity="1" fill-rule="nonzero"/><path fill="#00f3f7" d="M 57.410156 156.019531 C 56.851562 157.96875 56.574219 159.917969 56.296875 161.589844 C 55.738281 164.652344 57.6875 167.441406 60.753906 167.996094 C 61.03125 167.996094 61.589844 167.996094 61.867188 167.996094 C 64.375 167.996094 66.882812 166.046875 67.4375 163.539062 C 67.71875 161.867188 68.273438 159.917969 68.554688 158.246094 C 69.386719 155.183594 67.4375 152.117188 64.375 151.5625 C 61.308594 151.285156 58.246094 152.953125 57.410156 156.019531 Z M 57.410156 156.019531 " fill-opacity="1" fill-rule="nonzero"/><path fill="#00f3f7" d="M 301.425781 117.578125 C 300.308594 115.90625 299.472656 114.234375 298.359375 112.5625 C 296.6875 110.058594 293.066406 109.222656 290.558594 111.171875 C 288.054688 112.84375 287.21875 116.464844 289.167969 118.972656 C 290.28125 120.363281 291.117188 122.035156 291.953125 123.429688 C 293.066406 125.097656 294.738281 126.214844 296.6875 126.214844 C 297.804688 126.214844 298.636719 125.933594 299.472656 125.378906 C 302.257812 123.707031 303.09375 120.363281 301.425781 117.578125 Z M 301.425781 117.578125 " fill-opacity="1" fill-rule="nonzero"/><path fill="#00f3f7" d="M 302.539062 145.15625 C 303.375 147.382812 305.601562 148.777344 307.832031 148.777344 C 308.386719 148.777344 309.222656 148.777344 309.78125 148.496094 C 312.566406 147.382812 314.238281 144.320312 313.125 141.253906 C 312.566406 139.304688 311.730469 137.632812 310.894531 135.964844 C 309.78125 133.175781 306.4375 131.785156 303.652344 132.898438 C 300.867188 134.011719 299.472656 137.355469 300.589844 140.140625 C 301.144531 141.8125 301.980469 143.484375 302.539062 145.15625 Z M 302.539062 145.15625 " fill-opacity="1" fill-rule="nonzero"/><path fill="#00f3f7" d="M 74.125 140.976562 C 74.679688 139.304688 75.515625 137.632812 76.351562 135.964844 C 77.746094 133.175781 76.351562 129.835938 73.566406 128.441406 C 70.78125 127.050781 67.4375 128.441406 66.046875 131.226562 C 65.210938 132.898438 64.375 134.847656 63.816406 136.519531 C 62.703125 139.304688 64.097656 142.648438 66.882812 143.761719 C 67.4375 144.039062 68.273438 144.320312 69.109375 144.320312 C 71.058594 144.320312 73.289062 142.925781 74.125 140.976562 Z M 74.125 140.976562 " fill-opacity="1" fill-rule="nonzero"/><path fill="#00f3f7" d="M 254.070312 302.539062 C 255.183594 302.539062 256.019531 302.257812 256.855469 301.703125 C 258.527344 300.589844 260.199219 299.753906 261.871094 298.636719 C 264.375 296.96875 265.210938 293.347656 263.261719 290.839844 C 261.589844 288.332031 257.96875 287.496094 255.460938 289.445312 C 254.070312 290.558594 252.398438 291.394531 251.003906 292.230469 C 248.5 293.902344 247.664062 297.246094 249.054688 300.03125 C 250.449219 301.703125 252.121094 302.539062 254.070312 302.539062 Z M 254.070312 302.539062 " fill-opacity="1" fill-rule="nonzero"/><path fill="#00f3f7" d="M 308.109375 231.507812 C 305.324219 230.394531 301.980469 231.785156 300.867188 234.570312 C 300.308594 236.242188 299.472656 237.914062 298.636719 239.585938 C 297.246094 242.371094 298.636719 245.714844 301.425781 247.105469 C 302.257812 247.382812 303.09375 247.664062 303.652344 247.664062 C 305.882812 247.664062 307.832031 246.550781 308.667969 244.320312 C 309.503906 242.648438 310.335938 240.699219 310.894531 239.027344 C 312.289062 235.683594 310.894531 232.621094 308.109375 231.507812 Z M 308.109375 231.507812 " fill-opacity="1" fill-rule="nonzero"/><path fill="#00f3f7" d="M 314.238281 206.996094 C 311.171875 206.4375 308.386719 208.386719 307.832031 211.449219 C 307.550781 213.121094 306.996094 215.074219 306.714844 216.742188 C 305.878906 219.808594 307.832031 222.871094 310.894531 223.429688 C 311.453125 223.429688 311.730469 223.707031 312.289062 223.707031 C 314.792969 223.707031 317.023438 222.035156 317.582031 219.527344 C 318.136719 217.578125 318.414062 215.628906 318.972656 213.957031 C 319.25 210.617188 317.300781 207.550781 314.238281 206.996094 Z M 314.238281 206.996094 " fill-opacity="1" fill-rule="nonzero"/><path fill="#00f3f7" d="M 234.570312 300.867188 C 232.898438 301.425781 231.226562 302.257812 229.558594 302.816406 C 226.769531 303.929688 225.101562 306.996094 226.214844 310.058594 C 227.050781 312.289062 229.277344 313.679688 231.507812 313.679688 C 232.0625 313.679688 232.898438 313.679688 233.457031 313.402344 C 235.40625 312.84375 237.078125 312.007812 238.75 311.171875 C 241.535156 310.058594 242.925781 306.714844 241.8125 303.929688 C 240.699219 300.867188 237.355469 299.472656 234.570312 300.867188 Z M 234.570312 300.867188 " fill-opacity="1" fill-rule="nonzero"/><path fill="#00f3f7" d="M 162.148438 67.4375 C 162.425781 67.4375 162.984375 67.4375 163.261719 67.4375 C 164.933594 67.160156 166.882812 66.882812 168.554688 66.601562 C 169.390625 66.601562 170.226562 66.046875 170.78125 65.765625 L 170.78125 56.574219 C 169.667969 55.738281 168.273438 55.460938 166.882812 55.738281 C 164.933594 56.019531 162.984375 56.296875 161.03125 56.855469 C 157.96875 57.410156 156.019531 60.476562 156.574219 63.539062 C 157.132812 65.488281 159.363281 67.4375 162.148438 67.4375 Z M 162.148438 67.4375 " fill-opacity="1" fill-rule="nonzero"/><path fill="#00f3f7" d="M 158.527344 306.714844 C 155.460938 305.882812 152.398438 307.832031 151.839844 310.894531 C 151.003906 313.960938 152.953125 317.023438 156.019531 317.582031 C 157.96875 318.136719 159.917969 318.414062 161.589844 318.695312 C 161.867188 318.695312 162.425781 318.695312 162.703125 318.695312 C 165.210938 318.695312 167.71875 316.746094 168.273438 314.238281 C 168.832031 311.171875 166.882812 308.386719 163.816406 307.832031 C 161.867188 307.273438 160.195312 306.996094 158.527344 306.714844 Z M 158.527344 306.714844 " fill-opacity="1" fill-rule="nonzero"/><path fill="#00f3f7" d="M 138.191406 74.679688 C 139.027344 74.679688 139.585938 74.402344 140.417969 74.125 C 142.089844 73.566406 143.761719 72.730469 145.433594 72.175781 C 148.21875 71.058594 149.890625 67.996094 148.777344 64.929688 C 147.660156 62.144531 144.597656 60.476562 141.535156 61.589844 C 139.585938 62.144531 137.914062 62.980469 136.242188 63.816406 C 133.457031 64.929688 132.0625 68.273438 133.175781 71.058594 C 133.734375 73.566406 135.960938 74.679688 138.191406 74.679688 Z M 138.191406 74.679688 " fill-opacity="1" fill-rule="nonzero"/><path fill="#00f3f7" d="M 210.894531 67.160156 C 212.566406 67.4375 214.515625 67.996094 216.1875 68.273438 C 216.742188 68.273438 217.023438 68.554688 217.578125 68.554688 C 220.085938 68.554688 222.316406 66.882812 222.871094 64.375 C 223.707031 61.308594 221.757812 58.246094 218.695312 57.6875 C 216.742188 57.132812 214.792969 56.855469 213.121094 56.574219 C 210.058594 56.019531 207.273438 57.96875 206.714844 61.03125 C 205.878906 63.539062 208.109375 66.601562 210.894531 67.160156 Z M 210.894531 67.160156 " fill-opacity="1" fill-rule="nonzero"/><path fill="#00f3f7" d="M 239.027344 76.074219 C 239.863281 76.351562 240.699219 76.632812 241.257812 76.632812 C 243.484375 76.632812 245.433594 75.515625 246.269531 73.289062 C 247.664062 70.503906 246.269531 67.160156 243.484375 65.765625 C 241.8125 64.929688 239.863281 64.097656 238.191406 63.539062 C 235.40625 62.425781 232.0625 63.816406 230.949219 66.601562 C 229.835938 69.386719 231.226562 72.730469 234.015625 73.84375 C 235.683594 74.679688 237.355469 75.515625 239.027344 76.074219 Z M 239.027344 76.074219 " fill-opacity="1" fill-rule="nonzero"/><path fill="#00f3f7" d="M 211.449219 307.832031 C 209.78125 308.109375 207.828125 308.386719 206.160156 308.667969 C 205.324219 308.667969 204.765625 308.945312 204.207031 309.503906 L 204.207031 318.972656 C 205.042969 319.53125 206.160156 319.808594 206.992188 319.808594 C 207.273438 319.808594 207.550781 319.808594 207.828125 319.808594 C 209.78125 319.53125 211.730469 319.25 213.679688 318.695312 C 216.742188 318.136719 218.695312 315.074219 218.136719 312.007812 C 217.578125 308.945312 214.515625 306.996094 211.449219 307.832031 Z M 211.449219 307.832031 " fill-opacity="1" fill-rule="nonzero"/><g clip-path="url(#828b0a4978)"><path fill="#00f3f7" d="M 187.496094 76.074219 C 190.558594 76.074219 193.066406 73.566406 193.066406 70.503906 L 193.066406 34.847656 L 193.902344 36.242188 C 195.015625 37.910156 196.6875 39.027344 198.636719 39.027344 C 199.75 39.027344 200.585938 38.746094 201.421875 38.191406 C 203.929688 36.519531 204.765625 33.175781 203.371094 30.667969 L 192.230469 12.285156 C 191.117188 10.613281 189.445312 9.5 187.496094 9.5 C 185.546875 9.5 183.59375 10.613281 182.761719 12.285156 L 171.617188 30.667969 C 169.945312 32.898438 170.78125 36.519531 173.566406 37.910156 C 176.074219 39.582031 179.695312 38.746094 181.089844 35.960938 L 181.925781 34.847656 L 181.925781 70.503906 C 181.925781 73.566406 184.429688 76.074219 187.496094 76.074219 Z M 187.496094 76.074219 " fill-opacity="1" fill-rule="nonzero"/></g><g clip-path="url(#79e5a360c3)"><path fill="#00f3f7" d="M 187.496094 298.917969 C 184.429688 298.917969 181.925781 301.425781 181.925781 304.488281 L 181.925781 340.144531 L 181.089844 338.75 C 179.417969 336.242188 176.074219 335.128906 173.566406 336.800781 C 171.0625 338.472656 170.226562 341.8125 171.617188 344.320312 L 182.761719 362.707031 C 183.875 364.378906 185.546875 365.492188 187.496094 365.492188 C 189.445312 365.492188 191.394531 364.378906 192.230469 362.707031 L 203.371094 344.320312 C 205.042969 341.8125 204.207031 338.191406 201.421875 336.800781 C 198.917969 335.128906 195.292969 335.964844 193.902344 338.75 L 193.066406 340.144531 L 193.066406 304.488281 C 193.066406 301.425781 190.558594 298.917969 187.496094 298.917969 Z M 187.496094 298.917969 " fill-opacity="1" fill-rule="nonzero"/></g><path fill="#00f3f7" d="M 308.667969 168.273438 C 308.945312 169.109375 309.222656 169.945312 309.78125 170.78125 L 318.695312 170.78125 C 319.53125 169.667969 320.085938 168.273438 319.808594 166.605469 C 319.53125 164.652344 319.25 162.703125 318.695312 160.753906 C 318.136719 157.691406 315.074219 155.742188 312.007812 156.296875 C 308.945312 156.855469 306.996094 159.917969 307.550781 162.984375 C 308.109375 164.933594 308.386719 166.605469 308.667969 168.273438 Z M 308.667969 168.273438 " fill-opacity="1" fill-rule="nonzero"/><path fill="#00f3f7" d="M 62.980469 218.136719 C 66.046875 217.578125 67.996094 214.515625 67.4375 211.449219 C 67.160156 209.78125 66.882812 207.828125 66.601562 206.160156 C 66.601562 205.324219 66.046875 204.488281 65.765625 203.929688 L 56.574219 203.929688 C 55.738281 205.042969 55.460938 206.4375 55.738281 207.828125 C 56.019531 209.78125 56.296875 211.730469 56.851562 213.679688 C 57.410156 216.464844 59.640625 218.136719 62.425781 218.136719 C 62.144531 218.414062 62.703125 218.414062 62.980469 218.136719 Z M 62.980469 218.136719 " fill-opacity="1" fill-rule="nonzero"/><g clip-path="url(#00e5efb42f)"><path fill="#00f3f7" d="M 362.984375 182.761719 L 344.601562 171.617188 C 342.09375 169.945312 338.472656 170.78125 337.078125 173.566406 C 335.40625 176.074219 336.242188 179.695312 339.027344 181.089844 L 340.421875 181.925781 L 304.488281 181.925781 C 301.425781 181.925781 298.917969 184.429688 298.917969 187.496094 C 298.917969 190.558594 301.425781 193.066406 304.488281 193.066406 L 340.144531 193.066406 L 338.75 193.902344 C 336.242188 195.574219 335.40625 198.917969 336.800781 201.421875 C 337.914062 203.09375 339.585938 204.207031 341.535156 204.207031 C 342.648438 204.207031 343.484375 203.929688 344.320312 203.371094 L 362.707031 192.230469 C 364.378906 191.117188 365.492188 189.445312 365.492188 187.496094 C 365.492188 185.546875 364.65625 183.875 362.984375 182.761719 Z M 362.984375 182.761719 " fill-opacity="1" fill-rule="nonzero"/></g><g clip-path="url(#025969b43d)"><path fill="#00f3f7" d="M 36.242188 193.902344 L 34.847656 193.066406 L 70.503906 193.066406 C 73.566406 193.066406 76.074219 190.558594 76.074219 187.496094 C 76.074219 184.429688 73.566406 181.925781 70.503906 181.925781 L 34.847656 181.925781 L 36.242188 181.089844 C 38.746094 179.417969 39.582031 176.074219 38.191406 173.566406 C 36.519531 171.0625 33.175781 169.945312 30.667969 171.617188 L 12.285156 182.761719 C 10.613281 183.875 9.5 185.546875 9.5 187.496094 C 9.5 189.445312 10.613281 191.117188 12.285156 192.230469 L 30.667969 203.371094 C 31.503906 203.929688 32.621094 204.207031 33.453125 204.207031 C 35.40625 204.207031 37.074219 203.371094 38.191406 201.421875 C 39.582031 198.917969 38.746094 195.574219 36.242188 193.902344 Z M 36.242188 193.902344 " fill-opacity="1" fill-rule="nonzero"/></g><path fill="#00f3f7" d="M 295.296875 266.605469 C 296.410156 264.933594 297.523438 263.539062 298.636719 261.871094 C 300.308594 259.363281 299.753906 255.742188 297.246094 254.070312 C 294.738281 252.398438 291.117188 252.957031 289.445312 255.460938 C 288.332031 256.855469 287.496094 258.527344 286.382812 259.917969 C 285.824219 260.476562 285.546875 261.035156 285.546875 261.871094 L 292.230469 268.554688 C 293.347656 268.277344 294.460938 267.71875 295.296875 266.605469 Z M 295.296875 266.605469 " fill-opacity="1" fill-rule="nonzero"/><path fill="#00f3f7" d="M 79.417969 108.664062 C 78.300781 110.335938 77.1875 111.730469 76.074219 113.398438 C 74.402344 115.90625 74.960938 119.527344 77.746094 121.199219 C 78.582031 121.757812 79.695312 122.035156 80.808594 122.035156 C 82.480469 122.035156 84.429688 121.199219 85.542969 119.527344 C 86.660156 118.136719 87.496094 116.464844 88.609375 115.070312 C 89.164062 114.515625 89.445312 113.679688 89.445312 112.84375 L 83.039062 106.4375 C 81.644531 106.714844 80.253906 107.550781 79.417969 108.664062 Z M 79.417969 108.664062 " fill-opacity="1" fill-rule="nonzero"/><path fill="#00f3f7" d="M 283.316406 303.09375 C 282.480469 306.160156 284.433594 309.222656 287.496094 309.78125 C 287.496094 309.78125 308.386719 315.074219 308.386719 315.074219 C 312.289062 316.1875 316.1875 312.289062 315.074219 308.386719 L 309.78125 287.496094 C 308.945312 284.433594 306.160156 282.761719 303.09375 283.316406 C 300.03125 284.152344 298.359375 286.9375 298.917969 290.003906 L 299.195312 291.394531 L 273.847656 266.046875 C 271.617188 263.820312 268.277344 263.820312 266.046875 266.046875 C 263.820312 268.277344 263.820312 271.617188 266.046875 273.847656 L 291.394531 299.195312 L 290.003906 298.917969 C 286.9375 298.359375 284.152344 300.03125 283.316406 303.09375 Z M 283.316406 303.09375 " fill-opacity="1" fill-rule="nonzero"/><path fill="#00f3f7" d="M 91.671875 71.894531 C 92.507812 68.832031 90.558594 65.765625 87.496094 65.210938 L 66.601562 59.917969 C 64.652344 59.359375 62.703125 59.917969 61.308594 61.308594 C 59.917969 62.703125 59.359375 64.652344 59.917969 66.601562 C 59.917969 66.601562 65.210938 87.496094 65.210938 87.496094 C 66.046875 90.28125 69.109375 92.230469 71.894531 91.671875 C 74.960938 90.835938 76.628906 88.050781 76.074219 84.988281 L 75.796875 83.59375 L 101.144531 108.941406 C 102.257812 110.058594 103.652344 110.613281 105.042969 110.613281 C 106.4375 110.613281 107.828125 110.058594 108.941406 108.941406 C 111.171875 106.714844 111.171875 103.371094 108.941406 101.144531 L 83.59375 75.796875 L 84.988281 76.074219 C 88.050781 76.632812 90.835938 74.960938 91.671875 71.894531 Z M 91.671875 71.894531 " fill-opacity="1" fill-rule="nonzero"/><path fill="#00f3f7" d="M 113.398438 298.636719 C 114.234375 299.195312 115.351562 299.472656 116.464844 299.472656 C 118.136719 299.472656 120.085938 298.636719 121.199219 296.96875 C 122.871094 294.460938 122.3125 290.839844 119.527344 289.167969 C 118.136719 288.054688 116.464844 287.21875 115.070312 286.105469 C 114.515625 285.546875 113.679688 285.269531 113.121094 285.269531 L 106.4375 291.953125 C 106.714844 293.347656 107.550781 294.460938 108.664062 295.296875 C 110.058594 296.6875 111.730469 297.804688 113.398438 298.636719 Z M 113.398438 298.636719 " fill-opacity="1" fill-rule="nonzero"/><path fill="#00f3f7" d="M 266.328125 79.417969 C 264.65625 78.300781 263.261719 77.1875 261.589844 76.074219 C 259.082031 74.402344 255.460938 74.960938 253.792969 77.746094 C 252.121094 80.253906 252.675781 83.875 255.460938 85.542969 C 256.855469 86.660156 258.527344 87.496094 259.917969 88.609375 C 260.753906 89.164062 261.589844 89.445312 262.425781 89.445312 L 268.832031 83.039062 C 268.277344 81.644531 267.441406 80.253906 266.328125 79.417969 Z M 266.328125 79.417969 " fill-opacity="1" fill-rule="nonzero"/><path fill="#00f3f7" d="M 108.664062 266.328125 C 106.4375 264.097656 103.09375 264.097656 100.863281 266.328125 L 75.515625 291.675781 L 75.796875 290.28125 C 76.628906 287.21875 74.679688 284.152344 71.617188 283.597656 C 68.554688 282.761719 65.488281 284.710938 64.929688 287.773438 L 59.640625 308.667969 C 59.082031 310.617188 59.640625 312.566406 61.03125 313.960938 C 62.425781 315.351562 64.375 315.910156 66.324219 315.351562 L 87.214844 310.058594 C 90.28125 309.222656 91.953125 306.4375 91.394531 303.375 C 90.558594 300.308594 87.773438 298.636719 84.707031 299.195312 L 83.316406 299.472656 L 108.664062 274.125 C 110.894531 271.898438 110.894531 268.554688 108.664062 266.328125 Z M 108.664062 266.328125 " fill-opacity="1" fill-rule="nonzero"/><path fill="#00f3f7" d="M 266.328125 108.664062 C 268.554688 110.894531 272.175781 110.894531 274.125 108.664062 L 299.472656 83.316406 L 299.195312 84.707031 C 298.359375 87.773438 300.308594 90.835938 303.375 91.394531 C 303.929688 91.394531 304.210938 91.671875 304.765625 91.671875 C 307.273438 91.671875 309.503906 90 310.058594 87.496094 L 315.351562 66.601562 C 315.910156 64.652344 315.351562 62.703125 313.957031 61.308594 C 312.566406 59.917969 310.617188 59.359375 308.667969 59.917969 L 287.773438 65.210938 C 284.710938 66.046875 283.039062 68.832031 283.597656 71.894531 C 284.433594 74.960938 287.21875 76.632812 290.28125 76.074219 L 291.675781 75.796875 L 266.328125 101.144531 C 264.097656 103.09375 264.097656 106.4375 266.328125 108.664062 Z M 266.328125 108.664062 " fill-opacity="1" fill-rule="nonzero"/><path fill="#00f3f7" d="M 230.394531 166.324219 L 227.050781 162.148438 C 220.363281 153.511719 213.402344 144.597656 207.550781 135.128906 C 208.945312 129.554688 210.617188 124.820312 213.121094 120.363281 C 213.402344 119.808594 213.957031 119.25 214.515625 118.414062 C 217.023438 115.070312 220.921875 109.777344 218.695312 104.207031 C 217.023438 99.75 211.730469 98.078125 207.550781 98.636719 C 203.371094 99.195312 200.308594 101.699219 197.800781 103.929688 C 195.574219 105.601562 194.460938 106.4375 193.625 106.714844 C 193.34375 106.4375 193.34375 106.4375 193.066406 106.15625 C 192.230469 105.042969 190.839844 103.371094 188.886719 102.257812 C 182.761719 99.195312 178.304688 104.207031 176.632812 105.878906 C 176.351562 106.15625 176.074219 106.4375 175.796875 106.714844 C 174.960938 107.550781 174.683594 107.273438 174.402344 107.273438 C 173.847656 106.992188 173.011719 106.4375 172.175781 105.878906 C 170.78125 105.042969 168.832031 103.929688 166.605469 103.371094 C 164.097656 102.816406 161.03125 103.09375 159.082031 104.765625 C 157.132812 106.15625 156.019531 108.386719 155.738281 110.894531 C 155.460938 114.792969 157.96875 117.855469 159.363281 119.527344 L 159.917969 120.363281 C 159.917969 120.363281 163.539062 125.097656 166.046875 137.078125 C 166.046875 137.078125 166.046875 137.355469 165.769531 137.355469 C 160.195312 145.710938 153.789062 153.789062 147.941406 161.867188 L 144.597656 166.324219 C 131.226562 183.875 118.972656 203.652344 120.640625 229 C 122.59375 259.640625 151.839844 274.960938 178.023438 276.355469 C 184.152344 276.632812 190.558594 276.632812 196.6875 276.355469 C 222.871094 274.960938 252.121094 259.363281 254.070312 229 C 256.019531 203.652344 243.761719 183.875 230.394531 166.324219 Z M 183.039062 115.070312 C 183.59375 114.515625 184.152344 113.957031 184.710938 113.398438 C 185.824219 114.792969 187.496094 116.742188 190.558594 117.578125 C 196.964844 118.972656 201.421875 115.628906 204.488281 112.84375 C 203.929688 113.679688 203.371094 114.234375 203.09375 115.070312 C 199.75 120.921875 197.523438 127.605469 195.851562 134.847656 L 176.910156 134.847656 C 175.238281 127.050781 173.011719 121.476562 171.339844 118.136719 C 174.125 118.691406 178.582031 118.972656 183.039062 115.070312 Z M 196.6875 236.519531 C 195.574219 237.078125 194.179688 237.355469 192.789062 237.636719 L 192.789062 240.421875 C 192.789062 243.484375 190.28125 245.992188 187.21875 245.992188 C 184.152344 245.992188 181.644531 243.484375 181.644531 240.421875 L 181.644531 237.355469 C 179.695312 236.800781 177.46875 235.964844 175.515625 234.851562 C 172.730469 233.179688 171.894531 229.835938 173.566406 227.328125 C 175.238281 224.542969 178.582031 223.707031 181.089844 225.378906 C 184.429688 227.328125 188.886719 227.886719 192.230469 226.492188 C 193.625 225.9375 196.128906 224.265625 195.574219 221.757812 C 194.738281 219.25 191.953125 218.136719 186.382812 216.742188 C 181.089844 215.351562 174.402344 213.402344 170.503906 207.550781 C 167.160156 202.257812 167.160156 195.574219 170.503906 190.558594 C 173.289062 186.660156 177.1875 184.429688 181.644531 183.59375 L 181.644531 179.140625 C 181.644531 176.074219 184.152344 173.566406 187.214844 173.566406 C 190.28125 173.566406 192.789062 176.074219 192.789062 179.140625 L 192.789062 183.039062 C 195.015625 183.59375 197.246094 184.429688 199.195312 185.546875 C 201.703125 187.21875 202.539062 190.558594 201.144531 193.34375 C 199.472656 195.851562 196.128906 196.6875 193.34375 195.296875 C 192.230469 194.738281 191.117188 194.179688 190.003906 193.902344 C 186.382812 193.34375 181.367188 193.625 179.417969 196.410156 C 178.304688 197.800781 178.859375 200.03125 179.695312 201.144531 C 181.089844 203.371094 184.988281 204.488281 189.167969 205.601562 C 195.574219 207.273438 203.371094 209.5 206.160156 217.859375 C 208.664062 225.378906 204.765625 233.179688 196.6875 236.519531 Z M 196.6875 236.519531 " fill-opacity="1" fill-rule="nonzero"/></svg>