<svg xmlns="http://www.w3.org/2000/svg" xmlns:xlink="http://www.w3.org/1999/xlink" width="500" zoomAndPan="magnify" viewBox="0 0 375 374.999991" height="500" preserveAspectRatio="xMidYMid meet" version="1.0"><defs><clipPath id="542093b8c8"><path d="M 139 220 L 370.792969 220 L 370.792969 322.429688 L 139 322.429688 Z M 139 220 " clip-rule="nonzero"/></clipPath><clipPath id="6ad664ea02"><path d="M 4.042969 220 L 249 220 L 249 322.429688 L 4.042969 322.429688 Z M 4.042969 220 " clip-rule="nonzero"/></clipPath><clipPath id="a02012acbe"><path d="M 113 52.429688 L 262 52.429688 L 262 155 L 113 155 Z M 113 52.429688 " clip-rule="nonzero"/></clipPath></defs><g clip-path="url(#542093b8c8)"><path fill="#00f3f7" d="M 367.070312 322.492188 L 246.011719 322.492188 L 246.011719 314.585938 L 363.117188 314.585938 L 363.117188 228.011719 L 246.011719 228.011719 L 246.011719 220.105469 L 367.070312 220.105469 C 369.253906 220.105469 371.023438 221.875 371.023438 224.058594 L 371.023438 318.539062 C 371.023438 320.722656 369.253906 322.492188 367.070312 322.492188 Z M 145.035156 319.808594 L 139.171875 314.503906 L 178.417969 271.121094 C 179.796875 269.597656 182.113281 269.382812 183.746094 270.628906 L 199.207031 282.425781 L 216.496094 263.164062 C 217.230469 262.34375 218.273438 261.871094 219.375 261.851562 C 219.394531 261.851562 219.417969 261.851562 219.4375 261.851562 C 220.515625 261.851562 221.546875 262.292969 222.292969 263.070312 L 250.1875 292.210938 L 244.476562 297.675781 L 219.53125 271.617188 L 202.65625 290.421875 C 201.277344 291.953125 198.953125 292.175781 197.316406 290.921875 L 181.84375 279.121094 Z M 173.917969 265.804688 C 166.007812 265.804688 159.570312 259.367188 159.570312 251.457031 C 159.570312 243.546875 166.007812 237.109375 173.917969 237.109375 C 181.828125 237.109375 188.265625 243.546875 188.265625 251.457031 C 188.265625 259.367188 181.828125 265.804688 173.917969 265.804688 Z M 173.917969 245.015625 C 170.367188 245.015625 167.476562 247.90625 167.476562 251.457031 C 167.476562 255.007812 170.367188 257.898438 173.917969 257.898438 C 177.46875 257.898438 180.359375 255.007812 180.359375 251.457031 C 180.359375 247.90625 177.46875 245.015625 173.917969 245.015625 Z M 173.917969 245.015625 " fill-opacity="1" fill-rule="nonzero"/></g><path fill="#00f3f7" d="M 244.238281 317.726562 L 244.511719 223.433594 L 252.417969 223.457031 L 252.144531 317.75 Z M 244.238281 317.726562 " fill-opacity="1" fill-rule="nonzero"/><path fill="#00f3f7" d="M 128.574219 224.839844 L 136.480469 224.839844 L 136.480469 319.132812 L 128.574219 319.132812 Z M 128.574219 224.839844 " fill-opacity="1" fill-rule="nonzero"/><path fill="#00f3f7" d="M 60.527344 302.542969 C 59.449219 302.542969 58.40625 302.273438 57.46875 301.730469 C 55.4375 300.554688 54.277344 298.332031 54.277344 295.621094 L 54.3125 246.769531 C 54.3125 244.0625 55.480469 241.835938 57.511719 240.664062 C 59.542969 239.496094 62.054688 239.601562 64.398438 240.957031 C 64.589844 241.066406 64.769531 241.195312 64.941406 241.335938 L 94.230469 265.609375 C 96.375 266.96875 97.59375 269 97.59375 271.234375 C 97.59375 273.472656 96.371094 275.503906 94.222656 276.859375 L 64.894531 301.074219 C 64.726562 301.214844 64.542969 301.339844 64.355469 301.449219 C 63.09375 302.175781 61.785156 302.542969 60.527344 302.542969 Z M 62.214844 249.34375 L 62.183594 293.0625 L 88.625 271.230469 Z M 62.214844 249.34375 " fill-opacity="1" fill-rule="nonzero"/><g clip-path="url(#6ad664ea02)"><path fill="#00f3f7" d="M 246.011719 322.460938 L 8.027344 322.460938 C 5.84375 322.460938 4.074219 320.6875 4.074219 318.507812 L 4.074219 224.652344 C 4.074219 222.46875 5.84375 220.699219 8.027344 220.699219 L 136.292969 220.699219 L 248.453125 220.101562 L 248.496094 228.007812 L 136.3125 228.605469 L 11.980469 228.605469 L 11.980469 314.554688 L 246.011719 314.554688 Z M 246.011719 322.460938 " fill-opacity="1" fill-rule="nonzero"/></g><path fill="#00f3f7" d="M 268.625 174.484375 L 106.472656 174.484375 C 103.554688 174.484375 100.753906 173.246094 98.785156 171.089844 C 95.671875 167.675781 93.660156 163.457031 92.964844 158.890625 C 92.683594 157.039062 93.230469 155.160156 94.460938 153.730469 C 95.710938 152.273438 97.53125 151.4375 99.449219 151.4375 L 169.78125 151.4375 L 169.78125 155.390625 C 169.78125 156.296875 170.550781 157.066406 171.457031 157.066406 L 203.640625 157.066406 C 204.546875 157.066406 205.3125 156.296875 205.3125 155.390625 L 205.3125 151.4375 L 275.648438 151.4375 C 277.566406 151.4375 279.386719 152.273438 280.640625 153.730469 C 281.867188 155.160156 282.410156 157.042969 282.132812 158.890625 C 281.4375 163.457031 279.425781 167.675781 276.3125 171.089844 C 274.34375 173.246094 271.542969 174.484375 268.625 174.484375 Z M 101.121094 159.34375 C 101.753906 161.726562 102.945312 163.921875 104.625 165.761719 C 105.097656 166.28125 105.769531 166.578125 106.46875 166.578125 L 268.625 166.578125 C 269.324219 166.578125 270 166.28125 270.472656 165.761719 C 272.148438 163.921875 273.34375 161.726562 273.972656 159.34375 L 212.367188 159.34375 C 210.859375 162.660156 207.511719 164.972656 203.640625 164.972656 L 171.457031 164.972656 C 167.585938 164.972656 164.238281 162.660156 162.730469 159.34375 Z M 101.121094 159.34375 " fill-opacity="1" fill-rule="nonzero"/><g clip-path="url(#a02012acbe)"><path fill="#00f3f7" d="M 261.363281 154.363281 L 253.460938 154.363281 L 253.460938 60.410156 L 121.636719 60.410156 L 121.636719 154.363281 L 113.730469 154.363281 L 113.730469 59.390625 C 113.730469 55.59375 116.992188 52.507812 121 52.507812 L 254.09375 52.507812 C 258.105469 52.507812 261.363281 55.59375 261.363281 59.390625 Z M 261.363281 154.363281 " fill-opacity="1" fill-rule="nonzero"/></g><path fill="#00f3f7" d="M 187.578125 144.480469 C 187.445312 144.480469 187.308594 144.480469 187.175781 144.480469 L 183.464844 144.433594 L 183.007812 135.511719 L 182.003906 135.304688 L 178.070312 143.324219 L 174.640625 141.90625 C 170.425781 140.160156 166.671875 137.621094 163.488281 134.355469 L 160.894531 131.699219 L 166.878906 125.066406 L 166.316406 124.210938 L 157.863281 127.101562 L 156.441406 123.675781 C 154.695312 119.460938 153.839844 115.011719 153.894531 110.449219 L 153.9375 106.738281 L 162.863281 106.28125 L 163.066406 105.273438 L 155.046875 101.339844 L 156.464844 97.914062 C 158.214844 93.695312 160.753906 89.945312 164.015625 86.761719 L 166.671875 84.167969 L 173.304688 90.15625 L 174.160156 89.589844 L 171.269531 81.136719 L 174.695312 79.714844 C 178.90625 77.972656 183.34375 77.128906 187.921875 77.167969 L 191.628906 77.210938 L 192.089844 86.136719 L 193.09375 86.339844 L 197.027344 78.320312 L 200.453125 79.742188 C 204.671875 81.488281 208.425781 84.027344 211.609375 87.292969 L 214.199219 89.945312 L 208.214844 96.578125 L 208.777344 97.433594 L 217.234375 94.546875 L 218.652344 97.972656 C 220.398438 102.183594 221.253906 106.632812 221.203125 111.199219 L 221.15625 114.90625 L 212.234375 115.367188 L 212.03125 116.371094 L 220.050781 120.304688 L 218.632812 123.734375 C 216.882812 127.949219 214.34375 131.703125 211.082031 134.886719 L 208.425781 137.476562 L 201.792969 131.492188 L 200.9375 132.058594 L 203.828125 140.511719 L 200.402344 141.929688 C 196.316406 143.625 192.003906 144.480469 187.578125 144.480469 Z M 177.597656 126.332031 L 190.589844 128.996094 L 190.964844 136.351562 C 191.941406 136.222656 192.90625 136.035156 193.859375 135.792969 L 191.476562 128.824219 L 202.546875 121.523438 L 208.015625 126.460938 C 208.613281 125.675781 209.167969 124.863281 209.671875 124.015625 L 203.058594 120.773438 L 205.722656 107.785156 L 213.078125 107.40625 C 212.949219 106.429688 212.761719 105.464844 212.519531 104.511719 L 205.550781 106.894531 L 198.25 95.824219 L 203.183594 90.355469 C 202.40625 89.757812 201.589844 89.207031 200.742188 88.703125 L 197.5 95.3125 L 184.511719 92.648438 L 184.132812 85.296875 C 183.15625 85.425781 182.191406 85.609375 181.238281 85.851562 L 183.621094 92.824219 L 172.550781 100.121094 L 167.082031 95.1875 C 166.484375 95.96875 165.933594 96.785156 165.429688 97.628906 L 172.042969 100.875 L 169.378906 113.863281 L 162.023438 114.242188 C 162.152344 115.214844 162.335938 116.183594 162.578125 117.136719 L 169.546875 114.753906 L 176.847656 125.824219 L 171.914062 131.292969 C 172.695312 131.890625 173.511719 132.441406 174.355469 132.945312 Z M 177.597656 126.332031 " fill-opacity="1" fill-rule="nonzero"/><path fill="#00f3f7" d="M 187.542969 120.433594 C 183.039062 120.433594 179.007812 117.238281 178.117188 112.65625 C 177.628906 110.136719 178.148438 107.578125 179.582031 105.453125 C 181.019531 103.324219 183.195312 101.882812 185.714844 101.394531 C 188.234375 100.90625 190.792969 101.425781 192.921875 102.859375 C 195.046875 104.296875 196.488281 106.472656 196.980469 108.992188 C 197.46875 111.511719 196.945312 114.070312 195.511719 116.199219 C 194.078125 118.324219 191.898438 119.765625 189.378906 120.253906 C 188.765625 120.375 188.148438 120.433594 187.542969 120.433594 Z M 187.550781 109.121094 C 187.449219 109.121094 187.339844 109.132812 187.222656 109.152344 C 186.621094 109.269531 186.285156 109.652344 186.136719 109.871094 C 185.992188 110.089844 185.761719 110.546875 185.878906 111.148438 C 186.058594 112.070312 186.957031 112.675781 187.871094 112.492188 C 188.472656 112.375 188.8125 111.992188 188.957031 111.773438 C 189.105469 111.554688 189.335938 111.101562 189.21875 110.5 C 189.101562 109.898438 188.71875 109.558594 188.5 109.410156 C 188.324219 109.292969 187.992188 109.121094 187.550781 109.121094 Z M 187.550781 109.121094 " fill-opacity="1" fill-rule="nonzero"/><path fill="#00f3f7" d="M 117.683594 64.25 L 257.414062 64.25 L 257.414062 72.15625 L 117.683594 72.15625 Z M 117.683594 64.25 " fill-opacity="1" fill-rule="nonzero"/><path fill="#00f3f7" d="M 297.007812 287.894531 L 289.105469 287.894531 L 289.105469 254.988281 C 289.105469 253.34375 290.121094 251.875 291.660156 251.292969 L 324.714844 238.800781 C 325.929688 238.339844 327.289062 238.507812 328.359375 239.246094 C 329.425781 239.984375 330.0625 241.199219 330.0625 242.496094 L 330.0625 279.132812 L 322.160156 279.132812 L 322.160156 248.214844 L 297.007812 257.722656 Z M 297.007812 287.894531 " fill-opacity="1" fill-rule="nonzero"/><path fill="#00f3f7" d="M 282.238281 304.054688 C 279.988281 304.054688 277.792969 303.589844 275.8125 302.671875 C 272.375 301.078125 269.886719 298.207031 268.988281 294.789062 C 267.175781 287.917969 272.097656 280.644531 279.953125 278.570312 C 283.628906 277.601562 287.433594 277.894531 290.667969 279.390625 C 294.105469 280.984375 296.59375 283.859375 297.496094 287.277344 C 298.394531 290.691406 297.644531 294.417969 295.441406 297.5 C 293.367188 300.398438 290.199219 302.523438 286.527344 303.492188 C 285.101562 303.871094 283.660156 304.054688 282.238281 304.054688 Z M 284.234375 285.917969 C 283.488281 285.917969 282.722656 286.019531 281.972656 286.214844 C 278.386719 287.160156 275.941406 290.164062 276.632812 292.777344 C 277.039062 294.324219 278.375 295.148438 279.136719 295.5 C 280.683594 296.21875 282.640625 296.34375 284.511719 295.847656 C 286.382812 295.355469 288.023438 294.28125 289.015625 292.898438 C 289.503906 292.214844 290.257812 290.839844 289.851562 289.292969 C 289.441406 287.742188 288.105469 286.917969 287.34375 286.566406 C 286.417969 286.136719 285.347656 285.917969 284.234375 285.917969 Z M 284.234375 285.917969 " fill-opacity="1" fill-rule="nonzero"/><path fill="#00f3f7" d="M 315.347656 294.980469 C 309.078125 294.980469 303.539062 291.34375 302.058594 285.722656 C 301.15625 282.304688 301.90625 278.578125 304.109375 275.5 C 306.183594 272.601562 309.347656 270.472656 313.023438 269.503906 C 316.699219 268.535156 320.503906 268.828125 323.738281 270.324219 C 327.171875 271.917969 329.660156 274.789062 330.5625 278.207031 C 332.375 285.078125 327.453125 292.351562 319.59375 294.425781 C 318.167969 294.800781 316.738281 294.980469 315.347656 294.980469 Z M 317.304688 276.851562 C 316.554688 276.851562 315.792969 276.949219 315.039062 277.148438 C 313.167969 277.640625 311.527344 278.71875 310.539062 280.101562 C 310.050781 280.78125 309.292969 282.15625 309.699219 283.707031 C 310.390625 286.316406 313.992188 287.726562 317.582031 286.78125 C 321.164062 285.835938 323.605469 282.832031 322.917969 280.21875 C 322.507812 278.671875 321.171875 277.847656 320.414062 277.496094 C 319.488281 277.070312 318.417969 276.851562 317.304688 276.851562 Z M 317.304688 276.851562 " fill-opacity="1" fill-rule="nonzero"/><path fill="#00f3f7" d="M 62.183594 223.460938 L 54.277344 223.460938 L 54.277344 108.976562 C 54.277344 106.796875 56.046875 105.023438 58.230469 105.023438 L 117.683594 105.023438 L 117.683594 112.929688 L 62.183594 112.929688 Z M 62.183594 223.460938 " fill-opacity="1" fill-rule="nonzero"/><path fill="#00f3f7" d="M 320.820312 223.460938 L 312.914062 223.460938 L 312.914062 112.929688 L 257.414062 112.929688 L 257.414062 105.023438 L 316.867188 105.023438 C 319.050781 105.023438 320.820312 106.796875 320.820312 108.976562 Z M 320.820312 223.460938 " fill-opacity="1" fill-rule="nonzero"/><path fill="#00f3f7" d="M 183.597656 170.53125 L 191.5 170.53125 L 191.5 225.269531 L 183.597656 225.269531 Z M 183.597656 170.53125 " fill-opacity="1" fill-rule="nonzero"/></svg>