<svg xmlns="http://www.w3.org/2000/svg" xmlns:xlink="http://www.w3.org/1999/xlink" width="500" zoomAndPan="magnify" viewBox="0 0 375 374.999991" height="500" preserveAspectRatio="xMidYMid meet" version="1.0"><defs><clipPath id="7f43210604"><path d="M 37.5 143 L 336 143 L 336 369 L 37.5 369 Z M 37.5 143 " clip-rule="nonzero"/></clipPath></defs><path fill="#00f3f7" d="M 69.1875 157.695312 L 115.105469 157.695312 C 115.53125 157.65625 115.949219 157.582031 116.363281 157.464844 C 116.773438 157.351562 117.171875 157.199219 117.554688 157.007812 C 117.9375 156.820312 118.300781 156.597656 118.640625 156.339844 C 118.984375 156.082031 119.296875 155.796875 119.585938 155.480469 C 119.875 155.167969 120.132812 154.828125 120.355469 154.464844 C 120.582031 154.101562 120.773438 153.71875 120.925781 153.320312 C 121.082031 152.921875 121.199219 152.515625 121.277344 152.09375 C 121.355469 151.675781 121.394531 151.25 121.394531 150.824219 C 121.394531 150.394531 121.355469 149.972656 121.277344 149.554688 C 121.199219 149.132812 121.082031 148.722656 120.925781 148.324219 C 120.773438 147.925781 120.582031 147.546875 120.355469 147.183594 C 120.132812 146.820312 119.875 146.480469 119.585938 146.167969 C 119.296875 145.851562 118.984375 145.566406 118.640625 145.308594 C 118.300781 145.050781 117.9375 144.828125 117.554688 144.640625 C 117.171875 144.449219 116.773438 144.296875 116.363281 144.183594 C 115.949219 144.066406 115.53125 143.988281 115.105469 143.953125 L 98.507812 143.953125 L 98.507812 105.902344 C 98.550781 105.425781 98.542969 104.949219 98.484375 104.476562 C 98.429688 104 98.324219 103.535156 98.171875 103.082031 C 98.015625 102.628906 97.816406 102.195312 97.574219 101.785156 C 97.332031 101.371094 97.046875 100.988281 96.726562 100.636719 C 96.402344 100.285156 96.046875 99.96875 95.65625 99.6875 C 95.269531 99.410156 94.855469 99.171875 94.417969 98.980469 C 93.976562 98.789062 93.523438 98.640625 93.054688 98.542969 C 92.589844 98.445312 92.113281 98.394531 91.636719 98.394531 C 91.15625 98.394531 90.683594 98.445312 90.214844 98.542969 C 89.746094 98.640625 89.292969 98.789062 88.855469 98.980469 C 88.417969 99.171875 88.003906 99.410156 87.617188 99.6875 C 87.226562 99.96875 86.871094 100.285156 86.546875 100.636719 C 86.222656 100.988281 85.941406 101.371094 85.699219 101.785156 C 85.453125 102.195312 85.253906 102.628906 85.101562 103.082031 C 84.949219 103.535156 84.84375 104 84.785156 104.476562 C 84.730469 104.949219 84.722656 105.425781 84.765625 105.902344 L 84.765625 143.953125 L 76.035156 143.953125 L 76.035156 99.597656 C 76.035156 99.007812 76.0625 98.417969 76.121094 97.832031 C 76.179688 97.246094 76.265625 96.660156 76.378906 96.082031 C 76.496094 95.503906 76.636719 94.929688 76.808594 94.367188 C 76.980469 93.800781 77.175781 93.246094 77.402344 92.703125 C 77.628906 92.15625 77.878906 91.621094 78.15625 91.101562 C 78.433594 90.582031 78.738281 90.074219 79.066406 89.585938 C 79.394531 89.09375 79.742188 88.621094 80.117188 88.164062 C 80.492188 87.707031 80.886719 87.269531 81.304688 86.851562 C 81.71875 86.433594 82.15625 86.035156 82.609375 85.660156 C 83.066406 85.285156 83.539062 84.933594 84.03125 84.605469 C 84.519531 84.277344 85.023438 83.972656 85.542969 83.691406 C 86.066406 83.414062 86.597656 83.160156 87.140625 82.933594 C 87.6875 82.707031 88.242188 82.507812 88.804688 82.332031 C 89.371094 82.160156 89.941406 82.015625 90.519531 81.898438 C 91.097656 81.78125 91.679688 81.695312 92.269531 81.636719 C 92.855469 81.574219 93.445312 81.546875 94.035156 81.542969 L 137.851562 81.542969 C 138.300781 81.558594 138.746094 81.527344 139.1875 81.453125 C 139.632812 81.378906 140.066406 81.265625 140.484375 81.105469 C 140.90625 80.945312 141.308594 80.746094 141.6875 80.511719 C 142.070312 80.273438 142.425781 80 142.753906 79.691406 C 143.082031 79.382812 143.375 79.046875 143.636719 78.679688 C 143.898438 78.316406 144.121094 77.925781 144.304688 77.515625 C 144.492188 77.109375 144.632812 76.683594 144.734375 76.246094 C 144.835938 75.808594 144.894531 75.363281 144.910156 74.914062 C 144.925781 74.464844 144.894531 74.019531 144.820312 73.574219 C 144.746094 73.132812 144.628906 72.699219 144.472656 72.277344 C 144.3125 71.859375 144.113281 71.457031 143.875 71.074219 C 143.636719 70.695312 143.367188 70.339844 143.058594 70.011719 C 142.75 69.683594 142.414062 69.390625 142.046875 69.128906 C 141.679688 68.867188 141.292969 68.644531 140.882812 68.457031 C 140.472656 68.273438 140.050781 68.128906 139.613281 68.027344 C 139.175781 67.925781 138.730469 67.867188 138.28125 67.855469 L 94.035156 67.855469 C 92.992188 67.855469 91.957031 67.910156 90.921875 68.011719 C 89.886719 68.117188 88.859375 68.269531 87.839844 68.476562 C 86.820312 68.679688 85.8125 68.933594 84.816406 69.238281 C 83.820312 69.539062 82.84375 69.890625 81.882812 70.289062 C 80.921875 70.691406 79.984375 71.136719 79.066406 71.625 C 78.148438 72.117188 77.257812 72.652344 76.394531 73.230469 C 75.53125 73.8125 74.695312 74.429688 73.894531 75.089844 C 73.089844 75.753906 72.320312 76.449219 71.585938 77.1875 C 70.851562 77.921875 70.152344 78.695312 69.492188 79.496094 C 68.835938 80.300781 68.214844 81.136719 67.636719 82.003906 C 67.0625 82.867188 66.527344 83.761719 66.039062 84.675781 C 65.546875 85.59375 65.105469 86.535156 64.707031 87.496094 C 64.308594 88.457031 63.957031 89.4375 63.65625 90.429688 C 63.355469 91.425781 63.101562 92.433594 62.902344 93.453125 C 62.699219 94.476562 62.546875 95.503906 62.445312 96.539062 C 62.34375 97.574219 62.292969 98.613281 62.292969 99.652344 L 62.292969 150.851562 C 62.292969 151.300781 62.335938 151.75 62.425781 152.191406 C 62.511719 152.636719 62.644531 153.066406 62.816406 153.480469 C 62.992188 153.898438 63.203125 154.296875 63.457031 154.671875 C 63.707031 155.046875 63.992188 155.390625 64.316406 155.710938 C 64.636719 156.027344 64.984375 156.3125 65.359375 156.558594 C 65.738281 156.808594 66.136719 157.019531 66.554688 157.191406 C 66.972656 157.359375 67.402344 157.488281 67.847656 157.574219 C 68.289062 157.65625 68.738281 157.699219 69.1875 157.695312 Z M 69.1875 157.695312 " fill-opacity="1" fill-rule="nonzero"/><path fill="#00f3f7" d="M 257.0625 62.25 C 257.976562 62.25 258.890625 62.203125 259.796875 62.113281 C 260.707031 62.027344 261.613281 61.890625 262.507812 61.714844 C 263.40625 61.535156 264.292969 61.3125 265.167969 61.046875 C 266.042969 60.78125 266.902344 60.472656 267.746094 60.125 C 268.589844 59.773438 269.414062 59.382812 270.222656 58.953125 C 271.027344 58.523438 271.8125 58.054688 272.570312 57.542969 C 273.332031 57.035156 274.066406 56.492188 274.773438 55.914062 C 275.480469 55.332031 276.15625 54.71875 276.800781 54.074219 C 277.449219 53.425781 278.0625 52.75 278.640625 52.042969 C 279.222656 51.335938 279.765625 50.601562 280.273438 49.84375 C 280.78125 49.082031 281.25 48.300781 281.683594 47.492188 C 282.113281 46.6875 282.503906 45.859375 282.855469 45.015625 C 283.203125 44.171875 283.511719 43.3125 283.777344 42.4375 C 284.042969 41.5625 284.265625 40.675781 284.441406 39.777344 C 284.621094 38.882812 284.753906 37.980469 284.84375 37.070312 C 284.933594 36.160156 284.980469 35.246094 284.980469 34.332031 C 284.980469 33.417969 284.933594 32.507812 284.84375 31.597656 C 284.753906 30.6875 284.621094 29.785156 284.441406 28.886719 C 284.265625 27.988281 284.042969 27.105469 283.777344 26.230469 C 283.511719 25.355469 283.203125 24.496094 282.855469 23.648438 C 282.503906 22.804688 282.113281 21.980469 281.683594 21.171875 C 281.25 20.367188 280.78125 19.582031 280.273438 18.824219 C 279.765625 18.0625 279.222656 17.328125 278.640625 16.621094 C 278.0625 15.914062 277.449219 15.238281 276.800781 14.59375 C 276.15625 13.945312 275.480469 13.332031 274.773438 12.753906 C 274.066406 12.171875 273.332031 11.628906 272.570312 11.121094 C 271.8125 10.613281 271.027344 10.144531 270.222656 9.710938 C 269.414062 9.28125 268.589844 8.890625 267.746094 8.539062 C 266.902344 8.191406 266.042969 7.882812 265.167969 7.617188 C 264.292969 7.351562 263.40625 7.128906 262.507812 6.953125 C 261.613281 6.773438 260.707031 6.640625 259.796875 6.550781 C 258.890625 6.460938 257.976562 6.414062 257.0625 6.414062 C 256.148438 6.414062 255.234375 6.460938 254.324219 6.550781 C 253.417969 6.640625 252.511719 6.773438 251.617188 6.953125 C 250.71875 7.128906 249.832031 7.351562 248.957031 7.617188 C 248.082031 7.882812 247.222656 8.191406 246.378906 8.539062 C 245.535156 8.890625 244.707031 9.28125 243.902344 9.710938 C 243.097656 10.144531 242.3125 10.613281 241.550781 11.121094 C 240.792969 11.628906 240.058594 12.171875 239.351562 12.753906 C 238.644531 13.332031 237.96875 13.945312 237.320312 14.59375 C 236.675781 15.238281 236.0625 15.914062 235.480469 16.621094 C 234.902344 17.328125 234.359375 18.0625 233.851562 18.824219 C 233.34375 19.582031 232.871094 20.367188 232.441406 21.171875 C 232.011719 21.980469 231.621094 22.804688 231.269531 23.648438 C 230.921875 24.496094 230.613281 25.355469 230.347656 26.230469 C 230.082031 27.105469 229.859375 27.988281 229.683594 28.886719 C 229.503906 29.785156 229.371094 30.6875 229.28125 31.597656 C 229.191406 32.507812 229.144531 33.417969 229.144531 34.332031 C 229.144531 35.246094 229.191406 36.160156 229.28125 37.070312 C 229.371094 37.980469 229.503906 38.882812 229.683594 39.777344 C 229.859375 40.675781 230.082031 41.5625 230.347656 42.4375 C 230.613281 43.3125 230.921875 44.171875 231.269531 45.015625 C 231.621094 45.859375 232.011719 46.6875 232.441406 47.492188 C 232.871094 48.300781 233.34375 49.082031 233.851562 49.84375 C 234.359375 50.601562 234.902344 51.335938 235.480469 52.042969 C 236.0625 52.75 236.675781 53.425781 237.320312 54.074219 C 237.96875 54.71875 238.644531 55.332031 239.351562 55.914062 C 240.058594 56.492188 240.792969 57.035156 241.550781 57.542969 C 242.3125 58.054688 243.097656 58.523438 243.902344 58.953125 C 244.707031 59.382812 245.535156 59.773438 246.378906 60.125 C 247.222656 60.472656 248.082031 60.78125 248.957031 61.046875 C 249.832031 61.3125 250.71875 61.535156 251.617188 61.714844 C 252.511719 61.890625 253.417969 62.027344 254.324219 62.113281 C 255.234375 62.203125 256.148438 62.25 257.0625 62.25 Z M 257.0625 20.160156 C 257.992188 20.160156 258.914062 20.25 259.828125 20.429688 C 260.742188 20.613281 261.625 20.882812 262.488281 21.238281 C 263.347656 21.59375 264.164062 22.03125 264.9375 22.546875 C 265.710938 23.066406 266.425781 23.652344 267.085938 24.308594 C 267.742188 24.96875 268.332031 25.683594 268.847656 26.457031 C 269.363281 27.230469 269.800781 28.046875 270.15625 28.910156 C 270.511719 29.769531 270.78125 30.65625 270.964844 31.566406 C 271.144531 32.480469 271.234375 33.402344 271.238281 34.332031 C 271.234375 35.261719 271.144531 36.183594 270.964844 37.097656 C 270.78125 38.011719 270.511719 38.898438 270.15625 39.757812 C 269.800781 40.617188 269.363281 41.433594 268.847656 42.207031 C 268.332031 42.980469 267.742188 43.695312 267.085938 44.355469 C 266.425781 45.011719 265.710938 45.601562 264.9375 46.117188 C 264.164062 46.636719 263.347656 47.070312 262.488281 47.429688 C 261.625 47.785156 260.742188 48.054688 259.828125 48.234375 C 258.914062 48.414062 257.992188 48.507812 257.0625 48.507812 C 256.132812 48.507812 255.210938 48.414062 254.296875 48.234375 C 253.382812 48.054688 252.496094 47.785156 251.636719 47.429688 C 250.777344 47.070312 249.960938 46.636719 249.1875 46.117188 C 248.414062 45.601562 247.699219 45.011719 247.039062 44.355469 C 246.382812 43.695312 245.792969 42.980469 245.277344 42.207031 C 244.761719 41.433594 244.324219 40.617188 243.96875 39.757812 C 243.609375 38.898438 243.34375 38.011719 243.160156 37.097656 C 242.980469 36.183594 242.886719 35.261719 242.886719 34.332031 C 242.886719 33.402344 242.980469 32.480469 243.160156 31.566406 C 243.34375 30.65625 243.609375 29.769531 243.96875 28.910156 C 244.324219 28.046875 244.761719 27.230469 245.277344 26.457031 C 245.792969 25.683594 246.382812 24.96875 247.039062 24.308594 C 247.699219 23.652344 248.414062 23.066406 249.1875 22.546875 C 249.960938 22.03125 250.777344 21.59375 251.636719 21.238281 C 252.496094 20.882812 253.382812 20.613281 254.296875 20.429688 C 255.210938 20.25 256.132812 20.160156 257.0625 20.160156 Z M 257.0625 20.160156 " fill-opacity="1" fill-rule="nonzero"/><path fill="#00f3f7" d="M 234.320312 81.867188 L 278.082031 81.867188 C 278.671875 81.867188 279.257812 81.898438 279.847656 81.957031 C 280.433594 82.019531 281.015625 82.105469 281.59375 82.222656 C 282.175781 82.339844 282.746094 82.484375 283.308594 82.65625 C 283.875 82.828125 284.429688 83.03125 284.972656 83.257812 C 285.519531 83.484375 286.050781 83.738281 286.570312 84.015625 C 287.089844 84.296875 287.59375 84.597656 288.085938 84.929688 C 288.574219 85.257812 289.046875 85.609375 289.503906 85.984375 C 289.960938 86.359375 290.394531 86.757812 290.8125 87.175781 C 291.230469 87.59375 291.625 88.027344 291.996094 88.484375 C 292.371094 88.941406 292.722656 89.417969 293.050781 89.90625 C 293.378906 90.398438 293.679688 90.90625 293.957031 91.425781 C 294.234375 91.945312 294.488281 92.480469 294.710938 93.023438 C 294.9375 93.570312 295.136719 94.125 295.308594 94.691406 C 295.476562 95.253906 295.621094 95.828125 295.734375 96.40625 C 295.851562 96.984375 295.9375 97.566406 295.996094 98.15625 C 296.050781 98.742188 296.082031 99.332031 296.082031 99.921875 L 296.082031 144.277344 L 287.351562 144.277344 L 287.351562 105.902344 C 287.394531 105.425781 287.386719 104.949219 287.328125 104.476562 C 287.273438 104 287.167969 103.535156 287.011719 103.082031 C 286.859375 102.628906 286.660156 102.195312 286.417969 101.785156 C 286.175781 101.371094 285.890625 100.988281 285.566406 100.636719 C 285.246094 100.285156 284.886719 99.96875 284.5 99.6875 C 284.109375 99.410156 283.695312 99.171875 283.257812 98.980469 C 282.820312 98.789062 282.367188 98.640625 281.898438 98.542969 C 281.429688 98.445312 280.957031 98.394531 280.480469 98.394531 C 280 98.394531 279.527344 98.445312 279.058594 98.542969 C 278.589844 98.640625 278.136719 98.789062 277.699219 98.980469 C 277.261719 99.171875 276.847656 99.410156 276.457031 99.6875 C 276.070312 99.96875 275.714844 100.285156 275.390625 100.636719 C 275.066406 100.988281 274.785156 101.371094 274.539062 101.785156 C 274.296875 102.195312 274.097656 102.628906 273.945312 103.082031 C 273.792969 103.535156 273.6875 104 273.628906 104.476562 C 273.574219 104.949219 273.566406 105.425781 273.609375 105.902344 L 273.609375 143.953125 L 257.0625 143.953125 C 256.585938 143.910156 256.109375 143.917969 255.632812 143.972656 C 255.160156 144.03125 254.695312 144.136719 254.242188 144.289062 C 253.789062 144.441406 253.355469 144.640625 252.941406 144.886719 C 252.53125 145.128906 252.148438 145.410156 251.796875 145.734375 C 251.441406 146.058594 251.125 146.414062 250.847656 146.804688 C 250.570312 147.191406 250.332031 147.605469 250.140625 148.042969 C 249.945312 148.480469 249.800781 148.933594 249.703125 149.402344 C 249.605469 149.871094 249.554688 150.34375 249.554688 150.824219 C 249.554688 151.300781 249.605469 151.777344 249.703125 152.246094 C 249.800781 152.710938 249.945312 153.164062 250.140625 153.605469 C 250.332031 154.042969 250.570312 154.457031 250.847656 154.84375 C 251.125 155.234375 251.441406 155.589844 251.796875 155.914062 C 252.148438 156.234375 252.53125 156.519531 252.941406 156.761719 C 253.355469 157.007812 253.789062 157.203125 254.242188 157.359375 C 254.695312 157.511719 255.160156 157.617188 255.632812 157.671875 C 256.109375 157.730469 256.585938 157.738281 257.0625 157.695312 L 302.980469 157.695312 C 303.429688 157.695312 303.875 157.652344 304.316406 157.5625 C 304.753906 157.476562 305.183594 157.347656 305.597656 157.175781 C 306.015625 157.003906 306.410156 156.792969 306.78125 156.542969 C 307.15625 156.292969 307.5 156.007812 307.820312 155.691406 C 308.136719 155.371094 308.421875 155.027344 308.671875 154.652344 C 308.921875 154.28125 309.132812 153.886719 309.304688 153.46875 C 309.476562 153.054688 309.605469 152.625 309.691406 152.1875 C 309.78125 151.746094 309.824219 151.300781 309.824219 150.851562 L 309.824219 99.597656 C 309.824219 98.558594 309.773438 97.519531 309.671875 96.484375 C 309.570312 95.449219 309.417969 94.421875 309.214844 93.402344 C 309.011719 92.378906 308.757812 91.371094 308.457031 90.378906 C 308.15625 89.382812 307.804688 88.402344 307.410156 87.441406 C 307.011719 86.480469 306.566406 85.542969 306.078125 84.625 C 305.585938 83.707031 305.054688 82.8125 304.476562 81.949219 C 303.898438 81.082031 303.28125 80.25 302.621094 79.445312 C 301.960938 78.640625 301.265625 77.867188 300.53125 77.132812 C 299.796875 76.398438 299.027344 75.699219 298.222656 75.039062 C 297.417969 74.375 296.585938 73.757812 295.71875 73.179688 C 294.855469 72.597656 293.964844 72.0625 293.046875 71.574219 C 292.132812 71.082031 291.191406 70.636719 290.234375 70.238281 C 289.273438 69.835938 288.292969 69.484375 287.300781 69.183594 C 286.304688 68.878906 285.296875 68.625 284.277344 68.421875 C 283.257812 68.214844 282.230469 68.0625 281.195312 67.957031 C 280.160156 67.855469 279.121094 67.800781 278.082031 67.800781 L 233.617188 67.800781 C 233.15625 67.824219 232.703125 67.890625 232.253906 68.003906 C 231.804688 68.117188 231.371094 68.273438 230.953125 68.46875 C 230.535156 68.667969 230.140625 68.90625 229.769531 69.179688 C 229.398438 69.457031 229.058594 69.765625 228.75 70.109375 C 228.4375 70.449219 228.164062 70.820312 227.925781 71.21875 C 227.6875 71.613281 227.492188 72.03125 227.335938 72.464844 C 227.183594 72.902344 227.070312 73.347656 227.003906 73.804688 C 226.933594 74.261719 226.914062 74.722656 226.9375 75.183594 C 226.957031 75.644531 227.027344 76.101562 227.140625 76.550781 C 227.253906 76.996094 227.40625 77.429688 227.605469 77.847656 C 227.804688 78.265625 228.039062 78.660156 228.316406 79.03125 C 228.589844 79.402344 228.902344 79.746094 229.242188 80.054688 C 229.585938 80.363281 229.957031 80.640625 230.351562 80.875 C 230.75 81.113281 231.164062 81.308594 231.601562 81.464844 C 232.035156 81.621094 232.484375 81.734375 232.941406 81.800781 C 233.398438 81.867188 233.859375 81.890625 234.320312 81.867188 Z M 234.320312 81.867188 " fill-opacity="1" fill-rule="nonzero"/><path fill="#00f3f7" d="M 115.105469 62.25 C 116.019531 62.246094 116.933594 62.203125 117.839844 62.109375 C 118.75 62.019531 119.652344 61.882812 120.550781 61.703125 C 121.445312 61.523438 122.332031 61.300781 123.203125 61.03125 C 124.078125 60.765625 124.9375 60.457031 125.78125 60.105469 C 126.625 59.753906 127.449219 59.363281 128.253906 58.929688 C 129.0625 58.5 129.84375 58.027344 130.601562 57.519531 C 131.359375 57.007812 132.09375 56.464844 132.796875 55.882812 C 133.503906 55.300781 134.179688 54.6875 134.824219 54.042969 C 135.46875 53.394531 136.082031 52.714844 136.660156 52.007812 C 137.238281 51.300781 137.78125 50.566406 138.289062 49.808594 C 138.796875 49.046875 139.261719 48.261719 139.691406 47.457031 C 140.121094 46.648438 140.511719 45.824219 140.859375 44.980469 C 141.207031 44.132812 141.515625 43.273438 141.777344 42.398438 C 142.042969 41.523438 142.261719 40.636719 142.441406 39.742188 C 142.617188 38.84375 142.75 37.941406 142.839844 37.03125 C 142.925781 36.121094 142.972656 35.210938 142.96875 34.296875 C 142.96875 33.382812 142.921875 32.472656 142.832031 31.5625 C 142.742188 30.652344 142.605469 29.75 142.425781 28.851562 C 142.246094 27.957031 142.023438 27.070312 141.757812 26.199219 C 141.492188 25.324219 141.183594 24.464844 140.832031 23.621094 C 140.480469 22.777344 140.089844 21.953125 139.660156 21.144531 C 139.226562 20.339844 138.757812 19.558594 138.25 18.796875 C 137.738281 18.039062 137.195312 17.308594 136.613281 16.601562 C 136.035156 15.894531 135.421875 15.21875 134.773438 14.574219 C 134.128906 13.929688 133.449219 13.316406 132.742188 12.738281 C 132.035156 12.15625 131.300781 11.613281 130.542969 11.105469 C 129.78125 10.601562 129 10.132812 128.191406 9.703125 C 127.386719 9.269531 126.558594 8.882812 125.714844 8.53125 C 124.871094 8.183594 124.011719 7.875 123.136719 7.613281 C 122.261719 7.347656 121.375 7.125 120.480469 6.949219 C 119.582031 6.769531 118.679688 6.636719 117.769531 6.546875 C 116.859375 6.460938 115.949219 6.414062 115.035156 6.414062 C 114.121094 6.417969 113.210938 6.460938 112.300781 6.550781 C 111.390625 6.640625 110.488281 6.777344 109.589844 6.957031 C 108.695312 7.132812 107.808594 7.355469 106.933594 7.621094 C 106.0625 7.886719 105.203125 8.195312 104.355469 8.546875 C 103.511719 8.894531 102.6875 9.285156 101.882812 9.71875 C 101.078125 10.148438 100.292969 10.617188 99.535156 11.128906 C 98.773438 11.636719 98.042969 12.179688 97.335938 12.757812 C 96.628906 13.339844 95.953125 13.953125 95.304688 14.597656 C 94.660156 15.246094 94.046875 15.921875 93.46875 16.628906 C 92.886719 17.335938 92.34375 18.070312 91.835938 18.828125 C 91.328125 19.589844 90.859375 20.371094 90.429688 21.179688 C 90 21.984375 89.609375 22.808594 89.257812 23.652344 C 88.910156 24.5 88.601562 25.359375 88.335938 26.230469 C 88.070312 27.105469 87.851562 27.992188 87.671875 28.890625 C 87.492188 29.785156 87.359375 30.6875 87.269531 31.597656 C 87.179688 32.507812 87.136719 33.417969 87.136719 34.332031 C 87.136719 35.246094 87.183594 36.160156 87.277344 37.070312 C 87.367188 37.980469 87.503906 38.886719 87.683594 39.78125 C 87.863281 40.679688 88.085938 41.566406 88.351562 42.441406 C 88.621094 43.316406 88.929688 44.175781 89.28125 45.019531 C 89.632812 45.863281 90.023438 46.691406 90.457031 47.496094 C 90.886719 48.304688 91.359375 49.085938 91.867188 49.847656 C 92.378906 50.605469 92.921875 51.339844 93.503906 52.046875 C 94.085938 52.753906 94.699219 53.429688 95.347656 54.078125 C 95.996094 54.722656 96.671875 55.335938 97.378906 55.914062 C 98.089844 56.496094 98.824219 57.039062 99.582031 57.546875 C 100.34375 58.054688 101.128906 58.523438 101.9375 58.953125 C 102.742188 59.386719 103.570312 59.777344 104.414062 60.125 C 105.261719 60.476562 106.121094 60.78125 106.996094 61.046875 C 107.871094 61.3125 108.757812 61.535156 109.65625 61.714844 C 110.554688 61.890625 111.457031 62.027344 112.367188 62.117188 C 113.277344 62.203125 114.191406 62.25 115.105469 62.25 Z M 115.105469 20.160156 C 116.039062 20.148438 116.964844 20.230469 117.882812 20.402344 C 118.796875 20.574219 119.691406 20.832031 120.554688 21.179688 C 121.421875 21.527344 122.242188 21.957031 123.023438 22.46875 C 123.804688 22.980469 124.527344 23.5625 125.195312 24.214844 C 125.859375 24.867188 126.457031 25.578125 126.980469 26.351562 C 127.507812 27.121094 127.953125 27.9375 128.316406 28.796875 C 128.679688 29.65625 128.957031 30.539062 129.148438 31.453125 C 129.335938 32.367188 129.433594 33.289062 129.441406 34.222656 C 129.449219 35.15625 129.363281 36.082031 129.191406 36.996094 C 129.015625 37.914062 128.75 38.804688 128.398438 39.667969 C 128.046875 40.53125 127.617188 41.355469 127.101562 42.132812 C 126.589844 42.910156 126.003906 43.632812 125.347656 44.296875 C 124.691406 44.960938 123.976562 45.554688 123.203125 46.074219 C 122.433594 46.597656 121.617188 47.039062 120.753906 47.402344 C 119.894531 47.761719 119.007812 48.035156 118.09375 48.222656 C 117.179688 48.40625 116.253906 48.503906 115.324219 48.503906 C 114.390625 48.507812 113.464844 48.421875 112.550781 48.242188 C 111.632812 48.0625 110.746094 47.796875 109.882812 47.441406 C 109.019531 47.089844 108.199219 46.652344 107.421875 46.136719 C 106.644531 45.621094 105.925781 45.03125 105.265625 44.375 C 104.605469 43.714844 104.015625 43 103.496094 42.222656 C 102.976562 41.449219 102.535156 40.628906 102.179688 39.769531 C 101.820312 38.90625 101.550781 38.019531 101.367188 37.105469 C 101.1875 36.191406 101.09375 35.265625 101.09375 34.332031 C 101.09375 33.410156 101.183594 32.492188 101.363281 31.585938 C 101.542969 30.679688 101.804688 29.800781 102.15625 28.945312 C 102.507812 28.089844 102.9375 27.277344 103.449219 26.507812 C 103.960938 25.738281 104.539062 25.023438 105.1875 24.367188 C 105.839844 23.710938 106.546875 23.121094 107.308594 22.601562 C 108.074219 22.085938 108.882812 21.644531 109.730469 21.285156 C 110.582031 20.921875 111.460938 20.648438 112.363281 20.457031 C 113.269531 20.269531 114.183594 20.167969 115.105469 20.160156 Z M 115.105469 20.160156 " fill-opacity="1" fill-rule="nonzero"/><path fill="#00f3f7" d="M 210.28125 78.957031 L 161.777344 78.957031 C 160.613281 78.957031 159.453125 79.011719 158.296875 79.128906 C 157.136719 79.242188 155.988281 79.410156 154.847656 79.640625 C 153.703125 79.867188 152.578125 80.148438 151.460938 80.484375 C 150.347656 80.824219 149.253906 81.214844 148.179688 81.660156 C 147.105469 82.105469 146.050781 82.601562 145.027344 83.148438 C 144 83.695312 143 84.292969 142.035156 84.941406 C 141.066406 85.585938 140.132812 86.277344 139.230469 87.015625 C 138.332031 87.753906 137.46875 88.535156 136.644531 89.355469 C 135.824219 90.179688 135.042969 91.039062 134.300781 91.9375 C 133.5625 92.835938 132.871094 93.769531 132.222656 94.738281 C 131.574219 95.703125 130.976562 96.699219 130.425781 97.726562 C 129.875 98.753906 129.378906 99.800781 128.933594 100.878906 C 128.484375 101.953125 128.09375 103.046875 127.753906 104.160156 C 127.414062 105.273438 127.128906 106.398438 126.902344 107.539062 C 126.671875 108.683594 126.5 109.832031 126.386719 110.988281 C 126.269531 112.148438 126.210938 113.308594 126.207031 114.472656 L 126.207031 178.875 C 126.214844 179.339844 126.269531 179.796875 126.367188 180.25 C 126.464844 180.703125 126.609375 181.140625 126.792969 181.566406 C 126.980469 181.992188 127.207031 182.390625 127.472656 182.773438 C 127.738281 183.152344 128.042969 183.5 128.378906 183.820312 C 128.714844 184.136719 129.078125 184.421875 129.472656 184.664062 C 129.863281 184.910156 130.277344 185.117188 130.710938 185.28125 C 131.144531 185.441406 131.589844 185.5625 132.050781 185.636719 C 132.507812 185.710938 132.96875 185.738281 133.429688 185.71875 L 239.007812 185.71875 C 239.457031 185.714844 239.898438 185.667969 240.339844 185.578125 C 240.777344 185.488281 241.207031 185.359375 241.617188 185.183594 C 242.03125 185.011719 242.425781 184.800781 242.796875 184.550781 C 243.171875 184.300781 243.515625 184.015625 243.832031 183.699219 C 244.148438 183.382812 244.433594 183.039062 244.683594 182.664062 C 244.933594 182.292969 245.144531 181.898438 245.316406 181.484375 C 245.492188 181.074219 245.621094 180.644531 245.710938 180.207031 C 245.800781 179.765625 245.847656 179.324219 245.851562 178.875 L 245.851562 114.472656 C 245.851562 113.308594 245.792969 112.148438 245.675781 110.988281 C 245.558594 109.832031 245.386719 108.683594 245.160156 107.539062 C 244.929688 106.398438 244.648438 105.273438 244.308594 104.160156 C 243.96875 103.046875 243.574219 101.953125 243.128906 100.878906 C 242.683594 99.800781 242.183594 98.753906 241.636719 97.726562 C 241.085938 96.699219 240.488281 95.703125 239.839844 94.738281 C 239.191406 93.769531 238.5 92.835938 237.757812 91.9375 C 237.019531 91.039062 236.238281 90.179688 235.414062 89.355469 C 234.589844 88.535156 233.730469 87.753906 232.828125 87.015625 C 231.929688 86.277344 230.996094 85.585938 230.027344 84.941406 C 229.058594 84.292969 228.0625 83.695312 227.035156 83.148438 C 226.007812 82.601562 224.957031 82.105469 223.882812 81.660156 C 222.808594 81.214844 221.710938 80.824219 220.597656 80.484375 C 219.484375 80.148438 218.355469 79.867188 217.214844 79.640625 C 216.074219 79.410156 214.925781 79.242188 213.765625 79.128906 C 212.609375 79.011719 211.445312 78.957031 210.28125 78.957031 Z M 232.109375 171.921875 L 219.660156 171.921875 L 219.660156 128.378906 C 219.703125 127.898438 219.695312 127.425781 219.636719 126.949219 C 219.582031 126.472656 219.476562 126.007812 219.324219 125.554688 C 219.167969 125.101562 218.972656 124.671875 218.726562 124.257812 C 218.484375 123.847656 218.199219 123.464844 217.878906 123.109375 C 217.554688 122.757812 217.199219 122.441406 216.808594 122.164062 C 216.421875 121.882812 216.007812 121.648438 215.570312 121.453125 C 215.128906 121.261719 214.675781 121.117188 214.210938 121.015625 C 213.742188 120.917969 213.265625 120.871094 212.789062 120.871094 C 212.308594 120.871094 211.835938 120.917969 211.367188 121.015625 C 210.898438 121.117188 210.445312 121.261719 210.007812 121.453125 C 209.570312 121.648438 209.15625 121.882812 208.769531 122.164062 C 208.378906 122.441406 208.023438 122.757812 207.699219 123.109375 C 207.375 123.464844 207.09375 123.847656 206.851562 124.257812 C 206.605469 124.671875 206.40625 125.101562 206.253906 125.554688 C 206.101562 126.007812 205.996094 126.472656 205.9375 126.949219 C 205.882812 127.425781 205.875 127.898438 205.917969 128.378906 L 205.917969 171.921875 L 165.765625 171.921875 L 165.765625 128.378906 C 165.808594 127.898438 165.800781 127.425781 165.746094 126.949219 C 165.6875 126.472656 165.582031 126.007812 165.429688 125.554688 C 165.277344 125.101562 165.078125 124.671875 164.832031 124.257812 C 164.589844 123.847656 164.308594 123.464844 163.984375 123.109375 C 163.660156 122.757812 163.304688 122.441406 162.914062 122.164062 C 162.527344 121.882812 162.113281 121.648438 161.675781 121.453125 C 161.238281 121.261719 160.785156 121.117188 160.316406 121.015625 C 159.847656 120.917969 159.375 120.871094 158.894531 120.871094 C 158.417969 120.871094 157.941406 120.917969 157.476562 121.015625 C 157.007812 121.117188 156.554688 121.261719 156.113281 121.453125 C 155.675781 121.648438 155.261719 121.882812 154.875 122.164062 C 154.484375 122.441406 154.128906 122.757812 153.804688 123.109375 C 153.484375 123.464844 153.199219 123.847656 152.957031 124.257812 C 152.714844 124.671875 152.515625 125.101562 152.359375 125.554688 C 152.207031 126.007812 152.101562 126.472656 152.046875 126.949219 C 151.988281 127.425781 151.980469 127.898438 152.023438 128.378906 L 152.023438 171.921875 L 140.058594 171.921875 L 140.058594 114.472656 C 140.058594 113.765625 140.09375 113.0625 140.164062 112.359375 C 140.234375 111.65625 140.335938 110.960938 140.472656 110.265625 C 140.613281 109.574219 140.78125 108.890625 140.988281 108.214844 C 141.191406 107.539062 141.429688 106.875 141.699219 106.222656 C 141.96875 105.570312 142.273438 104.933594 142.605469 104.308594 C 142.9375 103.6875 143.300781 103.082031 143.691406 102.496094 C 144.085938 101.910156 144.503906 101.34375 144.953125 100.796875 C 145.402344 100.25 145.875 99.726562 146.375 99.230469 C 146.871094 98.730469 147.394531 98.257812 147.941406 97.808594 C 148.488281 97.359375 149.054688 96.941406 149.640625 96.546875 C 150.226562 96.15625 150.832031 95.792969 151.453125 95.460938 C 152.078125 95.128906 152.714844 94.828125 153.367188 94.554688 C 154.019531 94.285156 154.683594 94.046875 155.359375 93.84375 C 156.035156 93.636719 156.71875 93.46875 157.410156 93.328125 C 158.105469 93.191406 158.800781 93.089844 159.503906 93.019531 C 160.207031 92.949219 160.910156 92.914062 161.617188 92.914062 L 210.121094 92.914062 C 210.832031 92.914062 211.539062 92.949219 212.242188 93.019531 C 212.949219 93.085938 213.652344 93.191406 214.347656 93.328125 C 215.042969 93.464844 215.730469 93.636719 216.410156 93.839844 C 217.089844 94.042969 217.757812 94.28125 218.410156 94.550781 C 219.066406 94.820312 219.710938 95.121094 220.335938 95.453125 C 220.964844 95.785156 221.574219 96.144531 222.164062 96.535156 C 222.753906 96.929688 223.328125 97.347656 223.878906 97.792969 C 224.429688 98.242188 224.957031 98.714844 225.460938 99.210938 C 225.964844 99.710938 226.445312 100.234375 226.898438 100.777344 C 227.351562 101.324219 227.777344 101.890625 228.175781 102.476562 C 228.574219 103.0625 228.945312 103.667969 229.285156 104.289062 C 229.625 104.910156 229.933594 105.550781 230.210938 106.203125 C 230.488281 106.855469 230.730469 107.519531 230.945312 108.195312 C 231.15625 108.875 231.335938 109.558594 231.484375 110.253906 C 231.628906 110.945312 231.742188 111.644531 231.816406 112.351562 C 231.894531 113.054688 231.9375 113.761719 231.949219 114.472656 Z M 232.109375 171.921875 " fill-opacity="1" fill-rule="nonzero"/><path fill="#00f3f7" d="M 186.085938 74.539062 C 187.105469 74.539062 188.125 74.492188 189.140625 74.390625 C 190.15625 74.292969 191.164062 74.144531 192.167969 73.949219 C 193.167969 73.75 194.160156 73.503906 195.136719 73.210938 C 196.113281 72.914062 197.074219 72.574219 198.019531 72.183594 C 198.960938 71.792969 199.882812 71.359375 200.785156 70.878906 C 201.6875 70.398438 202.5625 69.875 203.410156 69.308594 C 204.261719 68.742188 205.082031 68.136719 205.871094 67.492188 C 206.660156 66.84375 207.417969 66.160156 208.140625 65.4375 C 208.863281 64.71875 209.546875 63.964844 210.195312 63.175781 C 210.84375 62.386719 211.453125 61.566406 212.023438 60.71875 C 212.589844 59.871094 213.113281 58.996094 213.597656 58.097656 C 214.078125 57.195312 214.515625 56.277344 214.90625 55.332031 C 215.300781 54.390625 215.644531 53.429688 215.941406 52.453125 C 216.238281 51.476562 216.484375 50.488281 216.6875 49.484375 C 216.886719 48.484375 217.035156 47.476562 217.136719 46.460938 C 217.238281 45.445312 217.289062 44.425781 217.289062 43.40625 C 217.289062 42.382812 217.238281 41.367188 217.140625 40.347656 C 217.039062 39.332031 216.890625 38.324219 216.691406 37.324219 C 216.496094 36.320312 216.246094 35.332031 215.949219 34.355469 C 215.65625 33.378906 215.3125 32.417969 214.921875 31.472656 C 214.53125 30.53125 214.09375 29.609375 213.613281 28.707031 C 213.132812 27.808594 212.609375 26.933594 212.042969 26.085938 C 211.472656 25.234375 210.867188 24.417969 210.21875 23.628906 C 209.570312 22.835938 208.886719 22.082031 208.164062 21.359375 C 207.441406 20.636719 206.6875 19.953125 205.898438 19.304688 C 205.109375 18.660156 204.289062 18.050781 203.441406 17.484375 C 202.59375 16.917969 201.71875 16.394531 200.816406 15.910156 C 199.917969 15.429688 198.996094 14.996094 198.050781 14.605469 C 197.109375 14.214844 196.148438 13.871094 195.171875 13.574219 C 194.191406 13.277344 193.203125 13.03125 192.203125 12.832031 C 191.199219 12.632812 190.191406 12.484375 189.175781 12.386719 C 188.160156 12.285156 187.140625 12.234375 186.121094 12.238281 C 185.097656 12.238281 184.082031 12.289062 183.066406 12.386719 C 182.050781 12.488281 181.039062 12.640625 180.039062 12.839844 C 179.039062 13.039062 178.050781 13.289062 177.070312 13.585938 C 176.09375 13.882812 175.136719 14.226562 174.191406 14.617188 C 173.25 15.007812 172.328125 15.445312 171.429688 15.929688 C 170.527344 16.410156 169.65625 16.9375 168.804688 17.503906 C 167.957031 18.070312 167.140625 18.679688 166.351562 19.328125 C 165.5625 19.976562 164.808594 20.664062 164.085938 21.386719 C 163.363281 22.109375 162.679688 22.863281 162.035156 23.65625 C 161.386719 24.445312 160.78125 25.265625 160.214844 26.113281 C 159.648438 26.964844 159.125 27.839844 158.644531 28.742188 C 158.164062 29.640625 157.730469 30.5625 157.34375 31.507812 C 156.953125 32.453125 156.609375 33.410156 156.316406 34.390625 C 156.019531 35.367188 155.773438 36.355469 155.578125 37.359375 C 155.378906 38.359375 155.230469 39.367188 155.132812 40.386719 C 155.035156 41.402344 154.984375 42.417969 154.988281 43.441406 C 154.988281 44.457031 155.042969 45.472656 155.140625 46.488281 C 155.242188 47.5 155.394531 48.503906 155.59375 49.503906 C 155.792969 50.5 156.042969 51.488281 156.339844 52.460938 C 156.636719 53.433594 156.980469 54.390625 157.371094 55.332031 C 157.757812 56.273438 158.195312 57.191406 158.675781 58.089844 C 159.15625 58.988281 159.679688 59.859375 160.246094 60.703125 C 160.8125 61.550781 161.417969 62.367188 162.0625 63.152344 C 162.707031 63.941406 163.390625 64.695312 164.113281 65.414062 C 164.832031 66.132812 165.585938 66.816406 166.371094 67.460938 C 167.160156 68.109375 167.976562 68.714844 168.820312 69.28125 C 169.667969 69.847656 170.539062 70.371094 171.4375 70.851562 C 172.332031 71.332031 173.253906 71.765625 174.191406 72.15625 C 175.132812 72.546875 176.089844 72.890625 177.0625 73.1875 C 178.039062 73.484375 179.023438 73.730469 180.023438 73.929688 C 181.019531 74.128906 182.023438 74.28125 183.039062 74.382812 C 184.050781 74.484375 185.066406 74.535156 186.085938 74.539062 Z M 203.492188 43.441406 C 203.492188 44.011719 203.464844 44.582031 203.410156 45.148438 C 203.351562 45.714844 203.269531 46.28125 203.15625 46.839844 C 203.046875 47.398438 202.90625 47.953125 202.742188 48.496094 C 202.574219 49.042969 202.382812 49.578125 202.164062 50.105469 C 201.945312 50.632812 201.703125 51.148438 201.433594 51.652344 C 201.164062 52.15625 200.871094 52.644531 200.554688 53.117188 C 200.238281 53.589844 199.898438 54.050781 199.535156 54.488281 C 199.171875 54.929688 198.789062 55.351562 198.386719 55.757812 C 197.984375 56.160156 197.5625 56.542969 197.121094 56.902344 C 196.679688 57.265625 196.222656 57.605469 195.746094 57.921875 C 195.273438 58.238281 194.78125 58.53125 194.28125 58.796875 C 193.777344 59.066406 193.261719 59.308594 192.734375 59.527344 C 192.207031 59.746094 191.667969 59.9375 191.125 60.101562 C 190.578125 60.269531 190.023438 60.40625 189.464844 60.515625 C 188.90625 60.628906 188.339844 60.710938 187.773438 60.765625 C 187.207031 60.820312 186.636719 60.847656 186.066406 60.847656 C 185.496094 60.847656 184.925781 60.820312 184.359375 60.761719 C 183.792969 60.707031 183.226562 60.621094 182.667969 60.511719 C 182.109375 60.398438 181.554688 60.257812 181.011719 60.09375 C 180.464844 59.925781 179.929688 59.734375 179.402344 59.515625 C 178.875 59.296875 178.359375 59.050781 177.859375 58.78125 C 177.355469 58.511719 176.867188 58.21875 176.394531 57.902344 C 175.917969 57.582031 175.460938 57.242188 175.019531 56.878906 C 174.582031 56.519531 174.160156 56.132812 173.757812 55.730469 C 173.355469 55.328125 172.972656 54.902344 172.609375 54.460938 C 172.25 54.019531 171.910156 53.5625 171.59375 53.085938 C 171.277344 52.613281 170.984375 52.125 170.71875 51.621094 C 170.449219 51.117188 170.207031 50.601562 169.988281 50.074219 C 169.773438 49.546875 169.582031 49.007812 169.417969 48.460938 C 169.253906 47.917969 169.113281 47.363281 169.003906 46.804688 C 168.894531 46.242188 168.8125 45.679688 168.757812 45.113281 C 168.703125 44.542969 168.675781 43.976562 168.675781 43.40625 C 168.679688 42.835938 168.707031 42.265625 168.765625 41.699219 C 168.820312 41.128906 168.90625 40.566406 169.019531 40.007812 C 169.132812 39.449219 169.269531 38.894531 169.4375 38.351562 C 169.605469 37.804688 169.796875 37.269531 170.015625 36.742188 C 170.238281 36.214844 170.480469 35.699219 170.753906 35.199219 C 171.023438 34.695312 171.316406 34.207031 171.632812 33.734375 C 171.953125 33.261719 172.292969 32.804688 172.65625 32.363281 C 173.019531 31.921875 173.402344 31.503906 173.808594 31.101562 C 174.210938 30.699219 174.636719 30.316406 175.078125 29.957031 C 175.519531 29.59375 175.976562 29.257812 176.453125 28.941406 C 176.929688 28.625 177.417969 28.332031 177.921875 28.066406 C 178.425781 27.796875 178.941406 27.554688 179.46875 27.339844 C 179.996094 27.121094 180.535156 26.933594 181.078125 26.769531 C 181.625 26.605469 182.179688 26.46875 182.738281 26.359375 C 183.300781 26.246094 183.863281 26.167969 184.429688 26.113281 C 185 26.058594 185.566406 26.03125 186.136719 26.03125 C 186.707031 26.03125 187.277344 26.0625 187.84375 26.117188 C 188.410156 26.171875 188.972656 26.257812 189.53125 26.367188 C 190.089844 26.480469 190.640625 26.617188 191.1875 26.785156 C 191.730469 26.949219 192.265625 27.140625 192.792969 27.359375 C 193.316406 27.578125 193.832031 27.820312 194.332031 28.089844 C 194.835938 28.359375 195.324219 28.652344 195.796875 28.96875 C 196.269531 29.285156 196.726562 29.625 197.164062 29.988281 C 197.605469 30.347656 198.027344 30.730469 198.429688 31.136719 C 198.832031 31.539062 199.210938 31.960938 199.574219 32.402344 C 199.933594 32.84375 200.269531 33.300781 200.585938 33.773438 C 200.902344 34.246094 201.191406 34.734375 201.460938 35.238281 C 201.726562 35.742188 201.96875 36.257812 202.1875 36.785156 C 202.402344 37.308594 202.59375 37.847656 202.757812 38.390625 C 202.921875 38.9375 203.058594 39.488281 203.167969 40.046875 C 203.277344 40.605469 203.359375 41.167969 203.414062 41.734375 C 203.46875 42.304688 203.492188 42.871094 203.492188 43.441406 Z M 203.492188 43.441406 " fill-opacity="1" fill-rule="nonzero"/><g clip-path="url(#7f43210604)"><path fill="#00f3f7" d="M 330.359375 146.96875 C 329.710938 146.027344 328.882812 145.289062 327.875 144.757812 C 326.863281 144.222656 325.785156 143.957031 324.644531 143.953125 C 324.035156 143.988281 323.441406 144.101562 322.859375 144.292969 C 322.28125 144.488281 321.734375 144.753906 321.226562 145.089844 C 320.714844 145.425781 320.257812 145.820312 319.851562 146.277344 C 319.445312 146.734375 319.105469 147.238281 318.832031 147.785156 C 318.5625 148.328125 318.363281 148.902344 318.242188 149.5 C 318.117188 150.101562 318.074219 150.703125 318.113281 151.3125 C 318.148438 151.921875 318.265625 152.519531 318.457031 153.097656 C 318.652344 153.675781 318.917969 154.222656 319.253906 154.730469 C 320.179688 155.980469 320.894531 157.34375 321.402344 158.8125 C 321.90625 160.285156 322.179688 161.796875 322.21875 163.355469 C 322.070312 165.550781 321.53125 167.652344 320.601562 169.648438 C 319.671875 171.644531 318.414062 173.410156 316.832031 174.941406 C 300.015625 193.210938 252.15625 206.308594 197.996094 207.925781 L 196.863281 207.925781 C 193.269531 207.925781 189.820312 207.925781 186.515625 207.925781 C 183.011719 207.925781 179.617188 207.925781 176.167969 207.925781 L 175.035156 207.925781 C 121.144531 206.308594 72.960938 193.210938 56.148438 174.941406 C 54.550781 173.417969 53.289062 171.65625 52.359375 169.65625 C 51.429688 167.65625 50.894531 165.554688 50.757812 163.355469 C 50.808594 161.800781 51.085938 160.289062 51.59375 158.820312 C 52.097656 157.351562 52.808594 155.988281 53.722656 154.730469 C 53.980469 154.359375 54.195312 153.964844 54.375 153.546875 C 54.554688 153.128906 54.691406 152.699219 54.785156 152.257812 C 54.878906 151.816406 54.929688 151.367188 54.933594 150.914062 C 54.941406 150.460938 54.902344 150.011719 54.820312 149.566406 C 54.738281 149.121094 54.613281 148.6875 54.445312 148.265625 C 54.277344 147.847656 54.070312 147.445312 53.820312 147.066406 C 53.574219 146.6875 53.292969 146.332031 52.976562 146.007812 C 52.660156 145.683594 52.316406 145.394531 51.945312 145.136719 C 50.773438 144.339844 49.480469 143.945312 48.0625 143.953125 C 46.976562 144.007812 45.960938 144.300781 45.015625 144.828125 C 44.066406 145.359375 43.285156 146.074219 42.671875 146.96875 C 40.980469 149.332031 39.675781 151.890625 38.757812 154.648438 C 37.839844 157.402344 37.347656 160.234375 37.285156 163.136719 C 37.34375 165.257812 37.617188 167.351562 38.09375 169.417969 C 38.574219 171.480469 39.253906 173.480469 40.132812 175.410156 C 41.011719 177.339844 42.074219 179.164062 43.320312 180.878906 C 44.5625 182.597656 45.964844 184.175781 47.523438 185.613281 L 123.621094 284.667969 L 123.621094 353.167969 C 123.664062 353.9375 123.820312 354.679688 124.097656 355.402344 C 124.371094 356.121094 124.753906 356.78125 125.234375 357.378906 C 125.71875 357.980469 126.285156 358.492188 126.929688 358.914062 C 127.574219 359.335938 128.269531 359.648438 129.011719 359.851562 C 147.648438 365.542969 166.707031 368.378906 186.191406 368.363281 C 205.859375 368.355469 225.101562 365.480469 243.914062 359.742188 C 244.613281 359.519531 245.261719 359.195312 245.855469 358.769531 C 246.453125 358.339844 246.96875 357.832031 247.40625 357.242188 C 247.839844 356.652344 248.175781 356.007812 248.40625 355.3125 C 248.636719 354.617188 248.757812 353.902344 248.761719 353.167969 L 248.761719 284.667969 L 325.398438 185.882812 C 326.972656 184.445312 328.386719 182.867188 329.640625 181.148438 C 330.898438 179.429688 331.96875 177.601562 332.859375 175.667969 C 333.746094 173.734375 334.433594 171.730469 334.921875 169.65625 C 335.40625 167.582031 335.683594 165.480469 335.746094 163.355469 C 335.707031 160.414062 335.226562 157.542969 334.304688 154.75 C 333.386719 151.957031 332.070312 149.363281 330.359375 146.96875 Z M 237.390625 276.585938 C 233.324219 278.191406 229.191406 279.605469 224.992188 280.824219 C 220.792969 282.042969 216.546875 283.0625 212.253906 283.878906 C 207.957031 284.699219 203.632812 285.3125 199.28125 285.726562 C 194.925781 286.136719 190.566406 286.339844 186.191406 286.339844 C 181.820312 286.339844 177.457031 286.136719 173.105469 285.726562 C 168.75 285.3125 164.425781 284.699219 160.132812 283.878906 C 155.835938 283.0625 151.589844 282.042969 147.390625 280.824219 C 143.191406 279.605469 139.058594 278.191406 134.992188 276.585938 L 79.160156 205.175781 C 82.230469 206.359375 85.464844 207.492188 88.808594 208.570312 L 92.472656 209.703125 L 97.105469 211.050781 C 117.4375 216.523438 138.117188 219.863281 159.136719 221.074219 L 168.03125 221.613281 L 171.855469 221.613281 C 176.597656 221.613281 181.34375 221.613281 186.085938 221.613281 C 190.828125 221.613281 195.515625 221.613281 200.257812 221.613281 L 204.085938 221.613281 L 212.976562 221.074219 C 233.992188 219.910156 254.667969 216.625 275.007812 211.210938 L 279.75 209.863281 L 283.308594 208.730469 C 286.648438 207.65625 289.882812 206.523438 292.957031 205.335938 Z M 137.363281 347.992188 L 137.363281 292.050781 C 145.207031 294.710938 153.210938 296.714844 161.382812 298.058594 C 169.550781 299.40625 177.777344 300.082031 186.058594 300.082031 C 194.335938 300.082031 202.5625 299.40625 210.734375 298.058594 C 218.902344 296.714844 226.910156 294.710938 234.75 292.050781 L 234.75 347.992188 C 218.882812 352.398438 202.714844 354.609375 186.246094 354.621094 C 169.652344 354.621094 153.359375 352.410156 137.363281 347.992188 Z M 137.363281 347.992188 " fill-opacity="1" fill-rule="nonzero"/></g></svg>