<svg xmlns="http://www.w3.org/2000/svg" xmlns:xlink="http://www.w3.org/1999/xlink" width="500" zoomAndPan="magnify" viewBox="0 0 375 374.999991" height="500" preserveAspectRatio="xMidYMid meet" version="1.0"><defs><clipPath id="2f51d5f98a"><path d="M 244 147 L 371.609375 147 L 371.609375 275 L 244 275 Z M 244 147 " clip-rule="nonzero"/></clipPath><clipPath id="b3da3ceea6"><path d="M 3.359375 147 L 131 147 L 131 275 L 3.359375 275 Z M 3.359375 147 " clip-rule="nonzero"/></clipPath></defs><g clip-path="url(#2f51d5f98a)"><path fill="#00f3f7" d="M 327.019531 209.695312 C 336.089844 203.59375 342.070312 193.242188 342.070312 181.515625 C 342.070312 162.800781 326.84375 147.578125 308.125 147.578125 C 289.410156 147.578125 274.1875 162.800781 274.1875 181.515625 C 274.1875 193.242188 280.164062 203.59375 289.234375 209.695312 C 263.414062 217.757812 244.621094 241.890625 244.621094 270.332031 C 244.621094 272.714844 246.554688 274.648438 248.9375 274.648438 L 367.320312 274.648438 C 369.699219 274.648438 371.632812 272.714844 371.632812 270.332031 C 371.632812 241.890625 352.839844 217.757812 327.019531 209.695312 Z M 282.816406 181.515625 C 282.816406 167.5625 294.171875 156.207031 308.125 156.207031 C 322.085938 156.207031 333.4375 167.5625 333.4375 181.515625 C 333.4375 195.46875 322.085938 206.824219 308.125 206.824219 C 294.171875 206.824219 282.816406 195.46875 282.816406 181.515625 Z M 253.425781 266.011719 C 255.632812 237.757812 279.324219 215.449219 308.128906 215.449219 C 336.9375 215.449219 360.625 237.757812 362.835938 266.011719 Z M 253.425781 266.011719 " fill-opacity="1" fill-rule="nonzero"/></g><g clip-path="url(#b3da3ceea6)"><path fill="#00f3f7" d="M 130.375 270.328125 C 130.375 241.882812 111.582031 217.75 85.761719 209.6875 C 94.832031 203.589844 100.808594 193.238281 100.808594 181.511719 C 100.808594 162.796875 85.589844 147.570312 66.875 147.570312 C 48.164062 147.570312 32.9375 162.796875 32.9375 181.511719 C 32.9375 193.238281 38.917969 203.589844 47.984375 209.6875 C 22.15625 217.75 3.359375 241.890625 3.359375 270.328125 C 3.359375 272.710938 5.292969 274.644531 7.675781 274.644531 L 126.058594 274.644531 C 128.441406 274.644531 130.375 272.710938 130.375 270.328125 Z M 41.5625 181.515625 C 41.5625 167.5625 52.917969 156.207031 66.871094 156.207031 C 80.824219 156.207031 92.171875 167.5625 92.171875 181.515625 C 92.171875 195.46875 80.820312 206.824219 66.871094 206.824219 C 52.910156 206.824219 41.5625 195.46875 41.5625 181.515625 Z M 12.160156 266.011719 C 14.367188 237.757812 38.058594 215.449219 66.871094 215.449219 C 95.675781 215.449219 119.367188 237.757812 121.578125 266.011719 Z M 12.160156 266.011719 " fill-opacity="1" fill-rule="nonzero"/></g><path fill="#00f3f7" d="M 117.96875 126.535156 L 137.601562 126.535156 L 131.75 154.902344 C 130.96875 158.683594 135.175781 161.492188 138.378906 159.355469 L 187.332031 126.527344 L 295.476562 126.527344 C 302.351562 126.527344 307.953125 120.933594 307.953125 114.058594 L 307.953125 19.914062 C 307.953125 13.035156 302.351562 7.441406 295.476562 7.441406 L 117.96875 7.441406 C 111.09375 7.441406 105.5 13.035156 105.5 19.914062 L 105.5 114.0625 C 105.5 120.941406 111.09375 126.535156 117.96875 126.535156 Z M 114.128906 19.914062 C 114.128906 17.761719 115.816406 16.074219 117.96875 16.074219 L 295.480469 16.074219 C 297.601562 16.074219 299.324219 17.796875 299.324219 19.914062 L 299.324219 114.0625 C 299.324219 116.179688 297.601562 117.902344 295.480469 117.902344 L 186.019531 117.902344 C 185.167969 117.902344 184.328125 118.15625 183.613281 118.632812 L 142.332031 146.3125 L 147.125 123.085938 C 147.679688 120.433594 145.648438 117.902344 142.902344 117.902344 L 117.96875 117.902344 C 115.851562 117.902344 114.128906 116.179688 114.128906 114.0625 Z M 114.128906 19.914062 " fill-opacity="1" fill-rule="nonzero"/><path fill="#00f3f7" d="M 151.054688 85.9375 C 161.460938 85.9375 169.917969 77.449219 169.917969 67.015625 C 169.917969 56.613281 161.453125 48.15625 151.054688 48.15625 C 140.652344 48.15625 132.191406 56.617188 132.191406 67.015625 C 132.191406 77.449219 140.652344 85.9375 151.054688 85.9375 Z M 151.054688 56.785156 C 156.695312 56.785156 161.285156 61.378906 161.285156 67.015625 C 161.285156 72.691406 156.695312 77.304688 151.054688 77.304688 C 145.417969 77.304688 140.824219 72.691406 140.824219 67.015625 C 140.824219 61.378906 145.417969 56.785156 151.054688 56.785156 Z M 151.054688 56.785156 " fill-opacity="1" fill-rule="nonzero"/><path fill="#00f3f7" d="M 206.726562 85.9375 C 217.132812 85.9375 225.589844 77.449219 225.589844 67.015625 C 225.589844 56.613281 217.125 48.15625 206.726562 48.15625 C 196.324219 48.15625 187.867188 56.617188 187.867188 67.015625 C 187.859375 77.449219 196.324219 85.9375 206.726562 85.9375 Z M 206.726562 56.785156 C 212.367188 56.785156 216.960938 61.378906 216.960938 67.015625 C 216.960938 72.691406 212.367188 77.304688 206.726562 77.304688 C 201.089844 77.304688 196.496094 72.691406 196.496094 67.015625 C 196.492188 61.378906 201.082031 56.785156 206.726562 56.785156 Z M 206.726562 56.785156 " fill-opacity="1" fill-rule="nonzero"/><path fill="#00f3f7" d="M 262.402344 85.9375 C 272.804688 85.9375 281.261719 77.449219 281.261719 67.015625 C 281.261719 56.613281 272.800781 48.15625 262.402344 48.15625 C 251.996094 48.15625 243.539062 56.617188 243.539062 67.015625 C 243.53125 77.449219 251.996094 85.9375 262.402344 85.9375 Z M 262.402344 56.785156 C 268.039062 56.785156 272.632812 61.378906 272.632812 67.015625 C 272.632812 72.691406 268.039062 77.304688 262.402344 77.304688 C 256.757812 77.304688 252.167969 72.691406 252.167969 67.015625 C 252.164062 61.378906 256.757812 56.785156 262.402344 56.785156 Z M 262.402344 56.785156 " fill-opacity="1" fill-rule="nonzero"/><path fill="#00f3f7" d="M 211.261719 264.203125 C 228.53125 255.480469 240.425781 237.609375 240.425781 216.980469 C 240.425781 187.792969 216.683594 164.050781 187.496094 164.050781 C 158.316406 164.050781 134.574219 187.792969 134.574219 216.980469 C 134.574219 237.613281 146.46875 255.480469 163.734375 264.203125 C 119.273438 274.941406 86.105469 314.957031 86.105469 362.671875 C 86.105469 365.054688 88.039062 366.988281 90.421875 366.988281 L 284.578125 366.988281 C 286.960938 366.988281 288.894531 365.054688 288.894531 362.671875 C 288.894531 314.957031 255.726562 274.941406 211.261719 264.203125 Z M 143.207031 216.972656 C 143.207031 192.546875 163.078125 172.675781 187.496094 172.675781 C 211.925781 172.675781 231.792969 192.546875 231.792969 216.972656 C 231.792969 241.398438 211.925781 261.277344 187.496094 261.277344 C 163.078125 261.277344 143.207031 241.398438 143.207031 216.972656 Z M 94.835938 358.351562 C 97.097656 309.195312 137.792969 269.90625 187.496094 269.90625 C 237.203125 269.90625 277.902344 309.195312 280.164062 358.355469 L 94.835938 358.355469 Z M 94.835938 358.351562 " fill-opacity="1" fill-rule="nonzero"/></svg>