<svg xmlns="http://www.w3.org/2000/svg" xmlns:xlink="http://www.w3.org/1999/xlink" width="500" zoomAndPan="magnify" viewBox="0 0 375 374.999991" height="500" preserveAspectRatio="xMidYMid meet" version="1.0"><path fill="#00f3f7" d="M 331.1875 0.453125 C 306.429688 0.453125 286.273438 20.601562 286.273438 45.355469 C 286.273438 70.113281 306.429688 90.269531 331.1875 90.269531 C 355.945312 90.269531 376.09375 70.113281 376.09375 45.355469 C 376.09375 20.601562 355.945312 0.453125 331.1875 0.453125 Z M 331.1875 8.617188 C 351.53125 8.617188 367.925781 25.015625 367.925781 45.355469 C 367.925781 51.183594 366.578125 56.691406 364.179688 61.578125 C 355.222656 54.003906 343.710938 49.433594 331.1875 49.433594 C 318.671875 49.433594 307.140625 54 298.179688 61.5625 C 295.789062 56.679688 294.441406 51.175781 294.441406 45.355469 C 294.441406 25.015625 310.84375 8.617188 331.1875 8.617188 Z M 114.777344 86.171875 C 114.777344 126.714844 147.714844 159.683594 188.253906 159.683594 C 200.183594 159.683594 211.453125 156.824219 221.421875 151.765625 L 227.601562 162.484375 L 217.011719 168.609375 C 215.058594 169.730469 214.382812 172.226562 215.503906 174.183594 L 229.09375 197.722656 L 229.09375 212.761719 L 143.347656 212.761719 C 141.105469 212.769531 139.285156 214.585938 139.273438 216.832031 L 139.273438 253.601562 L 53.53125 253.601562 C 51.285156 253.605469 49.464844 255.425781 49.453125 257.667969 L 49.453125 367.929688 L 4.515625 367.929688 C 2.273438 367.9375 0.457031 369.753906 0.449219 371.996094 C 0.441406 374.25 2.261719 376.085938 4.515625 376.09375 L 371.992188 376.09375 C 374.261719 376.105469 376.101562 374.261719 376.09375 371.996094 C 376.082031 369.742188 374.25 367.917969 371.992188 367.929688 L 327.085938 367.929688 L 327.085938 176.023438 C 327.097656 173.765625 325.269531 171.929688 323.011719 171.925781 L 261.335938 171.925781 L 250.855469 153.773438 C 249.734375 151.820312 247.238281 151.144531 245.28125 152.265625 L 234.675781 158.398438 L 228.480469 147.671875 C 248.511719 134.527344 261.765625 111.875 261.765625 86.171875 C 261.765625 45.628906 228.796875 12.683594 188.253906 12.683594 C 147.714844 12.683594 114.777344 45.628906 114.777344 86.171875 Z M 331.1875 12.683594 C 322.214844 12.683594 314.847656 20.054688 314.847656 29.023438 C 314.847656 37.996094 322.214844 45.355469 331.1875 45.355469 C 340.160156 45.355469 347.519531 37.996094 347.519531 29.023438 C 347.519531 20.054688 340.160156 12.683594 331.1875 12.683594 Z M 188.253906 20.859375 C 224.382812 20.859375 253.601562 50.042969 253.601562 86.171875 C 253.601562 122.300781 224.382812 151.515625 188.253906 151.515625 C 152.128906 151.515625 122.941406 122.300781 122.941406 86.171875 C 122.941406 50.042969 152.128906 20.859375 188.253906 20.859375 Z M 331.1875 20.859375 C 335.746094 20.859375 339.351562 24.464844 339.351562 29.023438 C 339.351562 33.582031 335.746094 37.191406 331.1875 37.191406 C 326.628906 37.191406 323.011719 33.582031 323.011719 29.023438 C 323.011719 24.464844 326.628906 20.859375 331.1875 20.859375 Z M 188.253906 41.257812 C 163.5 41.257812 143.351562 61.414062 143.351562 86.171875 C 143.351562 110.929688 163.5 131.109375 188.253906 131.109375 C 213.011719 131.109375 233.195312 110.929688 233.195312 86.171875 C 233.195312 61.414062 213.011719 41.257812 188.253906 41.257812 Z M 188.253906 49.433594 C 208.597656 49.433594 225.027344 65.828125 225.027344 86.171875 C 225.027344 91.996094 223.679688 97.503906 221.277344 102.394531 C 212.316406 94.824219 200.78125 90.269531 188.253906 90.269531 C 175.730469 90.269531 164.222656 94.824219 155.265625 102.394531 C 152.867188 97.503906 151.515625 92 151.515625 86.171875 C 151.515625 65.828125 167.914062 49.433594 188.253906 49.433594 Z M 171.945312 69.863281 C 171.945312 78.835938 179.285156 86.171875 188.253906 86.171875 C 197.226562 86.171875 204.597656 78.835938 204.597656 69.863281 C 204.597656 60.890625 198.886719 53.53125 188.253906 53.53125 C 177.625 53.53125 171.945312 62.097656 171.945312 69.863281 Z M 331.1875 57.597656 C 342.125 57.597656 352.074219 61.703125 359.738281 68.523438 C 353.007812 76.816406 342.734375 82.105469 331.1875 82.105469 C 319.632812 82.105469 309.347656 76.808594 302.621094 68.507812 C 310.289062 61.699219 320.261719 57.597656 331.1875 57.597656 Z M 188.253906 61.699219 C 192.8125 61.699219 196.421875 65.304688 196.421875 69.863281 C 196.421875 74.421875 192.8125 78.007812 188.253906 78.007812 C 183.695312 78.007812 180.121094 74.421875 180.121094 69.863281 C 180.121094 65.304688 183.695312 61.699219 188.253906 61.699219 Z M 45.355469 78.007812 C 20.597656 78.007812 0.449219 98.1875 0.449219 122.945312 C 0.449219 147.699219 20.597656 167.847656 45.355469 167.847656 C 70.113281 167.847656 90.269531 147.699219 90.269531 122.945312 C 90.269531 98.1875 70.113281 78.007812 45.355469 78.007812 Z M 45.355469 86.171875 C 65.699219 86.171875 82.105469 102.601562 82.105469 122.945312 C 82.105469 128.765625 80.757812 134.257812 78.363281 139.140625 C 69.402344 131.578125 57.875 127.011719 45.355469 127.011719 C 32.832031 127.011719 21.320312 131.582031 12.363281 139.15625 C 9.964844 134.269531 8.617188 128.769531 8.617188 122.945312 C 8.617188 102.601562 25.011719 86.171875 45.355469 86.171875 Z M 29.023438 106.601562 C 29.023438 115.574219 36.382812 122.945312 45.355469 122.945312 C 54.328125 122.945312 61.695312 115.574219 61.695312 106.601562 C 61.695312 97.632812 54.5 90.265625 45.355469 90.265625 C 36.210938 90.265625 29.023438 97.773438 29.023438 106.601562 Z M 45.355469 98.4375 C 49.914062 98.4375 53.53125 102.046875 53.53125 106.601562 C 53.53125 111.160156 49.914062 114.777344 45.355469 114.777344 C 40.796875 114.777344 37.191406 111.160156 37.191406 106.601562 C 37.191406 102.046875 40.796875 98.4375 45.355469 98.4375 Z M 188.253906 98.4375 C 199.1875 98.4375 209.152344 102.539062 216.820312 109.355469 C 210.085938 117.648438 199.800781 122.945312 188.253906 122.945312 C 176.710938 122.945312 166.441406 117.648438 159.714844 109.355469 C 167.375 102.539062 177.324219 98.4375 188.253906 98.4375 Z M 331.1875 98.4375 C 328.933594 98.429688 327.097656 100.25 327.089844 102.503906 L 327.089844 122.945312 L 278.105469 122.945312 C 275.851562 122.933594 274.015625 124.753906 274.007812 127.011719 L 274.007812 159.683594 C 274.015625 161.9375 275.851562 163.757812 278.105469 163.75 C 280.351562 163.742188 282.164062 161.925781 282.175781 159.683594 L 282.175781 131.109375 L 331.1875 131.109375 C 333.441406 131.101562 335.261719 129.265625 335.253906 127.011719 L 335.253906 102.503906 C 335.246094 100.261719 333.429688 98.445312 331.1875 98.4375 Z M 45.355469 135.175781 C 56.28125 135.175781 66.253906 139.285156 73.921875 146.09375 C 67.195312 154.390625 56.910156 159.683594 45.355469 159.683594 C 33.808594 159.683594 23.542969 154.398438 16.8125 146.109375 C 24.476562 139.292969 34.421875 135.175781 45.355469 135.175781 Z M 245.855469 161.398438 L 276.472656 214.429688 L 255.234375 226.671875 L 224.636719 173.640625 Z M 188.253906 167.851562 C 186.011719 167.859375 184.191406 169.679688 184.1875 171.925781 L 184.1875 200.5 C 184.179688 202.753906 186 204.589844 188.253906 204.597656 C 190.523438 204.605469 192.363281 202.765625 192.355469 200.5 L 192.355469 171.925781 C 192.351562 169.667969 190.515625 167.839844 188.253906 167.851562 Z M 45.355469 176.023438 C 43.113281 176.03125 41.296875 177.847656 41.289062 180.089844 L 41.289062 204.597656 C 41.296875 206.839844 43.113281 208.65625 45.355469 208.664062 L 94.367188 208.664062 L 94.367188 237.269531 C 94.378906 239.511719 96.191406 241.328125 98.4375 241.335938 C 100.691406 241.347656 102.527344 239.523438 102.535156 237.269531 L 102.535156 204.597656 C 102.542969 202.328125 100.703125 200.488281 98.4375 200.5 L 49.453125 200.5 L 49.453125 180.089844 C 49.445312 177.835938 47.609375 176.015625 45.355469 176.023438 Z M 266.050781 180.089844 L 318.914062 180.089844 L 318.914062 367.929688 L 237.269531 367.929688 L 237.269531 211.886719 L 260.410156 251.976562 C 266.03125 261.710938 278.558594 265.066406 288.289062 259.449219 C 298.023438 253.828125 301.390625 241.300781 295.769531 231.566406 Z M 147.449219 220.929688 L 229.09375 220.929688 L 229.09375 367.929688 L 147.449219 367.929688 Z M 280.546875 221.488281 L 288.714844 235.636719 C 292.140625 241.574219 290.164062 248.9375 284.222656 252.367188 C 278.285156 255.792969 270.921875 253.847656 267.492188 247.910156 L 259.328125 233.753906 Z M 57.628906 261.746094 L 139.273438 261.746094 L 139.273438 367.929688 L 57.628906 367.929688 Z M 57.628906 261.746094 " fill-opacity="1" fill-rule="nonzero"/></svg>