<svg xmlns="http://www.w3.org/2000/svg" xmlns:xlink="http://www.w3.org/1999/xlink" width="500" zoomAndPan="magnify" viewBox="0 0 375 374.999991" height="500" preserveAspectRatio="xMidYMid meet" version="1.0"><defs><clipPath id="ddeb7e45c3"><path d="M 7.019531 18.75 L 357 18.75 L 357 356.25 L 7.019531 356.25 Z M 7.019531 18.75 " clip-rule="nonzero"/></clipPath></defs><g clip-path="url(#ddeb7e45c3)"><path fill="#00f3f7" d="M 40.222656 138.066406 L 157.207031 138.066406 C 160.226562 138.066406 162.628906 140.535156 162.628906 143.484375 C 162.628906 146.503906 160.15625 148.90625 157.207031 148.90625 L 40.222656 148.90625 C 33.019531 148.769531 33.089844 138.132812 40.222656 138.066406 Z M 40.222656 192.472656 L 132.78125 192.472656 C 139.917969 192.335938 139.984375 181.703125 132.78125 181.566406 C 132.78125 181.566406 40.222656 181.566406 40.222656 181.566406 C 33.089844 181.703125 33.019531 192.335938 40.222656 192.472656 Z M 40.222656 235.972656 L 92.230469 235.972656 C 99.367188 235.835938 99.367188 225.203125 92.230469 225.066406 C 92.230469 225.066406 40.222656 225.066406 40.222656 225.066406 C 33.089844 225.203125 33.019531 235.835938 40.222656 235.972656 Z M 132.714844 268.632812 L 40.222656 268.632812 C 33.089844 268.769531 33.019531 279.40625 40.222656 279.542969 C 40.222656 279.542969 132.714844 279.542969 132.714844 279.542969 C 139.847656 279.40625 139.917969 268.703125 132.714844 268.632812 Z M 326.472656 356.042969 C 318.03125 356.042969 309.9375 352.546875 304.171875 346.371094 C 304.171875 346.371094 263.007812 302.390625 263.007812 302.390625 C 255.117188 294.089844 238.304688 276.042969 230.347656 267.535156 L 230.347656 304.035156 C 230.347656 310.828125 224.789062 316.386719 217.996094 316.386719 L 210.863281 316.386719 L 210.863281 322.492188 C 223.484375 324.964844 233.089844 336.078125 233.089844 349.457031 C 233.089844 352.476562 230.621094 354.878906 227.671875 354.878906 L 49.691406 354.878906 C 46.675781 354.878906 44.273438 352.40625 44.273438 349.457031 C 44 336.628906 53.945312 324.6875 66.503906 322.492188 L 66.503906 316.386719 L 19.433594 316.386719 C 12.644531 316.386719 7.085938 310.828125 7.085938 304.035156 L 7.085938 69.589844 C 7.085938 68.148438 7.703125 66.777344 8.664062 65.75 L 54.085938 20.328125 C 55.113281 19.367188 56.484375 18.75 57.925781 18.75 L 217.859375 18.75 C 224.652344 18.75 230.210938 24.308594 230.210938 31.101562 L 230.210938 153.640625 C 230.210938 153.640625 255.527344 174.566406 255.527344 174.566406 C 273.230469 189.59375 255.253906 217.515625 234.394531 207.707031 L 229.796875 213.261719 L 236.796875 219.027344 C 241.597656 223.007812 242.902344 229.59375 240.570312 235.011719 C 270.210938 254.085938 316.453125 282.425781 346.027344 302.046875 C 367.914062 319.953125 354.808594 356.25 326.472656 356.042969 Z M 221.359375 160.363281 C 219.78125 159.402344 193.777344 136.625 192.335938 137.242188 C 182.800781 134.222656 176.210938 146.984375 184.445312 153.023438 C 184.445312 153.023438 236.796875 196.316406 236.796875 196.316406 C 240.570312 199.816406 246.609375 199.542969 249.832031 195.5625 C 252.988281 191.789062 252.441406 186.09375 248.667969 183.007812 C 248.597656 182.867188 221.359375 160.363281 221.359375 160.363281 Z M 225.613281 201.1875 L 181.703125 164.824219 C 176.007812 171.683594 147.875 205.785156 141.5625 213.402344 L 185.476562 249.695312 C 190.484375 243.589844 219.847656 208.117188 225.613281 201.1875 Z M 183.003906 261.839844 C 183.003906 261.839844 130.035156 218.066406 130.035156 218.066406 C 120.773438 210.585938 109.589844 223.898438 118.511719 231.71875 C 118.511719 231.71875 171.820312 275.835938 171.820312 275.835938 C 176.898438 280.296875 185.679688 276.867188 186.367188 270.140625 C 186.847656 266.988281 185.40625 263.761719 183.003906 261.839844 Z M 25.679688 64.101562 L 51.066406 64.101562 C 51.886719 64.101562 52.507812 63.417969 52.507812 62.660156 L 52.507812 37.273438 Z M 205.441406 332.921875 L 71.992188 332.921875 C 64.992188 332.714844 58.269531 337.449219 56.074219 344.039062 L 221.289062 344.039062 C 219.027344 337.519531 212.714844 332.851562 205.441406 332.921875 Z M 199.675781 312.542969 C 198.375 307.46875 193.984375 304.035156 188.90625 304.035156 L 88.527344 304.035156 C 82.421875 303.96875 77.410156 309.183594 77.410156 315.152344 L 77.410156 322.011719 L 200.019531 322.011719 C 199.882812 320.160156 200.296875 314.257812 199.675781 312.542969 Z M 219.371094 259.300781 C 215.457031 261.085938 210.863281 260.878906 207.085938 258.820312 C 205.441406 258 199.539062 252.851562 198.03125 251.617188 L 193.503906 257.105469 C 206.746094 276.25 183.28125 298.480469 164.890625 284.140625 C 164.890625 284.140625 111.582031 240.089844 111.582031 240.089844 C 93.878906 225.132812 111.855469 197.277344 132.78125 206.953125 C 137.171875 201.667969 170.242188 161.667969 173.675781 157.484375 C 163.449219 143.898438 175.183594 123.519531 192.128906 126.058594 C 195.835938 126.539062 199.335938 127.980469 202.285156 130.449219 L 219.371094 144.582031 L 219.371094 31.03125 C 219.371094 30.207031 218.683594 29.589844 217.859375 29.589844 L 63.414062 29.589844 L 63.414062 62.660156 C 63.414062 69.453125 57.859375 75.011719 51.066406 75.011719 L 17.996094 75.011719 L 17.996094 304.035156 C 17.996094 304.859375 18.679688 305.546875 19.433594 305.546875 L 68.765625 305.546875 C 72.402344 298.136719 80.226562 293.128906 88.527344 293.195312 L 188.90625 293.195312 C 197.140625 293.195312 205.097656 298.136719 208.664062 305.546875 L 217.929688 305.546875 C 218.75 305.546875 219.4375 304.859375 219.4375 304.035156 L 219.4375 259.300781 Z M 230.277344 231.238281 C 231.238281 230.074219 231.101562 228.289062 229.933594 227.328125 L 222.9375 221.566406 L 204.960938 243.246094 L 211.960938 249.011719 C 213.125 249.972656 214.910156 249.832031 215.871094 248.667969 C 218.066406 245.992188 228.015625 233.914062 230.277344 231.238281 Z M 253.46875 276.316406 L 264.515625 262.9375 L 234.121094 243.660156 C 232.816406 245.238281 230.210938 248.394531 228.90625 249.972656 Z M 266.640625 290.382812 L 280.777344 273.296875 L 273.777344 268.839844 L 260.949219 284.34375 Z M 337.039062 308.839844 L 290.109375 279.128906 L 274.191406 298.410156 C 274.191406 298.410156 312.199219 338.960938 312.199219 338.960938 C 319.886719 347.605469 334.566406 347.125 341.773438 338.066406 C 349.25 329.011719 346.988281 315.082031 337.039062 308.839844 Z M 124.546875 82.832031 C 126.8125 27.875 205.097656 27.875 207.363281 82.832031 C 207.363281 105.679688 188.769531 124.273438 165.921875 124.273438 C 143.074219 124.273438 124.546875 105.679688 124.546875 82.832031 Z M 135.457031 82.832031 C 136.96875 123.246094 195.011719 123.3125 196.523438 82.832031 C 196.523438 66.023438 182.800781 52.300781 165.988281 52.300781 C 149.179688 52.300781 135.457031 66.023438 135.457031 82.832031 Z M 156.589844 96.761719 C 158.714844 98.886719 162.148438 98.886719 164.273438 96.761719 L 184.378906 76.65625 C 189.316406 71.511719 181.839844 63.964844 176.691406 68.972656 C 176.691406 68.972656 160.433594 85.234375 160.433594 85.234375 L 155.285156 80.089844 C 150.140625 75.148438 142.59375 82.628906 147.601562 87.773438 C 147.601562 87.773438 156.589844 96.761719 156.589844 96.761719 Z M 156.589844 96.761719 " fill-opacity="1" fill-rule="nonzero"/></g></svg>