<svg xmlns="http://www.w3.org/2000/svg" xmlns:xlink="http://www.w3.org/1999/xlink" width="500" zoomAndPan="magnify" viewBox="0 0 375 374.999991" height="500" preserveAspectRatio="xMidYMid meet" version="1.0"><defs><clipPath id="babcedd087"><path d="M 8.117188 8.117188 L 366.617188 8.117188 L 366.617188 366.617188 L 8.117188 366.617188 Z M 8.117188 8.117188 " clip-rule="nonzero"/></clipPath></defs><g clip-path="url(#babcedd087)"><path fill="#00f3f7" d="M 324.960938 8.550781 C 301.277344 8.550781 281.992188 27.828125 281.992188 51.511719 C 281.992188 75.195312 301.277344 94.480469 324.960938 94.480469 C 348.644531 94.480469 367.921875 75.195312 367.921875 51.511719 C 367.921875 27.828125 348.644531 8.550781 324.960938 8.550781 Z M 324.960938 16.363281 C 344.421875 16.363281 360.109375 32.050781 360.109375 51.511719 C 360.109375 57.085938 358.816406 62.355469 356.523438 67.03125 C 347.953125 59.785156 336.945312 55.410156 324.960938 55.410156 C 312.988281 55.410156 301.957031 59.78125 293.382812 67.015625 C 291.09375 62.34375 289.804688 57.078125 289.804688 51.511719 C 289.804688 32.050781 305.5 16.363281 324.960938 16.363281 Z M 117.921875 90.558594 C 117.921875 129.34375 149.433594 160.886719 188.21875 160.886719 C 199.632812 160.886719 210.414062 158.152344 219.949219 153.308594 L 225.863281 163.5625 L 215.730469 169.421875 C 213.859375 170.496094 213.214844 172.886719 214.289062 174.757812 L 227.289062 197.277344 L 227.289062 211.667969 L 145.257812 211.667969 C 143.109375 211.671875 141.367188 213.410156 141.359375 215.558594 L 141.359375 250.738281 L 59.328125 250.738281 C 57.179688 250.742188 55.441406 252.480469 55.429688 254.628906 L 55.429688 360.109375 L 12.441406 360.109375 C 10.292969 360.121094 8.558594 361.855469 8.546875 364.003906 C 8.539062 366.160156 10.28125 367.914062 12.441406 367.921875 L 364 367.921875 C 366.167969 367.933594 367.929688 366.171875 367.921875 364.003906 C 367.914062 361.84375 366.15625 360.101562 364 360.109375 L 321.039062 360.109375 L 321.039062 176.519531 C 321.046875 174.359375 319.300781 172.601562 317.140625 172.597656 L 258.136719 172.597656 L 248.109375 155.234375 C 247.035156 153.363281 244.648438 152.714844 242.777344 153.789062 L 232.628906 159.65625 L 226.703125 149.394531 C 245.867188 136.820312 258.546875 115.148438 258.546875 90.558594 C 258.546875 51.773438 227.007812 20.253906 188.21875 20.253906 C 149.433594 20.253906 117.921875 51.773438 117.921875 90.558594 Z M 324.960938 20.253906 C 316.378906 20.253906 309.328125 27.304688 309.328125 35.886719 C 309.328125 44.46875 316.378906 51.511719 324.960938 51.511719 C 333.542969 51.511719 340.585938 44.46875 340.585938 35.886719 C 340.585938 27.304688 333.542969 20.253906 324.960938 20.253906 Z M 188.21875 28.074219 C 222.785156 28.074219 250.734375 55.996094 250.734375 90.558594 C 250.734375 125.121094 222.785156 153.074219 188.21875 153.074219 C 153.65625 153.074219 125.734375 125.121094 125.734375 90.558594 C 125.734375 55.996094 153.65625 28.074219 188.21875 28.074219 Z M 324.960938 28.074219 C 329.324219 28.074219 332.773438 31.527344 332.773438 35.886719 C 332.773438 40.246094 329.324219 43.699219 324.960938 43.699219 C 320.601562 43.699219 317.140625 40.246094 317.140625 35.886719 C 317.140625 31.527344 320.601562 28.074219 324.960938 28.074219 Z M 188.21875 47.589844 C 164.535156 47.589844 145.257812 66.875 145.257812 90.558594 C 145.257812 114.242188 164.535156 133.550781 188.21875 133.550781 C 211.90625 133.550781 231.210938 114.242188 231.210938 90.558594 C 231.210938 66.875 211.90625 47.589844 188.21875 47.589844 Z M 188.21875 55.410156 C 207.683594 55.410156 223.398438 71.097656 223.398438 90.558594 C 223.398438 96.132812 222.109375 101.398438 219.8125 106.078125 C 211.238281 98.835938 200.203125 94.480469 188.21875 94.480469 C 176.238281 94.480469 165.226562 98.835938 156.65625 106.078125 C 154.363281 101.398438 153.070312 96.132812 153.070312 90.558594 C 153.070312 71.097656 168.757812 55.410156 188.21875 55.410156 Z M 172.617188 74.957031 C 172.617188 83.539062 179.636719 90.558594 188.21875 90.558594 C 196.804688 90.558594 203.851562 83.539062 203.851562 74.957031 C 203.851562 66.375 198.390625 59.332031 188.21875 59.332031 C 178.050781 59.332031 172.617188 67.527344 172.617188 74.957031 Z M 324.960938 63.222656 C 335.425781 63.222656 344.941406 67.148438 352.273438 73.675781 C 345.839844 81.605469 336.011719 86.667969 324.960938 86.667969 C 313.90625 86.667969 304.070312 81.597656 297.632812 73.660156 C 304.964844 67.144531 314.507812 63.222656 324.960938 63.222656 Z M 188.21875 67.144531 C 192.582031 67.144531 196.03125 70.59375 196.03125 74.957031 C 196.03125 79.316406 192.582031 82.746094 188.21875 82.746094 C 183.859375 82.746094 180.4375 79.316406 180.4375 74.957031 C 180.4375 70.59375 183.859375 67.144531 188.21875 67.144531 Z M 51.511719 82.746094 C 27.824219 82.746094 8.550781 102.054688 8.550781 125.738281 C 8.550781 149.421875 27.824219 168.699219 51.511719 168.699219 C 75.195312 168.699219 94.480469 149.421875 94.480469 125.738281 C 94.480469 102.054688 75.195312 82.746094 51.511719 82.746094 Z M 51.511719 90.558594 C 70.972656 90.558594 86.667969 106.273438 86.667969 125.738281 C 86.667969 131.304688 85.378906 136.5625 83.089844 141.234375 C 74.515625 133.996094 63.484375 129.628906 51.511719 129.628906 C 39.527344 129.628906 28.515625 134.003906 19.949219 141.246094 C 17.652344 136.570312 16.363281 131.3125 16.363281 125.738281 C 16.363281 106.273438 32.046875 90.558594 51.511719 90.558594 Z M 35.886719 110.105469 C 35.886719 118.6875 42.925781 125.738281 51.511719 125.738281 C 60.09375 125.738281 67.140625 118.6875 67.140625 110.105469 C 67.140625 101.523438 60.257812 94.472656 51.511719 94.472656 C 42.761719 94.472656 35.886719 101.65625 35.886719 110.105469 Z M 51.511719 102.292969 C 55.871094 102.292969 59.332031 105.742188 59.332031 110.105469 C 59.332031 114.464844 55.871094 117.925781 51.511719 117.925781 C 47.148438 117.925781 43.699219 114.464844 43.699219 110.105469 C 43.699219 105.742188 47.148438 102.292969 51.511719 102.292969 Z M 188.21875 102.292969 C 198.675781 102.292969 208.214844 106.21875 215.546875 112.738281 C 209.105469 120.671875 199.265625 125.738281 188.21875 125.738281 C 177.175781 125.738281 167.351562 120.671875 160.914062 112.738281 C 168.246094 106.21875 177.761719 102.292969 188.21875 102.292969 Z M 324.960938 102.292969 C 322.804688 102.285156 321.046875 104.027344 321.039062 106.183594 L 321.039062 125.738281 L 274.179688 125.738281 C 272.023438 125.730469 270.265625 127.472656 270.257812 129.628906 L 270.257812 160.886719 C 270.265625 163.042969 272.023438 164.785156 274.179688 164.777344 C 276.324219 164.769531 278.0625 163.03125 278.070312 160.886719 L 278.070312 133.550781 L 324.960938 133.550781 C 327.117188 133.542969 328.859375 131.785156 328.851562 129.628906 L 328.851562 106.183594 C 328.84375 104.039062 327.105469 102.300781 324.960938 102.292969 Z M 51.511719 137.441406 C 61.964844 137.441406 71.503906 141.371094 78.839844 147.886719 C 72.402344 155.824219 62.5625 160.886719 51.511719 160.886719 C 40.464844 160.886719 30.640625 155.828125 24.203125 147.902344 C 31.535156 141.375 41.050781 137.441406 51.511719 137.441406 Z M 243.328125 162.527344 L 272.617188 213.261719 L 252.300781 224.972656 L 223.027344 174.238281 Z M 188.21875 168.699219 C 186.070312 168.707031 184.332031 170.449219 184.328125 172.597656 L 184.328125 199.933594 C 184.320312 202.089844 186.0625 203.847656 188.21875 203.855469 C 190.390625 203.863281 192.148438 202.101562 192.140625 199.933594 L 192.140625 172.597656 C 192.136719 170.4375 190.378906 168.691406 188.21875 168.699219 Z M 51.511719 176.519531 C 49.363281 176.527344 47.628906 178.265625 47.617188 180.410156 L 47.617188 203.855469 C 47.628906 206 49.363281 207.738281 51.511719 207.746094 L 98.398438 207.746094 L 98.398438 235.113281 C 98.410156 237.257812 100.144531 238.996094 102.289062 239.003906 C 104.449219 239.011719 106.203125 237.269531 106.210938 235.113281 L 106.210938 203.855469 C 106.21875 201.683594 104.460938 199.925781 102.289062 199.933594 L 55.429688 199.933594 L 55.429688 180.410156 C 55.421875 178.25 53.667969 176.511719 51.511719 176.519531 Z M 262.644531 180.410156 L 313.21875 180.410156 L 313.21875 360.109375 L 235.109375 360.109375 L 235.109375 210.828125 L 257.25 249.179688 C 262.628906 258.492188 274.609375 261.707031 283.921875 256.328125 C 293.234375 250.953125 296.457031 238.96875 291.078125 229.65625 Z M 149.179688 219.480469 L 227.289062 219.480469 L 227.289062 360.109375 L 149.179688 360.109375 Z M 276.515625 220.015625 L 284.328125 233.546875 C 287.605469 239.230469 285.714844 246.273438 280.03125 249.554688 C 274.351562 252.835938 267.304688 250.96875 264.027344 245.289062 L 256.214844 231.746094 Z M 63.25 258.527344 L 141.359375 258.527344 L 141.359375 360.109375 L 63.25 360.109375 Z M 63.25 258.527344 " fill-opacity="1" fill-rule="nonzero"/></g></svg>