<svg xmlns="http://www.w3.org/2000/svg" xmlns:xlink="http://www.w3.org/1999/xlink" width="500" zoomAndPan="magnify" viewBox="0 0 375 374.999991" height="500" preserveAspectRatio="xMidYMid meet" version="1.0"><defs><clipPath id="43119c473b"><path d="M 216 9.222656 L 365.472656 9.222656 L 365.472656 205 L 216 205 Z M 216 9.222656 " clip-rule="nonzero"/></clipPath><clipPath id="062a5d44f3"><path d="M 181 222 L 365.472656 222 L 365.472656 365.472656 L 181 365.472656 Z M 181 222 " clip-rule="nonzero"/></clipPath><clipPath id="fb47e771a7"><path d="M 9.222656 26 L 194 26 L 194 199 L 9.222656 199 Z M 9.222656 26 " clip-rule="nonzero"/></clipPath><clipPath id="54e673f97a"><path d="M 9.222656 216 L 171 216 L 171 365.472656 L 9.222656 365.472656 Z M 9.222656 216 " clip-rule="nonzero"/></clipPath></defs><g clip-path="url(#43119c473b)"><path fill="#00f3f7" d="M 227.75 193.246094 L 354.265625 193.246094 L 354.265625 20.722656 L 227.75 20.722656 Z M 360.015625 204.746094 L 222 204.746094 C 218.832031 204.746094 216.25 202.164062 216.25 198.996094 L 216.25 14.972656 C 216.25 11.804688 218.832031 9.222656 222 9.222656 L 360.015625 9.222656 C 363.183594 9.222656 365.765625 11.804688 365.765625 14.972656 L 365.765625 198.996094 C 365.765625 202.164062 363.183594 204.746094 360.015625 204.746094 " fill-opacity="1" fill-rule="nonzero"/></g><g clip-path="url(#062a5d44f3)"><path fill="#00f3f7" d="M 198.996094 233.5 C 195.828125 233.5 193.246094 236.082031 193.246094 239.25 L 193.246094 348.515625 C 193.246094 351.679688 195.828125 354.265625 198.996094 354.265625 L 348.515625 354.265625 C 351.679688 354.265625 354.265625 351.679688 354.265625 348.515625 L 354.265625 239.25 C 354.265625 236.082031 351.679688 233.5 348.515625 233.5 Z M 348.515625 365.765625 L 198.996094 365.765625 C 189.472656 365.765625 181.742188 358.039062 181.742188 348.515625 L 181.742188 239.25 C 181.742188 229.726562 189.472656 222 198.996094 222 L 348.515625 222 C 358.039062 222 365.765625 229.726562 365.765625 239.25 L 365.765625 348.515625 C 365.765625 358.039062 358.039062 365.765625 348.515625 365.765625 " fill-opacity="1" fill-rule="nonzero"/></g><path fill="#00f3f7" d="M 331.261719 337.011719 L 216.25 337.011719 C 213.082031 337.011719 210.496094 334.429688 210.496094 331.261719 C 210.496094 328.09375 213.082031 325.511719 216.25 325.511719 L 331.261719 325.511719 C 334.429688 325.511719 337.011719 328.09375 337.011719 331.261719 C 337.011719 334.429688 334.429688 337.011719 331.261719 337.011719 " fill-opacity="1" fill-rule="nonzero"/><g clip-path="url(#fb47e771a7)"><path fill="#00f3f7" d="M 26.476562 37.976562 C 23.308594 37.976562 20.722656 40.558594 20.722656 43.726562 L 20.722656 181.742188 C 20.722656 184.910156 23.308594 187.496094 26.476562 187.496094 L 175.992188 187.496094 C 179.160156 187.496094 181.742188 184.910156 181.742188 181.742188 L 181.742188 43.726562 C 181.742188 40.558594 179.160156 37.976562 175.992188 37.976562 Z M 175.992188 198.996094 L 26.476562 198.996094 C 16.949219 198.996094 9.222656 191.269531 9.222656 181.742188 L 9.222656 43.726562 C 9.222656 34.203125 16.949219 26.476562 26.476562 26.476562 L 175.992188 26.476562 C 185.519531 26.476562 193.246094 34.203125 193.246094 43.726562 L 193.246094 181.742188 C 193.246094 191.269531 185.519531 198.996094 175.992188 198.996094 " fill-opacity="1" fill-rule="nonzero"/></g><path fill="#00f3f7" d="M 124.238281 66.730469 C 117.902344 66.730469 112.734375 71.898438 112.734375 78.230469 C 112.734375 84.566406 117.902344 89.734375 124.238281 89.734375 C 130.570312 89.734375 135.738281 84.566406 135.738281 78.230469 C 135.738281 71.898438 130.570312 66.730469 124.238281 66.730469 Z M 124.238281 101.234375 C 111.546875 101.234375 101.234375 90.921875 101.234375 78.230469 C 101.234375 65.539062 111.546875 55.230469 124.238281 55.230469 C 136.929688 55.230469 147.238281 65.539062 147.238281 78.230469 C 147.238281 90.921875 136.929688 101.234375 124.238281 101.234375 " fill-opacity="1" fill-rule="nonzero"/><path fill="#00f3f7" d="M 164.492188 152.992188 C 163.007812 152.992188 161.550781 152.429688 160.425781 151.304688 L 141.488281 132.367188 L 122.550781 151.304688 C 120.304688 153.550781 116.667969 153.550781 114.421875 151.304688 L 78.230469 115.117188 L 42.042969 151.304688 C 39.796875 153.550781 36.15625 153.550781 33.910156 151.304688 C 31.664062 149.058594 31.664062 145.421875 33.910156 143.171875 L 74.164062 102.917969 C 76.410156 100.671875 80.050781 100.671875 82.296875 102.917969 L 118.484375 139.109375 L 137.421875 120.171875 C 139.667969 117.925781 143.308594 117.925781 145.554688 120.171875 L 168.558594 143.171875 C 170.804688 145.421875 170.804688 149.058594 168.558594 151.304688 C 167.433594 152.429688 165.972656 152.992188 164.492188 152.992188 " fill-opacity="1" fill-rule="nonzero"/><path fill="#00f3f7" d="M 308.257812 49.476562 L 250.753906 49.476562 C 247.585938 49.476562 245 46.894531 245 43.726562 C 245 40.558594 247.585938 37.976562 250.753906 37.976562 L 308.257812 37.976562 C 311.425781 37.976562 314.011719 40.558594 314.011719 43.726562 C 314.011719 46.894531 311.425781 49.476562 308.257812 49.476562 " fill-opacity="1" fill-rule="nonzero"/><path fill="#00f3f7" d="M 331.261719 101.234375 L 250.753906 101.234375 C 247.585938 101.234375 245 98.652344 245 95.484375 C 245 92.316406 247.585938 89.734375 250.753906 89.734375 L 331.261719 89.734375 C 334.429688 89.734375 337.011719 92.316406 337.011719 95.484375 C 337.011719 98.652344 334.429688 101.234375 331.261719 101.234375 " fill-opacity="1" fill-rule="nonzero"/><path fill="#00f3f7" d="M 331.261719 152.992188 L 250.753906 152.992188 C 247.585938 152.992188 245 150.40625 245 147.238281 C 245 144.074219 247.585938 141.488281 250.753906 141.488281 L 331.261719 141.488281 C 334.429688 141.488281 337.011719 144.074219 337.011719 147.238281 C 337.011719 150.40625 334.429688 152.992188 331.261719 152.992188 " fill-opacity="1" fill-rule="nonzero"/><path fill="#00f3f7" d="M 279.503906 175.992188 L 250.753906 175.992188 C 247.585938 175.992188 245 173.410156 245 170.242188 C 245 167.074219 247.585938 164.492188 250.753906 164.492188 L 279.503906 164.492188 C 282.671875 164.492188 285.257812 167.074219 285.257812 170.242188 C 285.257812 173.410156 282.671875 175.992188 279.503906 175.992188 " fill-opacity="1" fill-rule="nonzero"/><path fill="#00f3f7" d="M 262.253906 78.230469 L 250.753906 78.230469 C 247.585938 78.230469 245 75.648438 245 72.480469 C 245 69.3125 247.585938 66.730469 250.753906 66.730469 L 262.253906 66.730469 C 265.421875 66.730469 268.003906 69.3125 268.003906 72.480469 C 268.003906 75.648438 265.421875 78.230469 262.253906 78.230469 " fill-opacity="1" fill-rule="nonzero"/><path fill="#00f3f7" d="M 331.261719 78.230469 L 291.007812 78.230469 C 287.839844 78.230469 285.257812 75.648438 285.257812 72.480469 C 285.257812 69.3125 287.839844 66.730469 291.007812 66.730469 L 331.261719 66.730469 C 334.429688 66.730469 337.011719 69.3125 337.011719 72.480469 C 337.011719 75.648438 334.429688 78.230469 331.261719 78.230469 " fill-opacity="1" fill-rule="nonzero"/><path fill="#00f3f7" d="M 291.007812 129.988281 L 250.753906 129.988281 C 247.585938 129.988281 245 127.40625 245 124.238281 C 245 121.070312 247.585938 118.484375 250.753906 118.484375 L 291.007812 118.484375 C 294.175781 118.484375 296.757812 121.070312 296.757812 124.238281 C 296.757812 127.40625 294.175781 129.988281 291.007812 129.988281 " fill-opacity="1" fill-rule="nonzero"/><path fill="#00f3f7" d="M 331.261719 129.988281 L 319.761719 129.988281 C 316.59375 129.988281 314.011719 127.40625 314.011719 124.238281 C 314.011719 121.070312 316.59375 118.484375 319.761719 118.484375 L 331.261719 118.484375 C 334.429688 118.484375 337.011719 121.070312 337.011719 124.238281 C 337.011719 127.40625 334.429688 129.988281 331.261719 129.988281 " fill-opacity="1" fill-rule="nonzero"/><g clip-path="url(#54e673f97a)"><path fill="#00f3f7" d="M 89.734375 227.75 C 51.679688 227.75 20.722656 250.976562 20.722656 279.503906 C 20.722656 291.410156 26.046875 302.664062 36.132812 312.03125 C 37.324219 313.132812 37.976562 314.660156 37.976562 316.257812 L 37.976562 346.132812 L 55.949219 328.160156 C 57.496094 326.613281 59.789062 326.09375 61.855469 326.792969 C 70.527344 329.757812 79.894531 331.261719 89.734375 331.261719 C 127.785156 331.261719 158.742188 308.035156 158.742188 279.503906 C 158.742188 250.976562 127.785156 227.75 89.734375 227.75 Z M 32.226562 365.765625 C 31.484375 365.765625 30.742188 365.632812 30.023438 365.316406 C 27.867188 364.441406 26.476562 362.351562 26.476562 360.015625 L 26.476562 318.683594 C 15.332031 307.519531 9.222656 293.703125 9.222656 279.503906 C 9.222656 244.621094 45.34375 216.25 89.734375 216.25 C 134.121094 216.25 170.242188 244.621094 170.242188 279.503906 C 170.242188 314.390625 134.121094 342.761719 89.734375 342.761719 C 79.917969 342.761719 70.480469 341.4375 61.585938 338.789062 L 36.292969 364.082031 C 35.191406 365.183594 33.730469 365.765625 32.226562 365.765625 " fill-opacity="1" fill-rule="nonzero"/></g><path fill="#00f3f7" d="M 101.234375 279.503906 C 101.234375 273.148438 96.089844 268.003906 89.734375 268.003906 C 83.375 268.003906 78.230469 273.148438 78.230469 279.503906 C 78.230469 285.863281 83.375 291.007812 89.734375 291.007812 C 96.089844 291.007812 101.234375 285.863281 101.234375 279.503906 " fill-opacity="1" fill-rule="nonzero"/><path fill="#00f3f7" d="M 141.488281 279.503906 C 141.488281 273.148438 136.34375 268.003906 129.988281 268.003906 C 123.628906 268.003906 118.484375 273.148438 118.484375 279.503906 C 118.484375 285.863281 123.628906 291.007812 129.988281 291.007812 C 136.34375 291.007812 141.488281 285.863281 141.488281 279.503906 " fill-opacity="1" fill-rule="nonzero"/><path fill="#00f3f7" d="M 60.980469 279.503906 C 60.980469 273.148438 55.835938 268.003906 49.476562 268.003906 C 43.121094 268.003906 37.976562 273.148438 37.976562 279.503906 C 37.976562 285.863281 43.121094 291.007812 49.476562 291.007812 C 55.835938 291.007812 60.980469 285.863281 60.980469 279.503906 " fill-opacity="1" fill-rule="nonzero"/><path fill="#00f3f7" d="M 314.011719 342.761719 C 310.84375 342.761719 308.257812 340.179688 308.257812 337.011719 L 308.257812 325.511719 C 308.257812 322.34375 310.84375 319.761719 314.011719 319.761719 C 317.175781 319.761719 319.761719 322.34375 319.761719 325.511719 L 319.761719 337.011719 C 319.761719 340.179688 317.175781 342.761719 314.011719 342.761719 " fill-opacity="1" fill-rule="nonzero"/><path fill="#00f3f7" d="M 257.515625 256.523438 C 257.335938 256.523438 257.15625 256.570312 257.019531 256.636719 C 256.683594 256.816406 256.503906 257.15625 256.503906 257.492188 L 256.503906 301.542969 C 256.503906 301.902344 256.683594 302.214844 256.996094 302.394531 C 257.3125 302.574219 257.714844 302.574219 258.03125 302.394531 L 296.242188 280.382812 C 296.554688 280.203125 296.734375 279.863281 296.734375 279.527344 C 296.734375 279.167969 296.554688 278.855469 296.242188 278.652344 L 258.03125 256.660156 C 257.851562 256.570312 257.695312 256.523438 257.515625 256.523438 Z M 257.515625 314.011719 C 255.355469 314.011719 253.179688 313.46875 251.269531 312.371094 C 247.40625 310.144531 245 305.992188 245 301.542969 L 245 257.492188 C 245 253.042969 247.40625 248.910156 251.269531 246.6875 C 255.109375 244.460938 259.917969 244.460938 263.757812 246.6875 L 301.992188 268.699219 C 305.855469 270.925781 308.238281 275.058594 308.238281 279.527344 C 308.238281 283.976562 305.855469 288.109375 301.992188 290.355469 L 263.757812 312.371094 C 261.828125 313.46875 259.671875 314.011719 257.515625 314.011719 " fill-opacity="1" fill-rule="nonzero"/></svg>