<svg xmlns="http://www.w3.org/2000/svg" xmlns:xlink="http://www.w3.org/1999/xlink" width="500" zoomAndPan="magnify" viewBox="0 0 375 374.999991" height="500" preserveAspectRatio="xMidYMid meet" version="1.0"><defs><clipPath id="b4d275e6fd"><path d="M 9.5 190 L 121 190 L 121 302 L 9.5 302 Z M 9.5 190 " clip-rule="nonzero"/></clipPath><clipPath id="c2cee34fc3"><path d="M 254 215 L 365.75 215 L 365.75 327 L 254 327 Z M 254 215 " clip-rule="nonzero"/></clipPath><clipPath id="cf82ed71d4"><path d="M 87 309 L 283 309 L 283 365.75 L 87 365.75 Z M 87 309 " clip-rule="nonzero"/></clipPath><clipPath id="f68da25a61"><path d="M 87 9.5 L 283 9.5 L 283 180 L 87 180 Z M 87 9.5 " clip-rule="nonzero"/></clipPath></defs><path fill="#00f3f7" d="M 193.195312 40.09375 C 193.195312 40.640625 193.144531 41.183594 193.035156 41.71875 C 192.929688 42.257812 192.769531 42.777344 192.5625 43.285156 C 192.351562 43.792969 192.09375 44.273438 191.789062 44.726562 C 191.484375 45.183594 191.140625 45.605469 190.753906 45.992188 C 190.367188 46.378906 189.945312 46.726562 189.488281 47.03125 C 189.03125 47.335938 188.550781 47.589844 188.046875 47.800781 C 187.539062 48.011719 187.019531 48.167969 186.480469 48.277344 C 185.945312 48.382812 185.402344 48.4375 184.851562 48.4375 C 184.304688 48.4375 183.761719 48.382812 183.226562 48.277344 C 182.6875 48.167969 182.167969 48.011719 181.660156 47.800781 C 181.152344 47.589844 180.671875 47.335938 180.21875 47.03125 C 179.761719 46.726562 179.339844 46.378906 178.953125 45.992188 C 178.566406 45.605469 178.21875 45.183594 177.914062 44.726562 C 177.613281 44.273438 177.355469 43.792969 177.144531 43.285156 C 176.933594 42.777344 176.777344 42.257812 176.671875 41.71875 C 176.5625 41.183594 176.507812 40.640625 176.507812 40.09375 C 176.507812 39.542969 176.5625 39 176.671875 38.464844 C 176.777344 37.925781 176.933594 37.40625 177.144531 36.898438 C 177.355469 36.394531 177.613281 35.914062 177.914062 35.457031 C 178.21875 35 178.566406 34.578125 178.953125 34.191406 C 179.339844 33.804688 179.761719 33.460938 180.21875 33.15625 C 180.671875 32.851562 181.152344 32.59375 181.660156 32.382812 C 182.167969 32.175781 182.6875 32.015625 183.226562 31.910156 C 183.761719 31.800781 184.304688 31.75 184.851562 31.75 C 185.402344 31.75 185.945312 31.800781 186.480469 31.910156 C 187.019531 32.015625 187.539062 32.175781 188.046875 32.382812 C 188.550781 32.59375 189.03125 32.851562 189.488281 33.15625 C 189.945312 33.460938 190.367188 33.804688 190.753906 34.191406 C 191.140625 34.578125 191.484375 35 191.789062 35.457031 C 192.09375 35.914062 192.351562 36.394531 192.5625 36.898438 C 192.769531 37.40625 192.929688 37.925781 193.035156 38.464844 C 193.144531 39 193.195312 39.542969 193.195312 40.09375 Z M 193.195312 40.09375 " fill-opacity="1" fill-rule="nonzero"/><path fill="#00f3f7" d="M 159.824219 337.679688 C 159.824219 340.738281 162.324219 343.242188 165.386719 343.242188 L 204.320312 343.242188 C 207.378906 343.242188 209.882812 340.738281 209.882812 337.679688 C 209.882812 334.621094 207.378906 332.117188 204.320312 332.117188 L 165.386719 332.117188 C 162.324219 332.117188 159.824219 334.621094 159.824219 337.679688 Z M 159.824219 337.679688 " fill-opacity="1" fill-rule="nonzero"/><path fill="#00f3f7" d="M 212.109375 205.015625 C 223.234375 196.394531 229.351562 183.324219 229.351562 169.140625 C 229.351562 156.347656 224.066406 144.109375 214.890625 135.488281 C 205.710938 127.144531 194.03125 122.972656 181.792969 123.804688 C 159.824219 125.476562 142.023438 143.550781 140.632812 166.082031 C 139.796875 181.375 146.195312 195.839844 157.875 205.015625 C 161.214844 207.796875 163.160156 211.414062 163.160156 215.585938 L 163.160156 223.929688 C 163.160156 228.933594 167.054688 234.777344 172.894531 234.777344 L 197.089844 234.777344 C 202.929688 234.777344 206.546875 229.214844 206.546875 223.929688 L 206.546875 215.863281 C 206.546875 211.96875 208.492188 207.796875 212.109375 205.015625 Z M 205.15625 196.117188 C 199.039062 200.84375 195.421875 208.355469 195.421875 215.863281 L 195.421875 223.652344 L 174.285156 223.652344 L 174.285156 215.585938 C 174.285156 208.074219 170.949219 201.125 164.828125 196.117188 C 155.929688 189.164062 151.199219 178.039062 151.757812 166.636719 C 152.871094 149.671875 166.21875 135.765625 182.628906 134.652344 C 191.804688 134.097656 200.707031 137.15625 207.382812 143.550781 C 214.332031 149.949219 218.226562 159.40625 218.226562 169.140625 C 218.226562 179.707031 213.5 189.71875 205.15625 196.117188 Z M 205.15625 196.117188 " fill-opacity="1" fill-rule="nonzero"/><path fill="#00f3f7" d="M 201.539062 248.679688 C 201.539062 245.621094 199.039062 243.117188 195.976562 243.117188 L 173.726562 243.117188 C 170.667969 243.117188 168.167969 245.621094 168.167969 248.679688 C 168.167969 251.742188 170.667969 254.242188 173.726562 254.242188 L 195.976562 254.242188 C 199.039062 254.242188 201.539062 251.742188 201.539062 248.679688 Z M 201.539062 248.679688 " fill-opacity="1" fill-rule="nonzero"/><path fill="#00f3f7" d="M 176.507812 262.585938 C 173.449219 262.585938 170.949219 265.089844 170.949219 268.148438 C 170.949219 271.210938 173.449219 273.710938 176.507812 273.710938 L 193.195312 273.710938 C 196.257812 273.710938 198.757812 271.210938 198.757812 268.148438 C 198.757812 265.089844 196.257812 262.585938 193.195312 262.585938 Z M 176.507812 262.585938 " fill-opacity="1" fill-rule="nonzero"/><path fill="#00f3f7" d="M 179.289062 95.714844 L 179.289062 109.34375 C 179.289062 112.402344 181.792969 114.90625 184.851562 114.90625 C 187.914062 114.90625 190.414062 112.402344 190.414062 109.34375 L 190.414062 95.714844 C 190.414062 92.65625 187.914062 90.152344 184.851562 90.152344 C 181.792969 90.152344 179.289062 92.65625 179.289062 95.714844 Z M 179.289062 95.714844 " fill-opacity="1" fill-rule="nonzero"/><path fill="#00f3f7" d="M 251.601562 159.683594 L 241.035156 159.683594 C 237.972656 159.683594 235.472656 162.1875 235.472656 165.246094 C 235.472656 168.304688 237.972656 170.808594 241.035156 170.808594 L 251.601562 170.808594 C 254.660156 170.808594 257.164062 168.304688 257.164062 165.246094 C 257.164062 162.1875 254.660156 159.683594 251.601562 159.683594 Z M 251.601562 159.683594 " fill-opacity="1" fill-rule="nonzero"/><path fill="#00f3f7" d="M 118.105469 170.808594 L 128.671875 170.808594 C 131.734375 170.808594 134.234375 168.304688 134.234375 165.246094 C 134.234375 162.1875 131.734375 159.683594 128.671875 159.683594 L 118.105469 159.683594 C 115.046875 159.683594 112.542969 162.1875 112.542969 165.246094 C 112.542969 168.304688 115.046875 170.808594 118.105469 170.808594 Z M 118.105469 170.808594 " fill-opacity="1" fill-rule="nonzero"/><path fill="#00f3f7" d="M 148.140625 128.535156 C 150.367188 126.308594 150.367188 122.972656 148.140625 120.746094 L 140.632812 112.960938 C 138.40625 110.734375 135.070312 110.734375 132.84375 112.960938 C 130.621094 115.183594 130.621094 118.523438 132.84375 120.746094 L 140.355469 128.535156 C 141.464844 129.648438 142.855469 130.203125 144.246094 130.203125 C 145.636719 129.925781 147.027344 129.367188 148.140625 128.535156 Z M 148.140625 128.535156 " fill-opacity="1" fill-rule="nonzero"/><path fill="#00f3f7" d="M 232.132812 124.640625 L 232.132812 112.125 C 230.742188 112.125 229.351562 112.679688 228.519531 113.792969 L 221.007812 121.582031 C 218.785156 123.804688 218.785156 127.421875 221.007812 129.367188 C 222.121094 130.480469 223.511719 131.039062 224.902344 131.039062 C 226.292969 131.039062 227.683594 130.480469 228.796875 129.367188 L 231.855469 126.03125 C 232.132812 125.476562 232.132812 125.195312 232.132812 124.640625 Z M 232.132812 124.640625 " fill-opacity="1" fill-rule="nonzero"/><path fill="#00f3f7" d="M 243.257812 65.402344 L 243.257812 124.640625 C 243.257812 131.871094 248.820312 137.433594 256.050781 137.433594 L 275.796875 137.433594 L 269.125 154.957031 C 268.289062 157.179688 268.84375 159.683594 270.792969 161.351562 C 271.90625 162.1875 273.015625 162.464844 274.128906 162.464844 C 275.242188 162.464844 276.355469 162.1875 277.1875 161.628906 L 313.066406 137.433594 L 341.15625 137.433594 C 348.386719 137.433594 353.949219 131.59375 353.949219 124.363281 L 353.949219 65.402344 C 353.949219 57.890625 348.109375 51.21875 340.878906 51.21875 L 256.328125 51.21875 C 249.097656 51.21875 243.257812 57.613281 243.257812 65.402344 Z M 343.382812 65.402344 L 343.382812 124.363281 C 343.382812 125.476562 342.546875 126.308594 341.710938 126.308594 L 311.953125 126.308594 C 310.839844 126.308594 309.730469 126.585938 308.894531 127.144531 L 285.808594 142.441406 L 289.148438 133.539062 C 289.703125 131.871094 289.425781 129.925781 288.589844 128.535156 C 287.480469 127.144531 285.808594 126.03125 284.140625 126.03125 L 256.328125 126.03125 C 254.382812 126.308594 254.382812 124.917969 254.382812 124.640625 L 254.382812 65.402344 C 254.382812 63.734375 255.496094 62.34375 256.328125 62.34375 L 341.710938 62.34375 C 342.269531 62.34375 343.382812 63.734375 343.382812 65.402344 Z M 343.382812 65.402344 " fill-opacity="1" fill-rule="nonzero"/><g clip-path="url(#b4d275e6fd)"><path fill="#00f3f7" d="M 22.433594 276.492188 L 50.523438 276.492188 L 86.398438 300.691406 C 87.234375 301.246094 88.347656 301.523438 89.457031 301.523438 C 90.570312 301.523438 91.960938 301.246094 92.796875 300.410156 C 94.742188 299.019531 95.300781 296.238281 94.464844 294.015625 L 88.347656 276.492188 L 108.09375 276.492188 C 115.324219 276.492188 120.886719 270.929688 120.886719 263.699219 L 120.886719 204.460938 C 120.886719 196.953125 115.046875 190.277344 107.8125 190.277344 L 22.710938 190.277344 C 15.480469 190.277344 9.636719 196.671875 9.636719 204.460938 L 9.636719 263.421875 C 9.636719 270.652344 15.199219 276.492188 22.433594 276.492188 Z M 20.761719 204.460938 C 20.761719 202.792969 21.875 201.402344 22.710938 201.402344 L 108.09375 201.402344 C 108.648438 201.402344 110.039062 202.792969 110.039062 204.460938 L 110.039062 263.699219 C 110.039062 263.976562 110.039062 265.367188 108.371094 265.367188 L 80.558594 265.367188 C 78.613281 265.367188 76.941406 266.203125 76.109375 267.871094 C 74.996094 269.261719 74.71875 271.210938 75.550781 272.878906 L 78.890625 281.777344 L 55.804688 266.480469 C 54.972656 265.925781 53.859375 265.648438 52.746094 265.648438 L 22.433594 265.648438 C 21.597656 265.367188 20.761719 264.535156 20.761719 263.421875 Z M 20.761719 204.460938 " fill-opacity="1" fill-rule="nonzero"/></g><path fill="#00f3f7" d="M 271.070312 173.3125 L 271.070312 204.183594 L 282.195312 204.183594 L 282.195312 171.644531 C 279.691406 173.03125 277.1875 173.589844 274.40625 173.589844 C 273.296875 173.589844 272.183594 173.3125 271.070312 173.3125 Z M 271.070312 173.3125 " fill-opacity="1" fill-rule="nonzero"/><g clip-path="url(#c2cee34fc3)"><path fill="#00f3f7" d="M 285.53125 326.554688 C 286.644531 326.554688 287.757812 326.277344 288.589844 325.71875 L 324.46875 301.523438 L 352.558594 301.523438 C 359.789062 301.523438 365.351562 295.683594 365.351562 288.453125 L 365.351562 229.492188 C 365.351562 221.980469 359.511719 215.308594 352.28125 215.308594 L 267.453125 215.308594 C 260.5 215.308594 254.382812 221.703125 254.382812 229.492188 L 254.382812 288.730469 C 254.382812 295.960938 259.945312 301.523438 267.175781 301.523438 L 286.921875 301.523438 L 280.246094 319.046875 C 279.414062 321.269531 279.96875 323.773438 281.917969 325.441406 C 283.308594 326.277344 284.417969 326.554688 285.53125 326.554688 Z M 352.835938 290.398438 L 339.765625 290.398438 C 339.488281 289.84375 338.929688 289.007812 338.375 288.730469 L 321.6875 275.9375 L 336.148438 261.476562 L 354.785156 273.992188 L 354.785156 288.453125 C 354.503906 289.566406 353.671875 290.398438 352.835938 290.398438 Z M 267.453125 226.433594 L 352.835938 226.433594 C 353.394531 226.433594 354.785156 227.824219 354.785156 229.492188 L 354.785156 260.640625 L 338.375 249.792969 C 338.097656 249.515625 337.820312 249.515625 337.539062 249.238281 C 336.429688 248.679688 335.316406 248.679688 334.203125 248.679688 C 333.925781 248.679688 333.648438 248.960938 333.367188 248.960938 C 332.8125 249.238281 331.976562 249.515625 331.421875 250.070312 L 312.789062 268.707031 L 296.933594 256.46875 C 295.824219 255.632812 294.710938 255.355469 293.320312 255.355469 C 292.207031 255.355469 290.816406 255.632812 289.980469 256.46875 L 265.507812 273.710938 L 265.507812 229.492188 C 265.507812 227.824219 266.621094 226.433594 267.453125 226.433594 Z M 267.175781 290.398438 C 265.507812 290.398438 265.507812 289.007812 265.507812 288.730469 L 265.507812 287.339844 L 293.042969 267.871094 L 322.242188 290.398438 C 321.410156 290.398438 320.574219 290.675781 320.019531 291.234375 L 296.933594 306.53125 L 300.273438 297.628906 C 300.828125 295.960938 300.550781 294.015625 299.714844 292.625 C 298.605469 291.234375 296.933594 290.121094 295.265625 290.121094 L 267.175781 290.121094 Z M 267.175781 290.398438 " fill-opacity="1" fill-rule="nonzero"/></g><path fill="#00f3f7" d="M 287.480469 106.007812 C 288.3125 106.5625 289.425781 106.839844 290.539062 106.839844 C 291.371094 106.839844 292.207031 106.5625 293.042969 106.285156 L 309.730469 97.941406 C 311.675781 97.105469 312.789062 95.160156 312.789062 92.933594 C 312.789062 90.710938 311.675781 88.761719 309.730469 87.929688 L 293.042969 79.585938 C 291.371094 78.75 289.148438 78.75 287.757812 79.863281 C 286.089844 80.976562 285.253906 82.644531 285.253906 84.589844 L 285.253906 101.277344 C 284.976562 103.226562 286.089844 104.894531 287.480469 106.007812 Z M 287.480469 106.007812 " fill-opacity="1" fill-rule="nonzero"/><path fill="#00f3f7" d="M 287.757812 240.339844 C 287.757812 240.703125 287.722656 241.066406 287.648438 241.421875 C 287.578125 241.78125 287.472656 242.128906 287.332031 242.464844 C 287.195312 242.804688 287.023438 243.125 286.820312 243.429688 C 286.617188 243.730469 286.386719 244.011719 286.128906 244.269531 C 285.871094 244.53125 285.589844 244.761719 285.285156 244.960938 C 284.980469 245.164062 284.660156 245.335938 284.324219 245.476562 C 283.984375 245.617188 283.636719 245.722656 283.28125 245.792969 C 282.921875 245.863281 282.558594 245.898438 282.195312 245.898438 C 281.828125 245.898438 281.46875 245.863281 281.109375 245.792969 C 280.75 245.722656 280.402344 245.617188 280.066406 245.476562 C 279.730469 245.335938 279.40625 245.164062 279.105469 244.960938 C 278.800781 244.761719 278.519531 244.53125 278.261719 244.269531 C 278.003906 244.011719 277.773438 243.730469 277.570312 243.429688 C 277.367188 243.125 277.195312 242.804688 277.054688 242.464844 C 276.917969 242.128906 276.808594 241.78125 276.738281 241.421875 C 276.667969 241.066406 276.632812 240.703125 276.632812 240.339844 C 276.632812 239.972656 276.667969 239.609375 276.738281 239.253906 C 276.808594 238.894531 276.917969 238.546875 277.054688 238.210938 C 277.195312 237.871094 277.367188 237.550781 277.570312 237.246094 C 277.773438 236.945312 278.003906 236.664062 278.261719 236.40625 C 278.519531 236.148438 278.800781 235.914062 279.105469 235.714844 C 279.40625 235.511719 279.730469 235.339844 280.066406 235.199219 C 280.402344 235.058594 280.75 234.953125 281.109375 234.882812 C 281.46875 234.8125 281.828125 234.777344 282.195312 234.777344 C 282.558594 234.777344 282.921875 234.8125 283.28125 234.882812 C 283.636719 234.953125 283.984375 235.058594 284.324219 235.199219 C 284.660156 235.339844 284.980469 235.511719 285.285156 235.714844 C 285.589844 235.914062 285.871094 236.148438 286.128906 236.40625 C 286.386719 236.664062 286.617188 236.945312 286.820312 237.246094 C 287.023438 237.550781 287.195312 237.871094 287.332031 238.210938 C 287.472656 238.546875 287.578125 238.894531 287.648438 239.253906 C 287.722656 239.609375 287.757812 239.972656 287.757812 240.339844 Z M 287.757812 240.339844 " fill-opacity="1" fill-rule="nonzero"/><path fill="#00f3f7" d="M 44.402344 251.460938 C 44.960938 251.460938 45.515625 251.460938 46.070312 251.183594 C 58.308594 247.847656 59.699219 236.722656 59.699219 223.652344 L 70.824219 223.652344 C 70.824219 238.113281 69.988281 242.007812 65.261719 243.398438 C 62.203125 244.230469 60.535156 247.289062 61.367188 250.351562 C 62.203125 252.851562 64.429688 254.523438 66.652344 254.523438 C 67.207031 254.523438 67.765625 254.523438 68.320312 254.242188 C 82.226562 250.351562 82.226562 236.722656 82.226562 221.148438 C 82.226562 220.589844 82.226562 220.3125 81.949219 219.757812 C 81.949219 219.199219 82.226562 218.921875 82.226562 218.367188 C 82.226562 215.308594 79.722656 212.804688 76.664062 212.804688 L 54.414062 212.804688 C 51.355469 212.804688 48.851562 215.308594 48.851562 218.367188 C 48.851562 235.054688 48.296875 239.503906 43.289062 240.894531 C 40.230469 241.730469 38.5625 244.789062 39.398438 247.847656 C 39.675781 249.792969 41.898438 251.460938 44.402344 251.460938 Z M 44.402344 251.460938 " fill-opacity="1" fill-rule="nonzero"/><g clip-path="url(#cf82ed71d4)"><path fill="#00f3f7" d="M 89.738281 312.648438 C 88.902344 312.648438 88.347656 312.648438 87.511719 312.371094 L 87.511719 348.804688 C 87.511719 357.980469 95.019531 365.492188 104.199219 365.492188 L 265.507812 365.492188 C 274.6875 365.492188 282.195312 357.980469 282.195312 348.804688 L 282.195312 337.402344 C 279.691406 336.84375 277.46875 335.734375 275.242188 334.0625 C 273.574219 332.671875 272.183594 331.003906 271.070312 329.058594 L 271.070312 348.804688 C 271.070312 351.863281 268.566406 354.367188 265.507812 354.367188 L 104.199219 354.367188 C 101.140625 354.367188 98.636719 351.863281 98.636719 348.804688 L 98.636719 309.867188 C 95.855469 311.816406 92.796875 312.648438 89.738281 312.648438 Z M 89.738281 312.648438 " fill-opacity="1" fill-rule="nonzero"/></g><g clip-path="url(#f68da25a61)"><path fill="#00f3f7" d="M 265.507812 9.5 L 104.199219 9.5 C 95.019531 9.5 87.511719 17.007812 87.511719 26.1875 L 87.511719 179.152344 L 98.636719 179.152344 L 98.636719 26.1875 C 98.636719 23.128906 101.140625 20.625 104.199219 20.625 L 265.507812 20.625 C 268.566406 20.625 271.070312 23.128906 271.070312 26.1875 L 271.070312 40.09375 L 282.195312 40.09375 L 282.195312 26.1875 C 282.195312 17.007812 274.6875 9.5 265.507812 9.5 Z M 265.507812 9.5 " fill-opacity="1" fill-rule="nonzero"/></g></svg>