<svg xmlns="http://www.w3.org/2000/svg" xmlns:xlink="http://www.w3.org/1999/xlink" width="500" zoomAndPan="magnify" viewBox="0 0 375 374.999991" height="500" preserveAspectRatio="xMidYMid meet" version="1.0"><defs><clipPath id="703ef8d40c"><path d="M 14.195312 14.195312 L 126 14.195312 L 126 110 L 14.195312 110 Z M 14.195312 14.195312 " clip-rule="nonzero"/></clipPath><clipPath id="4b0bca14c6"><path d="M 14.195312 265 L 126 265 L 126 360.695312 L 14.195312 360.695312 Z M 14.195312 265 " clip-rule="nonzero"/></clipPath><clipPath id="6de60080e0"><path d="M 248 265 L 360.695312 265 L 360.695312 360.695312 L 248 360.695312 Z M 248 265 " clip-rule="nonzero"/></clipPath><clipPath id="7d1f662e2b"><path d="M 248 14.195312 L 360.695312 14.195312 L 360.695312 110 L 248 110 Z M 248 14.195312 " clip-rule="nonzero"/></clipPath></defs><g clip-path="url(#703ef8d40c)"><path fill="#00f3f7" d="M 25.375 109.230469 L 114.820312 109.230469 C 115.554688 109.230469 116.28125 109.160156 117.003906 109.015625 C 117.722656 108.871094 118.421875 108.660156 119.101562 108.378906 C 119.777344 108.097656 120.421875 107.753906 121.03125 107.347656 C 121.644531 106.9375 122.207031 106.476562 122.726562 105.957031 C 123.246094 105.4375 123.710938 104.871094 124.117188 104.261719 C 124.527344 103.652344 124.871094 103.007812 125.152344 102.328125 C 125.433594 101.648438 125.644531 100.949219 125.785156 100.230469 C 125.929688 99.511719 126 98.785156 126 98.050781 L 126 25.375 C 126 24.640625 125.929688 23.914062 125.785156 23.191406 C 125.644531 22.472656 125.433594 21.773438 125.152344 21.097656 C 124.871094 20.417969 124.527344 19.773438 124.117188 19.164062 C 123.710938 18.550781 123.246094 17.988281 122.726562 17.46875 C 122.207031 16.949219 121.644531 16.484375 121.03125 16.078125 C 120.421875 15.671875 119.777344 15.324219 119.101562 15.042969 C 118.421875 14.765625 117.722656 14.550781 117.003906 14.410156 C 116.28125 14.265625 115.554688 14.195312 114.820312 14.195312 L 25.375 14.195312 C 24.640625 14.195312 23.914062 14.265625 23.191406 14.410156 C 22.472656 14.550781 21.773438 14.765625 21.097656 15.042969 C 20.417969 15.324219 19.773438 15.671875 19.164062 16.078125 C 18.550781 16.484375 17.988281 16.949219 17.46875 17.46875 C 16.949219 17.988281 16.484375 18.550781 16.078125 19.164062 C 15.671875 19.773438 15.324219 20.417969 15.042969 21.097656 C 14.765625 21.773438 14.550781 22.472656 14.410156 23.191406 C 14.265625 23.914062 14.195312 24.640625 14.195312 25.375 L 14.195312 98.050781 C 14.195312 98.785156 14.265625 99.511719 14.410156 100.230469 C 14.550781 100.949219 14.765625 101.648438 15.042969 102.328125 C 15.324219 103.007812 15.671875 103.652344 16.078125 104.261719 C 16.484375 104.871094 16.949219 105.4375 17.46875 105.957031 C 17.988281 106.476562 18.550781 106.9375 19.164062 107.347656 C 19.773438 107.753906 20.417969 108.097656 21.097656 108.378906 C 21.773438 108.660156 22.472656 108.871094 23.191406 109.015625 C 23.914062 109.160156 24.640625 109.230469 25.375 109.230469 Z M 50.53125 33.761719 L 100.84375 61.710938 L 50.53125 89.664062 Z M 50.53125 33.761719 " fill-opacity="1" fill-rule="nonzero"/></g><path fill="#00f3f7" d="M 336.632812 251.1875 C 338.769531 246.164062 340.648438 241.046875 342.269531 235.835938 C 343.890625 230.625 345.25 225.34375 346.339844 219.996094 C 347.429688 214.648438 348.25 209.261719 348.796875 203.828125 C 349.34375 198.398438 349.617188 192.953125 349.617188 187.496094 C 349.617188 182.039062 349.34375 176.59375 348.796875 171.164062 C 348.25 165.734375 347.429688 160.34375 346.339844 154.996094 C 345.25 149.648438 343.890625 144.367188 342.269531 139.15625 C 340.648438 133.945312 338.769531 128.828125 336.632812 123.804688 L 326.34375 128.199219 C 328.335938 132.875 330.085938 137.640625 331.59375 142.492188 C 333.105469 147.34375 334.367188 152.257812 335.382812 157.238281 C 336.398438 162.214844 337.160156 167.234375 337.671875 172.289062 C 338.183594 177.347656 338.4375 182.414062 338.4375 187.496094 C 338.4375 192.578125 338.183594 197.648438 337.671875 202.703125 C 337.160156 207.757812 336.398438 212.777344 335.382812 217.753906 C 334.367188 222.734375 333.105469 227.648438 331.59375 232.503906 C 330.085938 237.355469 328.335938 242.117188 326.34375 246.792969 Z M 336.632812 251.1875 " fill-opacity="1" fill-rule="nonzero"/><path fill="#00f3f7" d="M 141.179688 32.082031 L 144.367188 42.800781 C 151.367188 40.738281 158.484375 39.183594 165.707031 38.140625 C 172.933594 37.101562 180.195312 36.578125 187.496094 36.578125 C 194.796875 36.578125 202.058594 37.101562 209.285156 38.140625 C 216.511719 39.183594 223.625 40.738281 230.625 42.800781 L 233.8125 32.082031 C 226.292969 29.867188 218.652344 28.199219 210.894531 27.078125 C 203.136719 25.960938 195.335938 25.398438 187.496094 25.398438 C 179.65625 25.398438 171.859375 25.960938 164.097656 27.078125 C 156.339844 28.199219 148.699219 29.867188 141.179688 32.082031 Z M 141.179688 32.082031 " fill-opacity="1" fill-rule="nonzero"/><path fill="#00f3f7" d="M 38.359375 123.804688 C 36.222656 128.828125 34.34375 133.945312 32.722656 139.15625 C 31.101562 144.367188 29.746094 149.648438 28.65625 154.996094 C 27.5625 160.34375 26.746094 165.734375 26.195312 171.164062 C 25.648438 176.59375 25.375 182.039062 25.375 187.496094 C 25.375 192.953125 25.648438 198.398438 26.195312 203.828125 C 26.746094 209.261719 27.5625 214.648438 28.65625 219.996094 C 29.746094 225.34375 31.101562 230.625 32.722656 235.835938 C 34.34375 241.046875 36.222656 246.164062 38.359375 251.1875 L 48.648438 246.792969 C 46.65625 242.117188 44.90625 237.355469 43.398438 232.503906 C 41.886719 227.648438 40.625 222.734375 39.609375 217.753906 C 38.59375 212.777344 37.832031 207.757812 37.320312 202.703125 C 36.808594 197.648438 36.554688 192.578125 36.554688 187.496094 C 36.554688 182.414062 36.808594 177.347656 37.320312 172.289062 C 37.832031 167.234375 38.59375 162.214844 39.609375 157.238281 C 40.625 152.257812 41.886719 147.34375 43.398438 142.492188 C 44.90625 137.636719 46.65625 132.875 48.648438 128.199219 Z M 38.359375 123.804688 " fill-opacity="1" fill-rule="nonzero"/><path fill="#00f3f7" d="M 141.179688 342.910156 C 148.699219 345.136719 156.335938 346.8125 164.097656 347.9375 C 171.855469 349.0625 179.65625 349.625 187.496094 349.625 C 195.335938 349.625 203.136719 349.0625 210.898438 347.9375 C 218.65625 346.8125 226.296875 345.136719 233.8125 342.910156 L 230.625 332.191406 C 223.625 334.257812 216.511719 335.808594 209.285156 336.851562 C 202.058594 337.894531 194.796875 338.414062 187.496094 338.414062 C 180.195312 338.414062 172.933594 337.894531 165.707031 336.851562 C 158.484375 335.808594 151.367188 334.257812 144.367188 332.191406 Z M 141.179688 342.910156 " fill-opacity="1" fill-rule="nonzero"/><g clip-path="url(#4b0bca14c6)"><path fill="#00f3f7" d="M 25.375 360.800781 L 114.820312 360.800781 C 115.554688 360.800781 116.28125 360.726562 117.003906 360.585938 C 117.722656 360.441406 118.421875 360.230469 119.101562 359.949219 C 119.777344 359.667969 120.421875 359.324219 121.03125 358.914062 C 121.644531 358.507812 122.207031 358.042969 122.726562 357.523438 C 123.246094 357.003906 123.710938 356.441406 124.117188 355.828125 C 124.527344 355.21875 124.871094 354.574219 125.152344 353.898438 C 125.433594 353.21875 125.644531 352.519531 125.785156 351.800781 C 125.929688 351.078125 126 350.351562 126 349.617188 L 126 276.941406 C 126 276.207031 125.929688 275.480469 125.785156 274.761719 C 125.644531 274.042969 125.433594 273.34375 125.152344 272.664062 C 124.871094 271.984375 124.527344 271.339844 124.117188 270.730469 C 123.710938 270.121094 123.246094 269.554688 122.726562 269.035156 C 122.207031 268.519531 121.644531 268.054688 121.03125 267.644531 C 120.421875 267.238281 119.777344 266.894531 119.101562 266.613281 C 118.421875 266.332031 117.722656 266.121094 117.003906 265.976562 C 116.28125 265.832031 115.554688 265.761719 114.820312 265.761719 L 25.375 265.761719 C 24.640625 265.761719 23.914062 265.832031 23.191406 265.976562 C 22.472656 266.121094 21.773438 266.332031 21.097656 266.613281 C 20.417969 266.894531 19.773438 267.238281 19.164062 267.644531 C 18.550781 268.054688 17.988281 268.519531 17.46875 269.035156 C 16.949219 269.554688 16.484375 270.121094 16.078125 270.730469 C 15.671875 271.339844 15.324219 271.984375 15.042969 272.664062 C 14.765625 273.34375 14.550781 274.042969 14.410156 274.761719 C 14.265625 275.480469 14.195312 276.207031 14.195312 276.941406 L 14.195312 349.617188 C 14.195312 350.351562 14.265625 351.078125 14.410156 351.800781 C 14.550781 352.519531 14.765625 353.21875 15.042969 353.898438 C 15.324219 354.574219 15.671875 355.21875 16.078125 355.828125 C 16.484375 356.441406 16.949219 357.003906 17.46875 357.523438 C 17.988281 358.042969 18.550781 358.507812 19.164062 358.914062 C 19.773438 359.324219 20.417969 359.667969 21.097656 359.949219 C 21.773438 360.230469 22.472656 360.441406 23.191406 360.585938 C 23.914062 360.726562 24.640625 360.800781 25.375 360.800781 Z M 53.789062 300.238281 L 63.339844 316.601562 L 79.882812 287.191406 L 109.230469 339.371094 L 30.964844 339.371094 Z M 53.789062 300.238281 " fill-opacity="1" fill-rule="nonzero"/></g><g clip-path="url(#6de60080e0)"><path fill="#00f3f7" d="M 349.617188 265.761719 L 260.171875 265.761719 C 259.4375 265.761719 258.710938 265.832031 257.992188 265.976562 C 257.269531 266.121094 256.570312 266.332031 255.894531 266.613281 C 255.214844 266.894531 254.570312 267.238281 253.960938 267.644531 C 253.347656 268.054688 252.785156 268.519531 252.265625 269.035156 C 251.746094 269.554688 251.28125 270.121094 250.875 270.730469 C 250.46875 271.339844 250.121094 271.984375 249.84375 272.664062 C 249.5625 273.34375 249.347656 274.042969 249.207031 274.761719 C 249.0625 275.480469 248.992188 276.207031 248.992188 276.941406 L 248.992188 349.617188 C 248.992188 350.351562 249.0625 351.078125 249.207031 351.800781 C 249.347656 352.519531 249.5625 353.21875 249.84375 353.898438 C 250.121094 354.574219 250.46875 355.21875 250.875 355.828125 C 251.28125 356.441406 251.746094 357.003906 252.265625 357.523438 C 252.785156 358.042969 253.347656 358.507812 253.960938 358.914062 C 254.570312 359.324219 255.214844 359.667969 255.894531 359.949219 C 256.570312 360.230469 257.269531 360.441406 257.992188 360.585938 C 258.710938 360.726562 259.4375 360.800781 260.171875 360.800781 L 349.617188 360.800781 C 350.351562 360.800781 351.078125 360.726562 351.800781 360.585938 C 352.519531 360.441406 353.21875 360.230469 353.898438 359.949219 C 354.574219 359.667969 355.21875 359.324219 355.828125 358.914062 C 356.441406 358.507812 357.003906 358.042969 357.523438 357.523438 C 358.042969 357.003906 358.507812 356.441406 358.914062 355.828125 C 359.324219 355.21875 359.667969 354.574219 359.949219 353.898438 C 360.230469 353.21875 360.441406 352.519531 360.585938 351.800781 C 360.726562 351.078125 360.800781 350.351562 360.800781 349.617188 L 360.800781 276.941406 C 360.800781 276.207031 360.726562 275.480469 360.585938 274.761719 C 360.441406 274.042969 360.230469 273.34375 359.949219 272.664062 C 359.667969 271.984375 359.324219 271.339844 358.914062 270.730469 C 358.507812 270.121094 358.042969 269.554688 357.523438 269.035156 C 357.003906 268.519531 356.441406 268.054688 355.828125 267.644531 C 355.21875 267.238281 354.574219 266.894531 353.898438 266.613281 C 353.21875 266.332031 352.519531 266.121094 351.800781 265.976562 C 351.078125 265.832031 350.351562 265.761719 349.617188 265.761719 Z M 332.847656 304.894531 L 321.667969 304.894531 L 321.667969 299.304688 L 310.484375 299.304688 L 310.484375 327.257812 L 316.074219 327.257812 L 316.074219 338.4375 L 293.714844 338.4375 L 293.714844 327.257812 L 299.304688 327.257812 L 299.304688 299.304688 L 288.125 299.304688 L 288.125 304.894531 L 276.941406 304.894531 L 276.941406 293.714844 C 276.941406 293.347656 276.980469 292.984375 277.050781 292.625 C 277.121094 292.261719 277.226562 291.914062 277.367188 291.574219 C 277.507812 291.234375 277.679688 290.914062 277.886719 290.609375 C 278.089844 290.304688 278.320312 290.019531 278.582031 289.761719 C 278.839844 289.5 279.121094 289.269531 279.425781 289.066406 C 279.734375 288.863281 280.054688 288.691406 280.394531 288.550781 C 280.734375 288.410156 281.082031 288.304688 281.441406 288.230469 C 281.804688 288.160156 282.167969 288.125 282.535156 288.125 L 327.257812 288.125 C 327.625 288.125 327.988281 288.160156 328.347656 288.230469 C 328.707031 288.304688 329.058594 288.410156 329.394531 288.550781 C 329.734375 288.691406 330.058594 288.863281 330.363281 289.066406 C 330.667969 289.269531 330.949219 289.5 331.210938 289.761719 C 331.46875 290.019531 331.699219 290.304688 331.90625 290.609375 C 332.109375 290.914062 332.28125 291.234375 332.421875 291.574219 C 332.5625 291.914062 332.667969 292.261719 332.738281 292.625 C 332.8125 292.984375 332.847656 293.347656 332.847656 293.714844 Z M 332.847656 304.894531 " fill-opacity="1" fill-rule="nonzero"/></g><path fill="#00f3f7" d="M 181.90625 114.820312 L 193.085938 114.820312 L 193.085938 128.230469 L 181.90625 128.230469 Z M 181.90625 114.820312 " fill-opacity="1" fill-rule="nonzero"/><path fill="#00f3f7" d="M 120.410156 176.316406 L 133.828125 176.316406 L 133.828125 187.496094 L 120.410156 187.496094 Z M 120.410156 176.316406 " fill-opacity="1" fill-rule="nonzero"/><path fill="#00f3f7" d="M 241.164062 176.316406 L 254.582031 176.316406 L 254.582031 187.496094 L 241.164062 187.496094 Z M 241.164062 176.316406 " fill-opacity="1" fill-rule="nonzero"/><path fill="#00f3f7" d="M 136.109375 138.417969 L 144.015625 130.515625 L 153.503906 140 L 145.597656 147.90625 Z M 136.109375 138.417969 " fill-opacity="1" fill-rule="nonzero"/><path fill="#00f3f7" d="M 221.492188 223.808594 L 229.398438 215.902344 L 238.886719 225.390625 L 230.980469 233.296875 Z M 221.492188 223.808594 " fill-opacity="1" fill-rule="nonzero"/><path fill="#00f3f7" d="M 136.113281 225.394531 L 145.597656 215.90625 L 153.503906 223.8125 L 144.015625 233.300781 Z M 136.113281 225.394531 " fill-opacity="1" fill-rule="nonzero"/><path fill="#00f3f7" d="M 221.492188 140 L 230.980469 130.511719 L 238.886719 138.417969 L 229.398438 147.90625 Z M 221.492188 140 " fill-opacity="1" fill-rule="nonzero"/><path fill="#00f3f7" d="M 147.246094 181.8125 C 147.253906 183.667969 147.390625 185.515625 147.65625 187.355469 C 147.917969 189.191406 148.308594 191.003906 148.824219 192.789062 C 149.339844 194.574219 149.972656 196.3125 150.730469 198.011719 C 151.484375 199.707031 152.355469 201.34375 153.335938 202.917969 C 154.320312 204.496094 155.40625 205.996094 156.597656 207.421875 C 157.789062 208.847656 159.070312 210.183594 160.445312 211.433594 C 161.820312 212.683594 163.277344 213.828125 164.808594 214.875 C 166.34375 215.921875 167.941406 216.859375 169.605469 217.683594 L 169.605469 225.230469 L 205.386719 225.230469 L 205.386719 217.683594 C 206.402344 217.175781 207.394531 216.628906 208.367188 216.039062 C 209.335938 215.445312 210.277344 214.816406 211.195312 214.144531 C 212.113281 213.472656 213 212.765625 213.855469 212.019531 C 214.710938 211.273438 215.535156 210.492188 216.328125 209.675781 C 217.117188 208.859375 217.871094 208.011719 218.589844 207.132812 C 219.308594 206.253906 219.988281 205.34375 220.632812 204.40625 C 221.273438 203.46875 221.875 202.507812 222.433594 201.519531 C 222.996094 200.53125 223.511719 199.519531 223.988281 198.488281 C 224.460938 197.457031 224.890625 196.40625 225.277344 195.335938 C 225.664062 194.269531 226.003906 193.183594 226.296875 192.085938 C 226.59375 190.992188 226.839844 189.882812 227.039062 188.765625 C 227.242188 187.644531 227.394531 186.523438 227.5 185.390625 C 227.601562 184.257812 227.660156 183.125 227.667969 181.988281 C 227.679688 180.855469 227.640625 179.71875 227.554688 178.585938 C 227.464844 177.453125 227.332031 176.328125 227.148438 175.207031 C 226.96875 174.085938 226.738281 172.972656 226.460938 171.871094 C 226.183594 170.769531 225.863281 169.679688 225.492188 168.605469 C 225.125 167.53125 224.710938 166.472656 224.253906 165.433594 C 223.796875 164.394531 223.292969 163.378906 222.75 162.378906 C 222.207031 161.382812 221.621094 160.410156 220.992188 159.460938 C 220.367188 158.515625 219.703125 157.597656 218.996094 156.703125 C 218.292969 155.8125 217.550781 154.953125 216.773438 154.125 C 215.996094 153.296875 215.1875 152.503906 214.339844 151.742188 C 213.496094 150.984375 212.621094 150.261719 211.714844 149.574219 C 210.808594 148.886719 209.878906 148.242188 208.917969 147.636719 C 207.957031 147.027344 206.972656 146.464844 205.964844 145.941406 C 204.957031 145.417969 203.925781 144.9375 202.878906 144.5 C 201.828125 144.066406 200.761719 143.671875 199.679688 143.328125 C 198.597656 142.980469 197.503906 142.683594 196.398438 142.429688 C 195.289062 142.175781 194.171875 141.96875 193.046875 141.808594 C 191.925781 141.652344 190.792969 141.539062 189.660156 141.476562 C 188.527344 141.414062 187.390625 141.398438 186.253906 141.429688 C 184.964844 141.484375 183.679688 141.597656 182.398438 141.773438 C 181.121094 141.949219 179.851562 142.1875 178.59375 142.484375 C 177.335938 142.78125 176.097656 143.136719 174.871094 143.550781 C 173.648438 143.964844 172.449219 144.4375 171.269531 144.964844 C 170.089844 145.492188 168.941406 146.078125 167.816406 146.714844 C 166.695312 147.355469 165.605469 148.046875 164.546875 148.789062 C 163.488281 149.53125 162.46875 150.320312 161.488281 151.160156 C 160.507812 152 159.566406 152.886719 158.667969 153.8125 C 157.773438 154.742188 156.921875 155.714844 156.117188 156.722656 C 155.308594 157.734375 154.554688 158.78125 153.847656 159.863281 C 153.144531 160.945312 152.492188 162.058594 151.890625 163.203125 C 151.292969 164.34375 150.75 165.515625 150.261719 166.710938 C 149.773438 167.90625 149.34375 169.125 148.96875 170.363281 C 148.597656 171.597656 148.285156 172.851562 148.03125 174.117188 C 147.777344 175.382812 147.585938 176.660156 147.457031 177.945312 C 147.324219 179.230469 147.253906 180.519531 147.246094 181.8125 Z M 147.246094 181.8125 " fill-opacity="1" fill-rule="nonzero"/><path fill="#00f3f7" d="M 169.605469 240.046875 C 169.605469 240.632812 169.636719 241.214844 169.691406 241.800781 C 169.75 242.382812 169.835938 242.960938 169.949219 243.535156 C 170.066406 244.109375 170.207031 244.679688 170.378906 245.238281 C 170.546875 245.800781 170.746094 246.351562 170.96875 246.890625 C 171.191406 247.433594 171.441406 247.960938 171.71875 248.480469 C 171.996094 248.996094 172.296875 249.496094 172.621094 249.984375 C 172.949219 250.472656 173.296875 250.941406 173.667969 251.394531 C 174.039062 251.847656 174.433594 252.28125 174.847656 252.695312 C 175.261719 253.109375 175.695312 253.503906 176.148438 253.875 C 176.601562 254.246094 177.070312 254.59375 177.558594 254.921875 C 178.042969 255.246094 178.546875 255.546875 179.0625 255.824219 C 179.582031 256.097656 180.109375 256.347656 180.652344 256.574219 C 181.191406 256.796875 181.742188 256.996094 182.304688 257.164062 C 182.863281 257.335938 183.433594 257.476562 184.007812 257.59375 C 184.582031 257.707031 185.160156 257.792969 185.742188 257.847656 C 186.324219 257.90625 186.910156 257.933594 187.496094 257.933594 C 188.082031 257.933594 188.667969 257.90625 189.25 257.847656 C 189.832031 257.792969 190.410156 257.707031 190.988281 257.589844 C 191.5625 257.476562 192.128906 257.335938 192.6875 257.164062 C 193.25 256.996094 193.800781 256.796875 194.34375 256.574219 C 194.882812 256.347656 195.414062 256.097656 195.929688 255.824219 C 196.445312 255.546875 196.949219 255.246094 197.433594 254.921875 C 197.921875 254.59375 198.390625 254.246094 198.84375 253.875 C 199.296875 253.503906 199.730469 253.109375 200.144531 252.695312 C 200.558594 252.28125 200.953125 251.847656 201.324219 251.394531 C 201.695312 250.941406 202.046875 250.472656 202.371094 249.984375 C 202.695312 249.496094 202.996094 248.996094 203.273438 248.480469 C 203.550781 247.960938 203.800781 247.433594 204.023438 246.890625 C 204.25 246.351562 204.445312 245.800781 204.617188 245.238281 C 204.785156 244.679688 204.925781 244.109375 205.042969 243.535156 C 205.15625 242.960938 205.242188 242.382812 205.300781 241.800781 C 205.355469 241.214844 205.386719 240.632812 205.386719 240.046875 L 205.386719 233.617188 L 169.605469 233.617188 Z M 169.605469 240.046875 " fill-opacity="1" fill-rule="nonzero"/><g clip-path="url(#7d1f662e2b)"><path fill="#00f3f7" d="M 349.617188 14.195312 L 260.171875 14.195312 C 259.4375 14.195312 258.710938 14.265625 257.992188 14.410156 C 257.269531 14.550781 256.570312 14.765625 255.894531 15.042969 C 255.214844 15.324219 254.570312 15.671875 253.960938 16.078125 C 253.347656 16.484375 252.785156 16.949219 252.265625 17.46875 C 251.746094 17.988281 251.28125 18.550781 250.875 19.164062 C 250.46875 19.773438 250.121094 20.417969 249.84375 21.097656 C 249.5625 21.773438 249.347656 22.472656 249.207031 23.191406 C 249.0625 23.914062 248.992188 24.640625 248.992188 25.375 L 248.992188 98.050781 C 248.992188 98.785156 249.0625 99.511719 249.207031 100.230469 C 249.347656 100.949219 249.5625 101.648438 249.84375 102.328125 C 250.121094 103.007812 250.46875 103.652344 250.875 104.261719 C 251.28125 104.871094 251.746094 105.4375 252.265625 105.957031 C 252.785156 106.476562 253.347656 106.9375 253.960938 107.347656 C 254.570312 107.753906 255.214844 108.097656 255.894531 108.378906 C 256.570312 108.660156 257.269531 108.871094 257.992188 109.015625 C 258.710938 109.160156 259.4375 109.230469 260.171875 109.230469 L 349.617188 109.230469 C 350.351562 109.230469 351.078125 109.160156 351.800781 109.015625 C 352.519531 108.871094 353.21875 108.660156 353.898438 108.378906 C 354.574219 108.097656 355.21875 107.753906 355.828125 107.347656 C 356.441406 106.9375 357.003906 106.476562 357.523438 105.957031 C 358.042969 105.4375 358.507812 104.871094 358.914062 104.261719 C 359.324219 103.652344 359.667969 103.007812 359.949219 102.328125 C 360.230469 101.648438 360.441406 100.949219 360.585938 100.230469 C 360.726562 99.511719 360.800781 98.785156 360.800781 98.050781 L 360.800781 25.375 C 360.800781 24.640625 360.726562 23.914062 360.585938 23.191406 C 360.441406 22.472656 360.230469 21.773438 359.949219 21.097656 C 359.667969 20.417969 359.324219 19.773438 358.914062 19.164062 C 358.507812 18.550781 358.042969 17.988281 357.523438 17.46875 C 357.003906 16.949219 356.441406 16.484375 355.828125 16.078125 C 355.21875 15.671875 354.574219 15.324219 353.898438 15.042969 C 353.21875 14.765625 352.519531 14.550781 351.800781 14.410156 C 351.078125 14.265625 350.351562 14.195312 349.617188 14.195312 Z M 304.894531 89.664062 L 282.535156 73.691406 L 260.171875 73.691406 L 260.171875 49.730469 L 282.535156 49.730469 L 304.894531 33.761719 Z M 320.0625 75.84375 L 313.519531 66.769531 C 313.917969 66.480469 314.273438 66.144531 314.589844 65.769531 C 314.910156 65.394531 315.179688 64.984375 315.398438 64.546875 C 315.621094 64.105469 315.789062 63.648438 315.902344 63.167969 C 316.015625 62.691406 316.074219 62.203125 316.074219 61.710938 C 316.074219 61.21875 316.015625 60.734375 315.902344 60.253906 C 315.789062 59.777344 315.621094 59.316406 315.398438 58.878906 C 315.179688 58.4375 314.910156 58.03125 314.589844 57.65625 C 314.273438 57.28125 313.917969 56.945312 313.519531 56.652344 L 320.0625 47.578125 C 320.617188 47.984375 321.148438 48.417969 321.652344 48.886719 C 322.15625 49.351562 322.628906 49.84375 323.074219 50.367188 C 323.519531 50.890625 323.933594 51.4375 324.316406 52.007812 C 324.699219 52.578125 325.042969 53.171875 325.355469 53.78125 C 325.667969 54.394531 325.941406 55.023438 326.179688 55.667969 C 326.417969 56.3125 326.617188 56.96875 326.777344 57.636719 C 326.9375 58.300781 327.054688 58.976562 327.136719 59.660156 C 327.21875 60.339844 327.257812 61.027344 327.257812 61.710938 C 327.257812 62.398438 327.21875 63.082031 327.136719 63.765625 C 327.054688 64.445312 326.9375 65.121094 326.777344 65.789062 C 326.617188 66.457031 326.417969 67.113281 326.179688 67.757812 C 325.941406 68.402344 325.667969 69.03125 325.355469 69.640625 C 325.042969 70.253906 324.699219 70.84375 324.316406 71.417969 C 323.933594 71.988281 323.519531 72.535156 323.074219 73.054688 C 322.628906 73.578125 322.15625 74.074219 321.652344 74.539062 C 321.148438 75.003906 320.617188 75.441406 320.0625 75.84375 Z M 335.988281 88.589844 L 329.390625 79.558594 C 330.089844 79.042969 330.757812 78.492188 331.390625 77.902344 C 332.023438 77.3125 332.621094 76.6875 333.179688 76.027344 C 333.742188 75.367188 334.261719 74.675781 334.738281 73.957031 C 335.21875 73.234375 335.65625 72.488281 336.046875 71.714844 C 336.4375 70.941406 336.78125 70.148438 337.082031 69.335938 C 337.378906 68.523438 337.628906 67.695312 337.832031 66.855469 C 338.03125 66.011719 338.183594 65.160156 338.285156 64.300781 C 338.386719 63.441406 338.4375 62.578125 338.4375 61.710938 C 338.4375 60.847656 338.386719 59.984375 338.285156 59.125 C 338.183594 58.261719 338.03125 57.414062 337.832031 56.570312 C 337.628906 55.726562 337.378906 54.898438 337.082031 54.085938 C 336.78125 53.273438 336.4375 52.480469 336.046875 51.710938 C 335.65625 50.9375 335.21875 50.191406 334.738281 49.46875 C 334.261719 48.746094 333.742188 48.058594 333.179688 47.398438 C 332.621094 46.734375 332.023438 46.109375 331.390625 45.519531 C 330.757812 44.929688 330.089844 44.378906 329.390625 43.867188 L 335.988281 34.832031 C 336.515625 35.21875 337.027344 35.617188 337.53125 36.035156 C 338.03125 36.449219 338.523438 36.878906 339 37.324219 C 339.476562 37.765625 339.941406 38.222656 340.390625 38.695312 C 340.839844 39.167969 341.277344 39.652344 341.699219 40.148438 C 342.121094 40.644531 342.527344 41.152344 342.917969 41.675781 C 343.3125 42.195312 343.6875 42.726562 344.046875 43.269531 C 344.410156 43.8125 344.753906 44.363281 345.082031 44.925781 C 345.410156 45.492188 345.722656 46.0625 346.015625 46.644531 C 346.3125 47.226562 346.589844 47.8125 346.847656 48.410156 C 347.109375 49.007812 347.351562 49.613281 347.574219 50.226562 C 347.800781 50.835938 348.007812 51.457031 348.195312 52.078125 C 348.382812 52.703125 348.554688 53.332031 348.703125 53.964844 C 348.855469 54.597656 348.988281 55.238281 349.101562 55.878906 C 349.21875 56.519531 349.3125 57.164062 349.390625 57.8125 C 349.464844 58.460938 349.523438 59.109375 349.5625 59.757812 C 349.597656 60.410156 349.617188 61.058594 349.617188 61.710938 C 349.617188 62.363281 349.597656 63.015625 349.5625 63.664062 C 349.523438 64.316406 349.464844 64.964844 349.390625 65.613281 C 349.3125 66.257812 349.21875 66.902344 349.101562 67.546875 C 348.988281 68.1875 348.855469 68.824219 348.703125 69.457031 C 348.554688 70.09375 348.382812 70.722656 348.195312 71.34375 C 348.007812 71.96875 347.800781 72.585938 347.574219 73.199219 C 347.351562 73.808594 347.109375 74.414062 346.847656 75.011719 C 346.589844 75.609375 346.3125 76.199219 346.015625 76.78125 C 345.722656 77.363281 345.410156 77.933594 345.082031 78.496094 C 344.753906 79.058594 344.410156 79.613281 344.046875 80.15625 C 343.6875 80.699219 343.3125 81.230469 342.917969 81.75 C 342.527344 82.269531 342.121094 82.78125 341.699219 83.277344 C 341.277344 83.773438 340.839844 84.257812 340.390625 84.730469 C 339.941406 85.199219 339.476562 85.65625 339 86.101562 C 338.523438 86.546875 338.03125 86.976562 337.53125 87.390625 C 337.027344 87.804688 336.515625 88.207031 335.988281 88.589844 Z M 335.988281 88.589844 " fill-opacity="1" fill-rule="nonzero"/></g></svg>