<svg xmlns="http://www.w3.org/2000/svg" xmlns:xlink="http://www.w3.org/1999/xlink" width="500" zoomAndPan="magnify" viewBox="0 0 375 374.999991" height="500" preserveAspectRatio="xMidYMid meet" version="1.0"><defs><clipPath id="3ce87bddea"><path d="M 57 181 L 318 181 L 318 367.320312 L 57 367.320312 Z M 57 181 " clip-rule="nonzero"/></clipPath><clipPath id="cadeca6602"><path d="M 44.933594 141 L 329.933594 141 L 329.933594 190 L 44.933594 190 Z M 44.933594 141 " clip-rule="nonzero"/></clipPath><clipPath id="4b3bd0a69d"><path d="M 72 7.320312 L 100 7.320312 L 100 36 L 72 36 Z M 72 7.320312 " clip-rule="nonzero"/></clipPath><clipPath id="ee030c6ff0"><path d="M 153 7.320312 L 181 7.320312 L 181 36 L 153 36 Z M 153 7.320312 " clip-rule="nonzero"/></clipPath><clipPath id="8e739a838e"><path d="M 234 7.320312 L 263 7.320312 L 263 36 L 234 36 Z M 234 7.320312 " clip-rule="nonzero"/></clipPath></defs><g clip-path="url(#3ce87bddea)"><path fill="#00f3f7" d="M 163.167969 367.679688 C 159.980469 367.679688 156.867188 366.699219 154.0625 364.769531 C 149.511719 361.640625 147.011719 356.878906 147.011719 351.359375 L 147.011719 293.121094 L 59.417969 189.664062 C 58.960938 189.117188 58.53125 188.546875 58.136719 187.953125 C 56.90625 186.070312 57.445312 183.542969 59.328125 182.3125 C 61.210938 181.082031 63.738281 181.621094 64.96875 183.503906 C 65.171875 183.8125 65.394531 184.113281 65.636719 184.398438 L 154.191406 289.003906 C 154.8125 289.738281 155.152344 290.675781 155.152344 291.636719 L 155.152344 351.367188 C 155.152344 354.164062 156.367188 356.472656 158.675781 358.058594 C 160.972656 359.640625 163.574219 359.953125 166.183594 358.949219 L 214.566406 340.371094 C 217.78125 339.140625 219.777344 336.238281 219.777344 332.800781 L 219.777344 291.644531 C 219.777344 290.683594 220.117188 289.746094 220.738281 289.011719 L 309.292969 184.398438 C 309.539062 184.113281 309.757812 183.8125 309.960938 183.503906 C 311.191406 181.621094 313.71875 181.082031 315.601562 182.3125 C 317.484375 183.542969 318.023438 186.0625 316.792969 187.953125 C 316.410156 188.546875 315.976562 189.117188 315.519531 189.664062 L 227.925781 293.128906 L 227.925781 332.792969 C 227.925781 339.582031 223.828125 345.546875 217.484375 347.976562 L 169.101562 366.554688 C 167.136719 367.304688 165.140625 367.679688 163.167969 367.679688 Z M 163.167969 367.679688 " fill-opacity="1" fill-rule="nonzero"/></g><g clip-path="url(#cadeca6602)"><path fill="#00f3f7" d="M 313.570312 189.804688 L 61.359375 189.804688 C 52.285156 189.804688 44.902344 182.417969 44.902344 173.347656 L 44.902344 157.628906 C 44.902344 148.558594 52.285156 141.171875 61.359375 141.171875 L 313.570312 141.171875 C 322.644531 141.171875 330.03125 148.558594 330.03125 157.628906 L 330.03125 173.347656 C 330.03125 182.417969 322.644531 189.804688 313.570312 189.804688 Z M 61.359375 149.324219 C 56.777344 149.324219 53.050781 153.050781 53.050781 157.628906 L 53.050781 173.347656 C 53.050781 177.925781 56.777344 181.652344 61.359375 181.652344 L 313.570312 181.652344 C 318.152344 181.652344 321.878906 177.925781 321.878906 173.347656 L 321.878906 157.628906 C 321.878906 153.050781 318.152344 149.324219 313.570312 149.324219 Z M 61.359375 149.324219 " fill-opacity="1" fill-rule="nonzero"/></g><path fill="#00f3f7" d="M 85.917969 130.460938 C 78.296875 130.460938 72.09375 124.257812 72.09375 116.636719 C 72.09375 109.015625 78.296875 102.8125 85.917969 102.8125 C 93.539062 102.8125 99.742188 109.015625 99.742188 116.636719 C 99.742188 124.257812 93.539062 130.460938 85.917969 130.460938 Z M 85.917969 110.964844 C 82.789062 110.964844 80.246094 113.507812 80.246094 116.636719 C 80.246094 119.769531 82.789062 122.3125 85.917969 122.3125 C 89.046875 122.3125 91.589844 119.769531 91.589844 116.636719 C 91.589844 113.515625 89.046875 110.964844 85.917969 110.964844 Z M 85.917969 110.964844 " fill-opacity="1" fill-rule="nonzero"/><path fill="#00f3f7" d="M 85.917969 98.65625 C 78.296875 98.65625 72.09375 92.453125 72.09375 84.832031 C 72.09375 77.210938 78.296875 71.007812 85.917969 71.007812 C 93.539062 71.007812 99.742188 77.210938 99.742188 84.832031 C 99.742188 92.453125 93.539062 98.65625 85.917969 98.65625 Z M 85.917969 79.160156 C 82.789062 79.160156 80.246094 81.703125 80.246094 84.832031 C 80.246094 87.960938 82.789062 90.503906 85.917969 90.503906 C 89.046875 90.503906 91.589844 87.960938 91.589844 84.832031 C 91.589844 81.703125 89.046875 79.160156 85.917969 79.160156 Z M 85.917969 79.160156 " fill-opacity="1" fill-rule="nonzero"/><path fill="#00f3f7" d="M 85.917969 66.84375 C 78.296875 66.84375 72.09375 60.640625 72.09375 53.019531 C 72.09375 45.398438 78.296875 39.195312 85.917969 39.195312 C 93.539062 39.195312 99.742188 45.398438 99.742188 53.019531 C 99.742188 60.640625 93.539062 66.84375 85.917969 66.84375 Z M 85.917969 47.34375 C 82.789062 47.34375 80.246094 49.886719 80.246094 53.019531 C 80.246094 56.148438 82.789062 58.691406 85.917969 58.691406 C 89.046875 58.691406 91.589844 56.148438 91.589844 53.019531 C 91.589844 49.894531 89.046875 47.34375 85.917969 47.34375 Z M 85.917969 47.34375 " fill-opacity="1" fill-rule="nonzero"/><g clip-path="url(#4b3bd0a69d)"><path fill="#00f3f7" d="M 85.917969 35.035156 C 78.296875 35.035156 72.09375 28.832031 72.09375 21.210938 C 72.09375 13.589844 78.296875 7.386719 85.917969 7.386719 C 93.539062 7.386719 99.742188 13.589844 99.742188 21.210938 C 99.742188 28.832031 93.539062 35.035156 85.917969 35.035156 Z M 85.917969 15.539062 C 82.789062 15.539062 80.246094 18.082031 80.246094 21.210938 C 80.246094 24.34375 82.789062 26.886719 85.917969 26.886719 C 89.046875 26.886719 91.589844 24.34375 91.589844 21.210938 C 91.589844 18.082031 89.046875 15.539062 85.917969 15.539062 Z M 85.917969 15.539062 " fill-opacity="1" fill-rule="nonzero"/></g><path fill="#00f3f7" d="M 126.535156 130.460938 C 118.914062 130.460938 112.710938 124.257812 112.710938 116.636719 C 112.710938 109.015625 118.914062 102.8125 126.535156 102.8125 C 134.15625 102.8125 140.359375 109.015625 140.359375 116.636719 C 140.359375 124.257812 134.15625 130.460938 126.535156 130.460938 Z M 126.535156 110.964844 C 123.40625 110.964844 120.863281 113.507812 120.863281 116.636719 C 120.863281 119.769531 123.40625 122.3125 126.535156 122.3125 C 129.664062 122.3125 132.207031 119.769531 132.207031 116.636719 C 132.207031 113.515625 129.664062 110.964844 126.535156 110.964844 Z M 126.535156 110.964844 " fill-opacity="1" fill-rule="nonzero"/><path fill="#00f3f7" d="M 126.535156 98.65625 C 118.914062 98.65625 112.710938 92.453125 112.710938 84.832031 C 112.710938 77.210938 118.914062 71.007812 126.535156 71.007812 C 134.15625 71.007812 140.359375 77.210938 140.359375 84.832031 C 140.359375 92.453125 134.15625 98.65625 126.535156 98.65625 Z M 126.535156 79.160156 C 123.40625 79.160156 120.863281 81.703125 120.863281 84.832031 C 120.863281 87.960938 123.40625 90.503906 126.535156 90.503906 C 129.664062 90.503906 132.207031 87.960938 132.207031 84.832031 C 132.207031 81.703125 129.664062 79.160156 126.535156 79.160156 Z M 126.535156 79.160156 " fill-opacity="1" fill-rule="nonzero"/><path fill="#00f3f7" d="M 167.152344 130.460938 C 159.53125 130.460938 153.328125 124.257812 153.328125 116.636719 C 153.328125 109.015625 159.53125 102.8125 167.152344 102.8125 C 174.773438 102.8125 180.976562 109.015625 180.976562 116.636719 C 180.976562 124.257812 174.78125 130.460938 167.152344 130.460938 Z M 167.152344 110.964844 C 164.023438 110.964844 161.480469 113.507812 161.480469 116.636719 C 161.480469 119.769531 164.023438 122.3125 167.152344 122.3125 C 170.28125 122.3125 172.824219 119.769531 172.824219 116.636719 C 172.824219 113.515625 170.28125 110.964844 167.152344 110.964844 Z M 167.152344 110.964844 " fill-opacity="1" fill-rule="nonzero"/><path fill="#00f3f7" d="M 167.152344 98.65625 C 159.53125 98.65625 153.328125 92.453125 153.328125 84.832031 C 153.328125 77.210938 159.53125 71.007812 167.152344 71.007812 C 174.773438 71.007812 180.976562 77.210938 180.976562 84.832031 C 180.976562 92.453125 174.78125 98.65625 167.152344 98.65625 Z M 167.152344 79.160156 C 164.023438 79.160156 161.480469 81.703125 161.480469 84.832031 C 161.480469 87.960938 164.023438 90.503906 167.152344 90.503906 C 170.28125 90.503906 172.824219 87.960938 172.824219 84.832031 C 172.824219 81.703125 170.28125 79.160156 167.152344 79.160156 Z M 167.152344 79.160156 " fill-opacity="1" fill-rule="nonzero"/><path fill="#00f3f7" d="M 167.152344 66.84375 C 159.53125 66.84375 153.328125 60.640625 153.328125 53.019531 C 153.328125 45.398438 159.53125 39.195312 167.152344 39.195312 C 174.773438 39.195312 180.976562 45.398438 180.976562 53.019531 C 180.976562 60.640625 174.78125 66.84375 167.152344 66.84375 Z M 167.152344 47.34375 C 164.023438 47.34375 161.480469 49.886719 161.480469 53.019531 C 161.480469 56.148438 164.023438 58.691406 167.152344 58.691406 C 170.28125 58.691406 172.824219 56.148438 172.824219 53.019531 C 172.824219 49.894531 170.28125 47.34375 167.152344 47.34375 Z M 167.152344 47.34375 " fill-opacity="1" fill-rule="nonzero"/><g clip-path="url(#ee030c6ff0)"><path fill="#00f3f7" d="M 167.152344 35.035156 C 159.53125 35.035156 153.328125 28.832031 153.328125 21.210938 C 153.328125 13.589844 159.53125 7.386719 167.152344 7.386719 C 174.773438 7.386719 180.976562 13.589844 180.976562 21.210938 C 180.976562 28.832031 174.78125 35.035156 167.152344 35.035156 Z M 167.152344 15.539062 C 164.023438 15.539062 161.480469 18.082031 161.480469 21.210938 C 161.480469 24.34375 164.023438 26.886719 167.152344 26.886719 C 170.28125 26.886719 172.824219 24.34375 172.824219 21.210938 C 172.824219 18.082031 170.28125 15.539062 167.152344 15.539062 Z M 167.152344 15.539062 " fill-opacity="1" fill-rule="nonzero"/></g><path fill="#00f3f7" d="M 207.777344 130.460938 C 200.15625 130.460938 193.953125 124.257812 193.953125 116.636719 C 193.953125 109.015625 200.15625 102.8125 207.777344 102.8125 C 215.398438 102.8125 221.601562 109.015625 221.601562 116.636719 C 221.59375 124.257812 215.398438 130.460938 207.777344 130.460938 Z M 207.777344 110.964844 C 204.648438 110.964844 202.105469 113.507812 202.105469 116.636719 C 202.105469 119.769531 204.648438 122.3125 207.777344 122.3125 C 210.90625 122.3125 213.449219 119.769531 213.449219 116.636719 C 213.441406 113.515625 210.898438 110.964844 207.777344 110.964844 Z M 207.777344 110.964844 " fill-opacity="1" fill-rule="nonzero"/><path fill="#00f3f7" d="M 207.777344 98.65625 C 200.15625 98.65625 193.953125 92.453125 193.953125 84.832031 C 193.953125 77.210938 200.15625 71.007812 207.777344 71.007812 C 215.398438 71.007812 221.601562 77.210938 221.601562 84.832031 C 221.59375 92.453125 215.398438 98.65625 207.777344 98.65625 Z M 207.777344 79.160156 C 204.648438 79.160156 202.105469 81.703125 202.105469 84.832031 C 202.105469 87.960938 204.648438 90.503906 207.777344 90.503906 C 210.90625 90.503906 213.449219 87.960938 213.449219 84.832031 C 213.441406 81.703125 210.898438 79.160156 207.777344 79.160156 Z M 207.777344 79.160156 " fill-opacity="1" fill-rule="nonzero"/><path fill="#00f3f7" d="M 207.777344 66.84375 C 200.15625 66.84375 193.953125 60.640625 193.953125 53.019531 C 193.953125 45.398438 200.15625 39.195312 207.777344 39.195312 C 215.398438 39.195312 221.601562 45.398438 221.601562 53.019531 C 221.59375 60.640625 215.398438 66.84375 207.777344 66.84375 Z M 207.777344 47.34375 C 204.648438 47.34375 202.105469 49.886719 202.105469 53.019531 C 202.105469 56.148438 204.648438 58.691406 207.777344 58.691406 C 210.90625 58.691406 213.449219 56.148438 213.449219 53.019531 C 213.441406 49.894531 210.898438 47.34375 207.777344 47.34375 Z M 207.777344 47.34375 " fill-opacity="1" fill-rule="nonzero"/><path fill="#00f3f7" d="M 248.394531 130.460938 C 240.773438 130.460938 234.570312 124.257812 234.570312 116.636719 C 234.570312 109.015625 240.773438 102.8125 248.394531 102.8125 C 256.015625 102.8125 262.21875 109.015625 262.21875 116.636719 C 262.21875 124.257812 256.015625 130.460938 248.394531 130.460938 Z M 248.394531 110.964844 C 245.265625 110.964844 242.722656 113.507812 242.722656 116.636719 C 242.722656 119.769531 245.265625 122.3125 248.394531 122.3125 C 251.523438 122.3125 254.070312 119.769531 254.070312 116.636719 C 254.070312 113.515625 251.515625 110.964844 248.394531 110.964844 Z M 248.394531 110.964844 " fill-opacity="1" fill-rule="nonzero"/><path fill="#00f3f7" d="M 248.394531 98.65625 C 240.773438 98.65625 234.570312 92.453125 234.570312 84.832031 C 234.570312 77.210938 240.773438 71.007812 248.394531 71.007812 C 256.015625 71.007812 262.21875 77.210938 262.21875 84.832031 C 262.21875 92.453125 256.015625 98.65625 248.394531 98.65625 Z M 248.394531 79.160156 C 245.265625 79.160156 242.722656 81.703125 242.722656 84.832031 C 242.722656 87.960938 245.265625 90.503906 248.394531 90.503906 C 251.523438 90.503906 254.070312 87.960938 254.070312 84.832031 C 254.070312 81.703125 251.515625 79.160156 248.394531 79.160156 Z M 248.394531 79.160156 " fill-opacity="1" fill-rule="nonzero"/><path fill="#00f3f7" d="M 248.394531 66.84375 C 240.773438 66.84375 234.570312 60.640625 234.570312 53.019531 C 234.570312 45.398438 240.773438 39.195312 248.394531 39.195312 C 256.015625 39.195312 262.21875 45.398438 262.21875 53.019531 C 262.21875 60.640625 256.015625 66.84375 248.394531 66.84375 Z M 248.394531 47.34375 C 245.265625 47.34375 242.722656 49.886719 242.722656 53.019531 C 242.722656 56.148438 245.265625 58.691406 248.394531 58.691406 C 251.523438 58.691406 254.070312 56.148438 254.070312 53.019531 C 254.070312 49.894531 251.515625 47.34375 248.394531 47.34375 Z M 248.394531 47.34375 " fill-opacity="1" fill-rule="nonzero"/><g clip-path="url(#8e739a838e)"><path fill="#00f3f7" d="M 248.394531 35.035156 C 240.773438 35.035156 234.570312 28.832031 234.570312 21.210938 C 234.570312 13.589844 240.773438 7.386719 248.394531 7.386719 C 256.015625 7.386719 262.21875 13.589844 262.21875 21.210938 C 262.21875 28.832031 256.015625 35.035156 248.394531 35.035156 Z M 248.394531 15.539062 C 245.265625 15.539062 242.722656 18.082031 242.722656 21.210938 C 242.722656 24.34375 245.265625 26.886719 248.394531 26.886719 C 251.523438 26.886719 254.070312 24.34375 254.070312 21.210938 C 254.070312 18.082031 251.515625 15.539062 248.394531 15.539062 Z M 248.394531 15.539062 " fill-opacity="1" fill-rule="nonzero"/></g><path fill="#00f3f7" d="M 289.011719 130.460938 C 281.390625 130.460938 275.1875 124.257812 275.1875 116.636719 C 275.1875 109.015625 281.390625 102.8125 289.011719 102.8125 C 296.632812 102.8125 302.835938 109.015625 302.835938 116.636719 C 302.835938 124.257812 296.632812 130.460938 289.011719 130.460938 Z M 289.011719 110.964844 C 285.882812 110.964844 283.339844 113.507812 283.339844 116.636719 C 283.339844 119.769531 285.882812 122.3125 289.011719 122.3125 C 292.144531 122.3125 294.6875 119.769531 294.6875 116.636719 C 294.6875 113.515625 292.144531 110.964844 289.011719 110.964844 Z M 289.011719 110.964844 " fill-opacity="1" fill-rule="nonzero"/><path fill="#00f3f7" d="M 289.011719 98.65625 C 281.390625 98.65625 275.1875 92.453125 275.1875 84.832031 C 275.1875 77.210938 281.390625 71.007812 289.011719 71.007812 C 296.632812 71.007812 302.835938 77.210938 302.835938 84.832031 C 302.835938 92.453125 296.632812 98.65625 289.011719 98.65625 Z M 289.011719 79.160156 C 285.882812 79.160156 283.339844 81.703125 283.339844 84.832031 C 283.339844 87.960938 285.882812 90.503906 289.011719 90.503906 C 292.144531 90.503906 294.6875 87.960938 294.6875 84.832031 C 294.6875 81.703125 292.144531 79.160156 289.011719 79.160156 Z M 289.011719 79.160156 " fill-opacity="1" fill-rule="nonzero"/></svg>