<svg xmlns="http://www.w3.org/2000/svg" xmlns:xlink="http://www.w3.org/1999/xlink" width="500" zoomAndPan="magnify" viewBox="0 0 375 374.999991" height="500" preserveAspectRatio="xMidYMid meet" version="1.0"><defs><clipPath id="c2d6e6b003"><path d="M 190 186 L 366.234375 186 L 366.234375 362.761719 L 190 362.761719 Z M 190 186 " clip-rule="nonzero"/></clipPath></defs><path fill="#00f3f7" d="M 143.054688 312.65625 C 158.207031 312.679688 173.347656 312.65625 188.488281 312.628906 C 189.511719 309.953125 190.019531 307.097656 190.019531 304.140625 C 190.019531 290.757812 179.136719 279.878906 165.757812 279.878906 C 152.382812 279.878906 141.503906 290.757812 141.503906 304.140625 C 141.503906 307.089844 142.027344 309.945312 143.054688 312.65625 Z M 155.632812 318.40625 C 150.808594 318.40625 145.984375 318.40625 141.148438 318.398438 L 139.332031 318.386719 L 138.558594 316.738281 C 136.703125 312.785156 135.761719 308.546875 135.761719 304.140625 C 135.761719 287.597656 149.222656 274.144531 165.757812 274.144531 C 182.304688 274.144531 195.757812 287.597656 195.757812 304.140625 C 195.757812 308.5625 194.828125 312.792969 192.984375 316.714844 L 192.214844 318.363281 L 189.558594 318.363281 C 178.253906 318.386719 166.9375 318.40625 155.632812 318.40625 " fill-opacity="1" fill-rule="nonzero"/><path fill="#00f3f7" d="M 41.191406 273.847656 C 39.253906 273.847656 37.316406 273.871094 35.410156 273.941406 C 27.015625 274.207031 20.195312 279.273438 17.589844 287.140625 C 15.074219 294.769531 17.324219 302.335938 23.605469 307.378906 C 27.652344 310.644531 32.660156 312.230469 38.933594 312.230469 C 63.828125 312.230469 88.734375 312.230469 113.632812 312.210938 L 113.632812 287.804688 L 129.214844 287.804688 C 129.519531 287.058594 129.859375 286.300781 130.230469 285.554688 L 119.171875 274.457031 L 137.875 255.71875 L 149.191406 267.058594 C 149.84375 266.746094 150.527344 266.457031 151.21875 266.183594 L 151.21875 250.21875 L 177.691406 250.21875 L 177.691406 265.417969 C 178.65625 265.730469 179.554688 266.054688 180.390625 266.398438 L 191.03125 255.71875 L 209.777344 274.457031 L 200.125 284.117188 C 200.722656 285.21875 201.292969 286.421875 201.878906 287.804688 L 215.285156 287.804688 L 215.285156 312.140625 C 215.582031 312.140625 215.878906 312.140625 216.175781 312.140625 C 217.148438 312.125 218.679688 311.488281 219.402344 310.789062 C 240.308594 289.96875 261.203125 269.101562 282.101562 248.234375 C 297.839844 232.503906 313.585938 216.785156 329.339844 201.078125 C 330.40625 199.984375 330.777344 199.058594 330.777344 197.425781 C 330.714844 168.46875 330.714844 139.496094 330.722656 110.523438 L 330.722656 87.023438 L 322.34375 87.03125 C 310.808594 87.050781 299.929688 87.058594 288.839844 86.96875 C 287.214844 86.953125 286.1875 87.371094 284.917969 88.640625 C 250.917969 122.753906 214.753906 158.925781 177.441406 196.148438 C 175.222656 198.367188 172.457031 201.132812 169.101562 202.710938 C 154.515625 209.472656 139.636719 216.164062 125.25 222.628906 L 113.496094 227.921875 C 109.078125 229.90625 104.816406 229.222656 101.488281 226.015625 C 98.054688 222.652344 97.324219 218.261719 99.421875 213.664062 C 99.71875 212.941406 100.015625 212.246094 100.339844 211.574219 C 102.285156 207.261719 104.246094 202.886719 106.21875 198.503906 C 111.683594 186.320312 117.339844 173.722656 123.078125 161.417969 C 125.050781 157.226562 127.703125 153.390625 130.75 150.304688 C 147.222656 133.640625 164.074219 116.800781 180.375 100.527344 L 193.683594 87.226562 L 61.03125 87.226562 L 61.03125 261.777344 C 61.03125 269.890625 57.105469 273.847656 49.023438 273.886719 C 47.699219 273.886719 46.378906 273.878906 45.0625 273.871094 C 43.78125 273.855469 42.488281 273.847656 41.191406 273.847656 Z M 38.933594 318.40625 C 31.1875 318.40625 24.917969 316.371094 19.730469 312.1875 C 11.488281 305.570312 8.414062 295.230469 11.71875 285.199219 C 15.113281 274.964844 24.328125 268.121094 35.203125 267.765625 C 38.507812 267.644531 41.859375 267.671875 45.109375 267.695312 C 46.410156 267.703125 47.707031 267.710938 49.007812 267.710938 C 53.707031 267.6875 54.855469 266.519531 54.855469 261.777344 L 54.855469 81.050781 L 208.0625 81.050781 L 202.128906 87.402344 C 201.371094 88.207031 200.746094 88.890625 200.09375 89.550781 L 184.742188 104.894531 C 168.449219 121.167969 151.59375 138 135.152344 154.644531 C 132.578125 157.234375 130.339844 160.484375 128.675781 164.039062 C 122.960938 176.292969 117.3125 188.871094 111.847656 201.039062 C 109.875 205.421875 107.914062 209.804688 105.933594 214.179688 C 105.628906 214.820312 105.378906 215.425781 105.125 216.019531 L 105.042969 216.21875 C 103.75 219.058594 104.761719 220.578125 105.789062 221.585938 C 107.269531 223.007812 108.863281 223.234375 110.953125 222.292969 L 122.71875 217 C 137.089844 210.535156 151.949219 203.851562 166.496094 197.113281 C 168.851562 196.003906 171.097656 193.753906 173.082031 191.773438 C 210.394531 154.550781 246.550781 118.386719 280.550781 84.273438 C 282.996094 81.828125 285.574219 80.769531 288.898438 80.792969 C 299.953125 80.882812 310.828125 80.863281 322.332031 80.855469 L 336.898438 80.847656 L 336.898438 110.53125 C 336.890625 139.488281 336.890625 168.460938 336.953125 197.410156 L 336.953125 197.417969 C 336.953125 200.683594 335.957031 203.152344 333.722656 205.429688 C 317.941406 221.15625 302.207031 236.878906 286.460938 252.601562 C 265.570312 273.476562 244.667969 294.34375 223.734375 315.1875 C 221.855469 317.019531 218.839844 318.277344 216.226562 318.316406 C 213.402344 318.316406 210.628906 318.324219 207.863281 318.332031 C 205.097656 318.339844 202.320312 318.347656 199.539062 318.347656 L 195.210938 318.347656 L 196.621094 314.253906 C 196.917969 313.394531 197.207031 312.519531 197.449219 311.640625 L 198.414062 308.101562 L 209.109375 308.101562 L 209.109375 293.980469 L 197.535156 293.980469 L 196.453125 290.804688 C 195.742188 289.09375 195.027344 287.605469 194.265625 286.285156 L 192.421875 283.078125 L 201.042969 274.457031 L 191.039062 264.460938 L 181.824219 273.710938 L 178.816406 272.4375 C 177.65625 271.925781 176.453125 271.480469 174.949219 271.03125 L 171.515625 269.921875 L 171.515625 256.394531 L 157.394531 256.394531 L 157.394531 270.507812 L 154.234375 271.644531 C 153.164062 272.027344 152.0625 272.511719 151.058594 273.011719 L 147.921875 274.539062 L 137.875 264.460938 L 127.898438 274.464844 L 137.804688 284.398438 L 136.171875 287.492188 C 135.585938 288.617188 135.0625 289.769531 134.636719 290.894531 L 133.421875 293.980469 L 119.808594 293.980469 L 119.808594 308.101562 L 132.671875 308.101562 L 133.636719 311.640625 C 133.886719 312.4375 134.175781 313.347656 134.5 314.199219 L 136.066406 318.371094 L 131.613281 318.371094 C 100.714844 318.40625 69.828125 318.40625 38.933594 318.40625 " fill-opacity="1" fill-rule="nonzero"/><g clip-path="url(#c2d6e6b003)"><path fill="#00f3f7" d="M 294.679688 319.457031 L 323.121094 319.457031 L 323.121094 291.039062 Z M 329.296875 325.632812 L 279.761719 325.632812 L 329.296875 276.136719 Z M 205.5625 356.410156 L 360.320312 356.410156 L 360.320312 201.761719 Z M 366.5 362.585938 L 190.644531 362.585938 L 366.5 186.859375 L 366.5 362.585938 " fill-opacity="1" fill-rule="nonzero"/></g><path fill="#00f3f7" d="M 39.890625 29.574219 C 39.882812 29.574219 39.882812 29.574219 39.875 29.574219 C 25.496094 34.382812 16.5625 47.121094 16.554688 62.835938 C 16.519531 116.964844 16.53125 171.089844 16.539062 225.226562 L 16.546875 257.714844 C 24.355469 253.4375 32.5 252.648438 39.890625 252.792969 Z M 11.132812 269.0625 L 10.667969 263.464844 C 10.625 262.964844 10.578125 262.523438 10.539062 262.113281 C 10.441406 261.195312 10.371094 260.433594 10.371094 259.667969 L 10.363281 225.226562 C 10.351562 171.089844 10.34375 116.964844 10.378906 62.828125 C 10.386719 44.378906 20.945312 29.398438 37.921875 23.722656 C 38.828125 23.414062 39.753906 23.175781 40.757812 22.910156 L 46.066406 21.453125 L 46.066406 259.265625 L 42.816406 259.089844 C 34.253906 258.632812 24.328125 259.058594 15.605469 265.667969 L 11.132812 269.0625 " fill-opacity="1" fill-rule="nonzero"/><path fill="#00f3f7" d="M 151.066406 161.070312 L 166.222656 176.238281 L 265.746094 76.691406 L 250.570312 61.558594 Z M 166.222656 184.980469 L 142.332031 161.070312 L 250.570312 52.824219 L 274.488281 76.691406 L 166.222656 184.980469 " fill-opacity="1" fill-rule="nonzero"/><path fill="#00f3f7" d="M 282.039062 31.925781 L 298.28125 48.175781 C 298.773438 47.734375 299.253906 47.292969 299.746094 46.847656 C 302.472656 44.386719 305.042969 42.074219 307.296875 39.457031 C 310.972656 35.203125 310.648438 28.746094 306.554688 24.4375 C 302.527344 20.207031 296.085938 19.453125 291.886719 22.722656 C 288.914062 25.039062 286.148438 27.816406 283.460938 30.5 C 282.988281 30.976562 282.511719 31.449219 282.039062 31.925781 Z M 298.136719 56.78125 L 273.222656 31.84375 L 275.515625 29.65625 C 276.714844 28.523438 277.894531 27.332031 279.09375 26.132812 C 281.910156 23.320312 284.8125 20.402344 288.09375 17.851562 C 294.871094 12.566406 304.730469 13.566406 311.027344 20.183594 C 317.324219 26.800781 317.726562 36.820312 311.96875 43.496094 C 309.46875 46.398438 306.628906 48.957031 303.886719 51.433594 C 302.6875 52.519531 301.488281 53.597656 300.324219 54.707031 L 298.136719 56.78125 " fill-opacity="1" fill-rule="nonzero"/><path fill="#00f3f7" d="M 262.882812 49.414062 L 278.652344 65.222656 L 283.742188 59.851562 L 268.175781 44.292969 Z M 278.757812 74.078125 L 254.085938 49.34375 L 268.238281 35.625 L 292.371094 59.746094 L 278.757812 74.078125 " fill-opacity="1" fill-rule="nonzero"/><path fill="#00f3f7" d="M 137.675781 180.242188 L 129.996094 197.296875 L 147.132812 189.578125 Z M 124.703125 206.457031 L 120.546875 203.257812 L 135.6875 169.605469 L 157.875 191.507812 L 124.703125 206.457031 " fill-opacity="1" fill-rule="nonzero"/></svg>