<svg xmlns="http://www.w3.org/2000/svg" xmlns:xlink="http://www.w3.org/1999/xlink" width="500" zoomAndPan="magnify" viewBox="0 0 375 374.999991" height="500" preserveAspectRatio="xMidYMid meet" version="1.0"><defs><clipPath id="fc6f722850"><path d="M 11 13 L 363 13 L 363 362.246094 L 11 362.246094 Z M 11 13 " clip-rule="nonzero"/></clipPath></defs><g clip-path="url(#fc6f722850)"><path fill="#00f3f7" d="M 233.28125 230.304688 L 259.074219 230.304688 C 262.613281 230.304688 265.515625 227.378906 265.515625 223.839844 L 265.515625 94.132812 C 265.515625 90.59375 262.613281 87.691406 259.074219 87.691406 L 233.28125 87.691406 C 229.742188 87.691406 226.839844 90.59375 226.839844 94.132812 L 226.839844 223.839844 C 226.832031 227.378906 229.734375 230.304688 233.28125 230.304688 Z M 20.210938 96.960938 L 72.789062 142.65625 C 80.601562 149.394531 89.949219 151.5 98.246094 143.976562 L 186.988281 51.808594 C 189.046875 49.664062 192.65625 51.28125 192.519531 54.207031 L 192.519531 79.890625 C 192.519531 84.960938 196.566406 89.078125 201.660156 89.078125 C 206.777344 89.078125 210.9375 85.007812 210.9375 79.890625 L 210.9375 24.988281 C 210.960938 20.097656 207.101562 16.035156 202.207031 15.785156 L 147.371094 13.019531 C 142.277344 12.769531 137.984375 16.605469 137.734375 21.726562 C 137.457031 26.910156 141.230469 31.089844 146.484375 31.414062 L 171.894531 32.148438 C 174.882812 32.210938 176.003906 35.757812 173.882812 37.789062 L 89.070312 109.648438 C 87.75 110.769531 85.757812 110.632812 84.613281 109.375 C 73.078125 97.492188 56.121094 81.976562 46.117188 69.710938 C 37.960938 60.679688 26.054688 60.246094 17.722656 68.839844 C 8.355469 78.453125 11.257812 88.230469 20.210938 96.960938 Z M 304.953125 320.421875 L 321.332031 302.960938 C 309.515625 288.226562 319.9375 265.972656 339.105469 265.972656 C 351.695312 265.972656 361.886719 276.160156 361.886719 288.726562 C 361.886719 307.28125 340.9375 317.855469 326.03125 307.371094 L 309.804688 324.644531 C 322.398438 339.242188 312.113281 362.277344 292.558594 362.277344 C 273.003906 362.277344 262.695312 339.273438 275.308594 324.644531 L 259.082031 307.371094 C 251.246094 312.875 240.761719 312.875 232.917969 307.371094 L 216.691406 324.644531 C 229.308594 339.242188 218.996094 362.277344 199.441406 362.277344 C 186.878906 362.277344 176.6875 352.089844 176.6875 339.523438 C 176.6875 321.339844 196.886719 310.691406 211.855469 320.421875 L 228.234375 302.960938 C 216.402344 288.226562 226.816406 265.972656 245.992188 265.972656 C 265.183594 265.972656 275.605469 288.226562 263.765625 302.960938 L 280.144531 320.421875 C 287.703125 315.535156 297.433594 315.535156 304.953125 320.421875 Z M 163.75 230.304688 L 189.546875 230.304688 C 193.082031 230.304688 196.007812 227.378906 196.007812 223.839844 L 196.007812 134.570312 C 196.007812 131.03125 193.082031 128.132812 189.546875 128.132812 L 163.75 128.132812 C 160.230469 128.132812 157.3125 131.03125 157.3125 134.570312 L 157.3125 223.839844 C 157.304688 227.378906 160.230469 230.304688 163.75 230.304688 Z M 178.734375 300.769531 L 76.425781 300.769531 C 74.644531 300.769531 73.199219 299.328125 73.199219 297.546875 L 73.199219 195.210938 C 37.46875 205.785156 12.402344 238.734375 12.402344 276.667969 C 12.402344 323.554688 50.421875 361.578125 97.308594 361.578125 C 134.910156 361.570312 168.089844 336.808594 178.734375 300.769531 Z M 150.863281 207.363281 C 137.335938 196.992188 120.613281 190.589844 102.429688 189.90625 L 102.429688 271.542969 L 184.0625 271.542969 C 183.765625 263.867188 182.46875 256.460938 180.292969 249.449219 L 143.070312 249.449219 C 137.863281 249.449219 133.105469 247.320312 129.679688 243.894531 C 122.320312 236.535156 122.320312 224.519531 129.679688 217.160156 C 133.105469 213.734375 137.863281 211.582031 143.070312 211.582031 L 150.863281 211.582031 Z M 303.398438 230.304688 L 329.191406 230.304688 C 332.730469 230.304688 335.632812 227.378906 335.632812 223.839844 L 335.632812 46.609375 C 335.632812 43.070312 332.730469 40.167969 329.191406 40.167969 L 303.398438 40.167969 C 299.859375 40.167969 296.957031 43.070312 296.957031 46.609375 L 296.957031 223.839844 C 296.957031 227.378906 299.859375 230.304688 303.398438 230.304688 Z M 329.191406 236.753906 L 303.398438 236.753906 C 296.3125 236.753906 290.511719 230.949219 290.511719 223.839844 L 290.511719 218.0625 L 271.980469 218.0625 C 271.980469 223.816406 272.640625 228.5 268.183594 232.957031 C 265.851562 235.285156 262.605469 236.753906 259.066406 236.753906 L 233.273438 236.753906 C 226.164062 236.753906 220.382812 230.949219 220.382812 223.839844 L 220.382812 218.0625 L 202.449219 218.0625 C 202.449219 223.816406 203.136719 228.5 198.652344 232.957031 C 196.324219 235.285156 193.101562 236.753906 189.535156 236.753906 L 163.742188 236.753906 C 156.660156 236.753906 150.855469 230.949219 150.855469 223.839844 L 150.855469 218.0625 L 143.0625 218.0625 C 132.089844 218.0625 126.359375 231.472656 134.242188 239.332031 C 136.507812 241.597656 139.636719 243.007812 143.0625 243.007812 L 349.882812 243.007812 C 360.851562 243.007812 366.558594 229.59375 358.699219 221.710938 C 356.4375 219.449219 353.308594 218.054688 349.882812 218.054688 L 342.089844 218.054688 C 342.089844 223.808594 342.75 228.492188 338.292969 232.949219 C 335.980469 235.285156 332.761719 236.753906 329.191406 236.753906 Z M 329.191406 236.753906 " fill-opacity="1" fill-rule="nonzero"/></g></svg>