<svg xmlns="http://www.w3.org/2000/svg" xmlns:xlink="http://www.w3.org/1999/xlink" width="500" zoomAndPan="magnify" viewBox="0 0 375 374.999991" height="500" preserveAspectRatio="xMidYMid meet" version="1.0"><defs><clipPath id="b52657e5bd"><path d="M 8.394531 8.394531 L 366.894531 8.394531 L 366.894531 366.894531 L 8.394531 366.894531 Z M 8.394531 8.394531 " clip-rule="nonzero"/></clipPath></defs><g clip-path="url(#b52657e5bd)"><path fill="#00f3f7" d="M 354.660156 289.363281 C 354.660156 303.820312 351.234375 318.304688 344.773438 331.222656 C 337.566406 345.683594 323.039062 354.660156 306.855469 354.660156 L 261.636719 354.660156 C 246.101562 354.660156 231.132812 348.972656 219.496094 338.640625 L 203.519531 324.4375 C 193.328125 315.390625 187.5 302.375 187.5 288.734375 L 187.5 235.257812 C 187.5 225.371094 195.519531 217.347656 205.410156 217.347656 L 211.378906 217.347656 L 211.378906 277.050781 C 211.378906 280.339844 214.0625 283.019531 217.347656 283.019531 C 220.636719 283.019531 223.320312 280.339844 223.320312 277.050781 L 223.320312 133.765625 C 223.320312 130.457031 224.648438 127.378906 227.027344 125.113281 C 229.429688 122.828125 232.554688 121.640625 235.914062 121.851562 C 242.140625 122.175781 247.199219 127.984375 247.199219 134.769531 L 247.199219 217.347656 C 247.199219 220.636719 249.882812 223.320312 253.167969 223.320312 C 256.457031 223.320312 259.140625 220.636719 259.140625 217.347656 C 259.140625 214.039062 260.46875 210.957031 262.847656 208.695312 C 265.25 206.410156 268.351562 205.199219 271.734375 205.433594 C 277.960938 205.757812 283.019531 211.566406 283.019531 218.351562 L 283.019531 223.320312 C 283.019531 226.605469 285.703125 229.289062 288.988281 229.289062 C 292.277344 229.289062 294.960938 226.605469 294.960938 223.320312 C 294.960938 220.007812 296.289062 216.929688 298.667969 214.667969 C 301.070312 212.382812 304.171875 211.238281 307.554688 211.402344 C 313.78125 211.726562 318.839844 217.535156 318.839844 224.320312 L 318.839844 235.257812 C 318.839844 238.546875 321.523438 241.230469 324.8125 241.230469 C 328.097656 241.230469 330.78125 238.546875 330.78125 235.257812 C 330.78125 231.949219 332.109375 228.871094 334.488281 226.605469 C 336.890625 224.320312 339.96875 223.109375 343.375 223.34375 C 349.601562 223.667969 354.660156 229.476562 354.660156 236.261719 Z M 20.335938 80.035156 L 20.335938 68.097656 C 20.335938 41.765625 41.765625 20.335938 68.097656 20.335938 L 271.078125 20.335938 C 297.410156 20.335938 318.839844 41.765625 318.839844 68.097656 L 318.839844 80.035156 C 318.839844 106.363281 297.410156 127.796875 271.078125 127.796875 L 258.089844 127.796875 C 255.292969 117.886719 246.871094 110.445312 236.542969 109.910156 C 229.894531 109.699219 223.621094 111.890625 218.816406 116.441406 C 215.578125 119.542969 213.359375 123.507812 212.242188 127.796875 L 68.097656 127.796875 C 41.765625 127.796875 20.335938 106.363281 20.335938 80.035156 Z M 344.003906 211.402344 C 338.640625 211.214844 333.554688 212.589844 329.242188 215.53125 C 326 206.527344 317.90625 199.976562 308.183594 199.460938 C 301.886719 199.183594 296.03125 201.164062 291.367188 205.199219 C 287.359375 198.503906 280.40625 193.933594 272.363281 193.492188 C 267.582031 193.28125 263.105469 194.355469 259.140625 196.664062 L 259.140625 139.738281 L 271.078125 139.738281 C 304.007812 139.738281 330.78125 112.964844 330.78125 80.035156 L 330.78125 68.097656 C 330.78125 35.167969 304.007812 8.394531 271.078125 8.394531 L 68.097656 8.394531 C 35.191406 8.394531 8.394531 35.167969 8.394531 68.097656 L 8.394531 80.035156 C 8.394531 112.964844 35.191406 139.738281 68.097656 139.738281 L 211.378906 139.738281 L 211.378906 205.410156 L 205.410156 205.410156 C 188.945312 205.410156 175.558594 218.792969 175.558594 235.257812 L 175.558594 288.734375 C 175.558594 305.78125 182.855469 322.035156 195.589844 333.371094 L 211.566406 347.570312 C 225.371094 359.839844 243.164062 366.601562 261.636719 366.601562 L 306.855469 366.601562 C 327.585938 366.601562 346.195312 355.105469 355.453125 336.566406 C 362.753906 321.988281 366.601562 305.664062 366.601562 289.363281 L 366.601562 236.261719 C 366.601562 222.992188 356.667969 212.078125 344.003906 211.402344 " fill-opacity="1" fill-rule="nonzero"/></g><path fill="#00f3f7" d="M 74.066406 56.15625 C 77.355469 56.15625 80.035156 58.835938 80.035156 62.125 C 80.035156 65.414062 82.71875 68.097656 86.007812 68.097656 C 89.292969 68.097656 91.976562 65.414062 91.976562 62.125 C 91.976562 52.238281 83.953125 44.214844 74.066406 44.214844 C 64.179688 44.214844 56.15625 52.238281 56.15625 62.125 L 56.15625 86.007812 C 56.15625 95.894531 64.179688 103.917969 74.066406 103.917969 C 83.953125 103.917969 91.976562 95.894531 91.976562 86.007812 C 91.976562 82.71875 89.292969 80.035156 86.007812 80.035156 C 82.71875 80.035156 80.035156 82.71875 80.035156 86.007812 C 80.035156 89.292969 77.355469 91.976562 74.066406 91.976562 C 70.777344 91.976562 68.097656 89.292969 68.097656 86.007812 L 68.097656 62.125 C 68.097656 58.835938 70.777344 56.15625 74.066406 56.15625 " fill-opacity="1" fill-rule="nonzero"/><path fill="#00f3f7" d="M 157.648438 44.214844 C 154.359375 44.214844 151.675781 46.898438 151.675781 50.183594 L 151.675781 97.945312 C 151.675781 101.234375 154.359375 103.917969 157.648438 103.917969 C 160.9375 103.917969 163.617188 101.234375 163.617188 97.945312 L 163.617188 50.183594 C 163.617188 46.898438 160.9375 44.214844 157.648438 44.214844 " fill-opacity="1" fill-rule="nonzero"/><path fill="#00f3f7" d="M 115.855469 68.097656 L 115.855469 56.15625 L 121.828125 56.15625 C 125.113281 56.15625 127.796875 58.835938 127.796875 62.125 C 127.796875 65.414062 125.113281 68.097656 121.828125 68.097656 Z M 121.828125 44.214844 L 109.886719 44.214844 C 106.597656 44.214844 103.917969 46.898438 103.917969 50.183594 L 103.917969 97.945312 C 103.917969 101.234375 106.597656 103.917969 109.886719 103.917969 C 113.175781 103.917969 115.855469 101.234375 115.855469 97.945312 L 115.855469 80.035156 L 121.828125 80.035156 C 125.113281 80.035156 127.796875 82.71875 127.796875 86.007812 L 127.796875 97.945312 C 127.796875 101.234375 130.480469 103.917969 133.765625 103.917969 C 137.054688 103.917969 139.738281 101.234375 139.738281 97.945312 L 139.738281 86.007812 C 139.738281 81.386719 137.941406 77.238281 135.074219 74.066406 C 137.941406 70.894531 139.738281 66.742188 139.738281 62.125 C 139.738281 52.238281 131.714844 44.214844 121.828125 44.214844 " fill-opacity="1" fill-rule="nonzero"/><path fill="#00f3f7" d="M 193.46875 68.097656 C 190.179688 68.097656 187.5 65.414062 187.5 62.125 C 187.5 58.835938 190.179688 56.15625 193.46875 56.15625 C 198.039062 56.15625 200.371094 59.351562 200.394531 59.398438 C 202.214844 62.171875 205.898438 62.964844 208.648438 61.167969 C 211.425781 59.351562 212.21875 55.664062 210.421875 52.914062 C 208.324219 49.671875 202.375 44.214844 193.46875 44.214844 C 183.582031 44.214844 175.558594 52.238281 175.558594 62.125 C 175.558594 72.011719 183.582031 80.035156 193.46875 80.035156 C 196.757812 80.035156 199.4375 82.71875 199.4375 86.007812 C 199.4375 89.292969 196.757812 91.976562 193.46875 91.976562 C 188.96875 91.976562 186.660156 88.875 186.472656 88.640625 C 184.675781 85.9375 181.015625 85.191406 178.285156 86.960938 C 175.511719 88.78125 174.71875 92.464844 176.515625 95.21875 C 178.613281 98.460938 184.558594 103.917969 193.46875 103.917969 C 203.355469 103.917969 211.378906 95.894531 211.378906 86.007812 C 211.378906 76.117188 203.355469 68.097656 193.46875 68.097656 " fill-opacity="1" fill-rule="nonzero"/><path fill="#00f3f7" d="M 229.289062 103.917969 C 232.578125 103.917969 235.257812 101.234375 235.257812 97.945312 L 235.257812 50.183594 C 235.257812 46.898438 232.578125 44.214844 229.289062 44.214844 C 226 44.214844 223.320312 46.898438 223.320312 50.183594 L 223.320312 97.945312 C 223.320312 101.234375 226 103.917969 229.289062 103.917969 " fill-opacity="1" fill-rule="nonzero"/><path fill="#00f3f7" d="M 265.109375 80.035156 C 268.398438 80.035156 271.078125 82.71875 271.078125 86.007812 C 271.078125 89.292969 268.398438 91.976562 265.109375 91.976562 C 260.609375 91.976562 258.300781 88.875 258.113281 88.640625 C 256.316406 85.9375 252.65625 85.191406 249.929688 86.960938 C 247.152344 88.78125 246.359375 92.464844 248.15625 95.21875 C 250.253906 98.460938 256.203125 103.917969 265.109375 103.917969 C 274.996094 103.917969 283.019531 95.894531 283.019531 86.007812 C 283.019531 76.117188 274.996094 68.097656 265.109375 68.097656 C 261.820312 68.097656 259.140625 65.414062 259.140625 62.125 C 259.140625 58.835938 261.820312 56.15625 265.109375 56.15625 C 269.679688 56.15625 272.011719 59.351562 272.035156 59.398438 C 273.855469 62.171875 277.539062 62.964844 280.292969 61.167969 C 283.066406 59.351562 283.859375 55.664062 282.0625 52.914062 C 279.964844 49.671875 274.019531 44.214844 265.109375 44.214844 C 255.222656 44.214844 247.199219 52.238281 247.199219 62.125 C 247.199219 72.011719 255.222656 80.035156 265.109375 80.035156 " fill-opacity="1" fill-rule="nonzero"/></svg>