<svg xmlns="http://www.w3.org/2000/svg" xmlns:xlink="http://www.w3.org/1999/xlink" width="500" zoomAndPan="magnify" viewBox="0 0 375 374.999991" height="500" preserveAspectRatio="xMidYMid meet" version="1.0"><defs><clipPath id="eb7a3be829"><path d="M 3.699219 3.699219 L 371.199219 3.699219 L 371.199219 371.199219 L 3.699219 371.199219 Z M 3.699219 3.699219 " clip-rule="nonzero"/></clipPath></defs><g clip-path="url(#eb7a3be829)"><path fill="#00f3f7" d="M 179.335938 16.191406 L 228.398438 64.390625 L 190.96875 101.84375 C 189.820312 101.773438 188.667969 101.726562 187.496094 101.726562 C 184.839844 101.726562 182.183594 101.867188 179.574219 102.109375 C 178.714844 102.203125 177.851562 102.347656 176.992188 102.441406 C 175.269531 102.660156 173.542969 102.898438 171.847656 103.210938 C 170.839844 103.402344 169.859375 103.640625 168.855469 103.878906 C 167.347656 104.214844 165.816406 104.574219 164.332031 104.980469 C 163.300781 105.292969 162.296875 105.625 161.269531 105.960938 C 159.855469 106.414062 158.445312 106.894531 157.078125 107.421875 C 156.050781 107.804688 155.046875 108.234375 154.039062 108.664062 C 152.699219 109.214844 151.382812 109.839844 150.089844 110.460938 C 149.109375 110.964844 148.128906 111.441406 147.171875 111.96875 C 145.902344 112.636719 144.660156 113.378906 143.414062 114.121094 C 142.480469 114.671875 141.570312 115.246094 140.664062 115.820312 C 139.441406 116.636719 138.246094 117.496094 137.046875 118.382812 C 136.210938 119.003906 135.375 119.578125 134.535156 120.25 C 133.339844 121.207031 132.167969 122.210938 130.992188 123.238281 C 130.277344 123.886719 129.535156 124.484375 128.839844 125.15625 C 127.523438 126.398438 126.253906 127.714844 124.988281 129.054688 C 124.53125 129.558594 124.03125 130.011719 123.597656 130.515625 C 121.921875 132.382812 120.34375 134.320312 118.835938 136.308594 C 118.429688 136.882812 118.046875 137.503906 117.640625 138.078125 C 116.585938 139.539062 115.558594 141.019531 114.601562 142.554688 C 114.097656 143.390625 113.644531 144.253906 113.140625 145.113281 C 112.375 146.429688 111.609375 147.792969 110.914062 149.183594 C 110.4375 150.140625 110.003906 151.097656 109.574219 152.078125 C 108.953125 153.417969 108.355469 154.757812 107.804688 156.144531 C 107.398438 157.175781 107.039062 158.226562 106.65625 159.28125 C 106.175781 160.644531 105.722656 162.035156 105.316406 163.445312 C 104.980469 164.523438 104.691406 165.625 104.429688 166.722656 C 104.261719 167.394531 104.023438 168.066406 103.878906 168.734375 L 68.699219 133.554688 C 67.550781 132.40625 65.996094 131.761719 64.367188 131.761719 C 64.367188 131.761719 64.34375 131.761719 64.34375 131.761719 C 62.714844 131.761719 61.136719 132.429688 59.988281 133.601562 L 16.191406 178.164062 C 20.835938 90.238281 90.621094 20.332031 179.335938 16.191406 Z M 358.800781 179.335938 L 310.578125 228.398438 L 273.148438 190.96875 C 273.222656 189.820312 273.269531 188.667969 273.269531 187.496094 C 273.269531 184.839844 273.125 182.183594 272.886719 179.574219 C 272.789062 178.714844 272.648438 177.851562 272.550781 177.015625 C 272.335938 175.269531 272.097656 173.542969 271.785156 171.847656 C 271.59375 170.839844 271.355469 169.859375 271.113281 168.878906 C 270.78125 167.347656 270.421875 165.816406 270.015625 164.332031 C 269.703125 163.300781 269.367188 162.296875 269.058594 161.269531 C 268.578125 159.855469 268.101562 158.445312 267.574219 157.054688 C 267.191406 156.050781 266.757812 155.046875 266.328125 154.039062 C 265.777344 152.722656 265.15625 151.382812 264.535156 150.089844 C 264.03125 149.109375 263.550781 148.128906 263.027344 147.171875 C 262.355469 145.902344 261.613281 144.636719 260.871094 143.390625 C 260.296875 142.480469 259.746094 141.570312 259.171875 140.664062 C 258.359375 139.441406 257.496094 138.246094 256.613281 137.046875 C 255.988281 136.210938 255.414062 135.347656 254.769531 134.558594 C 253.789062 133.316406 252.757812 132.167969 251.730469 130.992188 C 251.109375 130.277344 250.511719 129.535156 249.863281 128.839844 C 248.570312 127.5 247.230469 126.207031 245.867188 124.914062 C 245.386719 124.484375 244.957031 124.03125 244.480469 123.597656 C 242.613281 121.921875 240.671875 120.34375 238.664062 118.835938 C 238.136719 118.429688 237.5625 118.09375 237.011719 117.6875 C 235.503906 116.636719 233.996094 115.582031 232.417969 114.601562 C 231.628906 114.097656 230.789062 113.667969 229.953125 113.1875 C 228.589844 112.398438 227.222656 111.609375 225.8125 110.914062 C 224.878906 110.4375 223.921875 110.03125 222.964844 109.597656 C 221.601562 108.953125 220.234375 108.355469 218.824219 107.804688 C 217.820312 107.398438 216.789062 107.039062 215.761719 106.679688 C 214.371094 106.175781 212.960938 105.722656 211.5 105.292969 C 210.449219 104.980469 209.394531 104.691406 208.316406 104.429688 C 207.625 104.261719 206.953125 104.046875 206.257812 103.878906 L 241.441406 68.699219 C 242.589844 67.550781 243.234375 65.972656 243.234375 64.34375 C 243.234375 62.714844 242.5625 61.136719 241.390625 60.011719 L 196.832031 16.191406 C 284.757812 20.8125 354.660156 90.621094 358.800781 179.335938 Z M 195.65625 358.800781 L 146.597656 310.601562 L 184.027344 273.148438 C 185.175781 273.222656 186.324219 273.269531 187.496094 273.269531 C 190.152344 273.269531 192.808594 273.125 195.417969 272.886719 C 196.28125 272.789062 197.140625 272.648438 198.003906 272.550781 C 199.726562 272.335938 201.449219 272.097656 203.148438 271.785156 C 204.152344 271.59375 205.136719 271.355469 206.140625 271.113281 C 207.648438 270.78125 209.179688 270.421875 210.664062 270.015625 C 211.691406 269.703125 212.699219 269.367188 213.726562 269.03125 C 215.136719 268.578125 216.550781 268.101562 217.914062 267.574219 C 218.945312 267.191406 219.949219 266.757812 220.953125 266.328125 C 222.292969 265.777344 223.609375 265.15625 224.902344 264.535156 C 225.882812 264.03125 226.863281 263.550781 227.824219 263.027344 C 229.089844 262.355469 230.335938 261.613281 231.578125 260.871094 C 232.511719 260.320312 233.421875 259.746094 234.332031 259.171875 C 235.550781 258.359375 236.75 257.496094 237.945312 256.613281 C 238.78125 255.988281 239.621094 255.414062 240.457031 254.746094 C 241.65625 253.789062 242.828125 252.785156 244 251.753906 C 244.71875 251.109375 245.460938 250.511719 246.152344 249.839844 C 247.46875 248.59375 248.738281 247.277344 250.007812 245.9375 C 250.460938 245.4375 250.964844 244.980469 251.394531 244.480469 C 253.070312 242.613281 254.648438 240.671875 256.15625 238.6875 C 256.566406 238.113281 256.949219 237.492188 257.355469 236.917969 C 258.40625 235.457031 259.4375 233.972656 260.394531 232.441406 C 260.894531 231.605469 261.351562 230.742188 261.855469 229.878906 C 262.621094 228.5625 263.386719 227.199219 264.078125 225.8125 C 264.558594 224.855469 264.988281 223.898438 265.417969 222.917969 C 266.042969 221.578125 266.640625 220.234375 267.191406 218.847656 C 267.597656 217.820312 267.957031 216.765625 268.339844 215.710938 C 268.816406 214.347656 269.273438 212.960938 269.679688 211.546875 C 270.015625 210.472656 270.300781 209.371094 270.566406 208.269531 C 270.730469 207.601562 270.972656 206.929688 271.113281 206.261719 L 306.296875 241.441406 C 307.445312 242.589844 309 243.234375 310.625 243.234375 C 310.625 243.234375 310.652344 243.234375 310.652344 243.234375 C 312.277344 243.234375 313.859375 242.5625 315.007812 241.390625 L 358.800781 196.832031 C 354.160156 284.757812 284.375 354.660156 195.65625 358.800781 Z M 187.496094 113.976562 C 189.101562 113.976562 190.65625 114.097656 192.234375 114.21875 C 192.476562 114.21875 192.640625 114.242188 192.882812 114.242188 C 231.078125 117.019531 261.015625 149.207031 261.015625 187.496094 C 261.015625 189.054688 260.894531 190.558594 260.800781 192.066406 C 260.777344 192.355469 260.753906 192.59375 260.730469 192.882812 C 257.953125 231.078125 225.789062 261.015625 187.496094 261.015625 C 185.894531 261.015625 184.339844 260.894531 182.757812 260.777344 C 182.519531 260.777344 182.351562 260.753906 182.113281 260.753906 C 143.917969 257.976562 113.976562 225.789062 113.976562 187.496094 C 113.976562 185.941406 114.097656 184.433594 114.195312 182.925781 C 114.21875 182.640625 114.242188 182.398438 114.265625 182.113281 C 117.042969 143.917969 149.207031 113.976562 187.496094 113.976562 Z M 16.191406 195.65625 L 64.414062 146.597656 L 101.84375 184.027344 C 101.773438 185.175781 101.726562 186.324219 101.726562 187.496094 C 101.726562 190.152344 101.867188 192.808594 102.109375 195.417969 C 102.203125 196.28125 102.347656 197.140625 102.441406 197.980469 C 102.660156 199.726562 102.898438 201.449219 103.210938 203.148438 C 103.402344 204.152344 103.640625 205.136719 103.878906 206.117188 C 104.214844 207.648438 104.574219 209.179688 104.980469 210.664062 C 105.292969 211.691406 105.625 212.699219 105.960938 213.726562 C 106.414062 215.136719 106.894531 216.550781 107.421875 217.9375 C 107.804688 218.945312 108.234375 219.949219 108.664062 220.953125 C 109.238281 222.269531 109.839844 223.609375 110.460938 224.902344 C 110.964844 225.882812 111.441406 226.863281 111.96875 227.824219 C 112.636719 229.089844 113.378906 230.359375 114.121094 231.605469 C 114.695312 232.511719 115.246094 233.421875 115.820312 234.332031 C 116.636719 235.550781 117.496094 236.75 118.382812 237.945312 C 119.003906 238.785156 119.578125 239.644531 120.226562 240.433594 C 121.207031 241.679688 122.234375 242.828125 123.265625 244 C 123.886719 244.71875 124.484375 245.460938 125.128906 246.152344 C 126.421875 247.496094 127.761719 248.785156 129.128906 250.078125 C 129.605469 250.511719 130.035156 250.964844 130.515625 251.394531 C 132.382812 253.070312 134.320312 254.648438 136.332031 256.15625 C 136.855469 256.566406 137.457031 256.921875 138.007812 257.304688 C 139.488281 258.382812 140.996094 259.414062 142.578125 260.394531 C 143.367188 260.894531 144.203125 261.328125 145.042969 261.804688 C 146.40625 262.59375 147.792969 263.386719 149.207031 264.078125 C 150.117188 264.558594 151.074219 264.964844 152.03125 265.394531 C 153.394531 266.042969 154.757812 266.640625 156.171875 267.191406 C 157.175781 267.597656 158.203125 267.957031 159.234375 268.316406 C 160.621094 268.816406 162.035156 269.273438 163.492188 269.703125 C 164.546875 270.015625 165.597656 270.300781 166.675781 270.566406 C 167.371094 270.730469 168.039062 270.949219 168.734375 271.113281 L 133.554688 306.296875 C 132.40625 307.445312 131.761719 309.023438 131.761719 310.652344 C 131.761719 312.277344 132.429688 313.859375 133.601562 314.980469 L 178.164062 358.800781 C 90.238281 354.183594 20.332031 284.375 16.191406 195.65625 Z M 3.84375 193.457031 C 7.027344 293.179688 87.703125 371.292969 187.496094 371.292969 C 189.078125 371.292969 190.632812 371.246094 192.1875 371.175781 L 193.410156 371.152344 C 193.433594 371.152344 193.433594 371.152344 193.457031 371.152344 C 293.179688 367.96875 371.292969 287.292969 371.292969 187.496094 C 371.292969 185.871094 371.246094 184.265625 371.175781 182.6875 L 371.152344 181.539062 C 367.96875 81.8125 287.292969 3.699219 187.496094 3.699219 C 185.917969 3.699219 184.363281 3.75 182.804688 3.820312 L 181.539062 3.84375 C 81.8125 7.027344 3.699219 87.703125 3.699219 187.496094 C 3.699219 189.125 3.75 190.726562 3.820312 192.308594 L 3.84375 193.457031 " fill-opacity="1" fill-rule="nonzero"/></g><path fill="#00f3f7" d="M 126.230469 162.992188 L 126.230469 212.003906 C 126.230469 215.378906 128.984375 218.128906 132.359375 218.128906 L 156.863281 218.128906 C 160.238281 218.128906 162.992188 215.378906 162.992188 212.003906 L 162.992188 193.625 L 150.738281 193.625 L 150.738281 205.875 L 138.484375 205.875 L 138.484375 169.117188 L 150.738281 169.117188 L 150.738281 175.242188 L 162.992188 175.242188 L 162.992188 162.992188 C 162.992188 159.617188 160.238281 156.863281 156.863281 156.863281 L 132.359375 156.863281 C 128.984375 156.863281 126.230469 159.617188 126.230469 162.992188 " fill-opacity="1" fill-rule="nonzero"/><path fill="#00f3f7" d="M 181.371094 169.117188 L 193.625 169.117188 L 193.625 181.371094 L 181.371094 181.371094 Z M 181.371094 193.625 L 188.597656 193.625 L 193.742188 219.328125 L 205.757812 216.933594 L 201.066406 193.480469 C 203.820312 192.882812 205.875 190.417969 205.875 187.496094 L 205.875 162.992188 C 205.875 159.617188 203.125 156.863281 199.75 156.863281 L 175.242188 156.863281 C 171.871094 156.863281 169.117188 159.617188 169.117188 162.992188 L 169.117188 218.128906 L 181.371094 218.128906 L 181.371094 193.625 " fill-opacity="1" fill-rule="nonzero"/><path fill="#00f3f7" d="M 224.257812 183.214844 L 225.285156 184.769531 C 227.558594 188.167969 233.207031 188.167969 235.480469 184.769531 L 236.507812 183.214844 L 236.507812 218.128906 L 248.761719 218.128906 L 248.761719 162.992188 C 248.761719 160.285156 246.992188 157.917969 244.40625 157.128906 C 241.847656 156.335938 239.046875 157.34375 237.539062 159.59375 L 230.382812 170.339844 L 223.226562 159.59375 C 221.71875 157.34375 218.945312 156.335938 216.359375 157.128906 C 213.773438 157.917969 212.003906 160.285156 212.003906 162.992188 L 212.003906 218.128906 L 224.257812 218.128906 L 224.257812 183.214844 " fill-opacity="1" fill-rule="nonzero"/><path fill="#00f3f7" d="M 291.648438 95.597656 C 301.796875 95.597656 310.027344 103.832031 310.027344 113.976562 C 310.027344 124.125 301.796875 132.359375 291.648438 132.359375 C 281.5 132.359375 273.269531 124.125 273.269531 113.976562 C 273.269531 103.832031 281.5 95.597656 291.648438 95.597656 Z M 291.648438 144.609375 C 308.542969 144.609375 322.28125 130.875 322.28125 113.976562 C 322.28125 97.082031 308.542969 83.34375 291.648438 83.34375 C 274.753906 83.34375 261.015625 97.082031 261.015625 113.976562 C 261.015625 130.875 274.753906 144.609375 291.648438 144.609375 " fill-opacity="1" fill-rule="nonzero"/><path fill="#00f3f7" d="M 224.257812 285.523438 L 291.648438 285.523438 L 291.648438 273.269531 L 224.257812 273.269531 L 224.257812 285.523438 " fill-opacity="1" fill-rule="nonzero"/><path fill="#00f3f7" d="M 224.257812 310.027344 L 279.394531 310.027344 L 279.394531 297.773438 L 224.257812 297.773438 L 224.257812 310.027344 " fill-opacity="1" fill-rule="nonzero"/><path fill="#00f3f7" d="M 224.257812 334.535156 L 254.890625 334.535156 L 254.890625 322.28125 L 224.257812 322.28125 L 224.257812 334.535156 " fill-opacity="1" fill-rule="nonzero"/><path fill="#00f3f7" d="M 297.773438 101.726562 L 285.523438 101.726562 L 285.523438 126.230469 L 297.773438 126.230469 L 297.773438 101.726562 " fill-opacity="1" fill-rule="nonzero"/><path fill="#00f3f7" d="M 71.09375 267.140625 C 57.570312 267.140625 46.585938 256.15625 46.585938 242.636719 C 46.585938 229.113281 57.570312 218.128906 71.09375 218.128906 C 84.613281 218.128906 95.597656 229.113281 95.597656 242.636719 C 95.597656 256.15625 84.613281 267.140625 71.09375 267.140625 Z M 71.09375 205.875 C 50.820312 205.875 34.332031 222.367188 34.332031 242.636719 C 34.332031 262.90625 50.820312 279.394531 71.09375 279.394531 C 91.363281 279.394531 107.851562 262.90625 107.851562 242.636719 C 107.851562 222.367188 91.363281 205.875 71.09375 205.875 " fill-opacity="1" fill-rule="nonzero"/><path fill="#00f3f7" d="M 70.445312 227.632812 L 59.484375 233.136719 L 65.613281 245.386719 C 66.210938 246.5625 67.167969 247.519531 68.339844 248.117188 L 80.59375 254.242188 L 86.097656 243.28125 L 75.664062 238.066406 L 70.445312 227.632812 " fill-opacity="1" fill-rule="nonzero"/><path fill="#00f3f7" d="M 71.09375 107.851562 L 71.09375 89.472656 L 58.839844 89.472656 L 58.839844 107.851562 L 71.09375 107.851562 " fill-opacity="1" fill-rule="nonzero"/><path fill="#00f3f7" d="M 95.597656 71.09375 L 83.34375 71.09375 L 83.34375 107.851562 L 95.597656 107.851562 L 95.597656 71.09375 " fill-opacity="1" fill-rule="nonzero"/><path fill="#00f3f7" d="M 120.105469 52.710938 L 107.851562 52.710938 L 107.851562 107.851562 L 120.105469 107.851562 L 120.105469 52.710938 " fill-opacity="1" fill-rule="nonzero"/><path fill="#00f3f7" d="M 144.609375 40.460938 L 132.359375 40.460938 L 132.359375 107.851562 L 144.609375 107.851562 L 144.609375 40.460938 " fill-opacity="1" fill-rule="nonzero"/></svg>