<svg xmlns="http://www.w3.org/2000/svg" xmlns:xlink="http://www.w3.org/1999/xlink" width="500" zoomAndPan="magnify" viewBox="0 0 375 374.999991" height="500" preserveAspectRatio="xMidYMid meet" version="1.0"><defs><clipPath id="2a1f3dd629"><path d="M 97 61 L 339 61 L 339 366.585938 L 97 366.585938 Z M 97 61 " clip-rule="nonzero"/></clipPath><clipPath id="13253f806d"><path d="M 145 8.085938 L 290 8.085938 L 290 107 L 145 107 Z M 145 8.085938 " clip-rule="nonzero"/></clipPath><clipPath id="2bff436bd1"><path d="M 36 322 L 81 322 L 81 366.585938 L 36 366.585938 Z M 36 322 " clip-rule="nonzero"/></clipPath><clipPath id="a8d74c2991"><path d="M 7.636719 358 L 367.636719 358 L 367.636719 366.585938 L 7.636719 366.585938 Z M 7.636719 358 " clip-rule="nonzero"/></clipPath></defs><g clip-path="url(#2a1f3dd629)"><path fill="#00f3f7" d="M 313.757812 366.855469 C 311.515625 366.855469 309.695312 365.035156 309.695312 362.792969 C 309.695312 360.546875 311.515625 358.726562 313.757812 358.726562 C 323.050781 358.726562 330.609375 351.167969 330.609375 341.875 L 330.609375 86.433594 C 330.609375 77.144531 323.050781 69.582031 313.757812 69.582031 L 285.898438 69.582031 C 283.65625 69.582031 281.835938 67.761719 281.835938 65.519531 C 281.835938 63.273438 283.65625 61.453125 285.898438 61.453125 L 313.757812 61.453125 C 327.53125 61.453125 338.742188 72.65625 338.742188 86.433594 L 338.742188 341.875 C 338.742188 355.652344 327.53125 366.855469 313.757812 366.855469 Z M 122.132812 366.855469 C 108.363281 366.855469 97.152344 355.652344 97.152344 341.875 L 97.152344 86.433594 C 97.152344 72.664062 108.355469 61.453125 122.132812 61.453125 L 149.992188 61.453125 C 152.238281 61.453125 154.058594 63.273438 154.058594 65.519531 C 154.058594 67.761719 152.238281 69.582031 149.992188 69.582031 L 122.132812 69.582031 C 112.84375 69.582031 105.28125 77.144531 105.28125 86.433594 L 105.28125 341.875 C 105.28125 351.167969 112.84375 358.726562 122.132812 358.726562 C 124.378906 358.726562 126.199219 360.546875 126.199219 362.792969 C 126.199219 365.035156 124.378906 366.855469 122.132812 366.855469 Z M 122.132812 366.855469 " fill-opacity="1" fill-rule="nonzero"/></g><g clip-path="url(#13253f806d)"><path fill="#00f3f7" d="M 255.707031 106.742188 L 180.1875 106.742188 C 161.292969 106.742188 145.929688 91.378906 145.929688 72.484375 L 145.929688 61.496094 C 145.929688 48.667969 156.367188 38.238281 169.1875 38.238281 L 183.933594 38.238281 C 185.949219 21.253906 200.4375 8.042969 217.945312 8.042969 C 235.457031 8.042969 249.945312 21.253906 251.960938 38.238281 L 266.699219 38.238281 C 279.527344 38.238281 289.957031 48.675781 289.957031 61.496094 L 289.957031 72.492188 C 289.964844 91.378906 274.601562 106.742188 255.707031 106.742188 Z M 169.1875 46.367188 C 160.847656 46.367188 154.058594 53.152344 154.058594 61.496094 L 154.058594 72.492188 C 154.058594 86.898438 165.78125 98.621094 180.1875 98.621094 L 255.707031 98.621094 C 270.113281 98.621094 281.835938 86.898438 281.835938 72.492188 L 281.835938 61.496094 C 281.835938 53.152344 275.046875 46.367188 266.707031 46.367188 L 248.140625 46.367188 C 245.894531 46.367188 244.074219 44.542969 244.074219 42.300781 C 244.074219 27.894531 232.351562 16.171875 217.945312 16.171875 C 203.542969 16.171875 191.820312 27.894531 191.820312 42.300781 C 191.820312 44.542969 190 46.367188 187.753906 46.367188 Z M 169.1875 46.367188 " fill-opacity="1" fill-rule="nonzero"/></g><path fill="#00f3f7" d="M 217.945312 62.941406 C 206.566406 62.941406 197.296875 53.683594 197.296875 42.292969 C 197.296875 30.902344 206.558594 21.644531 217.945312 21.644531 C 229.335938 21.644531 238.59375 30.902344 238.59375 42.292969 C 238.59375 53.683594 229.328125 62.941406 217.945312 62.941406 Z M 217.945312 29.78125 C 211.046875 29.78125 205.425781 35.398438 205.425781 42.300781 C 205.425781 49.203125 211.046875 54.820312 217.945312 54.820312 C 224.847656 54.820312 230.464844 49.203125 230.464844 42.300781 C 230.464844 35.398438 224.847656 29.78125 217.945312 29.78125 Z M 217.945312 29.78125 " fill-opacity="1" fill-rule="nonzero"/><path fill="#00f3f7" d="M 298.664062 346.394531 L 170.285156 346.394531 C 169.195312 346.394531 168.148438 345.957031 167.382812 345.175781 C 153.699219 331.207031 134.253906 311.25 120.347656 296.96875 C 119.605469 296.210938 119.191406 295.1875 119.191406 294.132812 L 119.191406 101.320312 C 119.191406 91.371094 127.289062 83.28125 137.230469 83.28125 L 153.921875 83.28125 C 156.164062 83.28125 157.984375 85.101562 157.984375 87.34375 C 157.984375 89.589844 156.164062 91.410156 153.921875 91.410156 L 137.230469 91.410156 C 131.769531 91.410156 127.320312 95.855469 127.320312 101.320312 L 127.320312 292.472656 C 140.726562 306.234375 158.78125 324.769531 171.992188 338.257812 L 298.65625 338.257812 C 304.117188 338.257812 308.5625 333.808594 308.5625 328.347656 L 308.5625 101.320312 C 308.5625 95.855469 304.117188 91.410156 298.65625 91.410156 L 281.964844 91.410156 C 279.722656 91.410156 277.902344 89.589844 277.902344 87.34375 C 277.902344 85.101562 279.722656 83.28125 281.964844 83.28125 L 298.65625 83.28125 C 308.605469 83.28125 316.695312 91.378906 316.695312 101.320312 L 316.695312 328.347656 C 316.703125 338.296875 308.605469 346.394531 298.664062 346.394531 Z M 298.664062 346.394531 " fill-opacity="1" fill-rule="nonzero"/><path fill="#00f3f7" d="M 170.285156 346.394531 C 168.039062 346.394531 166.21875 344.574219 166.21875 342.328125 L 166.21875 308.113281 C 166.21875 302.652344 161.773438 298.203125 156.308594 298.203125 L 123.257812 298.203125 C 121.011719 298.203125 119.191406 296.382812 119.191406 294.140625 C 119.191406 291.894531 121.011719 290.074219 123.257812 290.074219 L 156.308594 290.074219 C 166.261719 290.074219 174.347656 298.171875 174.347656 308.113281 L 174.347656 342.328125 C 174.347656 344.574219 172.527344 346.394531 170.285156 346.394531 Z M 170.285156 346.394531 " fill-opacity="1" fill-rule="nonzero"/><path fill="#00f3f7" d="M 222.523438 212.140625 L 209.71875 212.140625 C 206.289062 212.140625 203.46875 209.570312 202.859375 205.886719 L 201.679688 198.765625 C 201.386719 198.652344 201.09375 198.53125 200.808594 198.398438 L 194.941406 202.601562 C 191.910156 204.773438 188.097656 204.59375 185.671875 202.171875 L 176.617188 193.117188 C 174.195312 190.695312 174.015625 186.882812 176.1875 183.847656 L 180.390625 177.980469 C 180.265625 177.6875 180.144531 177.402344 180.03125 177.109375 L 172.910156 175.929688 C 169.226562 175.320312 166.660156 172.5 166.660156 169.070312 L 166.660156 156.265625 C 166.660156 152.835938 169.226562 150.015625 172.910156 149.40625 L 180.03125 148.226562 C 180.144531 147.933594 180.265625 147.640625 180.398438 147.355469 L 176.195312 141.488281 C 174.023438 138.453125 174.203125 134.640625 176.625 132.21875 L 185.679688 123.164062 C 188.105469 120.742188 191.917969 120.5625 194.949219 122.734375 L 200.816406 126.933594 C 201.109375 126.8125 201.394531 126.691406 201.6875 126.578125 L 202.867188 119.457031 C 203.476562 115.773438 206.296875 113.203125 209.726562 113.203125 L 222.53125 113.203125 C 225.960938 113.203125 228.785156 115.773438 229.394531 119.457031 L 230.570312 126.578125 C 230.863281 126.691406 231.15625 126.8125 231.441406 126.933594 L 237.3125 122.734375 C 240.34375 120.5625 244.15625 120.742188 246.578125 123.164062 L 255.632812 132.21875 C 258.058594 134.640625 258.234375 138.453125 256.066406 141.496094 L 251.863281 147.363281 C 251.984375 147.65625 252.105469 147.941406 252.21875 148.234375 L 259.339844 149.414062 C 263.023438 150.023438 265.59375 152.84375 265.59375 156.273438 L 265.59375 169.078125 C 265.59375 172.507812 263.023438 175.328125 259.339844 175.9375 L 252.21875 177.117188 C 252.105469 177.410156 251.984375 177.703125 251.855469 177.988281 L 256.058594 183.855469 C 258.226562 186.890625 258.046875 190.703125 255.625 193.125 L 246.570312 202.179688 C 244.140625 204.609375 240.328125 204.78125 237.292969 202.609375 L 231.425781 198.410156 C 231.132812 198.53125 230.847656 198.652344 230.554688 198.773438 L 229.375 205.894531 C 228.773438 209.570312 225.953125 212.140625 222.523438 212.140625 Z M 210.792969 204.007812 L 221.449219 204.007812 L 222.929688 195.089844 C 223.175781 193.597656 224.238281 192.359375 225.679688 191.886719 C 227.164062 191.402344 228.628906 190.800781 230.027344 190.082031 C 231.375 189.394531 233.003906 189.523438 234.238281 190.402344 L 241.585938 195.660156 L 249.121094 188.125 L 243.863281 180.769531 C 242.976562 179.53125 242.855469 177.914062 243.546875 176.558594 C 244.261719 175.148438 244.863281 173.695312 245.351562 172.207031 C 245.820312 170.769531 247.058594 169.703125 248.554688 169.460938 L 257.472656 167.980469 L 257.472656 157.339844 L 248.554688 155.859375 C 247.058594 155.617188 245.824219 154.550781 245.351562 153.113281 C 244.863281 151.625 244.253906 150.160156 243.546875 148.761719 C 242.855469 147.414062 242.984375 145.789062 243.863281 144.550781 L 249.121094 137.203125 L 241.585938 129.667969 L 234.238281 134.925781 C 233.003906 135.804688 231.382812 135.933594 230.027344 135.242188 C 228.628906 134.527344 227.164062 133.925781 225.679688 133.4375 C 224.238281 132.96875 223.175781 131.730469 222.929688 130.234375 L 221.449219 121.316406 L 210.792969 121.316406 L 209.3125 130.234375 C 209.070312 131.730469 208.003906 132.96875 206.566406 133.4375 C 205.078125 133.925781 203.613281 134.527344 202.214844 135.242188 C 200.867188 135.933594 199.242188 135.804688 198.003906 134.925781 L 190.65625 129.667969 L 183.121094 137.203125 L 188.378906 144.558594 C 189.265625 145.796875 189.386719 147.414062 188.699219 148.769531 C 187.980469 150.175781 187.378906 151.640625 186.894531 153.121094 C 186.421875 154.558594 185.1875 155.625 183.691406 155.867188 L 174.773438 157.347656 L 174.773438 168.003906 L 183.691406 169.484375 C 185.1875 169.726562 186.421875 170.792969 186.894531 172.230469 C 187.378906 173.71875 187.980469 175.183594 188.699219 176.582031 C 189.378906 177.929688 189.257812 179.554688 188.378906 180.792969 L 183.121094 188.140625 L 190.65625 195.675781 L 198.015625 190.417969 C 199.25 189.53125 200.867188 189.410156 202.226562 190.101562 C 203.621094 190.816406 205.085938 191.417969 206.574219 191.90625 C 208.011719 192.375 209.078125 193.613281 209.320312 195.109375 Z M 210.792969 204.007812 " fill-opacity="1" fill-rule="nonzero"/><path fill="#00f3f7" d="M 216.125 183.546875 C 204.605469 183.546875 195.242188 174.175781 195.242188 162.664062 C 195.242188 151.152344 204.613281 141.78125 216.125 141.78125 C 227.636719 141.78125 237.011719 151.152344 237.011719 162.664062 C 237.011719 174.175781 227.636719 183.546875 216.125 183.546875 Z M 216.125 149.910156 C 209.09375 149.910156 203.371094 155.632812 203.371094 162.664062 C 203.371094 169.695312 209.09375 175.417969 216.125 175.417969 C 223.15625 175.417969 228.878906 169.695312 228.878906 162.664062 C 228.878906 155.632812 223.15625 149.910156 216.125 149.910156 Z M 216.125 149.910156 " fill-opacity="1" fill-rule="nonzero"/><path fill="#00f3f7" d="M 76.140625 311.699219 L 40.25 311.699219 C 38.003906 311.699219 36.183594 309.878906 36.183594 307.632812 L 36.183594 112.246094 C 36.183594 110.003906 38.003906 108.179688 40.25 108.179688 L 76.140625 108.179688 C 78.382812 108.179688 80.203125 110.003906 80.203125 112.246094 L 80.203125 307.632812 C 80.203125 309.878906 78.382812 311.699219 76.140625 311.699219 Z M 44.3125 303.570312 L 72.074219 303.570312 L 72.074219 116.308594 L 44.3125 116.308594 Z M 44.3125 303.570312 " fill-opacity="1" fill-rule="nonzero"/><path fill="#00f3f7" d="M 76.140625 116.308594 C 73.894531 116.308594 72.074219 114.488281 72.074219 112.246094 L 72.074219 87.65625 C 72.074219 85.410156 73.894531 83.589844 76.140625 83.589844 C 78.382812 83.589844 80.203125 85.410156 80.203125 87.65625 L 80.203125 112.246094 C 80.203125 114.496094 78.382812 116.308594 76.140625 116.308594 Z M 40.25 116.308594 C 38.003906 116.308594 36.183594 114.488281 36.183594 112.246094 L 36.183594 87.65625 C 36.183594 85.410156 38.003906 83.589844 40.25 83.589844 C 42.492188 83.589844 44.3125 85.410156 44.3125 87.65625 L 44.3125 112.246094 C 44.3125 114.496094 42.492188 116.308594 40.25 116.308594 Z M 40.25 116.308594 " fill-opacity="1" fill-rule="nonzero"/><path fill="#00f3f7" d="M 76.140625 91.726562 L 40.25 91.726562 C 38.003906 91.726562 36.183594 89.90625 36.183594 87.664062 L 36.183594 65.730469 C 36.183594 53.59375 46.050781 43.722656 58.191406 43.722656 C 70.328125 43.722656 80.195312 53.601562 80.195312 65.730469 L 80.195312 87.664062 C 80.203125 89.90625 78.382812 91.726562 76.140625 91.726562 Z M 44.3125 83.597656 L 72.074219 83.597656 L 72.074219 65.730469 C 72.074219 58.078125 65.847656 51.851562 58.199219 51.851562 C 50.546875 51.851562 44.320312 58.078125 44.320312 65.730469 L 44.320312 83.597656 Z M 44.3125 83.597656 " fill-opacity="1" fill-rule="nonzero"/><path fill="#00f3f7" d="M 76.140625 330.304688 L 40.25 330.304688 C 38.003906 330.304688 36.183594 328.484375 36.183594 326.242188 L 36.183594 307.632812 C 36.183594 305.390625 38.003906 303.570312 40.25 303.570312 L 76.140625 303.570312 C 78.382812 303.570312 80.203125 305.390625 80.203125 307.632812 L 80.203125 326.242188 C 80.203125 328.484375 78.382812 330.304688 76.140625 330.304688 Z M 44.3125 322.175781 L 72.074219 322.175781 L 72.074219 311.699219 L 44.3125 311.699219 Z M 44.3125 322.175781 " fill-opacity="1" fill-rule="nonzero"/><g clip-path="url(#2bff436bd1)"><path fill="#00f3f7" d="M 58.199219 366.855469 C 56.644531 366.855469 55.230469 365.976562 54.546875 364.578125 L 36.605469 328.03125 C 35.613281 326.015625 36.453125 323.582031 38.460938 322.59375 C 40.476562 321.601562 42.90625 322.4375 43.898438 324.453125 L 58.191406 353.574219 L 72.480469 324.453125 C 73.472656 322.4375 75.902344 321.609375 77.917969 322.59375 C 79.933594 323.582031 80.765625 326.015625 79.78125 328.03125 L 61.839844 364.578125 C 61.15625 365.976562 59.742188 366.855469 58.199219 366.855469 Z M 58.199219 366.855469 " fill-opacity="1" fill-rule="nonzero"/></g><path fill="#00f3f7" d="M 67.132812 348.644531 C 66.683594 348.644531 66.238281 348.574219 65.796875 348.417969 C 60.847656 346.695312 55.539062 346.695312 50.589844 348.417969 C 48.46875 349.160156 46.148438 348.035156 45.410156 345.914062 C 44.671875 343.792969 45.792969 341.476562 47.914062 340.738281 C 54.589844 338.410156 61.789062 338.410156 68.464844 340.738281 C 70.585938 341.476562 71.707031 343.792969 70.96875 345.914062 C 70.390625 347.597656 68.816406 348.644531 67.132812 348.644531 Z M 67.132812 348.644531 " fill-opacity="1" fill-rule="nonzero"/><path fill="#00f3f7" d="M 58.199219 262.117188 C 55.953125 262.117188 54.132812 260.296875 54.132812 258.054688 L 54.132812 161.828125 C 54.132812 159.582031 55.953125 157.761719 58.199219 157.761719 C 60.441406 157.761719 62.261719 159.582031 62.261719 161.828125 L 62.261719 258.054688 C 62.261719 260.304688 60.441406 262.117188 58.199219 262.117188 Z M 58.199219 262.117188 " fill-opacity="1" fill-rule="nonzero"/><path fill="#00f3f7" d="M 272.511719 236.882812 L 159.742188 236.882812 C 157.496094 236.882812 155.675781 235.0625 155.675781 232.820312 C 155.675781 230.574219 157.496094 228.753906 159.742188 228.753906 L 272.511719 228.753906 C 274.753906 228.753906 276.574219 230.574219 276.574219 232.820312 C 276.574219 235.0625 274.753906 236.882812 272.511719 236.882812 Z M 272.511719 236.882812 " fill-opacity="1" fill-rule="nonzero"/><path fill="#00f3f7" d="M 272.511719 260.890625 L 159.742188 260.890625 C 157.496094 260.890625 155.675781 259.070312 155.675781 256.824219 C 155.675781 254.582031 157.496094 252.761719 159.742188 252.761719 L 272.511719 252.761719 C 274.753906 252.761719 276.574219 254.582031 276.574219 256.824219 C 276.574219 259.070312 274.753906 260.890625 272.511719 260.890625 Z M 272.511719 260.890625 " fill-opacity="1" fill-rule="nonzero"/><g clip-path="url(#a8d74c2991)"><path fill="#00f3f7" d="M 363.054688 366.855469 L 11.867188 366.855469 C 9.625 366.855469 7.804688 365.035156 7.804688 362.792969 C 7.804688 360.546875 9.625 358.726562 11.867188 358.726562 L 363.054688 358.726562 C 365.300781 358.726562 367.121094 360.546875 367.121094 362.792969 C 367.121094 365.035156 365.300781 366.855469 363.054688 366.855469 Z M 363.054688 366.855469 " fill-opacity="1" fill-rule="nonzero"/></g></svg>