<svg xmlns="http://www.w3.org/2000/svg" xmlns:xlink="http://www.w3.org/1999/xlink" width="500" zoomAndPan="magnify" viewBox="0 0 375 374.999991" height="500" preserveAspectRatio="xMidYMid meet" version="1.0"><defs><clipPath id="a96c306c49"><path d="M 27 6.261719 L 342 6.261719 L 342 285 L 27 285 Z M 27 6.261719 " clip-rule="nonzero"/></clipPath><clipPath id="a39bec1a00"><path d="M 3.035156 302 L 306 302 L 306 368.511719 L 3.035156 368.511719 Z M 3.035156 302 " clip-rule="nonzero"/></clipPath><clipPath id="bf1b8c36b5"><path d="M 312 305 L 367 305 L 367 368.511719 L 312 368.511719 Z M 312 305 " clip-rule="nonzero"/></clipPath></defs><g clip-path="url(#a96c306c49)"><path fill="#00f3f7" d="M 323.730469 6.261719 L 45.832031 6.261719 C 45.238281 6.261719 44.648438 6.292969 44.054688 6.351562 C 43.464844 6.40625 42.878906 6.496094 42.296875 6.609375 C 41.714844 6.726562 41.140625 6.871094 40.570312 7.042969 C 40.003906 7.214844 39.445312 7.414062 38.898438 7.640625 C 38.347656 7.871094 37.8125 8.121094 37.289062 8.402344 C 36.765625 8.683594 36.257812 8.988281 35.765625 9.316406 C 35.269531 9.648438 34.792969 10 34.335938 10.375 C 33.875 10.753906 33.4375 11.152344 33.015625 11.570312 C 32.597656 11.992188 32.199219 12.429688 31.824219 12.886719 C 31.445312 13.347656 31.09375 13.824219 30.761719 14.316406 C 30.433594 14.8125 30.128906 15.320312 29.847656 15.84375 C 29.570312 16.367188 29.316406 16.902344 29.089844 17.449219 C 28.863281 18 28.660156 18.558594 28.488281 19.125 C 28.316406 19.691406 28.171875 20.269531 28.058594 20.851562 C 27.941406 21.433594 27.855469 22.019531 27.796875 22.609375 C 27.738281 23.199219 27.710938 23.792969 27.710938 24.386719 L 27.710938 217.703125 C 27.710938 218.296875 27.738281 218.890625 27.796875 219.480469 C 27.855469 220.070312 27.941406 220.660156 28.058594 221.242188 C 28.171875 221.824219 28.316406 222.398438 28.488281 222.964844 C 28.660156 223.535156 28.863281 224.09375 29.089844 224.640625 C 29.316406 225.1875 29.570312 225.726562 29.847656 226.25 C 30.128906 226.773438 30.433594 227.28125 30.761719 227.773438 C 31.09375 228.265625 31.445312 228.742188 31.824219 229.203125 C 32.199219 229.660156 32.597656 230.101562 33.015625 230.519531 C 33.4375 230.941406 33.875 231.339844 34.335938 231.714844 C 34.792969 232.089844 35.269531 232.445312 35.765625 232.773438 C 36.257812 233.105469 36.765625 233.410156 37.289062 233.6875 C 37.8125 233.96875 38.347656 234.222656 38.898438 234.449219 C 39.445312 234.675781 40.003906 234.875 40.570312 235.046875 C 41.140625 235.21875 41.714844 235.363281 42.296875 235.480469 C 42.878906 235.597656 43.464844 235.683594 44.054688 235.742188 C 44.648438 235.800781 45.238281 235.828125 45.832031 235.828125 L 166.65625 235.828125 L 166.65625 247.910156 L 136.449219 247.910156 C 135.65625 247.910156 134.871094 247.988281 134.09375 248.144531 C 133.316406 248.296875 132.558594 248.527344 131.828125 248.832031 C 131.09375 249.132812 130.398438 249.507812 129.738281 249.945312 C 129.078125 250.386719 128.46875 250.890625 127.90625 251.449219 C 127.347656 252.011719 126.84375 252.621094 126.40625 253.28125 C 125.964844 253.941406 125.59375 254.636719 125.289062 255.371094 C 124.984375 256.101562 124.753906 256.859375 124.601562 257.636719 C 124.445312 258.414062 124.367188 259.199219 124.367188 259.992188 L 124.367188 272.074219 C 124.367188 272.867188 124.445312 273.65625 124.601562 274.433594 C 124.753906 275.210938 124.984375 275.964844 125.289062 276.699219 C 125.59375 277.433594 125.964844 278.128906 126.40625 278.789062 C 126.84375 279.449219 127.347656 280.058594 127.90625 280.621094 C 128.46875 281.179688 129.078125 281.679688 129.738281 282.121094 C 130.398438 282.5625 131.09375 282.933594 131.828125 283.238281 C 132.558594 283.542969 133.316406 283.769531 134.09375 283.925781 C 134.871094 284.082031 135.65625 284.15625 136.449219 284.160156 L 233.109375 284.160156 C 233.902344 284.15625 234.6875 284.082031 235.46875 283.925781 C 236.246094 283.769531 237 283.542969 237.734375 283.238281 C 238.46875 282.933594 239.164062 282.5625 239.824219 282.121094 C 240.484375 281.679688 241.09375 281.179688 241.652344 280.621094 C 242.214844 280.058594 242.714844 279.449219 243.15625 278.789062 C 243.597656 278.128906 243.96875 277.433594 244.273438 276.699219 C 244.578125 275.964844 244.804688 275.210938 244.960938 274.433594 C 245.117188 273.65625 245.191406 272.867188 245.191406 272.074219 L 245.191406 259.992188 C 245.191406 259.199219 245.117188 258.414062 244.960938 257.636719 C 244.804688 256.859375 244.578125 256.101562 244.273438 255.371094 C 243.96875 254.636719 243.597656 253.941406 243.15625 253.28125 C 242.714844 252.621094 242.214844 252.011719 241.652344 251.449219 C 241.09375 250.890625 240.484375 250.386719 239.824219 249.945312 C 239.164062 249.507812 238.46875 249.132812 237.734375 248.832031 C 237 248.527344 236.246094 248.296875 235.46875 248.144531 C 234.6875 247.988281 233.902344 247.910156 233.109375 247.910156 L 202.90625 247.910156 L 202.90625 235.828125 L 323.730469 235.828125 C 324.320312 235.828125 324.914062 235.800781 325.503906 235.742188 C 326.09375 235.683594 326.683594 235.597656 327.265625 235.480469 C 327.847656 235.363281 328.421875 235.21875 328.988281 235.046875 C 329.558594 234.875 330.117188 234.675781 330.664062 234.449219 C 331.210938 234.222656 331.75 233.96875 332.273438 233.6875 C 332.796875 233.410156 333.304688 233.105469 333.796875 232.773438 C 334.289062 232.445312 334.765625 232.089844 335.226562 231.714844 C 335.683594 231.339844 336.125 230.941406 336.542969 230.519531 C 336.964844 230.101562 337.363281 229.660156 337.738281 229.203125 C 338.113281 228.742188 338.46875 228.265625 338.796875 227.773438 C 339.128906 227.28125 339.433594 226.773438 339.710938 226.25 C 339.992188 225.726562 340.246094 225.1875 340.472656 224.640625 C 340.699219 224.09375 340.898438 223.535156 341.070312 222.964844 C 341.242188 222.398438 341.386719 221.824219 341.503906 221.242188 C 341.621094 220.660156 341.707031 220.070312 341.765625 219.480469 C 341.824219 218.890625 341.851562 218.296875 341.851562 217.703125 L 341.851562 24.386719 C 341.851562 23.792969 341.824219 23.199219 341.765625 22.609375 C 341.707031 22.019531 341.621094 21.433594 341.503906 20.851562 C 341.386719 20.269531 341.242188 19.691406 341.070312 19.125 C 340.898438 18.558594 340.699219 18 340.472656 17.449219 C 340.246094 16.902344 339.992188 16.367188 339.710938 15.84375 C 339.433594 15.320312 339.128906 14.8125 338.796875 14.316406 C 338.46875 13.824219 338.113281 13.347656 337.738281 12.886719 C 337.363281 12.429688 336.964844 11.992188 336.542969 11.570312 C 336.125 11.152344 335.683594 10.753906 335.226562 10.375 C 334.765625 10 334.289062 9.648438 333.796875 9.316406 C 333.304688 8.988281 332.796875 8.683594 332.273438 8.402344 C 331.75 8.121094 331.210938 7.871094 330.664062 7.640625 C 330.117188 7.414062 329.558594 7.214844 328.988281 7.042969 C 328.421875 6.871094 327.847656 6.726562 327.265625 6.609375 C 326.683594 6.496094 326.09375 6.40625 325.503906 6.351562 C 324.914062 6.292969 324.320312 6.261719 323.730469 6.261719 Z M 233.109375 259.992188 L 233.109375 272.074219 L 136.449219 272.074219 L 136.449219 259.992188 L 172.699219 259.992188 C 173.09375 259.992188 173.488281 259.953125 173.875 259.878906 C 174.265625 259.800781 174.644531 259.683594 175.011719 259.535156 C 175.375 259.382812 175.726562 259.195312 176.054688 258.976562 C 176.382812 258.753906 176.691406 258.503906 176.96875 258.222656 C 177.25 257.945312 177.5 257.636719 177.722656 257.308594 C 177.941406 256.980469 178.128906 256.628906 178.28125 256.265625 C 178.429688 255.898438 178.546875 255.519531 178.625 255.128906 C 178.699219 254.742188 178.738281 254.347656 178.738281 253.953125 L 178.738281 235.828125 L 190.820312 235.828125 L 190.820312 253.953125 C 190.820312 254.347656 190.859375 254.742188 190.9375 255.128906 C 191.015625 255.519531 191.128906 255.898438 191.28125 256.265625 C 191.433594 256.628906 191.621094 256.980469 191.839844 257.308594 C 192.058594 257.636719 192.3125 257.945312 192.589844 258.222656 C 192.871094 258.503906 193.175781 258.753906 193.507812 258.976562 C 193.835938 259.195312 194.183594 259.382812 194.550781 259.535156 C 194.917969 259.683594 195.296875 259.800781 195.683594 259.878906 C 196.074219 259.953125 196.464844 259.992188 196.863281 259.992188 Z M 329.769531 217.703125 C 329.769531 218.101562 329.730469 218.496094 329.652344 218.882812 C 329.578125 219.273438 329.460938 219.648438 329.308594 220.015625 C 329.15625 220.382812 328.972656 220.730469 328.75 221.0625 C 328.53125 221.390625 328.28125 221.695312 328 221.976562 C 327.71875 222.257812 327.414062 222.507812 327.085938 222.726562 C 326.753906 222.949219 326.40625 223.132812 326.039062 223.285156 C 325.675781 223.4375 325.296875 223.550781 324.90625 223.628906 C 324.519531 223.707031 324.125 223.746094 323.730469 223.746094 L 45.832031 223.746094 C 45.4375 223.746094 45.042969 223.707031 44.652344 223.628906 C 44.265625 223.550781 43.886719 223.4375 43.519531 223.285156 C 43.15625 223.132812 42.804688 222.949219 42.476562 222.726562 C 42.148438 222.507812 41.839844 222.257812 41.5625 221.976562 C 41.28125 221.695312 41.03125 221.390625 40.808594 221.0625 C 40.589844 220.730469 40.402344 220.382812 40.25 220.015625 C 40.101562 219.648438 39.984375 219.273438 39.90625 218.882812 C 39.832031 218.496094 39.792969 218.101562 39.792969 217.703125 L 39.792969 24.386719 C 39.792969 23.988281 39.832031 23.597656 39.90625 23.207031 C 39.984375 22.820312 40.101562 22.441406 40.25 22.074219 C 40.402344 21.707031 40.589844 21.359375 40.808594 21.03125 C 41.03125 20.699219 41.28125 20.394531 41.5625 20.113281 C 41.839844 19.832031 42.148438 19.582031 42.476562 19.363281 C 42.804688 19.144531 43.15625 18.957031 43.519531 18.804688 C 43.886719 18.652344 44.265625 18.539062 44.652344 18.460938 C 45.042969 18.382812 45.4375 18.34375 45.832031 18.34375 L 323.730469 18.34375 C 324.125 18.34375 324.519531 18.382812 324.90625 18.460938 C 325.296875 18.539062 325.675781 18.652344 326.039062 18.804688 C 326.40625 18.957031 326.753906 19.144531 327.085938 19.363281 C 327.414062 19.582031 327.71875 19.832031 328 20.113281 C 328.28125 20.394531 328.53125 20.699219 328.75 21.03125 C 328.972656 21.359375 329.15625 21.707031 329.308594 22.074219 C 329.460938 22.441406 329.578125 22.820312 329.652344 23.207031 C 329.730469 23.597656 329.769531 23.988281 329.769531 24.386719 Z M 329.769531 217.703125 " fill-opacity="1" fill-rule="nonzero"/></g><g clip-path="url(#a39bec1a00)"><path fill="#00f3f7" d="M 304.46875 366.222656 C 305.035156 365.433594 305.390625 364.5625 305.535156 363.601562 C 305.679688 362.644531 305.597656 361.703125 305.289062 360.785156 L 287.167969 306.414062 C 286.96875 305.8125 286.679688 305.257812 286.304688 304.746094 C 285.929688 304.234375 285.484375 303.792969 284.96875 303.425781 C 284.457031 303.054688 283.898438 302.769531 283.296875 302.574219 C 282.691406 302.378906 282.074219 302.28125 281.441406 302.28125 L 27.710938 302.28125 C 27.074219 302.28125 26.457031 302.378906 25.855469 302.574219 C 25.25 302.769531 24.691406 303.054688 24.179688 303.425781 C 23.664062 303.792969 23.21875 304.234375 22.84375 304.746094 C 22.46875 305.257812 22.183594 305.8125 21.980469 306.414062 L 3.859375 360.785156 C 3.707031 361.238281 3.613281 361.703125 3.570312 362.179688 C 3.53125 362.65625 3.546875 363.132812 3.617188 363.605469 C 3.691406 364.078125 3.816406 364.535156 3.996094 364.980469 C 4.179688 365.421875 4.410156 365.835938 4.6875 366.226562 C 4.96875 366.613281 5.289062 366.964844 5.652344 367.273438 C 6.015625 367.585938 6.410156 367.851562 6.835938 368.070312 C 7.261719 368.289062 7.707031 368.453125 8.171875 368.566406 C 8.636719 368.679688 9.105469 368.734375 9.585938 368.734375 L 299.5625 368.734375 C 300.535156 368.734375 301.453125 368.515625 302.320312 368.070312 C 303.183594 367.628906 303.902344 367.011719 304.46875 366.222656 Z M 17.972656 356.652344 L 32.066406 314.363281 L 277.085938 314.363281 L 291.179688 356.652344 Z M 17.972656 356.652344 " fill-opacity="1" fill-rule="nonzero"/></g><g clip-path="url(#bf1b8c36b5)"><path fill="#00f3f7" d="M 334.832031 366.921875 C 337.648438 368.125 340.589844 368.730469 343.652344 368.734375 C 347.441406 368.722656 350.992188 367.800781 354.308594 365.96875 C 364.871094 360.203125 370.964844 346.03125 360.796875 327.394531 C 358.839844 323.648438 356.417969 320.230469 353.535156 317.140625 C 350.648438 314.050781 347.40625 311.398438 343.804688 309.1875 C 342.246094 308.144531 340.582031 307.316406 338.8125 306.707031 C 337.042969 306.097656 335.222656 305.722656 333.351562 305.585938 C 331.484375 305.449219 329.628906 305.554688 327.789062 305.902344 C 325.949219 306.246094 324.179688 306.824219 322.488281 307.628906 C 310.59375 314.109375 308.78125 332.960938 318.363281 350.519531 C 320.105469 354.105469 322.390625 357.300781 325.210938 360.113281 C 328.035156 362.925781 331.242188 365.195312 334.832031 366.921875 Z M 328.273438 318.253906 C 329.175781 317.78125 330.132812 317.554688 331.152344 317.578125 C 333.539062 317.695312 335.746094 318.394531 337.769531 319.667969 C 340.402344 321.332031 342.769531 323.3125 344.878906 325.609375 C 346.984375 327.902344 348.753906 330.433594 350.1875 333.199219 C 355.703125 343.308594 355.0625 351.808594 348.523438 355.378906 C 347.84375 355.765625 347.128906 356.066406 346.375 356.28125 C 345.625 356.5 344.859375 356.625 344.078125 356.664062 C 343.300781 356.699219 342.527344 356.644531 341.757812 356.496094 C 340.992188 356.351562 340.25 356.117188 339.539062 355.796875 C 337.21875 354.589844 335.152344 353.042969 333.34375 351.15625 C 331.535156 349.265625 330.078125 347.140625 328.972656 344.769531 C 322.519531 332.878906 323.269531 320.960938 328.273438 318.238281 Z M 328.273438 318.253906 " fill-opacity="1" fill-rule="nonzero"/></g><path fill="#00f3f7" d="M 106.246094 36.46875 C 104.660156 36.46875 103.082031 36.546875 101.507812 36.703125 C 99.933594 36.855469 98.367188 37.089844 96.816406 37.398438 C 95.265625 37.707031 93.730469 38.089844 92.214844 38.550781 C 90.699219 39.007812 89.210938 39.542969 87.75 40.148438 C 86.289062 40.753906 84.859375 41.429688 83.460938 42.175781 C 82.066406 42.921875 80.710938 43.734375 79.394531 44.613281 C 78.078125 45.492188 76.808594 46.433594 75.585938 47.4375 C 74.363281 48.441406 73.191406 49.503906 72.070312 50.625 C 70.953125 51.742188 69.890625 52.914062 68.886719 54.136719 C 67.882812 55.363281 66.941406 56.632812 66.058594 57.949219 C 65.179688 59.265625 64.367188 60.621094 63.621094 62.015625 C 62.875 63.410156 62.199219 64.839844 61.59375 66.304688 C 60.988281 67.765625 60.457031 69.253906 59.996094 70.769531 C 59.535156 72.285156 59.152344 73.816406 58.84375 75.371094 C 58.535156 76.921875 58.304688 78.484375 58.148438 80.0625 C 57.992188 81.636719 57.914062 83.214844 57.914062 84.796875 C 57.914062 86.382812 57.992188 87.960938 58.148438 89.535156 C 58.304688 91.109375 58.535156 92.675781 58.84375 94.226562 C 59.152344 95.78125 59.535156 97.3125 59.996094 98.828125 C 60.457031 100.34375 60.988281 101.832031 61.59375 103.292969 C 62.199219 104.753906 62.875 106.183594 63.621094 107.582031 C 64.367188 108.976562 65.179688 110.332031 66.058594 111.648438 C 66.941406 112.964844 67.882812 114.234375 68.886719 115.457031 C 69.890625 116.683594 70.953125 117.851562 72.070312 118.972656 C 73.191406 120.089844 74.363281 121.152344 75.585938 122.15625 C 76.808594 123.160156 78.078125 124.105469 79.394531 124.984375 C 80.710938 125.863281 82.066406 126.675781 83.460938 127.421875 C 84.859375 128.167969 86.289062 128.84375 87.75 129.449219 C 89.210938 130.054688 90.699219 130.585938 92.214844 131.046875 C 93.730469 131.507812 95.265625 131.890625 96.816406 132.199219 C 98.367188 132.507812 99.933594 132.738281 101.507812 132.894531 C 103.082031 133.050781 104.660156 133.128906 106.246094 133.128906 C 107.828125 133.128906 109.40625 133.050781 110.980469 132.894531 C 112.558594 132.738281 114.121094 132.507812 115.671875 132.199219 C 117.226562 131.890625 118.757812 131.507812 120.273438 131.046875 C 121.789062 130.585938 123.277344 130.054688 124.738281 129.449219 C 126.203125 128.84375 127.632812 128.167969 129.027344 127.421875 C 130.421875 126.675781 131.78125 125.863281 133.09375 124.984375 C 134.410156 124.105469 135.679688 123.160156 136.90625 122.15625 C 138.128906 121.152344 139.300781 120.089844 140.417969 118.972656 C 141.539062 117.851562 142.601562 116.683594 143.605469 115.457031 C 144.609375 114.234375 145.550781 112.964844 146.429688 111.648438 C 147.308594 110.332031 148.121094 108.976562 148.867188 107.582031 C 149.613281 106.183594 150.289062 104.753906 150.894531 103.292969 C 151.5 101.832031 152.035156 100.34375 152.492188 98.828125 C 152.953125 97.3125 153.335938 95.78125 153.644531 94.226562 C 153.953125 92.675781 154.1875 91.109375 154.34375 89.535156 C 154.496094 87.960938 154.574219 86.382812 154.574219 84.796875 C 154.574219 83.214844 154.492188 81.636719 154.335938 80.0625 C 154.179688 78.488281 153.945312 76.925781 153.636719 75.375 C 153.328125 73.820312 152.941406 72.289062 152.480469 70.773438 C 152.019531 69.261719 151.488281 67.773438 150.882812 66.3125 C 150.273438 64.851562 149.597656 63.421875 148.851562 62.027344 C 148.105469 60.632812 147.292969 59.277344 146.414062 57.960938 C 145.535156 56.644531 144.589844 55.375 143.585938 54.152344 C 142.582031 52.929688 141.523438 51.757812 140.402344 50.640625 C 139.285156 49.519531 138.113281 48.460938 136.890625 47.457031 C 135.667969 46.453125 134.398438 45.511719 133.082031 44.628906 C 131.765625 43.75 130.410156 42.9375 129.015625 42.191406 C 127.621094 41.445312 126.191406 40.769531 124.730469 40.160156 C 123.269531 39.554688 121.78125 39.023438 120.269531 38.5625 C 118.753906 38.101562 117.222656 37.714844 115.667969 37.40625 C 114.117188 37.097656 112.554688 36.863281 110.980469 36.707031 C 109.40625 36.550781 107.828125 36.46875 106.246094 36.46875 Z M 106.246094 121.046875 C 105.058594 121.046875 103.875 120.988281 102.691406 120.871094 C 101.511719 120.753906 100.335938 120.582031 99.171875 120.347656 C 98.007812 120.117188 96.859375 119.828125 95.722656 119.484375 C 94.585938 119.140625 93.46875 118.742188 92.375 118.285156 C 91.277344 117.832031 90.203125 117.324219 89.15625 116.765625 C 88.109375 116.207031 87.09375 115.597656 86.105469 114.9375 C 85.121094 114.277344 84.167969 113.570312 83.25 112.816406 C 82.332031 112.066406 81.453125 111.269531 80.613281 110.429688 C 79.773438 109.589844 78.980469 108.710938 78.226562 107.792969 C 77.472656 106.875 76.765625 105.921875 76.105469 104.9375 C 75.445312 103.949219 74.835938 102.933594 74.277344 101.886719 C 73.71875 100.839844 73.210938 99.765625 72.757812 98.667969 C 72.300781 97.574219 71.902344 96.457031 71.558594 95.320312 C 71.214844 94.183594 70.925781 93.035156 70.695312 91.871094 C 70.460938 90.707031 70.289062 89.53125 70.171875 88.351562 C 70.054688 87.167969 69.996094 85.984375 69.996094 84.796875 C 69.996094 83.609375 70.054688 82.425781 70.171875 81.246094 C 70.289062 80.0625 70.460938 78.890625 70.695312 77.726562 C 70.925781 76.5625 71.214844 75.414062 71.558594 74.277344 C 71.902344 73.140625 72.300781 72.023438 72.757812 70.925781 C 73.210938 69.832031 73.71875 68.757812 74.277344 67.710938 C 74.835938 66.664062 75.445312 65.648438 76.105469 64.660156 C 76.765625 63.671875 77.472656 62.722656 78.226562 61.804688 C 78.980469 60.886719 79.773438 60.007812 80.613281 59.167969 C 81.453125 58.328125 82.332031 57.53125 83.25 56.777344 C 84.167969 56.027344 85.121094 55.320312 86.105469 54.660156 C 87.09375 54 88.109375 53.390625 89.15625 52.832031 C 90.203125 52.269531 91.277344 51.765625 92.375 51.308594 C 93.46875 50.855469 94.585938 50.457031 95.722656 50.113281 C 96.859375 49.765625 98.007812 49.480469 99.171875 49.246094 C 100.335938 49.015625 101.511719 48.84375 102.691406 48.726562 C 103.875 48.609375 105.058594 48.550781 106.246094 48.550781 C 107.433594 48.550781 108.617188 48.609375 109.796875 48.726562 C 110.980469 48.84375 112.152344 49.015625 113.316406 49.246094 C 114.480469 49.480469 115.632812 49.765625 116.765625 50.113281 C 117.902344 50.457031 119.019531 50.855469 120.117188 51.308594 C 121.214844 51.765625 122.285156 52.269531 123.332031 52.832031 C 124.378906 53.390625 125.394531 54 126.382812 54.660156 C 127.371094 55.320312 128.324219 56.027344 129.238281 56.777344 C 130.15625 57.53125 131.035156 58.328125 131.875 59.167969 C 132.714844 60.007812 133.511719 60.886719 134.265625 61.804688 C 135.015625 62.722656 135.722656 63.671875 136.382812 64.660156 C 137.042969 65.648438 137.652344 66.664062 138.210938 67.710938 C 138.773438 68.757812 139.277344 69.832031 139.734375 70.925781 C 140.1875 72.023438 140.585938 73.140625 140.929688 74.277344 C 141.277344 75.414062 141.5625 76.5625 141.796875 77.726562 C 142.027344 78.890625 142.203125 80.0625 142.316406 81.246094 C 142.433594 82.425781 142.492188 83.609375 142.492188 84.796875 C 142.492188 85.984375 142.433594 87.167969 142.3125 88.351562 C 142.195312 89.53125 142.023438 90.703125 141.789062 91.867188 C 141.558594 93.03125 141.269531 94.179688 140.921875 95.316406 C 140.578125 96.453125 140.179688 97.566406 139.722656 98.664062 C 139.269531 99.761719 138.761719 100.832031 138.203125 101.878906 C 137.640625 102.925781 137.03125 103.941406 136.371094 104.925781 C 135.710938 105.914062 135.007812 106.867188 134.253906 107.785156 C 133.5 108.699219 132.703125 109.578125 131.863281 110.417969 C 131.027344 111.257812 130.148438 112.054688 129.230469 112.808594 C 128.3125 113.558594 127.359375 114.265625 126.375 114.925781 C 125.386719 115.585938 124.371094 116.195312 123.324219 116.753906 C 122.277344 117.316406 121.207031 117.820312 120.109375 118.277344 C 119.015625 118.730469 117.898438 119.132812 116.761719 119.476562 C 115.628906 119.820312 114.476562 120.109375 113.3125 120.34375 C 112.148438 120.574219 110.976562 120.75 109.796875 120.867188 C 108.617188 120.984375 107.433594 121.042969 106.246094 121.046875 Z M 106.246094 121.046875 " fill-opacity="1" fill-rule="nonzero"/><path fill="#00f3f7" d="M 88.121094 60.632812 L 100.203125 60.632812 L 100.203125 72.714844 L 88.121094 72.714844 Z M 88.121094 60.632812 " fill-opacity="1" fill-rule="nonzero"/><path fill="#00f3f7" d="M 112.285156 60.632812 L 124.367188 60.632812 L 124.367188 72.714844 L 112.285156 72.714844 Z M 112.285156 60.632812 " fill-opacity="1" fill-rule="nonzero"/><path fill="#00f3f7" d="M 106.246094 96.878906 C 105.453125 96.878906 104.664062 96.804688 103.886719 96.648438 C 103.109375 96.492188 102.355469 96.265625 101.621094 95.960938 C 100.886719 95.65625 100.191406 95.285156 99.53125 94.84375 C 98.871094 94.402344 98.261719 93.902344 97.703125 93.34375 C 97.140625 92.78125 96.640625 92.171875 96.199219 91.511719 C 95.757812 90.851562 95.386719 90.15625 95.082031 89.421875 C 94.777344 88.6875 94.550781 87.933594 94.394531 87.15625 C 94.238281 86.378906 94.164062 85.589844 94.164062 84.796875 L 82.082031 84.796875 C 82.082031 85.589844 82.117188 86.378906 82.195312 87.167969 C 82.273438 87.953125 82.390625 88.738281 82.542969 89.511719 C 82.699219 90.289062 82.890625 91.054688 83.121094 91.8125 C 83.351562 92.570312 83.617188 93.316406 83.917969 94.046875 C 84.222656 94.777344 84.558594 95.492188 84.933594 96.191406 C 85.304688 96.886719 85.714844 97.566406 86.152344 98.222656 C 86.59375 98.882812 87.0625 99.515625 87.566406 100.128906 C 88.066406 100.738281 88.597656 101.324219 89.15625 101.886719 C 89.71875 102.445312 90.304688 102.976562 90.914062 103.476562 C 91.527344 103.980469 92.160156 104.449219 92.820312 104.890625 C 93.476562 105.332031 94.15625 105.738281 94.855469 106.109375 C 95.550781 106.484375 96.265625 106.820312 96.996094 107.125 C 97.730469 107.425781 98.472656 107.691406 99.230469 107.921875 C 99.988281 108.152344 100.753906 108.34375 101.53125 108.5 C 102.308594 108.652344 103.089844 108.769531 103.875 108.847656 C 104.664062 108.925781 105.453125 108.964844 106.246094 108.964844 C 107.035156 108.964844 107.824219 108.925781 108.613281 108.847656 C 109.402344 108.769531 110.183594 108.652344 110.960938 108.5 C 111.734375 108.34375 112.503906 108.152344 113.257812 107.921875 C 114.015625 107.691406 114.761719 107.425781 115.492188 107.125 C 116.222656 106.820312 116.9375 106.484375 117.636719 106.109375 C 118.335938 105.738281 119.011719 105.332031 119.671875 104.890625 C 120.328125 104.449219 120.964844 103.980469 121.574219 103.476562 C 122.1875 102.976562 122.773438 102.445312 123.332031 101.886719 C 123.890625 101.324219 124.421875 100.738281 124.925781 100.128906 C 125.425781 99.515625 125.898438 98.882812 126.335938 98.222656 C 126.777344 97.566406 127.183594 96.886719 127.554688 96.191406 C 127.929688 95.492188 128.265625 94.777344 128.570312 94.046875 C 128.875 93.316406 129.140625 92.570312 129.371094 91.8125 C 129.597656 91.054688 129.792969 90.289062 129.945312 89.511719 C 130.101562 88.738281 130.214844 87.953125 130.292969 87.167969 C 130.371094 86.378906 130.410156 85.589844 130.410156 84.796875 L 118.328125 84.796875 C 118.328125 85.589844 118.25 86.378906 118.09375 87.15625 C 117.941406 87.933594 117.710938 88.6875 117.40625 89.421875 C 117.105469 90.15625 116.730469 90.851562 116.292969 91.511719 C 115.851562 92.171875 115.347656 92.78125 114.789062 93.34375 C 114.226562 93.902344 113.617188 94.402344 112.957031 94.84375 C 112.296875 95.285156 111.601562 95.65625 110.867188 95.960938 C 110.136719 96.265625 109.378906 96.492188 108.601562 96.648438 C 107.824219 96.804688 107.039062 96.878906 106.246094 96.878906 Z M 106.246094 96.878906 " fill-opacity="1" fill-rule="nonzero"/><path fill="#00f3f7" d="M 263.316406 36.46875 C 261.734375 36.46875 260.15625 36.546875 258.578125 36.703125 C 257.003906 36.855469 255.441406 37.089844 253.886719 37.398438 C 252.335938 37.707031 250.800781 38.089844 249.285156 38.550781 C 247.773438 39.007812 246.285156 39.542969 244.820312 40.148438 C 243.359375 40.753906 241.929688 41.429688 240.535156 42.175781 C 239.136719 42.921875 237.78125 43.734375 236.464844 44.613281 C 235.148438 45.492188 233.878906 46.433594 232.65625 47.4375 C 231.433594 48.441406 230.261719 49.503906 229.140625 50.625 C 228.023438 51.742188 226.960938 52.914062 225.957031 54.136719 C 224.953125 55.363281 224.011719 56.632812 223.132812 57.949219 C 222.253906 59.265625 221.441406 60.621094 220.695312 62.015625 C 219.949219 63.410156 219.269531 64.839844 218.664062 66.304688 C 218.058594 67.765625 217.527344 69.253906 217.066406 70.769531 C 216.609375 72.285156 216.222656 73.816406 215.914062 75.371094 C 215.605469 76.921875 215.375 78.484375 215.21875 80.0625 C 215.0625 81.636719 214.988281 83.214844 214.988281 84.796875 C 214.988281 86.382812 215.0625 87.960938 215.21875 89.535156 C 215.375 91.109375 215.605469 92.675781 215.914062 94.226562 C 216.222656 95.78125 216.609375 97.3125 217.066406 98.828125 C 217.527344 100.34375 218.058594 101.832031 218.664062 103.292969 C 219.269531 104.753906 219.949219 106.183594 220.695312 107.582031 C 221.441406 108.976562 222.253906 110.332031 223.132812 111.648438 C 224.011719 112.964844 224.953125 114.234375 225.957031 115.457031 C 226.960938 116.683594 228.023438 117.851562 229.140625 118.972656 C 230.261719 120.089844 231.433594 121.152344 232.65625 122.15625 C 233.878906 123.160156 235.148438 124.105469 236.464844 124.984375 C 237.78125 125.863281 239.136719 126.675781 240.535156 127.421875 C 241.929688 128.167969 243.359375 128.84375 244.820312 129.449219 C 246.285156 130.054688 247.773438 130.585938 249.285156 131.046875 C 250.800781 131.507812 252.335938 131.890625 253.886719 132.199219 C 255.441406 132.507812 257.003906 132.738281 258.578125 132.894531 C 260.15625 133.050781 261.734375 133.128906 263.316406 133.128906 C 264.898438 133.128906 266.476562 133.050781 268.054688 132.894531 C 269.628906 132.738281 271.191406 132.507812 272.746094 132.199219 C 274.296875 131.890625 275.832031 131.507812 277.347656 131.046875 C 278.859375 130.585938 280.347656 130.054688 281.8125 129.449219 C 283.273438 128.84375 284.703125 128.167969 286.097656 127.421875 C 287.496094 126.675781 288.851562 125.863281 290.167969 124.984375 C 291.484375 124.105469 292.753906 123.160156 293.976562 122.15625 C 295.199219 121.152344 296.371094 120.089844 297.492188 118.972656 C 298.609375 117.851562 299.671875 116.683594 300.675781 115.457031 C 301.679688 114.234375 302.621094 112.964844 303.5 111.648438 C 304.378906 110.332031 305.191406 108.976562 305.9375 107.582031 C 306.683594 106.183594 307.363281 104.753906 307.96875 103.292969 C 308.574219 101.832031 309.105469 100.34375 309.566406 98.828125 C 310.023438 97.3125 310.410156 95.78125 310.71875 94.226562 C 311.027344 92.675781 311.257812 91.109375 311.414062 89.535156 C 311.570312 87.960938 311.644531 86.382812 311.644531 84.796875 C 311.644531 83.214844 311.566406 81.636719 311.410156 80.0625 C 311.25 78.488281 311.019531 76.925781 310.707031 75.375 C 310.398438 73.820312 310.011719 72.289062 309.554688 70.773438 C 309.09375 69.261719 308.558594 67.773438 307.953125 66.3125 C 307.347656 64.851562 306.667969 63.421875 305.921875 62.027344 C 305.175781 60.632812 304.363281 59.277344 303.484375 57.960938 C 302.605469 56.644531 301.664062 55.375 300.660156 54.152344 C 299.65625 52.929688 298.59375 51.757812 297.476562 50.640625 C 296.355469 49.519531 295.183594 48.460938 293.960938 47.457031 C 292.738281 46.453125 291.46875 45.511719 290.152344 44.628906 C 288.839844 43.75 287.484375 42.9375 286.089844 42.191406 C 284.691406 41.445312 283.265625 40.769531 281.804688 40.160156 C 280.339844 39.554688 278.855469 39.023438 277.339844 38.5625 C 275.824219 38.101562 274.292969 37.714844 272.742188 37.40625 C 271.191406 37.097656 269.625 36.863281 268.050781 36.707031 C 266.476562 36.550781 264.898438 36.46875 263.316406 36.46875 Z M 263.316406 121.046875 C 262.128906 121.046875 260.945312 120.988281 259.761719 120.871094 C 258.582031 120.753906 257.410156 120.582031 256.246094 120.347656 C 255.082031 120.117188 253.929688 119.828125 252.792969 119.484375 C 251.660156 119.140625 250.542969 118.742188 249.445312 118.285156 C 248.347656 117.832031 247.277344 117.324219 246.230469 116.765625 C 245.183594 116.207031 244.164062 115.597656 243.179688 114.9375 C 242.191406 114.277344 241.238281 113.570312 240.320312 112.816406 C 239.402344 112.066406 238.523438 111.269531 237.6875 110.429688 C 236.847656 109.589844 236.050781 108.710938 235.296875 107.792969 C 234.542969 106.875 233.835938 105.921875 233.179688 104.9375 C 232.519531 103.949219 231.910156 102.933594 231.347656 101.886719 C 230.789062 100.839844 230.28125 99.765625 229.828125 98.667969 C 229.375 97.574219 228.972656 96.457031 228.628906 95.320312 C 228.285156 94.183594 227.996094 93.035156 227.765625 91.871094 C 227.535156 90.707031 227.359375 89.53125 227.242188 88.351562 C 227.128906 87.167969 227.070312 85.984375 227.070312 84.796875 C 227.070312 83.609375 227.128906 82.425781 227.242188 81.246094 C 227.359375 80.0625 227.535156 78.890625 227.765625 77.726562 C 227.996094 76.5625 228.285156 75.414062 228.628906 74.277344 C 228.972656 73.140625 229.375 72.023438 229.828125 70.925781 C 230.28125 69.832031 230.789062 68.757812 231.347656 67.710938 C 231.910156 66.664062 232.519531 65.648438 233.179688 64.660156 C 233.835938 63.671875 234.542969 62.722656 235.296875 61.804688 C 236.050781 60.886719 236.847656 60.007812 237.6875 59.167969 C 238.523438 58.328125 239.402344 57.53125 240.320312 56.777344 C 241.238281 56.027344 242.191406 55.320312 243.179688 54.660156 C 244.164062 54 245.183594 53.390625 246.230469 52.832031 C 247.277344 52.269531 248.347656 51.765625 249.445312 51.308594 C 250.542969 50.855469 251.660156 50.457031 252.792969 50.113281 C 253.929688 49.765625 255.082031 49.480469 256.246094 49.246094 C 257.410156 49.015625 258.582031 48.84375 259.761719 48.726562 C 260.945312 48.609375 262.128906 48.550781 263.316406 48.550781 C 264.503906 48.550781 265.6875 48.609375 266.871094 48.726562 C 268.050781 48.84375 269.222656 49.015625 270.386719 49.246094 C 271.550781 49.480469 272.703125 49.765625 273.839844 50.113281 C 274.972656 50.457031 276.089844 50.855469 277.1875 51.308594 C 278.285156 51.765625 279.355469 52.269531 280.402344 52.832031 C 281.449219 53.390625 282.46875 54 283.453125 54.660156 C 284.441406 55.320312 285.394531 56.027344 286.3125 56.777344 C 287.230469 57.53125 288.109375 58.328125 288.945312 59.167969 C 289.785156 60.007812 290.582031 60.886719 291.335938 61.804688 C 292.089844 62.722656 292.796875 63.671875 293.453125 64.660156 C 294.113281 65.648438 294.722656 66.664062 295.285156 67.710938 C 295.84375 68.757812 296.351562 69.832031 296.804688 70.925781 C 297.257812 72.023438 297.660156 73.140625 298.003906 74.277344 C 298.347656 75.414062 298.636719 76.5625 298.867188 77.726562 C 299.097656 78.890625 299.273438 80.0625 299.390625 81.246094 C 299.503906 82.425781 299.5625 83.609375 299.5625 84.796875 C 299.5625 85.984375 299.503906 87.167969 299.386719 88.351562 C 299.269531 89.53125 299.09375 90.703125 298.859375 91.867188 C 298.628906 93.03125 298.339844 94.179688 297.996094 95.316406 C 297.648438 96.453125 297.25 97.566406 296.792969 98.664062 C 296.339844 99.761719 295.832031 100.832031 295.273438 101.878906 C 294.714844 102.925781 294.101562 103.941406 293.445312 104.925781 C 292.785156 105.914062 292.078125 106.867188 291.324219 107.785156 C 290.570312 108.699219 289.777344 109.578125 288.9375 110.417969 C 288.097656 111.257812 287.21875 112.054688 286.300781 112.808594 C 285.382812 113.558594 284.433594 114.265625 283.445312 114.925781 C 282.460938 115.585938 281.441406 116.195312 280.394531 116.753906 C 279.351562 117.316406 278.277344 117.820312 277.183594 118.277344 C 276.085938 118.730469 274.96875 119.132812 273.835938 119.476562 C 272.699219 119.820312 271.550781 120.109375 270.386719 120.34375 C 269.222656 120.574219 268.050781 120.75 266.867188 120.867188 C 265.6875 120.984375 264.503906 121.042969 263.316406 121.046875 Z M 263.316406 121.046875 " fill-opacity="1" fill-rule="nonzero"/><path fill="#00f3f7" d="M 245.191406 60.632812 L 257.273438 60.632812 L 257.273438 72.714844 L 245.191406 72.714844 Z M 245.191406 60.632812 " fill-opacity="1" fill-rule="nonzero"/><path fill="#00f3f7" d="M 269.359375 60.632812 L 281.441406 60.632812 L 281.441406 72.714844 L 269.359375 72.714844 Z M 269.359375 60.632812 " fill-opacity="1" fill-rule="nonzero"/><path fill="#00f3f7" d="M 263.316406 78.757812 C 262.523438 78.757812 261.734375 78.796875 260.949219 78.875 C 260.160156 78.949219 259.378906 79.066406 258.601562 79.222656 C 257.824219 79.375 257.058594 79.566406 256.300781 79.796875 C 255.542969 80.027344 254.800781 80.292969 254.070312 80.597656 C 253.335938 80.898438 252.625 81.238281 251.925781 81.609375 C 251.226562 81.984375 250.550781 82.390625 249.890625 82.828125 C 249.234375 83.269531 248.597656 83.738281 247.988281 84.242188 C 247.375 84.746094 246.789062 85.273438 246.230469 85.835938 C 245.667969 86.394531 245.140625 86.980469 244.636719 87.59375 C 244.132812 88.203125 243.664062 88.839844 243.222656 89.496094 C 242.785156 90.15625 242.378906 90.832031 242.003906 91.53125 C 241.632812 92.230469 241.292969 92.941406 240.992188 93.675781 C 240.6875 94.40625 240.421875 95.148438 240.191406 95.90625 C 239.960938 96.664062 239.769531 97.429688 239.617188 98.207031 C 239.460938 98.984375 239.34375 99.765625 239.269531 100.554688 C 239.191406 101.339844 239.152344 102.128906 239.152344 102.921875 L 251.234375 102.921875 C 251.234375 102.128906 251.3125 101.34375 251.464844 100.566406 C 251.621094 99.785156 251.851562 99.03125 252.152344 98.296875 C 252.457031 97.566406 252.828125 96.867188 253.269531 96.210938 C 253.710938 95.550781 254.210938 94.9375 254.773438 94.378906 C 255.332031 93.816406 255.945312 93.316406 256.605469 92.875 C 257.261719 92.433594 257.960938 92.0625 258.691406 91.757812 C 259.425781 91.457031 260.179688 91.226562 260.960938 91.070312 C 261.738281 90.917969 262.523438 90.839844 263.316406 90.839844 C 264.109375 90.839844 264.894531 90.917969 265.671875 91.070312 C 266.453125 91.226562 267.207031 91.457031 267.941406 91.757812 C 268.671875 92.0625 269.371094 92.433594 270.027344 92.875 C 270.6875 93.316406 271.300781 93.816406 271.859375 94.378906 C 272.421875 94.9375 272.921875 95.550781 273.363281 96.210938 C 273.804688 96.867188 274.175781 97.566406 274.480469 98.296875 C 274.78125 99.03125 275.011719 99.785156 275.167969 100.566406 C 275.320312 101.34375 275.398438 102.128906 275.398438 102.921875 L 287.480469 102.921875 C 287.480469 102.128906 287.441406 101.339844 287.363281 100.554688 C 287.289062 99.765625 287.171875 98.984375 287.015625 98.207031 C 286.863281 97.429688 286.671875 96.664062 286.441406 95.90625 C 286.210938 95.148438 285.945312 94.40625 285.640625 93.675781 C 285.339844 92.941406 285 92.230469 284.628906 91.53125 C 284.253906 90.832031 283.847656 90.15625 283.410156 89.496094 C 282.96875 88.839844 282.5 88.203125 281.996094 87.59375 C 281.492188 86.980469 280.964844 86.394531 280.402344 85.835938 C 279.84375 85.273438 279.257812 84.746094 278.644531 84.242188 C 278.035156 83.738281 277.398438 83.269531 276.742188 82.828125 C 276.082031 82.390625 275.40625 81.984375 274.707031 81.609375 C 274.007812 81.238281 273.296875 80.898438 272.5625 80.597656 C 271.832031 80.292969 271.089844 80.027344 270.332031 79.796875 C 269.574219 79.566406 268.808594 79.375 268.03125 79.222656 C 267.253906 79.066406 266.472656 78.949219 265.683594 78.875 C 264.898438 78.796875 264.109375 78.757812 263.316406 78.757812 Z M 263.316406 78.757812 " fill-opacity="1" fill-rule="nonzero"/><path fill="#00f3f7" d="M 124.367188 157.292969 L 88.121094 157.292969 C 87.726562 157.292969 87.332031 157.332031 86.941406 157.410156 C 86.554688 157.484375 86.175781 157.601562 85.808594 157.753906 C 85.441406 157.90625 85.09375 158.089844 84.765625 158.3125 C 84.433594 158.53125 84.128906 158.78125 83.847656 159.0625 C 83.570312 159.34375 83.320312 159.648438 83.097656 159.976562 C 82.878906 160.308594 82.691406 160.65625 82.539062 161.023438 C 82.386719 161.386719 82.273438 161.765625 82.195312 162.15625 C 82.117188 162.542969 82.082031 162.9375 82.082031 163.335938 L 82.082031 199.582031 C 82.082031 199.976562 82.117188 200.371094 82.195312 200.761719 C 82.273438 201.148438 82.386719 201.527344 82.539062 201.894531 C 82.691406 202.257812 82.878906 202.609375 83.097656 202.9375 C 83.320312 203.265625 83.570312 203.574219 83.847656 203.851562 C 84.128906 204.132812 84.433594 204.382812 84.765625 204.605469 C 85.09375 204.824219 85.441406 205.011719 85.808594 205.164062 C 86.175781 205.3125 86.554688 205.429688 86.941406 205.507812 C 87.332031 205.582031 87.726562 205.621094 88.121094 205.621094 L 124.367188 205.621094 C 124.765625 205.621094 125.15625 205.582031 125.546875 205.507812 C 125.9375 205.429688 126.3125 205.3125 126.679688 205.164062 C 127.046875 205.011719 127.394531 204.824219 127.726562 204.605469 C 128.054688 204.382812 128.359375 204.132812 128.640625 203.851562 C 128.921875 203.574219 129.171875 203.265625 129.390625 202.9375 C 129.613281 202.609375 129.796875 202.257812 129.949219 201.894531 C 130.101562 201.527344 130.214844 201.148438 130.292969 200.761719 C 130.371094 200.371094 130.410156 199.976562 130.410156 199.582031 L 130.410156 163.335938 C 130.410156 162.9375 130.371094 162.542969 130.292969 162.15625 C 130.214844 161.765625 130.101562 161.386719 129.949219 161.023438 C 129.796875 160.65625 129.613281 160.308594 129.390625 159.976562 C 129.171875 159.648438 128.921875 159.34375 128.640625 159.0625 C 128.359375 158.78125 128.054688 158.53125 127.726562 158.3125 C 127.394531 158.089844 127.046875 157.90625 126.679688 157.753906 C 126.3125 157.601562 125.9375 157.484375 125.546875 157.410156 C 125.15625 157.332031 124.765625 157.292969 124.367188 157.292969 Z M 118.328125 193.539062 L 94.164062 193.539062 L 94.164062 169.375 L 118.328125 169.375 Z M 118.328125 193.539062 " fill-opacity="1" fill-rule="nonzero"/><path fill="#00f3f7" d="M 281.441406 157.292969 L 245.191406 157.292969 C 244.796875 157.292969 244.402344 157.332031 244.015625 157.410156 C 243.625 157.484375 243.246094 157.601562 242.882812 157.753906 C 242.515625 157.90625 242.167969 158.089844 241.835938 158.3125 C 241.507812 158.53125 241.203125 158.78125 240.921875 159.0625 C 240.640625 159.34375 240.390625 159.648438 240.167969 159.976562 C 239.949219 160.308594 239.761719 160.65625 239.613281 161.023438 C 239.460938 161.386719 239.34375 161.765625 239.269531 162.15625 C 239.191406 162.542969 239.152344 162.9375 239.152344 163.335938 L 239.152344 199.582031 C 239.152344 199.976562 239.191406 200.371094 239.269531 200.761719 C 239.34375 201.148438 239.460938 201.527344 239.613281 201.894531 C 239.761719 202.257812 239.949219 202.609375 240.167969 202.9375 C 240.390625 203.265625 240.640625 203.574219 240.921875 203.851562 C 241.203125 204.132812 241.507812 204.382812 241.835938 204.605469 C 242.167969 204.824219 242.515625 205.011719 242.882812 205.164062 C 243.246094 205.3125 243.625 205.429688 244.015625 205.507812 C 244.402344 205.582031 244.796875 205.621094 245.191406 205.621094 L 281.441406 205.621094 C 281.835938 205.621094 282.230469 205.582031 282.617188 205.507812 C 283.007812 205.429688 283.386719 205.3125 283.75 205.164062 C 284.117188 205.011719 284.464844 204.824219 284.796875 204.605469 C 285.125 204.382812 285.429688 204.132812 285.710938 203.851562 C 285.992188 203.574219 286.242188 203.265625 286.464844 202.9375 C 286.683594 202.609375 286.871094 202.257812 287.019531 201.894531 C 287.171875 201.527344 287.289062 201.148438 287.363281 200.761719 C 287.441406 200.371094 287.480469 199.976562 287.480469 199.582031 L 287.480469 163.335938 C 287.480469 162.9375 287.441406 162.542969 287.363281 162.15625 C 287.289062 161.765625 287.171875 161.386719 287.019531 161.023438 C 286.871094 160.65625 286.683594 160.308594 286.464844 159.976562 C 286.242188 159.648438 285.992188 159.34375 285.710938 159.0625 C 285.429688 158.78125 285.125 158.53125 284.796875 158.3125 C 284.464844 158.089844 284.117188 157.90625 283.75 157.753906 C 283.386719 157.601562 283.007812 157.484375 282.617188 157.410156 C 282.230469 157.332031 281.835938 157.292969 281.441406 157.292969 Z M 275.398438 193.539062 L 251.234375 193.539062 L 251.234375 169.375 L 275.398438 169.375 Z M 275.398438 193.539062 " fill-opacity="1" fill-rule="nonzero"/><path fill="#00f3f7" d="M 174.46875 181.757812 L 174.46875 169.675781 L 148.835938 169.675781 C 148.4375 169.675781 148.046875 169.714844 147.65625 169.792969 C 147.269531 169.871094 146.890625 169.984375 146.523438 170.136719 C 146.15625 170.289062 145.808594 170.476562 145.480469 170.695312 C 145.148438 170.914062 144.84375 171.167969 144.5625 171.445312 C 144.285156 171.726562 144.03125 172.03125 143.8125 172.363281 C 143.59375 172.691406 143.40625 173.039062 143.253906 173.40625 C 143.101562 173.773438 142.988281 174.152344 142.910156 174.539062 C 142.832031 174.929688 142.792969 175.320312 142.792969 175.71875 L 142.792969 201.351562 L 154.875 201.351562 L 154.875 190.300781 L 174.46875 209.894531 L 183.011719 201.351562 L 163.417969 181.757812 Z M 174.46875 181.757812 " fill-opacity="1" fill-rule="nonzero"/><path fill="#00f3f7" d="M 100.203125 175.417969 L 112.285156 175.417969 L 112.285156 187.5 L 100.203125 187.5 Z M 100.203125 175.417969 " fill-opacity="1" fill-rule="nonzero"/></svg>