<svg xmlns="http://www.w3.org/2000/svg" xmlns:xlink="http://www.w3.org/1999/xlink" width="500" zoomAndPan="magnify" viewBox="0 0 375 374.999991" height="500" preserveAspectRatio="xMidYMid meet" version="1.0"><defs><clipPath id="d486ca3040"><path d="M 5 22.101562 L 370 22.101562 L 370 352.851562 L 5 352.851562 Z M 5 22.101562 " clip-rule="nonzero"/></clipPath></defs><g clip-path="url(#d486ca3040)"><path fill="#00f3f7" d="M 348.902344 244.277344 L 26.085938 244.277344 L 26.085938 42.800781 L 348.902344 42.800781 Z M 222.980469 277.476562 L 152.011719 277.476562 C 148.21875 277.476562 145.136719 274.40625 145.136719 270.613281 C 145.136719 266.824219 148.21875 263.742188 152.011719 263.742188 L 222.980469 263.742188 C 226.78125 263.742188 229.851562 266.824219 229.851562 270.613281 C 229.851562 274.40625 226.78125 277.476562 222.980469 277.476562 Z M 357.726562 22.199219 L 17.261719 22.199219 C 10.769531 22.199219 5.476562 27.488281 5.476562 33.984375 L 5.476562 285.15625 C 5.476562 291.652344 10.769531 296.941406 17.261719 296.941406 L 176.042969 296.941406 L 176.042969 328.574219 L 156.863281 328.574219 C 156.332031 328.574219 155.8125 328.738281 155.375 329.050781 L 127.855469 348.304688 C 125.78125 349.761719 126.804688 353.035156 129.355469 353.035156 L 245.636719 353.035156 C 248.1875 353.035156 249.210938 349.761719 247.132812 348.304688 L 219.613281 329.050781 C 219.175781 328.738281 218.65625 328.574219 218.125 328.574219 L 198.945312 328.574219 L 198.945312 296.941406 L 357.726562 296.941406 C 364.222656 296.941406 369.511719 291.652344 369.511719 285.15625 L 369.511719 33.984375 C 369.511719 27.488281 364.222656 22.199219 357.726562 22.199219 " fill-opacity="1" fill-rule="nonzero"/></g><path fill="#00f3f7" d="M 103.550781 95.207031 C 118.101562 95.207031 129.933594 107.046875 129.933594 121.589844 C 129.933594 136.140625 118.101562 147.972656 103.550781 147.972656 C 89.007812 147.972656 77.175781 136.140625 77.175781 121.589844 C 77.175781 107.046875 89.007812 95.207031 103.550781 95.207031 Z M 65.203125 144.066406 L 56.917969 154.902344 L 70.246094 168.230469 L 81.082031 159.945312 C 84.5625 162 88.332031 163.585938 92.335938 164.628906 L 94.136719 178.128906 L 112.972656 178.128906 L 114.773438 164.628906 C 118.773438 163.585938 122.546875 162 126.027344 159.945312 L 136.863281 168.230469 L 150.191406 154.902344 L 141.90625 144.066406 C 143.960938 140.585938 145.546875 136.8125 146.597656 132.8125 L 160.089844 131.011719 L 160.089844 112.164062 L 146.597656 110.375 C 145.546875 106.371094 143.960938 102.601562 141.90625 99.109375 L 150.191406 88.285156 L 136.863281 74.957031 L 126.027344 83.242188 C 122.546875 81.183594 118.773438 79.601562 114.773438 78.550781 L 112.972656 65.058594 L 94.136719 65.058594 L 92.335938 78.550781 C 88.332031 79.601562 84.5625 81.183594 81.082031 83.242188 L 70.246094 74.957031 L 56.917969 88.285156 L 65.203125 99.109375 C 63.144531 102.601562 61.5625 106.371094 60.507812 110.375 L 47.019531 112.164062 L 47.019531 131.011719 L 60.507812 132.8125 C 61.5625 136.8125 63.144531 140.585938 65.203125 144.066406 " fill-opacity="1" fill-rule="nonzero"/><path fill="#00f3f7" d="M 290.011719 158.769531 L 313.597656 182.355469 L 295.445312 200.507812 L 298.914062 211.410156 L 327.96875 182.355469 L 297.199219 151.59375 L 290.011719 158.769531 " fill-opacity="1" fill-rule="nonzero"/><path fill="#00f3f7" d="M 258.511719 164.199219 L 255.039062 153.300781 L 225.984375 182.355469 L 256.746094 213.128906 L 263.933594 205.933594 L 240.355469 182.355469 L 258.511719 164.199219 " fill-opacity="1" fill-rule="nonzero"/><path fill="#00f3f7" d="M 259.933594 142.890625 L 285.839844 224.429688 L 294.023438 221.820312 L 268.113281 140.292969 L 259.933594 142.890625 " fill-opacity="1" fill-rule="nonzero"/><path fill="#00f3f7" d="M 327.96875 60.207031 L 175.074219 60.207031 L 175.074219 72.339844 L 327.96875 72.339844 L 327.96875 60.207031 " fill-opacity="1" fill-rule="nonzero"/><path fill="#00f3f7" d="M 199.914062 191.257812 L 47.019531 191.257812 L 47.019531 203.390625 L 199.914062 203.390625 L 199.914062 191.257812 " fill-opacity="1" fill-rule="nonzero"/><path fill="#00f3f7" d="M 110.117188 225.234375 L 199.914062 225.234375 L 199.914062 213.097656 L 110.117188 213.097656 L 110.117188 225.234375 " fill-opacity="1" fill-rule="nonzero"/><path fill="#00f3f7" d="M 211.480469 96.609375 L 327.96875 96.609375 L 327.96875 84.472656 L 211.480469 84.472656 L 211.480469 96.609375 " fill-opacity="1" fill-rule="nonzero"/><path fill="#00f3f7" d="M 228.46875 120.878906 L 327.96875 120.878906 L 327.96875 108.742188 L 228.46875 108.742188 L 228.46875 120.878906 " fill-opacity="1" fill-rule="nonzero"/></svg>