<svg xmlns="http://www.w3.org/2000/svg" xmlns:xlink="http://www.w3.org/1999/xlink" width="500" zoomAndPan="magnify" viewBox="0 0 375 374.999991" height="500" preserveAspectRatio="xMidYMid meet" version="1.0"><defs><clipPath id="ebd534ad5a"><path d="M 4.347656 259 L 370.347656 259 L 370.347656 305.617188 L 4.347656 305.617188 Z M 4.347656 259 " clip-rule="nonzero"/></clipPath><clipPath id="63d111c972"><path d="M 38 69.367188 L 337 69.367188 L 337 269 L 38 269 Z M 38 69.367188 " clip-rule="nonzero"/></clipPath></defs><g clip-path="url(#ebd534ad5a)"><path fill="#00f3f7" d="M 328.898438 305.671875 L 46.027344 305.671875 C 23.074219 305.671875 4.398438 286.996094 4.398438 264.039062 C 4.398438 261.664062 6.320312 259.75 8.691406 259.75 L 366.238281 259.75 C 368.605469 259.75 370.527344 261.664062 370.527344 264.039062 C 370.527344 286.996094 351.851562 305.671875 328.898438 305.671875 Z M 13.261719 268.332031 C 15.371094 284.535156 29.261719 297.085938 46.027344 297.085938 L 328.898438 297.085938 C 345.664062 297.085938 359.554688 284.535156 361.664062 268.332031 Z M 13.261719 268.332031 " fill-opacity="1" fill-rule="evenodd"/></g><g clip-path="url(#63d111c972)"><path fill="#00f3f7" d="M 332.589844 268.332031 L 42.34375 268.332031 C 39.96875 268.332031 38.050781 266.40625 38.050781 264.039062 L 38.050781 73.6875 C 38.050781 71.320312 39.96875 69.394531 42.34375 69.394531 L 332.589844 69.394531 C 334.957031 69.394531 336.882812 71.320312 336.882812 73.6875 L 336.882812 264.039062 C 336.882812 266.40625 334.957031 268.332031 332.589844 268.332031 Z M 46.628906 259.75 L 328.296875 259.75 L 328.296875 77.976562 L 46.628906 77.976562 Z M 46.628906 259.75 " fill-opacity="1" fill-rule="evenodd"/></g><path fill="#00f3f7" d="M 235.394531 287 L 139.171875 287 C 136.804688 287 134.882812 285.078125 134.882812 282.710938 C 134.882812 280.335938 136.804688 278.417969 139.171875 278.417969 L 235.394531 278.417969 C 237.761719 278.417969 239.6875 280.335938 239.6875 282.710938 C 239.6875 285.078125 237.769531 287 235.394531 287 Z M 235.394531 287 " fill-opacity="1" fill-rule="evenodd"/><path fill="#00f3f7" d="M 147.980469 214.914062 L 126.261719 214.914062 C 123.894531 214.914062 121.972656 212.996094 121.972656 210.628906 C 121.972656 208.253906 123.894531 206.335938 126.261719 206.335938 L 143.6875 206.335938 L 143.6875 161.058594 C 143.6875 158.691406 145.609375 156.769531 147.980469 156.769531 L 240.25 156.769531 L 240.25 132.003906 C 240.25 129.636719 242.175781 127.71875 244.542969 127.71875 L 283.855469 127.71875 C 286.222656 127.71875 288.148438 129.636719 288.148438 132.003906 C 288.148438 134.378906 286.222656 136.296875 283.855469 136.296875 L 248.835938 136.296875 L 248.835938 161.058594 C 248.835938 163.433594 246.910156 165.351562 244.542969 165.351562 L 152.269531 165.351562 L 152.269531 210.628906 C 152.269531 212.996094 150.347656 214.914062 147.980469 214.914062 Z M 147.980469 214.914062 " fill-opacity="1" fill-rule="evenodd"/><path fill="#00f3f7" d="M 268.792969 151.359375 C 267.699219 151.359375 266.597656 150.945312 265.757812 150.109375 C 264.085938 148.425781 264.085938 145.714844 265.757812 144.035156 L 277.789062 132.003906 L 265.757812 119.972656 C 264.085938 118.300781 264.085938 115.582031 265.757812 113.90625 C 267.433594 112.234375 270.152344 112.234375 271.824219 113.90625 L 286.890625 128.972656 C 288.5625 130.644531 288.5625 133.363281 286.890625 135.039062 L 271.824219 150.101562 C 270.988281 150.945312 269.894531 151.359375 268.792969 151.359375 Z M 268.792969 151.359375 " fill-opacity="1" fill-rule="evenodd"/><path fill="#00f3f7" d="M 109.753906 132.597656 C 108.710938 132.597656 107.65625 132.21875 106.828125 131.445312 C 105.097656 129.828125 104.996094 127.117188 106.613281 125.378906 L 124.132812 106.582031 C 125.746094 104.851562 128.464844 104.75 130.195312 106.367188 C 131.925781 107.984375 132.027344 110.695312 130.410156 112.433594 L 112.894531 131.230469 C 112.050781 132.140625 110.90625 132.597656 109.753906 132.597656 Z M 109.753906 132.597656 " fill-opacity="1" fill-rule="evenodd"/><path fill="#00f3f7" d="M 127.914062 131.953125 C 126.863281 131.953125 125.820312 131.574219 124.988281 130.800781 L 106.191406 113.285156 C 104.453125 111.667969 104.359375 108.957031 105.976562 107.21875 C 107.59375 105.488281 110.304688 105.394531 112.042969 107.003906 L 130.839844 124.53125 C 132.570312 126.140625 132.671875 128.855469 131.054688 130.589844 C 130.210938 131.496094 129.058594 131.953125 127.914062 131.953125 Z M 127.914062 131.953125 " fill-opacity="1" fill-rule="evenodd"/><path fill="#00f3f7" d="M 215.601562 145.359375 C 214.1875 145.359375 212.796875 144.65625 211.984375 143.378906 C 198.800781 122.726562 163.328125 130.796875 162.972656 130.882812 C 160.667969 131.417969 158.359375 129.996094 157.8125 127.683594 C 157.269531 125.375 158.699219 123.070312 161.003906 122.527344 C 162.707031 122.125 202.800781 113.042969 219.214844 138.757812 C 220.496094 140.757812 219.910156 143.40625 217.90625 144.6875 C 217.191406 145.136719 216.390625 145.359375 215.601562 145.359375 Z M 215.601562 145.359375 " fill-opacity="1" fill-rule="evenodd"/><path fill="#00f3f7" d="M 209.832031 214.347656 C 186.746094 214.347656 171.691406 201.410156 170.898438 200.707031 C 169.117188 199.140625 168.945312 196.429688 170.511719 194.648438 C 172.070312 192.875 174.773438 192.695312 176.554688 194.257812 C 177.433594 195.023438 198.214844 212.660156 227.890625 202.734375 C 230.136719 201.980469 232.570312 203.199219 233.320312 205.445312 C 234.070312 207.691406 232.863281 210.121094 230.609375 210.871094 C 223.164062 213.363281 216.195312 214.347656 209.832031 214.347656 Z M 209.832031 214.347656 " fill-opacity="1" fill-rule="evenodd"/><path fill="#00f3f7" d="M 251.125 225.351562 C 250.074219 225.351562 249.019531 224.972656 248.199219 224.199219 C 246.460938 222.589844 246.367188 219.871094 247.984375 218.140625 L 265.5 199.335938 C 267.117188 197.605469 269.828125 197.503906 271.566406 199.121094 C 273.296875 200.738281 273.398438 203.453125 271.78125 205.1875 L 254.265625 223.984375 C 253.414062 224.890625 252.269531 225.351562 251.125 225.351562 Z M 251.125 225.351562 " fill-opacity="1" fill-rule="evenodd"/><path fill="#00f3f7" d="M 269.277344 224.714844 C 268.234375 224.714844 267.183594 224.328125 266.359375 223.5625 L 247.554688 206.042969 C 245.824219 204.429688 245.722656 201.710938 247.339844 199.980469 C 248.957031 198.242188 251.675781 198.148438 253.40625 199.765625 L 272.203125 217.28125 C 273.941406 218.898438 274.035156 221.617188 272.417969 223.347656 C 271.574219 224.253906 270.429688 224.714844 269.277344 224.714844 Z M 269.277344 224.714844 " fill-opacity="1" fill-rule="evenodd"/><path fill="#00f3f7" d="M 108.667969 232.511719 C 96.597656 232.511719 86.785156 222.695312 86.785156 210.621094 C 86.785156 198.554688 96.597656 188.742188 108.667969 188.742188 C 120.734375 188.742188 130.554688 198.554688 130.554688 210.621094 C 130.554688 222.695312 120.734375 232.511719 108.667969 232.511719 Z M 108.667969 197.324219 C 101.335938 197.324219 95.363281 203.289062 95.363281 210.621094 C 95.363281 217.960938 101.335938 223.925781 108.667969 223.925781 C 116.003906 223.925781 121.972656 217.960938 121.972656 210.621094 C 121.972656 203.289062 116.003906 197.324219 108.667969 197.324219 Z M 108.667969 197.324219 " fill-opacity="1" fill-rule="evenodd"/></svg>