<svg xmlns="http://www.w3.org/2000/svg" xmlns:xlink="http://www.w3.org/1999/xlink" width="500" zoomAndPan="magnify" viewBox="0 0 375 374.999991" height="500" preserveAspectRatio="xMidYMid meet" version="1.0"><defs><clipPath id="b1547b8dac"><path d="M 6 6.675781 L 284 6.675781 L 284 368.175781 L 6 368.175781 Z M 6 6.675781 " clip-rule="nonzero"/></clipPath><clipPath id="15f3d1f1bb"><path d="M 174 199 L 368 199 L 368 368.175781 L 174 368.175781 Z M 174 199 " clip-rule="nonzero"/></clipPath></defs><g clip-path="url(#b1547b8dac)"><path fill="#00f3f7" d="M 165.015625 356.261719 L 36.210938 356.261719 C 26.265625 356.261719 18.128906 348.125 18.128906 338.179688 L 18.128906 36.8125 C 18.128906 26.867188 26.265625 18.730469 36.210938 18.730469 L 253.195312 18.730469 C 263.140625 18.730469 271.277344 26.867188 271.277344 36.8125 L 271.277344 187.496094 C 275.433594 187.496094 279.535156 188.160156 283.332031 189.484375 L 283.332031 36.8125 C 283.332031 20.179688 269.828125 6.675781 253.195312 6.675781 L 36.210938 6.675781 C 19.574219 6.675781 6.074219 20.179688 6.074219 36.8125 L 6.074219 338.179688 C 6.074219 354.816406 19.574219 368.316406 36.210938 368.316406 L 172.367188 368.316406 C 170.5 366.328125 168.933594 364.097656 167.546875 361.6875 C 166.519531 359.9375 165.675781 358.132812 165.015625 356.261719 Z M 165.015625 356.261719 " fill-opacity="1" fill-rule="nonzero"/></g><g clip-path="url(#15f3d1f1bb)"><path fill="#00f3f7" d="M 364.277344 331.550781 L 292.855469 211.667969 C 288.332031 204.074219 280.257812 199.550781 271.277344 199.550781 C 262.296875 199.550781 254.21875 204.074219 249.699219 211.667969 L 178.273438 331.550781 C 173.8125 339.085938 173.695312 348.125 178.03125 355.71875 C 182.492188 363.617188 190.691406 368.316406 199.851562 368.316406 L 342.699219 368.316406 C 351.921875 368.316406 360.058594 363.617188 364.519531 355.71875 C 368.859375 348.125 368.738281 339.085938 364.277344 331.550781 Z M 277.304688 332.152344 C 277.304688 335.46875 274.589844 338.179688 271.277344 338.179688 C 267.960938 338.179688 265.25 335.46875 265.25 332.152344 L 265.25 320.097656 C 265.25 316.785156 267.960938 314.070312 271.277344 314.070312 C 274.589844 314.070312 277.304688 316.785156 277.304688 320.097656 Z M 277.304688 295.988281 C 277.304688 299.304688 274.589844 302.015625 271.277344 302.015625 C 267.960938 302.015625 265.25 299.304688 265.25 295.988281 L 265.25 235.714844 C 265.25 232.402344 267.960938 229.6875 271.277344 229.6875 C 274.589844 229.6875 277.304688 232.402344 277.304688 235.714844 Z M 277.304688 295.988281 " fill-opacity="1" fill-rule="nonzero"/></g><path fill="#00f3f7" d="M 96.484375 79.003906 C 99.796875 79.003906 102.511719 76.292969 102.511719 72.976562 C 102.511719 69.664062 99.796875 66.949219 96.484375 66.949219 L 66.347656 66.949219 C 59.714844 66.949219 54.292969 72.375 54.292969 79.003906 L 54.292969 127.222656 C 54.292969 133.855469 59.714844 139.277344 66.347656 139.277344 L 114.566406 139.277344 C 121.195312 139.277344 126.621094 133.855469 126.621094 127.222656 L 126.621094 115.167969 C 126.621094 111.855469 123.90625 109.140625 120.59375 109.140625 C 117.277344 109.140625 114.566406 111.855469 114.566406 115.167969 L 114.566406 127.222656 L 66.347656 127.222656 L 66.347656 79.003906 Z M 96.484375 79.003906 " fill-opacity="1" fill-rule="nonzero"/><path fill="#00f3f7" d="M 136.925781 68.699219 C 134.574219 66.347656 130.777344 66.347656 128.429688 68.699219 L 96.542969 100.582031 L 88.769531 92.808594 C 86.417969 90.457031 82.621094 90.457031 80.269531 92.808594 C 77.917969 95.15625 77.917969 98.957031 80.269531 101.304688 L 92.324219 113.359375 C 93.53125 114.566406 95.035156 115.109375 96.605469 115.109375 C 98.171875 115.109375 99.675781 114.507812 100.882812 113.359375 L 137.046875 77.195312 C 139.398438 74.847656 139.398438 71.046875 137.046875 68.699219 Z M 136.925781 68.699219 " fill-opacity="1" fill-rule="nonzero"/><path fill="#00f3f7" d="M 54.292969 229.6875 C 54.292969 236.320312 59.714844 241.742188 66.347656 241.742188 L 114.566406 241.742188 C 121.195312 241.742188 126.621094 236.320312 126.621094 229.6875 L 126.621094 217.632812 C 126.621094 214.320312 123.90625 211.605469 120.59375 211.605469 C 117.277344 211.605469 114.566406 214.320312 114.566406 217.632812 L 114.566406 229.6875 L 66.347656 229.6875 L 66.347656 181.46875 L 96.484375 181.46875 C 99.796875 181.46875 102.511719 178.757812 102.511719 175.441406 C 102.511719 172.128906 99.796875 169.414062 96.484375 169.414062 L 66.347656 169.414062 C 59.714844 169.414062 54.292969 174.839844 54.292969 181.46875 Z M 54.292969 229.6875 " fill-opacity="1" fill-rule="nonzero"/><path fill="#00f3f7" d="M 136.925781 171.164062 C 134.574219 168.8125 130.777344 168.8125 128.429688 171.164062 L 96.542969 203.046875 L 88.769531 195.273438 C 86.417969 192.921875 82.621094 192.921875 80.269531 195.273438 C 77.917969 197.621094 77.917969 201.421875 80.269531 203.769531 L 92.324219 215.824219 C 93.53125 217.03125 95.035156 217.574219 96.605469 217.574219 C 98.171875 217.574219 99.675781 216.972656 100.882812 215.824219 L 137.046875 179.660156 C 139.398438 177.3125 139.398438 173.511719 137.046875 171.164062 Z M 136.925781 171.164062 " fill-opacity="1" fill-rule="nonzero"/><path fill="#00f3f7" d="M 156.757812 127.222656 L 192.921875 127.222656 C 196.234375 127.222656 198.949219 124.511719 198.949219 121.195312 C 198.949219 117.882812 196.234375 115.167969 192.921875 115.167969 L 156.757812 115.167969 C 153.441406 115.167969 150.730469 117.882812 150.730469 121.195312 C 150.730469 124.511719 153.441406 127.222656 156.757812 127.222656 Z M 156.757812 127.222656 " fill-opacity="1" fill-rule="nonzero"/><path fill="#00f3f7" d="M 229.085938 79.003906 L 156.757812 79.003906 C 153.441406 79.003906 150.730469 81.71875 150.730469 85.03125 C 150.730469 88.347656 153.441406 91.058594 156.757812 91.058594 L 229.085938 91.058594 C 232.398438 91.058594 235.113281 88.347656 235.113281 85.03125 C 235.113281 81.71875 232.398438 79.003906 229.085938 79.003906 Z M 229.085938 79.003906 " fill-opacity="1" fill-rule="nonzero"/><path fill="#00f3f7" d="M 156.757812 217.632812 C 153.441406 217.632812 150.730469 220.347656 150.730469 223.660156 C 150.730469 226.976562 153.441406 229.6875 156.757812 229.6875 L 192.921875 229.6875 C 196.234375 229.6875 198.949219 226.976562 198.949219 223.660156 C 198.949219 220.347656 196.234375 217.632812 192.921875 217.632812 Z M 156.757812 217.632812 " fill-opacity="1" fill-rule="nonzero"/><path fill="#00f3f7" d="M 235.113281 187.496094 C 235.113281 184.183594 232.398438 181.46875 229.085938 181.46875 L 156.757812 181.46875 C 153.441406 181.46875 150.730469 184.183594 150.730469 187.496094 C 150.730469 190.8125 153.441406 193.523438 156.757812 193.523438 L 229.085938 193.523438 C 232.398438 193.523438 235.113281 190.8125 235.113281 187.496094 Z M 235.113281 187.496094 " fill-opacity="1" fill-rule="nonzero"/></svg>