<svg xmlns="http://www.w3.org/2000/svg" xmlns:xlink="http://www.w3.org/1999/xlink" width="500" zoomAndPan="magnify" viewBox="0 0 375 374.999991" height="500" preserveAspectRatio="xMidYMid meet" version="1.0"><defs><clipPath id="0a9a236b63"><path d="M 5.894531 22.238281 L 368.894531 22.238281 L 368.894531 352.988281 L 5.894531 352.988281 Z M 5.894531 22.238281 " clip-rule="nonzero"/></clipPath></defs><g clip-path="url(#0a9a236b63)"><path fill="#00f3f7" d="M 289.761719 133.433594 C 274.570312 133.433594 262.253906 145.75 262.253906 160.941406 C 262.253906 176.132812 274.570312 188.445312 289.761719 188.445312 C 304.953125 188.445312 317.269531 176.132812 317.269531 160.941406 C 317.269531 145.75 304.953125 133.433594 289.761719 133.433594 Z M 302.367188 164.984375 C 304.730469 167.347656 304.730469 171.179688 302.367188 173.542969 C 300 175.90625 296.167969 175.90625 293.804688 173.542969 L 289.761719 169.5 L 285.71875 173.542969 C 283.355469 175.910156 279.523438 175.910156 277.160156 173.542969 C 274.796875 171.179688 274.796875 167.347656 277.160156 164.984375 L 281.203125 160.941406 L 277.160156 156.898438 C 274.796875 154.535156 274.796875 150.703125 277.160156 148.339844 C 279.523438 145.976562 283.355469 145.976562 285.71875 148.339844 L 289.761719 152.382812 L 293.804688 148.339844 C 296.171875 145.976562 300.003906 145.976562 302.367188 148.339844 C 304.730469 150.703125 304.730469 154.535156 302.367188 156.898438 L 298.324219 160.941406 Z M 85.226562 90.128906 C 70.035156 90.128906 57.722656 102.445312 57.722656 117.636719 C 57.722656 132.828125 70.035156 145.140625 85.226562 145.140625 C 100.417969 145.140625 112.734375 132.828125 112.734375 117.636719 C 112.734375 102.445312 100.417969 90.128906 85.226562 90.128906 Z M 97.832031 121.679688 C 100.195312 124.042969 100.195312 127.875 97.832031 130.238281 C 95.464844 132.601562 91.632812 132.601562 89.269531 130.238281 L 85.226562 126.195312 L 81.183594 130.238281 C 78.820312 132.605469 74.988281 132.605469 72.625 130.238281 C 70.261719 127.875 70.261719 124.042969 72.625 121.679688 L 76.667969 117.636719 L 72.625 113.59375 C 70.261719 111.230469 70.261719 107.398438 72.625 105.035156 C 74.988281 102.671875 78.820312 102.671875 81.183594 105.035156 L 85.226562 109.078125 L 89.269531 105.035156 C 91.632812 102.671875 95.46875 102.671875 97.832031 105.035156 C 100.195312 107.398438 100.195312 111.230469 97.832031 113.59375 L 93.789062 117.636719 Z M 227.605469 117.636719 L 124.839844 117.636719 C 124.839844 139.515625 107.105469 157.25 85.226562 157.25 L 85.226562 196.675781 C 85.226562 200.839844 88.632812 204.246094 92.792969 204.246094 L 227.605469 204.246094 C 231.769531 204.246094 235.171875 200.839844 235.171875 196.675781 L 235.171875 125.203125 C 235.171875 121.042969 231.769531 117.636719 227.605469 117.636719 Z M 179.582031 163.777344 L 144.09375 184.265625 C 143.050781 184.867188 141.859375 184.867188 140.816406 184.265625 C 139.773438 183.664062 139.179688 182.632812 139.179688 181.429688 L 139.179688 140.449219 C 139.179688 139.246094 139.777344 138.214844 140.816406 137.613281 C 141.859375 137.011719 143.050781 137.011719 144.09375 137.613281 L 179.582031 158.101562 C 180.625 158.703125 181.21875 159.738281 181.21875 160.941406 C 181.21875 162.144531 180.625 163.175781 179.582031 163.777344 Z M 250.148438 160.941406 L 247.28125 160.941406 L 247.28125 147.101562 L 252.636719 147.101562 C 251.027344 151.410156 250.148438 156.074219 250.148438 160.941406 Z M 282.195312 74.332031 L 147.382812 74.332031 C 143.222656 74.332031 139.816406 77.738281 139.816406 81.898438 L 139.816406 105.53125 L 227.605469 105.53125 C 233.152344 105.53125 238.183594 107.855469 241.769531 111.582031 L 266.261719 111.582031 C 269.601562 111.582031 272.3125 114.292969 272.3125 117.636719 C 272.3125 120.980469 269.601562 123.691406 266.261719 123.691406 L 247.222656 123.691406 C 247.261719 124.1875 247.28125 124.695312 247.28125 125.203125 L 247.28125 134.996094 L 259.824219 134.996094 C 267.089844 126.625 277.808594 121.328125 289.761719 121.328125 L 289.761719 81.898438 C 289.761719 77.738281 286.359375 74.332031 282.195312 74.332031 Z M 266.261719 100.273438 L 163.320312 100.273438 C 159.976562 100.273438 157.265625 97.566406 157.265625 94.222656 C 157.265625 90.878906 159.976562 88.167969 163.320312 88.167969 L 266.261719 88.167969 C 269.601562 88.167969 272.3125 90.878906 272.3125 94.222656 C 272.3125 97.566406 269.601562 100.273438 266.261719 100.273438 Z M 341.171875 22.328125 L 33.816406 22.328125 C 18.460938 22.328125 5.894531 34.894531 5.894531 50.25 L 5.894531 242.335938 C 5.894531 257.691406 18.460938 270.257812 33.816406 270.257812 L 130.421875 270.257812 L 130.421875 314.617188 L 87.921875 314.617188 C 74.824219 314.617188 64.109375 323.179688 64.109375 333.640625 L 64.109375 352.667969 L 310.878906 352.667969 L 310.878906 333.640625 C 310.878906 323.179688 300.164062 314.617188 287.070312 314.617188 L 244.570312 314.617188 L 244.570312 270.257812 L 341.171875 270.257812 C 356.53125 270.257812 369.09375 257.691406 369.09375 242.335938 L 369.09375 50.25 C 369.09375 34.894531 356.53125 22.328125 341.171875 22.328125 Z M 345.746094 223.222656 L 29.242188 223.222656 L 29.242188 49.550781 C 29.242188 47.417969 30.988281 45.675781 33.117188 45.675781 L 341.871094 45.675781 C 344.003906 45.675781 345.746094 47.421875 345.746094 49.550781 Z M 345.746094 223.222656 " fill-opacity="1" fill-rule="evenodd"/></g></svg>