<svg xmlns="http://www.w3.org/2000/svg" xmlns:xlink="http://www.w3.org/1999/xlink" width="500" zoomAndPan="magnify" viewBox="0 0 375 374.999991" height="500" preserveAspectRatio="xMidYMid meet" version="1.0"><defs><clipPath id="332614b4a4"><path d="M 8.855469 10 L 364 10 L 364 364.722656 L 8.855469 364.722656 Z M 8.855469 10 " clip-rule="nonzero"/></clipPath></defs><path fill="#00f3f7" d="M 168.921875 114.429688 L 203.714844 114.429688 C 207.558594 114.429688 210.675781 111.3125 210.675781 107.46875 C 210.675781 103.625 207.558594 100.511719 203.714844 100.511719 L 168.921875 100.511719 C 165.078125 100.511719 161.960938 103.625 161.960938 107.46875 C 161.960938 111.3125 165.078125 114.429688 168.921875 114.429688 Z M 168.921875 114.429688 " fill-opacity="1" fill-rule="nonzero"/><path fill="#00f3f7" d="M 71.492188 197.9375 L 210.675781 197.9375 C 214.519531 197.9375 217.632812 194.820312 217.632812 190.980469 C 217.632812 187.136719 214.519531 184.019531 210.675781 184.019531 L 71.492188 184.019531 C 67.648438 184.019531 64.535156 187.136719 64.535156 190.980469 C 64.535156 194.820312 67.648438 197.9375 71.492188 197.9375 Z M 71.492188 197.9375 " fill-opacity="1" fill-rule="nonzero"/><path fill="#00f3f7" d="M 71.492188 225.773438 L 182.839844 225.773438 C 186.683594 225.773438 189.796875 222.65625 189.796875 218.816406 C 189.796875 214.972656 186.679688 211.855469 182.839844 211.855469 L 71.492188 211.855469 C 67.648438 211.855469 64.535156 214.972656 64.535156 218.816406 C 64.535156 222.65625 67.648438 225.773438 71.492188 225.773438 Z M 71.492188 225.773438 " fill-opacity="1" fill-rule="nonzero"/><path fill="#00f3f7" d="M 71.492188 253.609375 L 175.878906 253.609375 C 179.722656 253.609375 182.839844 250.496094 182.839844 246.652344 C 182.839844 242.808594 179.722656 239.691406 175.878906 239.691406 L 71.492188 239.691406 C 67.648438 239.691406 64.535156 242.808594 64.535156 246.652344 C 64.535156 250.496094 67.648438 253.609375 71.492188 253.609375 Z M 71.492188 253.609375 " fill-opacity="1" fill-rule="nonzero"/><path fill="#00f3f7" d="M 71.492188 281.445312 L 161.960938 281.445312 C 165.804688 281.445312 168.921875 278.332031 168.921875 274.488281 C 168.921875 270.644531 165.804688 267.527344 161.960938 267.527344 L 71.492188 267.527344 C 67.648438 267.527344 64.535156 270.644531 64.535156 274.488281 C 64.535156 278.332031 67.648438 281.445312 71.492188 281.445312 Z M 71.492188 281.445312 " fill-opacity="1" fill-rule="nonzero"/><path fill="#00f3f7" d="M 168.921875 142.265625 L 231.550781 142.265625 C 235.394531 142.265625 238.511719 139.148438 238.511719 135.304688 C 238.511719 131.460938 235.394531 128.347656 231.550781 128.347656 L 168.921875 128.347656 C 165.078125 128.347656 161.960938 131.460938 161.960938 135.304688 C 161.960938 139.148438 165.078125 142.265625 168.921875 142.265625 Z M 168.921875 142.265625 " fill-opacity="1" fill-rule="nonzero"/><path fill="#00f3f7" d="M 71.492188 170.101562 L 238.511719 170.101562 C 242.355469 170.101562 245.472656 166.984375 245.472656 163.140625 C 245.472656 159.296875 242.355469 156.183594 238.511719 156.183594 L 71.492188 156.183594 C 67.648438 156.183594 64.535156 159.296875 64.535156 163.140625 C 64.535156 166.984375 67.648438 170.101562 71.492188 170.101562 Z M 71.492188 170.101562 " fill-opacity="1" fill-rule="nonzero"/><g clip-path="url(#332614b4a4)"><path fill="#00f3f7" d="M 356.640625 135.015625 C 351.007812 129.382812 343.277344 127.089844 335.941406 128.140625 L 335.941406 37.878906 C 335.941406 22.527344 323.453125 10.042969 308.105469 10.042969 L 36.699219 10.042969 C 21.347656 10.042969 8.863281 22.527344 8.863281 37.878906 L 8.863281 337.121094 C 8.863281 352.46875 21.347656 364.957031 36.699219 364.957031 L 308.105469 364.957031 C 323.453125 364.957031 335.941406 352.46875 335.941406 337.121094 L 335.941406 190.164062 C 336.789062 189.3125 350.109375 175.996094 349.257812 176.847656 C 360.65625 165.449219 355.011719 171.09375 356.644531 169.460938 C 366.136719 159.964844 366.136719 144.511719 356.640625 135.015625 Z M 346.800781 144.859375 C 350.871094 148.929688 350.871094 155.550781 346.800781 159.621094 L 344.339844 162.082031 L 329.578125 147.320312 L 332.039062 144.859375 C 336.109375 140.785156 342.730469 140.789062 346.800781 144.859375 Z M 294.183594 163.027344 C 197.582031 259.652344 203.785156 253.355469 203.253906 254.140625 C 202.578125 255.136719 202.777344 255.054688 184.8125 295.367188 L 71.492188 295.367188 C 67.648438 295.367188 64.535156 298.480469 64.535156 302.324219 C 64.535156 306.167969 67.648438 309.285156 71.492188 309.285156 L 189.796875 309.285156 C 191.375 309.285156 192.824219 308.753906 193.988281 307.871094 C 239.703125 287.542969 236.597656 288.964844 237.203125 288.597656 C 238.636719 287.738281 235.183594 290.816406 294.183594 231.917969 L 294.183594 323.203125 L 50.617188 323.203125 L 50.617188 79.632812 L 294.183594 79.632812 Z M 211.261719 270.121094 L 221.535156 280.398438 L 203.042969 288.617188 Z M 324.65625 181.761719 L 309.894531 167 L 319.734375 157.160156 L 334.5 171.921875 Z M 308.105469 351.039062 L 36.699219 351.039062 C 29.023438 351.039062 22.78125 344.792969 22.78125 337.121094 L 22.78125 51.796875 L 322.023438 51.796875 L 322.023438 135.191406 L 308.105469 149.109375 L 308.105469 72.671875 C 308.105469 68.832031 304.988281 65.714844 301.144531 65.714844 L 43.65625 65.714844 C 39.8125 65.714844 36.699219 68.832031 36.699219 72.671875 L 36.699219 330.160156 C 36.699219 334.003906 39.8125 337.121094 43.65625 337.121094 L 301.144531 337.121094 C 304.988281 337.121094 308.105469 334.003906 308.105469 330.160156 L 308.105469 218 L 322.023438 204.082031 L 322.023438 337.121094 C 322.023438 344.792969 315.777344 351.039062 308.105469 351.039062 Z M 308.105469 351.039062 " fill-opacity="1" fill-rule="nonzero"/></g><path fill="#00f3f7" d="M 71.492188 142.265625 L 141.085938 142.265625 C 144.925781 142.265625 148.042969 139.148438 148.042969 135.304688 L 148.042969 100.511719 C 148.042969 96.667969 144.925781 93.550781 141.085938 93.550781 L 71.492188 93.550781 C 67.648438 93.550781 64.535156 96.667969 64.535156 100.511719 L 64.535156 135.304688 C 64.535156 139.148438 67.648438 142.265625 71.492188 142.265625 Z M 71.492188 142.265625 " fill-opacity="1" fill-rule="nonzero"/></svg>