<svg xmlns="http://www.w3.org/2000/svg" xmlns:xlink="http://www.w3.org/1999/xlink" width="500" zoomAndPan="magnify" viewBox="0 0 375 374.999991" height="500" preserveAspectRatio="xMidYMid meet" version="1.0"><defs><clipPath id="ab73827571"><path d="M 230 40.84375 L 367 40.84375 L 367 160 L 230 160 Z M 230 40.84375 " clip-rule="nonzero"/></clipPath><clipPath id="98b7cf15d8"><path d="M 8 40.84375 L 145 40.84375 L 145 160 L 8 160 Z M 8 40.84375 " clip-rule="nonzero"/></clipPath></defs><path fill="#00f3f7" d="M 152.34375 70.3125 L 222.648438 70.3125 L 222.648438 88.371094 L 152.34375 88.371094 Z M 152.34375 70.3125 " fill-opacity="1" fill-rule="nonzero"/><path fill="#00f3f7" d="M 310.414062 234.648438 L 64.574219 234.648438 L 64.574219 149.941406 L 46.511719 149.941406 L 46.511719 278.609375 C 46.511719 288.609375 54.574219 296.667969 64.574219 296.667969 L 310.414062 296.667969 C 320.417969 296.667969 328.476562 288.609375 328.476562 278.609375 L 328.476562 149.941406 L 310.414062 149.941406 Z M 187.496094 289.730469 C 179.210938 289.730469 172.417969 283.011719 172.417969 274.652344 C 172.417969 266.367188 179.210938 259.652344 187.496094 259.652344 C 195.777344 259.652344 202.570312 266.371094 202.570312 274.652344 C 202.570312 283.011719 195.777344 289.730469 187.496094 289.730469 Z M 187.496094 289.730469 " fill-opacity="1" fill-rule="nonzero"/><path fill="#00f3f7" d="M 153.386719 304.132812 L 126.742188 324.285156 L 126.742188 333.761719 L 248.246094 333.761719 L 248.246094 324.285156 L 221.601562 304.132812 Z M 153.386719 304.132812 " fill-opacity="1" fill-rule="nonzero"/><path fill="#00f3f7" d="M 157.863281 191.136719 C 153.609375 193.375 149.730469 196.136719 146.074219 199.347656 C 137.714844 190.167969 132.339844 178.300781 131.519531 165.164062 C 124.65625 160.105469 123.382812 159.167969 124.132812 159.71875 C 124.054688 160.3125 124.054688 160.910156 124.054688 161.582031 C 124.054688 196.511719 152.566406 224.945312 187.496094 224.945312 C 222.421875 224.945312 250.933594 196.511719 250.933594 161.582031 C 250.933594 160.910156 250.933594 160.238281 250.859375 159.640625 C 250.101562 160.207031 239.234375 168.328125 243.46875 165.164062 C 242.648438 178.226562 237.347656 190.167969 228.992188 199.273438 C 225.332031 196.136719 221.378906 193.300781 217.199219 191.0625 C 219.289062 183.300781 220.558594 174.496094 220.855469 165.164062 L 229.140625 165.164062 C 226.304688 163.597656 224.214844 161.058594 223.242188 157.925781 L 220.855469 157.925781 C 220.558594 148.523438 219.289062 139.714844 217.199219 131.953125 C 219.0625 130.984375 220.855469 129.863281 222.648438 128.667969 L 222.648438 119.640625 C 220.257812 121.578125 217.644531 123.371094 214.960938 124.863281 C 212.570312 118.445312 209.585938 112.847656 206.078125 108.519531 C 212.046875 110.609375 217.722656 113.742188 222.648438 117.847656 L 222.648438 108.667969 C 212.347656 101.800781 200.183594 98.070312 187.496094 98.070312 C 174.730469 98.070312 162.640625 101.800781 152.34375 108.742188 L 152.34375 117.847656 C 157.34375 113.742188 162.941406 110.609375 168.984375 108.519531 C 165.476562 112.847656 162.492188 118.445312 160.105469 124.863281 C 157.34375 123.371094 154.730469 121.578125 152.34375 119.5625 L 152.34375 128.59375 C 154.132812 129.863281 155.925781 130.980469 157.863281 131.953125 C 155.699219 139.714844 154.433594 148.523438 154.207031 157.925781 L 151.746094 157.925781 C 150.773438 161.058594 148.683594 163.597656 145.847656 165.164062 L 154.207031 165.164062 C 154.433594 174.496094 155.699219 183.300781 157.863281 191.136719 Z M 223.765625 204.347656 C 218.617188 208.75 212.644531 212.183594 206.078125 214.5 C 209.585938 210.167969 212.570312 204.570312 214.960938 198.152344 C 218.09375 199.871094 221.003906 201.960938 223.765625 204.347656 Z M 191.152344 105.980469 C 198.09375 108.144531 204.210938 116.355469 208.390625 128.074219 C 202.945312 130.238281 197.121094 131.507812 191.152344 131.878906 Z M 191.152344 139.117188 C 197.867188 138.746094 204.363281 137.402344 210.480469 134.9375 C 212.273438 141.878906 213.390625 149.714844 213.617188 157.925781 L 191.152344 157.925781 Z M 191.152344 165.164062 L 213.617188 165.164062 C 213.390625 173.300781 212.273438 181.136719 210.480469 188.003906 C 204.363281 185.617188 197.871094 184.273438 191.152344 183.898438 Z M 191.152344 191.136719 C 197.121094 191.511719 202.945312 192.78125 208.390625 194.945312 C 204.285156 206.660156 198.09375 214.945312 191.152344 217.109375 Z M 183.910156 217.109375 C 176.972656 214.945312 170.777344 206.660156 166.671875 194.945312 C 172.121094 192.78125 177.941406 191.511719 183.910156 191.136719 Z M 183.910156 105.980469 L 183.910156 131.878906 C 177.941406 131.507812 172.121094 130.238281 166.671875 128.074219 C 170.777344 116.355469 176.972656 108.144531 183.910156 105.980469 Z M 164.507812 135.015625 C 170.628906 137.402344 177.195312 138.746094 183.910156 139.117188 L 183.910156 157.925781 L 161.371094 157.925781 C 161.671875 149.714844 162.714844 141.953125 164.507812 135.015625 Z M 183.910156 165.164062 L 183.910156 183.898438 C 177.195312 184.273438 170.703125 185.691406 164.507812 188.078125 C 162.714844 181.136719 161.671875 173.300781 161.371094 165.164062 Z M 160.105469 198.152344 C 162.492188 204.648438 165.476562 210.167969 168.910156 214.496094 C 162.417969 212.183594 156.449219 208.75 151.222656 204.421875 C 153.984375 202.035156 156.96875 199.945312 160.105469 198.152344 Z M 160.105469 198.152344 " fill-opacity="1" fill-rule="nonzero"/><path fill="#00f3f7" d="M 318.476562 110.332031 L 329.027344 110.332031 L 333.007812 93.261719 L 318.476562 93.261719 Z M 318.476562 110.332031 " fill-opacity="1" fill-rule="nonzero"/><g clip-path="url(#ab73827571)"><path fill="#00f3f7" d="M 356.261719 40.492188 L 240.433594 40.492188 C 234.714844 40.492188 230.082031 45.125 230.082031 50.84375 L 230.082031 154.195312 C 230.082031 158.191406 234.414062 160.679688 237.863281 158.667969 L 265.585938 142.503906 L 356.261719 142.503906 C 361.980469 142.503906 366.613281 137.867188 366.613281 132.152344 L 366.613281 50.84375 C 366.613281 45.125 361.980469 40.492188 356.261719 40.492188 Z M 288.027344 128.820312 C 283.769531 128.820312 280.261719 125.3125 280.261719 121.058594 C 280.261719 118.894531 281.160156 116.953125 282.578125 115.535156 L 293.546875 115.535156 C 294.964844 116.953125 295.863281 118.894531 295.863281 121.058594 C 295.863281 125.3125 292.355469 128.820312 288.027344 128.820312 Z M 321.386719 128.820312 C 317.132812 128.820312 313.625 125.3125 313.625 121.058594 C 313.625 118.894531 314.519531 116.953125 315.9375 115.535156 L 326.910156 115.535156 C 328.328125 116.953125 329.222656 118.894531 329.222656 121.058594 C 329.222656 125.3125 325.714844 128.820312 321.386719 128.820312 Z M 343.992188 68.996094 L 333.613281 113.515625 C 333.339844 114.6875 332.292969 115.519531 331.085938 115.519531 L 277.988281 115.519531 C 277.691406 115.519531 277.402344 115.46875 277.128906 115.375 C 276.980469 115.320312 276.851562 115.226562 276.714844 115.144531 C 276.605469 115.082031 276.480469 115.039062 276.382812 114.964844 C 276.25 114.859375 276.152344 114.71875 276.042969 114.589844 C 275.964844 114.5 275.871094 114.429688 275.804688 114.328125 C 275.695312 114.15625 275.628906 113.953125 275.558594 113.75 C 275.53125 113.667969 275.480469 113.601562 275.460938 113.515625 L 263.25 61.375 C 262.976562 60.191406 261.9375 59.367188 260.726562 59.367188 L 255.234375 59.367188 C 253.800781 59.367188 252.640625 58.207031 252.640625 56.773438 C 252.640625 55.339844 253.800781 54.179688 255.234375 54.179688 L 260.726562 54.179688 C 264.363281 54.179688 267.480469 56.652344 268.304688 60.199219 L 269.621094 65.816406 L 341.460938 65.816406 C 342.253906 65.816406 343.003906 66.175781 343.496094 66.792969 C 343.984375 67.414062 344.167969 68.226562 343.992188 68.996094 Z M 343.992188 68.996094 " fill-opacity="1" fill-rule="nonzero"/></g><path fill="#00f3f7" d="M 318.476562 88.074219 L 334.214844 88.074219 L 338.195312 71 L 318.476562 71 Z M 318.476562 88.074219 " fill-opacity="1" fill-rule="nonzero"/><path fill="#00f3f7" d="M 274.855469 88.074219 L 290.601562 88.074219 L 290.601562 71 L 270.878906 71 Z M 274.855469 88.074219 " fill-opacity="1" fill-rule="nonzero"/><path fill="#00f3f7" d="M 295.792969 71.003906 L 313.289062 71.003906 L 313.289062 88.082031 L 295.792969 88.082031 Z M 295.792969 71.003906 " fill-opacity="1" fill-rule="nonzero"/><path fill="#00f3f7" d="M 279.660156 108.683594 L 280.046875 110.332031 L 290.601562 110.332031 L 290.601562 93.261719 L 276.066406 93.261719 Z M 279.660156 108.683594 " fill-opacity="1" fill-rule="nonzero"/><path fill="#00f3f7" d="M 295.792969 93.261719 L 313.289062 93.261719 L 313.289062 110.328125 L 295.792969 110.328125 Z M 295.792969 93.261719 " fill-opacity="1" fill-rule="nonzero"/><g clip-path="url(#98b7cf15d8)"><path fill="#00f3f7" d="M 137.117188 158.671875 C 140.550781 160.6875 144.878906 158.226562 144.878906 154.195312 L 144.878906 50.828125 C 144.878906 45.15625 140.25 40.527344 134.578125 40.527344 L 18.75 40.527344 C 13.003906 40.527344 8.375 45.15625 8.375 50.828125 L 8.375 132.179688 C 8.375 137.851562 13.003906 142.476562 18.75 142.476562 L 109.429688 142.476562 Z M 16.957031 120.832031 L 16.957031 62.171875 C 16.957031 55.679688 22.257812 50.453125 28.675781 50.453125 L 124.578125 50.453125 C 130.996094 50.453125 136.296875 55.679688 136.296875 62.171875 L 136.296875 120.832031 C 136.296875 127.253906 130.996094 132.550781 124.578125 132.550781 L 28.675781 132.550781 C 22.257812 132.550781 16.957031 127.25 16.957031 120.832031 Z M 16.957031 120.832031 " fill-opacity="1" fill-rule="nonzero"/></g><path fill="#00f3f7" d="M 128.832031 62.171875 C 128.832031 59.785156 126.890625 57.917969 124.578125 57.917969 L 28.675781 57.917969 C 26.363281 57.917969 24.421875 59.785156 24.421875 62.171875 L 24.421875 66.425781 L 128.832031 66.425781 Z M 128.832031 62.171875 " fill-opacity="1" fill-rule="nonzero"/><path fill="#00f3f7" d="M 24.441406 73.894531 L 128.832031 73.894531 L 128.832031 83.296875 L 24.441406 83.296875 Z M 24.441406 73.894531 " fill-opacity="1" fill-rule="nonzero"/><path fill="#00f3f7" d="M 128.832031 120.832031 L 128.832031 90.757812 L 24.421875 90.757812 L 24.421875 120.832031 C 24.421875 123.148438 26.363281 125.085938 28.675781 125.085938 L 124.578125 125.085938 C 126.890625 125.085938 128.832031 123.148438 128.832031 120.832031 Z M 61.949219 110.792969 L 44.609375 110.792969 L 44.609375 104.386719 L 61.949219 104.386719 Z M 85.304688 110.792969 L 67.964844 110.792969 L 67.964844 104.386719 L 85.304688 104.386719 Z M 108.660156 110.792969 L 91.320312 110.792969 L 91.320312 104.386719 L 108.660156 104.386719 Z M 108.660156 110.792969 " fill-opacity="1" fill-rule="nonzero"/></svg>