<svg xmlns="http://www.w3.org/2000/svg" xmlns:xlink="http://www.w3.org/1999/xlink" width="500" zoomAndPan="magnify" viewBox="0 0 375 374.999991" height="500" preserveAspectRatio="xMidYMid meet" version="1.0"><defs><clipPath id="3e7bb12e03"><path d="M 153.554688 156 L 368.441406 156 L 368.441406 350.574219 L 153.554688 350.574219 Z M 153.554688 156 " clip-rule="nonzero"/></clipPath><clipPath id="354e877d5f"><path d="M 6.191406 24.324219 L 316 24.324219 L 316 334 L 6.191406 334 Z M 6.191406 24.324219 " clip-rule="nonzero"/></clipPath></defs><path fill="#00f3f7" d="M 189.664062 333.507812 L 201.121094 333.507812 L 201.121094 322.058594 L 189.664062 322.058594 L 189.664062 333.507812 " fill-opacity="1" fill-rule="nonzero"/><path fill="#00f3f7" d="M 292.726562 333.507812 L 304.183594 333.507812 L 304.183594 322.058594 L 292.726562 322.058594 L 292.726562 333.507812 " fill-opacity="1" fill-rule="nonzero"/><g clip-path="url(#3e7bb12e03)"><path fill="#00f3f7" d="M 298.457031 339.234375 C 292.144531 339.234375 287.007812 334.097656 287.007812 327.785156 C 287.007812 321.476562 292.144531 316.339844 298.457031 316.339844 C 304.765625 316.339844 309.914062 321.476562 309.914062 327.785156 C 309.914062 334.097656 304.765625 339.234375 298.457031 339.234375 Z M 182.59375 276.257812 L 168.40625 224.25 L 327.734375 213.621094 L 313.28125 276.257812 Z M 195.394531 339.234375 C 189.082031 339.234375 183.945312 334.097656 183.945312 327.785156 C 183.945312 321.476562 189.082031 316.339844 195.394531 316.339844 C 201.707031 316.339844 206.84375 321.476562 206.84375 327.785156 C 206.84375 334.097656 201.707031 339.234375 195.394531 339.234375 Z M 368.550781 167.300781 L 365.773438 156.1875 L 339.464844 162.765625 L 330.421875 201.972656 L 153.675781 213.753906 L 173.851562 287.703125 L 310.636719 287.703125 L 306.332031 306.367188 C 303.867188 305.457031 301.230469 304.882812 298.457031 304.882812 C 290.023438 304.882812 282.710938 309.523438 278.742188 316.339844 L 215.117188 316.339844 C 211.140625 309.523438 203.835938 304.882812 195.394531 304.882812 C 182.761719 304.882812 172.488281 315.164062 172.488281 327.785156 C 172.488281 340.417969 182.761719 350.683594 195.394531 350.683594 C 208.027344 350.683594 218.300781 340.417969 218.300781 327.785156 L 275.550781 327.785156 C 275.550781 340.417969 285.824219 350.683594 298.457031 350.683594 C 311.089844 350.683594 321.359375 340.417969 321.359375 327.785156 C 321.359375 322.457031 319.449219 317.613281 316.390625 313.714844 L 349.058594 172.171875 L 368.550781 167.300781 " fill-opacity="1" fill-rule="nonzero"/></g><path fill="#00f3f7" d="M 212.570312 224.726562 L 189.664062 224.726562 L 189.664062 236.175781 L 212.570312 236.175781 L 212.570312 224.726562 " fill-opacity="1" fill-rule="nonzero"/><path fill="#00f3f7" d="M 258.371094 224.726562 L 235.476562 224.726562 L 235.476562 236.175781 L 258.371094 236.175781 L 258.371094 224.726562 " fill-opacity="1" fill-rule="nonzero"/><path fill="#00f3f7" d="M 281.277344 224.726562 L 281.277344 236.175781 L 304.183594 236.175781 L 304.183594 224.726562 L 281.277344 224.726562 " fill-opacity="1" fill-rule="nonzero"/><path fill="#00f3f7" d="M 235.476562 241.902344 L 212.570312 241.902344 L 212.570312 253.351562 L 235.476562 253.351562 L 235.476562 241.902344 " fill-opacity="1" fill-rule="nonzero"/><path fill="#00f3f7" d="M 281.277344 241.902344 L 258.371094 241.902344 L 258.371094 253.351562 L 281.277344 253.351562 L 281.277344 241.902344 " fill-opacity="1" fill-rule="nonzero"/><path fill="#00f3f7" d="M 235.476562 270.527344 L 258.371094 270.527344 L 258.371094 259.078125 L 235.476562 259.078125 L 235.476562 270.527344 " fill-opacity="1" fill-rule="nonzero"/><path fill="#00f3f7" d="M 281.277344 270.527344 L 304.183594 270.527344 L 304.183594 259.078125 L 281.277344 259.078125 L 281.277344 270.527344 " fill-opacity="1" fill-rule="nonzero"/><path fill="#00f3f7" d="M 189.664062 270.527344 L 212.570312 270.527344 L 212.570312 259.078125 L 189.664062 259.078125 L 189.664062 270.527344 " fill-opacity="1" fill-rule="nonzero"/><g clip-path="url(#354e877d5f)"><path fill="#00f3f7" d="M 56.246094 276.28125 C 65.34375 270.730469 75.597656 265.941406 86.816406 262.066406 C 94.933594 284.894531 106.34375 303.519531 119.976562 316.027344 C 95.277344 308.621094 73.378906 294.707031 56.246094 276.28125 Z M 119.976562 41.808594 C 106.328125 54.328125 94.90625 72.988281 86.78125 95.851562 C 75.582031 91.980469 65.386719 87.125 56.253906 81.546875 C 73.378906 63.125 95.285156 49.21875 119.976562 41.808594 Z M 265.824219 81.546875 C 256.691406 87.125 246.5 91.980469 235.289062 95.851562 C 227.175781 72.988281 215.753906 54.328125 202.105469 41.808594 C 226.796875 49.21875 248.703125 63.125 265.824219 81.546875 Z M 248.558594 173.195312 C 248.082031 149.105469 244.636719 126.589844 238.808594 106.707031 C 251.523438 102.332031 263.101562 96.796875 273.367188 90.351562 C 291.523438 113.335938 302.796875 141.988281 304.035156 173.195312 Z M 166.769531 118.960938 C 188.164062 118.492188 208.882812 115.476562 227.792969 110.121094 C 233.320312 128.976562 236.632812 150.40625 237.113281 173.195312 L 166.769531 173.195312 Z M 155.3125 36.222656 L 155.3125 107.511719 C 135.101562 107.050781 115.582031 104.230469 97.8125 99.246094 C 110.492188 63.796875 131.382812 39.589844 155.3125 36.222656 Z M 166.769531 36.222656 C 190.699219 39.589844 211.589844 63.796875 224.265625 99.246094 C 206.496094 104.230469 186.976562 107.050781 166.769531 107.511719 Z M 84.96875 173.195312 C 85.445312 150.40625 88.761719 128.976562 94.285156 110.121094 C 113.195312 115.476562 133.917969 118.492188 155.3125 118.960938 L 155.3125 173.195312 Z M 18.046875 173.195312 C 19.277344 141.988281 30.558594 113.335938 48.714844 90.351562 C 58.980469 96.796875 70.558594 102.332031 83.273438 106.707031 C 77.445312 126.589844 74 149.105469 73.519531 173.195312 Z M 83.296875 251.203125 C 70.566406 255.585938 58.933594 261.070312 48.714844 267.488281 C 30.558594 244.5 19.277344 215.851562 18.046875 184.644531 L 73.519531 184.644531 C 74 208.769531 77.453125 231.3125 83.296875 251.203125 Z M 166.769531 333.507812 L 166.769531 299.160156 L 155.3125 299.160156 L 155.3125 321.617188 C 131.371094 318.25 110.484375 294.027344 97.796875 258.566406 C 115.628906 253.554688 135.246094 250.65625 155.4375 250.210938 L 155.1875 238.753906 C 133.902344 239.222656 113.171875 242.328125 94.277344 247.683594 C 88.761719 228.835938 85.445312 207.417969 84.96875 184.644531 L 155.3125 184.644531 L 155.3125 201.820312 L 166.769531 201.820312 L 166.769531 184.644531 L 304.183594 184.644531 L 304.183594 190.371094 L 315.632812 190.371094 L 315.632812 173.195312 L 315.492188 173.195312 C 312.457031 90.601562 244.359375 24.332031 161.039062 24.332031 C 75.800781 24.332031 6.449219 93.675781 6.449219 178.925781 C 6.449219 264.164062 75.800781 333.507812 161.039062 333.507812 L 166.769531 333.507812 " fill-opacity="1" fill-rule="nonzero"/></g></svg>