<svg xmlns="http://www.w3.org/2000/svg" xmlns:xlink="http://www.w3.org/1999/xlink" width="500" zoomAndPan="magnify" viewBox="0 0 375 374.999991" height="500" preserveAspectRatio="xMidYMid meet" version="1.0"><defs><clipPath id="d369e57613"><path d="M 7.285156 46.96875 L 367.707031 46.96875 L 367.707031 328.046875 L 7.285156 328.046875 Z M 7.285156 46.96875 " clip-rule="nonzero"/></clipPath></defs><path fill="#00f3f7" d="M 159.160156 283.84375 L 340.503906 283.84375 C 343.628906 283.84375 346.167969 281.304688 346.167969 278.175781 C 346.167969 275.046875 343.628906 272.507812 340.503906 272.507812 L 159.160156 272.507812 C 156.035156 272.507812 153.492188 275.046875 153.492188 278.175781 C 153.492188 281.304688 156.035156 283.84375 159.160156 283.84375 " fill-opacity="1" fill-rule="nonzero"/><path fill="#00f3f7" d="M 159.160156 102.5 L 340.503906 102.5 C 343.628906 102.5 346.167969 99.960938 346.167969 96.832031 C 346.167969 93.707031 343.628906 91.164062 340.503906 91.164062 L 159.160156 91.164062 C 156.035156 91.164062 153.492188 93.707031 153.492188 96.832031 C 153.492188 99.960938 156.035156 102.5 159.160156 102.5 " fill-opacity="1" fill-rule="nonzero"/><path fill="#00f3f7" d="M 77.085938 92.144531 L 110.597656 68.496094 L 37.71875 68.496094 L 71.550781 92.355469 C 73.304688 93.265625 75.40625 93.183594 77.085938 92.144531 " fill-opacity="1" fill-rule="nonzero"/><path fill="#00f3f7" d="M 159.160156 193.171875 L 340.503906 193.171875 C 343.628906 193.171875 346.167969 190.628906 346.167969 187.503906 C 346.167969 184.375 343.628906 181.835938 340.503906 181.835938 L 159.160156 181.835938 C 156.035156 181.835938 153.492188 184.375 153.492188 187.503906 C 153.492188 190.628906 156.035156 193.171875 159.160156 193.171875 " fill-opacity="1" fill-rule="nonzero"/><path fill="#00f3f7" d="M 34.484375 125.164062 L 113.820312 125.164062 C 116.949219 125.164062 119.488281 122.625 119.488281 119.5 L 119.488281 76.085938 L 83.289062 101.621094 C 77.828125 105.074219 70.890625 105.15625 65.355469 101.839844 L 28.816406 76.082031 L 28.816406 119.5 C 28.820312 122.625 31.359375 125.164062 34.484375 125.164062 " fill-opacity="1" fill-rule="nonzero"/><path fill="#00f3f7" d="M 65.355469 192.511719 L 28.816406 166.753906 L 28.816406 210.171875 C 28.820312 213.300781 31.359375 215.835938 34.484375 215.835938 L 113.820312 215.835938 C 116.949219 215.835938 119.488281 213.300781 119.488281 210.171875 L 119.488281 166.765625 L 83.289062 192.292969 C 77.828125 195.746094 70.890625 195.832031 65.355469 192.511719 " fill-opacity="1" fill-rule="nonzero"/><g clip-path="url(#d369e57613)"><path fill="#00f3f7" d="M 130.824219 210.171875 C 130.8125 219.558594 123.210938 227.160156 113.820312 227.175781 L 34.484375 227.175781 C 25.097656 227.160156 17.492188 219.558594 17.484375 210.171875 L 17.484375 164.839844 C 17.492188 155.449219 25.097656 147.84375 34.484375 147.835938 L 113.820312 147.835938 C 123.210938 147.84375 130.8125 155.449219 130.824219 164.839844 Z M 130.824219 255.507812 L 130.824219 300.84375 C 130.8125 310.230469 123.210938 317.835938 113.820312 317.84375 L 34.484375 317.84375 C 25.097656 317.835938 17.492188 310.230469 17.484375 300.84375 L 17.484375 255.507812 C 17.492188 246.121094 25.097656 238.515625 34.484375 238.507812 L 113.820312 238.507812 C 123.210938 238.515625 130.8125 246.121094 130.824219 255.507812 Z M 17.484375 119.5 L 17.484375 74.160156 C 17.492188 64.777344 25.097656 57.171875 34.484375 57.160156 L 113.820312 57.160156 C 123.210938 57.171875 130.8125 64.777344 130.824219 74.160156 L 130.824219 119.5 C 130.8125 128.882812 123.210938 136.484375 113.820312 136.5 L 34.484375 136.5 C 25.097656 136.484375 17.492188 128.882812 17.484375 119.5 Z M 159.160156 261.175781 L 340.503906 261.175781 C 349.890625 261.175781 357.503906 268.785156 357.503906 278.175781 C 357.503906 287.566406 349.890625 295.179688 340.503906 295.179688 L 159.160156 295.179688 C 149.769531 295.179688 142.160156 287.566406 142.160156 278.175781 C 142.160156 268.785156 149.769531 261.175781 159.160156 261.175781 Z M 159.160156 79.832031 L 340.503906 79.832031 C 349.890625 79.832031 357.503906 87.441406 357.503906 96.832031 C 357.503906 106.214844 349.890625 113.835938 340.503906 113.835938 L 159.160156 113.835938 C 149.769531 113.835938 142.160156 106.214844 142.160156 96.832031 C 142.160156 87.441406 149.769531 79.832031 159.160156 79.832031 Z M 159.160156 170.503906 L 340.503906 170.503906 C 349.890625 170.503906 357.503906 178.113281 357.503906 187.503906 C 357.503906 196.894531 349.890625 204.503906 340.503906 204.503906 L 159.160156 204.503906 C 149.769531 204.503906 142.160156 196.894531 142.160156 187.503906 C 142.160156 178.113281 149.769531 170.503906 159.160156 170.503906 Z M 141.023438 210.167969 L 141.023438 207.628906 C 145.847656 211.976562 152.167969 214.707031 159.160156 214.707031 L 340.503906 214.707031 C 355.503906 214.707031 367.707031 202.503906 367.707031 187.503906 C 367.707031 172.507812 355.503906 160.300781 340.503906 160.300781 L 159.160156 160.300781 C 152.167969 160.300781 145.847656 163.023438 141.023438 167.378906 L 141.023438 164.824219 C 141.015625 155.375 136.132812 147.046875 128.773438 142.171875 C 136.132812 137.296875 141.015625 128.960938 141.023438 119.5 L 141.023438 116.957031 C 145.847656 121.304688 152.167969 124.027344 159.160156 124.027344 L 340.503906 124.027344 C 355.503906 124.027344 367.707031 111.828125 367.707031 96.824219 C 367.707031 81.832031 355.503906 69.625 340.503906 69.625 L 159.160156 69.625 C 152.167969 69.625 145.847656 72.355469 141.023438 76.703125 L 141.023438 74.15625 C 141.007812 59.171875 128.808594 46.980469 113.820312 46.964844 L 34.476562 46.964844 C 19.496094 46.980469 7.300781 59.171875 7.285156 74.167969 L 7.285156 119.511719 C 7.292969 128.96875 12.171875 137.296875 19.53125 142.164062 C 12.175781 147.046875 7.292969 155.375 7.285156 164.832031 L 7.285156 210.183594 C 7.292969 219.640625 12.175781 227.96875 19.53125 232.84375 C 12.175781 237.714844 7.292969 246.046875 7.285156 255.507812 L 7.285156 300.859375 C 7.300781 315.828125 19.496094 328.027344 34.484375 328.046875 C 34.484375 328.046875 113.832031 328.046875 113.835938 328.046875 C 128.808594 328.027344 141.007812 315.828125 141.023438 300.847656 L 141.023438 298.296875 C 145.847656 302.648438 152.167969 305.375 159.160156 305.375 L 340.503906 305.375 C 355.503906 305.375 367.707031 293.175781 367.707031 278.175781 C 367.707031 263.171875 355.503906 250.972656 340.503906 250.972656 L 159.160156 250.972656 C 152.167969 250.972656 145.847656 253.699219 141.023438 258.046875 L 141.023438 255.496094 C 141.015625 246.046875 136.132812 237.714844 128.773438 232.84375 C 136.132812 227.96875 141.015625 219.640625 141.023438 210.167969 " fill-opacity="1" fill-rule="nonzero"/></g><path fill="#00f3f7" d="M 65.355469 283.179688 L 28.816406 257.425781 L 28.816406 300.84375 C 28.820312 303.96875 31.359375 306.507812 34.484375 306.511719 L 113.820312 306.511719 C 116.949219 306.507812 119.488281 303.96875 119.488281 300.84375 L 119.488281 257.433594 L 83.289062 282.964844 C 77.828125 286.421875 70.890625 286.5 65.355469 283.179688 " fill-opacity="1" fill-rule="nonzero"/><path fill="#00f3f7" d="M 77.085938 182.8125 L 110.597656 159.167969 L 37.71875 159.167969 L 71.550781 183.027344 C 73.304688 183.941406 75.40625 183.851562 77.085938 182.8125 " fill-opacity="1" fill-rule="nonzero"/><path fill="#00f3f7" d="M 77.085938 273.484375 L 110.597656 249.839844 L 37.71875 249.839844 L 71.550781 273.699219 C 73.304688 274.613281 75.40625 274.527344 77.085938 273.484375 " fill-opacity="1" fill-rule="nonzero"/></svg>