<svg xmlns="http://www.w3.org/2000/svg" xmlns:xlink="http://www.w3.org/1999/xlink" width="500" zoomAndPan="magnify" viewBox="0 0 375 374.999991" height="500" preserveAspectRatio="xMidYMid meet" version="1.0"><defs><clipPath id="88c611119b"><path d="M 6.738281 6.738281 L 368 6.738281 L 368 368.238281 L 6.738281 368.238281 Z M 6.738281 6.738281 " clip-rule="nonzero"/></clipPath></defs><g clip-path="url(#88c611119b)"><path fill="#00f3f7" d="M 181.570312 164.917969 L 119.480469 164.917969 L 119.480469 176.21875 L 181.570312 176.21875 Z M 186.269531 250.332031 L 188.03125 249.589844 L 208.441406 241.03125 L 195.574219 228.160156 L 186.582031 249.589844 Z M 221.78125 198.859375 L 202.015625 218.621094 L 203.546875 220.152344 L 216.433594 233.058594 L 217.980469 234.605469 L 232.375 220.210938 L 232.375 210.082031 C 232.375 209.457031 232.296875 208.828125 232.179688 208.203125 C 232.140625 207.96875 232.101562 207.734375 232.042969 207.476562 C 232.003906 207.320312 231.945312 207.164062 231.886719 207.007812 C 231.671875 206.285156 231.398438 205.558594 231.003906 204.851562 C 229.535156 203.1875 227.949219 201.582031 226.265625 200.132812 C 225.601562 199.78125 224.933594 199.507812 224.25 199.289062 C 224.148438 199.269531 224.050781 199.230469 223.953125 199.210938 C 223.445312 199.074219 222.9375 198.996094 222.425781 198.917969 C 222.230469 198.898438 222.035156 198.839844 221.839844 198.820312 Z M 232.375 236.171875 L 217.980469 250.570312 L 217.019531 249.589844 L 216.433594 249 C 216.21875 249.199219 216.023438 249.414062 215.804688 249.589844 C 215.101562 250.195312 214.335938 250.707031 213.496094 251.136719 L 213.160156 251.273438 L 165.175781 271.429688 L 174.339844 249.589844 L 185.328125 223.441406 C 185.9375 222.207031 186.738281 221.128906 187.640625 220.210938 L 186.054688 218.621094 L 205.894531 198.78125 L 153.34375 198.78125 C 147.117188 198.78125 142.042969 203.855469 142.042969 210.082031 L 142.042969 277.8125 C 142.042969 284.042969 147.117188 289.117188 153.34375 289.117188 L 181.570312 289.117188 L 181.570312 301.710938 L 202.585938 289.117188 L 221.074219 289.117188 C 227.304688 289.117188 232.375 284.042969 232.375 277.8125 Z M 243.460938 207.28125 C 243.582031 208.203125 243.660156 209.144531 243.660156 210.082031 L 243.660156 277.8125 C 243.660156 290.269531 233.53125 300.398438 221.074219 300.398438 L 205.699219 300.398438 L 170.265625 321.648438 L 170.265625 300.398438 L 153.34375 300.398438 C 140.886719 300.398438 130.761719 290.269531 130.761719 277.8125 L 130.761719 210.082031 C 130.761719 197.625 140.886719 187.5 153.34375 187.5 L 221.074219 187.5 C 221.996094 187.5 222.917969 187.578125 223.816406 187.675781 C 223.992188 187.695312 224.148438 187.734375 224.328125 187.753906 C 225.167969 187.890625 226.011719 188.046875 226.851562 188.28125 C 226.851562 188.28125 226.871094 188.28125 226.871094 188.28125 C 235.53125 190.574219 242.171875 197.917969 243.421875 206.96875 C 243.441406 207.066406 243.460938 207.164062 243.460938 207.28125 Z M 254.960938 339.921875 L 317.050781 339.921875 L 317.050781 328.621094 L 254.960938 328.621094 Z M 96.894531 221.363281 L 119.480469 221.363281 L 119.480469 210.082031 L 96.894531 210.082031 Z M 96.894531 198.78125 L 119.480469 198.78125 L 119.480469 187.5 L 96.894531 187.5 Z M 74.3125 40.738281 C 85.59375 40.738281 74.3125 40.738281 85.59375 40.738281 L 85.59375 29.433594 L 74.3125 29.433594 Z M 322.710938 52.019531 L 356.574219 52.019531 L 356.574219 18.152344 L 322.710938 18.152344 Z M 17.882812 52.019531 L 311.429688 52.019531 L 311.429688 18.152344 L 17.882812 18.152344 Z M 356.613281 63.320312 L 17.921875 63.320312 L 17.921875 356.847656 L 356.613281 356.847656 Z M 367.898438 52.019531 L 367.898438 368.128906 L 6.621094 368.128906 L 6.621094 63.320312 L 6.601562 63.320312 L 6.601562 6.871094 L 367.878906 6.871094 L 367.878906 52.019531 Z M 254.960938 221.363281 L 277.523438 221.363281 L 277.523438 210.082031 L 254.960938 210.082031 Z M 29.144531 40.738281 C 40.503906 40.738281 29.144531 40.738281 40.503906 40.738281 L 40.503906 29.433594 L 29.144531 29.433594 Z M 51.789062 40.738281 C 63.070312 40.738281 51.789062 40.738281 63.070312 40.738281 L 63.070312 29.433594 L 51.789062 29.433594 Z M 322.691406 300.398438 C 322.691406 297.28125 320.164062 294.757812 317.050781 294.757812 L 283.164062 294.757812 C 280.070312 294.757812 277.523438 297.28125 277.523438 300.398438 C 277.523438 303.511719 280.070312 306.039062 283.164062 306.039062 L 317.050781 306.039062 C 320.164062 306.039062 322.691406 303.511719 322.691406 300.398438 Z M 317.050781 283.453125 C 326.375 283.453125 333.972656 291.054688 333.972656 300.398438 C 333.972656 309.738281 326.375 317.339844 317.050781 317.339844 L 283.164062 317.339844 C 273.839844 317.339844 266.242188 309.738281 266.242188 300.398438 C 266.242188 291.054688 273.839844 283.453125 283.164062 283.453125 Z M 277.523438 97.183594 L 96.894531 97.183594 L 96.894531 108.46875 L 277.523438 108.46875 Z M 266.242188 131.050781 L 266.242188 119.75 L 215.433594 119.75 L 215.433594 131.050781 Z M 204.152344 131.050781 L 204.152344 119.75 L 158.984375 119.75 L 158.984375 131.050781 Z M 277.523438 187.5 L 254.960938 187.5 L 254.960938 198.78125 L 277.523438 198.78125 Z M 103.808594 289.253906 C 103.398438 289.175781 102.96875 289.117188 102.535156 289.117188 L 46.085938 289.117188 C 45.65625 289.117188 45.226562 289.175781 44.8125 289.253906 C 44.695312 289.292969 44.558594 289.351562 44.441406 289.390625 C 44.167969 289.46875 43.894531 289.566406 43.640625 289.683594 C 43.523438 289.761719 43.382812 289.820312 43.265625 289.898438 C 43.03125 290.035156 42.816406 290.171875 42.601562 290.347656 C 42.484375 290.449219 42.367188 290.527344 42.269531 290.625 C 42.050781 290.820312 41.855469 291.054688 41.660156 291.289062 C 41.621094 291.347656 41.542969 291.40625 41.484375 291.484375 L 41.503906 291.484375 L 74.3125 305.546875 L 107.121094 291.484375 L 107.140625 291.484375 C 107.082031 291.40625 107.023438 291.347656 106.964844 291.289062 C 106.765625 291.054688 106.570312 290.820312 106.355469 290.625 C 106.257812 290.527344 106.140625 290.449219 106.023438 290.347656 C 105.828125 290.171875 105.613281 290.035156 105.375 289.898438 C 105.238281 289.820312 105.101562 289.761719 104.984375 289.683594 C 104.710938 289.566406 104.457031 289.46875 104.183594 289.390625 C 104.0625 289.351562 103.925781 289.292969 103.808594 289.253906 Z M 108.175781 303.316406 L 74.3125 317.828125 L 40.445312 303.316406 L 40.445312 328.621094 C 40.445312 331.734375 42.972656 334.261719 46.085938 334.261719 L 102.535156 334.261719 C 105.652344 334.261719 108.175781 331.734375 108.175781 328.621094 Z M 119.480469 294.757812 L 119.480469 328.621094 C 119.480469 337.964844 111.878906 345.5625 102.535156 345.5625 L 46.085938 345.5625 C 36.746094 345.5625 29.144531 337.964844 29.144531 328.621094 L 29.144531 294.757812 C 29.144531 285.414062 36.746094 277.8125 46.085938 277.8125 L 102.535156 277.8125 C 111.878906 277.8125 119.480469 285.414062 119.480469 294.757812 Z M 79.953125 85.882812 L 294.464844 85.882812 L 294.464844 243.949219 L 254.960938 243.949219 L 254.960938 255.230469 L 305.75 255.230469 L 305.75 74.601562 L 68.671875 74.601562 L 68.671875 255.230469 L 119.480469 255.230469 L 119.480469 243.949219 L 79.953125 243.949219 Z M 277.523438 164.917969 L 192.851562 164.917969 L 192.851562 176.21875 L 277.523438 176.21875 Z M 96.894531 131.050781 L 147.703125 131.050781 L 147.703125 119.75 L 96.894531 119.75 Z M 277.523438 153.632812 L 108.175781 153.632812 L 108.175781 142.332031 L 277.523438 142.332031 L 277.523438 153.632812 " fill-opacity="1" fill-rule="nonzero"/></g></svg>