<svg xmlns="http://www.w3.org/2000/svg" xmlns:xlink="http://www.w3.org/1999/xlink" width="500" zoomAndPan="magnify" viewBox="0 0 375 374.999991" height="500" preserveAspectRatio="xMidYMid meet" version="1.0"><defs><clipPath id="4dadc2f0b5"><path d="M 187 5.835938 L 201 5.835938 L 201 144 L 187 144 Z M 187 5.835938 " clip-rule="nonzero"/></clipPath><clipPath id="acd94cdcd5"><path d="M 30.816406 62 L 56 62 L 56 113 L 30.816406 113 Z M 30.816406 62 " clip-rule="nonzero"/></clipPath><clipPath id="d4d3248f9c"><path d="M 43 356 L 344.316406 356 L 344.316406 368.835938 L 43 368.835938 Z M 43 356 " clip-rule="nonzero"/></clipPath></defs><g clip-path="url(#4dadc2f0b5)"><path fill="#00f3f7" d="M 200.023438 12.101562 C 200.023438 8.648438 197.214844 5.835938 193.761719 5.835938 C 190.308594 5.835938 187.496094 8.648438 187.496094 12.101562 L 187.496094 143.648438 L 200.023438 143.648438 L 200.023438 12.101562 " fill-opacity="1" fill-rule="nonzero"/></g><path fill="#00f3f7" d="M 235.164062 114.972656 C 232.683594 113.289062 230.085938 111.75 227.414062 110.378906 C 223.308594 114.136719 218.203125 116.8125 212.550781 117.964844 L 212.550781 143.648438 L 274.621094 143.648438 C 263.324219 134.722656 250.113281 125.121094 235.164062 114.972656 " fill-opacity="1" fill-rule="nonzero"/><path fill="#00f3f7" d="M 138.105469 124.863281 C 129.429688 131.019531 121.417969 136.96875 114.214844 142.621094 C 114.285156 142.964844 114.363281 143.3125 114.441406 143.648438 L 169.917969 143.648438 C 163.425781 132.472656 151.351562 125.121094 138.105469 124.863281 " fill-opacity="1" fill-rule="nonzero"/><path fill="#00f3f7" d="M 225.082031 87.269531 C 225.082031 79.105469 219.839844 72.136719 212.550781 69.550781 L 212.550781 104.988281 C 219.839844 102.40625 225.082031 95.4375 225.082031 87.269531 " fill-opacity="1" fill-rule="nonzero"/><path fill="#00f3f7" d="M 262.664062 193.761719 C 266.117188 193.761719 268.929688 190.949219 268.929688 187.496094 C 268.929688 184.042969 266.117188 181.230469 262.664062 181.230469 C 259.210938 181.230469 256.402344 184.042969 256.402344 187.496094 C 256.402344 190.949219 259.210938 193.761719 262.664062 193.761719 " fill-opacity="1" fill-rule="nonzero"/><path fill="#00f3f7" d="M 319.042969 193.761719 C 319.042969 190.6875 317.167969 184.222656 306.511719 172.421875 L 306.511719 217.8125 C 313.355469 211.511719 319.042969 203.382812 319.042969 193.761719 " fill-opacity="1" fill-rule="nonzero"/><path fill="#00f3f7" d="M 156.175781 193.761719 L 193.761719 193.761719 L 193.761719 206.289062 L 156.175781 206.289062 Z M 156.175781 231.34375 L 131.121094 231.34375 L 131.121094 218.816406 L 156.175781 218.816406 Z M 106.0625 193.761719 L 143.648438 193.761719 L 143.648438 206.289062 L 106.0625 206.289062 Z M 106.0625 168.703125 L 131.121094 168.703125 L 131.121094 181.230469 L 106.0625 181.230469 Z M 143.648438 168.703125 L 156.175781 168.703125 L 156.175781 181.230469 L 143.648438 181.230469 Z M 206.289062 231.34375 L 168.703125 231.34375 L 168.703125 218.816406 L 206.289062 218.816406 Z M 206.289062 193.761719 L 231.34375 193.761719 L 231.34375 206.289062 L 206.289062 206.289062 Z M 262.664062 168.703125 C 273.023438 168.703125 281.457031 177.136719 281.457031 187.496094 C 281.457031 197.855469 273.023438 206.289062 262.664062 206.289062 C 252.304688 206.289062 243.871094 197.855469 243.871094 187.496094 C 243.871094 177.136719 252.304688 168.703125 262.664062 168.703125 Z M 281.457031 231.34375 L 218.816406 231.34375 L 218.816406 218.816406 L 281.457031 218.816406 Z M 193.761719 239.621094 C 203.703125 239.621094 213.085938 242.910156 220.640625 248.792969 C 249.886719 245.84375 275.6875 238.195312 293.984375 227.078125 L 293.984375 156.175781 L 93.535156 156.175781 L 93.535156 227.078125 C 111.839844 238.195312 137.632812 245.84375 166.882812 248.792969 C 174.4375 242.910156 183.816406 239.621094 193.761719 239.621094 " fill-opacity="1" fill-rule="nonzero"/><path fill="#00f3f7" d="M 100.003906 131.121094 L 81.203125 131.121094 C 81.507812 135.855469 82.140625 140.578125 83.121094 145.222656 C 84.222656 144.242188 85.679688 143.648438 87.269531 143.648438 L 101.640625 143.648438 C 100.816406 139.511719 100.277344 135.324219 100.003906 131.121094 " fill-opacity="1" fill-rule="nonzero"/><path fill="#00f3f7" d="M 156.597656 260.191406 C 156.589844 260.207031 156.582031 260.214844 156.578125 260.230469 L 104.160156 344.097656 L 68.480469 344.097656 L 68.480469 222.988281 C 72.605469 227.5 77.738281 231.78125 83.832031 235.777344 C 102.046875 247.707031 127.566406 256.246094 156.597656 260.191406 " fill-opacity="1" fill-rule="nonzero"/><path fill="#00f3f7" d="M 174.96875 129.359375 L 174.96875 45.214844 C 165.777344 55.628906 152.332031 62.214844 137.382812 62.214844 L 131.121094 62.214844 L 131.121094 112.328125 L 137.382812 112.328125 C 152.003906 112.328125 165.625 118.828125 174.96875 129.359375 " fill-opacity="1" fill-rule="nonzero"/><path fill="#00f3f7" d="M 319.042969 222.988281 L 319.042969 344.097656 L 283.359375 344.097656 L 230.945312 260.230469 C 230.9375 260.214844 230.929688 260.207031 230.921875 260.191406 C 259.953125 256.246094 285.472656 247.707031 303.679688 235.777344 C 309.769531 231.78125 314.90625 227.5 319.042969 222.988281 " fill-opacity="1" fill-rule="nonzero"/><path fill="#00f3f7" d="M 268.59375 344.097656 L 118.925781 344.097656 L 167.199219 266.871094 C 172.964844 257.644531 182.894531 252.148438 193.761719 252.148438 C 204.628906 252.148438 214.554688 257.644531 220.320312 266.871094 L 268.59375 344.097656 " fill-opacity="1" fill-rule="nonzero"/><path fill="#00f3f7" d="M 118.589844 55.949219 L 68.480469 55.949219 L 68.480469 118.589844 L 118.589844 118.589844 L 118.589844 55.949219 " fill-opacity="1" fill-rule="nonzero"/><g clip-path="url(#acd94cdcd5)"><path fill="#00f3f7" d="M 30.894531 68.480469 L 43.421875 68.480469 L 43.421875 81.007812 L 30.894531 81.007812 L 30.894531 93.535156 L 43.421875 93.535156 L 43.421875 106.0625 L 30.894531 106.0625 C 30.894531 109.515625 33.703125 112.328125 37.160156 112.328125 L 55.949219 112.328125 L 55.949219 62.214844 L 37.160156 62.214844 C 33.703125 62.214844 30.894531 65.027344 30.894531 68.480469 " fill-opacity="1" fill-rule="nonzero"/></g><path fill="#00f3f7" d="M 81.007812 217.8125 L 81.007812 176.351562 C 80.574219 175.523438 80.152344 174.6875 79.746094 173.839844 C 70.105469 184.871094 68.480469 190.933594 68.480469 193.761719 C 68.480469 203.382812 74.164062 211.511719 81.007812 217.8125 " fill-opacity="1" fill-rule="nonzero"/><g clip-path="url(#d4d3248f9c)"><path fill="#00f3f7" d="M 344.097656 369.152344 L 43.421875 369.152344 L 43.421875 356.625 L 344.097656 356.625 L 344.097656 369.152344 " fill-opacity="1" fill-rule="nonzero"/></g></svg>