<svg xmlns="http://www.w3.org/2000/svg" xmlns:xlink="http://www.w3.org/1999/xlink" width="500" zoomAndPan="magnify" viewBox="0 0 375 374.999991" height="500" preserveAspectRatio="xMidYMid meet" version="1.0"><defs><clipPath id="2faba5bb95"><path d="M 8.117188 8.15625 L 366.617188 8.15625 L 366.617188 366.617188 L 8.117188 366.617188 Z M 8.117188 8.15625 " clip-rule="nonzero"/></clipPath></defs><path fill="#00f3f7" d="M 65.648438 297.066406 C 57.171875 293.554688 47.40625 295.496094 40.914062 301.984375 C 34.421875 308.476562 32.484375 318.234375 35.996094 326.714844 C 39.507812 335.199219 47.785156 340.726562 56.960938 340.726562 C 69.492188 340.710938 79.644531 330.558594 79.65625 318.03125 C 79.65625 308.855469 74.128906 300.578125 65.648438 297.066406 " fill-opacity="1" fill-rule="nonzero"/><path fill="#00f3f7" d="M 65.648438 35.992188 C 57.171875 32.476562 47.40625 34.417969 40.914062 40.90625 C 34.421875 47.398438 32.484375 57.164062 35.996094 65.640625 C 39.507812 74.121094 47.785156 79.652344 56.960938 79.652344 C 69.492188 79.636719 79.644531 69.484375 79.65625 56.957031 C 79.65625 47.78125 74.128906 39.5 65.648438 35.992188 " fill-opacity="1" fill-rule="nonzero"/><path fill="#00f3f7" d="M 309.355469 77.925781 C 317.835938 81.4375 327.59375 79.496094 334.085938 73.003906 C 340.578125 66.515625 342.515625 56.753906 339.003906 48.269531 C 335.492188 39.789062 327.21875 34.261719 318.039062 34.261719 C 305.507812 34.277344 295.359375 44.429688 295.34375 56.957031 C 295.34375 66.132812 300.875 74.414062 309.355469 77.925781 " fill-opacity="1" fill-rule="nonzero"/><path fill="#00f3f7" d="M 222.949219 150.929688 L 152.050781 150.929688 L 187.5 174.445312 Z M 222.949219 150.929688 " fill-opacity="1" fill-rule="nonzero"/><path fill="#00f3f7" d="M 256.652344 225.359375 C 256.644531 233.390625 250.136719 239.902344 242.105469 239.910156 L 132.902344 239.910156 C 124.867188 239.902344 118.355469 233.394531 118.351562 225.359375 L 118.351562 149.632812 C 118.355469 141.597656 124.867188 135.085938 132.894531 135.078125 L 242.105469 135.078125 C 250.136719 135.085938 256.644531 141.597656 256.652344 149.632812 Z M 187.5 88.335938 C 132.824219 88.335938 88.34375 132.820312 88.34375 187.492188 C 88.34375 242.171875 132.824219 286.652344 187.5 286.652344 C 242.175781 286.652344 286.660156 242.171875 286.660156 187.492188 C 286.660156 132.820312 242.175781 88.335938 187.5 88.335938 " fill-opacity="1" fill-rule="nonzero"/><g clip-path="url(#2faba5bb95)"><path fill="#00f3f7" d="M 345.382812 345.371094 C 331.398438 359.351562 309.109375 360.511719 293.761719 348.046875 C 278.410156 335.578125 274.960938 313.53125 285.773438 296.976562 L 262.988281 274.191406 C 219.777344 311.914062 155.347656 311.945312 112.101562 274.265625 L 89.234375 296.984375 C 100.042969 313.546875 96.589844 335.597656 81.230469 348.058594 C 65.875 360.523438 43.589844 359.359375 29.609375 345.371094 C 15.628906 331.382812 14.480469 309.097656 26.949219 293.746094 C 39.421875 278.398438 61.476562 274.957031 78.027344 285.777344 L 100.882812 263.070312 C 63.054688 219.828125 63.023438 155.289062 100.800781 112.007812 L 78.015625 89.21875 C 61.457031 100.035156 39.410156 96.589844 26.945312 81.238281 C 14.476562 65.882812 15.628906 43.597656 29.617188 29.613281 C 43.597656 15.628906 65.890625 14.476562 81.238281 26.9375 C 96.589844 39.40625 100.039062 61.457031 89.226562 78.015625 L 112.011719 100.800781 C 155.296875 63.011719 219.851562 63.054688 263.089844 100.886719 L 285.78125 78.023438 C 276.109375 63.230469 277.726562 43.757812 289.695312 30.757812 C 301.667969 17.757812 320.941406 14.546875 336.480469 22.96875 C 352.019531 31.390625 359.851562 49.285156 355.496094 66.417969 C 351.140625 83.542969 335.710938 95.527344 318.039062 95.5 C 310.558594 95.507812 303.246094 93.328125 296.996094 89.226562 L 274.289062 112.109375 C 311.949219 155.363281 311.910156 219.777344 274.195312 262.980469 L 296.984375 285.765625 C 313.539062 274.953125 335.589844 278.398438 348.054688 293.746094 C 360.515625 309.101562 359.363281 331.390625 345.382812 345.371094 Z M 355.933594 287.355469 C 346.632812 275.898438 332.835938 269.332031 318.070312 269.332031 C 311.414062 269.332031 304.898438 270.6875 298.851562 273.285156 L 287.820312 262.253906 C 320.703125 218.183594 320.726562 156.914062 287.886719 112.816406 L 298.890625 101.726562 C 304.90625 104.308594 311.410156 105.652344 318.097656 105.652344 C 340.410156 105.652344 359.832031 90.546875 365.339844 68.917969 C 370.84375 47.257812 360.964844 24.695312 341.316406 14.046875 C 334.203125 10.191406 326.179688 8.152344 318.105469 8.152344 C 304.507812 8.152344 291.4375 13.886719 282.230469 23.878906 C 269.015625 38.226562 265.78125 58.75 273.308594 76.183594 L 262.34375 87.230469 C 240.804688 71.117188 214.574219 62.332031 187.5 62.332031 C 160.46875 62.332031 134.261719 71.09375 112.738281 87.171875 L 101.714844 76.148438 C 110.242188 56.414062 104.871094 33.050781 87.640625 19.058594 C 78.976562 12.023438 68.066406 8.152344 56.921875 8.152344 C 43.890625 8.152344 31.644531 13.226562 22.4375 22.433594 C 4.71875 40.152344 3.269531 68.179688 19.0625 87.632812 C 28.363281 99.089844 42.164062 105.65625 56.929688 105.65625 C 63.582031 105.65625 70.101562 104.308594 76.144531 101.703125 L 87.175781 112.734375 C 54.226562 156.878906 54.253906 218.203125 87.226562 262.320312 L 76.183594 273.296875 C 70.128906 270.6875 63.597656 269.332031 56.933594 269.332031 C 42.175781 269.332031 28.375 275.894531 19.070312 287.347656 C 3.273438 306.796875 4.71875 334.824219 22.425781 352.546875 C 31.636719 361.757812 43.890625 366.839844 56.921875 366.839844 C 68.066406 366.839844 78.96875 362.96875 87.625 355.941406 C 104.855469 341.957031 110.238281 318.613281 101.730469 298.875 L 112.8125 287.871094 C 134.316406 303.917969 160.5 312.652344 187.496094 312.652344 C 214.535156 312.652344 240.738281 303.898438 262.257812 287.816406 L 273.28125 298.839844 C 264.761719 318.574219 270.128906 341.9375 287.367188 355.921875 C 296.023438 362.953125 306.925781 366.828125 318.078125 366.828125 C 331.105469 366.828125 343.351562 361.757812 352.558594 352.550781 C 370.277344 334.832031 371.722656 306.804688 355.933594 287.355469 " fill-opacity="1" fill-rule="nonzero"/></g><path fill="#00f3f7" d="M 176.035156 216.238281 C 174.566406 217.742188 172.5625 218.605469 170.460938 218.628906 L 148.007812 218.917969 L 147.90625 218.917969 C 143.527344 218.945312 139.957031 215.414062 139.929688 211.039062 C 139.90625 206.664062 143.433594 203.089844 147.808594 203.0625 L 170.261719 202.777344 C 174.632812 202.738281 178.21875 206.238281 178.285156 210.601562 C 178.3125 212.707031 177.503906 214.730469 176.035156 216.238281 Z M 183.121094 190.558594 L 134.203125 158.109375 L 134.203125 224.0625 L 240.796875 224.0625 L 240.796875 158.109375 L 191.882812 190.558594 C 189.226562 192.320312 185.777344 192.320312 183.121094 190.558594 " fill-opacity="1" fill-rule="nonzero"/><path fill="#00f3f7" d="M 318.039062 295.335938 C 308.859375 295.335938 300.585938 300.867188 297.074219 309.34375 C 293.5625 317.828125 295.5 327.589844 301.992188 334.082031 C 308.484375 340.570312 318.242188 342.511719 326.722656 339 C 335.203125 335.488281 340.730469 327.210938 340.730469 318.03125 C 340.71875 305.503906 330.566406 295.355469 318.039062 295.335938 " fill-opacity="1" fill-rule="nonzero"/></svg>