<svg xmlns="http://www.w3.org/2000/svg" xmlns:xlink="http://www.w3.org/1999/xlink" width="500" zoomAndPan="magnify" viewBox="0 0 375 374.999991" height="500" preserveAspectRatio="xMidYMid meet" version="1.0"><defs><clipPath id="9119e8f90a"><path d="M 90 85 L 366.832031 85 L 366.832031 361.484375 L 90 361.484375 Z M 90 85 " clip-rule="nonzero"/></clipPath></defs><g clip-path="url(#9119e8f90a)"><path fill="#00f3f7" d="M 344.882812 196.421875 C 344.46875 196.273438 344.113281 196.035156 343.820312 195.707031 C 343.523438 195.378906 343.324219 195 343.222656 194.570312 C 340.277344 182.417969 335.53125 171.019531 328.976562 160.367188 C 328.738281 159.984375 328.609375 159.566406 328.589844 159.117188 C 328.566406 158.664062 328.65625 158.238281 328.855469 157.832031 L 338.605469 138.035156 L 311.105469 111.277344 L 291.550781 120.808594 C 291.148438 121.003906 290.726562 121.09375 290.28125 121.070312 C 289.832031 121.050781 289.421875 120.925781 289.039062 120.695312 C 278.75 114.464844 267.769531 109.90625 256.09375 107.019531 C 255.652344 106.910156 255.265625 106.699219 254.933594 106.390625 C 254.601562 106.082031 254.367188 105.714844 254.226562 105.28125 L 247.859375 85.667969 L 209.488281 85.667969 L 202.578125 104.847656 C 202.429688 105.269531 202.1875 105.625 201.851562 105.921875 C 201.519531 106.21875 201.132812 106.417969 200.699219 106.515625 C 188.101562 109.375 176.292969 114.167969 165.265625 120.890625 C 164.871094 121.128906 164.445312 121.257812 163.988281 121.273438 C 163.53125 121.292969 163.097656 121.195312 162.6875 120.980469 L 145.4375 112.058594 L 118.144531 139.027344 L 126.425781 156.90625 C 126.613281 157.308594 126.691406 157.734375 126.664062 158.175781 C 126.636719 158.621094 126.503906 159.03125 126.265625 159.40625 C 119.015625 170.925781 113.902344 183.324219 110.929688 196.605469 C 110.828125 197.058594 110.621094 197.457031 110.308594 197.800781 C 109.996094 198.140625 109.621094 198.386719 109.179688 198.527344 L 90.894531 204.46875 L 90.894531 242.839844 L 109.851562 249.660156 C 110.265625 249.808594 110.617188 250.046875 110.910156 250.375 C 111.203125 250.699219 111.40625 251.074219 111.511719 251.503906 C 114.773438 264.730469 120.164062 277.03125 127.679688 288.398438 C 127.933594 288.789062 128.078125 289.214844 128.105469 289.679688 C 128.132812 290.144531 128.046875 290.585938 127.839844 291.003906 L 118.945312 309.0625 L 146.445312 335.824219 L 165.828125 326.375 C 166.21875 326.1875 166.628906 326.097656 167.0625 326.113281 C 167.496094 326.125 167.898438 326.242188 168.277344 326.457031 C 178.585938 332.34375 189.53125 336.585938 201.117188 339.179688 C 201.570312 339.28125 201.964844 339.488281 202.308594 339.800781 C 202.652344 340.113281 202.894531 340.488281 203.039062 340.929688 L 209.691406 361.429688 L 248.066406 361.429688 L 255.835938 339.847656 C 255.984375 339.441406 256.214844 339.09375 256.535156 338.800781 C 256.851562 338.511719 257.21875 338.308594 257.640625 338.203125 C 268.878906 335.257812 279.460938 330.753906 289.378906 324.699219 C 289.769531 324.460938 290.195312 324.335938 290.652344 324.316406 C 291.109375 324.300781 291.542969 324.398438 291.949219 324.609375 L 312.113281 335.042969 L 339.410156 308.074219 L 329.480469 286.640625 C 329.300781 286.246094 329.21875 285.832031 329.242188 285.398438 C 329.265625 284.964844 329.390625 284.5625 329.613281 284.1875 C 335.746094 273.996094 340.238281 263.128906 343.09375 251.582031 C 343.203125 251.144531 343.414062 250.757812 343.722656 250.425781 C 344.03125 250.09375 344.402344 249.859375 344.832031 249.71875 L 366.65625 242.632812 L 366.65625 204.257812 Z M 298.40625 293.183594 C 297.078125 294.515625 295.710938 295.8125 294.304688 297.066406 C 292.898438 298.320312 291.460938 299.53125 289.984375 300.703125 C 288.511719 301.875 287.003906 303.003906 285.464844 304.089844 C 283.925781 305.175781 282.355469 306.214844 280.757812 307.210938 C 279.15625 308.207031 277.53125 309.15625 275.878906 310.058594 C 274.226562 310.960938 272.546875 311.8125 270.84375 312.621094 C 269.144531 313.425781 267.417969 314.183594 265.671875 314.890625 C 263.929688 315.597656 262.164062 316.253906 260.378906 316.859375 C 258.597656 317.46875 256.796875 318.023438 254.984375 318.523438 C 253.167969 319.027344 251.339844 319.480469 249.5 319.878906 C 247.660156 320.277344 245.808594 320.621094 243.945312 320.914062 C 242.085938 321.207031 240.21875 321.445312 238.34375 321.632812 C 236.46875 321.816406 234.59375 321.949219 232.710938 322.027344 C 230.828125 322.105469 228.945312 322.128906 227.0625 322.097656 C 225.179688 322.066406 223.300781 321.984375 221.421875 321.847656 C 219.542969 321.707031 217.667969 321.515625 215.800781 321.273438 C 213.933594 321.027344 212.074219 320.726562 210.226562 320.375 C 208.375 320.023438 206.535156 319.621094 204.707031 319.164062 C 202.882812 318.707031 201.070312 318.199219 199.269531 317.636719 C 197.472656 317.078125 195.691406 316.464844 193.929688 315.800781 C 192.167969 315.140625 190.425781 314.425781 188.703125 313.664062 C 186.980469 312.902344 185.28125 312.089844 183.605469 311.230469 C 181.929688 310.371094 180.28125 309.460938 178.65625 308.507812 C 177.03125 307.554688 175.4375 306.554688 173.871094 305.507812 C 172.304688 304.460938 170.769531 303.371094 169.265625 302.238281 C 167.761719 301.101562 166.292969 299.925781 164.855469 298.710938 C 163.417969 297.492188 162.019531 296.234375 160.652344 294.933594 C 159.289062 293.636719 157.964844 292.300781 156.675781 290.925781 C 155.386719 289.550781 154.140625 288.140625 152.933594 286.695312 C 151.726562 285.25 150.5625 283.769531 149.4375 282.257812 C 148.316406 280.746094 147.238281 279.203125 146.203125 277.628906 C 145.171875 276.054688 144.183594 274.449219 143.242188 272.820312 C 142.300781 271.1875 141.402344 269.53125 140.558594 267.851562 C 139.710938 266.167969 138.910156 264.460938 138.164062 262.734375 C 137.414062 261.007812 136.714844 259.257812 136.0625 257.492188 C 135.414062 255.722656 134.816406 253.9375 134.269531 252.136719 C 133.722656 250.332031 133.226562 248.515625 132.785156 246.6875 C 132.34375 244.855469 131.953125 243.011719 131.613281 241.160156 C 131.277344 239.308594 130.992188 237.445312 130.761719 235.578125 C 130.53125 233.707031 130.355469 231.832031 130.230469 229.953125 C 130.109375 228.074219 130.039062 226.195312 130.023438 224.308594 C 130.007812 222.425781 130.046875 220.542969 130.136719 218.664062 C 130.230469 216.78125 130.375 214.90625 130.574219 213.03125 C 130.777344 211.160156 131.027344 209.292969 131.335938 207.433594 C 131.640625 205.578125 132.003906 203.730469 132.414062 201.890625 C 132.828125 200.054688 133.292969 198.230469 133.808594 196.417969 C 134.328125 194.605469 134.894531 192.8125 135.515625 191.035156 C 136.136719 189.253906 136.804688 187.496094 137.527344 185.757812 C 138.246094 184.015625 139.015625 182.296875 139.835938 180.601562 C 140.65625 178.90625 141.523438 177.234375 142.4375 175.589844 C 143.351562 173.941406 144.3125 172.324219 145.320312 170.734375 C 146.328125 169.140625 147.382812 167.582031 148.480469 166.050781 C 149.574219 164.519531 150.714844 163.019531 151.898438 161.554688 C 153.082031 160.089844 154.304688 158.660156 155.570312 157.261719 C 156.835938 155.867188 158.140625 154.507812 159.484375 153.1875 C 160.824219 151.867188 162.203125 150.585938 163.621094 149.34375 C 165.039062 148.105469 166.488281 146.902344 167.972656 145.746094 C 169.457031 144.585938 170.972656 143.472656 172.523438 142.398438 C 174.070312 141.328125 175.652344 140.300781 177.257812 139.320312 C 178.867188 138.339844 180.5 137.40625 182.160156 136.515625 C 183.824219 135.628906 185.507812 134.789062 187.21875 134 C 188.925781 133.207031 190.65625 132.464844 192.410156 131.773438 C 194.160156 131.082031 195.929688 130.441406 197.71875 129.851562 C 199.507812 129.261719 201.3125 128.722656 203.132812 128.234375 C 204.949219 127.746094 206.78125 127.3125 208.625 126.929688 C 210.472656 126.546875 212.324219 126.21875 214.1875 125.945312 C 216.050781 125.667969 217.921875 125.445312 219.796875 125.277344 C 221.671875 125.109375 223.550781 124.992188 225.433594 124.933594 C 227.316406 124.871094 229.199219 124.863281 231.082031 124.910156 C 232.964844 124.957031 234.84375 125.058594 236.722656 125.210938 C 238.597656 125.367188 240.46875 125.574219 242.335938 125.835938 C 244.199219 126.097656 246.054688 126.414062 247.902344 126.78125 C 249.75 127.148438 251.585938 127.570312 253.410156 128.042969 C 255.230469 128.515625 257.039062 129.039062 258.832031 129.617188 C 260.625 130.195312 262.402344 130.820312 264.15625 131.5 C 265.914062 132.179688 267.652344 132.90625 269.367188 133.683594 C 271.082031 134.460938 272.773438 135.289062 274.441406 136.164062 C 276.109375 137.039062 277.75 137.960938 279.367188 138.929688 C 280.980469 139.898438 282.566406 140.914062 284.125 141.972656 C 285.679688 143.03125 287.207031 144.136719 288.699219 145.285156 C 290.195312 146.429688 291.652344 147.621094 293.078125 148.851562 C 294.503906 150.082031 295.894531 151.351562 297.246094 152.664062 C 298.601562 153.972656 299.914062 155.320312 301.191406 156.707031 C 302.464844 158.09375 303.699219 159.511719 304.894531 160.96875 C 306.089844 162.425781 307.238281 163.914062 308.347656 165.4375 C 309.457031 166.960938 310.523438 168.511719 311.542969 170.097656 C 312.5625 171.679688 313.535156 173.292969 314.460938 174.929688 C 315.390625 176.570312 316.269531 178.234375 317.101562 179.925781 C 317.933594 181.613281 318.71875 183.324219 319.453125 185.0625 C 320.1875 186.796875 320.871094 188.550781 321.503906 190.324219 C 322.136719 192.097656 322.71875 193.886719 323.25 195.695312 C 323.78125 197.5 324.257812 199.320312 324.6875 201.15625 C 325.113281 202.992188 325.488281 204.835938 325.808594 206.691406 C 326.128906 208.546875 326.394531 210.410156 326.609375 212.28125 C 326.824219 214.152344 326.984375 216.03125 327.089844 217.910156 C 327.199219 219.789062 327.25 221.671875 327.25 223.554688 C 327.257812 226.78125 327.109375 230 326.796875 233.210938 C 326.488281 236.421875 326.023438 239.613281 325.398438 242.777344 C 324.773438 245.941406 323.992188 249.070312 323.058594 252.15625 C 322.125 255.246094 321.039062 258.277344 319.804688 261.257812 C 318.570312 264.238281 317.191406 267.152344 315.667969 269.996094 C 314.144531 272.839844 312.484375 275.601562 310.6875 278.28125 C 308.894531 280.964844 306.96875 283.546875 304.917969 286.039062 C 302.867188 288.527344 300.695312 290.910156 298.40625 293.183594 Z M 298.40625 293.183594 " fill-opacity="1" fill-rule="nonzero"/></g><path fill="#00f3f7" d="M 236.613281 279.59375 L 222.777344 285.21875 L 206.277344 242.761719 C 210.367188 241.804688 214.449219 240.902344 218.515625 240.046875 C 219.453125 239.847656 220.390625 239.652344 221.328125 239.464844 C 221.789062 239.371094 222.246094 239.277344 222.710938 239.1875 C 223.582031 239.011719 224.449219 238.839844 225.3125 238.667969 C 225.519531 238.628906 225.726562 238.585938 225.929688 238.550781 Z M 236.613281 279.59375 " fill-opacity="1" fill-rule="nonzero"/><path fill="#00f3f7" d="M 262.742188 227.738281 C 252.007812 228.773438 240.15625 230.515625 227.453125 232.914062 C 227.421875 232.914062 227.394531 232.917969 227.363281 232.925781 C 226.34375 233.117188 225.328125 233.316406 224.300781 233.515625 C 221.164062 234.132812 217.992188 234.785156 214.8125 235.464844 C 213.757812 235.695312 212.703125 235.921875 211.644531 236.15625 C 210.417969 236.425781 209.1875 236.703125 207.953125 236.984375 C 206.148438 237.394531 204.339844 237.816406 202.53125 238.246094 C 202.511719 238.253906 202.472656 238.261719 202.449219 238.269531 C 202.417969 238.277344 202.386719 238.285156 202.355469 238.289062 C 202.269531 238.3125 202.179688 238.332031 202.09375 238.355469 C 198.160156 239.304688 194.515625 240.21875 191.265625 241.066406 C 190.140625 241.359375 189 241.488281 187.84375 241.460938 C 186.636719 241.433594 185.457031 241.238281 184.304688 240.875 C 183.152344 240.511719 182.074219 239.992188 181.074219 239.316406 C 180.074219 238.640625 179.1875 237.839844 178.414062 236.910156 C 177.644531 235.980469 177.019531 234.960938 176.542969 233.851562 C 176.527344 233.8125 176.5 233.75 176.476562 233.707031 C 176.453125 233.636719 176.429688 233.566406 176.398438 233.5 C 176.085938 232.789062 175.847656 232.058594 175.671875 231.300781 C 175.5 230.546875 175.394531 229.78125 175.363281 229.007812 C 175.332031 228.234375 175.375 227.464844 175.484375 226.699219 C 175.597656 225.929688 175.777344 225.179688 176.03125 224.449219 C 176.28125 223.714844 176.597656 223.011719 176.980469 222.339844 C 177.363281 221.664062 177.800781 221.03125 178.300781 220.441406 C 178.800781 219.847656 179.351562 219.308594 179.953125 218.816406 C 180.550781 218.328125 181.191406 217.898438 181.875 217.527344 C 184.226562 216.25 186.679688 214.835938 189.160156 213.328125 C 194.152344 210.285156 199.378906 206.761719 204.691406 202.859375 C 218.378906 192.816406 230.328125 182.011719 238.640625 173.957031 Z M 262.742188 227.738281 " fill-opacity="1" fill-rule="nonzero"/><path fill="#00f3f7" d="M 281.082031 224.757812 C 281.078125 224.757812 281.078125 224.757812 281.074219 224.757812 L 273.117188 228.769531 L 271.214844 229.707031 C 270.804688 229.914062 270.382812 229.941406 269.953125 229.789062 C 269.527344 229.636719 269.222656 229.355469 269.039062 228.945312 L 242.035156 168.695312 C 242.015625 168.636719 242 168.582031 241.976562 168.523438 C 241.890625 168.289062 241.847656 168.046875 241.851562 167.796875 C 241.859375 167.546875 241.910156 167.308594 242.003906 167.078125 C 242.101562 166.847656 242.238281 166.640625 242.414062 166.464844 C 242.589844 166.285156 242.792969 166.144531 243.019531 166.042969 L 253.8125 161.242188 C 254.320312 161.015625 254.832031 161.003906 255.351562 161.207031 C 255.855469 161.40625 256.214844 161.757812 256.421875 162.261719 L 282.015625 222.222656 C 282.113281 222.453125 282.167969 222.695312 282.171875 222.945312 C 282.179688 223.195312 282.140625 223.441406 282.050781 223.675781 C 281.964844 223.910156 281.835938 224.121094 281.671875 224.308594 C 281.503906 224.496094 281.304688 224.644531 281.082031 224.757812 Z M 281.082031 224.757812 " fill-opacity="1" fill-rule="nonzero"/><path fill="#00f3f7" d="M 108.320312 311.5 C 108.164062 311.785156 107.980469 312.054688 107.773438 312.304688 C 107.5625 312.554688 107.332031 312.785156 107.078125 312.988281 C 106.824219 313.195312 106.554688 313.375 106.265625 313.527344 C 105.976562 313.679688 105.675781 313.800781 105.363281 313.894531 C 105.050781 313.988281 104.730469 314.046875 104.40625 314.078125 C 104.082031 314.109375 103.757812 314.109375 103.433594 314.074219 C 103.109375 314.039062 102.789062 313.976562 102.476562 313.878906 C 102.164062 313.785156 101.867188 313.660156 101.578125 313.503906 C 93.429688 309.082031 85.734375 303.976562 78.488281 298.191406 C 81.367188 296.300781 83.5625 293.808594 85.070312 290.710938 C 91.753906 296.003906 98.839844 300.6875 106.328125 304.757812 C 106.617188 304.914062 106.886719 305.09375 107.136719 305.304688 C 107.386719 305.511719 107.617188 305.742188 107.824219 305.996094 C 108.027344 306.25 108.207031 306.519531 108.359375 306.808594 C 108.511719 307.097656 108.632812 307.402344 108.726562 307.714844 C 108.820312 308.027344 108.878906 308.347656 108.910156 308.671875 C 108.9375 308.996094 108.933594 309.320312 108.898438 309.648438 C 108.867188 309.972656 108.800781 310.289062 108.699219 310.601562 C 108.601562 310.914062 108.476562 311.210938 108.320312 311.5 Z M 108.320312 311.5 " fill-opacity="1" fill-rule="nonzero"/><path fill="#00f3f7" d="M 29.0625 174.925781 C 29.058594 183.085938 29.726562 191.1875 31.066406 199.234375 C 32.410156 207.28125 34.402344 215.164062 37.054688 222.878906 C 39.703125 230.597656 42.96875 238.042969 46.855469 245.214844 C 50.738281 252.390625 55.191406 259.191406 60.203125 265.628906 C 57.085938 267.105469 54.566406 269.277344 52.640625 272.140625 C 50.308594 269.167969 48.089844 266.113281 45.980469 262.980469 C 43.871094 259.847656 41.875 256.640625 39.996094 253.363281 C 38.117188 250.085938 36.355469 246.746094 34.714844 243.34375 C 33.078125 239.941406 31.5625 236.480469 30.171875 232.96875 C 28.78125 229.457031 27.519531 225.898438 26.382812 222.296875 C 25.25 218.691406 24.246094 215.050781 23.375 211.375 C 22.5 207.699219 21.761719 204 21.15625 200.269531 C 20.546875 196.542969 20.078125 192.796875 19.738281 189.03125 C 19.402344 185.269531 19.203125 181.5 19.136719 177.722656 C 19.070312 173.945312 19.140625 170.171875 19.347656 166.398438 C 19.554688 162.625 19.894531 158.867188 20.371094 155.121094 C 20.847656 151.371094 21.457031 147.644531 22.203125 143.941406 C 22.945312 140.238281 23.824219 136.566406 24.832031 132.925781 C 25.839844 129.285156 26.976562 125.683594 28.246094 122.125 C 29.515625 118.566406 30.90625 115.058594 32.429688 111.601562 C 33.949219 108.140625 35.589844 104.742188 37.355469 101.402344 L 48.714844 101.402344 C 45.503906 106.96875 42.667969 112.71875 40.214844 118.652344 C 37.757812 124.589844 35.699219 130.660156 34.039062 136.867188 C 32.378906 143.074219 31.132812 149.363281 30.300781 155.734375 C 29.46875 162.105469 29.054688 168.503906 29.0625 174.925781 Z M 29.0625 174.925781 " fill-opacity="1" fill-rule="nonzero"/><path fill="#00f3f7" d="M 236.554688 29.144531 C 234.320312 31.820312 232.941406 34.878906 232.417969 38.328125 C 228.394531 36.675781 224.304688 35.199219 220.148438 33.910156 C 215.992188 32.617188 211.789062 31.515625 207.535156 30.597656 C 203.28125 29.679688 198.996094 28.953125 194.679688 28.414062 C 190.359375 27.878906 186.027344 27.535156 181.679688 27.382812 C 177.332031 27.234375 172.984375 27.273438 168.636719 27.507812 C 164.292969 27.746094 159.96875 28.171875 155.660156 28.792969 C 151.355469 29.410156 147.082031 30.21875 142.847656 31.21875 C 138.613281 32.21875 134.429688 33.402344 130.300781 34.773438 L 130.300781 24.308594 C 134.625 22.980469 138.996094 21.839844 143.417969 20.886719 C 147.839844 19.933594 152.292969 19.171875 156.78125 18.601562 C 161.269531 18.03125 165.773438 17.652344 170.289062 17.472656 C 174.808594 17.289062 179.328125 17.300781 183.847656 17.503906 C 188.367188 17.710938 192.867188 18.109375 197.351562 18.703125 C 201.835938 19.292969 206.285156 20.078125 210.703125 21.054688 C 215.121094 22.027344 219.488281 23.191406 223.804688 24.542969 C 228.121094 25.894531 232.371094 27.425781 236.554688 29.144531 Z M 236.554688 29.144531 " fill-opacity="1" fill-rule="nonzero"/><path fill="#00f3f7" d="M 310.292969 100.933594 C 310.015625 101.101562 309.71875 101.238281 309.410156 101.347656 C 309.105469 101.457031 308.789062 101.539062 308.464844 101.585938 C 308.140625 101.632812 307.816406 101.648438 307.492188 101.632812 C 307.164062 101.613281 306.84375 101.566406 306.527344 101.488281 C 306.207031 101.40625 305.902344 101.296875 305.605469 101.15625 C 305.3125 101.015625 305.035156 100.847656 304.769531 100.652344 C 304.507812 100.457031 304.269531 100.238281 304.050781 99.996094 C 303.832031 99.753906 303.636719 99.492188 303.46875 99.214844 C 298.308594 90.605469 292.328125 82.609375 285.535156 75.226562 C 278.738281 67.839844 271.265625 61.21875 263.117188 55.363281 C 265.761719 53.089844 267.628906 50.300781 268.71875 46.988281 C 277.457031 53.289062 285.472656 60.402344 292.761719 68.335938 C 300.050781 76.269531 306.460938 84.855469 312 94.09375 C 312.167969 94.375 312.308594 94.667969 312.417969 94.976562 C 312.53125 95.285156 312.609375 95.601562 312.660156 95.925781 C 312.707031 96.25 312.722656 96.574219 312.707031 96.902344 C 312.691406 97.226562 312.644531 97.550781 312.566406 97.867188 C 312.484375 98.183594 312.375 98.492188 312.238281 98.789062 C 312.097656 99.085938 311.929688 99.363281 311.734375 99.625 C 311.539062 99.890625 311.320312 100.132812 311.078125 100.351562 C 310.835938 100.570312 310.574219 100.765625 310.292969 100.933594 Z M 310.292969 100.933594 " fill-opacity="1" fill-rule="nonzero"/><path fill="#00f3f7" d="M 84.308594 282.546875 C 84.316406 285.007812 83.78125 287.347656 82.710938 289.5625 C 81.410156 292.230469 79.523438 294.375 77.042969 296 C 76.273438 296.503906 75.464844 296.941406 74.621094 297.304688 C 73.773438 297.671875 72.90625 297.960938 72.011719 298.179688 C 71.113281 298.394531 70.207031 298.535156 69.289062 298.59375 C 68.371094 298.65625 67.453125 298.636719 66.539062 298.542969 C 65.625 298.445312 64.722656 298.273438 63.835938 298.019531 C 62.949219 297.769531 62.09375 297.445312 61.261719 297.046875 C 60.433594 296.652344 59.644531 296.183594 58.890625 295.652344 C 58.140625 295.117188 57.441406 294.523438 56.792969 293.871094 C 56.144531 293.21875 55.558594 292.515625 55.03125 291.761719 C 54.5 291.003906 54.042969 290.210938 53.648438 289.378906 C 53.257812 288.546875 52.941406 287.6875 52.695312 286.796875 C 52.453125 285.910156 52.285156 285.007812 52.195312 284.09375 C 52.105469 283.175781 52.09375 282.257812 52.164062 281.339844 C 52.230469 280.421875 52.375 279.515625 52.597656 278.625 C 52.820312 277.730469 53.121094 276.863281 53.492188 276.019531 C 53.863281 275.179688 54.304688 274.375 54.8125 273.609375 C 56.472656 271.140625 58.648438 269.269531 61.339844 267.996094 C 63.507812 266.953125 65.800781 266.4375 68.207031 266.445312 C 68.734375 266.445312 69.261719 266.472656 69.785156 266.523438 C 70.308594 266.578125 70.832031 266.652344 71.347656 266.757812 C 71.863281 266.859375 72.375 266.988281 72.878906 267.140625 C 73.382812 267.296875 73.878906 267.472656 74.367188 267.675781 C 74.855469 267.878906 75.332031 268.101562 75.796875 268.351562 C 76.261719 268.601562 76.710938 268.871094 77.148438 269.164062 C 77.589844 269.457031 78.011719 269.769531 78.417969 270.105469 C 78.824219 270.441406 79.214844 270.792969 79.589844 271.164062 C 79.960938 271.539062 80.316406 271.929688 80.648438 272.335938 C 80.984375 272.742188 81.296875 273.167969 81.589844 273.605469 C 81.882812 274.042969 82.15625 274.496094 82.402344 274.960938 C 82.652344 275.425781 82.878906 275.902344 83.078125 276.386719 C 83.28125 276.875 83.460938 277.371094 83.613281 277.875 C 83.765625 278.378906 83.894531 278.890625 83.996094 279.40625 C 84.101562 279.925781 84.179688 280.445312 84.230469 280.96875 C 84.28125 281.496094 84.308594 282.019531 84.308594 282.546875 Z M 84.308594 282.546875 " fill-opacity="1" fill-rule="nonzero"/><path fill="#00f3f7" d="M 267.019531 41.15625 C 267.019531 41.683594 266.992188 42.210938 266.941406 42.734375 C 266.890625 43.257812 266.8125 43.78125 266.710938 44.296875 C 266.605469 44.8125 266.480469 45.324219 266.328125 45.828125 C 266.171875 46.335938 265.996094 46.828125 265.792969 47.316406 C 265.59375 47.804688 265.367188 48.28125 265.117188 48.746094 C 264.871094 49.210938 264.601562 49.660156 264.308594 50.097656 C 264.015625 50.539062 263.699219 50.960938 263.367188 51.367188 C 263.03125 51.777344 262.679688 52.164062 262.304688 52.539062 C 261.933594 52.910156 261.542969 53.265625 261.136719 53.597656 C 260.726562 53.933594 260.304688 54.246094 259.867188 54.539062 C 259.429688 54.832031 258.976562 55.101562 258.511719 55.351562 C 258.046875 55.601562 257.570312 55.824219 257.082031 56.027344 C 256.597656 56.230469 256.101562 56.40625 255.597656 56.558594 C 255.09375 56.710938 254.582031 56.839844 254.0625 56.941406 C 253.546875 57.046875 253.027344 57.125 252.503906 57.175781 C 251.976562 57.226562 251.453125 57.253906 250.925781 57.253906 C 250.398438 57.253906 249.871094 57.226562 249.347656 57.175781 C 248.820312 57.125 248.300781 57.046875 247.785156 56.941406 C 247.265625 56.839844 246.757812 56.710938 246.253906 56.558594 C 245.746094 56.40625 245.253906 56.230469 244.765625 56.027344 C 244.277344 55.824219 243.800781 55.601562 243.335938 55.351562 C 242.871094 55.101562 242.421875 54.832031 241.980469 54.539062 C 241.542969 54.246094 241.121094 53.933594 240.714844 53.597656 C 240.304688 53.265625 239.917969 52.910156 239.542969 52.539062 C 239.171875 52.164062 238.816406 51.777344 238.484375 51.367188 C 238.148438 50.960938 237.835938 50.539062 237.542969 50.097656 C 237.25 49.660156 236.976562 49.210938 236.730469 48.746094 C 236.480469 48.28125 236.257812 47.804688 236.054688 47.316406 C 235.851562 46.828125 235.675781 46.335938 235.523438 45.828125 C 235.371094 45.324219 235.242188 44.8125 235.136719 44.296875 C 235.035156 43.78125 234.957031 43.257812 234.90625 42.734375 C 234.855469 42.210938 234.828125 41.683594 234.828125 41.15625 C 234.828125 40.339844 234.890625 39.527344 235.015625 38.722656 C 235.167969 37.726562 235.410156 36.757812 235.746094 35.808594 C 236.078125 34.859375 236.496094 33.953125 237.003906 33.082031 C 237.507812 32.210938 238.085938 31.398438 238.746094 30.636719 C 239.402344 29.875 240.125 29.183594 240.910156 28.558594 C 241.699219 27.933594 242.535156 27.386719 243.425781 26.917969 C 244.316406 26.449219 245.242188 26.066406 246.203125 25.773438 C 247.164062 25.476562 248.144531 25.273438 249.144531 25.164062 C 250.140625 25.050781 251.144531 25.035156 252.144531 25.109375 C 253.148438 25.1875 254.132812 25.355469 255.105469 25.617188 C 256.078125 25.878906 257.015625 26.226562 257.921875 26.664062 C 258.824219 27.101562 259.683594 27.617188 260.492188 28.214844 C 261.300781 28.8125 262.046875 29.480469 262.730469 30.21875 C 263.414062 30.953125 264.019531 31.75 264.554688 32.601562 C 265.089844 33.453125 265.542969 34.347656 265.910156 35.28125 C 266.273438 36.21875 266.550781 37.179688 266.738281 38.167969 C 266.925781 39.15625 267.019531 40.152344 267.019531 41.15625 Z M 267.019531 41.15625 " fill-opacity="1" fill-rule="nonzero"/><path fill="#00f3f7" d="M 127.675781 23.402344 L 127.675781 94.476562 C 127.675781 94.761719 127.644531 95.039062 127.589844 95.316406 C 127.535156 95.59375 127.453125 95.863281 127.34375 96.125 C 127.234375 96.386719 127.101562 96.632812 126.945312 96.867188 C 126.785156 97.101562 126.609375 97.320312 126.40625 97.519531 C 126.207031 97.71875 125.988281 97.898438 125.753906 98.054688 C 125.519531 98.210938 125.269531 98.34375 125.007812 98.453125 C 124.746094 98.558594 124.476562 98.640625 124.199219 98.695312 C 123.921875 98.75 123.644531 98.777344 123.359375 98.777344 L 26.332031 98.777344 C 26.050781 98.777344 25.769531 98.75 25.492188 98.695312 C 25.214844 98.640625 24.945312 98.558594 24.683594 98.453125 C 24.421875 98.34375 24.175781 98.210938 23.9375 98.054688 C 23.703125 97.898438 23.484375 97.71875 23.285156 97.519531 C 23.085938 97.320312 22.90625 97.101562 22.75 96.867188 C 22.589844 96.632812 22.457031 96.386719 22.351562 96.125 C 22.242188 95.863281 22.160156 95.59375 22.101562 95.316406 C 22.046875 95.039062 22.019531 94.761719 22.019531 94.476562 L 22.019531 21.453125 L 26.8125 27.480469 L 57.136719 65.597656 C 57.886719 66.546875 58.734375 67.402344 59.679688 68.160156 C 60.625 68.917969 61.640625 69.5625 62.734375 70.089844 C 63.824219 70.613281 64.960938 71.011719 66.140625 71.28125 C 67.320312 71.550781 68.519531 71.683594 69.730469 71.679688 L 78.859375 71.679688 C 80.015625 71.679688 81.164062 71.558594 82.296875 71.308594 C 83.429688 71.0625 84.519531 70.695312 85.574219 70.214844 C 86.628906 69.730469 87.617188 69.136719 88.539062 68.4375 C 89.464844 67.738281 90.304688 66.949219 91.058594 66.070312 Z M 127.675781 23.402344 " fill-opacity="1" fill-rule="nonzero"/><path fill="#00f3f7" d="M 126.265625 16.988281 L 87.074219 62.65625 C 86.046875 63.855469 84.816406 64.785156 83.378906 65.445312 C 81.945312 66.105469 80.4375 66.433594 78.859375 66.429688 L 69.730469 66.429688 C 68.914062 66.433594 68.109375 66.34375 67.3125 66.164062 C 66.515625 65.984375 65.75 65.714844 65.015625 65.359375 C 64.28125 65.003906 63.597656 64.570312 62.960938 64.0625 C 62.324219 63.550781 61.753906 62.972656 61.246094 62.332031 L 24.578125 16.238281 C 24.859375 16.117188 25.152344 16.023438 25.449219 15.960938 C 25.511719 15.949219 25.578125 15.9375 25.640625 15.925781 C 25.867188 15.886719 26.101562 15.871094 26.332031 15.871094 L 123.359375 15.871094 C 123.464844 15.871094 123.566406 15.875 123.667969 15.882812 L 123.675781 15.882812 C 123.777344 15.886719 123.875 15.898438 123.976562 15.914062 C 124.070312 15.925781 124.164062 15.945312 124.261719 15.960938 C 124.273438 15.964844 124.285156 15.96875 124.296875 15.96875 C 124.476562 16.003906 124.648438 16.054688 124.820312 16.117188 C 124.84375 16.125 124.867188 16.132812 124.886719 16.140625 C 124.96875 16.171875 125.050781 16.207031 125.132812 16.242188 C 125.222656 16.28125 125.3125 16.324219 125.398438 16.371094 C 125.480469 16.417969 125.570312 16.464844 125.652344 16.519531 C 125.738281 16.570312 125.816406 16.625 125.898438 16.683594 C 125.976562 16.738281 126.046875 16.792969 126.121094 16.855469 L 126.132812 16.863281 C 126.152344 16.882812 126.175781 16.902344 126.199219 16.921875 C 126.21875 16.945312 126.242188 16.964844 126.265625 16.988281 Z M 126.265625 16.988281 " fill-opacity="1" fill-rule="nonzero"/></svg>