<svg xmlns="http://www.w3.org/2000/svg" xmlns:xlink="http://www.w3.org/1999/xlink" width="500" zoomAndPan="magnify" viewBox="0 0 375 374.999991" height="500" preserveAspectRatio="xMidYMid meet" version="1.0"><defs><clipPath id="24f2aa7e42"><path d="M 23 331 L 164 331 L 164 368.910156 L 23 368.910156 Z M 23 331 " clip-rule="nonzero"/></clipPath><clipPath id="71318154ba"><path d="M 43 5.910156 L 257 5.910156 L 257 219 L 43 219 Z M 43 5.910156 " clip-rule="nonzero"/></clipPath><clipPath id="f3525c1032"><path d="M 293 93.574219 L 368.910156 93.574219 L 368.910156 131.140625 L 293 131.140625 Z M 293 93.574219 " clip-rule="nonzero"/></clipPath><clipPath id="18c2363124"><path d="M 170 331 L 302 331 L 302 368.910156 L 170 368.910156 Z M 170 331 " clip-rule="nonzero"/></clipPath></defs><path fill="#00f3f7" d="M 37.042969 293.945312 L 51.71875 293.945312 C 72.898438 293.945312 92.785156 285.703125 107.753906 270.734375 L 116.609375 279.585938 C 106.410156 289.8125 94.179688 297.222656 80.875 301.675781 L 80.875 319.800781 C 84.980469 319.261719 89.164062 318.992188 93.394531 318.992188 C 106.582031 318.992188 119.300781 321.609375 130.964844 326.527344 L 130.964844 296.464844 C 130.964844 273.375 137.765625 250.675781 150.191406 231.304688 C 150.042969 231.304688 149.898438 231.328125 149.75 231.328125 C 99.070312 231.328125 55.898438 199.582031 38.753906 154.917969 L 38.730469 154.941406 C 22 169.273438 10.527344 188.890625 6.222656 210.441406 L 18.257812 222.472656 L 18.257812 231.328125 L 68.351562 231.328125 L 68.351562 237.589844 C 68.351562 261.757812 48.683594 281.421875 24.519531 281.421875 L 19.40625 281.421875 C 22 288.6875 28.898438 293.945312 37.042969 293.945312 " fill-opacity="1" fill-rule="nonzero"/><g clip-path="url(#24f2aa7e42)"><path fill="#00f3f7" d="M 93.394531 331.515625 C 64.972656 331.515625 38.972656 345.53125 23.320312 369.085938 L 163.449219 369.085938 C 147.820312 345.507812 121.820312 331.515625 93.394531 331.515625 " fill-opacity="1" fill-rule="nonzero"/></g><path fill="#00f3f7" d="M 55.191406 243.851562 L 18.257812 243.851562 L 18.257812 268.898438 L 24.519531 268.898438 C 39.632812 268.898438 52.28125 258.136719 55.191406 243.851562 " fill-opacity="1" fill-rule="nonzero"/><g clip-path="url(#71318154ba)"><path fill="#00f3f7" d="M 149.75 24.695312 C 198.15625 24.695312 237.414062 63.953125 237.414062 112.359375 C 237.414062 136.230469 227.851562 157.851562 212.367188 173.652344 L 212.367188 173.703125 L 212.34375 173.726562 C 212.34375 173.675781 212.367188 173.652344 212.367188 173.652344 L 212.367188 124.878906 L 187.320312 124.878906 L 187.320312 191.484375 C 187.34375 191.460938 187.394531 191.433594 187.445312 191.507812 L 187.320312 191.582031 L 187.320312 191.484375 C 179.519531 195.175781 171.128906 197.769531 162.273438 199.019531 L 162.273438 199.140625 L 162.128906 199.140625 C 162.175781 199.042969 162.226562 199.042969 162.273438 199.019531 L 162.273438 74.789062 L 137.226562 74.789062 L 137.226562 199.019531 C 137.277344 199.042969 137.324219 199.042969 137.398438 199.140625 L 137.226562 199.140625 L 137.226562 199.019531 C 128.375 197.769531 119.960938 195.175781 112.179688 191.484375 L 112.179688 191.582031 L 112.058594 191.507812 C 112.109375 191.433594 112.132812 191.460938 112.179688 191.484375 L 112.179688 99.835938 L 87.136719 99.835938 L 87.136719 173.652344 C 87.136719 173.652344 87.160156 173.675781 87.160156 173.726562 L 87.136719 173.703125 L 87.136719 173.652344 C 71.652344 157.851562 62.089844 136.230469 62.089844 112.359375 C 62.089844 63.953125 101.347656 24.695312 149.75 24.695312 Z M 149.75 218.804688 C 208.453125 218.804688 256.199219 171.058594 256.199219 112.359375 C 256.199219 53.65625 208.453125 5.910156 149.75 5.910156 C 91.046875 5.910156 43.304688 53.65625 43.304688 112.359375 C 43.304688 171.058594 91.046875 218.804688 149.75 218.804688 " fill-opacity="1" fill-rule="nonzero"/></g><path fill="#00f3f7" d="M 281.246094 118.617188 L 281.246094 106.097656 L 268.40625 106.097656 C 268.527344 108.175781 268.722656 110.253906 268.722656 112.359375 C 268.722656 114.460938 268.527344 116.539062 268.40625 118.617188 L 281.246094 118.617188 " fill-opacity="1" fill-rule="nonzero"/><g clip-path="url(#f3525c1032)"><path fill="#00f3f7" d="M 362.648438 93.574219 L 293.769531 93.574219 L 293.769531 131.140625 L 362.648438 131.140625 C 366.097656 131.140625 368.910156 128.328125 368.910156 124.878906 L 368.910156 99.835938 C 368.910156 96.386719 366.097656 93.574219 362.648438 93.574219 " fill-opacity="1" fill-rule="nonzero"/></g><path fill="#00f3f7" d="M 296.777344 143.664062 L 293.769531 143.664062 C 286.871094 143.664062 281.246094 138.039062 281.246094 131.140625 L 267.082031 131.140625 C 259.257812 180.234375 221.417969 219.417969 172.914062 229.03125 C 186.292969 248.867188 193.582031 272.46875 193.582031 296.464844 L 193.582031 326.574219 C 205.324219 321.632812 218.066406 318.992188 231.152344 318.992188 C 235.382812 318.992188 239.566406 319.261719 243.675781 319.800781 L 243.675781 301.675781 C 230.371094 297.222656 218.140625 289.8125 207.941406 279.585938 L 216.796875 270.734375 C 231.765625 285.703125 251.675781 293.945312 272.832031 293.945312 L 287.507812 293.945312 C 295.652344 293.945312 302.550781 288.6875 305.144531 281.421875 L 300.03125 281.421875 C 275.863281 281.421875 256.199219 261.757812 256.199219 237.589844 L 256.199219 231.328125 L 306.292969 231.328125 L 306.292969 222.472656 L 318.472656 210.292969 L 316.492188 194.296875 C 314.191406 176.050781 307.367188 158.636719 296.777344 143.664062 " fill-opacity="1" fill-rule="nonzero"/><g clip-path="url(#18c2363124)"><path fill="#00f3f7" d="M 231.152344 331.515625 C 208.136719 331.515625 186.316406 340.859375 170.492188 357.34375 C 172.207031 359.621094 173.820312 361.96875 175.359375 364.414062 L 178.269531 369.085938 L 301.203125 369.085938 C 285.574219 345.507812 259.574219 331.515625 231.152344 331.515625 " fill-opacity="1" fill-rule="nonzero"/></g><path fill="#00f3f7" d="M 300.03125 268.898438 L 306.292969 268.898438 L 306.292969 243.851562 L 269.359375 243.851562 C 272.269531 258.136719 284.914062 268.898438 300.03125 268.898438 " fill-opacity="1" fill-rule="nonzero"/></svg>