<svg xmlns="http://www.w3.org/2000/svg" xmlns:xlink="http://www.w3.org/1999/xlink" width="500" zoomAndPan="magnify" viewBox="0 0 375 374.999991" height="500" preserveAspectRatio="xMidYMid meet" version="1.0"><defs><clipPath id="f83bcaa33a"><path d="M 22.152344 4.035156 L 352.902344 4.035156 L 352.902344 370.785156 L 22.152344 370.785156 Z M 22.152344 4.035156 " clip-rule="nonzero"/></clipPath></defs><g clip-path="url(#f83bcaa33a)"><path fill="#00f3f7" d="M 46.84375 28.496094 L 71.304688 28.496094 L 71.304688 34.613281 C 71.304688 37.980469 74.050781 40.726562 77.417969 40.726562 C 80.789062 40.726562 83.535156 37.980469 83.535156 34.613281 L 83.535156 28.496094 L 126.34375 28.496094 L 126.34375 34.613281 C 126.34375 37.980469 129.089844 40.726562 132.457031 40.726562 C 135.828125 40.726562 138.574219 37.980469 138.574219 34.613281 L 138.574219 28.496094 L 181.382812 28.496094 L 181.382812 34.613281 C 181.382812 37.980469 184.128906 40.726562 187.496094 40.726562 C 190.867188 40.726562 193.613281 37.980469 193.613281 34.613281 L 193.613281 28.496094 L 236.421875 28.496094 L 236.421875 34.613281 C 236.421875 37.980469 239.167969 40.726562 242.535156 40.726562 C 245.90625 40.726562 248.652344 37.980469 248.652344 34.613281 L 248.652344 28.496094 L 291.460938 28.496094 L 291.460938 34.613281 C 291.460938 37.980469 294.207031 40.726562 297.574219 40.726562 C 300.945312 40.726562 303.691406 37.980469 303.691406 34.613281 L 303.691406 28.496094 L 328.152344 28.496094 C 334.890625 28.496094 340.382812 33.992188 340.382812 40.726562 L 340.382812 52.957031 L 34.613281 52.957031 L 34.613281 40.726562 C 34.613281 33.992188 40.105469 28.496094 46.84375 28.496094 Z M 328.152344 242.535156 L 300.394531 242.535156 C 293.65625 235.058594 283.957031 230.304688 273.113281 230.304688 C 262.269531 230.304688 252.570312 235.058594 245.832031 242.535156 L 224.191406 242.535156 C 224.191406 222.304688 207.730469 205.84375 187.496094 205.84375 C 167.265625 205.84375 150.804688 222.304688 150.804688 242.535156 L 129.164062 242.535156 C 122.425781 235.058594 112.703125 230.304688 101.882812 230.304688 C 91.058594 230.304688 81.335938 235.058594 74.601562 242.535156 L 46.84375 242.535156 C 40.105469 242.535156 34.613281 237.042969 34.613281 230.304688 L 34.613281 65.1875 L 340.382812 65.1875 L 340.382812 230.304688 C 340.382812 237.042969 334.890625 242.535156 328.152344 242.535156 Z M 273.113281 291.460938 C 259.617188 291.460938 248.652344 280.496094 248.652344 267 C 248.652344 253.5 259.617188 242.535156 273.113281 242.535156 C 286.609375 242.535156 297.574219 253.5 297.574219 267 C 297.574219 280.496094 286.609375 291.460938 273.113281 291.460938 Z M 303.378906 316.183594 C 311.476562 324.332031 315.921875 335.105469 315.921875 346.5 L 315.921875 358.730469 L 242.535156 358.730469 L 242.535156 322.035156 C 242.535156 320.292969 242.441406 318.597656 242.273438 316.878906 C 250.347656 308.492188 261.433594 303.691406 273.113281 303.691406 C 284.507812 303.691406 295.28125 308.132812 303.378906 316.183594 Z M 59.074219 358.730469 L 59.074219 346.5 C 59.074219 322.898438 78.28125 303.691406 101.882812 303.691406 C 113.277344 303.691406 124.050781 308.132812 132.171875 316.207031 C 132.363281 316.398438 132.53125 316.613281 132.722656 316.804688 C 132.554688 318.527344 132.457031 320.269531 132.457031 322.035156 L 132.457031 358.730469 Z M 165.328125 271.703125 C 151.6875 277.722656 140.988281 289.144531 135.851562 303.214844 C 132.195312 300.371094 128.253906 298.003906 124.074219 296.164062 C 132.863281 289.453125 138.574219 278.894531 138.574219 267 C 138.574219 262.699219 137.785156 258.613281 136.425781 254.765625 L 152.953125 254.765625 C 155.34375 261.550781 159.691406 267.429688 165.328125 271.703125 Z M 187.496094 267 C 174 267 163.035156 256.035156 163.035156 242.535156 C 163.035156 229.039062 174 218.074219 187.496094 218.074219 C 200.996094 218.074219 211.960938 229.039062 211.960938 242.535156 C 211.960938 256.035156 200.996094 267 187.496094 267 Z M 144.691406 358.730469 L 144.691406 322.035156 C 144.691406 298.433594 163.894531 279.230469 187.496094 279.230469 C 211.097656 279.230469 230.304688 298.433594 230.304688 322.035156 L 230.328125 358.730469 Z M 250.945312 296.164062 C 246.742188 298.003906 242.800781 300.394531 239.167969 303.238281 C 234.007812 289.144531 223.304688 277.746094 209.664062 271.703125 C 215.304688 267.429688 219.652344 261.550781 222.0625 254.765625 L 238.546875 254.765625 C 237.210938 258.613281 236.421875 262.699219 236.421875 267 C 236.421875 278.894531 242.128906 289.453125 250.945312 296.164062 Z M 77.417969 267 C 77.417969 253.5 88.382812 242.535156 101.882812 242.535156 C 115.378906 242.535156 126.34375 253.5 126.34375 267 C 126.34375 280.496094 115.378906 291.460938 101.882812 291.460938 C 88.382812 291.460938 77.417969 280.496094 77.417969 267 Z M 46.84375 254.765625 L 67.339844 254.765625 C 65.976562 258.613281 65.1875 262.699219 65.1875 267 C 65.1875 278.894531 70.898438 289.453125 79.714844 296.164062 C 60.386719 304.71875 46.84375 324.042969 46.84375 346.5 L 46.84375 358.730469 C 46.84375 365.464844 52.335938 370.960938 59.074219 370.960938 L 315.921875 370.960938 C 322.65625 370.960938 328.152344 365.464844 328.152344 358.730469 L 328.152344 346.5 C 328.152344 331.855469 322.441406 318.023438 312.027344 307.535156 C 307.105469 302.664062 301.445312 298.867188 295.304688 296.164062 C 304.097656 289.453125 309.804688 278.894531 309.804688 267 C 309.804688 262.699219 309.019531 258.613281 307.679688 254.765625 L 328.152344 254.765625 C 341.648438 254.765625 352.613281 243.800781 352.613281 230.304688 L 352.613281 40.726562 C 352.613281 27.230469 341.648438 16.265625 328.152344 16.265625 L 303.691406 16.265625 L 303.691406 10.148438 C 303.691406 6.78125 300.945312 4.035156 297.574219 4.035156 C 294.207031 4.035156 291.460938 6.78125 291.460938 10.148438 L 291.460938 16.265625 L 248.652344 16.265625 L 248.652344 10.148438 C 248.652344 6.78125 245.90625 4.035156 242.535156 4.035156 C 239.167969 4.035156 236.421875 6.78125 236.421875 10.148438 L 236.421875 16.265625 L 193.613281 16.265625 L 193.613281 10.148438 C 193.613281 6.78125 190.867188 4.035156 187.496094 4.035156 C 184.128906 4.035156 181.382812 6.78125 181.382812 10.148438 L 181.382812 16.265625 L 138.574219 16.265625 L 138.574219 10.148438 C 138.574219 6.78125 135.828125 4.035156 132.457031 4.035156 C 129.089844 4.035156 126.34375 6.78125 126.34375 10.148438 L 126.34375 16.265625 L 83.535156 16.265625 L 83.535156 10.148438 C 83.535156 6.78125 80.789062 4.035156 77.417969 4.035156 C 74.050781 4.035156 71.304688 6.78125 71.304688 10.148438 L 71.304688 16.265625 L 46.84375 16.265625 C 33.347656 16.265625 22.382812 27.230469 22.382812 40.726562 L 22.382812 230.304688 C 22.382812 243.800781 33.347656 254.765625 46.84375 254.765625 " fill-opacity="1" fill-rule="nonzero"/></g><path fill="#00f3f7" d="M 229.828125 128.445312 L 215.304688 145.8125 C 214.324219 146.984375 213.796875 148.488281 213.894531 150.015625 L 214.824219 175.125 C 214.660156 175.242188 214.371094 175.363281 214.015625 175.242188 L 189.550781 166.476562 C 188.882812 166.238281 188.191406 166.117188 187.496094 166.117188 C 186.804688 166.117188 186.113281 166.238281 185.441406 166.476562 L 160.980469 175.242188 C 160.625 175.363281 160.359375 175.242188 159.953125 174.695312 L 161.101562 150.015625 C 161.195312 148.488281 160.671875 146.984375 159.691406 145.8125 L 145.167969 128.445312 C 144.59375 127.753906 144.640625 127.058594 144.785156 126.605469 C 144.90625 126.199219 145.285156 125.460938 146.335938 125.195312 L 168.960938 119.25 C 170.394531 118.867188 171.613281 118.007812 172.449219 116.8125 L 186.78125 96.101562 C 187.1875 95.527344 187.808594 95.527344 188.214844 96.101562 L 202.546875 116.8125 C 203.382812 118.007812 204.601562 118.867188 206.035156 119.25 L 228.65625 125.195312 C 229.707031 125.460938 230.089844 126.199219 230.210938 126.605469 C 230.351562 127.082031 230.402344 127.753906 229.828125 128.445312 Z M 231.761719 113.371094 L 211.3125 107.996094 L 198.269531 89.125 C 195.835938 85.613281 191.796875 83.511719 187.496094 83.511719 C 183.199219 83.511719 179.160156 85.613281 176.722656 89.125 L 163.679688 107.996094 L 143.230469 113.371094 C 138.40625 114.636719 134.632812 118.199219 133.128906 122.902344 C 131.648438 127.539062 132.648438 132.554688 135.777344 136.304688 L 148.773438 151.832031 L 147.722656 174.097656 C 147.53125 178.347656 149.46875 182.410156 152.90625 184.964844 C 156.417969 187.546875 160.980469 188.214844 165.113281 186.757812 L 187.496094 178.730469 L 209.882812 186.757812 C 211.339844 187.257812 212.84375 187.523438 214.324219 187.523438 C 217.070312 187.523438 219.792969 186.636719 222.089844 184.964844 C 225.527344 182.410156 227.460938 178.347656 227.273438 174.097656 L 226.21875 151.832031 L 239.214844 136.304688 C 242.34375 132.554688 243.347656 127.539062 241.867188 122.902344 C 240.363281 118.199219 236.589844 114.636719 231.761719 113.371094 " fill-opacity="1" fill-rule="nonzero"/></svg>