<svg xmlns="http://www.w3.org/2000/svg" xmlns:xlink="http://www.w3.org/1999/xlink" width="500" zoomAndPan="magnify" viewBox="0 0 375 374.999991" height="500" preserveAspectRatio="xMidYMid meet" version="1.0"><defs><clipPath id="e7fac5b62f"><path d="M 6.351562 55 L 290 55 L 290 298 L 6.351562 298 Z M 6.351562 55 " clip-rule="nonzero"/></clipPath><clipPath id="a4967ff922"><path d="M 6.351562 89 L 290 89 L 290 98 L 6.351562 98 Z M 6.351562 89 " clip-rule="nonzero"/></clipPath><clipPath id="364c7a9ca9"><path d="M 35 30.355469 L 68 30.355469 L 68 79 L 35 79 Z M 35 30.355469 " clip-rule="nonzero"/></clipPath><clipPath id="ef89928b50"><path d="M 83 30.355469 L 116 30.355469 L 116 79 L 83 79 Z M 83 30.355469 " clip-rule="nonzero"/></clipPath><clipPath id="2a0b8aec82"><path d="M 132 30.355469 L 164 30.355469 L 164 79 L 132 79 Z M 132 30.355469 " clip-rule="nonzero"/></clipPath><clipPath id="8e17c291e6"><path d="M 180 30.355469 L 213 30.355469 L 213 79 L 180 79 Z M 180 30.355469 " clip-rule="nonzero"/></clipPath><clipPath id="0e07e53b35"><path d="M 229 30.355469 L 261 30.355469 L 261 79 L 229 79 Z M 229 30.355469 " clip-rule="nonzero"/></clipPath><clipPath id="b2a0cb109e"><path d="M 20 240 L 111 240 L 111 344.605469 L 20 344.605469 Z M 20 240 " clip-rule="nonzero"/></clipPath><clipPath id="a95fd292c4"><path d="M 124 244 L 212 244 L 212 344.605469 L 124 344.605469 Z M 124 244 " clip-rule="nonzero"/></clipPath><clipPath id="24080ecb13"><path d="M 218 111 L 368.601562 111 L 368.601562 262 L 218 262 Z M 218 111 " clip-rule="nonzero"/></clipPath></defs><g clip-path="url(#e7fac5b62f)"><path fill="#00f3f7" d="M 39.621094 297.371094 L 24.9375 297.371094 C 14.761719 297.371094 6.472656 289.082031 6.472656 278.910156 L 6.472656 73.925781 C 6.558594 63.835938 14.761719 55.628906 24.9375 55.628906 L 39.546875 55.628906 C 41.847656 55.628906 43.734375 57.511719 43.734375 59.816406 L 43.734375 70.074219 L 58.832031 70.074219 L 58.832031 59.730469 C 58.832031 57.429688 60.71875 55.546875 62.9375 55.546875 L 87.960938 55.546875 C 90.261719 55.546875 92.0625 57.429688 92.0625 59.730469 L 92.0625 69.988281 L 107.164062 69.988281 L 107.164062 59.730469 C 107.164062 57.429688 109.046875 55.546875 111.265625 55.546875 L 136.207031 55.546875 C 138.507812 55.546875 140.394531 57.429688 140.394531 59.730469 L 140.394531 69.988281 L 155.492188 69.988281 L 155.492188 59.730469 C 155.492188 57.429688 157.378906 55.546875 159.597656 55.546875 L 184.539062 55.546875 C 186.839844 55.546875 188.722656 57.429688 188.722656 59.730469 L 188.722656 69.988281 L 203.824219 69.988281 L 203.824219 59.730469 C 203.824219 57.429688 205.707031 55.546875 208.011719 55.546875 L 232.949219 55.546875 C 235.253906 55.546875 237.054688 57.429688 237.054688 59.730469 L 237.054688 69.988281 L 252.152344 69.988281 L 252.152344 59.730469 C 252.152344 57.429688 254.039062 55.546875 256.257812 55.546875 L 270.867188 55.546875 C 281.042969 55.546875 289.332031 63.835938 289.332031 74.007812 L 289.332031 115.695312 C 289.332031 117.996094 287.445312 119.882812 285.144531 119.882812 C 282.84375 119.882812 280.957031 117.996094 280.957031 115.695312 L 280.957031 74.007812 C 280.957031 68.425781 276.449219 63.835938 270.785156 63.835938 L 260.359375 63.835938 L 260.359375 74.09375 C 260.359375 76.394531 258.476562 78.277344 256.171875 78.277344 L 232.785156 78.277344 C 230.484375 78.277344 228.597656 76.394531 228.597656 74.09375 L 228.597656 63.835938 L 212.351562 63.835938 L 212.351562 74.09375 C 212.351562 76.394531 210.46875 78.277344 208.167969 78.277344 L 184.777344 78.277344 C 182.476562 78.277344 180.589844 76.394531 180.589844 74.09375 L 180.589844 63.835938 L 163.929688 63.835938 L 163.929688 74.09375 C 163.929688 76.394531 162.042969 78.277344 159.742188 78.277344 L 136.351562 78.277344 C 134.050781 78.277344 132.167969 76.394531 132.167969 74.09375 L 132.167969 63.917969 L 115.503906 63.917969 L 115.503906 74.175781 C 115.503906 76.476562 113.621094 78.363281 111.320312 78.363281 L 87.960938 78.363281 C 85.660156 78.363281 83.773438 76.476562 83.773438 74.175781 L 83.773438 63.917969 L 67.113281 63.917969 L 67.113281 74.175781 C 67.113281 76.476562 65.226562 78.363281 62.925781 78.363281 L 39.539062 78.363281 C 37.234375 78.363281 35.351562 76.476562 35.351562 74.175781 L 35.351562 63.917969 L 24.9375 63.917969 C 19.355469 63.917969 14.847656 68.425781 14.847656 74.09375 L 14.847656 279.074219 C 14.847656 284.65625 19.355469 289.25 24.9375 289.25 L 39.632812 289.25 C 41.933594 289.25 43.734375 291.132812 43.734375 293.433594 C 43.808594 295.570312 41.921875 297.371094 39.621094 297.371094 Z M 143.675781 297.371094 L 88.449219 297.371094 C 86.148438 297.371094 84.265625 295.488281 84.265625 293.269531 C 84.265625 290.96875 86.148438 289.082031 88.449219 289.082031 L 143.675781 289.082031 C 145.976562 289.082031 147.777344 290.96875 147.777344 293.269531 C 147.777344 295.570312 145.976562 297.371094 143.675781 297.371094 Z M 271.199219 297.371094 L 192.421875 297.371094 C 190.121094 297.371094 188.234375 295.488281 188.234375 293.269531 C 188.234375 290.96875 190.121094 289.082031 192.421875 289.082031 L 271.199219 289.082031 C 276.78125 289.082031 281.375 284.574219 281.375 278.910156 L 281.375 257.082031 C 281.375 254.78125 283.257812 252.894531 285.476562 252.894531 C 287.777344 252.894531 289.664062 254.78125 289.664062 257.082031 L 289.664062 278.910156 C 289.582031 289.164062 281.375 297.371094 271.199219 297.371094 Z M 271.199219 297.371094 " fill-opacity="1" fill-rule="evenodd"/></g><g clip-path="url(#a4967ff922)"><path fill="#00f3f7" d="M 285.476562 97.71875 L 10.660156 97.71875 C 8.359375 97.71875 6.472656 95.835938 6.472656 93.535156 C 6.472656 91.234375 8.359375 89.347656 10.660156 89.347656 L 285.476562 89.347656 C 287.777344 89.347656 289.582031 91.234375 289.582031 93.535156 C 289.582031 95.835938 287.769531 97.71875 285.476562 97.71875 Z M 285.476562 97.71875 " fill-opacity="1" fill-rule="evenodd"/></g><g clip-path="url(#364c7a9ca9)"><path fill="#00f3f7" d="M 43.722656 70.074219 L 58.824219 70.074219 L 58.824219 38.726562 L 43.722656 38.726562 Z M 63.011719 78.363281 L 39.539062 78.363281 C 37.234375 78.363281 35.351562 76.476562 35.351562 74.175781 L 35.351562 34.539062 C 35.351562 32.238281 37.234375 30.355469 39.539062 30.355469 L 62.925781 30.355469 C 65.226562 30.355469 67.113281 32.238281 67.113281 34.539062 L 67.113281 74.175781 C 67.113281 76.464844 65.3125 78.363281 63.011719 78.363281 Z M 63.011719 78.363281 " fill-opacity="1" fill-rule="evenodd"/></g><g clip-path="url(#ef89928b50)"><path fill="#00f3f7" d="M 92.148438 70.074219 L 107.246094 70.074219 L 107.246094 38.726562 L 92.148438 38.726562 Z M 111.339844 78.363281 L 87.960938 78.363281 C 85.660156 78.363281 83.773438 76.476562 83.773438 74.175781 L 83.773438 34.539062 C 83.773438 32.238281 85.660156 30.355469 87.878906 30.355469 L 111.265625 30.355469 C 113.566406 30.355469 115.371094 32.238281 115.371094 34.539062 L 115.371094 74.175781 C 115.527344 76.464844 113.640625 78.363281 111.339844 78.363281 Z M 111.339844 78.363281 " fill-opacity="1" fill-rule="evenodd"/></g><g clip-path="url(#2a0b8aec82)"><path fill="#00f3f7" d="M 140.476562 70.074219 L 155.578125 70.074219 L 155.578125 38.726562 L 140.476562 38.726562 Z M 159.761719 78.363281 L 136.375 78.363281 C 134.074219 78.363281 132.1875 76.476562 132.1875 74.175781 L 132.1875 34.539062 C 132.1875 32.238281 134.074219 30.355469 136.375 30.355469 L 159.761719 30.355469 C 162.066406 30.355469 163.867188 32.238281 163.867188 34.539062 L 163.867188 74.175781 C 163.9375 76.464844 162.054688 78.363281 159.761719 78.363281 Z M 159.761719 78.363281 " fill-opacity="1" fill-rule="evenodd"/></g><g clip-path="url(#8e17c291e6)"><path fill="#00f3f7" d="M 188.890625 70.074219 L 203.992188 70.074219 L 203.992188 38.726562 L 188.890625 38.726562 Z M 208.175781 78.363281 L 184.789062 78.363281 C 182.484375 78.363281 180.601562 76.476562 180.601562 74.175781 L 180.601562 34.539062 C 180.601562 32.238281 182.484375 30.355469 184.703125 30.355469 L 208.09375 30.355469 C 210.394531 30.355469 212.28125 32.238281 212.28125 34.539062 L 212.28125 74.175781 C 212.363281 76.464844 210.46875 78.363281 208.175781 78.363281 Z M 208.175781 78.363281 " fill-opacity="1" fill-rule="evenodd"/></g><g clip-path="url(#0e07e53b35)"><path fill="#00f3f7" d="M 237.304688 70.074219 L 252.402344 70.074219 L 252.402344 38.726562 L 237.304688 38.726562 Z M 256.589844 78.363281 L 233.199219 78.363281 C 230.898438 78.363281 229.015625 76.476562 229.015625 74.175781 L 229.015625 34.539062 C 229.015625 32.238281 230.898438 30.355469 233.117188 30.355469 L 256.507812 30.355469 C 258.808594 30.355469 260.609375 32.238281 260.609375 34.539062 L 260.609375 74.175781 C 260.691406 76.464844 258.890625 78.363281 256.589844 78.363281 Z M 256.589844 78.363281 " fill-opacity="1" fill-rule="evenodd"/></g><path fill="#00f3f7" d="M 116.027344 147.289062 C 91.40625 147.289062 71.382812 167.316406 71.382812 191.933594 C 71.382812 216.550781 91.40625 236.578125 116.027344 236.578125 C 140.644531 236.578125 160.667969 216.550781 160.667969 191.933594 C 160.667969 167.316406 140.644531 147.289062 116.027344 147.289062 Z M 116.027344 244.855469 C 86.816406 244.855469 63.09375 221.144531 63.09375 191.921875 C 63.09375 162.703125 86.804688 138.988281 116.027344 138.988281 C 145.246094 138.988281 168.957031 162.703125 168.957031 191.921875 C 168.957031 221.144531 145.234375 244.855469 116.027344 244.855469 Z M 116.027344 244.855469 " fill-opacity="1" fill-rule="evenodd"/><path fill="#00f3f7" d="M 53.324219 317.0625 C 52.585938 317.0625 51.929688 316.898438 51.273438 316.492188 C 49.304688 315.347656 48.648438 312.792969 49.710938 310.828125 L 65.875 282.84375 C 67.019531 280.875 69.570312 280.21875 71.539062 281.367188 C 73.507812 282.511719 74.164062 285.0625 73.015625 287.03125 L 56.9375 314.929688 C 56.117188 316.324219 54.71875 317.0625 53.324219 317.0625 Z M 53.324219 317.0625 " fill-opacity="1" fill-rule="evenodd"/><path fill="#00f3f7" d="M 86.804688 299.101562 C 86.066406 299.101562 85.410156 298.933594 84.753906 298.527344 L 48.734375 277.691406 C 46.765625 276.542969 46.109375 273.992188 47.171875 272.023438 C 48.316406 270.058594 50.867188 269.402344 52.835938 270.546875 L 88.855469 291.382812 C 90.824219 292.53125 91.480469 295.082031 90.417969 297.050781 C 89.679688 298.359375 88.285156 299.101562 86.804688 299.101562 Z M 86.804688 299.101562 " fill-opacity="1" fill-rule="evenodd"/><path fill="#00f3f7" d="M 178.800781 317.0625 C 177.402344 317.0625 176.007812 316.324219 175.1875 315.011719 L 159.023438 287.03125 C 157.878906 285.0625 158.535156 282.523438 160.503906 281.367188 C 162.472656 280.21875 165.011719 280.875 166.167969 282.84375 L 182.328125 310.828125 C 183.476562 312.792969 182.820312 315.335938 180.769531 316.492188 C 180.195312 316.824219 179.457031 317.0625 178.800781 317.0625 Z M 178.800781 317.0625 " fill-opacity="1" fill-rule="evenodd"/><path fill="#00f3f7" d="M 145.234375 299.101562 C 143.839844 299.101562 142.445312 298.359375 141.621094 297.050781 C 140.476562 295.082031 141.132812 292.539062 143.101562 291.382812 L 179.121094 270.546875 C 181.089844 269.402344 183.632812 270.058594 184.789062 272.023438 C 185.933594 273.992188 185.277344 276.535156 183.226562 277.691406 L 147.359375 298.527344 C 146.714844 298.933594 145.976562 299.101562 145.234375 299.101562 Z M 145.234375 299.101562 " fill-opacity="1" fill-rule="evenodd"/><g clip-path="url(#b2a0cb109e)"><path fill="#00f3f7" d="M 61.125 344.640625 C 60.957031 344.640625 60.792969 344.640625 60.636719 344.640625 C 58.988281 344.472656 57.59375 343.246094 57.1875 341.683594 L 50.460938 317.804688 L 25.519531 323.46875 C 23.875 323.800781 22.238281 323.21875 21.25 321.90625 C 20.261719 320.59375 20.1875 318.792969 21 317.398438 L 64.082031 242.722656 C 65.226562 240.753906 67.777344 240.097656 69.746094 241.242188 C 71.714844 242.386719 72.371094 244.9375 71.226562 246.90625 L 32.902344 313.292969 L 52.429688 308.859375 C 54.5625 308.367188 56.699219 309.679688 57.355469 311.816406 L 62.519531 330.027344 L 102.40625 260.769531 C 103.550781 258.800781 106.101562 258.144531 108.070312 259.289062 C 110.039062 260.433594 110.695312 262.984375 109.632812 264.953125 L 64.8125 342.589844 C 64 343.898438 62.605469 344.640625 61.125 344.640625 Z M 61.125 344.640625 " fill-opacity="1" fill-rule="evenodd"/></g><g clip-path="url(#a95fd292c4)"><path fill="#00f3f7" d="M 170.917969 344.640625 C 169.4375 344.640625 168.042969 343.816406 167.304688 342.589844 L 125.378906 269.964844 C 124.230469 267.996094 124.886719 265.453125 126.855469 264.296875 C 128.824219 263.152344 131.363281 263.808594 132.519531 265.777344 L 169.53125 329.863281 L 174.695312 311.648438 C 175.269531 309.515625 177.402344 308.285156 179.621094 308.691406 L 199.230469 313.285156 L 163.128906 250.832031 C 161.980469 248.863281 162.636719 246.324219 164.605469 245.167969 C 166.574219 244.023438 169.113281 244.679688 170.269531 246.648438 L 211.050781 317.304688 C 211.875 318.699219 211.789062 320.5 210.800781 321.8125 C 209.8125 323.125 208.175781 323.78125 206.53125 323.375 L 181.589844 317.710938 L 174.863281 341.589844 C 174.375 343.234375 173.0625 344.378906 171.417969 344.546875 C 171.332031 344.640625 171.082031 344.640625 170.917969 344.640625 Z M 170.917969 344.640625 " fill-opacity="1" fill-rule="evenodd"/></g><path fill="#00f3f7" d="M 106.007812 253.226562 C 106.496094 253.226562 106.996094 253.3125 107.488281 253.476562 C 109.132812 254.050781 110.195312 255.613281 110.195312 257.332031 L 110.195312 264.058594 C 114.464844 262.746094 117.578125 260.039062 119.628906 255.851562 C 120.367188 254.289062 122.015625 253.394531 123.730469 253.550781 C 125.449219 253.71875 126.929688 254.945312 127.34375 256.59375 L 129.0625 263.152344 C 132.832031 260.769531 135.136719 257.402344 136.039062 252.8125 C 136.375 251.09375 137.6875 249.769531 139.40625 249.449219 C 141.121094 249.113281 142.851562 249.9375 143.675781 251.5 L 147.039062 257.320312 C 150.078125 254.039062 151.472656 250.175781 151.058594 245.5 C 150.890625 243.78125 151.878906 242.136719 153.441406 241.398438 C 155.003906 240.660156 156.890625 240.992188 158.117188 242.222656 L 162.878906 246.980469 C 162.960938 246.898438 162.960938 246.8125 163.042969 246.648438 C 165.011719 242.792969 165.261719 238.847656 163.78125 234.503906 C 163.210938 232.859375 163.699219 231.058594 165.011719 229.910156 C 166.324219 228.765625 168.207031 228.683594 169.769531 229.503906 L 175.59375 232.871094 C 176.65625 228.515625 175.84375 224.496094 173.207031 220.644531 C 172.21875 219.25 172.21875 217.363281 173.207031 215.882812 C 174.195312 214.488281 176 213.832031 177.644531 214.238281 L 184.203125 215.957031 C 184.039062 211.449219 182.234375 207.835938 178.707031 204.792969 C 177.394531 203.648438 176.902344 201.835938 177.476562 200.203125 C 178.050781 198.554688 179.613281 197.496094 181.332031 197.496094 L 188.058594 197.496094 C 186.746094 193.222656 184.039062 190.109375 179.851562 188.144531 C 178.289062 187.402344 177.394531 185.757812 177.550781 184.039062 C 177.714844 182.320312 178.945312 180.84375 180.589844 180.425781 L 187.152344 178.707031 C 184.765625 174.9375 181.402344 172.636719 176.808594 171.730469 C 175.09375 171.398438 173.769531 170.085938 173.445312 168.367188 C 173.113281 166.648438 173.9375 164.921875 175.5 164.097656 L 181.320312 160.734375 C 178.039062 157.691406 174.175781 156.296875 169.5 156.714844 C 167.78125 156.878906 166.136719 155.890625 165.398438 154.328125 C 164.65625 152.765625 164.992188 150.882812 166.21875 149.652344 L 170.980469 144.894531 C 167.042969 142.761719 162.941406 142.511719 158.585938 144.070312 C 156.941406 144.644531 155.140625 144.15625 153.992188 142.84375 C 152.933594 141.53125 152.765625 139.644531 153.589844 138.085938 L 156.953125 132.261719 C 152.597656 131.199219 148.578125 132.011719 144.726562 134.648438 C 143.332031 135.636719 141.445312 135.636719 140.050781 134.648438 C 138.65625 133.660156 138 131.941406 138.40625 130.210938 L 138.40625 130.128906 L 140.125 123.566406 C 135.613281 123.734375 132 125.535156 128.960938 129.066406 C 127.8125 130.378906 126.003906 130.867188 124.367188 130.292969 C 122.722656 129.722656 121.660156 128.160156 121.660156 126.441406 L 121.660156 119.632812 C 117.390625 120.941406 114.277344 123.652344 112.308594 127.835938 C 111.570312 129.398438 109.921875 130.292969 108.207031 130.222656 C 106.488281 130.054688 105.007812 128.828125 104.589844 127.179688 L 102.875 120.621094 C 99.105469 123.003906 96.800781 126.367188 95.894531 130.960938 C 95.5625 132.679688 94.25 134 92.53125 134.324219 C 90.8125 134.65625 89.085938 133.835938 88.261719 132.273438 L 84.898438 126.453125 C 81.859375 129.730469 80.464844 133.597656 80.878906 138.273438 C 81.046875 139.988281 80.058594 141.636719 78.496094 142.375 C 76.933594 143.113281 75.046875 142.78125 73.820312 141.550781 L 69.058594 136.792969 C 66.925781 140.730469 66.675781 144.832031 68.238281 149.183594 C 68.808594 150.832031 68.320312 152.632812 67.007812 153.777344 C 65.695312 154.921875 63.8125 155.007812 62.25 154.183594 L 56.429688 150.820312 C 55.367188 155.171875 56.179688 159.191406 58.8125 163.046875 C 59.800781 164.441406 59.800781 166.324219 58.8125 167.804688 C 57.824219 169.199219 56.023438 169.855469 54.375 169.449219 L 47.816406 167.730469 C 47.984375 172.242188 49.785156 175.855469 53.316406 178.894531 C 54.625 180.039062 55.117188 181.851562 54.542969 183.488281 C 53.96875 185.121094 52.410156 186.195312 50.691406 186.195312 L 43.878906 186.195312 C 45.191406 190.464844 47.898438 193.578125 52.085938 195.546875 C 53.648438 196.285156 54.542969 197.929688 54.386719 199.648438 C 54.21875 201.367188 52.992188 202.847656 51.347656 203.261719 L 44.785156 204.980469 C 47.171875 208.75 50.535156 211.054688 55.125 211.957031 C 56.84375 212.292969 58.167969 213.605469 58.488281 215.324219 C 58.824219 217.039062 58 218.769531 56.4375 219.59375 L 50.617188 222.957031 C 53.898438 225.996094 57.761719 227.390625 62.355469 226.976562 C 64.070312 226.808594 65.71875 227.796875 66.457031 229.359375 C 67.195312 230.921875 66.863281 232.808594 65.632812 234.035156 L 60.875 238.792969 C 63.09375 240.023438 65.382812 240.597656 67.769531 240.597656 C 69.570312 240.597656 71.464844 240.261719 73.351562 239.605469 C 74.996094 239.035156 76.796875 239.523438 77.941406 240.835938 C 79.089844 242.148438 79.253906 244.03125 78.347656 245.59375 L 74.984375 251.417969 C 79.339844 252.476562 83.359375 251.667969 87.210938 249.03125 C 88.605469 248.042969 90.492188 248.042969 91.96875 249.03125 C 93.367188 250.019531 94.023438 251.824219 93.617188 253.46875 L 91.898438 259.957031 C 96.332031 259.789062 100.101562 257.988281 103.0625 254.539062 C 103.632812 253.71875 104.777344 253.226562 106.007812 253.226562 Z M 106.007812 273.253906 C 104.945312 273.253906 103.957031 272.847656 103.21875 272.191406 C 102.394531 271.367188 101.90625 270.308594 101.90625 269.152344 L 101.90625 265.953125 C 97.144531 268.410156 91.648438 269.066406 85.660156 268.003906 C 84.515625 267.753906 83.523438 267.097656 82.953125 266.121094 C 82.378906 265.132812 82.128906 263.984375 82.460938 262.839844 L 83.285156 259.800781 C 78.121094 260.945312 72.621094 260.132812 67.125 257.496094 C 66.0625 257.007812 65.320312 256.101562 64.988281 254.957031 C 64.65625 253.894531 64.738281 252.65625 65.320312 251.675781 L 66.882812 248.96875 C 61.550781 248.71875 56.460938 246.585938 51.867188 242.566406 C 50.960938 241.824219 50.472656 240.761719 50.386719 239.605469 C 50.304688 238.460938 50.792969 237.304688 51.617188 236.492188 L 53.835938 234.273438 C 48.742188 232.628906 44.402344 229.265625 40.953125 224.183594 C 40.296875 223.195312 40.046875 222.050781 40.296875 220.902344 C 40.546875 219.757812 41.285156 218.769531 42.265625 218.195312 L 44.972656 216.632812 C 40.535156 213.761719 37.171875 209.335938 35.121094 203.585938 C 34.714844 202.523438 34.789062 201.285156 35.371094 200.304688 C 35.945312 199.316406 36.851562 198.503906 37.996094 198.253906 L 41.035156 197.433594 C 37.507812 193.496094 35.371094 188.402344 34.882812 182.25 C 34.800781 181.101562 35.214844 179.945312 35.945312 179.136719 C 36.765625 178.3125 37.828125 177.824219 38.984375 177.824219 L 42.097656 177.824219 C 39.640625 173.148438 38.984375 167.648438 40.132812 161.578125 C 40.378906 160.433594 41.035156 159.441406 42.015625 158.871094 C 43.003906 158.214844 44.152344 158.046875 45.296875 158.378906 L 48.335938 159.203125 C 47.191406 154.039062 48.003906 148.539062 50.636719 143.042969 C 51.128906 141.980469 52.035156 141.238281 53.179688 140.90625 C 54.242188 140.574219 55.480469 140.65625 56.460938 141.238281 L 59.167969 142.800781 C 59.417969 137.46875 61.550781 132.378906 65.570312 127.785156 C 66.3125 126.878906 67.375 126.390625 68.527344 126.304688 C 69.675781 126.222656 70.832031 126.710938 71.644531 127.535156 L 73.859375 129.753906 C 75.507812 124.660156 78.871094 120.320312 83.953125 116.871094 C 84.941406 116.214844 86.085938 115.964844 87.230469 116.214844 C 88.378906 116.464844 89.367188 117.203125 89.941406 118.183594 L 91.5 120.890625 C 94.375 116.453125 98.800781 113.089844 104.550781 111.039062 C 105.613281 110.632812 106.851562 110.707031 107.832031 111.289062 C 108.820312 111.863281 109.632812 112.769531 109.882812 113.914062 L 110.703125 116.953125 C 114.640625 113.425781 119.734375 111.289062 125.886719 110.800781 C 127.03125 110.71875 128.1875 111.132812 129 111.863281 C 129.824219 112.683594 130.3125 113.746094 130.3125 114.902344 L 130.3125 118.015625 C 134.988281 115.558594 140.488281 114.902344 146.558594 116.046875 C 147.703125 116.296875 148.695312 116.953125 149.265625 117.933594 C 149.921875 118.921875 150.089844 120.070312 149.753906 121.214844 L 148.933594 124.253906 C 154.097656 123.109375 159.597656 123.921875 165.09375 126.554688 C 166.15625 127.046875 166.898438 127.953125 167.230469 129.097656 C 167.5625 130.160156 167.398438 131.398438 166.824219 132.378906 L 165.261719 135.085938 C 170.59375 135.335938 175.6875 137.46875 180.277344 141.488281 C 181.183594 142.230469 181.671875 143.289062 181.757812 144.445312 C 181.839844 145.59375 181.351562 146.75 180.527344 147.5625 L 178.308594 149.777344 C 183.320312 151.425781 187.746094 154.789062 191.191406 159.871094 C 191.847656 160.859375 192.097656 162.003906 191.847656 163.148438 C 191.597656 164.296875 190.859375 165.285156 189.878906 165.859375 L 187.171875 167.417969 C 191.609375 170.292969 194.972656 174.71875 197.023438 180.46875 C 197.429688 181.53125 197.355469 182.769531 196.773438 183.75 C 196.199219 184.738281 195.292969 185.550781 194.148438 185.800781 L 191.109375 186.621094 C 194.640625 190.558594 196.773438 195.652344 197.261719 201.804688 C 197.347656 202.949219 196.929688 204.105469 196.199219 204.917969 C 195.378906 205.742188 194.316406 206.230469 193.160156 206.230469 L 190.046875 206.230469 C 192.503906 210.90625 193.160156 216.40625 192.015625 222.476562 C 191.765625 223.621094 191.109375 224.613281 190.128906 225.183594 C 189.140625 225.839844 187.996094 226.007812 186.847656 225.671875 L 183.808594 224.851562 C 184.953125 230.015625 184.214844 235.515625 181.507812 241.011719 C 181.019531 242.074219 180.113281 242.816406 178.964844 243.148438 C 177.902344 243.480469 176.664062 243.398438 175.6875 242.742188 L 172.976562 241.179688 C 172.8125 244.375 171.988281 247.585938 170.4375 250.613281 C 169.449219 252.582031 168.136719 254.46875 166.585938 256.28125 C 165.84375 257.183594 164.78125 257.675781 163.625 257.757812 C 162.480469 257.839844 161.324219 257.351562 160.511719 256.53125 L 158.296875 254.3125 C 156.648438 259.402344 153.285156 263.746094 148.203125 267.191406 C 147.214844 267.847656 146.070312 268.097656 144.921875 267.847656 C 143.777344 267.597656 142.789062 266.859375 142.214844 265.882812 L 140.652344 263.171875 C 138.351562 266.785156 134.988281 269.660156 130.730469 271.710938 C 129.742188 272.203125 128.679688 272.617188 127.53125 273.023438 C 126.472656 273.429688 125.230469 273.359375 124.253906 272.773438 C 123.261719 272.203125 122.449219 271.296875 122.199219 270.152344 L 121.378906 267.109375 C 117.441406 270.722656 112.351562 272.773438 106.195312 273.265625 C 106.175781 273.253906 106.089844 273.253906 106.007812 273.253906 Z M 106.007812 273.253906 " fill-opacity="1" fill-rule="evenodd"/><g clip-path="url(#24080ecb13)"><path fill="#00f3f7" d="M 293.265625 119.476562 C 256.339844 119.476562 226.308594 149.507812 226.308594 186.433594 C 226.308594 223.363281 256.339844 253.394531 293.265625 253.394531 C 330.195312 253.394531 360.226562 223.363281 360.226562 186.433594 C 360.226562 149.507812 330.195312 119.476562 293.265625 119.476562 Z M 293.265625 261.757812 C 251.746094 261.757812 218.015625 227.945312 218.015625 186.507812 C 218.015625 144.988281 251.832031 111.257812 293.265625 111.257812 C 334.785156 111.257812 368.515625 145.070312 368.515625 186.507812 C 368.515625 227.953125 334.785156 261.757812 293.265625 261.757812 Z M 293.265625 261.757812 " fill-opacity="1" fill-rule="evenodd"/></g><path fill="#00f3f7" d="M 282.4375 185.851562 L 317.5625 198.734375 L 317.5625 145.476562 L 282.4375 158.359375 Z M 321.75 208.835938 C 321.257812 208.835938 320.757812 208.75 320.351562 208.585938 L 276.867188 192.664062 C 275.21875 192.089844 274.15625 190.527344 274.15625 188.808594 L 274.15625 155.578125 C 274.15625 153.859375 275.21875 152.296875 276.867188 151.726562 L 320.269531 135.804688 C 321.582031 135.3125 322.976562 135.554688 324.039062 136.292969 C 325.183594 137.03125 325.839844 138.34375 325.839844 139.65625 L 325.839844 204.816406 C 325.839844 206.128906 325.183594 207.4375 324.039062 208.179688 C 323.382812 208.585938 322.5625 208.835938 321.75 208.835938 Z M 321.75 208.835938 " fill-opacity="1" fill-rule="evenodd"/><path fill="#00f3f7" d="M 257.246094 184.621094 L 274.148438 184.621094 L 274.148438 159.683594 L 257.246094 159.683594 Z M 278.25 192.914062 L 253.058594 192.914062 C 250.757812 192.914062 248.875 191.027344 248.875 188.726562 L 248.875 155.496094 C 248.875 153.195312 250.757812 151.308594 252.976562 151.308594 L 278.167969 151.308594 C 280.46875 151.308594 282.269531 153.195312 282.269531 155.496094 L 282.269531 188.726562 C 282.4375 191.027344 280.550781 192.914062 278.25 192.914062 Z M 278.25 192.914062 " fill-opacity="1" fill-rule="evenodd"/><path fill="#00f3f7" d="M 257.246094 222.289062 L 268.648438 222.289062 L 263.484375 192.914062 L 257.246094 192.914062 Z M 273.574219 230.578125 L 253.058594 230.578125 C 250.757812 230.578125 248.875 228.695312 248.875 226.476562 L 248.875 188.808594 C 248.875 186.507812 250.757812 184.621094 252.976562 184.621094 L 266.847656 184.621094 C 268.898438 184.621094 270.542969 186.101562 270.949219 188.070312 L 277.59375 225.734375 C 277.84375 226.964844 277.425781 228.195312 276.6875 229.101562 C 275.960938 230.003906 274.804688 230.578125 273.574219 230.578125 Z M 273.574219 230.578125 " fill-opacity="1" fill-rule="evenodd"/><path fill="#00f3f7" d="M 325.851562 160.828125 L 325.851562 183.394531 C 330.445312 181.675781 333.722656 177.324219 333.722656 172.148438 C 333.722656 166.972656 330.445312 162.546875 325.851562 160.828125 Z M 321.75 192.421875 C 319.445312 192.421875 317.5625 190.539062 317.5625 188.238281 L 317.5625 155.902344 C 317.5625 153.601562 319.445312 151.714844 321.664062 151.714844 C 332.828125 151.714844 341.929688 160.828125 341.929688 171.980469 C 342.011719 183.3125 332.902344 192.421875 321.75 192.421875 Z M 321.75 192.421875 " fill-opacity="1" fill-rule="evenodd"/></svg>