<svg xmlns="http://www.w3.org/2000/svg" xmlns:xlink="http://www.w3.org/1999/xlink" width="500" zoomAndPan="magnify" viewBox="0 0 375 374.999991" height="500" preserveAspectRatio="xMidYMid meet" version="1.0"><defs><clipPath id="4836d7265f"><path d="M 4.035156 25 L 370.785156 25 L 370.785156 350.695312 L 4.035156 350.695312 Z M 4.035156 25 " clip-rule="nonzero"/></clipPath></defs><g clip-path="url(#4836d7265f)"><path fill="#00f3f7" d="M 342.207031 159.609375 C 340.578125 159.609375 338.949219 159.609375 337.320312 160.019531 L 286.835938 72.484375 C 288.058594 71.265625 288.871094 70.042969 289.6875 68.414062 C 297.421875 54.980469 292.941406 37.472656 279.507812 29.328125 C 272.992188 25.664062 265.257812 24.445312 257.929688 26.480469 C 250.601562 28.515625 244.496094 32.992188 240.832031 39.914062 C 240.015625 41.136719 239.203125 42.765625 238.792969 43.988281 L 137.011719 43.988281 C 136.605469 42.359375 135.792969 41.136719 134.976562 39.914062 C 131.3125 33.402344 124.800781 28.515625 117.878906 26.480469 C 110.550781 24.445312 102.8125 25.664062 96.300781 29.328125 C 89.785156 32.992188 84.902344 39.507812 82.863281 46.429688 C 80.828125 53.757812 82.050781 61.492188 85.714844 68.007812 C 86.527344 69.226562 87.34375 70.855469 88.566406 72.078125 L 37.671875 160.019531 C 36.046875 159.609375 34.417969 159.609375 32.789062 159.609375 C 16.910156 159.609375 4.289062 172.230469 4.289062 188.109375 C 4.289062 203.988281 16.910156 216.609375 32.789062 216.609375 C 34.417969 216.609375 36.046875 216.609375 37.671875 216.203125 L 88.15625 303.734375 C 87.34375 304.957031 86.121094 306.175781 85.308594 307.804688 C 77.570312 321.242188 82.050781 338.746094 95.484375 346.890625 C 99.964844 349.332031 104.851562 350.554688 109.734375 350.554688 C 119.507812 350.554688 129.277344 345.667969 134.570312 336.304688 C 135.382812 335.082031 136.199219 333.453125 136.605469 331.824219 L 238.386719 331.824219 C 238.792969 333.453125 239.609375 334.675781 240.421875 336.304688 C 244.085938 342.816406 250.601562 347.703125 257.523438 349.738281 C 259.964844 350.554688 262.40625 350.554688 264.851562 350.554688 C 269.738281 350.554688 274.621094 349.332031 279.101562 346.484375 C 292.535156 338.746094 297.421875 321.242188 289.277344 307.398438 C 288.464844 305.769531 287.648438 304.546875 286.429688 303.328125 L 336.914062 215.792969 C 338.949219 216.609375 340.578125 216.609375 342.207031 216.609375 C 358.082031 216.609375 370.703125 203.988281 370.703125 188.109375 C 370.703125 172.230469 358.082031 159.609375 342.207031 159.609375 Z M 254.671875 48.058594 C 256.300781 45.207031 258.742188 43.171875 262 42.359375 C 263.222656 41.949219 264.035156 41.949219 265.257812 41.949219 C 267.292969 41.949219 269.328125 42.359375 271.363281 43.578125 C 277.066406 46.835938 279.101562 54.570312 275.84375 60.273438 C 274.214844 63.121094 271.773438 65.15625 268.515625 65.972656 C 265.257812 66.785156 262 66.378906 259.152344 64.75 C 253.042969 61.492188 251.007812 53.757812 254.671875 48.058594 Z M 104.035156 43.578125 C 106.070312 42.359375 108.105469 41.949219 110.140625 41.949219 C 114.214844 41.949219 118.285156 43.988281 120.726562 48.058594 C 122.355469 50.90625 122.761719 54.164062 121.949219 57.421875 C 121.136719 60.679688 119.097656 63.121094 116.25 64.75 C 113.398438 66.378906 110.140625 66.785156 106.886719 65.972656 C 103.628906 65.15625 101.183594 63.121094 99.558594 60.273438 C 95.894531 54.570312 97.929688 46.835938 104.035156 43.578125 Z M 32.789062 200.324219 C 25.867188 200.324219 20.574219 194.625 20.574219 188.109375 C 20.574219 181.1875 25.867188 175.894531 32.789062 175.894531 C 39.710938 175.894531 45 181.1875 45 188.109375 C 45 194.625 39.710938 200.324219 32.789062 200.324219 Z M 120.320312 328.160156 C 118.691406 331.011719 116.25 333.046875 112.992188 333.863281 C 109.734375 334.675781 106.476562 334.269531 103.628906 332.640625 C 97.929688 329.382812 95.894531 321.648438 99.148438 315.949219 C 102.40625 310.25 110.140625 308.210938 115.84375 311.46875 C 121.542969 314.726562 123.984375 322.460938 120.320312 328.160156 Z M 270.957031 332.640625 C 268.109375 334.269531 264.851562 334.675781 261.59375 333.863281 C 258.335938 333.046875 255.894531 331.011719 254.265625 328.160156 C 251.007812 322.460938 253.042969 314.726562 258.742188 311.46875 C 260.78125 310.25 262.816406 309.839844 264.851562 309.839844 C 268.921875 309.839844 273.402344 311.875 275.4375 315.949219 C 279.101562 321.648438 277.066406 328.976562 270.957031 332.640625 Z M 322.664062 208.875 L 273.402344 294.777344 C 272.992188 294.777344 272.585938 294.777344 272.585938 294.371094 C 265.257812 292.335938 257.523438 293.554688 251.007812 297.21875 C 243.679688 301.292969 239.203125 308.210938 237.574219 315.539062 L 137.828125 315.539062 C 136.199219 308.210938 131.3125 301.292969 124.390625 297.21875 C 117.46875 293.148438 109.328125 292.335938 102 294.777344 L 52.332031 208.875 C 57.621094 203.582031 61.285156 196.253906 61.285156 188.109375 C 61.285156 179.96875 57.621094 172.640625 52.332031 167.347656 L 102 81.441406 C 104.851562 82.257812 107.699219 82.664062 110.140625 82.664062 C 115.027344 82.664062 119.914062 81.441406 124.390625 78.59375 C 130.90625 74.929688 135.792969 68.820312 137.828125 61.492188 C 137.828125 61.085938 137.828125 60.679688 138.234375 60.273438 L 237.574219 60.273438 C 239.203125 67.601562 244.085938 74.519531 251.007812 78.59375 C 255.488281 81.035156 260.371094 82.664062 265.257812 82.664062 C 267.699219 82.664062 270.144531 82.257812 272.585938 81.847656 C 272.992188 81.847656 273.402344 81.441406 273.402344 81.441406 L 323.070312 167.347656 C 317.371094 172.640625 313.707031 179.96875 313.707031 188.109375 C 313.707031 196.253906 317.371094 203.582031 322.664062 208.875 Z M 342.207031 200.324219 C 335.285156 200.324219 329.992188 194.625 329.992188 188.109375 C 329.992188 181.1875 335.285156 175.894531 342.207031 175.894531 C 349.125 175.894531 354.417969 181.1875 354.417969 188.109375 C 354.417969 194.625 349.125 200.324219 342.207031 200.324219 Z M 198.488281 168.976562 C 176.503906 146.582031 145.96875 129.078125 132.128906 142.917969 C 128.464844 146.582031 127.242188 151.46875 127.242188 156.761719 L 104.851562 242.257812 C 103.222656 247.957031 104.851562 253.65625 108.921875 257.730469 C 112.179688 260.984375 116.25 262.613281 120.320312 262.613281 C 121.542969 262.613281 123.171875 262.613281 124.390625 262.207031 L 209.886719 239.816406 C 210.296875 239.816406 210.703125 239.816406 211.109375 239.816406 C 215.996094 239.816406 220.472656 238.1875 224.136719 234.929688 C 228.617188 230.449219 232.28125 221.085938 224.136719 203.582031 C 219.253906 192.589844 209.886719 180.375 198.488281 168.976562 Z M 120.726562 246.734375 L 137.417969 183.222656 C 143.121094 192.179688 150.449219 201.136719 158.183594 209.28125 C 165.917969 217.421875 175.28125 224.75 183.832031 230.042969 Z M 212.738281 223.53125 C 209.074219 225.160156 191.566406 219.457031 169.582031 197.472656 C 147.597656 175.488281 141.898438 157.167969 143.527344 154.316406 C 143.933594 154.316406 144.339844 153.910156 145.15625 153.910156 C 150.855469 153.910156 167.140625 160.425781 186.683594 179.96875 C 208.667969 202.359375 214.367188 219.867188 212.738281 223.53125 Z M 209.886719 145.769531 L 233.09375 122.5625 C 236.351562 119.304688 241.238281 119.304688 244.496094 122.5625 C 247.75 125.820312 247.75 130.703125 244.496094 133.960938 L 221.289062 157.167969 C 220.066406 158.796875 218.03125 159.609375 215.996094 159.609375 C 213.960938 159.609375 211.925781 158.796875 210.296875 157.167969 C 207.039062 154.316406 207.039062 149.027344 209.886719 145.769531 Z M 276.25 171.824219 C 279.507812 175.082031 279.507812 179.96875 276.25 183.222656 C 274.621094 184.851562 272.585938 185.667969 270.550781 185.667969 C 268.515625 185.667969 266.480469 184.851562 264.851562 183.222656 L 259.152344 177.523438 C 255.894531 174.265625 251.007812 174.265625 247.75 177.523438 L 242.050781 183.222656 C 238.792969 186.480469 233.910156 186.480469 230.652344 183.222656 C 227.394531 179.96875 227.394531 174.675781 230.652344 171.824219 L 236.351562 166.125 C 245.714844 156.761719 261.59375 156.761719 270.957031 166.125 Z M 189.9375 120.121094 C 191.566406 118.492188 192.382812 116.457031 192.382812 114.417969 C 192.382812 112.382812 191.566406 110.347656 189.9375 108.71875 L 184.238281 102.613281 C 180.984375 99.355469 180.984375 94.46875 184.238281 91.214844 C 187.496094 87.957031 192.382812 87.957031 195.640625 91.214844 L 201.339844 96.914062 C 205.816406 101.390625 208.667969 107.5 208.667969 114.011719 C 208.667969 120.527344 206.222656 126.632812 201.339844 131.113281 L 195.640625 137.21875 C 194.011719 138.847656 191.976562 139.660156 189.9375 139.660156 C 187.902344 139.660156 185.867188 138.847656 184.238281 137.21875 C 180.984375 133.960938 180.984375 129.078125 184.238281 125.820312 Z M 189.9375 120.121094 " fill-opacity="1" fill-rule="nonzero"/></g></svg>