<svg xmlns="http://www.w3.org/2000/svg" xmlns:xlink="http://www.w3.org/1999/xlink" width="500" zoomAndPan="magnify" viewBox="0 0 375 374.999991" height="500" preserveAspectRatio="xMidYMid meet" version="1.0"><path fill="#00f3f7" d="M 94.121094 197.269531 C 90.027344 197.160156 86.65625 200.460938 86.65625 204.550781 C 86.65625 208.644531 90.027344 211.945312 94.121094 211.832031 L 280.148438 211.832031 C 284.242188 211.941406 287.613281 208.640625 287.613281 204.550781 C 287.613281 200.457031 284.242188 197.15625 280.148438 197.269531 Z M 94.121094 197.269531 " fill-opacity="1" fill-rule="nonzero"/><path fill="#00f3f7" d="M 360.867188 146.222656 C 364.867188 146.289062 368.058594 149.570312 368.039062 153.570312 L 368.039062 221.851562 C 368.039062 231.53125 367.761719 240.417969 364.375 248.652344 C 361.003906 256.863281 353.949219 263.695312 343.546875 267.632812 L 342.417969 268.0625 L 342.417969 315.988281 C 352.632812 318.070312 361.664062 324.355469 367 333.585938 C 369.011719 337.070312 367.8125 341.542969 364.328125 343.558594 C 360.839844 345.570312 356.367188 344.394531 354.355469 340.890625 C 350.375 333.988281 343.066406 329.738281 335.109375 329.738281 C 327.148438 329.738281 319.816406 333.988281 315.839844 340.890625 C 313.871094 344.484375 309.324219 345.753906 305.769531 343.691406 C 302.242188 341.65625 301.066406 337.089844 303.214844 333.582031 C 308.554688 324.351562 317.578125 318.066406 327.800781 315.984375 L 327.800781 273.578125 L 310.046875 280.296875 C 306.226562 281.96875 301.765625 280.121094 300.296875 276.226562 C 298.804688 272.316406 300.910156 267.972656 304.867188 266.679688 L 338.40625 254.015625 C 346.050781 251.144531 348.902344 247.933594 350.894531 243.113281 C 352.886719 238.269531 353.449219 231.078125 353.449219 221.851562 L 353.449219 153.570312 C 353.402344 149.472656 356.75 146.152344 360.867188 146.222656 Z M 360.867188 146.222656 " fill-opacity="1" fill-rule="nonzero"/><path fill="#00f3f7" d="M 14.117188 146.222656 C 10.117188 146.289062 6.90625 149.570312 6.949219 153.570312 L 6.949219 221.851562 C 6.949219 231.53125 7.222656 240.417969 10.59375 248.652344 C 13.984375 256.863281 21.019531 263.695312 31.421875 267.632812 L 32.574219 268.0625 L 32.574219 315.988281 C 22.347656 318.070312 13.328125 324.355469 7.992188 333.585938 C 5.976562 337.070312 7.152344 341.542969 10.660156 343.558594 C 14.140625 345.566406 18.601562 344.394531 20.609375 340.890625 C 24.59375 333.988281 31.921875 329.738281 39.886719 329.738281 C 47.851562 329.738281 55.171875 333.988281 59.15625 340.890625 C 61.117188 344.484375 65.648438 345.753906 69.195312 343.691406 C 72.742188 341.65625 73.902344 337.089844 71.769531 333.582031 C 66.433594 324.351562 57.410156 318.066406 47.1875 315.984375 L 47.1875 273.578125 L 64.945312 280.296875 C 68.742188 281.96875 73.195312 280.121094 74.6875 276.226562 C 76.160156 272.316406 74.082031 267.972656 70.097656 266.679688 L 36.554688 254.015625 C 28.933594 251.144531 26.066406 247.933594 24.097656 243.113281 C 22.105469 238.269531 21.523438 231.078125 21.523438 221.851562 L 21.523438 153.570312 C 21.558594 149.472656 18.214844 146.152344 14.117188 146.222656 Z M 14.117188 146.222656 " fill-opacity="1" fill-rule="nonzero"/><path fill="#00f3f7" d="M 346.59375 137.558594 L 346.59375 229.65625 C 346.59375 236.484375 342.367188 242.613281 335.898438 245.128906 L 291.027344 262.546875 L 279.53125 330.1875 C 276.546875 352.945312 241.738281 347.226562 246.394531 324.738281 L 259.421875 247.839844 C 260.394531 242.113281 264.332031 237.296875 269.804688 235.175781 L 296.605469 224.769531 L 296.605469 170.058594 L 286.207031 183.535156 C 283.511719 186.160156 279.894531 187.632812 276.09375 187.632812 L 239.273438 187.632812 C 220.113281 187.632812 220.113281 159.296875 239.273438 159.296875 L 270.238281 159.296875 L 298.667969 128.285156 C 303.097656 123.445312 307.828125 119.671875 313.4375 119.671875 L 329.746094 119.671875 C 340.734375 119.667969 346.59375 129.707031 346.59375 137.558594 Z M 346.59375 137.558594 " fill-opacity="1" fill-rule="nonzero"/><path fill="#00f3f7" d="M 118.839844 117.746094 C 115.492188 117.746094 112.847656 119.054688 111.019531 120.914062 L 95.347656 136.699219 L 107.988281 150.472656 L 134.96875 150.472656 C 142.003906 150.472656 148.40625 153.390625 152.457031 157.871094 C 156.480469 162.347656 158.3125 167.933594 158.3125 173.429688 C 158.3125 178.675781 156.640625 183.992188 153.019531 188.355469 L 177.582031 188.355469 L 177.914062 153.863281 L 193.65625 165.964844 C 197.953125 169.289062 204.308594 169.472656 207.953125 165.46875 L 231.207031 139.816406 C 231.816406 139.277344 232.609375 138.960938 233.417969 138.980469 L 246.042969 138.980469 C 250.207031 138.980469 252.9375 137.941406 254.609375 136.632812 C 256.265625 135.316406 256.96875 133.78125 256.988281 132.058594 C 257.011719 128.601562 253.867188 123.894531 245.699219 122.109375 L 229.214844 118.058594 C 226.472656 118.082031 223.851562 119.078125 221.863281 120.914062 L 202.074219 141.464844 C 200.921875 142.53125 199.117188 142.597656 197.871094 141.605469 L 171.316406 120.914062 C 168.941406 119.054688 166.5 117.746094 163.101562 117.746094 Z M 118.839844 117.746094 " fill-opacity="1" fill-rule="nonzero"/><path fill="#00f3f7" d="M 110.402344 220.179688 L 135.304688 255.488281 L 135.304688 300.472656 C 135.304688 320.625 167.375 320.625 167.375 300.472656 L 167.375 254.058594 L 157.039062 236.414062 C 155.367188 232.730469 158.191406 231.445312 160.433594 234.421875 L 173.367188 251.546875 C 173.664062 252.042969 173.820312 252.585938 173.820312 253.171875 L 173.820312 300.46875 C 173.820312 320.621094 205.605469 320.621094 205.605469 300.46875 L 205.605469 249.875 C 205.605469 246.230469 204.359375 242.660156 202.074219 239.785156 L 188.414062 220.175781 L 110.402344 220.175781 Z M 110.402344 220.179688 " fill-opacity="1" fill-rule="nonzero"/><path fill="#00f3f7" d="M 170.472656 86.671875 C 163.683594 102.160156 145.480469 109.289062 129.761719 102.59375 C 114.089844 95.941406 106.871094 77.941406 113.636719 62.492188 C 120.425781 46.996094 138.628906 39.875 154.300781 46.546875 C 170.019531 53.238281 177.234375 71.199219 170.472656 86.671875 Z M 170.472656 86.671875 " fill-opacity="1" fill-rule="evenodd"/><path fill="#00f3f7" d="M 27.667969 137.558594 L 27.667969 229.65625 C 27.667969 236.484375 31.902344 242.613281 38.347656 245.128906 L 83.242188 262.546875 L 94.730469 330.1875 C 97.695312 352.945312 132.527344 347.226562 127.867188 324.738281 L 114.839844 247.839844 C 113.84375 242.113281 109.90625 237.296875 104.433594 235.175781 L 77.65625 224.769531 L 77.65625 170.058594 L 88.039062 183.535156 C 90.730469 186.160156 94.375 187.632812 98.148438 187.632812 L 134.988281 187.632812 C 154.128906 187.632812 154.128906 159.296875 134.988281 159.296875 L 104.03125 159.296875 L 75.597656 128.285156 C 71.144531 123.445312 66.421875 119.671875 60.832031 119.671875 L 44.496094 119.671875 C 33.527344 119.667969 27.667969 129.707031 27.667969 137.558594 Z M 27.667969 137.558594 " fill-opacity="1" fill-rule="nonzero"/><path fill="#00f3f7" d="M 22.332031 90.402344 C 29.570312 106.9375 49.023438 114.535156 65.804688 107.390625 C 82.542969 100.285156 90.230469 81.085938 83.019531 64.59375 C 75.757812 48.0625 56.324219 40.4375 39.613281 47.566406 C 22.804688 54.710938 15.113281 73.871094 22.332031 90.402344 Z M 22.332031 90.402344 " fill-opacity="1" fill-rule="evenodd"/><path fill="#00f3f7" d="M 351.957031 90.402344 C 344.695312 106.9375 325.273438 114.535156 308.484375 107.390625 C 291.75 100.285156 284.054688 81.085938 291.269531 64.59375 C 298.507812 48.0625 317.964844 40.4375 334.675781 47.566406 C 351.480469 54.710938 359.167969 73.871094 351.957031 90.402344 Z M 351.957031 90.402344 " fill-opacity="1" fill-rule="evenodd"/><path fill="#00f3f7" d="M 236.289062 100.484375 C 232.605469 100.625 228.824219 100.195312 225.003906 99.199219 C 215.257812 96.578125 207.652344 90.554688 202.953125 82.890625 L 192.777344 84.335938 C 189.472656 84.808594 188.1875 81.691406 190.261719 79.042969 L 197.972656 69.179688 C 197.25 64.25 197.472656 59.046875 198.859375 53.871094 C 204.175781 34.082031 223.851562 22.277344 244.160156 27.726562 C 264.472656 33.175781 275.617188 53.238281 270.324219 73.027344 C 266.007812 89.109375 252.210938 99.925781 236.289062 100.484375 Z M 215.867188 70.410156 C 219.707031 70.410156 222.808594 67.285156 222.808594 63.441406 C 222.808594 59.621094 219.710938 56.5 215.867188 56.5 C 212.019531 56.5 208.898438 59.621094 208.898438 63.441406 C 208.898438 67.285156 212.023438 70.410156 215.867188 70.410156 Z M 234.589844 70.410156 C 238.441406 70.410156 241.539062 67.285156 241.558594 63.441406 C 241.539062 59.621094 238.4375 56.5 234.589844 56.5 C 230.746094 56.5 227.625 59.621094 227.625 63.441406 C 227.625 67.285156 230.746094 70.410156 234.589844 70.410156 Z M 253.324219 70.410156 C 257.144531 70.410156 260.269531 67.285156 260.269531 63.441406 C 260.269531 59.621094 257.144531 56.5 253.324219 56.5 C 249.453125 56.5 246.359375 59.621094 246.359375 63.441406 C 246.359375 67.285156 249.453125 70.410156 253.324219 70.410156 Z M 253.324219 70.410156 " fill-opacity="1" fill-rule="evenodd"/></svg>