<svg xmlns="http://www.w3.org/2000/svg" xmlns:xlink="http://www.w3.org/1999/xlink" width="500" zoomAndPan="magnify" viewBox="0 0 375 374.999991" height="500" preserveAspectRatio="xMidYMid meet" version="1.0"><defs><clipPath id="8aa2380998"><path d="M 24.984375 40 L 258 40 L 258 335 L 24.984375 335 Z M 24.984375 40 " clip-rule="nonzero"/></clipPath><clipPath id="6a0f8092a5"><path d="M 24.984375 4 L 258 4 L 258 54 L 24.984375 54 Z M 24.984375 4 " clip-rule="nonzero"/></clipPath><clipPath id="b401dcca9c"><path d="M 24.984375 321 L 258 321 L 258 371 L 24.984375 371 Z M 24.984375 321 " clip-rule="nonzero"/></clipPath></defs><g clip-path="url(#8aa2380998)"><path fill="#00f3f7" d="M 251.039062 334.125 L 31.09375 334.125 C 27.425781 334.125 24.984375 331.683594 24.984375 328.015625 L 24.984375 46.972656 C 24.984375 43.308594 27.425781 40.863281 31.09375 40.863281 L 251.039062 40.863281 C 254.703125 40.863281 257.148438 43.308594 257.148438 46.972656 L 257.148438 95.851562 C 257.148438 99.515625 254.703125 101.960938 251.039062 101.960938 C 247.371094 101.960938 244.929688 99.515625 244.929688 95.851562 L 244.929688 53.085938 L 37.203125 53.085938 L 37.203125 321.90625 L 244.929688 321.90625 L 244.929688 309.6875 C 244.929688 306.023438 247.371094 303.578125 251.039062 303.578125 C 254.703125 303.578125 257.148438 306.023438 257.148438 309.6875 L 257.148438 328.015625 C 257.148438 331.683594 254.703125 334.125 251.039062 334.125 Z M 251.039062 334.125 " fill-opacity="1" fill-rule="nonzero"/></g><g clip-path="url(#6a0f8092a5)"><path fill="#00f3f7" d="M 251.039062 53.085938 L 31.09375 53.085938 C 27.425781 53.085938 24.984375 50.640625 24.984375 46.972656 L 24.984375 22.535156 C 24.984375 12.148438 32.925781 4.207031 43.3125 4.207031 L 238.820312 4.207031 C 249.207031 4.207031 257.148438 12.148438 257.148438 22.535156 L 257.148438 46.972656 C 257.148438 50.640625 254.703125 53.085938 251.039062 53.085938 Z M 37.203125 40.863281 L 244.929688 40.863281 L 244.929688 22.535156 C 244.929688 18.871094 242.484375 16.425781 238.820312 16.425781 L 43.3125 16.425781 C 39.644531 16.425781 37.203125 18.871094 37.203125 22.535156 Z M 37.203125 40.863281 " fill-opacity="1" fill-rule="nonzero"/></g><path fill="#00f3f7" d="M 153.285156 34.753906 L 128.847656 34.753906 C 125.179688 34.753906 122.738281 32.3125 122.738281 28.644531 C 122.738281 24.980469 125.179688 22.535156 128.847656 22.535156 L 153.285156 22.535156 C 156.949219 22.535156 159.394531 24.980469 159.394531 28.644531 C 159.394531 32.3125 156.949219 34.753906 153.285156 34.753906 Z M 153.285156 34.753906 " fill-opacity="1" fill-rule="nonzero"/><g clip-path="url(#b401dcca9c)"><path fill="#00f3f7" d="M 238.820312 370.785156 L 43.3125 370.785156 C 32.925781 370.785156 24.984375 362.839844 24.984375 352.453125 L 24.984375 328.015625 C 24.984375 324.351562 27.425781 321.90625 31.09375 321.90625 L 251.039062 321.90625 C 254.703125 321.90625 257.148438 324.351562 257.148438 328.015625 L 257.148438 352.453125 C 257.148438 362.839844 249.207031 370.785156 238.820312 370.785156 Z M 37.203125 334.125 L 37.203125 352.453125 C 37.203125 356.121094 39.644531 358.566406 43.3125 358.566406 L 238.820312 358.566406 C 242.484375 358.566406 244.929688 356.121094 244.929688 352.453125 L 244.929688 334.125 Z M 37.203125 334.125 " fill-opacity="1" fill-rule="nonzero"/></g><path fill="#00f3f7" d="M 153.285156 352.453125 L 128.847656 352.453125 C 125.179688 352.453125 122.738281 350.011719 122.738281 346.34375 C 122.738281 342.679688 125.179688 340.234375 128.847656 340.234375 L 153.285156 340.234375 C 156.949219 340.234375 159.394531 342.679688 159.394531 346.34375 C 159.394531 350.011719 156.949219 352.453125 153.285156 352.453125 Z M 153.285156 352.453125 " fill-opacity="1" fill-rule="nonzero"/><path fill="#00f3f7" d="M 216.214844 189.328125 C 207.050781 189.328125 199.105469 181.996094 197.882812 172.832031 L 195.441406 148.394531 C 194.21875 138.617188 201.550781 129.453125 211.9375 128.230469 L 242.484375 125.175781 L 248.59375 186.273438 L 218.046875 189.328125 C 217.433594 189.328125 216.824219 189.328125 216.214844 189.328125 Z M 231.488281 138.617188 L 213.160156 140.453125 C 210.105469 141.0625 207.050781 143.507812 207.660156 147.171875 L 210.105469 171.609375 C 210.714844 174.664062 213.769531 177.109375 216.824219 177.109375 L 235.152344 175.277344 Z M 231.488281 138.617188 " fill-opacity="1" fill-rule="nonzero"/><path fill="#00f3f7" d="M 316.410156 210.101562 C 314.578125 210.101562 312.746094 210.101562 310.914062 209.488281 L 235.765625 185.664062 L 230.265625 128.84375 L 299.304688 90.964844 C 304.804688 87.910156 311.523438 87.910156 316.410156 90.964844 C 321.910156 94.019531 325.574219 99.515625 326.1875 105.625 L 334.738281 190.550781 C 335.351562 196.660156 332.90625 202.769531 328.019531 206.433594 C 324.355469 208.269531 320.6875 210.101562 316.410156 210.101562 Z M 314.578125 197.269531 C 316.410156 197.882812 318.855469 197.269531 320.078125 196.050781 C 321.910156 194.828125 322.519531 192.996094 322.519531 190.550781 L 313.96875 105.625 C 313.96875 103.792969 312.746094 101.960938 310.914062 100.738281 C 309.078125 99.515625 307.246094 99.515625 305.414062 100.738281 L 243.707031 134.953125 L 247.984375 175.277344 Z M 314.578125 197.269531 " fill-opacity="1" fill-rule="nonzero"/><path fill="#00f3f7" d="M 320.6875 172.832031 L 315.800781 123.957031 L 321.910156 123.34375 C 335.351562 122.121094 347.570312 131.898438 348.792969 145.339844 C 350.015625 158.78125 340.238281 171 326.796875 172.222656 Z M 329.242188 136.785156 L 331.074219 157.558594 C 334.738281 155.113281 336.574219 150.835938 335.960938 146.5625 C 335.960938 142.285156 332.90625 138.617188 329.242188 136.785156 Z M 329.242188 136.785156 " fill-opacity="1" fill-rule="nonzero"/><path fill="#00f3f7" d="M 235.6875 181.414062 L 247.847656 180.21875 L 250.53125 207.582031 L 238.371094 208.773438 Z M 235.6875 181.414062 " fill-opacity="1" fill-rule="nonzero"/><path fill="#00f3f7" d="M 260.605469 189.371094 L 272.765625 188.179688 L 274.4375 205.203125 L 262.277344 206.394531 Z M 260.605469 189.371094 " fill-opacity="1" fill-rule="nonzero"/><path fill="#00f3f7" d="M 128.847656 211.933594 C 95.242188 211.933594 67.75 184.441406 67.75 150.835938 C 67.75 117.234375 95.242188 89.742188 128.847656 89.742188 C 162.449219 89.742188 189.941406 117.234375 189.941406 150.835938 C 189.941406 184.441406 162.449219 211.933594 128.847656 211.933594 Z M 128.847656 101.960938 C 101.964844 101.960938 79.96875 123.957031 79.96875 150.835938 C 79.96875 177.71875 101.964844 199.714844 128.847656 199.714844 C 155.726562 199.714844 177.722656 177.71875 177.722656 150.835938 C 177.722656 123.957031 155.726562 101.960938 128.847656 101.960938 Z M 128.847656 101.960938 " fill-opacity="1" fill-rule="nonzero"/><path fill="#00f3f7" d="M 208.269531 334.125 L 67.75 334.125 C 64.085938 334.125 61.640625 331.683594 61.640625 328.015625 L 61.640625 254.703125 C 61.640625 230.875 80.582031 211.933594 104.40625 211.933594 L 134.957031 211.933594 C 160.617188 211.933594 184.445312 224.152344 199.71875 244.925781 C 201.550781 247.371094 200.9375 251.644531 198.496094 253.480469 C 196.050781 255.3125 191.773438 254.703125 189.941406 252.257812 C 177.113281 234.539062 156.339844 224.152344 134.957031 224.152344 L 104.40625 224.152344 C 87.300781 224.152344 73.859375 237.59375 73.859375 254.703125 L 73.859375 321.90625 L 202.160156 321.90625 L 202.160156 291.359375 C 202.160156 289.527344 202.160156 287.691406 202.160156 285.859375 C 202.160156 282.195312 204.605469 279.75 207.660156 279.140625 C 211.324219 278.527344 213.769531 281.582031 214.378906 284.636719 C 214.378906 287.082031 214.378906 288.914062 214.378906 291.359375 L 214.378906 328.015625 C 214.378906 331.683594 211.9375 334.125 208.269531 334.125 Z M 208.269531 334.125 " fill-opacity="1" fill-rule="nonzero"/><path fill="#00f3f7" d="M 238.820312 291.359375 L 134.957031 291.359375 C 121.515625 291.359375 110.515625 280.363281 110.515625 266.921875 C 110.515625 253.480469 121.515625 242.480469 134.957031 242.480469 L 226.601562 242.480469 C 230.265625 242.480469 232.710938 240.039062 232.710938 236.371094 L 232.710938 218.042969 C 232.710938 207.65625 240.652344 199.714844 251.039062 199.714844 L 263.257812 199.714844 C 273.644531 199.714844 281.585938 207.65625 281.585938 218.042969 L 281.585938 248.589844 C 281.585938 272.417969 262.648438 291.359375 238.820312 291.359375 Z M 134.957031 254.703125 C 128.234375 254.703125 122.738281 260.199219 122.738281 266.921875 C 122.738281 273.640625 128.234375 279.140625 134.957031 279.140625 L 238.820312 279.140625 C 255.925781 279.140625 269.367188 265.699219 269.367188 248.589844 L 269.367188 218.042969 C 269.367188 214.378906 266.921875 211.933594 263.257812 211.933594 L 251.039062 211.933594 C 247.371094 211.933594 244.929688 214.378906 244.929688 218.042969 L 244.929688 236.371094 C 244.929688 246.757812 236.984375 254.703125 226.601562 254.703125 Z M 134.957031 254.703125 " fill-opacity="1" fill-rule="nonzero"/></svg>