<svg xmlns="http://www.w3.org/2000/svg" xmlns:xlink="http://www.w3.org/1999/xlink" width="500" zoomAndPan="magnify" viewBox="0 0 375 374.999991" height="500" preserveAspectRatio="xMidYMid meet" version="1.0"><defs><clipPath id="70fd82d666"><path d="M 96 32 L 371.1875 32 L 371.1875 240 L 96 240 Z M 96 32 " clip-rule="nonzero"/></clipPath><clipPath id="c02b570f8c"><path d="M 5 219 L 196 219 L 196 365.453125 L 5 365.453125 Z M 5 219 " clip-rule="nonzero"/></clipPath></defs><path fill="#00f3f7" d="M 279.03125 33.113281 C 278.921875 33.113281 278.804688 33.070312 278.71875 32.980469 C 278.546875 32.808594 278.546875 32.527344 278.722656 32.355469 L 281.363281 29.746094 C 281.539062 29.574219 281.816406 29.574219 281.988281 29.746094 C 282.160156 29.921875 282.160156 30.199219 281.984375 30.371094 L 279.34375 32.984375 C 279.257812 33.070312 279.144531 33.113281 279.03125 33.113281 " fill-opacity="1" fill-rule="nonzero"/><path fill="#00f3f7" d="M 288.28125 23.964844 C 288.167969 23.964844 288.054688 23.921875 287.96875 23.835938 C 287.796875 23.664062 287.796875 23.382812 287.96875 23.210938 L 290.613281 20.597656 C 290.785156 20.429688 291.0625 20.429688 291.234375 20.601562 C 291.40625 20.777344 291.40625 21.054688 291.230469 21.226562 L 288.589844 23.839844 C 288.503906 23.921875 288.390625 23.964844 288.28125 23.964844 " fill-opacity="1" fill-rule="nonzero"/><path fill="#00f3f7" d="M 290.890625 33.144531 C 290.777344 33.144531 290.664062 33.101562 290.578125 33.015625 L 287.949219 30.386719 C 287.777344 30.214844 287.777344 29.9375 287.949219 29.761719 C 288.121094 29.589844 288.402344 29.589844 288.574219 29.761719 L 291.203125 32.390625 C 291.375 32.5625 291.375 32.84375 291.203125 33.015625 C 291.117188 33.101562 291.003906 33.144531 290.890625 33.144531 " fill-opacity="1" fill-rule="nonzero"/><path fill="#00f3f7" d="M 281.695312 23.949219 C 281.582031 23.949219 281.46875 23.90625 281.378906 23.820312 L 278.753906 21.195312 C 278.582031 21.019531 278.582031 20.742188 278.753906 20.570312 C 278.925781 20.398438 279.203125 20.398438 279.378906 20.570312 L 282.003906 23.195312 C 282.175781 23.367188 282.175781 23.648438 282.003906 23.820312 C 281.917969 23.90625 281.804688 23.949219 281.695312 23.949219 " fill-opacity="1" fill-rule="nonzero"/><path fill="#00f3f7" d="M 111.089844 92.0625 C 110.984375 92.0625 110.878906 92.027344 110.796875 91.953125 C 110.613281 91.792969 110.597656 91.511719 110.757812 91.332031 L 112.199219 89.707031 C 112.359375 89.523438 112.640625 89.507812 112.824219 89.667969 C 113.003906 89.828125 113.019531 90.109375 112.859375 90.292969 L 111.417969 91.917969 C 111.332031 92.015625 111.210938 92.0625 111.089844 92.0625 " fill-opacity="1" fill-rule="nonzero"/><path fill="#00f3f7" d="M 106.050781 97.75 C 105.945312 97.75 105.839844 97.710938 105.757812 97.636719 C 105.574219 97.476562 105.558594 97.199219 105.71875 97.015625 L 107.160156 95.390625 C 107.320312 95.207031 107.601562 95.191406 107.78125 95.351562 C 107.964844 95.515625 107.980469 95.792969 107.820312 95.976562 L 106.378906 97.601562 C 106.292969 97.699219 106.171875 97.75 106.050781 97.75 " fill-opacity="1" fill-rule="nonzero"/><path fill="#00f3f7" d="M 107.25 92.304688 C 107.144531 92.304688 107.042969 92.269531 106.957031 92.199219 L 105.324219 90.765625 C 105.140625 90.605469 105.125 90.328125 105.285156 90.144531 C 105.445312 89.960938 105.722656 89.941406 105.90625 90.101562 L 107.539062 91.53125 C 107.722656 91.695312 107.742188 91.972656 107.582031 92.15625 C 107.492188 92.257812 107.371094 92.304688 107.25 92.304688 " fill-opacity="1" fill-rule="nonzero"/><path fill="#00f3f7" d="M 112.960938 97.3125 C 112.859375 97.3125 112.753906 97.277344 112.671875 97.207031 L 111.039062 95.773438 C 110.855469 95.613281 110.835938 95.335938 110.996094 95.152344 C 111.15625 94.96875 111.4375 94.949219 111.621094 95.109375 L 113.253906 96.542969 C 113.4375 96.703125 113.453125 96.980469 113.292969 97.164062 C 113.207031 97.261719 113.085938 97.3125 112.960938 97.3125 " fill-opacity="1" fill-rule="nonzero"/><path fill="#00f3f7" d="M 186.867188 328.945312 C 186.75 328.945312 186.636719 328.902344 186.550781 328.8125 C 186.378906 328.640625 186.382812 328.359375 186.558594 328.1875 L 189.230469 325.605469 C 189.402344 325.4375 189.683594 325.441406 189.855469 325.617188 C 190.023438 325.792969 190.019531 326.070312 189.84375 326.242188 L 187.171875 328.824219 C 187.085938 328.90625 186.976562 328.945312 186.867188 328.945312 " fill-opacity="1" fill-rule="nonzero"/><path fill="#00f3f7" d="M 196.210938 319.90625 C 196.097656 319.90625 195.980469 319.859375 195.894531 319.769531 C 195.726562 319.59375 195.730469 319.316406 195.90625 319.144531 L 198.574219 316.5625 C 198.75 316.390625 199.03125 316.398438 199.199219 316.574219 C 199.371094 316.75 199.363281 317.027344 199.1875 317.195312 L 196.519531 319.78125 C 196.433594 319.863281 196.320312 319.90625 196.210938 319.90625 " fill-opacity="1" fill-rule="nonzero"/><path fill="#00f3f7" d="M 198.722656 329.109375 C 198.605469 329.109375 198.492188 329.066406 198.40625 328.976562 L 195.808594 326.320312 C 195.636719 326.148438 195.640625 325.867188 195.8125 325.695312 C 195.988281 325.527344 196.265625 325.527344 196.4375 325.703125 L 199.039062 328.359375 C 199.207031 328.535156 199.207031 328.8125 199.03125 328.984375 C 198.945312 329.066406 198.832031 329.109375 198.722656 329.109375 " fill-opacity="1" fill-rule="nonzero"/><path fill="#00f3f7" d="M 189.625 319.816406 C 189.511719 319.816406 189.398438 319.769531 189.308594 319.683594 L 186.710938 317.027344 C 186.539062 316.855469 186.542969 316.574219 186.71875 316.402344 C 186.890625 316.230469 187.171875 316.234375 187.34375 316.410156 L 189.941406 319.066406 C 190.113281 319.238281 190.109375 319.519531 189.933594 319.6875 C 189.847656 319.773438 189.734375 319.816406 189.625 319.816406 " fill-opacity="1" fill-rule="nonzero"/><path fill="#00f3f7" d="M 340.222656 223.226562 C 340.109375 223.226562 339.996094 223.183594 339.910156 223.097656 C 339.738281 222.925781 339.738281 222.644531 339.914062 222.472656 L 342.554688 219.859375 C 342.730469 219.6875 343.007812 219.691406 343.175781 219.863281 C 343.351562 220.039062 343.347656 220.316406 343.175781 220.488281 L 340.535156 223.101562 C 340.445312 223.1875 340.335938 223.226562 340.222656 223.226562 " fill-opacity="1" fill-rule="nonzero"/><path fill="#00f3f7" d="M 349.472656 214.085938 C 349.355469 214.085938 349.242188 214.039062 349.15625 213.953125 C 348.988281 213.777344 348.988281 213.5 349.160156 213.328125 L 351.800781 210.714844 C 351.976562 210.546875 352.253906 210.546875 352.429688 210.71875 C 352.597656 210.890625 352.597656 211.171875 352.425781 211.34375 L 349.78125 213.957031 C 349.695312 214.042969 349.582031 214.085938 349.472656 214.085938 " fill-opacity="1" fill-rule="nonzero"/><path fill="#00f3f7" d="M 352.082031 223.261719 C 351.96875 223.261719 351.855469 223.21875 351.765625 223.128906 L 349.140625 220.503906 C 348.96875 220.332031 348.96875 220.050781 349.140625 219.878906 C 349.3125 219.707031 349.59375 219.707031 349.765625 219.878906 L 352.394531 222.507812 C 352.566406 222.679688 352.566406 222.957031 352.394531 223.128906 C 352.308594 223.21875 352.191406 223.261719 352.082031 223.261719 " fill-opacity="1" fill-rule="nonzero"/><path fill="#00f3f7" d="M 342.882812 214.066406 C 342.769531 214.066406 342.65625 214.023438 342.570312 213.9375 L 339.945312 211.308594 C 339.769531 211.136719 339.769531 210.859375 339.945312 210.6875 C 340.113281 210.511719 340.394531 210.511719 340.566406 210.6875 L 343.195312 213.3125 C 343.367188 213.484375 343.367188 213.765625 343.195312 213.9375 C 343.109375 214.023438 342.996094 214.066406 342.882812 214.066406 " fill-opacity="1" fill-rule="nonzero"/><path fill="#00f3f7" d="M 311.667969 29.363281 C 309.140625 29.363281 307.085938 31.421875 307.085938 33.949219 C 307.085938 36.476562 309.140625 38.535156 311.667969 38.535156 C 314.195312 38.535156 316.253906 36.476562 316.253906 33.949219 C 316.253906 31.421875 314.195312 29.363281 311.667969 29.363281 Z M 311.667969 39.417969 C 308.652344 39.417969 306.199219 36.964844 306.199219 33.949219 C 306.199219 30.933594 308.652344 28.484375 311.667969 28.484375 C 314.683594 28.484375 317.136719 30.933594 317.136719 33.949219 C 317.136719 36.964844 314.683594 39.417969 311.667969 39.417969 " fill-opacity="1" fill-rule="nonzero"/><path fill="#00f3f7" d="M 324.902344 47.019531 C 323.214844 47.019531 321.84375 48.390625 321.84375 50.078125 C 321.84375 51.761719 323.214844 53.132812 324.902344 53.132812 C 326.585938 53.132812 327.957031 51.761719 327.957031 50.078125 C 327.957031 48.390625 326.585938 47.019531 324.902344 47.019531 Z M 324.902344 54.015625 C 322.730469 54.015625 320.960938 52.25 320.960938 50.078125 C 320.960938 47.902344 322.730469 46.136719 324.902344 46.136719 C 327.074219 46.136719 328.839844 47.902344 328.839844 50.078125 C 328.839844 52.25 327.074219 54.015625 324.902344 54.015625 " fill-opacity="1" fill-rule="nonzero"/><g clip-path="url(#70fd82d666)"><path fill="#00f3f7" d="M 219.664062 33.300781 C 219.425781 33.300781 219.234375 33.113281 219.21875 32.878906 C 219.210938 32.636719 219.398438 32.429688 219.640625 32.417969 C 221.417969 32.335938 223.203125 32.289062 224.953125 32.277344 C 224.957031 32.277344 224.957031 32.277344 224.957031 32.277344 C 225.199219 32.277344 225.398438 32.472656 225.402344 32.71875 C 225.402344 32.960938 225.203125 33.160156 224.960938 33.160156 C 223.222656 33.171875 221.445312 33.21875 219.683594 33.300781 C 219.675781 33.300781 219.667969 33.300781 219.664062 33.300781 Z M 235.539062 33.519531 C 235.527344 33.519531 235.515625 33.519531 235.507812 33.519531 C 233.769531 33.386719 231.996094 33.289062 230.238281 33.230469 C 229.996094 33.222656 229.804688 33.019531 229.8125 32.777344 C 229.824219 32.53125 230.011719 32.339844 230.269531 32.351562 C 232.039062 32.410156 233.824219 32.503906 235.570312 32.640625 C 235.816406 32.65625 236 32.871094 235.980469 33.113281 C 235.964844 33.34375 235.769531 33.519531 235.539062 33.519531 Z M 209.105469 34.175781 C 208.886719 34.175781 208.695312 34.011719 208.667969 33.789062 C 208.640625 33.546875 208.8125 33.328125 209.054688 33.300781 C 210.816406 33.085938 212.597656 32.90625 214.339844 32.761719 C 214.585938 32.742188 214.796875 32.921875 214.816406 33.164062 C 214.835938 33.40625 214.65625 33.617188 214.414062 33.640625 C 212.679688 33.785156 210.914062 33.964844 209.15625 34.175781 C 209.140625 34.175781 209.125 34.175781 209.105469 34.175781 Z M 246.046875 34.773438 C 246.023438 34.773438 245.996094 34.773438 245.976562 34.769531 C 244.257812 34.488281 242.5 34.238281 240.753906 34.03125 C 240.511719 34 240.34375 33.78125 240.371094 33.539062 C 240.398438 33.296875 240.617188 33.125 240.859375 33.152344 C 242.617188 33.363281 244.386719 33.613281 246.121094 33.898438 C 246.359375 33.9375 246.523438 34.164062 246.484375 34.40625 C 246.449219 34.621094 246.257812 34.773438 246.046875 34.773438 Z M 198.640625 35.796875 C 198.429688 35.796875 198.246094 35.644531 198.203125 35.433594 C 198.160156 35.195312 198.316406 34.960938 198.558594 34.917969 C 200.300781 34.589844 202.0625 34.285156 203.792969 34.019531 C 204.03125 33.980469 204.257812 34.148438 204.296875 34.390625 C 204.332031 34.628906 204.167969 34.855469 203.925781 34.894531 C 202.207031 35.160156 200.457031 35.460938 198.722656 35.785156 C 198.691406 35.792969 198.664062 35.796875 198.640625 35.796875 Z M 256.402344 36.964844 C 256.363281 36.964844 256.328125 36.960938 256.289062 36.949219 C 254.601562 36.511719 252.875 36.105469 251.15625 35.742188 C 250.917969 35.691406 250.765625 35.457031 250.816406 35.21875 C 250.867188 34.980469 251.101562 34.824219 251.339844 34.878906 C 253.070312 35.246094 254.808594 35.652344 256.507812 36.097656 C 256.746094 36.15625 256.886719 36.398438 256.828125 36.632812 C 256.777344 36.832031 256.59375 36.964844 256.402344 36.964844 Z M 188.296875 38.078125 C 188.097656 38.078125 187.917969 37.945312 187.867188 37.746094 C 187.808594 37.511719 187.953125 37.269531 188.1875 37.210938 C 189.910156 36.773438 191.648438 36.363281 193.355469 35.988281 C 193.589844 35.933594 193.828125 36.082031 193.878906 36.320312 C 193.933594 36.558594 193.785156 36.792969 193.542969 36.847656 C 191.847656 37.222656 190.117188 37.632812 188.402344 38.066406 C 188.367188 38.078125 188.332031 38.078125 188.296875 38.078125 Z M 266.5 40.109375 C 266.453125 40.109375 266.402344 40.101562 266.351562 40.082031 C 264.707031 39.484375 263.027344 38.917969 261.355469 38.398438 C 261.125 38.324219 260.996094 38.078125 261.066406 37.84375 C 261.140625 37.613281 261.386719 37.480469 261.621094 37.554688 C 263.304688 38.078125 265 38.648438 266.65625 39.253906 C 266.882812 39.335938 267.003906 39.589844 266.917969 39.816406 C 266.851562 40 266.683594 40.109375 266.5 40.109375 Z M 178.101562 40.964844 C 177.914062 40.964844 177.742188 40.84375 177.683594 40.652344 C 177.609375 40.421875 177.742188 40.171875 177.972656 40.101562 C 178.601562 39.90625 179.234375 39.710938 179.871094 39.519531 C 180.9375 39.199219 182.003906 38.886719 183.058594 38.585938 C 183.292969 38.519531 183.539062 38.65625 183.605469 38.890625 C 183.671875 39.125 183.535156 39.367188 183.300781 39.4375 C 182.25 39.734375 181.1875 40.046875 180.125 40.367188 C 179.492188 40.558594 178.863281 40.75 178.234375 40.945312 C 178.191406 40.957031 178.148438 40.964844 178.101562 40.964844 Z M 276.261719 44.199219 C 276.199219 44.199219 276.132812 44.1875 276.074219 44.15625 C 274.492188 43.40625 272.875 42.679688 271.261719 42.003906 C 271.035156 41.910156 270.929688 41.648438 271.023438 41.425781 C 271.121094 41.199219 271.378906 41.09375 271.601562 41.191406 C 273.226562 41.871094 274.859375 42.601562 276.453125 43.359375 C 276.671875 43.464844 276.769531 43.730469 276.660156 43.949219 C 276.585938 44.105469 276.425781 44.199219 276.261719 44.199219 Z M 168.039062 44.277344 C 167.859375 44.277344 167.6875 44.160156 167.625 43.980469 C 167.542969 43.75 167.664062 43.496094 167.894531 43.414062 C 169.542969 42.839844 171.234375 42.269531 172.917969 41.710938 C 173.152344 41.636719 173.402344 41.765625 173.476562 41.992188 C 173.554688 42.226562 173.425781 42.476562 173.195312 42.550781 C 171.515625 43.105469 169.832031 43.675781 168.1875 44.25 C 168.140625 44.269531 168.089844 44.277344 168.039062 44.277344 Z M 158.113281 47.960938 C 157.9375 47.960938 157.769531 47.855469 157.699219 47.683594 C 157.609375 47.457031 157.722656 47.199219 157.949219 47.109375 C 159.578125 46.46875 161.242188 45.832031 162.90625 45.214844 C 163.132812 45.128906 163.386719 45.246094 163.472656 45.476562 C 163.558594 45.703125 163.441406 45.957031 163.210938 46.042969 C 161.554688 46.65625 159.894531 47.292969 158.273438 47.933594 C 158.21875 47.953125 158.164062 47.960938 158.113281 47.960938 Z M 285.585938 49.207031 C 285.507812 49.207031 285.433594 49.183594 285.363281 49.144531 C 283.859375 48.242188 282.316406 47.367188 280.777344 46.539062 C 280.5625 46.421875 280.480469 46.15625 280.59375 45.941406 C 280.710938 45.726562 280.976562 45.644531 281.195312 45.761719 C 282.746094 46.59375 284.300781 47.476562 285.816406 48.386719 C 286.023438 48.511719 286.089844 48.78125 285.96875 48.992188 C 285.882812 49.128906 285.738281 49.207031 285.585938 49.207031 Z M 148.339844 52.054688 C 148.171875 52.054688 148.011719 51.957031 147.9375 51.792969 C 147.839844 51.570312 147.9375 51.308594 148.164062 51.210938 C 149.757812 50.5 151.398438 49.792969 153.035156 49.109375 C 153.257812 49.015625 153.515625 49.121094 153.613281 49.34375 C 153.707031 49.570312 153.597656 49.828125 153.375 49.921875 C 151.746094 50.605469 150.113281 51.308594 148.519531 52.015625 C 148.460938 52.042969 148.402344 52.054688 148.339844 52.054688 Z M 294.402344 55.070312 C 294.3125 55.070312 294.21875 55.039062 294.140625 54.984375 C 292.722656 53.945312 291.273438 52.925781 289.820312 51.960938 C 289.617188 51.824219 289.5625 51.550781 289.699219 51.347656 C 289.828125 51.148438 290.105469 51.089844 290.308594 51.222656 C 291.773438 52.199219 293.238281 53.222656 294.664062 54.269531 C 294.859375 54.414062 294.902344 54.691406 294.757812 54.886719 C 294.667969 55.007812 294.539062 55.070312 294.402344 55.070312 Z M 138.765625 56.585938 C 138.605469 56.585938 138.449219 56.496094 138.371094 56.34375 C 138.261719 56.125 138.351562 55.859375 138.570312 55.75 C 140.132812 54.960938 141.738281 54.179688 143.339844 53.421875 C 143.558594 53.320312 143.824219 53.414062 143.925781 53.632812 C 144.03125 53.855469 143.9375 54.117188 143.714844 54.222656 C 142.121094 54.976562 140.523438 55.757812 138.964844 56.535156 C 138.902344 56.570312 138.832031 56.585938 138.765625 56.585938 Z M 129.429688 61.582031 C 129.273438 61.582031 129.125 61.5 129.042969 61.359375 C 128.921875 61.148438 128.996094 60.875 129.207031 60.757812 C 130.726562 59.890625 132.292969 59.027344 133.855469 58.191406 C 134.074219 58.078125 134.339844 58.160156 134.453125 58.375 C 134.570312 58.589844 134.488281 58.855469 134.273438 58.96875 C 132.714844 59.804688 131.160156 60.664062 129.644531 61.523438 C 129.578125 61.5625 129.5 61.582031 129.429688 61.582031 Z M 302.640625 61.71875 C 302.535156 61.71875 302.433594 61.679688 302.347656 61.605469 C 301.03125 60.445312 299.675781 59.300781 298.320312 58.199219 C 298.128906 58.046875 298.097656 57.773438 298.25 57.582031 C 298.40625 57.390625 298.6875 57.359375 298.875 57.515625 C 300.242188 58.621094 301.609375 59.773438 302.933594 60.945312 C 303.113281 61.109375 303.132812 61.386719 302.96875 61.570312 C 302.882812 61.667969 302.761719 61.71875 302.640625 61.71875 Z M 120.371094 67.074219 C 120.226562 67.074219 120.085938 67 120 66.871094 C 119.867188 66.667969 119.925781 66.394531 120.132812 66.261719 C 121.597656 65.3125 123.113281 64.363281 124.632812 63.445312 C 124.839844 63.316406 125.113281 63.382812 125.238281 63.59375 C 125.363281 63.800781 125.296875 64.074219 125.089844 64.199219 C 123.578125 65.113281 122.070312 66.058594 120.609375 67 C 120.535156 67.050781 120.453125 67.074219 120.371094 67.074219 Z M 310.25 69.0625 C 310.128906 69.0625 310.015625 69.015625 309.929688 68.925781 C 308.722656 67.65625 307.476562 66.398438 306.222656 65.1875 C 306.046875 65.019531 306.042969 64.742188 306.210938 64.566406 C 306.382812 64.390625 306.660156 64.382812 306.835938 64.554688 C 308.097656 65.773438 309.351562 67.039062 310.570312 68.316406 C 310.738281 68.496094 310.730469 68.773438 310.550781 68.941406 C 310.464844 69.023438 310.359375 69.0625 310.25 69.0625 Z M 111.65625 73.09375 C 111.519531 73.09375 111.386719 73.03125 111.300781 72.914062 C 111.15625 72.71875 111.199219 72.441406 111.394531 72.296875 C 112.800781 71.257812 114.253906 70.21875 115.714844 69.210938 C 115.917969 69.070312 116.191406 69.125 116.332031 69.324219 C 116.46875 69.523438 116.417969 69.800781 116.21875 69.9375 C 114.765625 70.941406 113.316406 71.972656 111.917969 73.007812 C 111.839844 73.0625 111.746094 73.09375 111.65625 73.09375 Z M 317.199219 77.019531 C 317.070312 77.019531 316.941406 76.964844 316.855469 76.855469 C 315.753906 75.488281 314.617188 74.128906 313.472656 72.820312 C 313.3125 72.632812 313.332031 72.355469 313.515625 72.195312 C 313.699219 72.035156 313.976562 72.054688 314.136719 72.238281 C 315.289062 73.558594 316.4375 74.925781 317.539062 76.304688 C 317.691406 76.492188 317.664062 76.773438 317.476562 76.925781 C 317.394531 76.988281 317.296875 77.019531 317.199219 77.019531 Z M 103.347656 79.664062 C 103.222656 79.664062 103.097656 79.609375 103.011719 79.503906 C 102.855469 79.324219 102.878906 79.042969 103.0625 78.886719 C 104.398438 77.753906 105.78125 76.621094 107.171875 75.523438 C 107.363281 75.367188 107.640625 75.402344 107.792969 75.59375 C 107.945312 75.785156 107.910156 76.0625 107.71875 76.214844 C 106.335938 77.308594 104.960938 78.433594 103.632812 79.558594 C 103.550781 79.628906 103.449219 79.664062 103.347656 79.664062 Z M 323.480469 85.519531 C 323.339844 85.519531 323.199219 85.453125 323.113281 85.328125 C 322.128906 83.875 321.105469 82.429688 320.066406 81.027344 C 319.921875 80.832031 319.96875 80.558594 320.164062 80.414062 C 320.359375 80.265625 320.632812 80.308594 320.777344 80.503906 C 321.820312 81.914062 322.855469 83.371094 323.84375 84.832031 C 323.980469 85.03125 323.929688 85.308594 323.726562 85.445312 C 323.652344 85.496094 323.566406 85.519531 323.480469 85.519531 Z M 96.761719 85.605469 C 96.644531 85.605469 96.527344 85.558594 96.441406 85.46875 C 96.273438 85.292969 96.277344 85.011719 96.453125 84.84375 C 97.3125 84.019531 98.191406 83.195312 99.074219 82.390625 C 99.253906 82.230469 99.53125 82.242188 99.699219 82.421875 C 99.863281 82.601562 99.847656 82.878906 99.667969 83.046875 C 98.792969 83.84375 97.917969 84.664062 97.066406 85.480469 C 96.980469 85.5625 96.871094 85.605469 96.761719 85.605469 Z M 329.078125 94.480469 C 328.921875 94.480469 328.773438 94.40625 328.695312 94.261719 C 327.824219 92.742188 326.914062 91.21875 325.992188 89.742188 C 325.859375 89.535156 325.921875 89.261719 326.128906 89.132812 C 326.335938 89.003906 326.609375 89.066406 326.738281 89.273438 C 327.667969 90.761719 328.585938 92.292969 329.457031 93.824219 C 329.578125 94.035156 329.507812 94.304688 329.296875 94.425781 C 329.226562 94.464844 329.152344 94.480469 329.078125 94.480469 Z M 333.992188 103.871094 C 333.824219 103.871094 333.667969 103.777344 333.59375 103.617188 C 332.839844 102.035156 332.042969 100.445312 331.230469 98.894531 C 331.117188 98.675781 331.199219 98.410156 331.417969 98.296875 C 331.632812 98.1875 331.898438 98.269531 332.011719 98.484375 C 332.832031 100.046875 333.632812 101.644531 334.386719 103.238281 C 334.496094 103.460938 334.398438 103.71875 334.183594 103.828125 C 334.121094 103.855469 334.054688 103.871094 333.992188 103.871094 Z M 338.195312 113.597656 C 338.015625 113.597656 337.851562 113.488281 337.785156 113.316406 C 337.148438 111.679688 336.472656 110.039062 335.777344 108.429688 C 335.679688 108.203125 335.785156 107.941406 336.007812 107.847656 C 336.230469 107.75 336.492188 107.851562 336.585938 108.078125 C 337.289062 109.695312 337.964844 111.351562 338.605469 112.992188 C 338.695312 113.222656 338.582031 113.476562 338.355469 113.566406 C 338.300781 113.585938 338.25 113.597656 338.195312 113.597656 Z M 341.667969 123.605469 C 341.480469 123.605469 341.304688 123.484375 341.246094 123.292969 C 340.734375 121.621094 340.183594 119.933594 339.605469 118.269531 C 339.523438 118.042969 339.648438 117.789062 339.878906 117.710938 C 340.109375 117.628906 340.359375 117.75 340.441406 117.980469 C 341.019531 119.652344 341.574219 121.351562 342.089844 123.035156 C 342.160156 123.269531 342.03125 123.511719 341.800781 123.585938 C 341.753906 123.597656 341.710938 123.605469 341.667969 123.605469 Z M 327.769531 127.4375 C 327.75 127.4375 327.734375 127.4375 327.714844 127.433594 C 325.964844 127.21875 324.199219 127.085938 322.476562 127.039062 C 322.234375 127.035156 322.042969 126.835938 322.046875 126.589844 C 322.054688 126.347656 322.253906 126.15625 322.5 126.160156 C 324.25 126.203125 326.042969 126.335938 327.824219 126.558594 C 328.066406 126.589844 328.234375 126.808594 328.207031 127.050781 C 328.179688 127.273438 327.988281 127.4375 327.769531 127.4375 Z M 311.957031 127.855469 C 311.746094 127.855469 311.5625 127.707031 311.523438 127.496094 C 311.480469 127.253906 311.636719 127.027344 311.878906 126.980469 C 313.613281 126.660156 315.394531 126.429688 317.167969 126.292969 C 317.417969 126.273438 317.621094 126.453125 317.640625 126.699219 C 317.660156 126.941406 317.476562 127.15625 317.234375 127.171875 C 315.488281 127.304688 313.742188 127.535156 312.039062 127.851562 C 312.007812 127.855469 311.984375 127.855469 311.957031 127.855469 Z M 338.117188 129.652344 C 338.074219 129.652344 338.03125 129.644531 337.988281 129.632812 C 336.289062 129.117188 334.578125 128.671875 332.898438 128.3125 C 332.65625 128.261719 332.507812 128.027344 332.558594 127.789062 C 332.609375 127.550781 332.847656 127.398438 333.082031 127.449219 C 334.785156 127.816406 336.523438 128.265625 338.242188 128.789062 C 338.476562 128.859375 338.609375 129.105469 338.539062 129.335938 C 338.480469 129.527344 338.304688 129.652344 338.117188 129.652344 Z M 301.835938 130.882812 C 301.660156 130.882812 301.5 130.78125 301.425781 130.613281 C 301.332031 130.386719 301.4375 130.128906 301.660156 130.035156 C 303.300781 129.347656 304.996094 128.738281 306.6875 128.230469 C 306.921875 128.164062 307.167969 128.292969 307.238281 128.53125 C 307.308594 128.761719 307.171875 129.007812 306.941406 129.078125 C 305.277344 129.574219 303.617188 130.171875 302.007812 130.851562 C 301.949219 130.871094 301.890625 130.882812 301.835938 130.882812 Z M 344.386719 133.847656 C 344.183594 133.847656 344 133.707031 343.953125 133.503906 C 343.808594 132.855469 343.65625 132.207031 343.5 131.554688 C 343.335938 131.492188 343.171875 131.421875 343.003906 131.359375 C 342.777344 131.273438 342.644531 131.011719 342.730469 130.78125 C 342.8125 130.566406 343.03125 130.445312 343.246094 130.507812 C 343.066406 129.796875 342.886719 129.078125 342.699219 128.371094 C 342.632812 128.136719 342.777344 127.894531 343.011719 127.832031 C 343.246094 127.769531 343.488281 127.910156 343.550781 128.144531 C 343.792969 129.0625 344.027344 129.984375 344.253906 130.90625 C 345.601562 131.457031 346.910156 132.058594 348.15625 132.703125 C 348.371094 132.8125 348.457031 133.078125 348.347656 133.296875 C 348.234375 133.515625 347.96875 133.597656 347.753906 133.488281 C 346.710938 132.949219 345.625 132.441406 344.507812 131.96875 C 344.613281 132.414062 344.71875 132.863281 344.816406 133.308594 C 344.871094 133.546875 344.722656 133.78125 344.484375 133.835938 C 344.449219 133.84375 344.417969 133.847656 344.386719 133.847656 Z M 292.5625 135.960938 C 292.421875 135.960938 292.28125 135.894531 292.199219 135.769531 C 292.058594 135.566406 292.113281 135.292969 292.308594 135.15625 C 293.785156 134.144531 295.316406 133.203125 296.855469 132.355469 C 297.074219 132.238281 297.339844 132.316406 297.457031 132.53125 C 297.574219 132.746094 297.492188 133.015625 297.28125 133.132812 C 295.765625 133.964844 294.261719 134.886719 292.8125 135.882812 C 292.734375 135.9375 292.648438 135.960938 292.5625 135.960938 Z M 356.65625 139.511719 C 356.550781 139.511719 356.445312 139.476562 356.359375 139.398438 C 355.082031 138.246094 353.699219 137.160156 352.25 136.167969 C 352.050781 136.027344 352 135.753906 352.136719 135.550781 C 352.273438 135.351562 352.546875 135.300781 352.746094 135.4375 C 354.230469 136.453125 355.644531 137.566406 356.953125 138.742188 C 357.132812 138.90625 357.144531 139.1875 356.984375 139.367188 C 356.898438 139.464844 356.777344 139.511719 356.65625 139.511719 Z M 284.433594 142.734375 C 284.324219 142.734375 284.210938 142.691406 284.121094 142.605469 C 283.953125 142.433594 283.953125 142.15625 284.121094 141.980469 C 285.390625 140.71875 286.714844 139.507812 288.058594 138.382812 C 288.25 138.222656 288.527344 138.25 288.683594 138.4375 C 288.839844 138.625 288.816406 138.902344 288.625 139.058594 C 287.300781 140.167969 285.996094 141.359375 284.746094 142.605469 C 284.664062 142.691406 284.546875 142.734375 284.433594 142.734375 Z M 346.300781 144.269531 C 346.085938 144.269531 345.898438 144.109375 345.863281 143.886719 C 345.617188 142.167969 345.332031 140.414062 345.015625 138.675781 C 344.96875 138.4375 345.128906 138.207031 345.367188 138.164062 C 345.609375 138.117188 345.839844 138.277344 345.882812 138.515625 C 346.203125 140.265625 346.492188 142.03125 346.738281 143.765625 C 346.773438 144.003906 346.605469 144.230469 346.363281 144.261719 C 346.34375 144.265625 346.320312 144.269531 346.300781 144.269531 Z M 363.441406 147.597656 C 363.292969 147.597656 363.152344 147.527344 363.066406 147.390625 C 362.132812 145.910156 361.097656 144.484375 359.992188 143.164062 C 359.832031 142.976562 359.855469 142.699219 360.042969 142.539062 C 360.230469 142.382812 360.511719 142.40625 360.667969 142.597656 C 361.800781 143.949219 362.863281 145.40625 363.8125 146.921875 C 363.941406 147.128906 363.878906 147.398438 363.671875 147.53125 C 363.601562 147.574219 363.519531 147.597656 363.441406 147.597656 Z M 277.59375 150.8125 C 277.507812 150.8125 277.417969 150.789062 277.339844 150.734375 C 277.140625 150.589844 277.09375 150.316406 277.238281 150.117188 C 278.273438 148.667969 279.378906 147.25 280.511719 145.90625 C 280.667969 145.722656 280.949219 145.699219 281.136719 145.855469 C 281.320312 146.011719 281.34375 146.292969 281.1875 146.476562 C 280.066406 147.804688 278.980469 149.203125 277.953125 150.628906 C 277.867188 150.75 277.730469 150.8125 277.59375 150.8125 Z M 347.351562 154.8125 C 347.121094 154.8125 346.925781 154.628906 346.914062 154.394531 C 346.816406 152.660156 346.675781 150.886719 346.503906 149.132812 C 346.476562 148.890625 346.65625 148.671875 346.894531 148.648438 C 347.144531 148.621094 347.355469 148.800781 347.382812 149.042969 C 347.558594 150.8125 347.695312 152.597656 347.792969 154.347656 C 347.808594 154.589844 347.621094 154.796875 347.378906 154.8125 C 347.367188 154.8125 347.359375 154.8125 347.351562 154.8125 Z M 367.898438 157.175781 C 367.710938 157.175781 367.542969 157.058594 367.480469 156.871094 C 366.917969 155.183594 366.273438 153.542969 365.554688 151.996094 C 365.453125 151.773438 365.550781 151.507812 365.773438 151.40625 C 365.992188 151.308594 366.257812 151.402344 366.359375 151.625 C 367.089844 153.203125 367.746094 154.875 368.316406 156.597656 C 368.394531 156.828125 368.265625 157.078125 368.039062 157.15625 C 367.992188 157.167969 367.945312 157.175781 367.898438 157.175781 Z M 272.105469 159.871094 C 272.039062 159.871094 271.972656 159.855469 271.910156 159.824219 C 271.691406 159.710938 271.605469 159.445312 271.714844 159.230469 C 272.519531 157.648438 273.386719 156.078125 274.300781 154.566406 C 274.425781 154.359375 274.699219 154.292969 274.90625 154.421875 C 275.117188 154.546875 275.183594 154.820312 275.058594 155.023438 C 274.152344 156.519531 273.296875 158.066406 272.5 159.628906 C 272.425781 159.78125 272.269531 159.871094 272.105469 159.871094 Z M 347.449219 165.40625 C 347.441406 165.40625 347.433594 165.40625 347.425781 165.402344 C 347.183594 165.394531 346.996094 165.1875 347.003906 164.945312 C 347.0625 163.546875 347.089844 162.109375 347.089844 160.6875 C 347.089844 160.347656 347.089844 160.011719 347.082031 159.671875 C 347.082031 159.425781 347.28125 159.226562 347.523438 159.222656 C 347.765625 159.238281 347.964844 159.417969 347.96875 159.664062 C 347.96875 160.003906 347.972656 160.34375 347.972656 160.6875 C 347.972656 162.125 347.945312 163.566406 347.886719 164.980469 C 347.875 165.214844 347.679688 165.40625 347.449219 165.40625 Z M 370.222656 167.503906 C 370.007812 167.503906 369.816406 167.34375 369.785156 167.121094 C 369.546875 165.347656 369.242188 163.601562 368.867188 161.941406 C 368.816406 161.703125 368.96875 161.464844 369.203125 161.414062 C 369.441406 161.363281 369.679688 161.507812 369.734375 161.746094 C 370.105469 163.433594 370.417969 165.203125 370.660156 167.003906 C 370.695312 167.246094 370.523438 167.46875 370.28125 167.5 C 370.261719 167.503906 370.242188 167.503906 370.222656 167.503906 Z M 268.046875 169.652344 C 268.003906 169.652344 267.957031 169.644531 267.910156 169.628906 C 267.675781 169.550781 267.554688 169.304688 267.628906 169.070312 C 268.179688 167.402344 268.800781 165.71875 269.484375 164.070312 C 269.578125 163.847656 269.835938 163.742188 270.0625 163.832031 C 270.289062 163.925781 270.394531 164.1875 270.300781 164.410156 C 269.625 166.035156 269.007812 167.695312 268.46875 169.347656 C 268.40625 169.53125 268.234375 169.652344 268.046875 169.652344 Z M 346.449219 175.945312 C 346.425781 175.945312 346.402344 175.945312 346.378906 175.941406 C 346.140625 175.902344 345.976562 175.679688 346.011719 175.4375 C 346.269531 173.734375 346.488281 171.976562 346.65625 170.207031 C 346.675781 169.964844 346.886719 169.785156 347.136719 169.808594 C 347.378906 169.828125 347.558594 170.046875 347.53125 170.289062 C 347.367188 172.074219 347.148438 173.851562 346.882812 175.570312 C 346.851562 175.789062 346.664062 175.945312 346.449219 175.945312 Z M 370.867188 178.078125 L 370.863281 178.078125 C 370.621094 178.078125 370.425781 177.878906 370.425781 177.636719 L 370.425781 177.210938 C 370.425781 175.566406 370.378906 173.9375 370.289062 172.367188 C 370.273438 172.121094 370.457031 171.914062 370.699219 171.898438 C 370.9375 171.882812 371.152344 172.070312 371.167969 172.3125 C 371.261719 173.902344 371.308594 175.550781 371.308594 177.210938 L 371.308594 177.640625 C 371.304688 177.882812 371.109375 178.078125 370.867188 178.078125 Z M 265.570312 179.945312 C 265.550781 179.945312 265.527344 179.941406 265.507812 179.941406 C 265.265625 179.902344 265.097656 179.675781 265.136719 179.4375 C 265.398438 177.710938 265.746094 175.949219 266.167969 174.203125 C 266.226562 173.964844 266.464844 173.816406 266.699219 173.875 C 266.9375 173.933594 267.082031 174.171875 267.027344 174.410156 C 266.609375 176.128906 266.269531 177.867188 266.007812 179.566406 C 265.976562 179.785156 265.789062 179.945312 265.570312 179.945312 Z M 344.171875 186.285156 C 344.132812 186.285156 344.089844 186.28125 344.050781 186.265625 C 343.816406 186.199219 343.679688 185.953125 343.75 185.71875 C 344.234375 184.070312 344.671875 182.355469 345.050781 180.617188 C 345.105469 180.378906 345.339844 180.226562 345.578125 180.28125 C 345.816406 180.332031 345.96875 180.570312 345.914062 180.808594 C 345.53125 182.5625 345.085938 184.300781 344.59375 185.96875 C 344.542969 186.160156 344.363281 186.285156 344.171875 186.285156 Z M 370.242188 188.65625 C 370.226562 188.65625 370.210938 188.65625 370.195312 188.65625 C 369.953125 188.628906 369.777344 188.410156 369.800781 188.167969 C 370 186.386719 370.148438 184.617188 370.25 182.910156 C 370.265625 182.664062 370.46875 182.480469 370.714844 182.496094 C 370.960938 182.507812 371.144531 182.71875 371.128906 182.960938 C 371.03125 184.683594 370.875 186.46875 370.679688 188.265625 C 370.65625 188.492188 370.464844 188.65625 370.242188 188.65625 Z M 265.019531 190.507812 C 264.789062 190.507812 264.59375 190.324219 264.578125 190.089844 C 264.53125 189.238281 264.507812 188.363281 264.507812 187.484375 C 264.507812 186.589844 264.53125 185.667969 264.585938 184.746094 C 264.597656 184.503906 264.800781 184.320312 265.050781 184.332031 C 265.292969 184.34375 265.476562 184.550781 265.464844 184.796875 C 265.417969 185.699219 265.390625 186.605469 265.390625 187.484375 C 265.390625 188.347656 265.414062 189.207031 265.464844 190.042969 C 265.476562 190.285156 265.289062 190.492188 265.046875 190.507812 C 265.035156 190.507812 265.027344 190.507812 265.019531 190.507812 Z M 340.378906 196.164062 C 340.316406 196.164062 340.25 196.148438 340.191406 196.121094 C 339.96875 196.015625 339.875 195.753906 339.984375 195.53125 C 340.144531 195.1875 340.308594 194.84375 340.46875 194.492188 C 341.035156 193.277344 341.574219 192 342.066406 190.703125 C 342.15625 190.476562 342.410156 190.363281 342.640625 190.449219 C 342.867188 190.539062 342.984375 190.792969 342.894531 191.019531 C 342.390625 192.335938 341.84375 193.628906 341.269531 194.867188 C 341.109375 195.21875 340.945312 195.566406 340.777344 195.914062 C 340.703125 196.070312 340.546875 196.164062 340.378906 196.164062 Z M 368.65625 199.136719 C 368.625 199.136719 368.601562 199.132812 368.570312 199.128906 C 368.332031 199.082031 368.175781 198.851562 368.21875 198.613281 C 368.558594 196.855469 368.859375 195.105469 369.121094 193.402344 C 369.15625 193.164062 369.382812 192.996094 369.621094 193.035156 C 369.863281 193.070312 370.027344 193.296875 369.992188 193.535156 C 369.730469 195.25 369.425781 197.011719 369.089844 198.777344 C 369.046875 198.988281 368.863281 199.136719 368.65625 199.136719 Z M 267.011719 200.875 C 266.828125 200.875 266.65625 200.761719 266.59375 200.574219 C 266.019531 198.867188 265.5625 197.128906 265.226562 195.402344 C 265.179688 195.164062 265.339844 194.933594 265.578125 194.886719 C 265.816406 194.839844 266.050781 194.996094 266.09375 195.234375 C 266.421875 196.921875 266.871094 198.625 267.429688 200.292969 C 267.511719 200.523438 267.382812 200.773438 267.152344 200.855469 C 267.105469 200.867188 267.058594 200.875 267.011719 200.875 Z M 335.34375 205.476562 C 335.265625 205.476562 335.183594 205.457031 335.113281 205.410156 C 334.90625 205.28125 334.839844 205.011719 334.96875 204.804688 C 335.863281 203.351562 336.746094 201.816406 337.601562 200.238281 C 337.71875 200.023438 337.984375 199.941406 338.195312 200.058594 C 338.410156 200.175781 338.492188 200.441406 338.378906 200.65625 C 337.515625 202.25 336.625 203.804688 335.722656 205.265625 C 335.636719 205.402344 335.492188 205.476562 335.34375 205.476562 Z M 366.308594 209.476562 C 366.273438 209.476562 366.234375 209.472656 366.199219 209.460938 C 365.960938 209.398438 365.824219 209.160156 365.882812 208.921875 C 366.332031 207.199219 366.753906 205.46875 367.136719 203.785156 C 367.191406 203.546875 367.425781 203.398438 367.664062 203.453125 C 367.902344 203.507812 368.050781 203.742188 368 203.980469 C 367.613281 205.675781 367.1875 207.414062 366.738281 209.144531 C 366.6875 209.34375 366.503906 209.476562 366.308594 209.476562 Z M 271.589844 210.402344 C 271.445312 210.402344 271.300781 210.332031 271.21875 210.195312 C 270.253906 208.691406 269.378906 207.125 268.609375 205.527344 C 268.503906 205.308594 268.597656 205.042969 268.816406 204.9375 C 269.035156 204.832031 269.300781 204.925781 269.40625 205.144531 C 270.160156 206.707031 271.019531 208.246094 271.960938 209.722656 C 272.089844 209.929688 272.035156 210.199219 271.828125 210.332031 C 271.753906 210.378906 271.667969 210.402344 271.589844 210.402344 Z M 329.171875 214.070312 C 329.070312 214.070312 328.96875 214.035156 328.882812 213.964844 C 328.699219 213.808594 328.675781 213.53125 328.832031 213.34375 C 329.929688 212.046875 331.015625 210.648438 332.058594 209.1875 C 332.199219 208.992188 332.476562 208.945312 332.671875 209.085938 C 332.871094 209.226562 332.917969 209.503906 332.777344 209.703125 C 331.71875 211.183594 330.617188 212.601562 329.507812 213.914062 C 329.417969 214.015625 329.296875 214.070312 329.171875 214.070312 Z M 278.304688 218.566406 C 278.195312 218.566406 278.089844 218.527344 278 218.445312 C 276.722656 217.230469 275.496094 215.910156 274.359375 214.523438 C 274.203125 214.335938 274.234375 214.058594 274.421875 213.902344 C 274.609375 213.75 274.886719 213.777344 275.042969 213.964844 C 276.15625 215.320312 277.355469 216.613281 278.609375 217.804688 C 278.785156 217.972656 278.792969 218.253906 278.625 218.429688 C 278.539062 218.519531 278.421875 218.566406 278.304688 218.566406 Z M 363.34375 219.652344 C 363.296875 219.652344 363.25 219.648438 363.207031 219.632812 C 362.976562 219.558594 362.847656 219.308594 362.921875 219.078125 C 363.464844 217.390625 363.988281 215.6875 364.472656 214.019531 C 364.542969 213.785156 364.789062 213.652344 365.023438 213.71875 C 365.257812 213.789062 365.390625 214.03125 365.320312 214.265625 C 364.832031 215.941406 364.308594 217.652344 363.761719 219.347656 C 363.703125 219.535156 363.527344 219.652344 363.34375 219.652344 Z M 321.582031 221.425781 C 321.449219 221.425781 321.320312 221.367188 321.230469 221.257812 C 321.082031 221.0625 321.121094 220.785156 321.3125 220.636719 C 322.648438 219.601562 323.976562 218.441406 325.257812 217.191406 C 325.433594 217.019531 325.714844 217.023438 325.882812 217.199219 C 326.054688 217.375 326.050781 217.652344 325.875 217.824219 C 324.570312 219.097656 323.214844 220.28125 321.851562 221.332031 C 321.769531 221.398438 321.675781 221.425781 321.582031 221.425781 Z M 286.847656 224.789062 C 286.777344 224.789062 286.707031 224.773438 286.640625 224.738281 C 285.09375 223.910156 283.570312 222.949219 282.109375 221.882812 C 281.914062 221.738281 281.867188 221.460938 282.011719 221.265625 C 282.15625 221.070312 282.433594 221.027344 282.628906 221.167969 C 284.058594 222.210938 285.546875 223.148438 287.058594 223.960938 C 287.273438 224.074219 287.351562 224.339844 287.238281 224.558594 C 287.160156 224.707031 287.003906 224.789062 286.847656 224.789062 Z M 312.421875 226.664062 C 312.242188 226.664062 312.074219 226.558594 312.007812 226.382812 C 311.921875 226.152344 312.039062 225.898438 312.265625 225.8125 C 313.851562 225.203125 315.433594 224.445312 316.972656 223.558594 C 317.183594 223.4375 317.453125 223.507812 317.574219 223.71875 C 317.695312 223.933594 317.625 224.199219 317.410156 224.324219 C 315.835938 225.230469 314.210938 226.011719 312.578125 226.636719 C 312.527344 226.65625 312.472656 226.664062 312.421875 226.664062 Z M 296.8125 228.25 C 296.785156 228.25 296.761719 228.25 296.738281 228.246094 C 294.996094 227.949219 293.253906 227.496094 291.546875 226.898438 C 291.316406 226.820312 291.195312 226.566406 291.273438 226.335938 C 291.359375 226.105469 291.609375 225.988281 291.839844 226.066406 C 293.5 226.648438 295.199219 227.085938 296.882812 227.375 C 297.125 227.414062 297.285156 227.644531 297.246094 227.882812 C 297.207031 228.101562 297.023438 228.25 296.8125 228.25 Z M 302.082031 228.667969 C 301.835938 228.667969 301.640625 228.476562 301.640625 228.234375 C 301.636719 227.988281 301.832031 227.789062 302.074219 227.789062 C 303.804688 227.769531 305.546875 227.589844 307.257812 227.253906 C 307.496094 227.207031 307.726562 227.367188 307.777344 227.605469 C 307.820312 227.84375 307.664062 228.074219 307.425781 228.121094 C 305.664062 228.464844 303.871094 228.652344 302.085938 228.667969 C 302.082031 228.667969 302.082031 228.667969 302.082031 228.667969 Z M 359.832031 229.660156 C 359.777344 229.660156 359.722656 229.652344 359.671875 229.632812 C 359.445312 229.542969 359.332031 229.289062 359.417969 229.0625 C 360.039062 227.429688 360.652344 225.757812 361.238281 224.089844 C 361.316406 223.859375 361.570312 223.742188 361.800781 223.820312 C 362.027344 223.902344 362.148438 224.15625 362.066406 224.386719 C 361.480469 226.054688 360.871094 227.734375 360.242188 229.375 C 360.175781 229.550781 360.007812 229.660156 359.832031 229.660156 Z M 355.753906 239.46875 C 355.691406 239.46875 355.625 239.457031 355.566406 239.425781 C 355.34375 239.320312 355.253906 239.058594 355.355469 238.839844 C 355.363281 238.820312 356.203125 237.039062 357.464844 233.980469 C 357.5625 233.757812 357.816406 233.652344 358.042969 233.742188 C 358.269531 233.835938 358.375 234.09375 358.28125 234.320312 C 357.011719 237.398438 356.160156 239.199219 356.152344 239.214844 C 356.078125 239.375 355.921875 239.46875 355.753906 239.46875 " fill-opacity="1" fill-rule="nonzero"/></g><path fill="#00f3f7" d="M 22.585938 39.785156 C 21.207031 39.785156 20.085938 40.90625 20.085938 42.285156 C 20.085938 43.664062 21.207031 44.789062 22.585938 44.789062 C 23.964844 44.789062 25.089844 43.664062 25.089844 42.285156 C 25.089844 40.90625 23.964844 39.785156 22.585938 39.785156 Z M 22.585938 45.671875 C 20.722656 45.671875 19.203125 44.152344 19.203125 42.285156 C 19.203125 40.421875 20.722656 38.902344 22.585938 38.902344 C 24.453125 38.902344 25.972656 40.421875 25.972656 42.285156 C 25.972656 44.152344 24.453125 45.671875 22.585938 45.671875 " fill-opacity="1" fill-rule="nonzero"/><path fill="#ffffff" d="M 45.011719 223.582031 C 45.011719 223.582031 20.660156 225.097656 10.808594 238.359375 C 4.273438 247.15625 4.882812 265.1875 8.347656 291.503906 C 10.632812 308.867188 14.84375 317.507812 18.898438 328.175781 C 29.109375 355.023438 44.765625 362.371094 61.164062 363.871094 C 81.617188 365.742188 141.554688 364.140625 164.566406 359.714844 C 168.28125 359 172.78125 356.425781 172.996094 353.640625 C 173.429688 348.035156 172.691406 333.765625 165.324219 333.816406 C 147.351562 333.933594 136.679688 333.992188 136.679688 333.992188 C 136.679688 333.992188 108.914062 295.566406 119.890625 292.011719 C 123.59375 290.808594 150.003906 315.589844 171.875 312.445312 C 190.394531 309.78125 194.421875 243.535156 194.421875 243.535156 C 194.421875 243.535156 196.695312 231.652344 189.300781 226.375 C 189.054688 226.199219 188.789062 226.023438 188.503906 225.847656 C 182.722656 222.28125 175.125 225.175781 173.089844 231.65625 C 169.96875 241.609375 161.828125 266.1875 157.765625 265.785156 C 140.660156 264.089844 129.109375 216.527344 73.59375 220.539062 L 45.011719 223.582031 " fill-opacity="1" fill-rule="nonzero"/><g clip-path="url(#c02b570f8c)"><path fill="#00f3f7" d="M 45.011719 223.582031 L 45.015625 223.582031 Z M 80.132812 220.738281 C 78.035156 220.738281 75.867188 220.816406 73.625 220.980469 L 45.058594 224.023438 C 45.050781 224.023438 45.042969 224.023438 45.039062 224.023438 C 44.796875 224.039062 20.777344 225.679688 11.164062 238.621094 C 4.582031 247.480469 5.453125 266.144531 8.785156 291.445312 C 10.71875 306.136719 14 314.46875 17.472656 323.289062 C 18.074219 324.824219 18.699219 326.410156 19.3125 328.019531 C 30.335938 357.015625 47.492188 362.175781 61.203125 363.429688 C 81.042969 365.246094 140.707031 363.855469 164.480469 359.28125 C 168.148438 358.578125 172.367188 356.074219 172.554688 353.609375 C 172.953125 348.472656 172.308594 339.511719 168.921875 335.875 C 167.917969 334.800781 166.71875 334.253906 165.363281 334.253906 C 165.351562 334.253906 165.339844 334.253906 165.328125 334.257812 C 147.355469 334.375 136.683594 334.433594 136.683594 334.433594 C 136.679688 334.433594 136.679688 334.433594 136.679688 334.433594 C 136.539062 334.433594 136.40625 334.363281 136.320312 334.25 C 135.414062 332.996094 114.15625 303.421875 117.179688 294.167969 C 117.605469 292.875 118.46875 292.007812 119.753906 291.589844 C 121.050781 291.167969 123.820312 292.886719 129.457031 296.503906 C 139.742188 303.101562 156.957031 314.144531 171.808594 312.007812 C 189.765625 309.421875 193.941406 244.167969 193.980469 243.507812 C 193.980469 243.488281 193.980469 243.472656 193.984375 243.453125 C 194.007812 243.335938 196.117188 231.785156 189.042969 226.734375 C 188.796875 226.558594 188.535156 226.386719 188.273438 226.222656 C 185.652344 224.609375 182.488281 224.300781 179.59375 225.378906 C 176.664062 226.472656 174.449219 228.808594 173.511719 231.785156 C 172.058594 236.414062 169.175781 245.292969 166.191406 252.769531 C 161.265625 265.09375 158.996094 266.351562 157.722656 266.226562 C 151.742188 265.632812 146.554688 259.746094 139.988281 252.296875 C 128.140625 238.851562 112.175781 220.738281 80.132812 220.738281 Z M 85.898438 365.082031 C 75.585938 365.082031 66.753906 364.828125 61.121094 364.308594 C 51.65625 363.445312 43.914062 360.6875 37.445312 355.882812 C 29.488281 349.96875 23.285156 340.957031 18.488281 328.332031 C 17.875 326.726562 17.253906 325.144531 16.652344 323.613281 C 13.15625 314.742188 9.859375 306.359375 7.910156 291.5625 C 4.550781 266.046875 3.695312 247.191406 10.453125 238.09375 C 20.238281 224.925781 44.355469 223.183594 44.972656 223.144531 L 73.546875 220.101562 C 110.441406 217.433594 127.902344 237.25 140.652344 251.714844 C 147.089844 259.019531 152.175781 264.789062 157.8125 265.347656 C 160.355469 265.59375 166.042969 252.636719 172.671875 231.523438 C 173.6875 228.28125 176.097656 225.738281 179.285156 224.550781 C 182.4375 223.378906 185.882812 223.710938 188.738281 225.472656 C 189.015625 225.644531 189.292969 225.828125 189.558594 226.015625 C 196.984375 231.316406 195.007812 242.785156 194.859375 243.589844 C 194.667969 246.6875 190.539062 310.203125 171.9375 312.878906 C 170.617188 313.070312 169.28125 313.160156 167.933594 313.160156 C 153.785156 313.160156 138.464844 303.332031 128.980469 297.246094 C 124.691406 294.496094 120.992188 292.113281 120.027344 292.429688 C 119.011719 292.757812 118.355469 293.417969 118.019531 294.441406 C 115.253906 302.914062 135.082031 330.996094 136.90625 333.550781 C 138.542969 333.539062 148.871094 333.480469 165.320312 333.371094 C 166.953125 333.363281 168.378906 334 169.566406 335.273438 C 173.570312 339.570312 173.71875 350.015625 173.4375 353.675781 C 173.207031 356.675781 168.695312 359.371094 164.648438 360.148438 C 147.5625 363.4375 111.996094 365.082031 85.898438 365.082031 " fill-opacity="1" fill-rule="nonzero"/></g><path fill="#00f3f7" d="M 137.628906 333.773438 C 137.628906 333.773438 137.628906 333.773438 137.625 333.773438 C 122.945312 333.671875 72.414062 327.671875 68.089844 322.667969 C 59.296875 312.484375 44.578125 288.503906 42.515625 267.503906 C 42.492188 267.257812 42.667969 267.042969 42.910156 267.019531 C 43.15625 266.992188 43.371094 267.171875 43.394531 267.414062 C 45.433594 288.214844 60.035156 311.988281 68.757812 322.089844 C 72.851562 326.832031 123.4375 332.792969 137.632812 332.890625 C 137.878906 332.890625 138.074219 333.09375 138.070312 333.335938 C 138.070312 333.578125 137.871094 333.773438 137.628906 333.773438 " fill-opacity="1" fill-rule="nonzero"/><path fill="#00f3f7" d="M 154.613281 351.058594 C 154.484375 351.058594 154.351562 351 154.265625 350.886719 C 152.691406 348.859375 152.105469 346.75 152.527344 344.617188 C 153.425781 340.066406 158.5625 337.070312 158.78125 336.945312 C 158.996094 336.820312 159.261719 336.894531 159.386719 337.105469 C 159.507812 337.316406 159.433594 337.585938 159.222656 337.710938 C 159.171875 337.738281 154.210938 340.636719 153.390625 344.792969 C 153.023438 346.660156 153.554688 348.527344 154.964844 350.347656 C 155.113281 350.539062 155.078125 350.816406 154.886719 350.964844 C 154.804688 351.027344 154.707031 351.058594 154.613281 351.058594 " fill-opacity="1" fill-rule="nonzero"/><path fill="#ffffff" d="M 162.355469 342.46875 C 163.238281 341.3125 164.511719 340.503906 165.941406 340.273438 C 166.96875 340.105469 168 339.824219 168.988281 339.511719 L 182.703125 335.1875 C 185.253906 334.472656 187.871094 334.769531 190.152344 336.023438 C 197.035156 339.816406 211.15625 348.355469 208.917969 353.476562 C 206.507812 359 193.972656 353.828125 189.558594 351.796875 C 188.550781 351.332031 187.417969 351.285156 186.335938 351.664062 C 183.636719 352.621094 178.332031 354.402344 175.273438 354.839844 C 172.75 355.199219 170.472656 353.988281 168.625 352.523438 C 167.785156 351.859375 166.785156 351.441406 165.660156 351.222656 C 163.9375 350.890625 162.429688 349.855469 161.601562 348.296875 L 161.582031 348.261719 C 160.664062 346.542969 160.835938 344.449219 162.019531 342.90625 L 162.355469 342.46875 " fill-opacity="1" fill-rule="nonzero"/><path fill="#00f3f7" d="M 162.355469 342.46875 L 162.359375 342.46875 Z M 187.800781 350.96875 C 188.46875 350.96875 189.128906 351.113281 189.742188 351.394531 C 193.355469 353.058594 202.226562 356.746094 206.550781 355.097656 C 207.503906 354.738281 208.144531 354.148438 208.515625 353.296875 C 209.984375 349.941406 203.039062 343.628906 189.941406 336.410156 C 187.769531 335.21875 185.246094 334.933594 182.820312 335.613281 L 169.121094 339.933594 C 167.914062 340.3125 166.925781 340.558594 166.015625 340.707031 C 164.71875 340.917969 163.542969 341.640625 162.703125 342.738281 L 162.371094 343.171875 C 161.292969 344.578125 161.136719 346.492188 161.972656 348.054688 C 162.734375 349.488281 164.101562 350.46875 165.742188 350.789062 C 166.976562 351.027344 168.035156 351.496094 168.902344 352.179688 C 171.148438 353.960938 173.210938 354.6875 175.210938 354.402344 C 178.203125 353.976562 183.371094 352.246094 186.1875 351.25 C 186.71875 351.0625 187.261719 350.96875 187.800781 350.96875 Z M 203.949219 356.382812 C 199.082031 356.382812 192.410156 353.59375 189.375 352.195312 C 188.457031 351.777344 187.460938 351.734375 186.484375 352.082031 C 183.636719 353.085938 178.40625 354.839844 175.335938 355.277344 C 173.082031 355.597656 170.796875 354.808594 168.351562 352.871094 C 167.589844 352.269531 166.683594 351.871094 165.574219 351.65625 C 163.671875 351.285156 162.082031 350.136719 161.210938 348.507812 C 160.199219 346.605469 160.382812 344.3125 161.667969 342.636719 L 162.003906 342.199219 C 162.980469 340.921875 164.355469 340.085938 165.871094 339.835938 C 166.742188 339.695312 167.691406 339.457031 168.855469 339.089844 L 182.570312 334.765625 C 185.230469 334.019531 187.996094 334.332031 190.367188 335.636719 C 198.441406 340.089844 211.644531 348.34375 209.324219 353.652344 C 208.859375 354.714844 208.03125 355.480469 206.867188 355.925781 C 206.023438 356.246094 205.03125 356.382812 203.949219 356.382812 " fill-opacity="1" fill-rule="nonzero"/><path fill="#ffffff" d="M 48.675781 222.339844 L 45.085938 193.621094 L 70.078125 201.34375 L 72.601562 218.164062 C 73.207031 222.6875 69.851562 225.855469 69.851562 225.855469 C 65.757812 230.152344 59.074219 230.671875 53.714844 228.164062 L 52.472656 227.582031 C 50.394531 226.605469 48.960938 224.628906 48.675781 222.339844 " fill-opacity="1" fill-rule="nonzero"/><path fill="#00f3f7" d="M 45.609375 194.242188 L 49.113281 222.285156 C 49.382812 224.4375 50.707031 226.265625 52.660156 227.179688 L 53.902344 227.761719 C 59.410156 230.339844 65.835938 229.429688 69.535156 225.550781 C 69.582031 225.503906 72.734375 222.457031 72.164062 218.222656 L 69.683594 201.683594 Z M 60.453125 230.136719 C 58.160156 230.136719 55.789062 229.621094 53.527344 228.5625 L 52.285156 227.980469 C 50.058594 226.9375 48.542969 224.847656 48.238281 222.394531 L 44.648438 193.675781 C 44.628906 193.527344 44.6875 193.378906 44.800781 193.285156 C 44.917969 193.1875 45.074219 193.15625 45.214844 193.199219 L 70.207031 200.921875 C 70.371094 200.972656 70.488281 201.113281 70.511719 201.28125 L 73.039062 218.101562 C 73.667969 222.796875 70.300781 226.039062 70.15625 226.175781 C 67.679688 228.777344 64.171875 230.136719 60.453125 230.136719 " fill-opacity="1" fill-rule="nonzero"/><path fill="#00f3f7" d="M 71.320312 151.621094 C 65.128906 152.335938 73.925781 157.308594 50.113281 154.640625 C 40.628906 153.582031 47.015625 163.339844 44.554688 163.070312 C 35.46875 162.078125 35.777344 162.101562 31.746094 163.953125 C 29.074219 165.175781 28.144531 170.660156 29.335938 174.429688 C 30.910156 179.402344 35.335938 179.988281 40.90625 190.101562 C 44.820312 197.207031 44.972656 201.914062 48.1875 202.484375 C 51.441406 203.066406 52.988281 198.558594 56.589844 198.925781 C 61.246094 199.398438 61.695312 207.253906 66.574219 209.695312 C 69.644531 211.230469 76.152344 211.058594 85.464844 204.324219 C 86.972656 203.234375 87.496094 201.210938 86.703125 199.519531 C 85.6875 197.351562 84.386719 194.617188 82.929688 192.113281 C 75.972656 180.171875 70.9375 178.078125 72.011719 174.480469 C 73.65625 168.972656 83.730469 170.203125 84.597656 165.765625 C 85.5 161.148438 79.796875 150.636719 71.320312 151.621094 " fill-opacity="1" fill-rule="nonzero"/><path fill="#ffffff" d="M 53.722656 177.355469 L 56.042969 180.324219 C 57.132812 181.730469 58.128906 183.199219 59.019531 184.738281 C 60.6875 187.625 63.597656 192.566406 65.433594 195.210938 C 68.136719 199.089844 80.703125 191.574219 80.703125 191.574219 L 81.0625 188.824219 L 82.519531 187.910156 C 82.800781 187.734375 83.046875 187.5 83.203125 187.203125 C 83.59375 186.46875 83.449219 185.609375 82.914062 185.050781 C 79.976562 182 73.757812 175.082031 70.804688 168.414062 C 70.804688 168.414062 60.371094 167.578125 53.722656 177.355469 " fill-opacity="1" fill-rule="nonzero"/><path fill="#00f3f7" d="M 54.269531 177.335938 L 56.390625 180.054688 C 57.492188 181.46875 58.503906 182.96875 59.398438 184.519531 C 60.996094 187.277344 63.949219 192.304688 65.796875 194.957031 C 67.785156 197.8125 76.757812 193.386719 80.292969 191.304688 L 80.625 188.765625 C 80.644531 188.636719 80.71875 188.519531 80.828125 188.449219 L 82.285156 187.539062 C 82.523438 187.386719 82.707031 187.199219 82.816406 186.996094 C 83.101562 186.453125 83.015625 185.792969 82.59375 185.359375 C 79.335938 181.96875 73.472656 175.355469 70.511719 168.847656 C 68.90625 168.808594 60.121094 168.996094 54.269531 177.335938 Z M 68.179688 196.765625 C 66.835938 196.765625 65.726562 196.398438 65.074219 195.460938 C 63.207031 192.78125 60.238281 187.730469 58.636719 184.960938 C 57.761719 183.445312 56.769531 181.980469 55.691406 180.597656 L 53.375 177.625 C 53.253906 177.472656 53.25 177.261719 53.355469 177.105469 C 60.070312 167.230469 70.730469 167.96875 70.839844 167.976562 C 71 167.988281 71.140625 168.089844 71.207031 168.238281 C 74.179688 174.945312 80.605469 182.015625 83.230469 184.746094 C 83.914062 185.457031 84.0625 186.53125 83.59375 187.410156 C 83.414062 187.75 83.125 188.050781 82.753906 188.285156 L 81.476562 189.085938 L 81.144531 191.632812 C 81.125 191.765625 81.046875 191.886719 80.929688 191.953125 C 79.910156 192.5625 72.71875 196.765625 68.179688 196.765625 " fill-opacity="1" fill-rule="nonzero"/><path fill="#ffffff" d="M 58.171875 188.371094 C 58.171875 188.371094 52.605469 181.214844 49.90625 184.453125 C 47.210938 187.695312 53.539062 195.417969 58.171875 188.371094 " fill-opacity="1" fill-rule="nonzero"/><path fill="#00f3f7" d="M 176.191406 169.066406 L 189.511719 233.113281 C 190.488281 237.808594 193.628906 241.070312 196.527344 240.402344 L 201.300781 239.300781 C 204.199219 238.636719 205.757812 234.292969 204.785156 229.597656 L 191.464844 165.550781 L 176.191406 169.066406 " fill-opacity="1" fill-rule="nonzero"/><path fill="#00f3f7" d="M 176.710938 169.398438 L 189.945312 233.027344 C 190.527344 235.828125 191.980469 238.269531 193.734375 239.394531 C 194.636719 239.96875 195.566406 240.171875 196.425781 239.972656 L 201.203125 238.871094 C 203.863281 238.261719 205.277344 234.140625 204.351562 229.6875 L 191.125 166.082031 Z M 195.765625 240.929688 C 194.929688 240.929688 194.078125 240.660156 193.257812 240.136719 C 191.28125 238.871094 189.71875 236.277344 189.078125 233.203125 L 175.757812 169.15625 C 175.710938 168.921875 175.859375 168.6875 176.09375 168.632812 L 191.363281 165.117188 C 191.480469 165.089844 191.601562 165.113281 191.703125 165.175781 C 191.800781 165.242188 191.871094 165.34375 191.894531 165.460938 L 205.214844 229.507812 C 206.238281 234.429688 204.527344 239.011719 201.398438 239.734375 L 196.625 240.832031 C 196.34375 240.898438 196.054688 240.929688 195.765625 240.929688 " fill-opacity="1" fill-rule="nonzero"/><path fill="#ffffff" d="M 180.515625 233.394531 C 178.136719 232.414062 176.925781 229.761719 177.726562 227.316406 C 180.125 219.972656 181.8125 213.042969 179.058594 209.054688 C 176.671875 205.585938 174.417969 202.152344 174.984375 198.074219 L 175.78125 191.933594 C 175.917969 190.972656 175.628906 187.449219 178.269531 188.074219 C 180.273438 188.546875 181.113281 190.300781 182.269531 198.007812 C 182.851562 201.875 184.375 203.664062 186.984375 205.265625 C 186.882812 204.703125 186.835938 204.035156 186.871094 203.308594 C 187.019531 199.992188 188.824219 196.96875 191.589844 195.125 C 195.027344 192.835938 200.808594 189.769531 204.230469 193.613281 C 206.609375 196.285156 207.539062 202.3125 203.367188 208.1875 C 202.386719 209.5625 196.929688 215.527344 196.929688 215.527344 C 195.878906 216.9375 193.59375 231.296875 193.59375 231.296875 C 192.214844 238.828125 186.507812 235.875 180.515625 233.394531 " fill-opacity="1" fill-rule="nonzero"/><path fill="#00f3f7" d="M 177.6875 188.441406 C 177.429688 188.441406 177.21875 188.503906 177.046875 188.636719 C 176.386719 189.125 176.3125 190.527344 176.265625 191.359375 C 176.25 191.621094 176.238281 191.839844 176.214844 191.996094 L 175.421875 198.128906 C 174.859375 202.179688 177.285156 205.699219 179.421875 208.804688 C 182.132812 212.734375 180.871094 219.101562 178.144531 227.457031 C 177.421875 229.667969 178.535156 232.101562 180.683594 232.988281 C 181.066406 233.148438 181.449219 233.308594 181.832031 233.46875 C 185.414062 234.972656 188.796875 236.394531 190.910156 235.25 C 192.039062 234.640625 192.773438 233.320312 193.160156 231.214844 C 193.394531 229.746094 195.492188 216.71875 196.574219 215.265625 C 196.65625 215.171875 202.054688 209.269531 203.003906 207.929688 C 206.863281 202.5 206.347656 196.652344 203.902344 193.90625 C 201.507812 191.21875 197.449219 191.753906 191.835938 195.492188 C 189.144531 197.285156 187.453125 200.214844 187.3125 203.332031 C 187.28125 203.992188 187.320312 204.636719 187.417969 205.1875 C 187.449219 205.359375 187.375 205.53125 187.234375 205.628906 C 187.089844 205.730469 186.898438 205.734375 186.753906 205.640625 C 184.179688 204.0625 182.457031 202.246094 181.832031 198.074219 C 180.683594 190.414062 179.875 188.90625 178.171875 188.503906 C 177.996094 188.460938 177.832031 188.441406 177.6875 188.441406 Z M 189.078125 236.546875 C 186.882812 236.546875 184.242188 235.4375 181.488281 234.28125 C 181.109375 234.121094 180.726562 233.964844 180.34375 233.804688 C 177.773438 232.742188 176.4375 229.832031 177.304688 227.179688 C 179.59375 220.167969 181.347656 213.152344 178.695312 209.304688 C 176.464844 206.070312 173.9375 202.402344 174.546875 198.011719 L 175.34375 191.875 C 175.363281 191.730469 175.371094 191.539062 175.382812 191.3125 C 175.441406 190.257812 175.527344 188.667969 176.519531 187.929688 C 177.003906 187.5625 177.628906 187.46875 178.375 187.644531 C 180.699219 188.195312 181.546875 190.21875 182.707031 197.941406 C 183.21875 201.359375 184.46875 203.015625 186.4375 204.382812 C 186.417969 204.03125 186.414062 203.660156 186.429688 203.289062 C 186.582031 199.894531 188.421875 196.707031 191.34375 194.757812 C 197.382812 190.738281 201.832031 190.253906 204.5625 193.320312 C 207.234375 196.320312 207.847656 202.640625 203.726562 208.441406 C 202.742188 209.824219 197.480469 215.582031 197.253906 215.828125 C 196.566406 216.757812 194.90625 225.855469 194.03125 231.367188 C 193.589844 233.761719 192.707031 235.28125 191.332031 236.023438 C 190.65625 236.394531 189.898438 236.546875 189.078125 236.546875 " fill-opacity="1" fill-rule="nonzero"/><path fill="#00f3f7" d="M 192.644531 171.214844 L 204.785156 229.597656 C 205.757812 234.292969 204.199219 238.636719 201.300781 239.300781 L 196.527344 240.402344 C 193.628906 241.070312 190.488281 237.808594 189.511719 233.113281 L 177.015625 173.105469 L 192.644531 171.214844 " fill-opacity="1" fill-rule="nonzero"/><path fill="#ffffff" d="M 192.242188 209.382812 C 194.625 209.625 198.378906 209.09375 202.421875 206.351562 C 206.664062 203.472656 206.609375 196.285156 204.230469 193.613281 C 200.828125 189.789062 195.082031 192.808594 191.640625 195.09375 C 188.847656 196.945312 186.210938 200.621094 186.277344 203.1875 C 186.371094 207.105469 187.777344 208.929688 192.242188 209.382812 " fill-opacity="1" fill-rule="nonzero"/><path fill="#00f3f7" d="M 200.988281 211.558594 C 200.886719 211.558594 200.785156 211.523438 200.703125 211.453125 C 200.515625 211.296875 200.492188 211.019531 200.648438 210.832031 C 202.214844 208.957031 202.867188 208.125 203.003906 207.929688 C 206.847656 202.484375 206.335938 196.640625 203.902344 193.90625 C 203.761719 193.75 203.398438 193.417969 203.273438 193.304688 C 200.855469 191.332031 197.015625 192.054688 191.882812 195.460938 C 189.023438 197.359375 186.660156 200.890625 186.714844 203.179688 C 186.8125 207.078125 188.21875 208.535156 192.285156 208.945312 C 193.359375 209.054688 196.261719 209.101562 200.019531 207.226562 C 200.238281 207.117188 200.5 207.203125 200.613281 207.425781 C 200.71875 207.640625 200.632812 207.90625 200.414062 208.015625 C 196.449219 209.996094 193.347656 209.9375 192.195312 209.824219 C 187.726562 209.371094 185.941406 207.511719 185.832031 203.199219 C 185.761719 200.292969 188.664062 196.539062 191.394531 194.726562 C 196.886719 191.078125 201.078125 190.375 203.847656 192.632812 C 203.914062 192.691406 204.363281 193.097656 204.5625 193.320312 C 207.222656 196.308594 207.832031 202.621094 203.726562 208.4375 C 203.660156 208.535156 203.238281 209.109375 201.324219 211.398438 C 201.238281 211.503906 201.113281 211.558594 200.988281 211.558594 " fill-opacity="1" fill-rule="nonzero"/><path fill="#ffffff" d="M 180.351562 95.804688 L 128.0625 132.15625 L 107.617188 152.859375 L 99.519531 166.78125 L 99.464844 166.890625 C 97.878906 169.296875 98.699219 174.90625 101.574219 180.628906 C 104.421875 186.289062 108.4375 190.238281 111.316406 190.496094 L 111.226562 190.542969 L 126.445312 192.371094 L 155.003906 188.167969 L 215.773438 167.273438 L 290.8125 181.09375 L 291.34375 181.113281 C 272.4375 177.417969 247.253906 151.851562 229.183594 115.886719 C 211.132812 79.960938 205.671875 44.613281 214 27.316406 L 213.984375 27.308594 L 180.777344 94.941406 L 180.351562 95.804688 " fill-opacity="1" fill-rule="nonzero"/><path fill="#ffffff" d="M 296.765625 82.226562 C 319.113281 126.703125 322.082031 170.300781 303.398438 179.601562 C 284.714844 188.902344 251.449219 160.390625 229.097656 115.917969 C 206.75 71.441406 203.78125 27.847656 222.46875 18.542969 C 241.152344 9.242188 274.414062 37.753906 296.765625 82.226562 " fill-opacity="1" fill-rule="nonzero"/><path fill="#00f3f7" d="M 230.316406 17.21875 C 227.5625 17.21875 225 17.777344 222.664062 18.941406 C 218.242188 21.140625 214.96875 25.339844 212.945312 31.421875 C 206.691406 50.183594 213.191406 83.269531 229.496094 115.714844 C 248.890625 154.308594 276.570312 180.921875 295.550781 180.925781 C 298.304688 180.925781 300.867188 180.367188 303.203125 179.207031 C 307.625 177.003906 310.894531 172.800781 312.921875 166.71875 C 319.171875 147.957031 312.671875 114.871094 296.371094 82.425781 C 276.976562 43.832031 249.292969 17.21875 230.316406 17.21875 Z M 295.550781 181.808594 C 287.476562 181.808594 277.757812 177.191406 267.335938 168.261719 C 253.257812 156.191406 239.542969 137.675781 228.703125 116.113281 C 212.300781 83.46875 205.789062 50.113281 212.105469 31.144531 C 214.210938 24.832031 217.628906 20.460938 222.269531 18.148438 C 231.476562 13.566406 244.355469 17.734375 258.53125 29.886719 C 272.605469 41.949219 286.324219 60.472656 297.160156 82.03125 C 313.5625 114.675781 320.078125 148.027344 313.757812 166.996094 C 311.65625 173.3125 308.234375 177.683594 303.59375 179.996094 C 301.15625 181.207031 298.460938 181.808594 295.550781 181.808594 " fill-opacity="1" fill-rule="nonzero"/><path fill="#00f3f7" d="M 290.375 168.191406 C 283.613281 168.191406 275.480469 164.328125 266.757812 156.851562 C 254.992188 146.761719 243.523438 131.277344 234.46875 113.257812 C 220.75 85.957031 215.300781 58.066406 220.585938 42.203125 C 222.351562 36.914062 225.21875 33.25 229.109375 31.3125 C 239.539062 26.117188 255.859375 34.691406 271.699219 53.683594 C 271.855469 53.871094 271.828125 54.148438 271.640625 54.304688 C 271.453125 54.460938 271.175781 54.4375 271.019531 54.25 C 255.457031 35.589844 239.546875 27.101562 229.503906 32.101562 C 225.828125 33.929688 223.109375 37.421875 221.425781 42.484375 C 216.210938 58.136719 221.640625 85.757812 235.257812 112.859375 C 251.449219 145.082031 274.546875 167.308594 290.367188 167.3125 C 292.65625 167.3125 294.789062 166.847656 296.730469 165.882812 C 310.65625 158.949219 309.976562 128.0625 295.152344 94.035156 C 295.058594 93.8125 295.160156 93.554688 295.382812 93.453125 C 295.605469 93.359375 295.867188 93.460938 295.964844 93.683594 C 303.171875 110.226562 307.304688 126.710938 307.601562 140.089844 C 307.90625 153.71875 304.1875 163.15625 297.125 166.675781 C 295.078125 167.691406 292.816406 168.191406 290.375 168.191406 " fill-opacity="1" fill-rule="nonzero"/><path fill="#ffffff" d="M 260.90625 100.148438 C 265.800781 109.882812 266.453125 119.425781 262.363281 121.460938 C 258.277344 123.496094 250.996094 117.253906 246.105469 107.519531 C 241.210938 97.78125 240.5625 88.238281 244.648438 86.203125 C 248.734375 84.171875 256.015625 90.410156 260.90625 100.148438 " fill-opacity="1" fill-rule="nonzero"/><path fill="#00f3f7" d="M 246.347656 86.261719 C 245.808594 86.261719 245.304688 86.371094 244.847656 86.597656 C 243.964844 87.035156 243.308594 87.890625 242.894531 89.128906 C 241.554688 93.152344 242.972656 100.292969 246.503906 107.316406 C 251.195312 116.660156 258.367188 122.953125 262.167969 121.0625 C 263.050781 120.625 263.707031 119.773438 264.121094 118.53125 C 265.460938 114.511719 264.046875 107.371094 260.515625 100.34375 C 256.382812 92.121094 250.335938 86.261719 246.347656 86.261719 Z M 260.644531 122.289062 C 256.242188 122.289062 250.109375 116.460938 245.710938 107.714844 C 242.082031 100.488281 240.648438 93.085938 242.058594 88.851562 C 242.546875 87.378906 243.355469 86.355469 244.453125 85.808594 C 248.824219 83.632812 256.226562 89.84375 261.304688 99.949219 C 264.9375 107.171875 266.371094 114.578125 264.957031 118.8125 C 264.46875 120.28125 263.664062 121.304688 262.5625 121.855469 C 261.976562 122.148438 261.332031 122.289062 260.644531 122.289062 " fill-opacity="1" fill-rule="nonzero"/><path fill="#00f3f7" d="M 111.570312 190.136719 L 126.441406 191.921875 L 154.898438 187.734375 L 215.632812 166.855469 C 215.703125 166.828125 215.78125 166.824219 215.855469 166.835938 L 284.671875 179.511719 C 266.261719 171.875 244.605469 147.558594 228.789062 116.082031 C 213.097656 84.855469 206.515625 53.242188 211.210938 33.960938 L 180.75 96 C 180.71875 96.066406 180.667969 96.125 180.605469 96.167969 L 128.351562 132.496094 L 107.96875 153.128906 L 99.863281 167.085938 C 99.855469 167.101562 99.84375 167.117188 99.835938 167.136719 C 98.339844 169.398438 99.238281 174.992188 101.96875 180.429688 C 104.648438 185.757812 108.59375 189.808594 111.355469 190.058594 C 111.433594 190.066406 111.507812 190.09375 111.570312 190.136719 Z M 126.445312 192.808594 C 126.429688 192.808594 126.410156 192.808594 126.394531 192.808594 L 111.175781 190.976562 C 111.097656 190.96875 111.027344 190.9375 110.96875 190.898438 C 107.914062 190.382812 103.9375 186.3125 101.179688 180.824219 C 98.234375 174.957031 97.390625 169.277344 99.082031 166.671875 L 99.125 166.582031 L 107.234375 152.636719 C 107.253906 152.605469 107.273438 152.578125 107.300781 152.550781 L 127.75 131.847656 C 127.769531 131.828125 127.789062 131.8125 127.8125 131.792969 L 180.007812 95.507812 L 213.589844 27.113281 C 213.695312 26.894531 213.957031 26.804688 214.175781 26.910156 C 214.28125 26.957031 214.371094 27.054688 214.410156 27.164062 C 214.445312 27.273438 214.449219 27.398438 214.398438 27.503906 C 205.875 45.214844 211.976562 80.648438 229.578125 115.6875 C 247.210938 150.777344 272.070312 176.894531 291.425781 180.683594 C 291.652344 180.722656 291.808594 180.9375 291.78125 181.164062 C 291.753906 181.390625 291.550781 181.5625 291.328125 181.554688 L 290.792969 181.53125 C 290.773438 181.53125 290.75 181.53125 290.730469 181.523438 L 215.8125 167.726562 L 155.148438 188.582031 C 155.121094 188.59375 155.09375 188.597656 155.070312 188.601562 L 126.507812 192.804688 C 126.488281 192.808594 126.46875 192.808594 126.445312 192.808594 " fill-opacity="1" fill-rule="nonzero"/><path fill="#00f3f7" d="M 180.453125 95.601562 L 213.984375 27.308594 L 214 27.316406 C 205.671875 44.613281 211.132812 79.960938 229.183594 115.886719 C 247.253906 151.851562 272.4375 177.417969 291.34375 181.113281 L 290.8125 181.09375 L 215.898438 167.296875 L 214.164062 166.984375 C 205.457031 165.332031 193.9375 153.832031 185.800781 137.546875 C 177.449219 120.832031 176.144531 104.253906 180.03125 96.433594 L 180.453125 95.601562 " fill-opacity="1" fill-rule="nonzero"/><path fill="#00f3f7" d="M 125.625 192.710938 C 125.609375 192.710938 125.589844 192.710938 125.574219 192.707031 L 111.175781 190.976562 C 111.097656 190.96875 111.027344 190.9375 110.96875 190.898438 C 107.914062 190.382812 103.9375 186.3125 101.179688 180.824219 C 98.234375 174.957031 97.390625 169.277344 99.082031 166.671875 L 99.125 166.582031 L 107.234375 152.636719 C 107.355469 152.425781 107.625 152.355469 107.835938 152.476562 C 108.046875 152.601562 108.121094 152.871094 107.996094 153.082031 L 99.863281 167.085938 C 99.855469 167.101562 99.84375 167.117188 99.835938 167.132812 C 98.339844 169.402344 99.238281 174.992188 101.96875 180.429688 C 104.648438 185.757812 108.59375 189.808594 111.355469 190.054688 C 111.433594 190.066406 111.507812 190.09375 111.570312 190.136719 L 125.675781 191.832031 C 125.917969 191.859375 126.09375 192.078125 126.0625 192.320312 C 126.035156 192.546875 125.84375 192.710938 125.625 192.710938 " fill-opacity="1" fill-rule="nonzero"/><path fill="#00f3f7" d="M 126.578125 192.285156 C 121.894531 191.894531 115.429688 185.175781 110.792969 175.941406 C 105.878906 166.160156 104.820312 156.089844 107.945312 152.550781 L 99.523438 166.78125 L 99.46875 166.890625 C 97.878906 169.296875 98.699219 174.902344 101.574219 180.628906 C 104.421875 186.289062 108.4375 190.238281 111.316406 190.496094 L 111.226562 190.542969 L 126.578125 192.285156 " fill-opacity="1" fill-rule="nonzero"/><path fill="#ffffff" d="M 153.964844 188.320312 L 155.171875 188.09375 C 148.59375 189.378906 138.371094 179.355469 131.242188 165.167969 C 123.972656 150.703125 122.730469 136.328125 128.066406 132.15625 L 127.378906 132.847656 L 107.996094 152.492188 C 104.808594 155.972656 105.847656 166.105469 110.792969 175.941406 C 115.5625 185.433594 122.382812 192.226562 127.085938 192.257812 L 153.964844 188.320312 " fill-opacity="1" fill-rule="nonzero"/><path fill="#00f3f7" d="M 125.261719 135.625 L 108.3125 152.800781 C 105.183594 156.21875 106.441406 166.300781 111.1875 175.746094 C 115.839844 185.003906 122.507812 191.75 127.054688 191.816406 L 151.453125 188.242188 C 145.03125 186.300781 136.964844 177.539062 130.847656 165.367188 C 125.042969 153.820312 123.015625 142.097656 125.261719 135.625 Z M 127.085938 192.699219 C 127.085938 192.699219 127.085938 192.699219 127.082031 192.699219 C 122.140625 192.664062 115.277344 185.855469 110.398438 176.140625 C 105.417969 166.230469 104.246094 155.933594 107.671875 152.191406 L 126.675781 132.9375 C 127.011719 132.507812 127.382812 132.128906 127.792969 131.808594 C 127.976562 131.664062 128.238281 131.691406 128.394531 131.863281 C 128.550781 132.035156 128.542969 132.300781 128.378906 132.46875 L 127.28125 133.578125 C 123.34375 138.710938 125.070312 151.90625 131.636719 164.972656 C 138.71875 179.066406 148.746094 188.796875 155.003906 187.675781 L 155.089844 187.660156 C 155.328125 187.613281 155.558594 187.773438 155.605469 188.011719 C 155.652344 188.25 155.496094 188.480469 155.257812 188.527344 C 155.226562 188.53125 155.195312 188.539062 155.164062 188.542969 L 154.042969 188.753906 C 154.039062 188.753906 154.03125 188.753906 154.027344 188.757812 L 127.152344 192.695312 C 127.128906 192.699219 127.109375 192.699219 127.085938 192.699219 " fill-opacity="1" fill-rule="nonzero"/><path fill="#00f3f7" d="M 244.648438 86.203125 C 240.5625 88.238281 241.039062 97.871094 246.105469 107.519531 C 254.601562 123.695312 261.535156 121.878906 262.347656 121.597656 C 262.363281 121.589844 262.371094 121.609375 262.359375 121.621094 L 247.285156 133.449219 C 242.988281 127.242188 238.882812 120.347656 235.148438 112.917969 C 231.566406 105.789062 228.589844 98.691406 226.226562 91.824219 L 244.648438 86.203125 " fill-opacity="1" fill-rule="nonzero"/><path fill="#00f3f7" d="M 226.789062 92.109375 C 229.175781 98.96875 232.121094 105.898438 235.546875 112.714844 C 239.117188 119.824219 243.097656 126.582031 247.382812 132.8125 L 260.875 122.222656 C 258.125 122.171875 252.320312 120.296875 245.714844 107.722656 C 242.039062 100.71875 240.578125 93.367188 241.992188 88.992188 C 242.210938 88.304688 242.5 87.710938 242.851562 87.214844 Z M 247.285156 133.890625 C 247.265625 133.890625 247.242188 133.886719 247.222656 133.886719 C 247.101562 133.867188 246.992188 133.800781 246.925781 133.699219 C 242.511719 127.332031 238.417969 120.40625 234.757812 113.113281 C 231.238281 106.117188 228.230469 99.003906 225.808594 91.964844 C 225.765625 91.851562 225.777344 91.726562 225.832031 91.621094 C 225.886719 91.511719 225.984375 91.433594 226.09375 91.398438 L 244.519531 85.78125 C 244.742188 85.714844 244.976562 85.828125 245.0625 86.039062 C 245.144531 86.253906 245.050781 86.496094 244.847656 86.597656 C 243.933594 87.054688 243.257812 87.949219 242.832031 89.261719 C 241.507812 93.359375 242.980469 100.613281 246.496094 107.3125 C 254.835938 123.1875 261.476562 121.429688 262.207031 121.175781 C 262.410156 121.105469 262.648438 121.199219 262.753906 121.386719 C 262.855469 121.574219 262.804688 121.832031 262.636719 121.964844 L 247.558594 133.796875 C 247.480469 133.855469 247.386719 133.890625 247.285156 133.890625 " fill-opacity="1" fill-rule="nonzero"/><path fill="#00f3f7" d="M 329.230469 364.480469 L 174.457031 364.480469 C 169.949219 364.480469 166.300781 360.832031 166.300781 356.328125 L 166.300781 355.863281 L 337.382812 355.863281 L 337.382812 356.328125 C 337.382812 360.832031 333.734375 364.480469 329.230469 364.480469 " fill-opacity="1" fill-rule="nonzero"/><path fill="#00f3f7" d="M 337.292969 352.503906 L 223.832031 352.503906 L 257.394531 253.066406 C 258.066406 251.070312 259.332031 249.296875 261.074219 248.113281 C 262.914062 246.859375 265.128906 246.160156 267.445312 246.160156 L 364.269531 246.160156 C 368.394531 246.160156 371.050781 250.1875 369.703125 253.746094 C 369.171875 255.160156 337.292969 352.503906 337.292969 352.503906 " fill-opacity="1" fill-rule="nonzero"/><path fill="#ffffff" d="M 333.269531 347.203125 L 231.117188 347.203125 L 261.140625 258.246094 C 262.425781 254.441406 265.855469 251.671875 269.867188 251.472656 C 270.039062 251.460938 270.210938 251.457031 270.382812 251.457031 L 357.558594 251.457031 C 361.269531 251.457031 363.664062 255.085938 362.453125 258.289062 C 361.96875 259.5625 333.269531 347.203125 333.269531 347.203125 " fill-opacity="1" fill-rule="nonzero"/><path fill="#00f3f7" d="M 248.136719 321.382812 C 247.917969 321.382812 247.730469 321.21875 247.699219 320.992188 C 247.671875 320.75 247.84375 320.53125 248.085938 320.5 C 248.246094 320.480469 264.5 318.4375 284.800781 309.878906 C 303.519531 301.988281 329.605469 286.785156 347.585938 259.160156 C 347.71875 258.957031 347.992188 258.898438 348.195312 259.03125 C 348.402344 259.164062 348.457031 259.4375 348.328125 259.640625 C 330.21875 287.460938 303.957031 302.765625 285.117188 310.707031 C 264.710938 319.304688 248.355469 321.359375 248.191406 321.378906 C 248.175781 321.382812 248.15625 321.382812 248.136719 321.382812 " fill-opacity="1" fill-rule="nonzero"/><path fill="#00f3f7" d="M 349.5625 267.867188 C 349.347656 267.867188 349.160156 267.707031 349.125 267.488281 L 347.902344 259 L 339.457031 263.144531 C 339.238281 263.253906 338.976562 263.164062 338.867188 262.945312 C 338.761719 262.726562 338.847656 262.460938 339.070312 262.355469 L 348.058594 257.9375 C 348.183594 257.875 348.332031 257.878906 348.457031 257.941406 C 348.582031 258.007812 348.667969 258.132812 348.6875 258.269531 L 350 267.359375 C 350.035156 267.601562 349.871094 267.824219 349.628906 267.863281 C 349.605469 267.863281 349.585938 267.867188 349.5625 267.867188 " fill-opacity="1" fill-rule="nonzero"/><path fill="#00f3f7" d="M 245.800781 328.269531 L 243.226562 335.898438 C 242.597656 337.765625 243.984375 339.695312 245.949219 339.695312 L 253.722656 339.695312 C 254.96875 339.695312 256.070312 338.894531 256.457031 337.710938 L 258.945312 330.082031 C 259.550781 328.226562 258.167969 326.316406 256.210938 326.316406 L 248.527344 326.316406 C 247.292969 326.316406 246.195312 327.101562 245.800781 328.269531 " fill-opacity="1" fill-rule="nonzero"/><path fill="#00f3f7" d="M 271.414062 321.230469 L 266.585938 335.921875 C 265.972656 337.78125 267.359375 339.695312 269.316406 339.695312 L 277.113281 339.695312 C 278.359375 339.695312 279.46875 338.890625 279.847656 337.699219 L 284.574219 323.007812 C 285.167969 321.152344 283.785156 319.253906 281.835938 319.253906 L 274.144531 319.253906 C 272.90625 319.253906 271.804688 320.046875 271.414062 321.230469 " fill-opacity="1" fill-rule="nonzero"/><path fill="#00f3f7" d="M 298.34375 310.632812 L 289.984375 335.917969 C 289.371094 337.777344 290.757812 339.695312 292.71875 339.695312 L 300.515625 339.695312 C 301.757812 339.695312 302.863281 338.890625 303.25 337.710938 L 311.480469 312.421875 C 312.085938 310.5625 310.699219 308.65625 308.746094 308.65625 L 301.074219 308.65625 C 299.832031 308.65625 298.730469 309.453125 298.34375 310.632812 " fill-opacity="1" fill-rule="nonzero"/><path fill="#00f3f7" d="M 328.34375 292.101562 L 313.433594 335.789062 C 312.796875 337.65625 314.183594 339.59375 316.152344 339.59375 L 323.933594 339.59375 C 325.167969 339.59375 326.265625 338.808594 326.660156 337.640625 L 341.4375 293.949219 C 342.066406 292.085938 340.683594 290.152344 338.714844 290.152344 L 331.066406 290.152344 C 329.835938 290.152344 328.742188 290.9375 328.34375 292.101562 " fill-opacity="1" fill-rule="nonzero"/><path fill="#ffffff" d="M 166.234375 66.480469 L 152.21875 64.761719 C 150.492188 64.546875 148.800781 65.367188 147.886719 66.859375 L 143.25 74.4375 L 139.710938 65.5625 C 139.105469 64.046875 137.726562 62.980469 136.117188 62.78125 L 123.226562 61.199219 C 120.785156 60.898438 119.050781 58.660156 119.347656 56.203125 L 122.683594 28.652344 C 122.980469 26.195312 125.203125 24.445312 127.644531 24.746094 L 170.648438 30.027344 C 173.089844 30.324219 174.828125 32.5625 174.53125 35.023438 L 171.191406 62.570312 C 170.894531 65.03125 168.675781 66.78125 166.234375 66.480469 " fill-opacity="1" fill-rule="nonzero"/><path fill="#00f3f7" d="M 127.097656 25.15625 C 126.210938 25.15625 125.355469 25.449219 124.644531 26.003906 C 123.792969 26.667969 123.25 27.632812 123.121094 28.707031 L 119.785156 56.257812 C 119.515625 58.472656 121.085938 60.492188 123.28125 60.761719 L 136.167969 62.34375 C 137.941406 62.5625 139.453125 63.734375 140.121094 65.402344 L 143.335938 73.457031 L 147.511719 66.628906 C 148.511719 64.996094 150.378906 64.089844 152.273438 64.324219 L 166.285156 66.046875 C 167.34375 66.171875 168.390625 65.882812 169.230469 65.226562 C 170.082031 64.558594 170.625 63.597656 170.753906 62.519531 L 174.089844 34.972656 C 174.359375 32.757812 172.792969 30.738281 170.59375 30.464844 L 127.589844 25.183594 C 127.425781 25.164062 127.261719 25.15625 127.097656 25.15625 Z M 143.25 74.882812 C 143.238281 74.882812 143.226562 74.878906 143.210938 74.878906 C 143.046875 74.867188 142.902344 74.757812 142.839844 74.605469 L 139.300781 65.726562 C 138.753906 64.359375 137.511719 63.398438 136.0625 63.222656 L 123.175781 61.640625 C 120.496094 61.308594 118.582031 58.847656 118.90625 56.152344 L 122.246094 28.601562 C 122.402344 27.289062 123.0625 26.121094 124.097656 25.308594 C 125.125 24.503906 126.402344 24.148438 127.695312 24.308594 L 170.699219 29.589844 C 173.378906 29.921875 175.292969 32.382812 174.96875 35.078125 L 171.632812 62.628906 C 171.472656 63.9375 170.8125 65.109375 169.777344 65.921875 C 168.746094 66.726562 167.46875 67.082031 166.179688 66.921875 L 152.164062 65.199219 C 150.617188 65.007812 149.082031 65.75 148.265625 67.09375 L 143.628906 74.671875 C 143.546875 74.804688 143.402344 74.882812 143.25 74.882812 " fill-opacity="1" fill-rule="nonzero"/><path fill="#00f3f7" d="M 152.890625 48.042969 C 151.550781 47.875 150.292969 48.378906 149.410156 49.273438 L 141.734375 45.148438 C 141.753906 45.042969 141.792969 44.945312 141.804688 44.835938 C 141.828125 44.632812 141.820312 44.4375 141.816406 44.238281 L 150.546875 41.429688 C 151.203125 42.394531 152.238281 43.09375 153.480469 43.246094 C 155.777344 43.535156 157.878906 41.882812 158.160156 39.574219 C 158.445312 37.257812 156.808594 35.144531 154.511719 34.855469 C 152.214844 34.570312 150.113281 36.222656 149.828125 38.535156 C 149.804688 38.734375 149.8125 38.933594 149.816406 39.128906 L 141.089844 41.941406 C 140.429688 40.976562 139.394531 40.277344 138.15625 40.121094 C 135.859375 39.835938 133.757812 41.484375 133.472656 43.796875 C 133.1875 46.113281 134.828125 48.226562 137.121094 48.511719 C 138.460938 48.679688 139.722656 48.175781 140.605469 47.28125 L 148.28125 51.40625 C 148.257812 51.511719 148.222656 51.609375 148.210938 51.71875 C 147.925781 54.03125 149.5625 56.148438 151.859375 56.433594 C 154.15625 56.71875 156.257812 55.070312 156.542969 52.757812 C 156.824219 50.445312 155.1875 48.328125 152.890625 48.042969 " fill-opacity="1" fill-rule="nonzero"/><path fill="#00f3f7" d="M 98.328125 112.550781 L 84.785156 117.960938 C 83.117188 118.628906 81.984375 120.210938 81.886719 122.019531 L 81.398438 131.1875 L 73.839844 124.910156 C 72.550781 123.835938 70.78125 123.554688 69.222656 124.175781 L 56.769531 129.152344 C 54.410156 130.09375 51.738281 128.933594 50.804688 126.558594 L 40.339844 99.941406 C 39.40625 97.566406 40.558594 94.878906 42.917969 93.933594 L 84.480469 77.335938 C 86.839844 76.390625 89.507812 77.554688 90.445312 79.929688 L 100.910156 106.542969 C 101.84375 108.921875 100.6875 111.609375 98.328125 112.550781 " fill-opacity="1" fill-rule="nonzero"/><path fill="#ffffff" d="M 75.316406 95.320312 C 73.996094 94.664062 72.503906 94.601562 71.113281 95.140625 C 70.078125 95.546875 69.25 96.246094 68.664062 97.222656 C 68.367188 97.714844 68.140625 98.265625 67.980469 98.867188 C 67.464844 98.527344 66.925781 98.273438 66.378906 98.109375 C 65.292969 97.78125 64.214844 97.820312 63.179688 98.226562 C 61.789062 98.765625 60.726562 99.820312 60.183594 101.199219 C 59.648438 102.5625 59.664062 104.128906 60.234375 105.617188 C 60.820312 107.148438 61.921875 108.332031 63.707031 109.335938 C 65.300781 110.238281 67.378906 110.972656 69.785156 111.820312 C 70.605469 112.113281 71.539062 112.4375 72.511719 112.796875 C 72.769531 112.894531 73.050781 112.890625 73.308594 112.792969 C 73.5625 112.691406 73.773438 112.503906 73.902344 112.257812 C 74.386719 111.332031 74.855469 110.460938 75.273438 109.6875 C 76.488281 107.429688 77.542969 105.480469 78.125 103.734375 C 78.773438 101.785156 78.804688 100.164062 78.21875 98.628906 C 77.652344 97.144531 76.617188 95.96875 75.316406 95.320312 " fill-opacity="1" fill-rule="nonzero"/><path fill="#ffffff" d="M 80.285156 31.886719 C 83.847656 42.246094 78.464844 53.796875 68.257812 57.679688 C 58.050781 61.5625 46.882812 56.3125 43.320312 45.953125 C 39.753906 35.589844 45.140625 24.042969 55.347656 20.160156 C 65.554688 16.273438 76.71875 21.523438 80.285156 31.886719 " fill-opacity="1" fill-rule="nonzero"/><path fill="#00f3f7" d="M 61.335938 60.042969 C 58.4375 60.042969 55.5625 59.410156 52.871094 58.148438 C 47.886719 55.816406 44.136719 51.613281 42.316406 46.316406 C 38.570312 35.421875 44.25 23.238281 54.984375 19.152344 C 61.472656 16.683594 68.636719 17.648438 74.152344 21.726562 C 74.347656 21.871094 74.390625 22.148438 74.246094 22.34375 C 74.097656 22.539062 73.824219 22.582031 73.625 22.433594 C 68.355469 18.535156 61.503906 17.617188 55.300781 19.976562 C 45.003906 23.894531 39.554688 35.582031 43.152344 46.03125 C 44.894531 51.097656 48.480469 55.117188 53.246094 57.351562 C 57.988281 59.570312 63.335938 59.753906 68.304688 57.859375 C 78.597656 53.945312 84.046875 42.257812 80.453125 31.808594 C 80.371094 31.574219 80.496094 31.324219 80.726562 31.246094 C 80.953125 31.167969 81.207031 31.289062 81.285156 31.519531 C 85.035156 42.414062 79.351562 54.601562 68.617188 58.683594 C 66.242188 59.589844 63.78125 60.042969 61.335938 60.042969 " fill-opacity="1" fill-rule="nonzero"/><path fill="#00f3f7" d="M 64.21875 50.640625 L 63.320312 48.039062 C 61.484375 48.644531 59.5625 48.816406 58.328125 48.605469 L 58.035156 45.09375 C 59.386719 45.292969 61.175781 45.261719 62.929688 44.59375 C 64.46875 44.007812 65.3125 43.003906 64.9375 41.910156 C 64.578125 40.867188 63.488281 40.539062 61.253906 40.613281 C 58.027344 40.726562 55.585938 40.105469 54.671875 37.449219 C 53.84375 35.039062 54.867188 32.511719 57.554688 30.835938 L 56.660156 28.234375 L 59.304688 27.226562 L 60.136719 29.636719 C 61.972656 29.03125 63.316406 28.957031 64.359375 29.054688 L 64.640625 32.449219 C 63.835938 32.414062 62.378906 32.253906 60.433594 32.996094 C 58.679688 33.664062 58.378906 34.644531 58.640625 35.410156 C 58.953125 36.316406 60.09375 36.535156 62.691406 36.535156 C 66.300781 36.464844 68.113281 37.476562 68.960938 39.945312 C 69.800781 42.382812 68.816406 45.113281 65.902344 46.839844 L 66.863281 49.636719 L 64.21875 50.640625 " fill-opacity="1" fill-rule="nonzero"/></svg>