<svg xmlns="http://www.w3.org/2000/svg" xmlns:xlink="http://www.w3.org/1999/xlink" width="500" zoomAndPan="magnify" viewBox="0 0 375 374.999991" height="500" preserveAspectRatio="xMidYMid meet" version="1.0"><defs><clipPath id="913f3097ef"><path d="M 4.253906 4.253906 L 371 4.253906 L 371 371 L 4.253906 371 Z M 4.253906 4.253906 " clip-rule="nonzero"/></clipPath></defs><path fill="#00f3f7" d="M 280.953125 255.425781 L 244.761719 255.425781 C 243.414062 255.425781 242.316406 254.335938 242.316406 252.980469 C 242.316406 251.636719 243.40625 250.535156 244.761719 250.535156 L 278.507812 250.535156 L 278.507812 229.441406 C 278.507812 228.097656 279.601562 226.996094 280.953125 226.996094 C 282.300781 226.996094 283.398438 228.089844 283.398438 229.441406 L 283.398438 252.980469 C 283.398438 254.335938 282.300781 255.425781 280.953125 255.425781 Z M 280.953125 255.425781 " fill-opacity="1" fill-rule="nonzero"/><path fill="#00f3f7" d="M 290.363281 231.890625 L 271.539062 231.890625 C 269.375 231.890625 267.519531 230.648438 266.691406 228.652344 C 265.867188 226.652344 266.300781 224.460938 267.828125 222.9375 L 277.238281 213.527344 C 278.222656 212.539062 279.539062 211.992188 280.945312 211.992188 C 282.351562 211.992188 283.667969 212.539062 284.65625 213.527344 L 294.066406 222.9375 C 295.589844 224.460938 296.03125 226.652344 295.203125 228.652344 C 294.378906 230.648438 292.523438 231.890625 290.363281 231.890625 Z M 271.289062 226.390625 C 271.171875 226.511719 271.148438 226.625 271.214844 226.78125 C 271.277344 226.9375 271.378906 226.996094 271.546875 226.996094 L 290.371094 226.996094 C 290.542969 226.996094 290.632812 226.9375 290.699219 226.78125 C 290.757812 226.625 290.746094 226.511719 290.625 226.390625 L 281.214844 216.984375 C 281.132812 216.898438 281.027344 216.878906 280.960938 216.878906 C 280.894531 216.878906 280.796875 216.898438 280.707031 216.984375 Z M 271.289062 226.390625 " fill-opacity="1" fill-rule="nonzero"/><path fill="#00f3f7" d="M 231.230469 176.886719 L 219.59375 176.886719 C 211.828125 176.886719 205.507812 170.566406 205.507812 162.800781 L 205.507812 152.007812 C 205.507812 144.246094 211.828125 137.925781 219.59375 137.925781 L 231.230469 137.925781 C 232.578125 137.925781 233.675781 139.015625 233.675781 140.371094 L 233.675781 174.445312 C 233.675781 175.792969 232.585938 176.886719 231.230469 176.886719 Z M 219.59375 142.808594 C 214.523438 142.808594 210.394531 146.929688 210.394531 152.007812 L 210.394531 162.800781 C 210.394531 167.871094 214.515625 172 219.59375 172 L 228.792969 172 L 228.792969 142.816406 L 219.59375 142.816406 Z M 219.59375 142.808594 " fill-opacity="1" fill-rule="nonzero"/><path fill="#00f3f7" d="M 271.71875 192.496094 C 270.371094 192.496094 269.269531 191.402344 269.269531 190.050781 L 269.269531 124.761719 C 269.269531 123.414062 270.363281 122.316406 271.71875 122.316406 C 273.0625 122.316406 274.164062 123.40625 274.164062 124.761719 L 274.164062 190.050781 C 274.15625 191.394531 273.0625 192.496094 271.71875 192.496094 Z M 271.71875 192.496094 " fill-opacity="1" fill-rule="nonzero"/><path fill="#00f3f7" d="M 222.964844 204.542969 C 217.066406 204.542969 212.261719 199.742188 212.261719 193.839844 L 212.261719 173.355469 C 212.261719 172.007812 213.355469 170.910156 214.707031 170.910156 C 216.054688 170.910156 217.15625 172 217.15625 173.355469 L 217.15625 193.839844 C 217.15625 197.050781 219.765625 199.660156 222.972656 199.660156 C 226.183594 199.660156 228.800781 197.050781 228.800781 193.839844 L 228.800781 174.441406 C 228.800781 173.09375 229.890625 171.992188 231.246094 171.992188 C 232.59375 171.992188 233.691406 173.085938 233.691406 174.441406 L 233.691406 193.839844 C 233.675781 199.742188 228.875 204.542969 222.964844 204.542969 Z M 222.964844 204.542969 " fill-opacity="1" fill-rule="nonzero"/><path fill="#00f3f7" d="M 287.238281 198.472656 C 286.9375 198.472656 286.636719 198.417969 286.355469 198.304688 L 230.355469 176.722656 C 229.089844 176.234375 228.472656 174.820312 228.949219 173.566406 C 229.4375 172.300781 230.847656 171.679688 232.105469 172.160156 L 284.785156 192.464844 L 284.785156 122.332031 L 232.105469 142.636719 C 230.84375 143.125 229.4375 142.496094 228.949219 141.230469 C 228.464844 139.96875 229.089844 138.5625 230.355469 138.074219 L 286.355469 116.488281 C 287.109375 116.195312 287.953125 116.300781 288.613281 116.75 C 289.277344 117.207031 289.675781 117.953125 289.675781 118.761719 L 289.675781 196.023438 C 289.675781 196.832031 289.277344 197.582031 288.613281 198.039062 C 288.203125 198.328125 287.714844 198.472656 287.238281 198.472656 Z M 287.238281 198.472656 " fill-opacity="1" fill-rule="nonzero"/><path fill="#00f3f7" d="M 155.867188 191.027344 C 147.601562 191.027344 139.898438 187.640625 134.183594 181.476562 C 127.84375 174.640625 124.492188 164.96875 124.492188 153.503906 C 124.492188 152.710938 124.515625 151.957031 124.550781 151.1875 C 124.558594 151.125 124.558594 151.066406 124.574219 151 C 124.632812 150.511719 126.242188 139.089844 132.6875 133.617188 C 132.988281 133.363281 133.28125 133.117188 133.570312 132.875 C 136.464844 130.460938 138.375 128.867188 138.375 125.015625 C 138.375 123.855469 139.179688 122.863281 140.3125 122.628906 C 141.449219 122.390625 142.585938 122.980469 143.046875 124.035156 C 143.339844 124.679688 150.730469 139.960938 179.5625 128.738281 C 180.550781 128.351562 181.671875 128.652344 182.34375 129.472656 C 182.554688 129.734375 187.527344 136.003906 187.214844 151.640625 C 187.246094 152.261719 187.257812 152.890625 187.257812 153.511719 C 187.257812 164.976562 183.910156 174.648438 177.566406 181.484375 C 171.835938 187.632812 164.132812 191.027344 155.867188 191.027344 Z M 129.421875 151.566406 C 129.382812 152.210938 129.367188 152.847656 129.367188 153.503906 C 129.367188 175.929688 143.109375 186.144531 155.859375 186.144531 C 168.613281 186.144531 182.351562 175.933594 182.351562 153.503906 C 182.351562 152.9375 182.335938 152.351562 182.316406 151.785156 C 182.308594 151.730469 182.308594 151.671875 182.316406 151.621094 C 182.515625 141.910156 180.566406 136.414062 179.390625 134.019531 C 166.480469 138.695312 155.816406 138.964844 147.664062 134.8125 C 145.230469 133.570312 143.371094 132.089844 141.984375 130.707031 C 140.699219 133.289062 138.613281 135.03125 136.683594 136.636719 C 136.398438 136.871094 136.113281 137.109375 135.832031 137.347656 C 131.082031 141.386719 129.570312 150.59375 129.421875 151.566406 Z M 129.421875 151.566406 " fill-opacity="1" fill-rule="nonzero"/><path fill="#00f3f7" d="M 198.5625 208.671875 C 197.214844 208.671875 196.113281 207.582031 196.113281 206.226562 L 196.113281 140.304688 C 196.113281 118.113281 178.058594 100.050781 155.859375 100.050781 C 133.660156 100.050781 115.605469 118.105469 115.605469 140.304688 L 115.605469 206.210938 C 115.605469 207.558594 114.515625 208.65625 113.160156 208.65625 C 111.8125 208.65625 110.714844 207.566406 110.714844 206.210938 L 110.714844 140.304688 C 110.714844 115.410156 130.960938 95.164062 155.851562 95.164062 C 180.746094 95.164062 200.992188 115.410156 200.992188 140.304688 L 200.992188 206.226562 C 201.007812 207.582031 199.914062 208.671875 198.5625 208.671875 Z M 198.5625 208.671875 " fill-opacity="1" fill-rule="nonzero"/><path fill="#00f3f7" d="M 229.660156 280.550781 L 82.074219 280.550781 C 80.730469 280.550781 79.628906 279.457031 79.628906 278.105469 L 79.628906 227.851562 C 79.628906 218.410156 86.265625 211.582031 99.339844 207.527344 C 107.679688 204.949219 114.304688 203.363281 119.628906 202.082031 C 132.867188 198.914062 136.046875 197.886719 137.550781 190.738281 C 137.941406 188.882812 138.351562 185.867188 138.351562 183.9375 C 138.351562 182.59375 139.441406 181.492188 140.796875 181.492188 C 142.144531 181.492188 143.242188 182.585938 143.242188 183.9375 C 143.242188 186.226562 142.785156 189.601562 142.332031 191.746094 C 140.140625 202.195312 133.660156 203.75 120.765625 206.839844 C 115.507812 208.105469 108.972656 209.667969 100.789062 212.203125 C 89.847656 215.589844 84.53125 220.707031 84.53125 227.859375 L 84.53125 275.667969 L 227.230469 275.667969 L 227.230469 227.859375 C 227.230469 220.714844 221.910156 215.597656 210.960938 212.203125 C 202.777344 209.667969 196.242188 208.097656 190.984375 206.839844 C 178.089844 203.742188 171.613281 202.195312 169.421875 191.746094 C 168.988281 189.683594 168.695312 187.246094 168.515625 184.082031 C 168.441406 182.734375 169.464844 181.574219 170.820312 181.5 C 172.164062 181.425781 173.324219 182.449219 173.398438 183.804688 C 173.566406 186.675781 173.828125 188.949219 174.207031 190.746094 C 175.710938 197.894531 178.890625 198.917969 192.128906 202.089844 C 197.453125 203.371094 204.082031 204.957031 212.421875 207.535156 C 225.496094 211.589844 232.128906 218.425781 232.128906 227.859375 L 232.128906 278.113281 C 232.105469 279.464844 231.007812 280.550781 229.660156 280.550781 Z M 229.660156 280.550781 " fill-opacity="1" fill-rule="nonzero"/><path fill="#00f3f7" d="M 155.867188 280.550781 C 155.226562 280.550781 154.582031 280.296875 154.09375 279.792969 C 132.359375 257.050781 130.617188 220.085938 131.515625 200.078125 C 131.574219 198.734375 132.71875 197.691406 134.066406 197.746094 C 135.410156 197.804688 136.460938 198.949219 136.398438 200.296875 C 135.539062 219.53125 137.15625 254.992188 157.632812 276.421875 C 158.566406 277.402344 158.53125 278.941406 157.558594 279.878906 C 157.085938 280.324219 156.472656 280.550781 155.867188 280.550781 Z M 155.867188 280.550781 " fill-opacity="1" fill-rule="nonzero"/><path fill="#00f3f7" d="M 155.867188 280.550781 C 155.261719 280.550781 154.648438 280.324219 154.183594 279.871094 C 153.207031 278.933594 153.175781 277.394531 154.109375 276.414062 C 174.589844 254.984375 176.203125 219.519531 175.34375 200.289062 C 175.285156 198.941406 176.324219 197.796875 177.679688 197.738281 C 179.023438 197.679688 180.167969 198.71875 180.230469 200.070312 C 181.125 220.078125 179.382812 257.050781 157.648438 279.789062 C 157.15625 280.304688 156.511719 280.550781 155.867188 280.550781 Z M 155.867188 280.550781 " fill-opacity="1" fill-rule="nonzero"/><path fill="#00f3f7" d="M 114.148438 280.550781 C 113.347656 280.550781 112.5625 280.152344 112.089844 279.429688 C 94.707031 252.457031 108.179688 239.089844 108.761719 238.53125 C 109.742188 237.597656 111.285156 237.632812 112.21875 238.605469 C 113.144531 239.578125 113.117188 241.109375 112.160156 242.046875 C 111.671875 242.53125 101.164062 253.429688 116.203125 276.773438 C 116.9375 277.910156 116.609375 279.421875 115.480469 280.144531 C 115.054688 280.429688 114.605469 280.550781 114.148438 280.550781 Z M 114.148438 280.550781 " fill-opacity="1" fill-rule="nonzero"/><path fill="#00f3f7" d="M 197.589844 280.550781 C 197.132812 280.550781 196.675781 280.421875 196.273438 280.160156 C 195.136719 279.429688 194.8125 277.917969 195.546875 276.789062 C 210.757812 253.175781 199.71875 242.179688 199.609375 242.074219 C 198.628906 241.140625 198.597656 239.601562 199.53125 238.621094 C 200.46875 237.640625 202.007812 237.609375 202.988281 238.546875 C 203.570312 239.097656 217.035156 252.472656 199.660156 279.441406 C 199.175781 280.160156 198.390625 280.550781 197.589844 280.550781 Z M 197.589844 280.550781 " fill-opacity="1" fill-rule="nonzero"/><path fill="#00f3f7" d="M 155.867188 242.21875 C 147.769531 242.21875 139.863281 239.601562 134.191406 235.023438 C 133.144531 234.179688 132.972656 232.636719 133.820312 231.589844 C 134.664062 230.542969 136.203125 230.371094 137.25 231.214844 C 142.074219 235.097656 148.859375 237.328125 155.867188 237.328125 C 162.367188 237.328125 168.574219 235.464844 173.332031 232.082031 C 174.433594 231.296875 175.957031 231.558594 176.734375 232.660156 C 177.519531 233.757812 177.257812 235.285156 176.160156 236.0625 C 170.582031 240.035156 163.371094 242.21875 155.867188 242.21875 Z M 155.867188 242.21875 " fill-opacity="1" fill-rule="nonzero"/><g clip-path="url(#913f3097ef)"><path fill="#00f3f7" d="M 187.5 370.746094 C 162.765625 370.746094 138.761719 365.898438 116.167969 356.347656 C 94.351562 347.117188 74.746094 333.910156 57.917969 317.078125 C 41.089844 300.25 27.878906 280.65625 18.652344 258.828125 C 9.097656 236.234375 4.253906 212.234375 4.253906 187.5 C 4.253906 162.765625 9.097656 138.761719 18.652344 116.167969 C 27.878906 94.351562 41.089844 74.746094 57.917969 57.917969 C 74.746094 41.089844 94.34375 27.878906 116.167969 18.652344 C 138.761719 9.097656 162.765625 4.253906 187.5 4.253906 C 212.234375 4.253906 236.234375 9.097656 258.828125 18.652344 C 280.648438 27.878906 300.25 41.089844 317.078125 57.917969 C 333.910156 74.746094 347.117188 94.34375 356.347656 116.167969 C 365.90625 138.761719 370.746094 162.757812 370.746094 187.5 C 370.746094 212.234375 365.898438 236.234375 356.347656 258.828125 C 347.117188 280.648438 333.910156 300.25 317.078125 317.078125 C 300.25 333.910156 280.65625 347.117188 258.828125 356.347656 C 236.234375 365.898438 212.234375 370.746094 187.5 370.746094 Z M 187.5 9.078125 C 89.113281 9.078125 9.078125 89.113281 9.078125 187.5 C 9.078125 285.882812 89.113281 365.921875 187.5 365.921875 C 285.882812 365.921875 365.921875 285.882812 365.921875 187.5 C 365.921875 89.113281 285.882812 9.078125 187.5 9.078125 Z M 187.5 9.078125 " fill-opacity="1" fill-rule="nonzero"/></g></svg>