<svg xmlns="http://www.w3.org/2000/svg" xmlns:xlink="http://www.w3.org/1999/xlink" width="500" zoomAndPan="magnify" viewBox="0 0 375 374.999991" height="500" preserveAspectRatio="xMidYMid meet" version="1.0"><defs><clipPath id="ec56a9ab5e"><path d="M 18.75 46 L 352 46 L 352 370.324219 L 18.75 370.324219 Z M 18.75 46 " clip-rule="nonzero"/></clipPath><clipPath id="6a57202299"><path d="M 311 4.355469 L 356.25 4.355469 L 356.25 139 L 311 139 Z M 311 4.355469 " clip-rule="nonzero"/></clipPath></defs><g clip-path="url(#ec56a9ab5e)"><path fill="#00f3f7" d="M 305.472656 279.496094 C 299.214844 273.261719 289.109375 273.261719 282.863281 279.496094 L 262.515625 259.148438 C 257.15625 253.808594 256.394531 245.5 260.4375 239.117188 C 281.992188 205.085938 286.363281 163.25 273.554688 126.0625 C 272.371094 141.527344 270.398438 156.402344 267.476562 170.394531 C 265.140625 181.941406 257.328125 191.09375 247.230469 195.695312 C 242.746094 212.101562 234.09375 227.613281 221.214844 240.457031 C 181.8125 279.894531 117.6875 279.894531 78.253906 240.457031 C 38.847656 201.042969 38.847656 136.90625 78.253906 97.492188 C 84.269531 91.472656 90.878906 86.363281 97.898438 82.195312 C 97.214844 78.734375 96.851562 75.109375 96.851562 71.429688 C 96.851562 62.585938 98.929688 54.171875 102.644531 46.699219 C 89.015625 51.890625 76.105469 59.453125 64.558594 69.351562 C 6.089844 119.578125 3.589844 208.160156 57.074219 261.667969 C 101.222656 305.816406 169.332031 311.789062 219.980469 279.597656 C 226.335938 275.589844 234.605469 276.417969 239.90625 281.734375 L 260.265625 302.105469 C 257.132812 305.203125 255.589844 309.328125 255.589844 313.378906 C 255.589844 317.492188 257.132812 321.554688 260.265625 324.691406 L 296.867188 361.300781 C 309.335938 373.78125 329.570312 373.78125 342.070312 361.300781 C 348.304688 355.066406 351.417969 346.867188 351.417969 338.703125 C 351.417969 330.503906 348.304688 322.339844 342.070312 316.09375 L 305.472656 279.496094 " fill-opacity="1" fill-rule="nonzero"/></g><path fill="#00f3f7" d="M 152.835938 104.191406 C 170.921875 104.191406 185.570312 89.542969 185.570312 71.441406 C 185.570312 53.375 170.921875 38.707031 152.835938 38.707031 C 134.734375 38.707031 120.085938 53.375 120.085938 71.441406 C 120.085938 89.542969 134.734375 104.191406 152.835938 104.191406 " fill-opacity="1" fill-rule="nonzero"/><path fill="#00f3f7" d="M 89.777344 197.035156 C 95.921875 210.511719 103.621094 224.117188 113.261719 237.789062 C 124.34375 243.660156 136.800781 246.792969 149.734375 246.792969 C 162.429688 246.792969 174.671875 243.785156 185.605469 238.082031 L 185.800781 163.660156 C 199.300781 169.441406 214.324219 173.277344 230.640625 175.527344 C 237.195312 176.457031 243.40625 172.175781 244.734375 165.691406 C 248.253906 148.589844 250.285156 131 251.113281 113.070312 C 244.222656 109.484375 237.785156 106.835938 231.230469 104.996094 L 222.566406 144.558594 L 196.269531 126.847656 C 188.785156 123.9375 180.835938 122.441406 172.832031 122.441406 L 130.363281 122.441406 C 120.699219 122.441406 111.476562 126.480469 104.890625 133.546875 C 97.636719 145.808594 92.320312 159.164062 88.164062 173.128906 C 85.792969 181.035156 86.382812 189.527344 89.777344 197.035156 " fill-opacity="1" fill-rule="nonzero"/><path fill="#00f3f7" d="M 214.597656 84.21875 C 233.605469 85.933594 248.753906 91.28125 266.242188 101.339844 C 267.898438 102.296875 269.976562 101.070312 269.976562 99.148438 L 269.976562 83.785156 C 276.789062 83.785156 282.320312 78.265625 282.320312 71.441406 C 282.320312 64.628906 276.789062 59.109375 269.976562 59.109375 L 269.976562 43.746094 C 269.976562 41.828125 267.898438 40.601562 266.242188 41.554688 C 248.753906 51.617188 233.605469 56.964844 214.597656 58.679688 C 213.300781 58.804688 212.300781 59.871094 212.300781 61.167969 L 212.300781 81.730469 C 212.300781 83.023438 213.300781 84.09375 214.597656 84.21875 " fill-opacity="1" fill-rule="nonzero"/><path fill="#00f3f7" d="M 301.953125 71.441406 C 301.953125 79.777344 298.296875 87.636719 291.9375 92.984375 C 288.222656 96.105469 287.746094 101.636719 290.871094 105.351562 C 292.609375 107.417969 295.09375 108.472656 297.59375 108.472656 C 299.578125 108.472656 301.589844 107.804688 303.234375 106.417969 C 313.570312 97.71875 319.507812 84.96875 319.507812 71.441406 C 319.507812 57.941406 313.582031 45.199219 303.246094 36.480469 C 299.546875 33.34375 294.003906 33.8125 290.882812 37.511719 C 287.757812 41.226562 288.222656 46.757812 291.925781 49.890625 C 298.296875 55.261719 301.953125 63.121094 301.953125 71.441406 " fill-opacity="1" fill-rule="nonzero"/><g clip-path="url(#6a57202299)"><path fill="#00f3f7" d="M 338.757812 71.441406 C 338.757812 91.40625 330.011719 110.210938 314.75 123.042969 C 311.046875 126.164062 310.570312 131.707031 313.695312 135.40625 C 315.433594 137.472656 317.90625 138.542969 320.40625 138.542969 C 322.402344 138.542969 324.414062 137.859375 326.0625 136.476562 C 345.285156 120.304688 356.3125 96.59375 356.3125 71.441406 C 356.3125 46.300781 345.285156 22.601562 326.0625 6.421875 C 322.347656 3.300781 316.804688 3.777344 313.695312 7.488281 C 310.570312 11.191406 311.046875 16.734375 314.75 19.855469 C 330.011719 32.6875 338.757812 51.492188 338.757812 71.441406 " fill-opacity="1" fill-rule="nonzero"/></g></svg>