<svg xmlns="http://www.w3.org/2000/svg" xmlns:xlink="http://www.w3.org/1999/xlink" width="500" zoomAndPan="magnify" viewBox="0 0 375 374.999991" height="500" preserveAspectRatio="xMidYMid meet" version="1.0"><defs><clipPath id="8b80477b85"><path d="M 7 7.117188 L 368.460938 7.117188 L 368.460938 367.867188 L 7 367.867188 Z M 7 7.117188 " clip-rule="nonzero"/></clipPath></defs><g clip-path="url(#8b80477b85)"><path fill="#00f3f7" d="M 95.476562 258.15625 C 95.476562 239.371094 80.191406 224.082031 61.402344 224.082031 C 42.613281 224.082031 27.328125 239.371094 27.328125 258.15625 C 27.328125 276.949219 42.613281 292.234375 61.402344 292.234375 C 80.191406 292.234375 95.476562 276.949219 95.476562 258.15625 Z M 61.402344 280.597656 C 49.027344 280.597656 38.964844 270.53125 38.964844 258.160156 C 38.964844 245.785156 49.03125 235.71875 61.402344 235.71875 C 73.777344 235.71875 83.84375 245.785156 83.84375 258.160156 C 83.84375 270.53125 73.777344 280.597656 61.402344 280.597656 Z M 188.042969 112.835938 C 151.238281 112.835938 121.296875 142.777344 121.296875 179.582031 C 121.296875 216.386719 151.238281 246.332031 188.042969 246.332031 C 224.847656 246.332031 254.792969 216.386719 254.792969 179.582031 C 254.792969 142.777344 224.847656 112.835938 188.042969 112.835938 Z M 151.953125 221.179688 C 155.171875 203.949219 170.191406 191.28125 188.03125 191.277344 C 188.035156 191.277344 188.039062 191.277344 188.046875 191.277344 C 188.050781 191.277344 188.054688 191.277344 188.058594 191.277344 C 205.894531 191.285156 220.917969 203.949219 224.136719 221.179688 C 214.457031 229.589844 201.839844 234.695312 188.042969 234.695312 C 174.25 234.695312 161.628906 229.589844 151.953125 221.179688 Z M 172.347656 163.945312 C 172.347656 155.292969 179.390625 148.25 188.042969 148.25 C 196.699219 148.25 203.738281 155.292969 203.738281 163.945312 C 203.738281 172.597656 196.703125 179.640625 188.046875 179.640625 C 188.046875 179.640625 188.046875 179.640625 188.042969 179.640625 C 188.042969 179.640625 188.039062 179.640625 188.039062 179.640625 C 179.386719 179.636719 172.347656 172.597656 172.347656 163.945312 Z M 233.320312 210.953125 C 228.667969 198.527344 219.117188 188.660156 207.085938 183.523438 C 212.191406 178.554688 215.375 171.617188 215.375 163.945312 C 215.375 148.875 203.113281 136.617188 188.042969 136.617188 C 172.972656 136.617188 160.714844 148.875 160.714844 163.945312 C 160.714844 171.617188 163.894531 178.554688 169 183.523438 C 156.972656 188.660156 147.417969 198.527344 142.765625 210.953125 C 136.574219 202.042969 132.929688 191.234375 132.929688 179.582031 C 132.929688 149.195312 157.652344 124.46875 188.042969 124.46875 C 218.433594 124.46875 243.15625 149.195312 243.15625 179.582031 C 243.15625 191.234375 239.511719 202.042969 233.320312 210.953125 Z M 363.796875 216.070312 L 357.722656 214.761719 C 358.28125 212.800781 357.789062 210.601562 356.242188 209.054688 C 354.695312 207.511719 352.5 207.019531 350.535156 207.578125 L 349.226562 201.503906 C 348.816406 199.605469 347.492188 198.0625 345.71875 197.34375 L 345.71875 127.199219 L 362.570312 127.199219 C 365.785156 127.199219 368.386719 124.59375 368.386719 121.382812 C 368.386719 118.171875 365.785156 115.566406 362.570312 115.566406 L 360.59375 115.566406 L 360.59375 43.203125 C 360.59375 39.988281 357.992188 37.382812 354.777344 37.382812 L 338.878906 37.382812 C 335.667969 37.382812 333.0625 39.988281 333.0625 43.203125 L 333.0625 85.171875 C 332.417969 84.726562 331.753906 84.3125 331.074219 83.917969 L 331.074219 58.214844 C 331.074219 55 328.46875 52.394531 325.257812 52.394531 L 312.1875 52.394531 C 324.632812 44.816406 336.378906 36.4375 347.371094 27.261719 C 348 29.367188 349.789062 31.027344 352.105469 31.363281 C 352.390625 31.40625 352.671875 31.425781 352.949219 31.425781 C 355.792969 31.425781 358.277344 29.339844 358.699219 26.445312 L 360.535156 13.84375 C 360.785156 12.117188 360.25 10.367188 359.074219 9.082031 C 357.898438 7.792969 356.199219 7.101562 354.460938 7.195312 L 341.746094 7.886719 C 338.539062 8.058594 336.078125 10.800781 336.253906 14.011719 C 336.367188 16.117188 337.59375 17.898438 339.328125 18.828125 C 312.796875 40.84375 281.714844 58.144531 246.726562 70.328125 C 243.691406 71.386719 242.089844 74.703125 243.144531 77.738281 C 243.457031 78.628906 243.960938 79.394531 244.597656 80.007812 L 153.300781 80.007812 L 153.300781 44.050781 C 153.300781 35.128906 146.042969 27.871094 137.121094 27.871094 L 115.945312 27.871094 L 115.945312 23.367188 C 115.945312 14.445312 108.683594 7.1875 99.765625 7.1875 L 23.878906 7.1875 C 14.957031 7.1875 7.699219 14.445312 7.699219 23.367188 L 7.699219 75.296875 C 7.699219 84.214844 14.957031 91.472656 23.878906 91.472656 L 26.828125 91.472656 L 26.828125 106.761719 C 26.828125 109.097656 28.230469 111.195312 30.371094 112.105469 L 30.371094 215.363281 C 25.863281 217.316406 22.441406 221.28125 21.261719 226.320312 C 21.007812 227.398438 20.789062 228.359375 20.589844 229.222656 C 19.886719 232.3125 19.5 234.011719 19.015625 234.847656 C 18.53125 235.6875 17.253906 236.871094 14.933594 239.027344 C 14.28125 239.628906 13.558594 240.300781 12.75 241.058594 C 7.554688 245.933594 6.222656 253.484375 9.4375 259.84375 C 9.9375 260.832031 10.390625 261.710938 10.792969 262.5 C 12.238281 265.316406 13.035156 266.867188 13.199219 267.820312 C 13.367188 268.773438 13.152344 270.503906 12.757812 273.648438 C 12.648438 274.527344 12.523438 275.503906 12.394531 276.605469 C 11.546875 283.679688 15.378906 290.316406 21.929688 293.121094 C 22.253906 293.261719 22.546875 293.386719 22.851562 293.515625 L 11.027344 318.910156 C 10.113281 320.875 10.367188 323.1875 11.683594 324.90625 C 13 326.625 15.164062 327.46875 17.300781 327.097656 L 29.816406 324.910156 L 36.195312 335.894531 C 37.238281 337.691406 39.160156 338.789062 41.222656 338.789062 C 41.3125 338.789062 41.398438 338.785156 41.488281 338.78125 C 43.652344 338.683594 45.585938 337.390625 46.5 335.425781 L 58.914062 308.761719 C 60.050781 308.441406 60.847656 308.265625 61.402344 308.265625 C 62.367188 308.265625 64.035156 308.78125 67.0625 309.714844 C 67.085938 309.722656 67.109375 309.726562 67.132812 309.734375 L 75.910156 330.117188 C 76.769531 332.109375 78.660156 333.457031 80.820312 333.617188 C 80.96875 333.628906 81.109375 333.632812 81.253906 333.632812 C 82.695312 333.632812 84.070312 333.09375 85.125 332.148438 C 81.335938 335.933594 79.046875 340.820312 79.046875 346.148438 L 79.046875 362.058594 C 79.046875 365.273438 81.652344 367.878906 84.867188 367.878906 L 291.222656 367.878906 C 294.433594 367.878906 297.039062 365.273438 297.039062 362.058594 L 297.039062 346.152344 C 297.039062 334.171875 285.496094 324.425781 271.308594 324.425781 L 241.585938 324.425781 L 241.585938 298.964844 L 253.597656 298.964844 C 263.898438 313.140625 280.597656 322.382812 299.421875 322.382812 C 330.640625 322.382812 356.039062 296.980469 356.039062 265.761719 C 356.039062 257.46875 354.210938 249.28125 350.734375 241.824219 L 366.683594 225.871094 C 368.191406 224.367188 368.753906 222.15625 368.152344 220.113281 C 367.550781 218.070312 365.878906 216.519531 363.796875 216.070312 Z M 326.246094 265.761719 C 326.246094 280.554688 314.210938 292.589844 299.417969 292.589844 C 284.625 292.589844 272.589844 280.554688 272.589844 265.761719 C 272.589844 250.96875 284.625 238.933594 299.417969 238.933594 C 304.742188 238.933594 309.707031 240.5 313.882812 243.1875 L 309.132812 247.933594 C 306.246094 246.355469 302.9375 245.457031 299.421875 245.457031 C 288.222656 245.457031 279.113281 254.566406 279.113281 265.761719 C 279.113281 276.960938 288.222656 286.070312 299.421875 286.070312 C 310.617188 286.070312 319.726562 276.960938 319.726562 265.761719 C 319.726562 262.304688 318.855469 259.050781 317.328125 256.199219 L 322.085938 251.4375 C 324.714844 255.585938 326.246094 260.5 326.246094 265.761719 Z M 245.671875 248 L 114.394531 248 C 113.601562 245.421875 112.148438 243.023438 110.054688 241.058594 C 109.246094 240.300781 108.523438 239.628906 107.875 239.027344 C 105.550781 236.875 104.273438 235.6875 103.789062 234.851562 C 103.308594 234.011719 102.917969 232.3125 102.214844 229.226562 C 102.019531 228.363281 101.796875 227.398438 101.546875 226.320312 C 99.917969 219.382812 94.046875 214.453125 86.933594 214.058594 C 85.828125 213.996094 84.839844 213.949219 83.957031 213.90625 C 80.792969 213.746094 79.050781 213.660156 78.140625 213.328125 C 77.234375 213 75.84375 211.945312 73.320312 210.035156 C 72.613281 209.5 71.824219 208.902344 70.9375 208.238281 C 68.121094 206.128906 64.828125 205.066406 61.527344 205.039062 L 61.527344 112.15625 L 64.183594 112.15625 L 64.183594 127.445312 C 64.183594 129.820312 65.625 131.953125 67.828125 132.839844 C 68.535156 133.125 69.269531 133.261719 70 133.261719 C 71.554688 133.261719 73.078125 132.640625 74.195312 131.476562 L 92.753906 112.15625 L 137.121094 112.15625 C 139.078125 112.15625 140.957031 111.808594 142.695312 111.167969 L 244.496094 111.167969 L 244.496094 115.566406 L 242.519531 115.566406 C 239.308594 115.566406 236.703125 118.171875 236.703125 121.382812 C 236.703125 124.59375 239.308594 127.199219 242.519531 127.199219 L 314.558594 127.199219 L 314.558594 211.207031 C 309.648438 209.847656 304.554688 209.144531 299.417969 209.144531 C 274.40625 209.144531 253.140625 225.457031 245.671875 248 Z M 42.003906 105.417969 L 45.960938 101.300781 C 46.796875 103.691406 48.175781 105.832031 49.957031 107.5625 C 49.917969 107.902344 49.894531 108.242188 49.894531 108.585938 L 49.894531 209.722656 C 49.761719 209.824219 49.613281 209.933594 49.484375 210.03125 C 46.960938 211.945312 45.570312 213 44.664062 213.328125 C 44.121094 213.527344 43.269531 213.636719 42.003906 213.726562 Z M 274.019531 91.640625 L 274.019531 99.53125 L 272.03125 99.53125 L 272.03125 91.640625 Z M 334.082031 127.199219 L 334.082031 203.957031 L 326.191406 211.847656 L 326.191406 127.199219 Z M 301.550781 115.566406 L 301.550781 111.167969 L 303.539062 111.167969 L 303.539062 115.566406 Z M 303.539062 99.53125 L 301.550781 99.53125 L 301.550781 91.640625 L 303.539062 91.640625 Z M 289.917969 115.566406 L 285.652344 115.566406 L 285.652344 80.71875 L 289.917969 80.71875 Z M 272.03125 115.566406 L 272.03125 111.167969 L 274.019531 111.167969 L 274.019531 115.566406 Z M 256.132812 96.699219 L 260.394531 96.699219 L 260.394531 115.566406 L 256.132812 115.566406 Z M 308.089844 265.761719 C 308.089844 270.542969 304.199219 274.433594 299.417969 274.433594 C 294.636719 274.433594 290.746094 270.542969 290.746094 265.761719 C 290.746094 260.980469 294.636719 257.089844 299.417969 257.089844 C 299.597656 257.089844 299.773438 257.105469 299.953125 257.117188 L 295.363281 261.707031 C 293.089844 263.980469 293.089844 267.664062 295.363281 269.933594 C 296.5 271.070312 297.988281 271.640625 299.476562 271.640625 C 300.964844 271.640625 302.453125 271.070312 303.589844 269.933594 L 308.074219 265.449219 C 308.078125 265.554688 308.089844 265.65625 308.089844 265.761719 Z M 330.148438 226.921875 L 329.691406 224.800781 L 340.101562 214.390625 L 340.558594 216.511719 Z M 348.960938 49.019531 L 348.960938 115.566406 L 344.695312 115.566406 L 344.695312 102.402344 C 344.695312 102.382812 344.695312 102.363281 344.695312 102.34375 L 344.695312 49.019531 Z M 333.0625 103.308594 L 333.0625 115.566406 L 331.074219 115.566406 L 331.074219 99.414062 C 331.894531 100.621094 332.566406 101.929688 333.0625 103.308594 Z M 315.175781 64.03125 L 319.4375 64.03125 L 319.4375 87.578125 C 319.4375 87.589844 319.4375 87.605469 319.4375 87.617188 L 319.4375 115.566406 L 315.175781 115.566406 Z M 303.539062 58.214844 L 303.539062 80.007812 L 301.550781 80.007812 L 301.550781 74.898438 C 301.550781 71.6875 298.949219 69.082031 295.734375 69.082031 L 280.882812 69.082031 C 288.683594 65.480469 296.25 61.589844 303.597656 57.441406 C 303.5625 57.695312 303.539062 57.949219 303.539062 58.214844 Z M 274.960938 71.734375 C 274.367188 72.644531 274.019531 73.730469 274.019531 74.902344 L 274.019531 80.007812 L 254.179688 80.007812 C 261.261719 77.453125 268.195312 74.695312 274.960938 71.734375 Z M 244.496094 91.640625 L 244.496094 99.53125 L 152.902344 99.53125 C 153.160156 98.386719 153.300781 97.199219 153.300781 95.976562 L 153.300781 91.640625 Z M 137.121094 39.507812 C 139.625 39.507812 141.664062 41.546875 141.664062 44.050781 L 141.664062 95.980469 C 141.664062 98.484375 139.625 100.523438 137.121094 100.523438 L 90.277344 100.523438 C 88.691406 100.523438 87.175781 101.167969 86.078125 102.308594 L 75.820312 112.992188 L 75.820312 106.339844 C 75.820312 103.128906 73.214844 100.523438 70 100.523438 L 61.234375 100.523438 C 58.730469 100.523438 56.691406 98.484375 56.691406 95.980469 L 56.691406 91.472656 L 99.765625 91.472656 C 103.464844 91.472656 106.878906 90.222656 109.605469 88.125 L 124.8125 88.125 C 128.027344 88.125 130.628906 85.519531 130.628906 82.304688 C 130.628906 79.09375 128.027344 76.488281 124.8125 76.488281 L 115.894531 76.488281 C 115.925781 76.09375 115.945312 75.699219 115.945312 75.296875 L 115.945312 62.792969 L 124.8125 62.792969 C 128.027344 62.792969 130.628906 60.1875 130.628906 56.972656 C 130.628906 53.761719 128.027344 51.15625 124.8125 51.15625 L 115.945312 51.15625 L 115.945312 39.507812 Z M 23.878906 79.839844 C 21.371094 79.839844 19.335938 77.800781 19.335938 75.296875 L 19.335938 23.367188 C 19.335938 20.863281 21.371094 18.824219 23.878906 18.824219 L 99.765625 18.824219 C 102.269531 18.824219 104.308594 20.863281 104.308594 23.367188 L 104.308594 75.296875 C 104.308594 77.800781 102.269531 79.839844 99.765625 79.839844 L 52.921875 79.839844 C 51.335938 79.839844 49.820312 80.484375 48.722656 81.625 L 47.851562 82.535156 C 46.984375 83.0625 46.265625 83.804688 45.777344 84.695312 L 38.460938 92.308594 L 38.460938 85.65625 C 38.460938 82.445312 35.859375 79.839844 32.644531 79.839844 Z M 40.65625 320.410156 L 37.835938 315.5625 C 36.613281 313.453125 34.207031 312.335938 31.804688 312.753906 L 26.277344 313.71875 L 32.527344 300.300781 C 32.78125 300.691406 33.046875 301.101562 33.34375 301.5625 C 33.824219 302.308594 34.359375 303.136719 34.96875 304.066406 C 37.367188 307.734375 41.015625 310.128906 45.058594 310.957031 Z M 52.3125 298.597656 C 51.484375 298.851562 50.5625 299.136719 49.527344 299.449219 C 47.632812 300.023438 45.789062 299.347656 44.707031 297.695312 C 44.113281 296.789062 43.589844 295.980469 43.121094 295.25 C 38.296875 287.78125 37.386719 287.019531 29.191406 283.566406 C 28.394531 283.230469 27.507812 282.855469 26.511719 282.429688 C 24.695312 281.652344 23.710938 279.949219 23.945312 277.988281 C 24.074219 276.914062 24.195312 275.957031 24.304688 275.097656 C 25.410156 266.273438 25.203125 265.101562 21.144531 257.191406 C 20.75 256.421875 20.3125 255.5625 19.820312 254.59375 C 18.929688 252.832031 19.273438 250.898438 20.714844 249.546875 C 21.503906 248.804688 22.210938 248.148438 22.847656 247.558594 C 29.363281 241.511719 29.957031 240.480469 31.9375 231.8125 C 32.128906 230.96875 32.34375 230.027344 32.589844 228.972656 C 33.039062 227.050781 34.546875 225.789062 36.519531 225.679688 C 37.597656 225.617188 38.5625 225.570312 39.429688 225.527344 C 48.308594 225.085938 49.425781 224.679688 56.511719 219.308594 C 57.203125 218.785156 57.972656 218.203125 58.839844 217.554688 C 60.421875 216.367188 62.386719 216.371094 63.96875 217.554688 C 64.835938 218.203125 65.605469 218.785156 66.296875 219.308594 C 73.378906 224.679688 74.5 225.085938 83.378906 225.527344 C 84.242188 225.570312 85.207031 225.617188 86.289062 225.679688 C 88.261719 225.789062 89.765625 227.050781 90.21875 228.972656 C 90.464844 230.03125 90.679688 230.972656 90.871094 231.816406 C 92.847656 240.484375 93.441406 241.511719 99.960938 247.558594 C 100.597656 248.148438 101.304688 248.804688 102.09375 249.546875 C 103.535156 250.898438 103.875 252.832031 102.984375 254.59375 C 102.496094 255.5625 102.054688 256.421875 101.660156 257.191406 C 97.601562 265.101562 97.398438 266.273438 98.503906 275.097656 C 98.609375 275.957031 98.730469 276.914062 98.859375 277.988281 C 99.09375 279.949219 98.109375 281.652344 96.296875 282.429688 C 95.300781 282.855469 94.410156 283.230469 93.613281 283.566406 C 88.648438 285.65625 86.359375 286.765625 84.25 288.972656 C 84.082031 289.136719 83.921875 289.308594 83.773438 289.496094 C 82.570312 290.867188 81.363281 292.652344 79.683594 295.253906 C 79.214844 295.980469 78.691406 296.789062 78.097656 297.695312 C 77.015625 299.351562 75.171875 300.023438 73.28125 299.449219 C 72.242188 299.136719 71.320312 298.851562 70.496094 298.597656 C 66.246094 297.285156 63.824219 296.632812 61.402344 296.632812 C 58.980469 296.632812 56.558594 297.285156 52.3125 298.597656 Z M 80.042969 310.300781 C 83.152344 309.152344 85.902344 307.023438 87.835938 304.066406 C 88.441406 303.136719 88.976562 302.308594 89.457031 301.5625 C 90.132812 300.519531 90.6875 299.664062 91.15625 298.964844 L 92.425781 298.964844 L 96.753906 309.007812 L 91.257812 307.882812 C 88.871094 307.390625 86.429688 308.445312 85.144531 310.515625 L 82.1875 315.28125 Z M 86.199219 330.886719 L 92.894531 320.09375 L 105.335938 322.640625 C 107.460938 323.078125 109.648438 322.296875 111.015625 320.617188 C 112.382812 318.933594 112.703125 316.632812 111.847656 314.640625 L 105.09375 298.964844 L 134.5 298.964844 L 134.5 324.425781 L 104.777344 324.425781 C 97.074219 324.425781 90.15625 327.300781 85.4375 331.84375 C 85.71875 331.550781 85.980469 331.238281 86.199219 330.886719 Z M 285.402344 346.152344 L 285.402344 356.242188 L 90.683594 356.242188 L 90.683594 346.152344 C 90.683594 340.679688 97.136719 336.058594 104.777344 336.058594 L 271.308594 336.058594 C 278.949219 336.058594 285.402344 340.679688 285.402344 346.152344 Z M 229.953125 324.425781 L 146.132812 324.425781 L 146.132812 298.964844 L 229.953125 298.964844 Z M 107.871094 287.328125 C 109.917969 284.265625 110.878906 280.503906 110.410156 276.605469 C 110.28125 275.503906 110.15625 274.527344 110.046875 273.648438 C 109.652344 270.503906 109.4375 268.773438 109.605469 267.820312 C 109.769531 266.867188 110.566406 265.316406 112.011719 262.5 C 112.417969 261.710938 112.867188 260.832031 113.367188 259.84375 C 113.402344 259.773438 113.429688 259.703125 113.460938 259.636719 L 243.136719 259.636719 C 242.917969 261.648438 242.800781 263.691406 242.800781 265.765625 C 242.800781 273.398438 244.328125 280.679688 247.078125 287.328125 Z M 299.417969 310.746094 C 274.617188 310.746094 254.4375 290.566406 254.4375 265.765625 C 254.4375 240.960938 274.617188 220.78125 299.417969 220.78125 C 305.761719 220.78125 312.023438 222.121094 317.765625 224.679688 L 319.558594 233.015625 C 313.699219 229.394531 306.800781 227.300781 299.417969 227.300781 C 278.210938 227.300781 260.957031 244.554688 260.957031 265.765625 C 260.957031 286.972656 278.210938 304.230469 299.417969 304.230469 C 320.628906 304.230469 337.882812 286.972656 337.882812 265.765625 C 337.882812 258.429688 335.816406 251.570312 332.238281 245.730469 L 340.546875 247.519531 C 343.078125 253.230469 344.402344 259.460938 344.402344 265.765625 C 344.402344 290.566406 324.222656 310.746094 299.417969 310.746094 Z M 340.496094 235.605469 L 338.378906 235.148438 L 348.789062 224.738281 L 350.90625 225.195312 Z M 28.90625 36.292969 C 28.90625 33.078125 31.511719 30.472656 34.722656 30.472656 L 87.457031 30.472656 C 90.667969 30.472656 93.273438 33.078125 93.273438 36.292969 C 93.273438 39.503906 90.667969 42.109375 87.457031 42.109375 L 34.722656 42.109375 C 31.511719 42.109375 28.90625 39.503906 28.90625 36.292969 Z M 34.722656 67.4375 C 31.511719 67.4375 28.90625 64.835938 28.90625 61.621094 C 28.90625 58.410156 31.511719 55.804688 34.722656 55.804688 L 87.457031 55.804688 C 90.667969 55.804688 93.273438 58.410156 93.273438 61.621094 C 93.273438 64.835938 90.667969 67.4375 87.457031 67.4375 Z M 34.722656 67.4375 " fill-opacity="1" fill-rule="nonzero"/></g></svg>