<svg xmlns="http://www.w3.org/2000/svg" xmlns:xlink="http://www.w3.org/1999/xlink" width="500" zoomAndPan="magnify" viewBox="0 0 375 374.999991" height="500" preserveAspectRatio="xMidYMid meet" version="1.0"><defs><clipPath id="5ebcc2ba97"><path d="M 4.328125 10.96875 L 370.328125 10.96875 L 370.328125 364.21875 L 4.328125 364.21875 Z M 4.328125 10.96875 " clip-rule="nonzero"/></clipPath></defs><path fill="#00f3f7" d="M 162.644531 53.507812 L 319.21875 53.507812 C 322.183594 53.507812 324.582031 51.105469 324.582031 48.140625 C 324.582031 45.179688 322.183594 42.777344 319.21875 42.777344 L 162.644531 42.777344 C 159.683594 42.777344 157.28125 45.179688 157.28125 48.140625 C 157.28125 51.105469 159.683594 53.507812 162.644531 53.507812 Z M 162.644531 53.507812 " fill-opacity="1" fill-rule="nonzero"/><path fill="#00f3f7" d="M 33.488281 54.015625 L 33.691406 54.015625 C 36.65625 54.015625 39.058594 51.613281 39.058594 48.648438 C 39.058594 45.683594 36.65625 43.28125 33.691406 43.28125 L 33.488281 43.28125 C 30.523438 43.28125 28.121094 45.683594 28.121094 48.648438 C 28.121094 51.613281 30.523438 54.015625 33.488281 54.015625 Z M 33.488281 54.015625 " fill-opacity="1" fill-rule="nonzero"/><path fill="#00f3f7" d="M 62.996094 54.015625 L 63.199219 54.015625 C 66.164062 54.015625 68.566406 51.613281 68.566406 48.648438 C 68.566406 45.683594 66.164062 43.28125 63.199219 43.28125 L 62.996094 43.28125 C 60.03125 43.28125 57.628906 45.683594 57.628906 48.648438 C 57.628906 51.613281 60.03125 54.015625 62.996094 54.015625 Z M 62.996094 54.015625 " fill-opacity="1" fill-rule="nonzero"/><path fill="#00f3f7" d="M 92.300781 54.015625 L 92.503906 54.015625 C 95.46875 54.015625 97.871094 51.613281 97.871094 48.648438 C 97.871094 45.683594 95.46875 43.28125 92.503906 43.28125 L 92.300781 43.28125 C 89.339844 43.28125 86.9375 45.683594 86.9375 48.648438 C 86.9375 51.613281 89.339844 54.015625 92.300781 54.015625 Z M 92.300781 54.015625 " fill-opacity="1" fill-rule="nonzero"/><path fill="#00f3f7" d="M 144.339844 189.28125 C 134.574219 191.132812 126.871094 188.664062 122.640625 182.328125 C 118.457031 176.0625 118.4375 167.257812 122.597656 160.925781 C 126.828125 154.484375 134.5625 151.917969 144.378906 153.707031 C 147.289062 154.238281 150.089844 152.304688 150.617188 149.386719 C 151.148438 146.472656 149.214844 143.679688 146.300781 143.148438 C 132.183594 140.578125 120.277344 144.914062 113.628906 155.035156 C 107.171875 164.867188 107.207031 178.539062 113.714844 188.289062 C 119.074219 196.316406 127.796875 200.609375 138.300781 200.609375 C 140.882812 200.609375 143.570312 200.351562 146.339844 199.824219 C 149.25 199.273438 151.164062 196.464844 150.609375 193.550781 C 150.058594 190.640625 147.25 188.726562 144.339844 189.28125 Z M 144.339844 189.28125 " fill-opacity="1" fill-rule="nonzero"/><path fill="#00f3f7" d="M 209.28125 143.257812 C 206.960938 142.609375 204.496094 143.585938 203.246094 145.640625 L 188.574219 169.8125 L 173.902344 145.640625 C 172.65625 143.585938 170.1875 142.609375 167.871094 143.257812 C 165.554688 143.90625 163.949219 146.019531 163.949219 148.425781 L 163.949219 194.554688 C 163.949219 197.515625 166.351562 199.917969 169.316406 199.917969 C 172.28125 199.917969 174.683594 197.515625 174.683594 194.554688 L 174.683594 167.605469 L 183.988281 182.933594 C 184.960938 184.539062 186.699219 185.515625 188.574219 185.515625 C 190.449219 185.515625 192.1875 184.539062 193.160156 182.933594 L 202.46875 167.605469 L 202.46875 194.554688 C 202.46875 197.515625 204.871094 199.917969 207.832031 199.917969 C 210.796875 199.917969 213.199219 197.515625 213.199219 194.554688 L 213.199219 148.425781 C 213.199219 146.019531 211.597656 143.90625 209.28125 143.257812 Z M 209.28125 143.257812 " fill-opacity="1" fill-rule="nonzero"/><path fill="#00f3f7" d="M 254.5625 165.828125 C 252.019531 165.128906 249.488281 165.117188 247.042969 165.109375 C 244.871094 165.097656 242.816406 165.089844 241.378906 164.5625 C 239.570312 163.902344 238.507812 162.59375 238.226562 160.679688 C 237.859375 158.195312 238.996094 155.492188 241.054688 153.953125 C 244.035156 151.722656 248.703125 151.886719 254.195312 154.414062 C 256.886719 155.65625 260.074219 154.476562 261.3125 151.785156 C 262.550781 149.09375 261.375 145.90625 258.683594 144.667969 C 246.21875 138.925781 238.257812 142.640625 234.621094 145.363281 C 229.425781 149.253906 226.671875 155.878906 227.609375 162.242188 C 228.457031 168.011719 232.230469 172.644531 237.695312 174.644531 C 240.894531 175.8125 244.136719 175.828125 246.996094 175.839844 C 248.824219 175.847656 250.550781 175.855469 251.71875 176.175781 C 254.179688 176.855469 255.042969 178.492188 255.332031 179.75 C 255.875 182.105469 254.886719 184.808594 252.8125 186.632812 C 249.027344 189.960938 242.269531 190.179688 234.28125 187.226562 C 231.5 186.199219 228.414062 187.621094 227.386719 190.402344 C 226.359375 193.179688 227.78125 196.265625 230.5625 197.292969 C 235.976562 199.292969 240.601562 200.058594 244.515625 200.058594 C 252.285156 200.058594 257.230469 197.039062 259.902344 194.6875 C 264.972656 190.230469 267.226562 183.582031 265.789062 177.339844 C 264.492188 171.714844 260.300781 167.410156 254.5625 165.828125 Z M 254.5625 165.828125 " fill-opacity="1" fill-rule="nonzero"/><path fill="#00f3f7" d="M 268.882812 115.007812 L 106.109375 115.007812 C 91.199219 115.007812 79.066406 127.105469 79.066406 141.976562 L 79.066406 196.964844 C 79.066406 211.847656 91.199219 223.953125 106.109375 223.953125 L 268.882812 223.953125 C 283.785156 223.953125 295.910156 211.847656 295.910156 196.964844 L 295.910156 141.976562 C 295.910156 127.105469 283.785156 115.007812 268.882812 115.007812 Z M 285.175781 196.964844 C 285.175781 205.929688 277.867188 213.222656 268.882812 213.222656 L 106.109375 213.222656 C 97.113281 213.222656 89.796875 205.929688 89.796875 196.964844 L 89.796875 141.976562 C 89.796875 133.023438 97.113281 125.738281 106.109375 125.738281 L 268.882812 125.738281 C 277.867188 125.738281 285.175781 133.023438 285.175781 141.976562 Z M 285.175781 196.964844 " fill-opacity="1" fill-rule="nonzero"/><g clip-path="url(#5ebcc2ba97)"><path fill="#00f3f7" d="M 354.480469 10.992188 L 20.511719 10.992188 C 11.601562 10.992188 4.347656 18.230469 4.347656 27.128906 L 4.347656 347.941406 C 4.347656 356.839844 11.601562 364.078125 20.511719 364.078125 L 354.480469 364.078125 C 363.394531 364.078125 370.644531 356.839844 370.644531 347.941406 L 370.644531 27.128906 C 370.644531 18.230469 363.394531 10.992188 354.480469 10.992188 Z M 359.914062 27.128906 L 359.914062 73.121094 L 120.726562 73.121094 L 141.992188 21.722656 L 354.480469 21.722656 C 357.476562 21.722656 359.914062 24.148438 359.914062 27.128906 Z M 20.511719 21.722656 L 130.378906 21.722656 L 109.113281 73.121094 L 15.078125 73.121094 L 15.078125 27.128906 C 15.078125 24.148438 17.515625 21.722656 20.511719 21.722656 Z M 96.222656 353.347656 C 96.617188 341.191406 106.664062 331.421875 118.960938 331.421875 C 131.25 331.421875 141.289062 341.191406 141.683594 353.347656 Z M 152.425781 353.347656 C 152.03125 335.269531 137.171875 320.6875 118.960938 320.6875 C 100.742188 320.6875 85.875 335.269531 85.480469 353.347656 L 53.863281 353.347656 L 53.863281 348.671875 C 53.863281 347.578125 54.804688 346.652344 55.917969 346.652344 L 62.773438 346.652344 C 65.277344 346.652344 67.449219 344.921875 68.003906 342.476562 C 69.296875 336.789062 71.519531 331.410156 74.601562 326.488281 C 75.929688 324.367188 75.613281 321.609375 73.84375 319.84375 L 68.960938 314.972656 C 68.449219 314.460938 68.371094 313.855469 68.371094 313.539062 C 68.371094 313.222656 68.449219 312.617188 68.960938 312.105469 L 76.628906 304.457031 C 77.417969 303.671875 78.753906 303.667969 79.542969 304.457031 L 84.363281 309.265625 C 86.140625 311.039062 88.910156 311.339844 91.027344 309.996094 C 95.964844 306.863281 101.378906 304.601562 107.117188 303.269531 C 109.550781 302.707031 111.273438 300.539062 111.273438 298.042969 L 111.273438 291.207031 C 111.273438 290.101562 112.214844 289.167969 113.328125 289.167969 L 124.167969 289.167969 C 125.285156 289.167969 126.226562 290.101562 126.226562 291.207031 L 126.226562 297.941406 C 126.226562 300.457031 127.972656 302.632812 130.429688 303.179688 C 136.226562 304.464844 141.726562 306.722656 146.78125 309.890625 C 148.898438 311.21875 151.648438 310.90625 153.417969 309.144531 L 158.261719 304.316406 C 159.050781 303.527344 160.386719 303.527344 161.175781 304.316406 L 167.425781 310.550781 C 167.425781 310.554688 167.425781 310.554688 167.425781 310.558594 C 162.339844 312.625 158.746094 317.605469 158.746094 323.417969 L 158.746094 335.871094 C 158.746094 343.539062 164.984375 349.777344 172.652344 349.777344 L 176.449219 349.777344 C 176.796875 350.964844 177.1875 352.132812 177.597656 353.296875 C 177.601562 353.3125 177.597656 353.328125 177.601562 353.347656 Z M 269.570312 353.347656 L 221.019531 353.347656 C 214.828125 347.035156 211.308594 338.507812 211.308594 329.644531 C 211.308594 310.960938 226.554688 295.761719 245.292969 295.761719 C 264.035156 295.761719 279.28125 310.960938 279.28125 329.644531 C 279.28125 338.507812 275.761719 347.035156 269.570312 353.347656 Z M 304.839844 343.203125 C 304.03125 346.691406 302.925781 350.089844 301.542969 353.347656 L 283.167969 353.347656 C 287.589844 346.304688 290.011719 338.089844 290.011719 329.644531 C 290.011719 305.042969 269.953125 285.03125 245.292969 285.03125 C 220.636719 285.03125 200.578125 305.042969 200.578125 329.644531 C 200.578125 338.089844 202.996094 346.304688 207.421875 353.347656 L 189.109375 353.347656 C 187.722656 350.089844 186.617188 346.691406 185.808594 343.203125 C 185.246094 340.769531 183.078125 339.046875 180.582031 339.046875 L 172.652344 339.046875 C 170.929688 339.046875 169.476562 337.59375 169.476562 335.871094 L 169.476562 323.417969 C 169.476562 321.707031 170.929688 320.265625 172.652344 320.265625 L 180.5625 320.265625 C 183.066406 320.265625 185.234375 318.535156 185.792969 316.09375 C 187.308594 309.453125 189.90625 303.171875 193.507812 297.421875 C 194.839844 295.300781 194.523438 292.542969 192.75 290.773438 L 187.117188 285.15625 C 186.519531 284.5625 186.191406 283.765625 186.191406 282.921875 C 186.191406 282.074219 186.519531 281.28125 187.117188 280.683594 L 195.933594 271.894531 C 197.183594 270.652344 199.222656 270.648438 200.464844 271.882812 L 206.019531 277.417969 C 207.789062 279.1875 210.550781 279.496094 212.671875 278.15625 C 218.511719 274.472656 224.835938 271.824219 231.476562 270.289062 C 233.910156 269.722656 235.632812 267.558594 235.632812 265.058594 L 235.632812 257.191406 C 235.632812 255.449219 237.066406 254.035156 238.828125 254.035156 L 251.3125 254.035156 C 253.035156 254.035156 254.488281 255.480469 254.488281 257.191406 L 254.488281 264.9375 C 254.488281 267.449219 256.230469 269.621094 258.679688 270.171875 C 265.5 271.707031 271.925781 274.355469 277.78125 278.039062 C 279.898438 279.375 282.65625 279.0625 284.429688 277.296875 L 290.019531 271.71875 C 291.269531 270.476562 293.296875 270.476562 294.542969 271.71875 L 303.355469 280.511719 C 304.59375 281.75 304.59375 283.765625 303.367188 284.992188 L 297.777344 290.570312 C 295.996094 292.347656 295.6875 295.117188 297.03125 297.238281 C 300.691406 303.023438 303.320312 309.367188 304.855469 316.089844 C 305.410156 318.53125 307.582031 320.265625 310.085938 320.265625 L 317.957031 320.265625 C 319.679688 320.265625 321.132812 321.707031 321.132812 323.417969 L 321.132812 335.871094 C 321.132812 337.59375 319.679688 339.046875 317.957031 339.046875 L 310.066406 339.046875 C 307.570312 339.046875 305.402344 340.769531 304.839844 343.203125 Z M 354.480469 353.347656 L 313.035156 353.347656 C 313.449219 352.167969 313.847656 350.980469 314.203125 349.777344 L 317.957031 349.777344 C 325.625 349.777344 331.863281 343.539062 331.863281 335.871094 L 331.863281 323.417969 C 331.863281 315.761719 325.625 309.53125 317.957031 309.53125 L 314.234375 309.53125 C 312.777344 304.546875 310.792969 299.761719 308.300781 295.230469 L 310.960938 292.578125 C 316.355469 287.164062 316.355469 278.351562 310.949219 272.925781 L 302.121094 264.121094 C 296.695312 258.710938 287.867188 258.710938 282.441406 264.121094 L 279.785156 266.773438 C 275.175781 264.246094 270.300781 262.242188 265.222656 260.777344 L 265.222656 257.191406 C 265.222656 249.535156 258.984375 243.304688 251.3125 243.304688 L 238.828125 243.304688 C 231.148438 243.304688 224.898438 249.535156 224.898438 257.191406 L 224.898438 260.925781 C 219.964844 262.390625 215.195312 264.382812 210.65625 266.890625 L 208.03125 264.273438 C 202.613281 258.898438 193.796875 258.902344 188.363281 264.285156 L 179.539062 273.085938 C 176.910156 275.710938 175.460938 279.203125 175.460938 282.921875 C 175.460938 286.640625 176.910156 290.132812 179.539062 292.753906 L 182.238281 295.445312 C 180.429688 298.757812 178.894531 302.207031 177.636719 305.761719 C 177.265625 305.269531 176.863281 304.800781 176.421875 304.363281 L 168.753906 296.71875 C 163.769531 291.746094 155.664062 291.75 150.679688 296.71875 L 148.757812 298.636719 C 144.992188 296.621094 141.046875 294.996094 136.957031 293.789062 L 136.957031 291.207031 C 136.957031 284.164062 131.21875 278.4375 124.167969 278.4375 L 113.328125 278.4375 C 106.277344 278.4375 100.539062 284.164062 100.539062 291.207031 L 100.539062 293.925781 C 96.535156 295.148438 92.679688 296.757812 89.011719 298.742188 L 87.121094 296.859375 C 82.140625 291.890625 74.035156 291.890625 69.050781 296.859375 L 61.382812 304.507812 C 58.96875 306.914062 57.640625 310.121094 57.640625 313.539062 C 57.640625 316.957031 58.96875 320.164062 61.382812 322.570312 L 63.34375 324.527344 C 61.402344 328.15625 59.832031 331.96875 58.640625 335.921875 L 55.917969 335.921875 C 48.867188 335.921875 43.128906 341.640625 43.128906 348.671875 L 43.128906 353.347656 L 20.511719 353.347656 C 17.515625 353.347656 15.078125 350.921875 15.078125 347.941406 L 15.078125 83.851562 L 359.914062 83.851562 L 359.914062 347.941406 C 359.914062 350.921875 357.476562 353.347656 354.480469 353.347656 Z M 354.480469 353.347656 " fill-opacity="1" fill-rule="nonzero"/></g></svg>