<svg xmlns="http://www.w3.org/2000/svg" xmlns:xlink="http://www.w3.org/1999/xlink" width="500" zoomAndPan="magnify" viewBox="0 0 375 374.999991" height="500" preserveAspectRatio="xMidYMid meet" version="1.0"><defs><clipPath id="36f8ccf18b"><path d="M 9.777344 9.777344 L 365.273438 9.777344 L 365.273438 365.277344 L 9.777344 365.277344 Z M 9.777344 9.777344 " clip-rule="nonzero"/></clipPath></defs><g clip-path="url(#36f8ccf18b)"><path fill="#00f3f7" d="M 160.734375 286.160156 C 163.046875 288.472656 163.046875 292.226562 160.734375 294.539062 C 158.421875 296.851562 154.671875 296.851562 152.359375 294.539062 L 144.308594 286.488281 C 141.996094 284.175781 141.996094 280.425781 144.308594 278.113281 C 146.625 275.800781 150.375 275.800781 152.6875 278.113281 Z M 120.277344 245.703125 C 122.589844 248.015625 122.589844 251.765625 120.277344 254.078125 C 117.964844 256.394531 114.214844 256.394531 111.902344 254.078125 L 109.292969 251.472656 L 107.464844 254.640625 C 105.839844 257.464844 102.234375 258.4375 99.410156 256.816406 C 96.585938 255.191406 95.613281 251.585938 97.234375 248.761719 L 102.652344 239.375 C 104.351562 235.664062 109.285156 234.710938 112.226562 237.65625 Z M 189.894531 284.472656 C 189.050781 287.628906 185.808594 289.503906 182.652344 288.660156 C 179.496094 287.816406 177.621094 284.574219 178.464844 281.417969 L 181.410156 270.421875 C 182.253906 267.265625 185.496094 265.390625 188.652344 266.234375 C 191.808594 267.078125 193.683594 270.320312 192.839844 273.476562 Z M 212.109375 201.574219 C 211.265625 204.730469 208.023438 206.605469 204.867188 205.761719 C 201.707031 204.917969 199.832031 201.675781 200.675781 198.519531 L 203.621094 187.523438 C 204.464844 184.367188 207.707031 182.492188 210.867188 183.335938 C 214.023438 184.179688 215.898438 187.421875 215.054688 190.578125 Z M 204.703125 229.207031 C 203.859375 232.363281 200.617188 234.238281 197.460938 233.394531 C 194.304688 232.550781 192.429688 229.308594 193.273438 226.152344 L 196.21875 215.15625 C 197.0625 212 200.304688 210.125 203.460938 210.96875 C 206.617188 211.8125 208.492188 215.054688 207.648438 218.210938 Z M 256.898438 166.050781 C 260.054688 166.894531 261.929688 170.136719 261.085938 173.292969 C 260.242188 176.453125 257 178.328125 253.84375 177.484375 L 242.847656 174.539062 C 239.691406 173.695312 237.816406 170.453125 238.660156 167.292969 C 239.503906 164.136719 242.746094 162.261719 245.902344 163.105469 Z M 229.265625 158.648438 C 232.421875 159.492188 234.296875 162.734375 233.453125 165.890625 C 232.609375 169.046875 229.367188 170.921875 226.210938 170.078125 L 220.925781 168.664062 L 219.511719 173.9375 C 218.667969 177.09375 215.425781 178.96875 212.269531 178.125 C 209.113281 177.28125 207.238281 174.039062 208.082031 170.882812 L 211.027344 159.890625 C 211.871094 156.734375 215.113281 154.859375 218.269531 155.699219 Z M 302.421875 157.335938 C 300.796875 160.160156 297.191406 161.132812 294.367188 159.511719 C 291.542969 157.886719 290.570312 154.28125 292.191406 151.457031 L 297.882812 141.601562 C 299.507812 138.777344 303.113281 137.804688 305.9375 139.425781 C 308.761719 141.046875 309.734375 144.65625 308.113281 147.480469 Z M 316.726562 132.585938 C 315.089844 135.410156 311.472656 136.371094 308.648438 134.734375 C 305.824219 133.101562 304.863281 129.484375 306.496094 126.660156 L 312.1875 116.804688 C 313.824219 113.980469 317.441406 113.015625 320.265625 114.652344 C 323.089844 116.289062 324.054688 119.902344 322.417969 122.726562 Z M 283.578125 166.351562 C 285.214844 163.527344 288.832031 162.566406 291.65625 164.203125 C 294.480469 165.835938 295.445312 169.453125 293.808594 172.277344 L 288.117188 182.136719 C 286.746094 184.496094 283.992188 185.558594 281.476562 184.882812 L 270.480469 181.941406 C 267.324219 181.097656 265.449219 177.855469 266.292969 174.699219 C 267.136719 171.542969 270.378906 169.667969 273.535156 170.511719 L 280.15625 172.285156 Z M 331.605469 80.179688 C 339.785156 80.179688 346.417969 86.808594 346.417969 94.988281 C 346.417969 103.167969 339.785156 109.800781 331.605469 109.800781 C 330.84375 109.800781 330.097656 109.742188 329.367188 109.632812 C 327.542969 110.945312 325.050781 111.152344 322.976562 109.960938 C 320.894531 108.765625 319.816406 106.492188 320.046875 104.246094 C 318.011719 101.710938 316.796875 98.492188 316.796875 94.988281 C 316.796875 86.808594 323.425781 80.179688 331.605469 80.179688 Z M 75.980469 286.609375 C 75.25 286.5 74.503906 286.441406 73.742188 286.441406 C 65.5625 286.441406 58.929688 293.070312 58.929688 301.25 C 58.929688 309.429688 65.5625 316.0625 73.742188 316.0625 C 81.921875 316.0625 88.550781 309.429688 88.550781 301.25 C 88.550781 299.976562 88.390625 298.738281 88.089844 297.558594 L 125.921875 268.101562 L 132.128906 274.308594 C 134.441406 276.621094 138.191406 276.621094 140.503906 274.308594 C 142.820312 271.996094 142.820312 268.246094 140.503906 265.933594 L 135.339844 260.765625 L 146.40625 252.148438 C 148.511719 253.300781 150.929688 253.957031 153.5 253.957031 C 157.34375 253.957031 160.847656 252.492188 163.480469 250.089844 L 237.894531 283.433594 C 237.894531 283.488281 237.890625 283.542969 237.890625 283.597656 C 237.890625 291.777344 244.523438 298.40625 252.703125 298.40625 C 260.882812 298.40625 267.511719 291.777344 267.511719 283.597656 C 267.511719 281.546875 267.097656 279.59375 266.34375 277.820312 L 341.71875 198.476562 C 343.300781 199.054688 345.007812 199.371094 346.789062 199.371094 C 354.96875 199.371094 361.601562 192.738281 361.601562 184.558594 C 361.601562 176.378906 354.96875 169.75 346.789062 169.75 C 338.609375 169.75 331.980469 176.378906 331.980469 184.558594 C 331.980469 186.609375 332.398438 188.5625 333.152344 190.335938 L 257.777344 269.679688 C 256.191406 269.101562 254.484375 268.789062 252.703125 268.789062 C 248.859375 268.789062 245.355469 270.253906 242.722656 272.65625 L 198.382812 252.789062 L 200.246094 245.84375 C 201.089844 242.6875 199.214844 239.445312 196.058594 238.601562 C 192.898438 237.757812 189.65625 239.632812 188.8125 242.789062 L 187.449219 247.890625 L 168.308594 239.3125 C 168.308594 239.257812 168.308594 239.203125 168.308594 239.144531 C 168.308594 230.964844 161.679688 224.335938 153.5 224.335938 C 145.320312 224.335938 138.691406 230.964844 138.691406 239.144531 C 138.691406 240.421875 138.851562 241.65625 139.152344 242.835938 L 93.984375 278.007812 L 98.851562 269.578125 C 100.484375 266.753906 99.523438 263.140625 96.699219 261.503906 C 93.875 259.867188 90.257812 260.832031 88.621094 263.65625 L 82.929688 273.511719 C 81.296875 276.335938 82.257812 279.953125 85.082031 281.589844 C 86.117188 282.1875 87.261719 282.4375 88.375 282.375 L 82.910156 286.628906 C 82.738281 286.503906 82.558594 286.386719 82.371094 286.277344 C 80.296875 285.085938 77.800781 285.296875 75.980469 286.609375 Z M 185.566406 298.660156 C 185.210938 296.421875 183.578125 294.492188 181.25 293.867188 C 178.921875 293.246094 176.546875 294.101562 175.121094 295.859375 C 173.621094 296.027344 172.1875 296.417969 170.855469 297 C 168.738281 296.1875 166.246094 296.632812 164.539062 298.339844 C 162.832031 300.050781 162.386719 302.539062 163.199219 304.65625 C 162.40625 306.46875 161.964844 308.472656 161.964844 310.578125 C 161.964844 318.757812 168.597656 325.386719 176.777344 325.386719 C 184.957031 325.386719 191.585938 318.757812 191.585938 310.578125 C 191.585938 305.691406 189.21875 301.355469 185.566406 298.660156 Z M 177.8125 29.90625 C 149.496094 29.90625 126.542969 52.859375 126.542969 81.171875 C 126.542969 109.488281 149.496094 132.441406 177.8125 132.441406 C 206.125 132.441406 229.082031 109.488281 229.082031 81.171875 C 229.078125 52.859375 206.125 29.90625 177.8125 29.90625 Z M 177.8125 9.777344 C 138.378906 9.777344 106.414062 41.742188 106.414062 81.175781 C 106.414062 96.40625 111.1875 110.519531 119.3125 122.109375 C 111.855469 129.351562 104.394531 136.589844 96.933594 143.832031 L 96.125 143 C 93.640625 140.4375 89.507812 140.375 86.945312 142.863281 L 47.738281 180.910156 C 45.175781 183.394531 45.113281 187.523438 47.597656 190.085938 L 61.753906 204.675781 C 64.242188 207.238281 68.371094 207.296875 70.933594 204.8125 L 110.144531 166.765625 C 112.707031 164.28125 112.765625 160.148438 110.28125 157.589844 L 109.476562 156.757812 L 131.429688 135.453125 C 143.910156 146.125 160.105469 152.574219 177.8125 152.574219 C 217.246094 152.574219 249.210938 120.605469 249.210938 81.175781 C 249.210938 41.742188 217.246094 9.777344 177.8125 9.777344 Z M 29.308594 345.683594 L 29.308594 9.777344 L 9.777344 9.777344 L 9.777344 365.21875 L 365.21875 365.21875 L 365.21875 345.683594 Z M 29.308594 345.683594 " fill-opacity="1" fill-rule="evenodd"/></g></svg>