<svg xmlns="http://www.w3.org/2000/svg" xmlns:xlink="http://www.w3.org/1999/xlink" width="500" zoomAndPan="magnify" viewBox="0 0 375 374.999991" height="500" preserveAspectRatio="xMidYMid meet" version="1.0"><defs><clipPath id="e605a5b91f"><path d="M 4.527344 4.527344 L 301 4.527344 L 301 301 L 4.527344 301 Z M 4.527344 4.527344 " clip-rule="nonzero"/></clipPath></defs><g clip-path="url(#e605a5b91f)"><path fill="#00f3f7" d="M 139.214844 16.386719 C 139.214844 9.371094 144.90625 3.683594 151.921875 3.683594 C 233.792969 3.683594 300.160156 70.050781 300.160156 151.921875 C 300.160156 233.792969 233.792969 300.160156 151.921875 300.160156 C 70.050781 300.160156 3.679688 233.792969 3.679688 151.921875 C 3.679688 96.09375 34.550781 47.488281 80.089844 22.21875 C 86.226562 18.8125 93.960938 21.027344 97.367188 27.164062 C 100.769531 33.300781 98.558594 41.035156 92.421875 44.441406 C 54.628906 65.410156 29.09375 105.695312 29.09375 151.921875 C 29.09375 219.757812 84.085938 274.75 151.921875 274.75 C 219.757812 274.75 274.75 219.757812 274.75 151.921875 C 274.75 84.085938 219.757812 29.09375 151.921875 29.09375 C 144.90625 29.09375 139.214844 23.40625 139.214844 16.386719 Z M 139.214844 16.386719 " fill-opacity="1" fill-rule="evenodd"/></g><path fill="#00f3f7" d="M 236.117188 236.117188 C 241.078125 231.15625 249.125 231.15625 254.085938 236.117188 L 364.207031 346.238281 C 369.167969 351.199219 369.167969 359.246094 364.207031 364.207031 C 359.246094 369.167969 351.199219 369.167969 346.238281 364.207031 L 236.117188 254.085938 C 231.15625 249.125 231.15625 241.078125 236.117188 236.117188 Z M 236.117188 236.117188 " fill-opacity="1" fill-rule="evenodd"/><path fill="#00f3f7" d="M 211.21875 130.746094 C 199.519531 130.746094 190.039062 140.226562 190.039062 151.921875 C 190.039062 163.617188 199.519531 173.097656 211.21875 173.097656 C 222.914062 173.097656 232.394531 163.617188 232.394531 151.921875 C 232.394531 140.226562 222.914062 130.746094 211.21875 130.746094 Z M 164.628906 151.921875 C 164.628906 126.191406 185.488281 105.332031 211.21875 105.332031 C 236.949219 105.332031 257.808594 126.191406 257.808594 151.921875 C 257.808594 177.652344 236.949219 198.511719 211.21875 198.511719 C 185.488281 198.511719 164.628906 177.652344 164.628906 151.921875 Z M 164.628906 151.921875 " fill-opacity="1" fill-rule="evenodd"/><path fill="#00f3f7" d="M 54.507812 151.921875 C 54.507812 144.90625 60.195312 139.214844 67.214844 139.214844 L 177.335938 139.214844 C 184.351562 139.214844 190.039062 144.90625 190.039062 151.921875 C 190.039062 158.9375 184.351562 164.628906 177.335938 164.628906 L 122.273438 164.628906 L 122.273438 185.804688 C 122.273438 192.824219 116.585938 198.511719 109.566406 198.511719 C 102.550781 198.511719 96.859375 192.824219 96.859375 185.804688 L 96.859375 164.628906 L 79.917969 164.628906 L 79.917969 194.277344 C 79.917969 201.292969 74.230469 206.984375 67.214844 206.984375 C 60.195312 206.984375 54.507812 201.292969 54.507812 194.277344 Z M 54.507812 151.921875 " fill-opacity="1" fill-rule="evenodd"/></svg>