<svg xmlns="http://www.w3.org/2000/svg" xmlns:xlink="http://www.w3.org/1999/xlink" width="500" zoomAndPan="magnify" viewBox="0 0 375 374.999991" height="500" preserveAspectRatio="xMidYMid meet" version="1.0"><defs><clipPath id="c8503cc528"><path d="M 6.757812 5 L 368.257812 5 L 368.257812 370 L 6.757812 370 Z M 6.757812 5 " clip-rule="nonzero"/></clipPath></defs><g clip-path="url(#c8503cc528)"><path fill="#00f3f7" d="M 332.871094 5.085938 L 42.496094 5.085938 C 40.757812 5.09375 39.027344 5.230469 37.308594 5.492188 C 35.589844 5.75 33.894531 6.136719 32.230469 6.644531 C 30.570312 7.152344 28.949219 7.777344 27.378906 8.519531 C 25.804688 9.265625 24.296875 10.121094 22.847656 11.082031 C 21.398438 12.046875 20.027344 13.113281 18.738281 14.277344 C 17.445312 15.441406 16.242188 16.691406 15.132812 18.03125 C 14.023438 19.371094 13.015625 20.78125 12.109375 22.269531 C 11.207031 23.753906 10.414062 25.300781 9.738281 26.902344 C 7.855469 31.324219 6.925781 35.941406 6.945312 40.75 L 6.945312 334.25 C 6.945312 335.414062 7.003906 336.578125 7.121094 337.738281 C 7.234375 338.894531 7.40625 340.046875 7.632812 341.191406 C 7.859375 342.332031 8.144531 343.460938 8.484375 344.578125 C 8.820312 345.691406 9.214844 346.789062 9.660156 347.867188 C 10.105469 348.941406 10.601562 349.996094 11.148438 351.023438 C 11.699219 352.050781 12.296875 353.050781 12.941406 354.019531 C 13.589844 354.988281 14.28125 355.925781 15.019531 356.828125 C 15.757812 357.726562 16.539062 358.589844 17.363281 359.417969 C 18.183594 360.242188 19.046875 361.027344 19.945312 361.765625 C 20.84375 362.507812 21.777344 363.203125 22.746094 363.851562 C 23.714844 364.503906 24.710938 365.101562 25.738281 365.65625 C 26.761719 366.207031 27.8125 366.707031 28.890625 367.15625 C 29.964844 367.605469 31.058594 368 32.171875 368.34375 C 33.289062 368.683594 34.414062 368.972656 35.558594 369.203125 C 36.699219 369.433594 37.851562 369.609375 39.011719 369.726562 C 40.167969 369.847656 41.332031 369.90625 42.496094 369.914062 L 332.871094 369.914062 C 334.035156 369.910156 335.203125 369.851562 336.363281 369.738281 C 337.527344 369.621094 338.679688 369.449219 339.824219 369.222656 C 340.96875 368.992188 342.101562 368.707031 343.21875 368.367188 C 344.335938 368.027344 345.433594 367.636719 346.511719 367.1875 C 347.589844 366.742188 348.644531 366.242188 349.671875 365.691406 C 350.703125 365.140625 351.703125 364.539062 352.675781 363.890625 C 353.644531 363.242188 354.582031 362.546875 355.484375 361.804688 C 356.386719 361.066406 357.25 360.28125 358.078125 359.457031 C 358.902344 358.628906 359.683594 357.765625 360.425781 356.863281 C 361.167969 355.960938 361.863281 355.023438 362.511719 354.054688 C 363.160156 353.082031 363.761719 352.082031 364.3125 351.054688 C 364.863281 350.023438 365.359375 348.96875 365.808594 347.890625 C 366.253906 346.8125 366.648438 345.714844 366.988281 344.597656 C 367.328125 343.480469 367.613281 342.347656 367.839844 341.203125 C 368.070312 340.058594 368.242188 338.90625 368.359375 337.742188 C 368.472656 336.582031 368.53125 335.417969 368.53125 334.25 L 368.53125 40.75 C 368.535156 39.582031 368.476562 38.414062 368.363281 37.253906 C 368.25 36.089844 368.082031 34.933594 367.855469 33.789062 C 367.625 32.644531 367.34375 31.511719 367.003906 30.394531 C 366.667969 29.273438 366.273438 28.175781 365.828125 27.097656 C 365.382812 26.015625 364.882812 24.960938 364.332031 23.929688 C 363.78125 22.898438 363.183594 21.898438 362.535156 20.925781 C 361.886719 19.957031 361.191406 19.019531 360.449219 18.113281 C 359.707031 17.210938 358.925781 16.347656 358.097656 15.519531 C 357.273438 14.695312 356.40625 13.910156 355.503906 13.167969 C 354.601562 12.429688 353.664062 11.734375 352.691406 11.085938 C 351.71875 10.4375 350.71875 9.835938 349.6875 9.285156 C 348.65625 8.734375 347.601562 8.238281 346.523438 7.789062 C 345.445312 7.34375 344.34375 6.953125 343.226562 6.613281 C 342.109375 6.273438 340.976562 5.992188 339.828125 5.765625 C 338.683594 5.539062 337.527344 5.367188 336.367188 5.253906 C 335.203125 5.140625 334.039062 5.085938 332.871094 5.085938 Z M 16.4375 29.804688 C 16.976562 28.53125 17.605469 27.304688 18.324219 26.121094 C 19.042969 24.941406 19.84375 23.820312 20.726562 22.753906 C 21.609375 21.691406 22.5625 20.695312 23.59375 19.773438 C 24.621094 18.851562 25.710938 18.003906 26.863281 17.242188 C 28.015625 16.476562 29.21875 15.800781 30.46875 15.214844 C 31.722656 14.625 33.007812 14.132812 34.332031 13.734375 C 35.65625 13.335938 37.003906 13.035156 38.371094 12.832031 C 39.738281 12.632812 41.113281 12.53125 42.496094 12.53125 L 332.871094 12.53125 C 333.792969 12.53125 334.714844 12.578125 335.636719 12.667969 C 336.554688 12.757812 337.46875 12.894531 338.375 13.074219 C 339.28125 13.253906 340.175781 13.476562 341.0625 13.746094 C 341.945312 14.015625 342.8125 14.324219 343.667969 14.679688 C 344.523438 15.03125 345.355469 15.425781 346.171875 15.863281 C 346.988281 16.300781 347.777344 16.773438 348.546875 17.285156 C 349.316406 17.800781 350.054688 18.351562 350.769531 18.9375 C 351.484375 19.523438 352.167969 20.144531 352.824219 20.796875 C 353.476562 21.449219 354.097656 22.132812 354.683594 22.847656 C 355.269531 23.5625 355.820312 24.304688 356.332031 25.074219 C 356.84375 25.839844 357.320312 26.632812 357.753906 27.449219 C 358.191406 28.261719 358.585938 29.097656 358.941406 29.949219 C 359.292969 30.804688 359.605469 31.675781 359.871094 32.558594 C 360.140625 33.441406 360.363281 34.339844 360.546875 35.246094 C 360.726562 36.152344 360.859375 37.0625 360.953125 37.984375 C 361.042969 38.902344 361.085938 39.824219 361.085938 40.75 L 361.085938 76.636719 L 14.390625 76.636719 L 14.390625 40.75 C 14.335938 36.964844 15.019531 33.316406 16.4375 29.804688 Z M 332.871094 362.46875 L 42.496094 362.46875 C 41.574219 362.464844 40.652344 362.417969 39.730469 362.328125 C 38.8125 362.238281 37.898438 362.101562 36.996094 361.917969 C 36.089844 361.738281 35.195312 361.511719 34.308594 361.242188 C 33.425781 360.976562 32.558594 360.664062 31.703125 360.308594 C 30.851562 359.957031 30.015625 359.558594 29.203125 359.125 C 28.386719 358.6875 27.597656 358.214844 26.828125 357.699219 C 26.058594 357.1875 25.320312 356.636719 24.605469 356.050781 C 23.890625 355.464844 23.207031 354.84375 22.554688 354.191406 C 21.902344 353.539062 21.28125 352.855469 20.695312 352.140625 C 20.109375 351.425781 19.558594 350.6875 19.046875 349.917969 C 18.53125 349.148438 18.058594 348.359375 17.621094 347.542969 C 17.1875 346.730469 16.789062 345.894531 16.4375 345.042969 C 16.082031 344.1875 15.769531 343.320312 15.503906 342.4375 C 15.234375 341.550781 15.007812 340.65625 14.828125 339.75 C 14.644531 338.847656 14.507812 337.933594 14.417969 337.015625 C 14.328125 336.09375 14.28125 335.171875 14.277344 334.25 L 14.277344 84.082031 L 360.863281 84.082031 L 360.863281 334.25 C 360.863281 335.167969 360.816406 336.085938 360.726562 337 C 360.636719 337.914062 360.5 338.824219 360.320312 339.722656 C 360.140625 340.625 359.917969 341.515625 359.652344 342.398438 C 359.386719 343.277344 359.078125 344.140625 358.726562 344.992188 C 358.378906 345.839844 357.984375 346.671875 357.554688 347.484375 C 357.121094 348.292969 356.652344 349.082031 356.144531 349.847656 C 355.636719 350.613281 355.089844 351.351562 354.511719 352.066406 C 353.929688 352.777344 353.316406 353.460938 352.667969 354.113281 C 352.019531 354.765625 351.34375 355.386719 350.632812 355.972656 C 349.925781 356.558594 349.191406 357.109375 348.429688 357.625 C 347.667969 358.136719 346.882812 358.613281 346.074219 359.050781 C 345.269531 359.492188 344.441406 359.886719 343.59375 360.246094 C 342.746094 360.601562 341.882812 360.917969 341.007812 361.191406 C 340.128906 361.464844 339.242188 361.695312 338.339844 361.882812 C 337.441406 362.066406 336.53125 362.210938 335.617188 362.308594 C 334.707031 362.40625 333.789062 362.460938 332.871094 362.46875 Z M 49.421875 59.289062 C 50.402344 59.289062 51.371094 59.191406 52.332031 59 C 53.296875 58.808594 54.226562 58.523438 55.132812 58.148438 C 56.039062 57.773438 56.898438 57.3125 57.714844 56.765625 C 58.527344 56.21875 59.28125 55.597656 59.972656 54.90625 C 60.664062 54.210938 61.28125 53.453125 61.824219 52.636719 C 62.367188 51.820312 62.824219 50.960938 63.195312 50.050781 C 63.566406 49.144531 63.847656 48.210938 64.035156 47.25 C 64.222656 46.285156 64.316406 45.316406 64.3125 44.335938 C 64.304688 43.355469 64.207031 42.382812 64.011719 41.421875 C 63.816406 40.464844 63.527344 39.53125 63.148438 38.628906 C 62.765625 37.722656 62.300781 36.867188 61.753906 36.054688 C 61.203125 35.242188 60.582031 34.492188 59.882812 33.800781 C 59.183594 33.113281 58.425781 32.5 57.609375 31.960938 C 56.789062 31.421875 55.925781 30.96875 55.015625 30.597656 C 54.109375 30.230469 53.171875 29.953125 52.210938 29.769531 C 51.246094 29.585938 50.277344 29.5 49.296875 29.507812 C 48.316406 29.515625 47.34375 29.621094 46.386719 29.820312 C 45.425781 30.019531 44.496094 30.3125 43.59375 30.695312 C 42.691406 31.078125 41.835938 31.546875 41.023438 32.097656 C 40.214844 32.652344 39.46875 33.277344 38.78125 33.980469 C 38.09375 34.679688 37.484375 35.441406 36.949219 36.261719 C 36.414062 37.082031 35.964844 37.949219 35.597656 38.859375 C 35.234375 39.765625 34.960938 40.703125 34.78125 41.667969 C 34.601562 42.632812 34.519531 43.605469 34.53125 44.585938 C 34.542969 45.554688 34.648438 46.511719 34.847656 47.460938 C 35.046875 48.410156 35.335938 49.332031 35.714844 50.226562 C 36.097656 51.117188 36.558594 51.964844 37.105469 52.769531 C 37.648438 53.570312 38.265625 54.3125 38.957031 54.992188 C 39.648438 55.675781 40.398438 56.285156 41.207031 56.816406 C 42.015625 57.351562 42.867188 57.804688 43.765625 58.171875 C 44.664062 58.542969 45.585938 58.820312 46.539062 59.007812 C 47.492188 59.195312 48.449219 59.289062 49.421875 59.289062 Z M 49.421875 37.324219 C 49.914062 37.324219 50.398438 37.375 50.882812 37.46875 C 51.363281 37.566406 51.832031 37.710938 52.285156 37.898438 C 52.738281 38.085938 53.167969 38.320312 53.578125 38.59375 C 53.984375 38.867188 54.359375 39.179688 54.707031 39.527344 C 55.054688 39.878906 55.359375 40.257812 55.632812 40.667969 C 55.902344 41.078125 56.128906 41.511719 56.316406 41.964844 C 56.5 42.421875 56.640625 42.890625 56.730469 43.371094 C 56.824219 43.855469 56.867188 44.34375 56.863281 44.832031 C 56.859375 45.324219 56.808594 45.8125 56.707031 46.292969 C 56.605469 46.773438 56.460938 47.238281 56.265625 47.691406 C 56.074219 48.144531 55.839844 48.574219 55.5625 48.976562 C 55.28125 49.382812 54.96875 49.757812 54.617188 50.101562 C 54.265625 50.445312 53.882812 50.75 53.46875 51.015625 C 53.058594 51.285156 52.625 51.507812 52.167969 51.691406 C 51.710938 51.871094 51.238281 52.007812 50.757812 52.09375 C 50.273438 52.183594 49.785156 52.222656 49.292969 52.214844 C 48.800781 52.207031 48.316406 52.148438 47.835938 52.046875 C 47.355469 51.941406 46.890625 51.789062 46.441406 51.59375 C 45.988281 51.398438 45.5625 51.160156 45.160156 50.878906 C 44.757812 50.597656 44.386719 50.277344 44.046875 49.921875 C 43.707031 49.570312 43.402344 49.183594 43.140625 48.769531 C 42.875 48.355469 42.652344 47.917969 42.476562 47.460938 C 42.300781 47.003906 42.167969 46.53125 42.082031 46.046875 C 42 45.5625 41.964844 45.074219 41.976562 44.585938 C 41.988281 44.101562 42.046875 43.628906 42.148438 43.15625 C 42.253906 42.6875 42.402344 42.234375 42.59375 41.792969 C 42.789062 41.351562 43.019531 40.933594 43.292969 40.535156 C 43.566406 40.140625 43.875 39.773438 44.222656 39.4375 C 44.566406 39.101562 44.9375 38.804688 45.339844 38.539062 C 45.746094 38.277344 46.167969 38.054688 46.613281 37.875 C 47.058594 37.691406 47.519531 37.554688 47.992188 37.464844 C 48.464844 37.371094 48.941406 37.324219 49.421875 37.324219 Z M 86.425781 59.289062 C 87.40625 59.289062 88.375 59.191406 89.335938 59 C 90.300781 58.808594 91.230469 58.523438 92.136719 58.148438 C 93.042969 57.773438 93.902344 57.3125 94.71875 56.765625 C 95.53125 56.21875 96.285156 55.597656 96.976562 54.90625 C 97.667969 54.210938 98.285156 53.453125 98.828125 52.636719 C 99.371094 51.820312 99.828125 50.960938 100.199219 50.050781 C 100.570312 49.144531 100.851562 48.210938 101.039062 47.25 C 101.226562 46.285156 101.320312 45.316406 101.316406 44.335938 C 101.308594 43.355469 101.210938 42.382812 101.015625 41.421875 C 100.820312 40.464844 100.53125 39.53125 100.152344 38.628906 C 99.769531 37.722656 99.304688 36.867188 98.757812 36.054688 C 98.207031 35.242188 97.585938 34.492188 96.886719 33.800781 C 96.1875 33.113281 95.429688 32.5 94.613281 31.960938 C 93.792969 31.421875 92.929688 30.96875 92.019531 30.597656 C 91.113281 30.230469 90.175781 29.953125 89.214844 29.769531 C 88.25 29.585938 87.28125 29.5 86.300781 29.507812 C 85.320312 29.515625 84.347656 29.621094 83.390625 29.820312 C 82.429688 30.019531 81.5 30.3125 80.597656 30.695312 C 79.695312 31.078125 78.839844 31.546875 78.027344 32.097656 C 77.21875 32.652344 76.472656 33.277344 75.785156 33.980469 C 75.097656 34.679688 74.488281 35.441406 73.953125 36.261719 C 73.417969 37.082031 72.964844 37.949219 72.601562 38.859375 C 72.238281 39.765625 71.964844 40.703125 71.785156 41.667969 C 71.605469 42.632812 71.523438 43.605469 71.535156 44.585938 C 71.546875 45.554688 71.652344 46.511719 71.851562 47.460938 C 72.050781 48.410156 72.339844 49.332031 72.71875 50.226562 C 73.101562 51.117188 73.5625 51.964844 74.109375 52.769531 C 74.652344 53.570312 75.269531 54.3125 75.960938 54.992188 C 76.652344 55.675781 77.402344 56.285156 78.210938 56.816406 C 79.019531 57.351562 79.871094 57.804688 80.769531 58.171875 C 81.667969 58.542969 82.589844 58.820312 83.542969 59.007812 C 84.496094 59.195312 85.453125 59.289062 86.425781 59.289062 Z M 86.425781 37.324219 C 86.917969 37.324219 87.402344 37.375 87.886719 37.46875 C 88.367188 37.566406 88.835938 37.710938 89.289062 37.898438 C 89.742188 38.085938 90.171875 38.320312 90.582031 38.59375 C 90.988281 38.867188 91.363281 39.179688 91.710938 39.527344 C 92.054688 39.878906 92.363281 40.257812 92.636719 40.667969 C 92.90625 41.078125 93.132812 41.511719 93.320312 41.964844 C 93.503906 42.421875 93.644531 42.890625 93.734375 43.371094 C 93.828125 43.855469 93.871094 44.34375 93.867188 44.832031 C 93.863281 45.324219 93.8125 45.8125 93.710938 46.292969 C 93.609375 46.773438 93.464844 47.238281 93.269531 47.691406 C 93.078125 48.144531 92.84375 48.574219 92.566406 48.976562 C 92.285156 49.382812 91.972656 49.757812 91.621094 50.101562 C 91.269531 50.445312 90.886719 50.75 90.472656 51.015625 C 90.0625 51.285156 89.628906 51.507812 89.171875 51.691406 C 88.714844 51.871094 88.242188 52.007812 87.761719 52.09375 C 87.277344 52.183594 86.789062 52.222656 86.296875 52.214844 C 85.804688 52.207031 85.320312 52.148438 84.839844 52.046875 C 84.359375 51.941406 83.894531 51.789062 83.445312 51.59375 C 82.992188 51.398438 82.566406 51.160156 82.164062 50.878906 C 81.761719 50.597656 81.390625 50.277344 81.050781 49.921875 C 80.707031 49.570312 80.40625 49.183594 80.144531 48.769531 C 79.878906 48.355469 79.65625 47.917969 79.480469 47.460938 C 79.304688 47.003906 79.171875 46.53125 79.085938 46.046875 C 79.003906 45.5625 78.96875 45.074219 78.980469 44.585938 C 78.992188 44.101562 79.050781 43.628906 79.152344 43.15625 C 79.257812 42.6875 79.40625 42.234375 79.597656 41.792969 C 79.792969 41.351562 80.023438 40.933594 80.296875 40.535156 C 80.570312 40.140625 80.878906 39.773438 81.226562 39.4375 C 81.570312 39.101562 81.941406 38.804688 82.34375 38.539062 C 82.75 38.277344 83.171875 38.054688 83.617188 37.875 C 84.0625 37.691406 84.523438 37.554688 84.996094 37.464844 C 85.46875 37.371094 85.945312 37.324219 86.425781 37.324219 Z M 125.738281 59.289062 C 126.71875 59.289062 127.6875 59.191406 128.648438 59 C 129.609375 58.808594 130.542969 58.523438 131.449219 58.148438 C 132.355469 57.773438 133.214844 57.3125 134.027344 56.765625 C 134.84375 56.21875 135.597656 55.597656 136.289062 54.90625 C 136.980469 54.210938 137.597656 53.453125 138.140625 52.636719 C 138.679688 51.820312 139.140625 50.960938 139.511719 50.050781 C 139.882812 49.144531 140.164062 48.210938 140.351562 47.25 C 140.539062 46.285156 140.628906 45.316406 140.625 44.335938 C 140.621094 43.355469 140.523438 42.382812 140.328125 41.421875 C 140.132812 40.464844 139.84375 39.53125 139.464844 38.628906 C 139.082031 37.722656 138.617188 36.867188 138.070312 36.054688 C 137.519531 35.242188 136.894531 34.492188 136.199219 33.800781 C 135.5 33.113281 134.742188 32.5 133.925781 31.960938 C 133.105469 31.421875 132.242188 30.96875 131.332031 30.597656 C 130.425781 30.230469 129.488281 29.953125 128.527344 29.769531 C 127.5625 29.585938 126.589844 29.5 125.613281 29.507812 C 124.632812 29.515625 123.660156 29.621094 122.703125 29.820312 C 121.742188 30.019531 120.808594 30.3125 119.910156 30.695312 C 119.007812 31.078125 118.148438 31.546875 117.339844 32.097656 C 116.53125 32.652344 115.78125 33.277344 115.097656 33.980469 C 114.410156 34.679688 113.800781 35.441406 113.265625 36.261719 C 112.730469 37.082031 112.277344 37.949219 111.914062 38.859375 C 111.550781 39.765625 111.277344 40.703125 111.097656 41.667969 C 110.917969 42.632812 110.832031 43.605469 110.847656 44.585938 C 110.859375 45.554688 110.964844 46.511719 111.164062 47.460938 C 111.363281 48.410156 111.652344 49.332031 112.03125 50.226562 C 112.414062 51.117188 112.875 51.964844 113.417969 52.769531 C 113.964844 53.570312 114.582031 54.3125 115.273438 54.992188 C 115.964844 55.675781 116.710938 56.285156 117.523438 56.816406 C 118.332031 57.351562 119.183594 57.804688 120.082031 58.171875 C 120.976562 58.542969 121.902344 58.820312 122.855469 59.007812 C 123.804688 59.195312 124.765625 59.289062 125.738281 59.289062 Z M 125.738281 37.324219 C 126.226562 37.324219 126.714844 37.375 127.195312 37.46875 C 127.679688 37.566406 128.148438 37.710938 128.601562 37.898438 C 129.054688 38.085938 129.484375 38.320312 129.890625 38.59375 C 130.300781 38.867188 130.675781 39.179688 131.023438 39.527344 C 131.367188 39.878906 131.675781 40.257812 131.949219 40.667969 C 132.21875 41.078125 132.445312 41.511719 132.632812 41.964844 C 132.816406 42.421875 132.957031 42.890625 133.046875 43.371094 C 133.140625 43.855469 133.183594 44.34375 133.179688 44.832031 C 133.175781 45.324219 133.125 45.8125 133.023438 46.292969 C 132.921875 46.773438 132.777344 47.238281 132.582031 47.691406 C 132.390625 48.144531 132.15625 48.574219 131.875 48.976562 C 131.597656 49.382812 131.285156 49.757812 130.933594 50.101562 C 130.582031 50.445312 130.199219 50.75 129.785156 51.015625 C 129.375 51.285156 128.9375 51.507812 128.480469 51.691406 C 128.027344 51.871094 127.554688 52.007812 127.070312 52.09375 C 126.589844 52.183594 126.101562 52.222656 125.609375 52.214844 C 125.117188 52.207031 124.632812 52.148438 124.152344 52.046875 C 123.671875 51.941406 123.207031 51.789062 122.757812 51.59375 C 122.304688 51.398438 121.878906 51.160156 121.476562 50.878906 C 121.074219 50.597656 120.703125 50.277344 120.359375 49.921875 C 120.019531 49.570312 119.71875 49.183594 119.453125 48.769531 C 119.191406 48.355469 118.96875 47.917969 118.792969 47.460938 C 118.613281 47.003906 118.484375 46.53125 118.398438 46.046875 C 118.316406 45.5625 118.277344 45.074219 118.292969 44.585938 C 118.304688 44.101562 118.363281 43.628906 118.464844 43.15625 C 118.570312 42.6875 118.71875 42.234375 118.910156 41.792969 C 119.101562 41.351562 119.335938 40.933594 119.609375 40.535156 C 119.882812 40.140625 120.191406 39.773438 120.535156 39.4375 C 120.882812 39.101562 121.253906 38.804688 121.65625 38.539062 C 122.058594 38.277344 122.484375 38.054688 122.929688 37.875 C 123.375 37.691406 123.835938 37.554688 124.308594 37.464844 C 124.777344 37.371094 125.253906 37.324219 125.738281 37.324219 Z M 191.070312 44.585938 C 191.070312 44.089844 191.164062 43.617188 191.355469 43.160156 C 191.542969 42.703125 191.8125 42.300781 192.160156 41.953125 C 192.511719 41.601562 192.914062 41.332031 193.367188 41.144531 C 193.824219 40.957031 194.300781 40.859375 194.792969 40.859375 L 333.6875 40.859375 C 334.183594 40.859375 334.65625 40.957031 335.113281 41.144531 C 335.570312 41.332031 335.972656 41.601562 336.320312 41.953125 C 336.667969 42.300781 336.9375 42.703125 337.128906 43.160156 C 337.316406 43.617188 337.410156 44.089844 337.410156 44.585938 C 337.410156 45.078125 337.316406 45.550781 337.128906 46.007812 C 336.9375 46.464844 336.667969 46.867188 336.320312 47.214844 C 335.972656 47.566406 335.570312 47.835938 335.113281 48.023438 C 334.65625 48.210938 334.183594 48.308594 333.6875 48.308594 L 194.792969 48.308594 C 194.300781 48.308594 193.824219 48.210938 193.367188 48.023438 C 192.914062 47.835938 192.511719 47.566406 192.160156 47.214844 C 191.8125 46.867188 191.542969 46.464844 191.355469 46.007812 C 191.164062 45.550781 191.070312 45.078125 191.070312 44.585938 Z M 145.726562 230.125 L 49.941406 230.125 C 49.449219 230.125 48.972656 230.21875 48.519531 230.40625 C 48.0625 230.597656 47.660156 230.867188 47.308594 231.214844 C 46.960938 231.5625 46.691406 231.964844 46.503906 232.421875 C 46.3125 232.878906 46.21875 233.355469 46.21875 233.847656 L 46.21875 329.632812 C 46.21875 330.125 46.3125 330.601562 46.503906 331.058594 C 46.691406 331.515625 46.960938 331.917969 47.308594 332.265625 C 47.660156 332.613281 48.0625 332.882812 48.519531 333.074219 C 48.972656 333.261719 49.449219 333.355469 49.941406 333.355469 L 145.726562 333.355469 C 146.222656 333.355469 146.695312 333.261719 147.152344 333.074219 C 147.609375 332.882812 148.011719 332.613281 148.359375 332.265625 C 148.710938 331.917969 148.976562 331.515625 149.167969 331.058594 C 149.355469 330.601562 149.449219 330.125 149.449219 329.632812 L 149.449219 233.847656 C 149.449219 233.355469 149.355469 232.878906 149.167969 232.421875 C 148.976562 231.964844 148.710938 231.5625 148.359375 231.214844 C 148.011719 230.867188 147.609375 230.597656 147.152344 230.40625 C 146.695312 230.21875 146.222656 230.125 145.726562 230.125 Z M 142.003906 325.910156 L 53.664062 325.910156 L 53.664062 237.570312 L 142.003906 237.570312 Z M 322.816406 238.238281 C 322.816406 238.734375 322.722656 239.207031 322.535156 239.664062 C 322.34375 240.121094 322.078125 240.523438 321.726562 240.871094 C 321.378906 241.222656 320.976562 241.492188 320.519531 241.679688 C 320.0625 241.867188 319.589844 241.960938 319.09375 241.960938 L 176.960938 241.960938 C 176.46875 241.960938 175.992188 241.867188 175.535156 241.679688 C 175.082031 241.492188 174.679688 241.222656 174.328125 240.871094 C 173.980469 240.523438 173.710938 240.121094 173.523438 239.664062 C 173.332031 239.207031 173.238281 238.734375 173.238281 238.238281 C 173.238281 237.746094 173.332031 237.273438 173.523438 236.816406 C 173.710938 236.359375 173.980469 235.957031 174.328125 235.609375 C 174.679688 235.257812 175.082031 234.988281 175.535156 234.800781 C 175.992188 234.613281 176.46875 234.515625 176.960938 234.515625 L 319.09375 234.515625 C 319.589844 234.515625 320.0625 234.613281 320.519531 234.800781 C 320.976562 234.988281 321.378906 235.257812 321.726562 235.609375 C 322.078125 235.957031 322.34375 236.359375 322.535156 236.816406 C 322.722656 237.273438 322.816406 237.746094 322.816406 238.238281 Z M 322.816406 267.238281 C 322.816406 267.734375 322.722656 268.207031 322.535156 268.664062 C 322.34375 269.121094 322.078125 269.523438 321.726562 269.871094 C 321.378906 270.222656 320.976562 270.492188 320.519531 270.679688 C 320.0625 270.867188 319.589844 270.960938 319.09375 270.964844 L 244.082031 270.964844 C 243.589844 270.960938 243.113281 270.867188 242.65625 270.679688 C 242.203125 270.492188 241.800781 270.222656 241.449219 269.871094 C 241.101562 269.523438 240.832031 269.121094 240.644531 268.664062 C 240.453125 268.207031 240.359375 267.734375 240.359375 267.238281 C 240.359375 266.746094 240.453125 266.273438 240.644531 265.816406 C 240.832031 265.359375 241.101562 264.957031 241.449219 264.609375 C 241.800781 264.257812 242.203125 263.988281 242.65625 263.800781 C 243.113281 263.613281 243.589844 263.515625 244.082031 263.515625 L 319.09375 263.515625 C 319.589844 263.515625 320.0625 263.613281 320.519531 263.800781 C 320.976562 263.988281 321.378906 264.257812 321.726562 264.609375 C 322.078125 264.957031 322.34375 265.359375 322.535156 265.816406 C 322.722656 266.273438 322.816406 266.746094 322.816406 267.238281 Z M 173.238281 267.238281 C 173.238281 266.746094 173.332031 266.273438 173.523438 265.816406 C 173.710938 265.359375 173.980469 264.957031 174.328125 264.609375 C 174.679688 264.257812 175.082031 263.988281 175.535156 263.800781 C 175.992188 263.613281 176.46875 263.515625 176.960938 263.515625 L 210.988281 263.515625 C 211.480469 263.515625 211.957031 263.613281 212.410156 263.800781 C 212.867188 263.988281 213.269531 264.257812 213.621094 264.609375 C 213.96875 264.957031 214.238281 265.359375 214.425781 265.816406 C 214.617188 266.273438 214.710938 266.746094 214.710938 267.238281 C 214.710938 267.734375 214.617188 268.207031 214.425781 268.664062 C 214.238281 269.121094 213.96875 269.523438 213.621094 269.871094 C 213.269531 270.222656 212.867188 270.492188 212.410156 270.679688 C 211.957031 270.867188 211.480469 270.960938 210.988281 270.964844 L 176.960938 270.964844 C 176.46875 270.960938 175.992188 270.867188 175.535156 270.679688 C 175.082031 270.492188 174.679688 270.222656 174.328125 269.871094 C 173.980469 269.523438 173.710938 269.121094 173.523438 268.664062 C 173.332031 268.207031 173.238281 267.734375 173.238281 267.238281 Z M 322.816406 296.238281 C 322.816406 296.734375 322.722656 297.207031 322.535156 297.664062 C 322.34375 298.121094 322.078125 298.523438 321.726562 298.871094 C 321.378906 299.222656 320.976562 299.492188 320.519531 299.679688 C 320.0625 299.867188 319.589844 299.964844 319.09375 299.964844 L 176.960938 299.964844 C 176.46875 299.964844 175.992188 299.867188 175.535156 299.679688 C 175.082031 299.492188 174.679688 299.222656 174.328125 298.871094 C 173.980469 298.523438 173.710938 298.121094 173.523438 297.664062 C 173.332031 297.207031 173.238281 296.734375 173.238281 296.238281 C 173.238281 295.746094 173.332031 295.273438 173.523438 294.816406 C 173.710938 294.359375 173.980469 293.957031 174.328125 293.609375 C 174.679688 293.257812 175.082031 292.988281 175.535156 292.800781 C 175.992188 292.613281 176.46875 292.515625 176.960938 292.515625 L 319.09375 292.515625 C 319.589844 292.515625 320.0625 292.613281 320.519531 292.800781 C 320.976562 292.988281 321.378906 293.257812 321.726562 293.609375 C 322.078125 293.957031 322.34375 294.359375 322.535156 294.816406 C 322.722656 295.273438 322.816406 295.746094 322.816406 296.238281 Z M 322.816406 325.203125 C 322.816406 325.695312 322.722656 326.171875 322.535156 326.628906 C 322.34375 327.082031 322.078125 327.484375 321.726562 327.835938 C 321.378906 328.183594 320.976562 328.453125 320.519531 328.640625 C 320.0625 328.832031 319.589844 328.925781 319.09375 328.925781 L 280.042969 328.925781 C 279.550781 328.925781 279.074219 328.832031 278.621094 328.640625 C 278.164062 328.453125 277.761719 328.183594 277.410156 327.835938 C 277.0625 327.484375 276.792969 327.082031 276.605469 326.628906 C 276.414062 326.171875 276.320312 325.695312 276.320312 325.203125 C 276.320312 324.710938 276.414062 324.234375 276.605469 323.777344 C 276.792969 323.320312 277.0625 322.917969 277.410156 322.570312 C 277.761719 322.222656 278.164062 321.953125 278.621094 321.761719 C 279.074219 321.574219 279.550781 321.480469 280.042969 321.480469 L 319.09375 321.480469 C 319.59375 321.480469 320.070312 321.574219 320.527344 321.765625 C 320.988281 321.957031 321.390625 322.230469 321.742188 322.582031 C 322.089844 322.9375 322.359375 323.34375 322.546875 323.804688 C 322.730469 324.265625 322.824219 324.742188 322.816406 325.242188 Z M 256.851562 325.242188 C 256.851562 325.734375 256.757812 326.207031 256.566406 326.664062 C 256.378906 327.121094 256.109375 327.523438 255.761719 327.871094 C 255.410156 328.222656 255.007812 328.492188 254.554688 328.679688 C 254.097656 328.867188 253.621094 328.964844 253.128906 328.964844 L 176.960938 328.964844 C 176.46875 328.964844 175.992188 328.867188 175.535156 328.679688 C 175.082031 328.492188 174.679688 328.222656 174.328125 327.871094 C 173.980469 327.523438 173.710938 327.121094 173.523438 326.664062 C 173.332031 326.207031 173.238281 325.734375 173.238281 325.242188 C 173.238281 324.746094 173.332031 324.273438 173.523438 323.816406 C 173.710938 323.359375 173.980469 322.957031 174.328125 322.609375 C 174.679688 322.257812 175.082031 321.988281 175.535156 321.800781 C 175.992188 321.613281 176.46875 321.515625 176.960938 321.515625 L 253.128906 321.515625 C 253.621094 321.515625 254.097656 321.613281 254.554688 321.800781 C 255.007812 321.988281 255.410156 322.257812 255.761719 322.609375 C 256.109375 322.957031 256.378906 323.359375 256.566406 323.816406 C 256.757812 324.273438 256.851562 324.746094 256.851562 325.242188 Z M 319.09375 107.757812 L 43.910156 107.757812 C 43.417969 107.757812 42.941406 107.851562 42.488281 108.042969 C 42.03125 108.230469 41.628906 108.5 41.277344 108.847656 C 40.929688 109.199219 40.660156 109.601562 40.472656 110.058594 C 40.285156 110.511719 40.1875 110.988281 40.1875 111.480469 L 40.1875 206.449219 C 40.1875 206.941406 40.285156 207.417969 40.472656 207.871094 C 40.660156 208.328125 40.929688 208.730469 41.277344 209.082031 C 41.628906 209.429688 42.03125 209.699219 42.488281 209.886719 C 42.941406 210.078125 43.417969 210.171875 43.910156 210.171875 L 319.09375 210.171875 C 319.589844 210.171875 320.0625 210.078125 320.519531 209.886719 C 320.976562 209.699219 321.378906 209.429688 321.726562 209.082031 C 322.078125 208.730469 322.34375 208.328125 322.535156 207.871094 C 322.722656 207.417969 322.816406 206.941406 322.816406 206.449219 L 322.816406 111.480469 C 322.816406 110.988281 322.722656 110.511719 322.535156 110.058594 C 322.34375 109.601562 322.078125 109.199219 321.726562 108.847656 C 321.378906 108.5 320.976562 108.230469 320.519531 108.042969 C 320.0625 107.851562 319.589844 107.757812 319.09375 107.757812 Z M 315.371094 202.726562 L 47.632812 202.726562 L 47.632812 115.203125 L 315.371094 115.203125 Z M 77.339844 175.25 C 76.875 174.789062 76.652344 174.230469 76.671875 173.578125 L 76.671875 141.523438 C 76.667969 140.875 76.890625 140.316406 77.339844 139.847656 C 77.78125 139.363281 78.328125 139.117188 78.980469 139.105469 C 79.644531 139.109375 80.21875 139.34375 80.691406 139.8125 C 81.144531 140.277344 81.367188 140.835938 81.363281 141.488281 L 81.363281 158.015625 L 99.121094 139.960938 C 99.582031 139.398438 100.179688 139.113281 100.90625 139.105469 C 101.492188 139.109375 102 139.308594 102.433594 139.699219 C 102.878906 140.097656 103.089844 140.59375 103.066406 141.1875 C 103.105469 141.800781 102.921875 142.335938 102.507812 142.789062 L 90.519531 154.777344 L 104.292969 172.125 C 104.648438 172.558594 104.835938 173.054688 104.851562 173.613281 C 104.894531 174.257812 104.683594 174.804688 104.21875 175.25 C 103.976562 175.484375 103.695312 175.660156 103.375 175.777344 C 103.058594 175.890625 102.730469 175.933594 102.394531 175.910156 C 102.054688 175.886719 101.738281 175.792969 101.441406 175.632812 C 101.140625 175.472656 100.890625 175.257812 100.683594 174.992188 L 87.167969 157.902344 L 81.25 163.859375 L 81.25 173.578125 C 81.269531 174.230469 81.046875 174.789062 80.582031 175.25 C 80.101562 175.710938 79.53125 175.933594 78.867188 175.921875 C 78.269531 175.902344 77.761719 175.679688 77.339844 175.25 Z M 122.347656 176.332031 C 124.078125 176.382812 125.777344 176.183594 127.449219 175.734375 C 128.847656 175.332031 130.175781 174.761719 131.433594 174.023438 C 131.820312 173.859375 132.132812 173.609375 132.375 173.265625 C 132.617188 172.921875 132.75 172.542969 132.773438 172.125 C 132.800781 171.546875 132.601562 171.0625 132.175781 170.671875 C 131.765625 170.296875 131.28125 170.097656 130.726562 170.078125 C 130.382812 170.070312 130.0625 170.144531 129.757812 170.300781 C 128.75 170.824219 127.695312 171.222656 126.59375 171.492188 C 125.371094 171.785156 124.128906 171.921875 122.871094 171.902344 C 121.722656 171.96875 120.597656 171.832031 119.5 171.484375 C 118.40625 171.136719 117.40625 170.605469 116.503906 169.890625 C 115.710938 169.152344 115.082031 168.296875 114.609375 167.320312 C 114.140625 166.339844 113.867188 165.3125 113.785156 164.234375 L 131.394531 164.234375 C 131.714844 164.253906 132.023438 164.210938 132.324219 164.097656 C 132.621094 163.988281 132.886719 163.820312 133.113281 163.597656 C 133.34375 163.371094 133.515625 163.109375 133.628906 162.8125 C 133.746094 162.515625 133.792969 162.207031 133.777344 161.886719 C 133.800781 159.601562 133.316406 157.429688 132.328125 155.371094 C 131.398438 153.328125 129.996094 151.691406 128.121094 150.457031 C 126.074219 149.207031 123.851562 148.613281 121.457031 148.671875 C 118.960938 148.585938 116.667969 149.21875 114.570312 150.570312 C 112.6875 151.839844 111.296875 153.511719 110.398438 155.59375 C 109.484375 157.773438 109.035156 160.046875 109.058594 162.410156 C 108.921875 164.265625 109.148438 166.078125 109.734375 167.847656 C 110.320312 169.613281 111.226562 171.203125 112.445312 172.609375 C 113.769531 173.886719 115.289062 174.851562 117.011719 175.496094 C 118.734375 176.144531 120.511719 176.421875 122.347656 176.332031 Z M 114.902344 156.117188 C 115.609375 154.996094 116.566406 154.167969 117.769531 153.621094 C 118.855469 153.066406 120.011719 152.792969 121.234375 152.804688 C 122.460938 152.804688 123.628906 153.078125 124.730469 153.621094 C 125.921875 154.1875 126.875 155.015625 127.597656 156.117188 C 128.4375 157.421875 128.882812 158.847656 128.9375 160.398438 L 113.675781 160.398438 C 113.6875 158.796875 114.121094 157.320312 114.976562 155.96875 Z M 137.015625 152.394531 C 136.949219 152.070312 136.949219 151.75 137.015625 151.425781 C 137.003906 150.761719 137.230469 150.191406 137.6875 149.714844 C 138.136719 149.253906 138.683594 149.03125 139.324219 149.042969 C 139.816406 149.03125 140.265625 149.167969 140.664062 149.453125 C 141.066406 149.707031 141.351562 150.054688 141.519531 150.496094 L 149.523438 170.300781 L 157.679688 150.570312 C 157.828125 150.101562 158.101562 149.726562 158.503906 149.445312 C 158.902344 149.164062 159.347656 149.027344 159.835938 149.042969 C 160.492188 149.023438 161.050781 149.25 161.511719 149.714844 C 161.96875 150.191406 162.195312 150.761719 162.183594 151.425781 C 162.238281 151.710938 162.238281 151.996094 162.183594 152.28125 L 148 186.34375 C 147.847656 186.824219 147.570312 187.21875 147.164062 187.519531 C 146.761719 187.820312 146.304688 187.976562 145.800781 187.984375 C 145.1875 187.984375 144.664062 187.761719 144.238281 187.3125 C 143.800781 186.855469 143.589844 186.308594 143.605469 185.675781 C 143.550781 185.402344 143.550781 185.128906 143.605469 184.855469 L 146.957031 176.183594 Z M 164.972656 152.394531 C 164.859375 152.109375 164.796875 151.808594 164.789062 151.5 C 164.777344 150.859375 165 150.3125 165.457031 149.863281 C 165.921875 149.40625 166.480469 149.183594 167.132812 149.191406 C 167.617188 149.183594 168.0625 149.308594 168.472656 149.566406 C 168.855469 149.804688 169.117188 150.140625 169.253906 150.570312 L 175.359375 170.5625 L 181.355469 151.054688 C 181.542969 150.5 181.867188 150.042969 182.324219 149.675781 C 182.804688 149.34375 183.335938 149.179688 183.921875 149.191406 C 184.496094 149.179688 185.019531 149.34375 185.488281 149.675781 C 185.957031 150.03125 186.28125 150.492188 186.453125 151.054688 L 192.484375 170.5625 L 198.628906 150.273438 C 198.78125 149.839844 199.054688 149.503906 199.445312 149.265625 C 199.839844 149.003906 200.277344 148.878906 200.75 148.894531 C 201.40625 148.875 201.964844 149.101562 202.425781 149.566406 C 202.882812 150.015625 203.105469 150.558594 203.09375 151.203125 C 203.148438 151.5 203.148438 151.796875 203.09375 152.097656 L 195.648438 173.6875 C 195.429688 174.332031 195.046875 174.851562 194.496094 175.25 C 193.945312 175.667969 193.324219 175.878906 192.632812 175.882812 C 191.941406 175.890625 191.320312 175.679688 190.773438 175.25 C 190.199219 174.847656 189.804688 174.316406 189.582031 173.652344 L 183.960938 156.488281 L 178.449219 173.6875 C 178.214844 174.34375 177.820312 174.875 177.257812 175.289062 C 176.988281 175.488281 176.695312 175.640625 176.378906 175.746094 C 176.058594 175.851562 175.734375 175.902344 175.398438 175.902344 C 175.0625 175.902344 174.734375 175.851562 174.417969 175.746094 C 174.101562 175.640625 173.804688 175.488281 173.535156 175.289062 C 172.984375 174.894531 172.613281 174.375 172.421875 173.726562 Z M 212.886719 174.730469 C 215.070312 175.914062 217.402344 176.484375 219.882812 176.441406 C 222.355469 176.484375 224.675781 175.914062 226.847656 174.730469 C 228.894531 173.570312 230.457031 171.945312 231.535156 169.855469 C 232.078125 168.734375 232.484375 167.566406 232.761719 166.355469 C 233.039062 165.140625 233.175781 163.914062 233.175781 162.667969 C 233.175781 161.425781 233.039062 160.195312 232.761719 158.984375 C 232.484375 157.769531 232.078125 156.605469 231.535156 155.484375 C 230.535156 153.269531 228.996094 151.53125 226.921875 150.273438 C 224.753906 149.074219 222.433594 148.5 219.960938 148.558594 C 217.472656 148.503906 215.140625 149.074219 212.960938 150.273438 C 210.914062 151.410156 209.363281 153.023438 208.308594 155.113281 C 207.765625 156.234375 207.359375 157.398438 207.082031 158.613281 C 206.804688 159.824219 206.667969 161.054688 206.667969 162.296875 C 206.667969 163.539062 206.804688 164.769531 207.082031 165.980469 C 207.359375 167.195312 207.765625 168.359375 208.308594 169.480469 C 209.34375 171.625 210.894531 173.285156 212.960938 174.46875 Z M 212.589844 157.269531 C 213.332031 155.921875 214.386719 154.890625 215.753906 154.179688 C 217.046875 153.535156 218.417969 153.214844 219.867188 153.214844 C 221.3125 153.214844 222.683594 153.535156 223.980469 154.179688 C 225.371094 154.875 226.4375 155.90625 227.179688 157.269531 C 228.121094 158.839844 228.605469 160.539062 228.632812 162.371094 C 228.710938 164.289062 228.289062 166.085938 227.367188 167.769531 C 226.613281 169.128906 225.542969 170.171875 224.164062 170.894531 C 222.871094 171.539062 221.5 171.863281 220.050781 171.863281 C 218.605469 171.863281 217.234375 171.539062 215.9375 170.894531 C 214.582031 170.160156 213.527344 169.117188 212.773438 167.769531 C 211.851562 166.085938 211.429688 164.289062 211.507812 162.371094 C 211.394531 160.476562 211.777344 158.691406 212.664062 157.011719 Z M 240.472656 175.511719 C 240.007812 175.050781 239.78125 174.492188 239.800781 173.835938 L 239.800781 151.5 C 239.789062 150.839844 240.011719 150.265625 240.472656 149.789062 C 240.921875 149.328125 241.46875 149.105469 242.109375 149.117188 C 242.429688 149.109375 242.738281 149.160156 243.035156 149.277344 C 243.332031 149.394531 243.589844 149.566406 243.816406 149.792969 C 244.042969 150.019531 244.214844 150.28125 244.332031 150.578125 C 244.449219 150.875 244.503906 151.183594 244.492188 151.5 L 244.492188 153.734375 C 244.925781 153.03125 245.4375 152.386719 246.023438 151.804688 C 246.613281 151.222656 247.261719 150.722656 247.972656 150.296875 C 248.679688 149.871094 249.429688 149.539062 250.222656 149.296875 C 251.011719 149.050781 251.820312 148.90625 252.644531 148.859375 L 252.90625 148.859375 C 253.554688 148.832031 254.101562 149.054688 254.542969 149.527344 C 255.003906 149.976562 255.226562 150.523438 255.214844 151.164062 C 255.230469 151.808594 255.007812 152.355469 254.542969 152.804688 C 254.050781 153.230469 253.480469 153.425781 252.832031 153.398438 L 252.570312 153.398438 C 250.929688 153.382812 249.402344 153.789062 247.992188 154.628906 C 246.578125 155.484375 245.410156 156.601562 244.492188 157.976562 L 244.492188 173.761719 C 244.511719 174.417969 244.285156 174.976562 243.820312 175.4375 C 243.34375 175.894531 242.773438 176.117188 242.109375 176.109375 C 241.464844 176.050781 240.941406 175.765625 240.546875 175.25 Z M 263.738281 174.804688 C 265.628906 175.890625 267.664062 176.4375 269.84375 176.441406 C 271.539062 176.4375 273.160156 176.09375 274.707031 175.40625 C 276.257812 174.71875 277.601562 173.75 278.742188 172.496094 L 278.742188 173.835938 C 278.722656 174.492188 278.945312 175.050781 279.410156 175.511719 C 279.890625 175.96875 280.460938 176.195312 281.125 176.183594 C 281.765625 176.195312 282.3125 175.972656 282.761719 175.511719 C 283.257812 175.0625 283.492188 174.503906 283.46875 173.835938 L 283.46875 140.332031 C 283.492188 139.664062 283.257812 139.105469 282.761719 138.65625 C 282.324219 138.171875 281.777344 137.9375 281.125 137.949219 C 280.460938 137.9375 279.890625 138.164062 279.410156 138.621094 C 278.941406 139.09375 278.714844 139.664062 278.742188 140.332031 L 278.742188 153.0625 C 278.28125 152.5625 277.78125 152.105469 277.246094 151.6875 C 276.707031 151.269531 276.140625 150.902344 275.542969 150.582031 C 274.941406 150.261719 274.320312 149.992188 273.675781 149.777344 C 273.03125 149.5625 272.371094 149.402344 271.699219 149.296875 C 271.027344 149.195312 270.351562 149.148438 269.671875 149.15625 C 268.992188 149.167969 268.320312 149.234375 267.652344 149.359375 C 266.984375 149.484375 266.328125 149.664062 265.691406 149.898438 C 265.054688 150.132812 264.441406 150.417969 263.851562 150.757812 C 261.859375 151.914062 260.308594 153.503906 259.195312 155.519531 C 257.925781 157.839844 257.328125 160.324219 257.410156 162.964844 C 257.34375 165.605469 257.941406 168.089844 259.195312 170.414062 C 260.382812 172.183594 261.921875 173.5625 263.8125 174.542969 Z M 264.335938 155.78125 C 265.140625 154.949219 266.082031 154.320312 267.160156 153.890625 C 268.238281 153.464844 269.355469 153.273438 270.515625 153.324219 C 272.101562 153.324219 273.601562 153.683594 275.019531 154.40625 C 276.4375 155.113281 277.679688 156.054688 278.742188 157.234375 L 278.742188 168.140625 C 277.671875 169.308594 276.429688 170.25 275.019531 170.96875 C 273.601562 171.679688 272.097656 172.027344 270.515625 172.011719 C 269.359375 172.0625 268.246094 171.875 267.167969 171.453125 C 266.09375 171.03125 265.148438 170.414062 264.335938 169.59375 C 263.496094 168.59375 262.886719 167.472656 262.503906 166.222656 C 262.121094 164.976562 262 163.707031 262.136719 162.410156 C 262.042969 161.15625 262.191406 159.933594 262.585938 158.738281 C 262.980469 157.546875 263.585938 156.472656 264.410156 155.519531 Z M 95.359375 311.539062 C 98.671875 311.539062 101.890625 310.996094 105.023438 309.917969 C 108.15625 308.839844 111.027344 307.285156 113.636719 305.25 L 123.019531 314.628906 C 123.75 315.355469 124.632812 315.714844 125.664062 315.710938 C 126.679688 315.707031 127.546875 315.347656 128.269531 314.628906 C 128.621094 314.28125 128.890625 313.878906 129.082031 313.417969 C 129.273438 312.960938 129.371094 312.484375 129.371094 311.988281 C 129.371094 311.492188 129.273438 311.015625 129.082031 310.554688 C 128.890625 310.097656 128.621094 309.695312 128.269531 309.34375 L 118.925781 300 C 119.476562 299.289062 120 298.558594 120.488281 297.800781 C 120.972656 297.042969 121.425781 296.265625 121.84375 295.46875 C 122.261719 294.671875 122.640625 293.855469 122.984375 293.023438 C 123.328125 292.191406 123.632812 291.34375 123.898438 290.484375 C 124.164062 289.625 124.390625 288.753906 124.578125 287.871094 C 124.765625 286.992188 124.914062 286.105469 125.019531 285.210938 C 125.125 284.316406 125.191406 283.421875 125.21875 282.519531 C 125.242188 281.621094 125.226562 280.722656 125.171875 279.824219 C 125.117188 278.921875 125.019531 278.03125 124.882812 277.140625 C 124.746094 276.25 124.566406 275.367188 124.351562 274.496094 C 124.132812 273.621094 123.878906 272.757812 123.582031 271.90625 C 123.289062 271.058594 122.953125 270.222656 122.582031 269.402344 C 122.210938 268.582031 121.804688 267.78125 121.359375 266.996094 C 120.917969 266.210938 120.4375 265.449219 119.925781 264.710938 C 119.414062 263.972656 118.867188 263.257812 118.289062 262.566406 C 117.714844 261.875 117.105469 261.210938 116.46875 260.578125 C 115.777344 259.882812 115.054688 259.226562 114.300781 258.601562 C 113.542969 257.980469 112.761719 257.398438 111.949219 256.851562 C 111.136719 256.308594 110.300781 255.804688 109.4375 255.339844 C 108.574219 254.878906 107.691406 254.460938 106.789062 254.085938 C 105.886719 253.710938 104.964844 253.378906 104.03125 253.09375 C 103.09375 252.808594 102.144531 252.570312 101.1875 252.378906 C 100.226562 252.1875 99.261719 252.046875 98.289062 251.949219 C 97.3125 251.851562 96.335938 251.804688 95.359375 251.804688 C 94.382812 251.804688 93.40625 251.851562 92.433594 251.949219 C 91.457031 252.046875 90.492188 252.1875 89.53125 252.378906 C 88.574219 252.570312 87.625 252.808594 86.691406 253.09375 C 85.753906 253.378906 84.832031 253.710938 83.929688 254.085938 C 83.027344 254.460938 82.144531 254.878906 81.28125 255.339844 C 80.421875 255.804688 79.582031 256.308594 78.769531 256.851562 C 77.957031 257.398438 77.175781 257.980469 76.417969 258.601562 C 75.664062 259.226562 74.941406 259.882812 74.25 260.578125 C 73.203125 261.609375 72.238281 262.71875 71.355469 263.894531 C 70.472656 265.074219 69.683594 266.308594 68.984375 267.605469 C 68.285156 268.898438 67.683594 270.238281 67.183594 271.621094 C 66.679688 273.007812 66.285156 274.417969 65.992188 275.863281 C 65.703125 277.304688 65.519531 278.761719 65.445312 280.230469 C 65.367188 281.703125 65.402344 283.167969 65.542969 284.632812 C 65.683594 286.097656 65.933594 287.546875 66.292969 288.972656 C 66.648438 290.402344 67.109375 291.796875 67.671875 293.15625 C 68.234375 294.515625 68.894531 295.824219 69.652344 297.089844 C 70.410156 298.351562 71.257812 299.550781 72.191406 300.6875 C 73.125 301.820312 74.140625 302.882812 75.234375 303.871094 C 76.328125 304.855469 77.484375 305.753906 78.710938 306.570312 C 79.9375 307.382812 81.21875 308.101562 82.550781 308.726562 C 83.882812 309.351562 85.253906 309.875 86.664062 310.296875 C 88.074219 310.71875 89.507812 311.03125 90.964844 311.242188 C 92.421875 311.449219 93.886719 311.550781 95.359375 311.539062 Z M 79.5 265.675781 C 80.019531 265.164062 80.5625 264.675781 81.128906 264.214844 C 81.695312 263.753906 82.28125 263.320312 82.890625 262.917969 C 83.5 262.511719 84.125 262.140625 84.769531 261.800781 C 85.417969 261.457031 86.078125 261.148438 86.753906 260.871094 C 87.429688 260.59375 88.117188 260.351562 88.816406 260.140625 C 89.515625 259.929688 90.222656 259.753906 90.941406 259.613281 C 91.65625 259.476562 92.378906 259.371094 93.105469 259.300781 C 93.832031 259.230469 94.5625 259.195312 95.292969 259.199219 C 96.019531 259.203125 96.75 259.238281 97.476562 259.3125 C 98.203125 259.386719 98.925781 259.496094 99.640625 259.640625 C 100.355469 259.78125 101.0625 259.960938 101.761719 260.175781 C 102.460938 260.390625 103.144531 260.636719 103.820312 260.917969 C 104.496094 261.199219 105.152344 261.511719 105.796875 261.855469 C 106.441406 262.203125 107.066406 262.578125 107.671875 262.984375 C 108.277344 263.390625 108.863281 263.828125 109.425781 264.292969 C 109.992188 264.753906 110.53125 265.246094 111.046875 265.761719 C 111.5625 266.28125 112.050781 266.820312 112.511719 267.386719 C 112.976562 267.949219 113.410156 268.539062 113.816406 269.144531 C 114.21875 269.753906 114.59375 270.378906 114.9375 271.023438 C 115.28125 271.667969 115.59375 272.328125 115.871094 273 C 116.152344 273.675781 116.394531 274.363281 116.609375 275.0625 C 116.820312 275.761719 116.996094 276.46875 117.140625 277.183594 C 117.28125 277.902344 117.386719 278.625 117.460938 279.351562 C 117.53125 280.078125 117.566406 280.804688 117.566406 281.535156 C 117.566406 282.265625 117.53125 282.996094 117.460938 283.722656 C 117.386719 284.449219 117.28125 285.167969 117.140625 285.886719 C 116.996094 286.601562 116.820312 287.308594 116.609375 288.007812 C 116.394531 288.707031 116.152344 289.394531 115.871094 290.070312 C 115.59375 290.742188 115.28125 291.402344 114.9375 292.046875 C 114.59375 292.691406 114.21875 293.316406 113.816406 293.925781 C 113.410156 294.535156 112.976562 295.121094 112.511719 295.683594 C 112.050781 296.25 111.5625 296.789062 111.046875 297.308594 C 110.53125 297.824219 109.992188 298.316406 109.425781 298.78125 C 108.863281 299.242188 108.277344 299.679688 107.671875 300.085938 C 107.066406 300.492188 106.441406 300.867188 105.796875 301.214844 C 105.152344 301.558594 104.496094 301.875 103.820312 302.152344 C 103.144531 302.433594 102.460938 302.683594 101.761719 302.894531 C 101.0625 303.109375 100.355469 303.289062 99.640625 303.433594 C 98.925781 303.578125 98.203125 303.683594 97.476562 303.757812 C 96.75 303.832031 96.019531 303.871094 95.292969 303.871094 C 94.5625 303.875 93.832031 303.839844 93.105469 303.769531 C 92.378906 303.699219 91.65625 303.597656 90.941406 303.457031 C 90.222656 303.316406 89.515625 303.140625 88.816406 302.929688 C 88.117188 302.722656 87.429688 302.476562 86.753906 302.199219 C 86.078125 301.921875 85.417969 301.613281 84.769531 301.273438 C 84.125 300.929688 83.5 300.558594 82.890625 300.152344 C 82.28125 299.75 81.695312 299.316406 81.128906 298.855469 C 80.5625 298.394531 80.019531 297.910156 79.5 297.394531 C 78.980469 296.875 78.484375 296.335938 78.015625 295.765625 C 77.546875 295.199219 77.105469 294.613281 76.695312 294 C 76.285156 293.390625 75.90625 292.761719 75.558594 292.113281 C 75.210938 291.46875 74.894531 290.804688 74.613281 290.125 C 74.328125 289.445312 74.078125 288.753906 73.867188 288.050781 C 73.652344 287.347656 73.472656 286.636719 73.328125 285.914062 C 73.183594 285.195312 73.074219 284.46875 73.003906 283.734375 C 72.929688 283.003906 72.894531 282.269531 72.894531 281.535156 C 72.894531 280.800781 72.929688 280.066406 73.003906 279.335938 C 73.074219 278.601562 73.183594 277.875 73.328125 277.15625 C 73.472656 276.433594 73.652344 275.722656 73.867188 275.019531 C 74.078125 274.316406 74.328125 273.625 74.613281 272.945312 C 74.894531 272.265625 75.210938 271.601562 75.558594 270.957031 C 75.90625 270.308594 76.285156 269.679688 76.695312 269.070312 C 77.105469 268.457031 77.546875 267.871094 78.015625 267.304688 C 78.484375 266.738281 78.980469 266.195312 79.5 265.675781 Z M 95.359375 295.085938 C 96.699219 295.082031 98.007812 294.886719 99.285156 294.496094 C 100.566406 294.105469 101.761719 293.539062 102.871094 292.792969 C 103.984375 292.046875 104.964844 291.160156 105.8125 290.125 C 106.660156 289.089844 107.339844 287.953125 107.851562 286.71875 C 108.363281 285.480469 108.683594 284.195312 108.816406 282.867188 C 108.949219 281.535156 108.882812 280.210938 108.621094 278.898438 C 108.363281 277.585938 107.917969 276.339844 107.289062 275.160156 C 106.660156 273.980469 105.871094 272.914062 104.925781 271.96875 C 104.289062 271.355469 103.597656 270.808594 102.855469 270.328125 C 102.109375 269.847656 101.328125 269.445312 100.507812 269.113281 C 99.6875 268.785156 98.839844 268.535156 97.972656 268.367188 C 97.101562 268.199219 96.226562 268.113281 95.339844 268.113281 C 94.457031 268.113281 93.578125 268.199219 92.710938 268.367188 C 91.839844 268.535156 90.996094 268.785156 90.175781 269.113281 C 89.355469 269.445312 88.570312 269.847656 87.828125 270.328125 C 87.085938 270.808594 86.394531 271.355469 85.753906 271.96875 C 84.808594 272.917969 84.019531 273.980469 83.390625 275.164062 C 82.761719 276.347656 82.316406 277.59375 82.058594 278.910156 C 81.796875 280.222656 81.734375 281.546875 81.867188 282.878906 C 82 284.210938 82.324219 285.496094 82.835938 286.734375 C 83.351562 287.972656 84.035156 289.105469 84.882812 290.140625 C 85.734375 291.175781 86.71875 292.066406 87.832031 292.808594 C 88.945312 293.550781 90.144531 294.117188 91.425781 294.503906 C 92.710938 294.894531 94.019531 295.085938 95.359375 295.085938 Z M 90.890625 277.367188 C 91.175781 277.082031 91.484375 276.828125 91.816406 276.605469 C 92.152344 276.382812 92.503906 276.195312 92.875 276.042969 C 93.242188 275.890625 93.625 275.773438 94.019531 275.695312 C 94.410156 275.617188 94.808594 275.578125 95.210938 275.578125 C 95.609375 275.578125 96.007812 275.617188 96.398438 275.695312 C 96.792969 275.773438 97.175781 275.890625 97.546875 276.042969 C 97.914062 276.199219 98.265625 276.386719 98.601562 276.609375 C 98.933594 276.832031 99.242188 277.085938 99.527344 277.367188 C 99.808594 277.652344 100.0625 277.960938 100.285156 278.292969 C 100.507812 278.625 100.695312 278.976562 100.847656 279.347656 C 101.003906 279.71875 101.117188 280.101562 101.195312 280.492188 C 101.273438 280.886719 101.3125 281.285156 101.3125 281.683594 C 101.3125 282.085938 101.273438 282.480469 101.195312 282.875 C 101.117188 283.269531 101.003906 283.648438 100.847656 284.019531 C 100.695312 284.390625 100.507812 284.742188 100.285156 285.074219 C 100.0625 285.410156 99.808594 285.71875 99.527344 286 C 99.242188 286.285156 98.933594 286.539062 98.601562 286.761719 C 98.265625 286.984375 97.914062 287.171875 97.546875 287.324219 C 97.175781 287.476562 96.792969 287.59375 96.398438 287.671875 C 96.007812 287.75 95.609375 287.789062 95.210938 287.789062 C 94.808594 287.789062 94.410156 287.75 94.019531 287.671875 C 93.625 287.59375 93.242188 287.480469 92.875 287.324219 C 92.503906 287.171875 92.152344 286.984375 91.816406 286.761719 C 91.484375 286.539062 91.175781 286.285156 90.890625 286.003906 C 90.605469 285.71875 90.351562 285.414062 90.125 285.078125 C 89.902344 284.746094 89.710938 284.394531 89.558594 284.023438 C 89.402344 283.652344 89.285156 283.273438 89.207031 282.878906 C 89.125 282.484375 89.085938 282.085938 89.085938 281.683594 C 89.085938 281.28125 89.125 280.886719 89.207031 280.492188 C 89.285156 280.097656 89.402344 279.714844 89.558594 279.34375 C 89.710938 278.972656 89.902344 278.621094 90.125 278.289062 C 90.351562 277.957031 90.605469 277.648438 90.890625 277.367188 Z M 90.890625 277.367188 " fill-opacity="1" fill-rule="nonzero"/></g></svg>