<svg xmlns="http://www.w3.org/2000/svg" xmlns:xlink="http://www.w3.org/1999/xlink" width="500" zoomAndPan="magnify" viewBox="0 0 375 374.999991" height="500" preserveAspectRatio="xMidYMid meet" version="1.0"><defs><clipPath id="71ff4285d6"><path d="M 12.484375 8 L 322 8 L 322 318 L 12.484375 318 Z M 12.484375 8 " clip-rule="nonzero"/></clipPath></defs><path fill="#00f3f7" d="M 202.714844 255.648438 L 245.632812 212.730469 C 238.707031 209.515625 230.171875 210.628906 224.480469 216.316406 L 193.808594 246.992188 L 202.589844 255.773438 Z M 281.375 237.09375 C 276.429688 237.09375 271.730469 239.074219 268.265625 242.539062 C 261.09375 249.710938 261.09375 261.585938 268.265625 268.757812 C 275.441406 275.933594 287.3125 275.933594 294.488281 268.757812 C 301.660156 261.585938 301.660156 249.710938 294.488281 242.539062 C 291.023438 239.074219 286.324219 237.09375 281.375 237.09375 Z M 281.375 286.570312 C 273.460938 286.570312 265.542969 283.601562 259.484375 277.539062 C 247.488281 265.417969 247.488281 245.878906 259.484375 233.757812 C 271.480469 221.636719 291.519531 222.128906 303.269531 233.757812 C 315.019531 245.382812 315.265625 265.417969 303.269531 277.539062 C 297.207031 283.601562 289.292969 286.570312 281.375 286.570312 Z M 228.933594 281.871094 L 220.152344 290.652344 L 246.375 316.871094 L 255.15625 308.089844 Z M 220.152344 255.648438 L 281.375 316.871094 L 312.050781 286.199219 C 336.910156 261.335938 349.402344 226.085938 345.816406 191.207031 C 310.9375 187.621094 275.6875 200.113281 250.828125 224.972656 Z M 281.375 334.3125 L 290.15625 343.09375 L 320.832031 312.417969 C 324.296875 308.957031 326.273438 304.257812 326.273438 299.308594 C 326.273438 296.464844 325.65625 293.742188 324.417969 291.269531 Z M 217.554688 305.492188 L 231.40625 319.347656 L 231.40625 346.433594 L 183.664062 353.234375 L 190.46875 305.492188 Z M 205.804688 293.125 C 205.433594 292.257812 205.1875 291.394531 205.1875 290.527344 C 205.1875 288.917969 205.804688 287.3125 207.042969 286.199219 L 220.152344 273.085938 L 211.371094 264.304688 L 207.042969 268.636719 C 205.929688 269.75 204.320312 270.492188 202.714844 270.492188 C 201.105469 270.492188 199.496094 269.871094 198.382812 268.636719 L 180.820312 251.195312 C 178.472656 248.722656 178.472656 244.886719 180.820312 242.414062 L 215.824219 207.410156 C 226.707031 196.527344 243.777344 195.539062 255.773438 204.195312 C 283.109375 183.664062 317.988281 174.511719 352.246094 179.457031 C 354.96875 179.828125 357.070312 181.933594 357.566406 184.652344 C 362.511719 218.789062 353.238281 253.667969 332.707031 281.128906 C 336.539062 286.320312 338.640625 292.628906 338.640625 299.308594 C 338.640625 307.597656 335.425781 315.265625 329.613281 321.199219 L 294.609375 356.203125 C 293.375 357.441406 291.765625 358.058594 290.28125 358.058594 C 288.796875 358.058594 287.066406 357.441406 285.953125 356.203125 L 268.390625 338.765625 C 267.277344 337.652344 266.535156 336.042969 266.535156 334.433594 C 266.535156 332.828125 267.152344 331.21875 268.390625 330.105469 L 272.71875 325.777344 L 263.9375 316.996094 L 250.828125 330.105469 C 249.714844 331.21875 248.105469 331.960938 246.496094 331.960938 C 245.632812 331.960938 244.765625 331.714844 243.898438 331.46875 L 243.898438 352.121094 C 243.898438 355.214844 241.671875 357.8125 238.582031 358.304688 L 177.359375 367.089844 C 177.359375 367.089844 176.738281 367.089844 176.492188 367.089844 C 174.882812 367.089844 173.277344 366.46875 172.164062 365.234375 C 170.800781 363.871094 170.183594 361.894531 170.429688 360.039062 L 179.214844 298.8125 C 179.707031 295.722656 182.304688 293.496094 185.398438 293.496094 L 206.050781 293.496094 Z M 205.804688 293.125 " fill-opacity="1" fill-rule="evenodd"/><g clip-path="url(#71ff4285d6)"><path fill="#00f3f7" d="M 68.144531 45.261719 L 43.40625 45.261719 C 39.945312 45.261719 37.222656 42.539062 37.222656 39.078125 C 37.222656 35.613281 39.945312 32.890625 43.40625 32.890625 L 68.144531 32.890625 C 71.609375 32.890625 74.328125 35.613281 74.328125 39.078125 C 74.328125 42.539062 71.609375 45.261719 68.144531 45.261719 Z M 266.039062 32.890625 C 269.503906 32.890625 272.222656 35.613281 272.222656 39.078125 C 272.222656 42.539062 269.503906 45.261719 266.039062 45.261719 C 262.578125 45.261719 259.855469 42.539062 259.855469 39.078125 C 259.855469 35.613281 262.578125 32.890625 266.039062 32.890625 Z M 290.777344 32.890625 C 294.238281 32.890625 296.960938 35.613281 296.960938 39.078125 C 296.960938 42.539062 294.238281 45.261719 290.777344 45.261719 C 287.3125 45.261719 284.59375 42.539062 284.59375 39.078125 C 284.59375 35.613281 287.3125 32.890625 290.777344 32.890625 Z M 24.855469 57.628906 L 309.328125 57.628906 L 309.328125 20.523438 L 24.855469 20.523438 Z M 18.671875 107.101562 C 22.132812 107.101562 24.855469 109.824219 24.855469 113.289062 C 24.855469 116.75 22.132812 119.472656 18.671875 119.472656 C 15.207031 119.472656 12.484375 116.75 12.484375 113.289062 C 12.484375 109.824219 15.207031 107.101562 18.671875 107.101562 Z M 155.464844 153.484375 L 135.304688 141.363281 C 140.003906 135.425781 147.179688 131.839844 154.847656 131.839844 C 163.011719 131.839844 170.429688 135.796875 175.007812 142.351562 Z M 321.699219 150.394531 C 321.699219 153.855469 318.976562 156.578125 315.511719 156.578125 C 312.050781 156.578125 309.328125 153.855469 309.328125 150.394531 L 309.328125 69.996094 L 24.855469 69.996094 L 24.855469 88.550781 C 24.855469 92.011719 22.132812 94.734375 18.671875 94.734375 C 15.207031 94.734375 12.484375 92.011719 12.484375 88.550781 L 12.484375 14.339844 C 12.484375 10.875 15.207031 8.15625 18.671875 8.15625 L 315.511719 8.15625 C 318.976562 8.15625 321.699219 10.875 321.699219 14.339844 Z M 272.222656 150.394531 L 272.222656 107.101562 L 61.960938 107.101562 L 61.960938 164.246094 L 114.402344 132.707031 C 116.382812 131.59375 118.855469 131.59375 120.710938 132.707031 L 124.421875 134.933594 C 131.347656 125.410156 142.601562 119.472656 154.601562 119.472656 C 167.214844 119.472656 178.84375 125.78125 185.644531 136.167969 L 213.472656 120.335938 C 215.328125 119.222656 217.679688 119.222656 219.65625 120.335938 Z M 272.222656 164.617188 L 272.222656 168.945312 L 181.191406 168.945312 L 167.585938 160.78125 L 216.566406 132.828125 Z M 78.164062 168.945312 L 157.195312 168.945312 L 117.742188 145.199219 L 78.285156 168.945312 Z M 284.59375 100.917969 L 284.59375 175.128906 C 284.59375 178.59375 281.871094 181.3125 278.40625 181.3125 L 55.777344 181.3125 C 52.3125 181.3125 49.589844 178.59375 49.589844 175.128906 L 49.589844 100.917969 C 49.589844 97.457031 52.3125 94.734375 55.777344 94.734375 L 278.40625 94.734375 C 281.871094 94.734375 284.59375 97.457031 284.59375 100.917969 Z M 154.722656 218.417969 L 142.355469 218.417969 C 138.890625 218.417969 136.171875 215.699219 136.171875 212.234375 C 136.171875 208.773438 138.890625 206.050781 142.355469 206.050781 L 154.722656 206.050781 C 158.1875 206.050781 160.90625 208.773438 160.90625 212.234375 C 160.90625 215.699219 158.1875 218.417969 154.722656 218.417969 Z M 154.722656 249.339844 L 142.355469 249.339844 C 138.890625 249.339844 136.171875 246.621094 136.171875 243.15625 C 136.171875 239.691406 138.890625 236.972656 142.355469 236.972656 L 154.722656 236.972656 C 158.1875 236.972656 160.90625 239.691406 160.90625 243.15625 C 160.90625 246.621094 158.1875 249.339844 154.722656 249.339844 Z M 61.960938 267.894531 L 111.433594 267.894531 L 111.433594 218.417969 L 61.960938 218.417969 Z M 117.617188 280.261719 L 55.777344 280.261719 C 52.3125 280.261719 49.589844 277.539062 49.589844 274.078125 L 49.589844 212.234375 C 49.589844 208.773438 52.3125 206.050781 55.777344 206.050781 L 117.617188 206.050781 C 121.082031 206.050781 123.800781 208.773438 123.800781 212.234375 L 123.800781 274.078125 C 123.800781 277.539062 121.082031 280.261719 117.617188 280.261719 Z M 154.722656 280.261719 L 142.355469 280.261719 C 138.890625 280.261719 136.171875 277.539062 136.171875 274.078125 C 136.171875 270.613281 138.890625 267.894531 142.355469 267.894531 L 154.722656 267.894531 C 158.1875 267.894531 160.90625 270.613281 160.90625 274.078125 C 160.90625 277.539062 158.1875 280.261719 154.722656 280.261719 Z M 154.722656 317.367188 L 18.671875 317.367188 C 15.207031 317.367188 12.484375 314.644531 12.484375 311.183594 L 12.484375 138.023438 C 12.484375 134.5625 15.207031 131.839844 18.671875 131.839844 C 22.132812 131.839844 24.855469 134.5625 24.855469 138.023438 L 24.855469 305 L 154.722656 305 C 158.1875 305 160.90625 307.71875 160.90625 311.183594 C 160.90625 314.644531 158.1875 317.367188 154.722656 317.367188 Z M 154.722656 317.367188 " fill-opacity="1" fill-rule="evenodd"/></g></svg>