<svg xmlns="http://www.w3.org/2000/svg" xmlns:xlink="http://www.w3.org/1999/xlink" width="500" zoomAndPan="magnify" viewBox="0 0 375 374.999991" height="500" preserveAspectRatio="xMidYMid meet" version="1.0"><defs><clipPath id="9191d0f0cd"><path d="M 17 110 L 272 110 L 272 363.589844 L 17 363.589844 Z M 17 110 " clip-rule="nonzero"/></clipPath><clipPath id="f07540ac48"><path d="M 257 11.089844 L 324 11.089844 L 324 78 L 257 78 Z M 257 11.089844 " clip-rule="nonzero"/></clipPath><clipPath id="9a029e2916"><path d="M 327 20 L 370.730469 20 L 370.730469 128 L 327 128 Z M 327 20 " clip-rule="nonzero"/></clipPath></defs><g clip-path="url(#9191d0f0cd)"><path fill="#00f3f7" d="M 228.839844 243.730469 C 226.636719 241.523438 223.328125 241.523438 221.121094 243.730469 L 185.289062 279.5625 C 162.964844 301.886719 126.027344 301.335938 102.875 278.460938 C 80.824219 256.410156 79.445312 218.371094 101.773438 196.042969 C 101.773438 196.042969 137.605469 160.210938 137.605469 160.210938 C 139.808594 158.003906 139.808594 154.699219 137.605469 152.492188 L 96.808594 111.972656 C 94.605469 109.769531 91.023438 109.769531 89.09375 111.972656 L 53.257812 147.808594 C 4.746094 196.320312 5.851562 276.253906 55.464844 325.867188 C 80.824219 351.226562 113.625 363.90625 146.425781 363.90625 C 178.125 363.90625 209.546875 352.054688 233.527344 328.074219 C 233.527344 328.074219 269.359375 292.242188 269.359375 292.242188 C 271.566406 290.035156 271.566406 286.453125 269.359375 284.523438 C 269.359375 284.523438 228.839844 244.003906 228.839844 243.730469 Z M 228.839844 243.730469 " fill-opacity="1" fill-rule="nonzero"/></g><path fill="#00f3f7" d="M 130.4375 121.347656 C 131.816406 121.347656 133.195312 120.792969 134.296875 119.691406 L 151.386719 102.601562 L 153.867188 110.597656 C 154.417969 112.527344 155.796875 113.902344 157.726562 114.453125 C 159.65625 115.007812 161.585938 114.453125 162.964844 113.078125 L 189.425781 86.617188 C 191.628906 84.410156 191.628906 81.101562 189.425781 78.898438 C 187.21875 76.691406 183.910156 76.691406 181.707031 78.898438 L 161.585938 99.019531 L 159.105469 91.027344 C 158.554688 89.097656 157.175781 87.71875 155.246094 87.167969 C 153.316406 86.617188 151.386719 87.167969 150.007812 88.546875 C 150.007812 88.546875 126.578125 111.972656 126.578125 111.972656 C 122.996094 115.28125 125.476562 121.347656 130.4375 121.347656 Z M 130.4375 121.347656 " fill-opacity="1" fill-rule="nonzero"/><path fill="#00f3f7" d="M 294.71875 191.910156 L 268.257812 218.371094 C 266.878906 219.75 266.328125 221.679688 266.878906 223.609375 C 267.429688 225.535156 268.808594 226.914062 270.738281 227.464844 L 278.730469 229.945312 L 261.640625 247.035156 C 259.4375 249.242188 259.4375 252.550781 261.640625 254.753906 C 263.847656 256.960938 267.429688 256.960938 269.359375 254.753906 L 292.789062 231.324219 C 294.167969 229.945312 294.71875 228.019531 294.167969 226.089844 C 293.617188 224.160156 292.238281 222.78125 290.308594 222.230469 L 282.3125 219.75 L 302.4375 199.628906 C 304.640625 197.421875 304.640625 194.113281 302.4375 191.910156 C 300.230469 189.703125 296.921875 189.703125 294.71875 191.910156 Z M 294.71875 191.910156 " fill-opacity="1" fill-rule="nonzero"/><path fill="#00f3f7" d="M 345.710938 98.46875 C 344.882812 93.230469 340.199219 88.820312 334.410156 87.992188 L 310.152344 84.136719 C 309.601562 84.136719 309.328125 83.859375 309.050781 83.859375 C 305.742188 85.511719 302.160156 86.617188 298.300781 87.441406 C 299.957031 91.578125 303.8125 94.332031 308.5 95.160156 L 332.757812 99.019531 C 333.859375 99.292969 334.683594 99.847656 334.683594 100.121094 L 338.820312 126.859375 L 241.519531 126.859375 L 245.65625 100.121094 C 245.65625 99.847656 246.207031 99.292969 247.582031 99.019531 L 271.839844 95.160156 C 276.527344 94.332031 280.386719 91.578125 282.039062 87.441406 C 278.179688 86.617188 274.597656 85.511719 271.289062 83.859375 C 271.011719 84.136719 270.738281 84.136719 270.1875 84.136719 L 246.207031 88.269531 C 240.417969 89.097656 235.730469 93.230469 234.90625 98.46875 L 229.667969 131.542969 C 229.390625 133.199219 229.941406 134.851562 231.046875 135.953125 C 232.148438 137.058594 233.527344 137.882812 235.179688 137.882812 L 345.433594 137.882812 C 347.089844 137.882812 348.46875 137.058594 349.570312 135.953125 C 350.671875 134.851562 350.949219 133.199219 350.949219 131.542969 Z M 345.710938 98.46875 " fill-opacity="1" fill-rule="nonzero"/><g clip-path="url(#f07540ac48)"><path fill="#00f3f7" d="M 290.308594 77.242188 C 308.5 77.242188 323.382812 62.359375 323.382812 44.167969 C 323.382812 25.976562 308.5 11.089844 290.308594 11.089844 C 272.117188 11.089844 257.230469 25.976562 257.230469 44.167969 C 257.230469 62.359375 272.117188 77.242188 290.308594 77.242188 Z M 290.308594 77.242188 " fill-opacity="1" fill-rule="nonzero"/></g><path fill="#00f3f7" d="M 222.777344 104.808594 C 221.949219 100.398438 221.398438 95.710938 221.398438 91.027344 C 221.398438 69.527344 231.320312 50.230469 246.757812 37.828125 C 247.582031 31.488281 250.066406 25.425781 253.371094 20.1875 C 227.738281 33.691406 210.371094 60.152344 210.371094 91.027344 C 210.371094 104.257812 213.679688 116.382812 219.191406 127.410156 Z M 222.777344 104.808594 " fill-opacity="1" fill-rule="nonzero"/><g clip-path="url(#9a029e2916)"><path fill="#00f3f7" d="M 327.242188 20.1875 C 330.550781 25.425781 333.03125 31.210938 333.859375 37.550781 C 349.292969 50.230469 359.21875 69.527344 359.21875 91.027344 C 359.21875 95.710938 358.664062 100.398438 357.839844 104.808594 L 361.421875 127.410156 C 366.933594 116.382812 370.242188 103.980469 370.242188 91.027344 C 370.242188 60.152344 352.878906 33.417969 327.242188 20.1875 Z M 327.242188 20.1875 " fill-opacity="1" fill-rule="nonzero"/></g><path fill="#00f3f7" d="M 290.308594 159.933594 C 276.527344 159.933594 263.847656 155.800781 253.097656 148.910156 L 235.179688 148.910156 C 249.511719 162.414062 268.808594 170.960938 290.308594 170.960938 C 311.808594 170.960938 331.101562 162.691406 345.433594 148.910156 L 327.792969 148.910156 C 316.769531 155.800781 304.089844 159.933594 290.308594 159.933594 Z M 290.308594 159.933594 " fill-opacity="1" fill-rule="nonzero"/></svg>