<svg xmlns="http://www.w3.org/2000/svg" xmlns:xlink="http://www.w3.org/1999/xlink" width="500" zoomAndPan="magnify" viewBox="0 0 375 374.999991" height="500" preserveAspectRatio="xMidYMid meet" version="1.0"><defs><clipPath id="0e41703137"><path d="M 218 4.507812 L 355 4.507812 L 355 117 L 218 117 Z M 218 4.507812 " clip-rule="nonzero"/></clipPath><clipPath id="fb1666c342"><path d="M 255 178 L 367.480469 178 L 367.480469 272 L 255 272 Z M 255 178 " clip-rule="nonzero"/></clipPath><clipPath id="791532d3d7"><path d="M 106 97 L 269 97 L 269 370.507812 L 106 370.507812 Z M 106 97 " clip-rule="nonzero"/></clipPath><clipPath id="a5768d7f3f"><path d="M 7.480469 153 L 145 153 L 145 266 L 7.480469 266 Z M 7.480469 153 " clip-rule="nonzero"/></clipPath><clipPath id="e5d2bf8c13"><path d="M 20 4.507812 L 132 4.507812 L 132 98 L 20 98 Z M 20 4.507812 " clip-rule="nonzero"/></clipPath></defs><path fill="#00f3f7" d="M 292.949219 29.320312 L 280.542969 29.320312 C 273.710938 29.320312 268.136719 34.890625 268.136719 41.726562 L 305.355469 41.726562 C 305.355469 34.890625 299.78125 29.320312 292.949219 29.320312 " fill-opacity="1" fill-rule="nonzero"/><path fill="#00f3f7" d="M 275.964844 92.753906 L 286.746094 106.226562 L 297.527344 92.753906 C 294.0625 91.859375 290.453125 91.347656 286.746094 91.347656 C 283.039062 91.347656 279.429688 91.859375 275.964844 92.753906 " fill-opacity="1" fill-rule="nonzero"/><path fill="#00f3f7" d="M 244.246094 126.023438 C 255.902344 135.351562 270.65625 140.972656 286.746094 140.972656 C 302.835938 140.972656 317.59375 135.351562 329.246094 126.023438 C 326.800781 114.003906 319.433594 103.902344 309.425781 97.746094 L 286.746094 126.097656 L 264.066406 97.746094 C 254.058594 103.902344 246.695312 114.003906 244.246094 126.023438 " fill-opacity="1" fill-rule="nonzero"/><g clip-path="url(#0e41703137)"><path fill="#00f3f7" d="M 265.8125 83.0625 C 259.65625 77.390625 255.730469 69.347656 255.730469 60.335938 L 255.730469 41.726562 C 255.730469 28.035156 266.851562 16.914062 280.542969 16.914062 L 292.949219 16.914062 C 306.640625 16.914062 317.761719 28.035156 317.761719 41.726562 L 317.761719 60.335938 C 317.761719 69.347656 313.835938 77.390625 307.679688 83.0625 C 322.339844 89.023438 333.972656 101.015625 339.351562 116.160156 C 349.089844 104.359375 354.980469 89.21875 354.980469 72.742188 C 354.980469 35.109375 324.375 4.507812 286.746094 4.507812 C 249.117188 4.507812 218.511719 35.109375 218.511719 72.742188 C 218.511719 89.21875 224.402344 104.359375 234.140625 116.160156 C 239.519531 101.015625 251.152344 89.023438 265.8125 83.0625 " fill-opacity="1" fill-rule="nonzero"/></g><path fill="#00f3f7" d="M 268.136719 60.335938 C 268.136719 70.609375 276.472656 78.941406 286.746094 78.941406 C 297.019531 78.941406 305.355469 70.609375 305.355469 60.335938 L 305.355469 54.132812 L 268.136719 54.132812 L 268.136719 60.335938 " fill-opacity="1" fill-rule="nonzero"/><path fill="#00f3f7" d="M 330.167969 221.613281 C 330.167969 211.339844 321.832031 203.003906 311.558594 203.003906 C 301.285156 203.003906 292.949219 211.339844 292.949219 221.613281 C 292.949219 231.886719 301.285156 240.222656 311.558594 240.222656 C 321.832031 240.222656 330.167969 231.886719 330.167969 221.613281 " fill-opacity="1" fill-rule="nonzero"/><path fill="#00f3f7" d="M 330.144531 258.976562 C 330.070312 269.175781 321.785156 277.4375 311.558594 277.4375 C 301.332031 277.4375 293.046875 269.175781 292.972656 258.976562 C 286.238281 264.0625 281.730469 271.769531 280.859375 280.589844 C 289.652344 286.429688 300.21875 289.84375 311.558594 289.84375 C 322.898438 289.84375 333.460938 286.429688 342.257812 280.589844 C 341.386719 271.769531 336.878906 264.0625 330.144531 258.976562 " fill-opacity="1" fill-rule="nonzero"/><path fill="#00f3f7" d="M 305.355469 253.257812 L 305.355469 258.832031 C 305.355469 262.246094 308.140625 265.03125 311.558594 265.03125 C 314.976562 265.03125 317.761719 262.246094 317.761719 258.832031 L 317.761719 253.257812 C 315.75 252.84375 313.691406 252.628906 311.558594 252.628906 C 309.425781 252.628906 307.367188 252.84375 305.355469 253.257812 " fill-opacity="1" fill-rule="nonzero"/><g clip-path="url(#fb1666c342)"><path fill="#00f3f7" d="M 311.558594 178.191406 C 280.761719 178.191406 255.730469 203.246094 255.730469 234.019531 C 255.730469 248.289062 261.160156 261.277344 269.980469 271.140625 C 273.394531 259.847656 281.269531 250.496094 291.566406 245.140625 C 284.878906 239.445312 280.542969 231.0625 280.542969 221.613281 C 280.542969 204.503906 294.453125 190.597656 311.558594 190.597656 C 328.664062 190.597656 342.574219 204.503906 342.574219 221.613281 C 342.574219 231.0625 338.234375 239.445312 331.546875 245.140625 C 341.847656 250.496094 349.722656 259.847656 353.136719 271.140625 C 361.957031 261.277344 367.386719 248.289062 367.386719 234.019531 C 367.386719 203.246094 342.355469 178.191406 311.558594 178.191406 " fill-opacity="1" fill-rule="nonzero"/></g><g clip-path="url(#791532d3d7)"><path fill="#00f3f7" d="M 255.730469 314.65625 L 230.917969 314.65625 C 210.394531 314.65625 193.703125 331.351562 193.703125 351.875 L 193.703125 274.75 L 244.199219 244.4375 C 243.6875 241.046875 243.324219 237.578125 243.324219 234.019531 C 243.324219 232.78125 243.445312 231.59375 243.519531 230.382812 L 193.703125 260.285156 L 193.703125 150.277344 L 226.21875 125.902344 C 223.480469 122.777344 220.984375 119.480469 218.757812 115.96875 L 187.570312 139.375 L 133.246094 97.117188 C 131.015625 100.628906 128.449219 103.875 125.613281 106.90625 L 181.296875 150.203125 L 181.296875 260.285156 L 153.382812 243.539062 C 152.242188 247.636719 150.765625 251.585938 148.996094 255.363281 L 181.296875 274.75 L 181.296875 351.875 C 181.296875 331.351562 164.601562 314.65625 144.078125 314.65625 L 119.265625 314.65625 C 112.433594 314.65625 106.859375 320.230469 106.859375 327.0625 C 106.859375 347.585938 123.554688 364.28125 144.078125 364.28125 L 167.824219 364.28125 L 150.472656 352.140625 L 133.632812 357.761719 L 129.710938 345.988281 L 137.828125 343.273438 L 121.90625 332.152344 L 129.03125 321.976562 L 150.28125 336.851562 L 150.28125 327.0625 L 162.6875 327.0625 L 162.6875 345.550781 L 181.296875 358.5625 L 181.296875 370.484375 L 193.703125 370.484375 L 193.703125 358.5625 L 212.3125 345.550781 L 212.3125 327.0625 L 224.714844 327.0625 L 224.714844 336.851562 L 245.964844 321.976562 L 253.089844 332.152344 L 237.171875 343.273438 L 245.289062 345.988281 L 241.363281 357.761719 L 224.523438 352.140625 L 207.171875 364.28125 L 230.917969 364.28125 C 251.441406 364.28125 268.136719 347.585938 268.136719 327.0625 C 268.136719 320.230469 262.566406 314.65625 255.730469 314.65625 " fill-opacity="1" fill-rule="nonzero"/></g><path fill="#00f3f7" d="M 65.0625 241.625 L 75.84375 255.097656 L 86.628906 241.625 C 83.164062 240.730469 79.550781 240.222656 75.84375 240.222656 C 72.136719 240.222656 68.527344 240.730469 65.0625 241.625 " fill-opacity="1" fill-rule="nonzero"/><g clip-path="url(#a5768d7f3f)"><path fill="#00f3f7" d="M 54.910156 231.933594 C 48.753906 226.265625 44.828125 218.21875 44.828125 209.207031 L 44.828125 190.597656 C 44.828125 176.90625 55.953125 165.785156 69.640625 165.785156 L 82.046875 165.785156 C 95.738281 165.785156 106.859375 176.90625 106.859375 190.597656 L 106.859375 209.207031 C 106.859375 218.21875 102.933594 226.265625 96.78125 231.933594 C 111.4375 237.894531 123.070312 249.890625 128.449219 265.03125 C 138.191406 253.234375 144.078125 238.089844 144.078125 221.613281 C 144.078125 183.980469 113.476562 153.378906 75.84375 153.378906 C 38.214844 153.378906 7.613281 183.980469 7.613281 221.613281 C 7.613281 238.089844 13.5 253.234375 23.242188 265.03125 C 28.621094 249.890625 40.25 237.894531 54.910156 231.933594 " fill-opacity="1" fill-rule="nonzero"/></g><path fill="#00f3f7" d="M 98.523438 246.617188 L 75.84375 274.96875 L 53.164062 246.617188 C 43.15625 252.773438 35.792969 262.875 33.320312 274.894531 C 45 284.222656 59.753906 289.84375 75.84375 289.84375 C 91.933594 289.84375 106.691406 284.222656 118.34375 274.894531 C 115.898438 262.875 108.53125 252.773438 98.523438 246.617188 " fill-opacity="1" fill-rule="nonzero"/><path fill="#00f3f7" d="M 94.453125 209.207031 L 94.453125 203.003906 L 57.234375 203.003906 L 57.234375 209.207031 C 57.234375 219.480469 65.570312 227.816406 75.84375 227.816406 C 86.117188 227.816406 94.453125 219.480469 94.453125 209.207031 " fill-opacity="1" fill-rule="nonzero"/><path fill="#00f3f7" d="M 82.046875 178.191406 L 69.640625 178.191406 C 62.808594 178.191406 57.234375 183.765625 57.234375 190.597656 L 94.453125 190.597656 C 94.453125 183.765625 88.878906 178.191406 82.046875 178.191406 " fill-opacity="1" fill-rule="nonzero"/><g clip-path="url(#e5d2bf8c13)"><path fill="#00f3f7" d="M 55.855469 71.457031 C 49.167969 65.761719 44.828125 57.378906 44.828125 47.929688 C 44.828125 30.820312 58.738281 16.914062 75.84375 16.914062 C 92.953125 16.914062 106.859375 30.820312 106.859375 47.929688 C 106.859375 57.378906 102.523438 65.761719 95.835938 71.457031 C 106.132812 76.8125 114.007812 86.164062 117.425781 97.457031 C 126.242188 87.59375 131.671875 74.605469 131.671875 60.335938 C 131.671875 29.5625 106.640625 4.507812 75.84375 4.507812 C 45.070312 4.507812 20.019531 29.5625 20.019531 60.335938 C 20.019531 74.605469 25.445312 87.59375 34.289062 97.457031 C 37.683594 86.164062 45.558594 76.8125 55.855469 71.457031 " fill-opacity="1" fill-rule="nonzero"/></g><path fill="#00f3f7" d="M 45.144531 106.90625 C 53.941406 112.746094 64.503906 116.160156 75.84375 116.160156 C 87.183594 116.160156 97.75 112.746094 106.542969 106.90625 C 105.671875 98.085938 101.164062 90.378906 94.429688 85.292969 C 94.355469 95.492188 86.070312 103.753906 75.84375 103.753906 C 65.644531 103.753906 57.332031 95.492188 57.234375 85.292969 C 50.523438 90.378906 46.015625 98.085938 45.144531 106.90625 " fill-opacity="1" fill-rule="nonzero"/><path fill="#00f3f7" d="M 94.453125 47.929688 C 94.453125 37.65625 86.117188 29.320312 75.84375 29.320312 C 65.570312 29.320312 57.234375 37.65625 57.234375 47.929688 C 57.234375 58.203125 65.570312 66.539062 75.84375 66.539062 C 86.117188 66.539062 94.453125 58.203125 94.453125 47.929688 " fill-opacity="1" fill-rule="nonzero"/><path fill="#00f3f7" d="M 69.640625 79.574219 L 69.640625 85.144531 C 69.640625 88.5625 72.429688 91.347656 75.84375 91.347656 C 79.261719 91.347656 82.046875 88.5625 82.046875 85.144531 L 82.046875 79.574219 C 80.035156 79.160156 77.976562 78.941406 75.84375 78.941406 C 73.710938 78.941406 71.652344 79.160156 69.640625 79.574219 " fill-opacity="1" fill-rule="nonzero"/></svg>