<svg xmlns="http://www.w3.org/2000/svg" xmlns:xlink="http://www.w3.org/1999/xlink" width="500" zoomAndPan="magnify" viewBox="0 0 375 374.999991" height="500" preserveAspectRatio="xMidYMid meet" version="1.0"><defs><clipPath id="ff51d2682e"><path d="M 68 216 L 198 216 L 198 346.777344 L 68 346.777344 Z M 68 216 " clip-rule="nonzero"/></clipPath><clipPath id="baf0f0a486"><path d="M 263 104 L 370.460938 104 L 370.460938 213 L 263 213 Z M 263 104 " clip-rule="nonzero"/></clipPath></defs><path fill="#00f3f7" d="M 227.1875 179.523438 C 259.695312 146.6875 259.695312 93.550781 227.1875 60.859375 C 194.675781 28.027344 142.066406 28.027344 109.699219 60.859375 C 79.902344 90.8125 77.476562 137.902344 102.144531 170.738281 L 9.894531 263.910156 C 4.902344 268.949219 4.902344 277.160156 9.894531 282.199219 C 14.882812 287.238281 23.011719 287.238281 28.003906 282.199219 L 120.535156 188.738281 C 152.902344 211.921875 198.097656 208.898438 227.1875 179.523438 Z M 98.578125 120.191406 C 98.578125 81.164062 129.804688 49.628906 168.441406 49.628906 C 206.9375 49.628906 238.308594 81.164062 238.308594 120.191406 C 238.308594 159.21875 206.9375 190.753906 168.441406 190.753906 C 129.804688 190.753906 98.578125 159.21875 98.578125 120.191406 Z M 98.578125 120.191406 " fill-opacity="1" fill-rule="nonzero"/><path fill="#00f3f7" d="M 223.476562 153.601562 C 218.0625 144.527344 210.503906 136.894531 201.664062 131.425781 C 194.25 141.792969 182.128906 148.558594 168.441406 148.558594 C 154.753906 148.558594 142.636719 141.792969 135.222656 131.425781 C 126.238281 136.894531 118.683594 144.527344 113.265625 153.601562 C 124.527344 172.464844 145.058594 185.136719 168.445312 185.136719 C 191.824219 185.136719 212.214844 172.464844 223.476562 153.601562 Z M 223.476562 153.601562 " fill-opacity="1" fill-rule="nonzero"/><path fill="#00f3f7" d="M 168.441406 144.238281 C 188.6875 144.238281 204.941406 127.824219 204.941406 107.375 C 204.941406 86.925781 188.6875 70.363281 168.441406 70.363281 C 148.195312 70.363281 131.800781 86.925781 131.800781 107.375 C 131.800781 127.824219 148.195312 144.238281 168.441406 144.238281 Z M 168.441406 144.238281 " fill-opacity="1" fill-rule="nonzero"/><g clip-path="url(#ff51d2682e)"><path fill="#00f3f7" d="M 132.796875 216.53125 C 97.152344 216.53125 68.207031 245.765625 68.207031 281.769531 C 68.207031 317.769531 97.152344 347.003906 132.796875 347.003906 C 168.585938 347.003906 197.527344 317.769531 197.527344 281.769531 C 197.527344 245.765625 168.585938 216.53125 132.796875 216.53125 Z M 132.796875 234.964844 C 151.761719 234.964844 167.160156 250.519531 167.160156 269.671875 C 167.160156 288.824219 151.761719 304.375 132.796875 304.375 C 113.835938 304.375 98.433594 288.824219 98.433594 269.671875 C 98.433594 250.515625 113.835938 234.964844 132.796875 234.964844 Z M 132.796875 342.683594 C 110.839844 342.683594 91.734375 330.875 81.183594 313.160156 C 86.175781 304.664062 93.160156 297.609375 101.429688 292.421875 C 108.417969 302.359375 119.964844 308.695312 132.796875 308.695312 C 145.773438 308.695312 157.179688 302.359375 164.308594 292.421875 C 172.578125 297.609375 179.5625 304.664062 184.554688 313.160156 C 174.003906 330.875 154.753906 342.683594 132.796875 342.683594 Z M 132.796875 342.683594 " fill-opacity="1" fill-rule="nonzero"/></g><g clip-path="url(#baf0f0a486)"><path fill="#00f3f7" d="M 316.726562 104.636719 C 287.355469 104.636719 263.542969 128.6875 263.542969 158.496094 C 263.542969 188.164062 287.355469 212.210938 316.726562 212.210938 C 346.097656 212.210938 370.050781 188.164062 370.050781 158.496094 C 370.050781 128.6875 346.097656 104.636719 316.726562 104.636719 Z M 316.726562 120.480469 C 332.125 120.480469 344.671875 133.152344 344.671875 148.703125 C 344.671875 164.257812 332.125 176.785156 316.726562 176.785156 C 301.328125 176.785156 288.921875 164.257812 288.921875 148.703125 C 288.921875 133.152344 301.328125 120.480469 316.726562 120.480469 Z M 316.726562 207.890625 C 298.902344 207.890625 283.363281 198.242188 274.808594 183.84375 C 278.65625 177.363281 284.074219 171.746094 290.632812 167.570312 C 296.480469 175.777344 306.03125 181.105469 316.726562 181.105469 C 327.5625 181.105469 337.113281 175.777344 342.960938 167.570312 C 349.375 171.746094 354.792969 177.363281 358.789062 183.84375 C 350.230469 198.242188 334.546875 207.890625 316.726562 207.890625 Z M 316.726562 207.890625 " fill-opacity="1" fill-rule="nonzero"/></g><path fill="#00f3f7" d="M 255.84375 203.714844 C 230.605469 203.714844 210.21875 224.308594 210.21875 249.652344 C 210.21875 274.996094 230.609375 295.589844 255.84375 295.589844 C 280.9375 295.589844 301.328125 274.996094 301.328125 249.652344 C 301.328125 224.308594 280.9375 203.714844 255.84375 203.714844 Z M 255.84375 217.683594 C 268.820312 217.683594 279.367188 228.339844 279.367188 241.445312 C 279.367188 254.550781 268.820312 265.207031 255.84375 265.207031 C 242.871094 265.207031 232.320312 254.546875 232.320312 241.445312 C 232.320312 228.339844 242.871094 217.683594 255.84375 217.683594 Z M 255.84375 291.269531 C 240.875 291.269531 227.613281 283.207031 220.484375 271.109375 C 223.621094 265.78125 228.039062 261.171875 233.175781 257.71875 C 238.308594 264.773438 246.433594 269.527344 255.84375 269.527344 C 265.113281 269.527344 273.382812 264.773438 278.371094 257.71875 C 283.648438 261.171875 287.925781 265.78125 291.203125 271.109375 C 283.929688 283.207031 270.8125 291.269531 255.84375 291.269531 Z M 255.84375 291.269531 " fill-opacity="1" fill-rule="nonzero"/></svg>