<svg xmlns="http://www.w3.org/2000/svg" xmlns:xlink="http://www.w3.org/1999/xlink" width="500" zoomAndPan="magnify" viewBox="0 0 375 374.999991" height="500" preserveAspectRatio="xMidYMid meet" version="1.0"><defs><clipPath id="f065fa3c6f"><path d="M 11.289062 154 L 202 154 L 202 368 L 11.289062 368 Z M 11.289062 154 " clip-rule="nonzero"/></clipPath><clipPath id="7958fdab46"><path d="M 173 73 L 363.789062 73 L 363.789062 287 L 173 287 Z M 173 73 " clip-rule="nonzero"/></clipPath></defs><path fill="#00f3f7" d="M 133.140625 151.097656 C 131.972656 151.027344 130.886719 150.917969 129.886719 150.765625 C 129.007812 150.632812 128.003906 150.429688 126.875 150.164062 L 126.871094 150.171875 L 126.867188 150.171875 L 126.671875 150.117188 C 116.730469 147.714844 108.691406 141.519531 103.734375 133.441406 C 98.816406 125.421875 96.949219 115.53125 99.28125 105.640625 L 99.269531 105.636719 L 99.273438 105.632812 L 99.328125 105.441406 C 101.734375 95.46875 107.9375 87.445312 116.019531 82.507812 C 124.117188 77.566406 134.105469 75.726562 144.0625 78.125 C 154.046875 80.539062 162.066406 86.726562 166.992188 94.804688 C 171.917969 102.882812 173.742188 112.855469 171.335938 122.832031 C 171.074219 123.910156 170.773438 124.953125 170.4375 125.960938 C 170.082031 127.015625 169.6875 128.027344 169.265625 129 L 156.289062 123.34375 C 156.5625 122.71875 156.804688 122.089844 157.015625 121.46875 C 157.234375 120.820312 157.425781 120.164062 157.582031 119.503906 C 159.070312 113.335938 157.945312 107.171875 154.90625 102.179688 C 151.859375 97.1875 146.902344 93.367188 140.734375 91.882812 C 134.585938 90.398438 128.40625 91.539062 123.398438 94.601562 C 118.453125 97.617188 114.648438 102.503906 113.128906 108.570312 L 113.136719 108.570312 L 113.132812 108.574219 L 113.078125 108.769531 C 111.597656 114.90625 112.757812 121.058594 115.824219 126.0625 C 118.851562 131 123.746094 134.796875 129.804688 136.3125 L 129.804688 136.308594 L 129.808594 136.308594 L 130.003906 136.363281 C 130.527344 136.492188 131.191406 136.613281 131.996094 136.738281 C 132.742188 136.847656 133.402344 136.921875 133.972656 136.957031 Z M 199.511719 82.679688 L 216.488281 72.316406 L 209.523438 61 L 192.574219 71.34375 L 187.609375 74.378906 L 183.675781 70.070312 C 180.777344 66.902344 177.503906 63.980469 173.882812 61.355469 C 170.363281 58.804688 166.566406 56.585938 162.511719 54.746094 L 157.167969 52.324219 L 158.542969 46.621094 L 163.21875 27.253906 L 150.285156 24.128906 L 145.609375 43.507812 L 144.234375 49.191406 L 138.402344 48.914062 C 133.964844 48.703125 129.527344 48.941406 125.148438 49.617188 C 120.734375 50.292969 116.492188 51.390625 112.472656 52.886719 L 107 54.917969 L 103.957031 49.945312 L 93.632812 33.050781 L 82.285156 39.984375 L 92.609375 56.945312 L 95.65625 61.949219 L 91.332031 65.871094 C 88.136719 68.773438 85.238281 72.015625 82.664062 75.566406 C 80.074219 79.148438 77.832031 82.984375 75.980469 87.046875 L 73.5625 92.355469 L 67.882812 90.980469 L 48.570312 86.320312 L 45.445312 99.269531 L 64.765625 103.933594 L 70.4375 105.300781 L 70.171875 111.113281 C 69.96875 115.617188 70.207031 120.042969 70.875 124.335938 C 71.542969 128.667969 72.644531 132.902344 74.160156 136.984375 L 76.195312 142.457031 L 71.21875 145.5 L 54.328125 155.820312 L 61.265625 167.171875 L 78.222656 156.851562 L 85.605469 168.941406 L 62.59375 182.941406 L 56.550781 186.621094 L 52.859375 180.585938 L 38.550781 157.160156 L 34.863281 151.121094 L 40.90625 147.425781 L 59.0625 136.328125 C 58.136719 133.113281 57.414062 129.828125 56.898438 126.5 C 56.382812 123.152344 56.074219 119.769531 55.980469 116.367188 L 35.246094 111.359375 L 28.371094 109.703125 L 30.03125 102.820312 L 36.476562 76.117188 L 38.136719 69.246094 L 45.019531 70.910156 L 65.734375 75.910156 C 67.390625 72.867188 69.207031 69.972656 71.1875 67.246094 C 73.164062 64.523438 75.300781 61.941406 77.59375 59.515625 L 66.515625 41.316406 L 62.835938 35.273438 L 68.875 31.585938 L 92.296875 17.273438 L 98.332031 13.582031 L 102.03125 19.628906 L 113.125 37.785156 C 116.394531 36.835938 119.703125 36.097656 123.039062 35.589844 C 126.351562 35.078125 129.738281 34.78125 133.179688 34.699219 L 138.195312 13.925781 L 139.851562 7.054688 L 146.734375 8.714844 L 173.421875 15.15625 L 180.292969 16.816406 L 178.632812 23.695312 L 173.621094 44.460938 C 176.625 46.097656 179.484375 47.90625 182.203125 49.878906 C 184.921875 51.847656 187.515625 54.007812 189.980469 56.339844 L 208.15625 45.242188 L 214.164062 41.570312 L 217.863281 47.570312 L 232.257812 70.945312 L 235.988281 77.007812 L 229.929688 80.703125 L 206.886719 94.765625 L 199.511719 82.679688 " fill-opacity="1" fill-rule="nonzero"/><g clip-path="url(#f065fa3c6f)"><path fill="#00f3f7" d="M 156.871094 285.335938 C 154.324219 282.640625 150.648438 281.226562 146.882812 281.121094 C 143.132812 281.015625 139.375 282.234375 136.65625 284.796875 L 104.425781 315.28125 C 100.179688 319.289062 94.449219 321.199219 88.820312 321.042969 C 83.210938 320.886719 77.597656 318.660156 73.566406 314.394531 L 73.539062 314.394531 L 64.097656 304.394531 C 62.089844 302.269531 60.558594 299.824219 59.558594 297.195312 C 58.558594 294.574219 58.078125 291.726562 58.160156 288.785156 C 58.246094 285.863281 58.890625 283.054688 60.042969 280.480469 C 61.203125 277.871094 62.875 275.507812 64.988281 273.511719 L 135.507812 206.859375 L 135.523438 206.875 C 139.03125 203.5625 143.5625 201.621094 148.195312 201.132812 C 152.855469 200.636719 157.714844 201.589844 161.820312 204.085938 C 164.945312 205.980469 168.679688 206.707031 172.359375 206.285156 C 175.972656 205.878906 179.488281 204.339844 182.269531 201.699219 L 182.300781 201.671875 L 182.675781 201.316406 L 182.300781 201.671875 C 184.03125 200.035156 185.328125 198.078125 186.136719 195.945312 C 186.960938 193.777344 187.296875 191.433594 187.082031 189.070312 L 187.054688 189.070312 L 186.40625 181.609375 L 186.414062 181.601562 L 186.078125 177.863281 L 186.40625 181.609375 L 186.414062 181.601562 L 187.082031 189.070312 L 187.054688 189.070312 C 186.84375 186.664062 186.121094 184.421875 184.953125 182.476562 C 183.789062 180.527344 182.15625 178.824219 180.136719 177.503906 C 176.390625 175.050781 172.402344 173.09375 168.292969 171.667969 C 164.175781 170.242188 159.8125 169.308594 155.316406 168.910156 C 147.542969 168.222656 139.847656 169.199219 132.726562 171.671875 C 125.597656 174.144531 118.972656 178.128906 113.339844 183.453125 L 42.808594 250.09375 C 31.972656 260.332031 26.308594 274.027344 25.921875 287.871094 C 25.527344 301.71875 30.410156 315.722656 40.667969 326.578125 L 40.664062 326.582031 L 50.0625 336.382812 L 50.117188 336.441406 L 50.285156 336.613281 L 50.117188 336.441406 C 54.640625 341.222656 59.941406 345.066406 65.730469 347.847656 C 71.566406 350.652344 77.960938 352.410156 84.628906 352.996094 L 84.628906 353.003906 L 84.636719 353.003906 L 84.636719 352.996094 L 85.152344 353.042969 L 84.636719 353.003906 L 84.636719 352.996094 C 92.394531 353.6875 100.109375 352.722656 107.285156 350.25 C 114.425781 347.792969 121.03125 343.851562 126.617188 338.574219 L 158.84375 308.164062 C 160.246094 306.84375 161.335938 305.3125 162.078125 303.65625 C 162.835938 301.96875 163.257812 300.140625 163.3125 298.25 C 163.367188 296.398438 163.03125 294.523438 162.351562 292.742188 C 161.679688 290.984375 160.6875 289.375 159.417969 288.035156 L 156.871094 285.363281 L 156.886719 285.351562 Z M 147.273438 266.980469 C 154.585938 267.1875 161.875 270.085938 167.117188 275.617188 L 167.132812 275.601562 L 169.679688 278.277344 C 172.28125 281.023438 174.289062 284.246094 175.605469 287.695312 C 176.917969 291.132812 177.5625 294.859375 177.453125 298.640625 C 177.351562 302.421875 176.503906 306.070312 175 309.421875 C 173.480469 312.804688 171.304688 315.875 168.546875 318.480469 L 136.320312 348.890625 C 129.234375 355.585938 120.882812 360.570312 111.886719 363.667969 C 102.847656 366.785156 93.148438 368.003906 83.414062 367.140625 L 83.414062 367.136719 L 83.410156 367.136719 L 83.410156 367.140625 L 83.015625 367.101562 L 82.890625 367.09375 L 83.410156 367.140625 L 83.410156 367.136719 L 83.015625 367.101562 C 74.863281 366.335938 66.949219 364.125 59.628906 360.605469 C 52.242188 357.050781 45.515625 352.183594 39.800781 346.144531 L 39.804688 346.144531 L 30.410156 336.339844 L 30.355469 336.28125 L 30.261719 336.183594 L 30.191406 336.113281 L 30.355469 336.28125 L 30.261719 336.183594 C 17.40625 322.53125 11.285156 304.910156 11.777344 287.480469 C 12.273438 270 19.421875 252.707031 33.105469 239.78125 L 103.632812 173.140625 C 110.695312 166.464844 119.066406 161.449219 128.121094 158.304688 C 137.179688 155.164062 146.859375 153.914062 156.535156 154.769531 C 162.054688 155.257812 167.554688 156.453125 172.894531 158.300781 C 178.230469 160.148438 183.285156 162.617188 187.898438 165.636719 C 191.703125 168.121094 194.816406 171.402344 197.097656 175.210938 C 199.382812 179.027344 200.804688 183.332031 201.195312 187.851562 L 201.167969 187.851562 C 201.574219 192.378906 200.949219 196.839844 199.390625 200.9375 C 197.820312 205.070312 195.324219 208.851562 192.003906 211.984375 C 186.894531 216.8125 180.484375 219.625 173.917969 220.375 C 167.253906 221.132812 160.386719 219.746094 154.5 216.171875 C 153.132812 215.339844 151.414062 215.035156 149.695312 215.214844 C 147.984375 215.398438 146.375 216.050781 145.214844 217.148438 L 145.214844 217.175781 L 74.691406 283.828125 C 73.941406 284.539062 73.355469 285.355469 72.960938 286.246094 C 72.554688 287.152344 72.328125 288.132812 72.300781 289.144531 L 72.300781 289.171875 C 72.273438 290.1875 72.449219 291.195312 72.8125 292.152344 C 73.167969 293.085938 73.699219 293.941406 74.382812 294.664062 L 74.410156 294.691406 L 83.851562 304.691406 L 83.839844 304.707031 C 85.175781 306.105469 87.15625 306.84375 89.210938 306.898438 C 91.257812 306.953125 93.285156 306.316406 94.71875 304.964844 L 126.953125 274.484375 C 132.492188 269.257812 139.941406 266.777344 147.273438 266.980469 Z M 159.417969 288.035156 L 159.421875 288.027344 L 156.886719 285.351562 L 156.871094 285.363281 Z M 159.421875 288.027344 L 159.417969 288.035156 L 161.199219 289.902344 Z M 159.421875 288.027344 " fill-opacity="1" fill-rule="nonzero"/></g><g clip-path="url(#7958fdab46)"><path fill="#00f3f7" d="M 218.144531 155.898438 C 220.691406 158.589844 224.367188 160.003906 228.132812 160.109375 C 231.886719 160.214844 235.640625 158.996094 238.359375 156.433594 L 270.589844 125.953125 C 274.835938 121.941406 280.566406 120.035156 286.195312 120.191406 C 291.804688 120.34375 297.417969 122.574219 301.449219 126.835938 L 301.476562 126.835938 L 310.917969 136.835938 C 312.929688 138.964844 314.457031 141.410156 315.457031 144.03125 C 316.457031 146.65625 316.9375 149.507812 316.859375 152.449219 L 316.855469 152.449219 C 316.773438 155.371094 316.128906 158.179688 314.976562 160.753906 C 313.8125 163.359375 312.144531 165.71875 310.027344 167.71875 L 239.507812 234.371094 L 239.492188 234.355469 C 235.984375 237.667969 231.453125 239.609375 226.820312 240.101562 C 222.160156 240.597656 217.300781 239.640625 213.195312 237.148438 C 210.070312 235.253906 206.335938 234.527344 202.65625 234.945312 C 199.042969 235.355469 195.527344 236.890625 192.746094 239.535156 L 192.714844 239.558594 L 192.339844 239.917969 L 192.714844 239.558594 C 190.988281 241.195312 189.6875 243.15625 188.878906 245.285156 C 188.054688 247.457031 187.71875 249.796875 187.933594 252.164062 L 187.960938 252.164062 L 188.609375 259.621094 L 188.605469 259.625 L 188.941406 263.371094 L 188.609375 259.621094 L 188.605469 259.625 L 187.933594 252.164062 L 187.960938 252.164062 C 188.171875 254.566406 188.898438 256.808594 190.0625 258.757812 C 191.226562 260.707031 192.863281 262.410156 194.878906 263.726562 C 198.625 266.183594 202.613281 268.140625 206.722656 269.566406 C 210.839844 270.992188 215.203125 271.921875 219.699219 272.320312 C 227.472656 273.007812 235.167969 272.03125 242.289062 269.5625 C 249.417969 267.089844 256.042969 263.101562 261.675781 257.777344 L 332.207031 191.136719 C 343.039062 180.898438 348.707031 167.203125 349.09375 153.363281 C 349.488281 139.511719 344.605469 125.507812 334.351562 114.65625 L 334.351562 114.652344 L 324.953125 104.851562 L 324.734375 104.617188 L 324.898438 104.792969 C 320.375 100.007812 315.074219 96.167969 309.285156 93.382812 C 303.460938 90.582031 297.078125 88.832031 290.417969 88.238281 L 290.386719 88.234375 L 290.417969 88.238281 L 290.421875 88.238281 L 290.386719 88.234375 L 290.378906 88.230469 L 290.378906 88.234375 C 282.621094 87.546875 274.90625 88.507812 267.730469 90.980469 C 260.589844 93.441406 253.984375 97.378906 248.398438 102.65625 L 216.171875 133.066406 C 214.773438 134.390625 213.679688 135.921875 212.9375 137.578125 C 212.179688 139.265625 211.757812 141.089844 211.703125 142.980469 C 211.648438 144.835938 211.984375 146.707031 212.664062 148.484375 C 213.335938 150.246094 214.328125 151.855469 215.597656 153.195312 L 218.144531 155.867188 L 218.128906 155.882812 Z M 227.746094 174.25 C 220.429688 174.046875 213.140625 171.148438 207.898438 165.617188 L 207.882812 165.628906 L 205.339844 162.953125 C 202.734375 160.207031 200.726562 156.988281 199.410156 153.535156 C 198.097656 150.097656 197.453125 146.371094 197.5625 142.59375 C 197.667969 138.808594 198.511719 135.164062 200.015625 131.808594 C 201.535156 128.429688 203.710938 125.355469 206.46875 122.753906 L 238.695312 92.34375 C 245.78125 85.644531 254.132812 80.660156 263.128906 77.5625 C 272.160156 74.449219 281.84375 73.234375 291.5625 74.089844 L 291.601562 74.09375 L 291.5625 74.089844 L 291.601562 74.09375 L 291.609375 74.09375 C 299.902344 74.824219 307.949219 77.054688 315.386719 80.628906 C 322.773438 84.179688 329.5 89.046875 335.214844 95.085938 L 335.214844 95.089844 L 344.609375 104.894531 L 344.660156 104.949219 L 344.664062 104.949219 L 344.753906 105.042969 L 344.824219 105.121094 L 344.664062 104.949219 L 344.660156 104.949219 L 344.753906 105.042969 C 357.609375 118.703125 363.730469 136.320312 363.238281 153.753906 C 362.742188 171.234375 355.59375 188.523438 341.910156 201.453125 L 271.382812 268.09375 C 264.320312 274.769531 255.953125 279.78125 246.894531 282.921875 C 237.835938 286.070312 228.160156 287.316406 218.480469 286.460938 C 212.960938 285.972656 207.460938 284.78125 202.121094 282.929688 C 196.785156 281.082031 191.730469 278.617188 187.117188 275.59375 C 183.316406 273.109375 180.199219 269.828125 177.917969 266.019531 C 175.632812 262.203125 174.214844 257.898438 173.820312 253.378906 L 173.847656 253.378906 C 173.441406 248.851562 174.070312 244.394531 175.625 240.292969 C 177.195312 236.164062 179.691406 232.382812 183.011719 229.25 C 188.121094 224.417969 194.53125 221.605469 201.101562 220.859375 C 207.761719 220.101562 214.628906 221.484375 220.515625 225.058594 C 221.882812 225.890625 223.601562 226.199219 225.320312 226.015625 C 227.03125 225.832031 228.644531 225.179688 229.800781 224.082031 L 229.800781 224.058594 L 300.324219 157.40625 C 301.074219 156.695312 301.660156 155.875 302.054688 154.988281 C 302.460938 154.078125 302.6875 153.097656 302.714844 152.085938 L 302.714844 152.058594 C 302.742188 151.046875 302.566406 150.035156 302.203125 149.082031 C 301.847656 148.144531 301.316406 147.289062 300.632812 146.566406 L 300.609375 146.542969 L 291.164062 136.542969 L 291.179688 136.527344 C 289.84375 135.125 287.859375 134.390625 285.804688 134.332031 C 283.757812 134.273438 281.730469 134.917969 280.296875 136.265625 L 248.0625 166.75 C 242.523438 171.972656 235.078125 174.453125 227.746094 174.25 Z M 215.597656 153.195312 L 215.589844 153.203125 L 218.128906 155.882812 L 218.144531 155.867188 Z M 215.589844 153.203125 L 215.597656 153.195312 L 213.820312 151.328125 Z M 215.589844 153.203125 " fill-opacity="1" fill-rule="nonzero"/></g></svg>