<svg xmlns="http://www.w3.org/2000/svg" xmlns:xlink="http://www.w3.org/1999/xlink" width="500" zoomAndPan="magnify" viewBox="0 0 375 374.999991" height="500" preserveAspectRatio="xMidYMid meet" version="1.0"><defs><clipPath id="1fb742effd"><path d="M 60.636719 5 L 314.136719 5 L 314.136719 370.632812 L 60.636719 370.632812 Z M 60.636719 5 " clip-rule="nonzero"/></clipPath></defs><g clip-path="url(#1fb742effd)"><path fill="#00f3f7" d="M 187.496094 48.769531 C 141.527344 48.769531 104.109375 86.1875 104.109375 132.15625 C 104.109375 178.125 141.527344 215.542969 187.496094 215.542969 C 233.464844 215.542969 270.882812 178.125 270.882812 132.15625 C 270.882812 86.1875 233.464844 48.769531 187.496094 48.769531 Z M 187.496094 209.839844 C 144.664062 209.839844 109.8125 174.988281 109.8125 132.15625 C 109.8125 89.324219 144.664062 54.472656 187.496094 54.472656 C 230.332031 54.472656 265.183594 89.324219 265.183594 132.15625 C 265.183594 174.988281 230.332031 209.839844 187.496094 209.839844 Z M 122 121.894531 C 121.5 125.242188 121.214844 128.664062 121.214844 132.15625 C 121.214844 133.722656 119.933594 135.007812 118.363281 135.007812 C 116.796875 135.007812 115.515625 133.722656 115.515625 132.15625 C 115.515625 128.378906 115.800781 124.671875 116.371094 121.039062 C 116.582031 119.46875 118.078125 118.402344 119.648438 118.6875 C 121.214844 118.898438 122.285156 120.324219 122 121.894531 Z M 123.996094 113.054688 C 123.640625 114.269531 122.5 115.050781 121.285156 115.050781 C 121.003906 115.050781 120.71875 114.980469 120.433594 114.910156 C 118.933594 114.480469 118.078125 112.84375 118.507812 111.34375 C 122.855469 96.878906 131.976562 83.835938 144.09375 74.640625 C 156.707031 65.164062 171.746094 60.171875 187.496094 60.171875 C 189.066406 60.171875 190.347656 61.457031 190.347656 63.023438 C 190.347656 64.59375 189.066406 65.875 187.496094 65.875 C 158.492188 65.875 132.40625 85.261719 123.996094 113.054688 Z M 79.523438 116.90625 C 78.808594 121.894531 78.453125 127.097656 78.453125 132.15625 C 78.453125 133.722656 77.171875 135.007812 75.601562 135.007812 C 74.035156 135.007812 72.75 133.722656 72.75 132.15625 C 72.75 126.738281 73.109375 121.394531 73.890625 116.050781 C 74.105469 114.480469 75.53125 113.414062 77.097656 113.625 C 78.667969 113.839844 79.738281 115.335938 79.523438 116.90625 Z M 82.375 103.007812 C 82.015625 104.289062 80.875 105.074219 79.59375 105.074219 C 79.308594 105.074219 79.09375 105.074219 78.808594 105.003906 C 77.3125 104.574219 76.386719 103.007812 76.8125 101.511719 C 90.640625 51.976562 136.109375 17.410156 187.496094 17.410156 C 189.066406 17.410156 190.347656 18.695312 190.347656 20.261719 C 190.347656 21.828125 189.066406 23.113281 187.496094 23.113281 C 138.605469 23.113281 95.414062 55.96875 82.375 103.007812 Z M 227.410156 110.0625 C 218.785156 110.0625 211.730469 117.117188 211.730469 125.742188 L 211.730469 138.570312 C 211.730469 147.195312 218.785156 154.25 227.410156 154.25 C 236.03125 154.25 243.089844 147.195312 243.089844 138.570312 L 243.089844 125.742188 C 243.089844 117.117188 236.03125 110.0625 227.410156 110.0625 Z M 237.386719 138.570312 C 237.386719 144.058594 232.898438 148.550781 227.410156 148.550781 C 221.921875 148.550781 217.429688 144.058594 217.429688 138.570312 L 217.429688 125.742188 C 217.429688 120.253906 221.921875 115.765625 227.410156 115.765625 C 232.898438 115.765625 237.386719 120.253906 237.386719 125.742188 Z M 137.609375 122.535156 C 137.609375 126.242188 140.671875 129.304688 144.378906 129.304688 L 150.792969 129.304688 C 157.636719 129.304688 163.265625 134.9375 163.265625 141.777344 C 163.265625 148.621094 157.636719 154.25 150.792969 154.25 L 134.757812 154.25 C 133.1875 154.25 131.90625 152.96875 131.90625 151.398438 C 131.90625 149.832031 133.1875 148.550781 134.757812 148.550781 L 150.792969 148.550781 C 154.5 148.550781 157.5625 145.484375 157.5625 141.777344 C 157.5625 138.070312 154.5 135.007812 150.792969 135.007812 L 144.378906 135.007812 C 137.535156 135.007812 131.90625 129.378906 131.90625 122.535156 C 131.90625 115.691406 137.535156 110.0625 144.378906 110.0625 L 160.414062 110.0625 C 161.984375 110.0625 163.265625 111.34375 163.265625 112.914062 C 163.265625 114.480469 161.984375 115.765625 160.414062 115.765625 L 144.378906 115.765625 C 140.671875 115.765625 137.609375 118.828125 137.609375 122.535156 Z M 177.519531 116.476562 L 177.519531 129.304688 L 194.625 129.304688 C 196.191406 129.304688 197.476562 130.589844 197.476562 132.15625 C 197.476562 133.722656 196.191406 135.007812 194.625 135.007812 L 177.519531 135.007812 L 177.519531 147.835938 C 177.519531 148.265625 177.804688 148.550781 178.230469 148.550781 L 200.324219 148.550781 C 201.894531 148.550781 203.175781 149.832031 203.175781 151.398438 C 203.175781 152.96875 201.894531 154.25 200.324219 154.25 L 178.230469 154.25 C 174.667969 154.25 171.816406 151.398438 171.816406 147.835938 L 171.816406 116.476562 C 171.816406 112.914062 174.667969 110.0625 178.230469 110.0625 L 200.324219 110.0625 C 201.894531 110.0625 203.175781 111.34375 203.175781 112.914062 C 203.175781 114.480469 201.894531 115.765625 200.324219 115.765625 L 178.230469 115.765625 C 177.804688 115.765625 177.519531 116.050781 177.519531 116.476562 Z M 275.585938 223.453125 C 300.601562 199.292969 314.359375 166.792969 314.359375 132.015625 C 314.359375 98.089844 300.746094 66.089844 276.230469 41.929688 C 251.640625 17.769531 219.355469 4.796875 185.429688 5.296875 C 152.003906 5.867188 120.644531 19.265625 97.125 43.140625 C 73.605469 67.015625 60.636719 98.660156 60.636719 132.15625 C 60.636719 149.972656 64.269531 167.152344 71.398438 183.328125 C 78.3125 198.9375 88.074219 212.761719 100.546875 224.523438 C 124.636719 247.1875 144.804688 274.769531 159.84375 305.34375 C 110.453125 308.195312 62.0625 318.957031 62.0625 337.414062 C 62.0625 358.726562 126.703125 370.199219 187.496094 370.199219 C 248.289062 370.199219 312.933594 358.726562 312.933594 337.414062 C 312.933594 318.957031 264.539062 308.195312 215.222656 305.414062 C 230.257812 275.339844 250.785156 247.402344 275.585938 223.453125 Z M 280.863281 320.953125 C 297.394531 325.796875 307.230469 331.925781 307.230469 337.414062 C 307.230469 342.332031 298.394531 349.746094 273.519531 355.804688 C 250.570312 361.433594 220.066406 364.5 187.496094 364.5 C 154.996094 364.5 124.421875 361.433594 101.472656 355.804688 C 76.601562 349.746094 67.761719 342.332031 67.761719 337.414062 C 67.761719 331.925781 77.667969 325.796875 94.203125 320.953125 C 111.738281 315.820312 135.898438 312.328125 162.550781 310.972656 C 165.972656 318.316406 169.109375 325.871094 171.960938 333.566406 L 172.386719 334.707031 C 174.738281 341.050781 180.796875 345.253906 187.496094 345.253906 C 194.269531 345.253906 200.324219 340.980469 202.605469 334.707031 L 202.890625 333.921875 C 205.742188 326.15625 208.949219 318.527344 212.511719 310.972656 C 239.167969 312.328125 263.328125 315.890625 280.863281 320.953125 Z M 208.449219 306.339844 C 208.238281 306.625 208.09375 306.910156 208.023438 307.269531 C 204.175781 315.320312 200.683594 323.589844 197.617188 331.925781 L 197.332031 332.710938 C 195.835938 336.773438 191.917969 339.554688 187.570312 339.554688 C 183.222656 339.554688 179.300781 336.84375 177.804688 332.710938 L 177.375 331.570312 C 174.3125 323.234375 170.890625 315.109375 167.113281 307.125 C 167.042969 306.910156 166.972656 306.699219 166.828125 306.484375 C 151.292969 273.84375 130.125 244.40625 104.609375 220.390625 C 79.878906 197.226562 66.335938 165.9375 66.335938 132.15625 C 66.335938 66.445312 119.789062 12.066406 185.5 10.996094 C 186.144531 10.996094 186.855469 10.996094 187.496094 10.996094 C 219.210938 10.996094 249.21875 23.398438 272.238281 45.992188 C 295.6875 69.082031 308.65625 99.65625 308.65625 132.015625 C 308.65625 165.226562 295.542969 196.230469 271.667969 219.320312 C 245.367188 244.691406 223.84375 274.414062 208.449219 306.339844 Z M 208.449219 306.339844 " fill-opacity="1" fill-rule="nonzero"/></g></svg>