<svg xmlns="http://www.w3.org/2000/svg" xmlns:xlink="http://www.w3.org/1999/xlink" width="500" zoomAndPan="magnify" viewBox="0 0 375 374.999991" height="500" preserveAspectRatio="xMidYMid meet" version="1.0"><defs><clipPath id="0afda8abc2"><path d="M 8.671875 8.671875 L 366.421875 8.671875 L 366.421875 366.421875 L 8.671875 366.421875 Z M 8.671875 8.671875 " clip-rule="nonzero"/></clipPath></defs><path fill="#00f3f7" d="M 187.5 315.234375 C 207.328125 315.234375 226.050781 310.558594 242.808594 302.460938 L 132.183594 302.460938 C 148.949219 310.558594 167.660156 315.234375 187.492188 315.234375 Z M 187.5 315.234375 " fill-opacity="1" fill-rule="nonzero"/><path fill="#00f3f7" d="M 249.21875 232.207031 L 125.777344 232.207031 L 119.621094 251.367188 L 255.378906 251.367188 Z M 249.21875 232.207031 " fill-opacity="1" fill-rule="nonzero"/><path fill="#00f3f7" d="M 224.585938 155.566406 L 150.410156 155.566406 L 142.199219 181.113281 L 232.800781 181.113281 Z M 224.585938 155.566406 " fill-opacity="1" fill-rule="nonzero"/><path fill="#00f3f7" d="M 287.878906 266.234375 C 286.683594 264.96875 285.074219 264.140625 283.300781 264.140625 L 91.699219 264.140625 C 89.921875 264.140625 88.3125 264.96875 87.117188 266.234375 C 94.074219 275.078125 102.171875 282.941406 111.175781 289.6875 L 263.8125 289.6875 C 272.824219 282.941406 280.925781 275.078125 287.871094 266.234375 Z M 287.878906 266.234375 " fill-opacity="1" fill-rule="nonzero"/><path fill="#00f3f7" d="M 197.347656 85.3125 L 177.652344 85.3125 C 174.859375 85.3125 172.417969 87.085938 171.570312 89.738281 L 166.839844 104.472656 L 208.167969 104.472656 L 203.433594 89.738281 C 202.585938 87.085938 200.136719 85.3125 197.355469 85.3125 Z M 197.347656 85.3125 " fill-opacity="1" fill-rule="nonzero"/><path fill="#00f3f7" d="M 154.519531 142.792969 L 220.480469 142.792969 L 212.265625 117.246094 L 162.730469 117.246094 Z M 154.519531 142.792969 " fill-opacity="1" fill-rule="nonzero"/><path fill="#00f3f7" d="M 236.898438 193.886719 L 138.097656 193.886719 L 129.882812 219.433594 L 245.113281 219.433594 Z M 236.898438 193.886719 " fill-opacity="1" fill-rule="nonzero"/><g clip-path="url(#0afda8abc2)"><path fill="#00f3f7" d="M 366.328125 196.5625 L 366.328125 178.4375 C 366.328125 175.714844 364.386719 173.421875 361.703125 172.980469 L 350.929688 171.1875 C 348.164062 170.726562 346.023438 168.523438 345.648438 165.746094 C 343.847656 152.5 340.382812 139.542969 335.363281 127.242188 C 334.308594 124.652344 335.058594 121.675781 337.214844 119.902344 L 345.621094 112.980469 C 347.714844 111.246094 348.253906 108.289062 346.890625 105.933594 L 337.828125 90.242188 C 336.46875 87.886719 333.621094 86.875 331.089844 87.828125 L 320.855469 91.667969 C 318.253906 92.648438 315.296875 91.808594 313.574219 89.609375 C 305.390625 79.089844 295.902344 69.601562 285.382812 61.417969 C 283.179688 59.699219 282.339844 56.757812 283.324219 54.136719 L 287.164062 43.898438 C 288.117188 41.359375 287.101562 38.523438 284.75 37.160156 L 269.058594 28.097656 C 266.707031 26.746094 263.75 27.273438 262.019531 29.363281 L 255.089844 37.773438 C 253.328125 39.941406 250.351562 40.679688 247.75 39.628906 C 235.445312 34.605469 222.492188 31.144531 209.246094 29.34375 C 206.46875 28.960938 204.269531 26.820312 203.804688 24.0625 L 202.007812 13.289062 C 201.570312 10.605469 199.269531 8.664062 196.554688 8.664062 L 178.429688 8.664062 C 175.710938 8.664062 173.417969 10.605469 172.976562 13.289062 L 171.179688 24.0625 C 170.722656 26.828125 168.519531 28.96875 165.738281 29.34375 C 152.492188 31.144531 139.535156 34.605469 127.234375 39.628906 C 124.640625 40.675781 121.664062 39.933594 119.894531 37.773438 L 112.972656 29.371094 C 111.234375 27.269531 108.277344 26.734375 105.929688 28.097656 L 90.234375 37.160156 C 87.886719 38.523438 86.871094 41.351562 87.820312 43.898438 L 91.660156 54.136719 C 92.636719 56.75 91.800781 59.699219 89.601562 61.417969 C 79.085938 69.601562 69.59375 79.089844 61.414062 89.609375 C 59.6875 91.808594 56.742188 92.644531 54.132812 91.667969 L 43.894531 87.828125 C 41.363281 86.871094 38.515625 87.890625 37.15625 90.242188 L 28.09375 105.933594 C 26.734375 108.285156 27.269531 111.246094 29.359375 112.972656 L 37.769531 119.902344 C 39.925781 121.675781 40.675781 124.652344 39.621094 127.242188 C 34.601562 139.546875 31.140625 152.5 29.339844 165.746094 C 28.957031 168.523438 26.816406 170.722656 24.054688 171.1875 L 13.28125 172.980469 C 10.601562 173.421875 8.65625 175.722656 8.65625 178.4375 L 8.65625 196.5625 C 8.65625 199.28125 10.601562 201.574219 13.28125 202.015625 L 24.054688 203.8125 C 26.820312 204.269531 28.960938 206.472656 29.339844 209.253906 C 31.140625 222.5 34.601562 235.457031 39.621094 247.757812 C 40.675781 250.34375 39.925781 253.320312 37.769531 255.097656 L 29.363281 262.019531 C 27.269531 263.75 26.734375 266.707031 28.09375 269.0625 L 37.15625 284.757812 C 38.515625 287.113281 41.363281 288.128906 43.894531 287.171875 L 54.132812 283.332031 C 56.742188 282.359375 59.695312 283.199219 61.414062 285.386719 C 69.59375 295.90625 79.085938 305.398438 89.601562 313.578125 C 91.808594 315.296875 92.644531 318.242188 91.660156 320.859375 L 87.820312 331.097656 C 86.871094 333.640625 87.886719 336.476562 90.234375 337.835938 L 105.929688 346.898438 C 108.277344 348.257812 111.242188 347.730469 112.964844 345.632812 L 119.894531 337.222656 C 121.128906 335.722656 122.953125 334.898438 124.820312 334.898438 C 125.632812 334.898438 126.449219 335.050781 127.234375 335.371094 C 139.542969 340.390625 152.492188 343.851562 165.738281 345.652344 C 168.519531 346.035156 170.714844 348.175781 171.179688 350.933594 L 172.976562 361.710938 C 173.417969 364.390625 175.714844 366.332031 178.429688 366.332031 L 196.554688 366.332031 C 199.277344 366.332031 201.570312 364.390625 202.007812 361.710938 L 203.804688 350.933594 C 204.265625 348.167969 206.46875 346.03125 209.246094 345.652344 C 222.492188 343.851562 235.449219 340.390625 247.75 335.371094 C 250.34375 334.324219 253.320312 335.0625 255.089844 337.222656 L 262.011719 345.628906 C 263.742188 347.730469 266.695312 348.253906 269.058594 346.898438 L 284.75 337.835938 C 287.101562 336.476562 288.117188 333.644531 287.164062 331.097656 L 283.324219 320.859375 C 282.347656 318.246094 283.183594 315.296875 285.382812 313.578125 C 295.902344 305.398438 305.390625 295.90625 313.574219 285.386719 C 315.289062 283.183594 318.234375 282.339844 320.855469 283.332031 L 331.089844 287.171875 C 333.628906 288.128906 336.46875 287.113281 337.828125 284.757812 L 346.890625 269.0625 C 348.253906 266.714844 347.714844 263.75 345.628906 262.027344 L 337.214844 255.097656 C 335.058594 253.320312 334.308594 250.34375 335.363281 247.757812 C 340.382812 235.449219 343.847656 222.5 345.648438 209.253906 C 346.03125 206.472656 348.167969 204.277344 350.929688 203.8125 L 361.703125 202.015625 C 364.386719 201.574219 366.328125 199.277344 366.328125 196.5625 Z M 187.5 328.007812 C 110.023438 328.007812 46.992188 264.976562 46.992188 187.5 C 46.992188 110.023438 110.023438 46.992188 187.5 46.992188 C 264.976562 46.992188 328.007812 110.023438 328.007812 187.5 C 328.007812 264.976562 264.976562 328.007812 187.5 328.007812 Z M 187.5 328.007812 " fill-opacity="1" fill-rule="nonzero"/></g></svg>