<svg xmlns="http://www.w3.org/2000/svg" xmlns:xlink="http://www.w3.org/1999/xlink" width="500" zoomAndPan="magnify" viewBox="0 0 375 374.999991" height="500" preserveAspectRatio="xMidYMid meet" version="1.0"><defs><clipPath id="54e3559e4a"><path d="M 14 21 L 361 21 L 361 367.953125 L 14 367.953125 Z M 14 21 " clip-rule="nonzero"/></clipPath></defs><g clip-path="url(#54e3559e4a)"><path fill="#00f3f7" d="M 103.027344 230.136719 C 100.851562 230.136719 99.148438 231.90625 99.148438 234.011719 L 99.148438 291.277344 C 99.148438 293.453125 100.917969 295.152344 103.027344 295.152344 L 129.347656 295.152344 C 131.523438 295.152344 133.222656 293.386719 133.222656 291.277344 L 133.222656 234.011719 C 133.222656 231.835938 131.453125 230.136719 129.347656 230.136719 Z M 125.46875 287.46875 L 106.902344 287.46875 L 106.902344 237.957031 L 125.46875 237.957031 Z M 357.042969 306.171875 L 75.210938 306.171875 L 75.210938 24.882812 C 75.210938 22.707031 73.441406 21.007812 71.335938 21.007812 L 44.128906 21.007812 C 41.953125 21.007812 40.253906 22.777344 40.253906 24.882812 L 40.253906 306.171875 L 17.945312 306.171875 C 15.769531 306.171875 14.070312 307.941406 14.070312 310.046875 L 14.070312 337.183594 C 14.070312 339.359375 15.839844 341.058594 17.945312 341.058594 L 40.253906 341.058594 L 40.253906 363.910156 C 40.253906 366.085938 42.023438 367.789062 44.128906 367.789062 L 71.265625 367.789062 C 73.441406 367.789062 75.144531 366.019531 75.144531 363.910156 L 75.144531 341.058594 L 356.972656 341.058594 C 359.148438 341.058594 360.851562 339.292969 360.851562 337.183594 L 360.851562 310.046875 C 360.917969 307.871094 359.148438 306.171875 357.042969 306.171875 Z M 40.253906 333.308594 L 21.824219 333.308594 L 21.824219 313.925781 L 40.253906 313.925781 Z M 67.457031 360.101562 L 48.007812 360.101562 L 48.007812 28.761719 L 67.390625 28.761719 L 67.390625 360.101562 Z M 353.164062 333.308594 L 75.210938 333.308594 L 75.210938 313.925781 L 353.164062 313.925781 Z M 149.816406 199.464844 C 147.640625 199.464844 145.941406 201.234375 145.941406 203.339844 L 145.941406 291.277344 C 145.941406 293.453125 147.710938 295.152344 149.816406 295.152344 L 176.136719 295.152344 C 178.3125 295.152344 180.011719 293.386719 180.011719 291.277344 L 180.011719 203.339844 C 180.011719 201.164062 178.246094 199.464844 176.136719 199.464844 Z M 172.261719 287.46875 L 153.695312 287.46875 L 153.695312 207.21875 L 172.261719 207.21875 Z M 196.539062 137.710938 C 194.363281 137.710938 192.664062 139.480469 192.664062 141.589844 L 192.664062 291.34375 C 192.664062 293.523438 194.429688 295.222656 196.539062 295.222656 L 222.859375 295.222656 C 225.035156 295.222656 226.734375 293.453125 226.734375 291.34375 L 226.734375 141.589844 C 226.734375 139.414062 224.96875 137.710938 222.859375 137.710938 Z M 218.984375 287.46875 L 200.417969 287.46875 L 200.417969 145.464844 L 218.984375 145.464844 Z M 245.574219 295.222656 L 271.894531 295.222656 C 274.070312 295.222656 275.769531 293.453125 275.769531 291.34375 C 275.769531 291.34375 275.769531 269.515625 275.769531 269.515625 C 275.769531 269.515625 275.769531 201.710938 275.769531 201.710938 C 275.769531 201.710938 275.769531 179.945312 275.769531 179.945312 C 275.769531 177.769531 274.003906 176.070312 271.894531 176.070312 L 245.574219 176.070312 C 243.398438 176.070312 241.699219 177.835938 241.699219 179.945312 C 241.699219 180.015625 241.699219 201.710938 241.699219 201.777344 C 241.699219 201.777344 241.699219 269.652344 241.699219 269.71875 C 241.699219 269.71875 241.699219 291.414062 241.699219 291.414062 C 241.699219 293.453125 243.398438 295.222656 245.574219 295.222656 Z M 249.382812 201.777344 C 249.449219 201.710938 249.382812 183.824219 249.382812 183.753906 L 267.949219 183.753906 C 267.949219 207.488281 267.949219 263.734375 267.949219 287.46875 L 249.382812 287.46875 C 249.449219 275.703125 249.382812 214.765625 249.382812 201.777344 Z M 292.296875 97.722656 C 290.121094 97.722656 288.421875 99.492188 288.421875 101.597656 C 288.421875 132.542969 288.421875 260.402344 288.421875 291.277344 C 288.421875 293.453125 290.1875 295.152344 292.296875 295.152344 L 318.617188 295.152344 C 320.792969 295.152344 322.492188 293.386719 322.492188 291.277344 C 322.492188 282.84375 322.492188 136.761719 322.492188 123.5 C 322.5625 123.429688 322.492188 101.667969 322.492188 101.597656 C 322.492188 99.421875 320.726562 97.722656 318.617188 97.722656 C 318.617188 97.722656 292.296875 97.722656 292.296875 97.722656 Z M 314.738281 123.363281 C 314.671875 134.855469 314.738281 279.917969 314.738281 287.46875 L 296.171875 287.46875 C 296.171875 262.238281 296.171875 130.773438 296.171875 105.542969 L 314.738281 105.542969 Z M 168.382812 134.449219 C 158.183594 129.890625 146.28125 139.753906 148.933594 150.632812 L 126.558594 162.332031 C 118.125 152.945312 101.53125 159.40625 101.800781 172.191406 C 102.753906 193.140625 133.5625 189.875 130.164062 169.199219 L 152.46875 157.503906 C 164.78125 170.289062 184.773438 153.761719 174.4375 139.277344 L 204.226562 101.191406 C 208.78125 103.230469 214.765625 102.277344 218.507812 99.152344 L 245.574219 118.875 C 241.289062 127.988281 248.566406 139.207031 258.699219 139.003906 C 270.875 139.277344 277.675781 123.839844 269.308594 115.132812 L 300.796875 69.769531 C 322.152344 75.890625 327.59375 43.246094 305.421875 41.953125 C 293.589844 41.546875 286.585938 56.644531 294.40625 65.351562 L 262.710938 110.984375 C 258.699219 109.625 253.871094 110.507812 250.472656 112.890625 L 222.996094 92.894531 C 226.667969 83.847656 219.324219 73.375 209.597656 73.578125 C 198.171875 73.238281 191.03125 87.453125 198.035156 96.363281 Z M 116.21875 178.789062 C 107.582031 178.652344 107.582031 165.800781 116.21875 165.664062 C 124.859375 165.800781 124.859375 178.652344 116.21875 178.789062 Z M 162.941406 154.304688 C 154.304688 154.171875 154.304688 141.316406 162.941406 141.179688 C 171.582031 141.316406 171.582031 154.171875 162.941406 154.304688 Z M 305.492188 49.777344 C 314.128906 49.910156 314.128906 62.765625 305.492188 62.902344 C 296.855469 62.765625 296.855469 49.910156 305.492188 49.777344 Z M 258.699219 118.125 C 267.335938 118.261719 267.335938 131.117188 258.699219 131.25 C 250.0625 131.183594 250.0625 118.328125 258.699219 118.125 Z M 209.734375 81.398438 C 218.371094 81.535156 218.371094 94.390625 209.734375 94.527344 C 201.097656 94.320312 201.027344 81.671875 209.734375 81.398438 Z M 135.535156 92.28125 C 135.46875 97.382812 127.851562 97.382812 127.78125 92.28125 C 127.78125 87.179688 135.535156 87.179688 135.535156 92.28125 Z M 113.703125 52.769531 C 113.433594 41.75 124.382812 32.773438 135.195312 35.152344 C 150.15625 37.738281 154.714844 58.414062 142.402344 67.117188 C 138.050781 70.382812 135.535156 75.074219 135.535156 80.039062 C 135.875 82.488281 134.3125 85.003906 131.660156 85.003906 C 129.007812 85.003906 127.441406 82.554688 127.78125 80.039062 C 127.78125 72.628906 131.386719 65.621094 137.78125 60.929688 C 144.714844 56.101562 142.199219 44.199219 133.765625 42.839844 C 127.578125 41.480469 121.390625 46.511719 121.523438 52.835938 C 121.457031 57.867188 113.773438 57.867188 113.703125 52.769531 Z M 131.660156 106.699219 C 155.257812 106.699219 174.4375 87.519531 174.4375 63.921875 C 172.054688 7.203125 91.261719 7.203125 88.878906 63.921875 C 88.878906 87.519531 108.058594 106.699219 131.660156 106.699219 Z M 131.660156 28.964844 C 150.972656 28.964844 166.683594 44.675781 166.683594 63.988281 C 164.847656 110.371094 98.46875 110.371094 96.703125 63.988281 C 96.632812 44.675781 112.34375 28.964844 131.660156 28.964844 Z M 131.660156 28.964844 " fill-opacity="1" fill-rule="nonzero"/></g></svg>