<svg xmlns="http://www.w3.org/2000/svg" xmlns:xlink="http://www.w3.org/1999/xlink" width="500" zoomAndPan="magnify" viewBox="0 0 375 374.999991" height="500" preserveAspectRatio="xMidYMid meet" version="1.0"><defs><clipPath id="f47178aa48"><path d="M 39 43 L 333 43 L 333 335.90625 L 39 335.90625 Z M 39 43 " clip-rule="nonzero"/></clipPath></defs><g clip-path="url(#f47178aa48)"><path fill="#00f3f7" d="M 297.359375 111.183594 C 326.984375 151.519531 330.472656 210.558594 306.496094 253.835938 L 190.945312 187.121094 L 190.945312 53.707031 C 210.097656 54.386719 228.820312 59 245.882812 67.351562 C 248.65625 64.820312 251.824219 62.773438 255.28125 61.265625 C 222.53125 43.394531 182.195312 38.953125 146.289062 49.382812 C 149.550781 51.523438 152.425781 54.203125 154.714844 57.273438 C 163.335938 55.167969 172.210938 54.027344 181.207031 53.710938 L 181.207031 187.121094 L 65.65625 253.835938 C 43.949219 214.578125 44.457031 160.925781 67.78125 122.042969 C 65.832031 118.050781 64.617188 113.667969 64.371094 109.042969 C 0.175781 204.550781 69.527344 336.0625 186.078125 336.039062 C 307.484375 335.738281 375.171875 195.855469 301.886719 100.957031 C 300.964844 104.609375 299.40625 108.066406 297.359375 111.183594 Z M 220.167969 321.984375 C 220.839844 305.050781 211.066406 289.742188 197.160156 284.550781 C 219.605469 273.160156 211.558594 238.699219 186.074219 238.636719 C 160.59375 238.703125 152.550781 273.164062 174.992188 284.550781 C 161.085938 289.742188 151.3125 305.050781 151.984375 321.984375 C 117.832031 313.160156 88.855469 291.386719 70.550781 262.257812 L 186.078125 195.558594 L 301.601562 262.257812 C 283.300781 291.386719 254.320312 313.160156 220.167969 321.984375 Z M 220.167969 321.984375 " fill-opacity="1" fill-rule="nonzero"/></g><path fill="#00f3f7" d="M 87.328125 128.707031 C 71.847656 134.515625 63.316406 151.554688 64.324219 167.589844 C 89.75 188.636719 119.214844 179.363281 132.503906 167.589844 C 133.511719 151.558594 124.980469 134.511719 109.5 128.707031 C 132.007812 117.101562 123.78125 82.855469 98.414062 82.792969 C 73.09375 82.824219 64.796875 117.132812 87.328125 128.707031 Z M 87.328125 128.707031 " fill-opacity="1" fill-rule="nonzero"/><path fill="#00f3f7" d="M 132.503906 107.140625 C 132.503906 114.59375 130.070312 121.605469 125.832031 127.351562 C 132.40625 133.097656 137.328125 140.792969 140.003906 149.464844 C 151.207031 146.636719 158.851562 140.746094 161.726562 138.359375 C 162.847656 121.128906 153.132812 104.785156 138.738281 99.496094 C 161.164062 88.105469 153.105469 53.636719 127.632812 53.570312 C 115.703125 53.570312 105.769531 62.140625 103.722656 73.488281 C 120.039062 76.023438 132.503906 90.144531 132.503906 107.140625 Z M 132.503906 107.140625 " fill-opacity="1" fill-rule="nonzero"/><path fill="#00f3f7" d="M 205.558594 182.199219 C 230.984375 203.246094 260.449219 193.972656 273.738281 182.199219 C 274.746094 166.167969 266.214844 149.125 250.734375 143.316406 C 273.238281 131.714844 265.019531 97.46875 239.648438 97.402344 C 214.273438 97.472656 206.058594 131.710938 228.5625 143.316406 C 213.074219 149.125 204.554688 166.167969 205.558594 182.199219 Z M 205.558594 182.199219 " fill-opacity="1" fill-rule="nonzero"/><path fill="#00f3f7" d="M 244.957031 88.097656 C 269.535156 91.277344 282.433594 122.238281 267.066406 141.964844 C 273.640625 147.710938 278.558594 155.40625 281.238281 164.074219 C 292.441406 161.25 300.085938 155.355469 302.960938 152.96875 C 304.082031 135.738281 294.363281 119.398438 279.972656 114.105469 C 302.398438 102.714844 294.339844 68.246094 268.867188 68.179688 C 256.9375 68.179688 247.003906 76.753906 244.957031 88.097656 Z M 244.957031 88.097656 " fill-opacity="1" fill-rule="nonzero"/></svg>