<svg xmlns="http://www.w3.org/2000/svg" xmlns:xlink="http://www.w3.org/1999/xlink" width="500" zoomAndPan="magnify" viewBox="0 0 375 374.999991" height="500" preserveAspectRatio="xMidYMid meet" version="1.0"><defs><clipPath id="9c02c8f1e6"><path d="M 3.613281 91 L 113 91 L 113 235 L 3.613281 235 Z M 3.613281 91 " clip-rule="nonzero"/></clipPath><clipPath id="1f0027229c"><path d="M 252 91 L 371.113281 91 L 371.113281 235 L 252 235 Z M 252 91 " clip-rule="nonzero"/></clipPath><clipPath id="a2ab686a32"><path d="M 14 42.917969 L 286 42.917969 L 286 331 L 14 331 Z M 14 42.917969 " clip-rule="nonzero"/></clipPath></defs><g clip-path="url(#9c02c8f1e6)"><path fill="#00f3f7" d="M 3.917969 234.703125 L 89 234.703125 L 112.125 212.367188 C 108.410156 208.277344 105.035156 203.84375 101.996094 199.238281 C 99.800781 197.535156 97.4375 195.828125 94.738281 194.464844 C 95.75 193.613281 96.59375 192.589844 97.269531 191.566406 C 96.425781 189.863281 95.582031 188.15625 94.738281 186.453125 C 87.816406 196.511719 76.335938 203.160156 63.339844 203.160156 C 42.742188 203.160156 25.695312 186.453125 25.019531 165.820312 C 43.925781 164.289062 60.636719 159 76.503906 148.261719 C 79.375 149.792969 82.246094 151.328125 85.285156 152.523438 C 84.777344 148.941406 84.609375 145.191406 84.609375 141.609375 C 84.609375 126.777344 87.816406 112.625 93.386719 99.835938 C 85.789062 94.382812 75.832031 91.140625 63.339844 91.140625 C 27.890625 91.140625 13.878906 116.375 13.878906 147.578125 C 13.878906 157.808594 16.242188 164.96875 20.292969 170.253906 C 21.644531 179.632812 25.695312 187.984375 31.773438 194.636719 C 17.253906 202.136719 11.683594 216.289062 3.917969 234.703125 Z M 3.917969 234.703125 " fill-opacity="1" fill-rule="evenodd"/></g><g clip-path="url(#1f0027229c)"><path fill="#00f3f7" d="M 343.058594 194.464844 C 349.132812 187.984375 353.1875 179.632812 354.367188 170.253906 C 358.585938 164.96875 360.949219 157.808594 360.949219 147.578125 C 360.949219 116.375 346.941406 91.140625 311.488281 91.140625 C 298.996094 91.140625 289.207031 94.210938 281.609375 99.667969 C 287.179688 112.625 290.386719 126.777344 290.386719 141.609375 C 290.386719 149.28125 289.542969 156.613281 288.023438 163.773438 C 301.023438 161.046875 313.175781 156.101562 324.65625 148.257812 C 332.421875 152.863281 340.863281 155.589844 349.808594 157.125 L 349.808594 164.625 C 349.808594 185.769531 332.589844 203.160156 311.488281 203.160156 C 298.65625 203.160156 287.179688 196.679688 280.257812 186.792969 C 279.414062 188.496094 278.570312 190.03125 277.558594 191.734375 C 278.402344 192.761719 279.078125 193.613281 279.921875 194.632812 C 277.558594 195.828125 275.195312 197.363281 273.167969 199.066406 C 269.792969 204.183594 266.078125 208.957031 261.859375 213.390625 C 258.3125 219.527344 255.441406 226.859375 252.066406 234.703125 L 371.078125 234.703125 C 363.3125 216.289062 357.742188 202.136719 343.058594 194.464844 Z M 343.058594 194.464844 " fill-opacity="1" fill-rule="evenodd"/></g><g clip-path="url(#a2ab686a32)"><path fill="#00f3f7" d="M 285.324219 141.609375 C 285.324219 87.050781 241.601562 42.890625 187.585938 42.890625 C 133.5625 42.890625 89.675781 87.050781 89.675781 141.609375 C 89.675781 169.402344 101.152344 194.464844 119.382812 212.367188 L 17.761719 310.234375 C 13.203125 314.835938 13.035156 322.339844 17.421875 327.113281 C 21.980469 331.886719 29.40625 332.058594 34.132812 327.453125 L 138.292969 227.03125 C 152.808594 235.554688 169.523438 240.332031 187.585938 240.332031 C 241.601562 240.332031 285.324219 196.171875 285.324219 141.609375 Z M 187.582031 226.859375 C 140.992188 226.859375 103.179688 188.667969 103.179688 141.609375 C 103.179688 94.550781 140.992188 56.359375 187.582031 56.359375 C 234.175781 56.359375 271.820312 94.550781 271.820312 141.609375 C 271.820312 188.667969 234.175781 226.859375 187.582031 226.859375 Z M 187.582031 226.859375 " fill-opacity="1" fill-rule="evenodd"/></g><path fill="#00f3f7" d="M 219.488281 178.097656 C 224.214844 172.128906 227.421875 164.96875 228.433594 157.296875 C 232.320312 152.351562 234.511719 145.359375 234.511719 135.640625 C 234.511719 105.976562 221.175781 81.933594 187.582031 81.933594 C 153.820312 81.933594 140.484375 105.972656 140.484375 135.640625 C 140.484375 145.359375 142.679688 152.351562 146.5625 157.296875 C 147.574219 165.140625 150.78125 172.300781 155.507812 178.097656 C 146.5625 183.382812 139.132812 190.714844 133.5625 199.75 C 147.742188 213.050781 166.648438 221.234375 187.582031 221.234375 C 208.34375 221.234375 227.421875 212.878906 241.601562 199.578125 C 236.03125 190.714844 228.433594 183.382812 219.488281 178.097656 Z M 187.582031 188.667969 C 167.832031 188.667969 151.625 172.640625 151.121094 153.03125 C 169.015625 151.667969 185.050781 146.382812 200.074219 136.152344 C 207.503906 140.585938 215.4375 143.144531 224.046875 144.679688 L 224.046875 151.839844 C 224.046875 172.128906 207.503906 188.667969 187.582031 188.667969 Z M 187.582031 188.667969 " fill-opacity="1" fill-rule="evenodd"/></svg>