<svg xmlns="http://www.w3.org/2000/svg" xmlns:xlink="http://www.w3.org/1999/xlink" width="500" zoomAndPan="magnify" viewBox="0 0 375 374.999991" height="500" preserveAspectRatio="xMidYMid meet" version="1.0"><defs><clipPath id="160e5250b9"><path d="M 13.640625 13.640625 L 361.640625 13.640625 L 361.640625 361.640625 L 13.640625 361.640625 Z M 13.640625 13.640625 " clip-rule="nonzero"/></clipPath></defs><g clip-path="url(#160e5250b9)"><path fill="#00f3f7" d="M 327.699219 305.265625 L 47.289062 305.265625 L 47.289062 120.195312 C 47.289062 110.90625 54.828125 103.371094 64.113281 103.371094 L 98.488281 103.371094 L 97.390625 104.46875 L 102.429688 114.589844 L 69.722656 114.589844 C 63.546875 114.589844 58.507812 119.628906 58.507812 125.804688 L 58.507812 282.832031 C 58.507812 289.011719 63.546875 294.050781 69.722656 294.050781 L 305.265625 294.050781 C 311.445312 294.050781 316.484375 289.011719 316.484375 282.832031 L 316.484375 148.238281 L 327.699219 148.238281 Z M 350.132812 333.308594 C 350.132812 342.597656 342.597656 350.132812 333.308594 350.132812 L 327.699219 350.132812 L 327.699219 344.523438 C 327.699219 335.234375 320.164062 327.699219 310.875 327.699219 L 266.007812 327.699219 C 256.722656 327.699219 249.183594 335.234375 249.183594 344.523438 L 249.183594 350.132812 L 41.683594 350.132812 C 32.394531 350.132812 24.859375 342.597656 24.859375 333.308594 L 24.859375 316.484375 L 350.132812 316.484375 Z M 271.617188 350.132812 L 260.402344 350.132812 L 260.402344 344.523438 C 260.402344 341.433594 262.921875 338.914062 266.007812 338.914062 L 271.617188 338.914062 Z M 294.050781 350.132812 L 282.832031 350.132812 L 282.832031 338.914062 L 294.050781 338.914062 Z M 316.484375 350.132812 L 305.265625 350.132812 L 305.265625 338.914062 L 310.875 338.914062 C 313.964844 338.914062 316.484375 341.433594 316.484375 344.523438 Z M 129.136719 88.585938 L 141.445312 94.71875 L 144.074219 93.121094 C 151.304688 88.738281 159.125 85.519531 167.320312 83.480469 L 170.320312 82.757812 L 174.703125 69.722656 L 181.886719 69.722656 L 181.886719 92.441406 C 144.292969 95.332031 114.589844 126.746094 114.589844 165.0625 C 114.589844 205.261719 147.296875 237.96875 187.496094 237.96875 C 227.695312 237.96875 260.402344 205.261719 260.402344 165.0625 C 260.402344 159.34375 259.699219 153.714844 258.40625 148.238281 L 282.832031 148.238281 L 282.832031 177.855469 L 269.800781 182.238281 L 269.078125 185.238281 C 267.039062 193.429688 263.820312 201.253906 259.4375 208.480469 L 257.839844 211.109375 L 263.972656 223.421875 L 245.855469 241.539062 L 233.542969 235.40625 L 230.914062 237.003906 C 223.683594 241.386719 215.863281 244.628906 207.671875 246.644531 L 204.671875 247.367188 L 200.289062 260.402344 L 174.703125 260.402344 L 170.320312 247.367188 L 167.320312 246.644531 C 159.125 244.628906 151.304688 241.386719 144.074219 237.003906 L 141.445312 235.40625 L 129.136719 241.539062 L 111.019531 223.421875 L 117.152344 211.109375 L 115.550781 208.480469 C 111.171875 201.253906 107.949219 193.429688 105.914062 185.238281 L 105.191406 182.238281 L 92.15625 177.855469 L 92.15625 152.269531 L 105.191406 147.886719 L 105.914062 144.886719 C 107.949219 136.691406 111.171875 128.871094 115.550781 121.640625 L 117.152344 119.015625 L 111.019531 106.703125 Z M 215.535156 159.453125 L 215.535156 148.238281 L 226.753906 148.238281 L 226.753906 212.601562 C 223.3125 215.449219 219.542969 217.878906 215.535156 219.9375 Z M 193.101562 170.671875 L 204.320312 170.671875 L 204.320312 224.363281 C 200.703125 225.394531 196.957031 226.117188 193.101562 226.46875 Z M 170.671875 181.886719 L 181.886719 181.886719 L 181.886719 226.46875 C 178.03125 226.117188 174.285156 225.394531 170.671875 224.363281 Z M 148.238281 193.101562 L 159.453125 193.101562 L 159.453125 219.9375 C 155.445312 217.878906 151.675781 215.449219 148.238281 212.601562 Z M 198.710938 148.238281 L 204.320312 148.238281 L 204.320312 159.453125 L 181.886719 159.453125 L 181.886719 170.671875 L 159.453125 170.671875 L 159.453125 181.886719 L 137.019531 181.886719 L 137.019531 200.421875 C 129.96875 190.410156 125.804688 178.207031 125.804688 165.0625 C 125.804688 132.945312 150.492188 106.503906 181.886719 103.65625 L 181.886719 131.414062 C 181.886719 140.703125 189.421875 148.238281 198.710938 148.238281 Z M 249.183594 165.0625 C 249.183594 178.207031 245.023438 190.410156 237.96875 200.421875 L 237.96875 148.238281 L 246.820312 148.238281 C 248.351562 153.691406 249.183594 159.324219 249.183594 165.0625 Z M 95.8125 190.933594 C 97.851562 198.140625 100.722656 205.0625 104.378906 211.59375 L 97.390625 225.65625 L 126.898438 255.164062 L 140.964844 248.175781 C 147.492188 251.835938 154.414062 254.707031 161.621094 256.742188 L 166.640625 271.617188 L 208.351562 271.617188 L 213.367188 256.742188 C 220.574219 254.707031 227.496094 251.835938 234.023438 248.175781 L 248.089844 255.164062 L 277.597656 225.65625 L 270.609375 211.59375 C 274.269531 205.0625 277.136719 198.140625 279.175781 190.933594 L 294.050781 185.917969 L 294.050781 148.238281 L 305.265625 148.238281 L 305.265625 282.832031 L 69.722656 282.832031 L 69.722656 125.804688 L 100.851562 125.804688 C 98.882812 130.140625 97.105469 134.589844 95.8125 139.191406 L 80.941406 144.207031 L 80.941406 185.917969 Z M 193.101562 30.464844 C 193.101562 27.378906 195.621094 24.859375 198.710938 24.859375 L 344.523438 24.859375 C 347.613281 24.859375 350.132812 27.378906 350.132812 30.464844 L 350.132812 131.414062 C 350.132812 134.5 347.613281 137.019531 344.523438 137.019531 L 198.710938 137.019531 C 195.621094 137.019531 193.101562 134.5 193.101562 131.414062 Z M 344.523438 148.238281 C 353.8125 148.238281 361.347656 140.703125 361.347656 131.414062 L 361.347656 30.464844 C 361.347656 21.175781 353.8125 13.640625 344.523438 13.640625 L 198.710938 13.640625 C 189.421875 13.640625 181.886719 21.175781 181.886719 30.464844 L 181.886719 58.507812 L 166.640625 58.507812 L 161.621094 73.382812 C 154.414062 75.417969 147.492188 78.289062 140.964844 81.945312 L 126.898438 74.957031 L 109.703125 92.15625 L 64.113281 92.15625 C 48.648438 92.15625 36.074219 104.730469 36.074219 120.195312 L 36.074219 305.265625 L 13.640625 305.265625 L 13.640625 333.308594 C 13.640625 348.773438 26.214844 361.347656 41.683594 361.347656 L 333.308594 361.347656 C 348.773438 361.347656 361.347656 348.773438 361.347656 333.308594 L 361.347656 305.265625 L 338.914062 305.265625 L 338.914062 148.238281 L 344.523438 148.238281 " fill-opacity="1" fill-rule="nonzero"/></g><path fill="#00f3f7" d="M 226.753906 68.605469 L 237.96875 66.109375 L 237.96875 84.554688 L 226.753906 82.058594 Z M 316.484375 101.992188 L 305.265625 99.496094 L 305.265625 51.167969 L 316.484375 48.671875 Z M 249.183594 87.03125 L 249.183594 63.632812 L 294.050781 53.664062 L 294.050781 96.996094 Z M 260.402344 108.980469 C 260.402344 112.070312 257.882812 114.589844 254.792969 114.589844 L 243.578125 114.589844 C 240.488281 114.589844 237.96875 112.070312 237.96875 108.980469 L 237.96875 96.035156 L 260.402344 101.027344 Z M 226.753906 108.980469 C 226.753906 118.269531 234.289062 125.804688 243.578125 125.804688 L 254.792969 125.804688 C 264.082031 125.804688 271.617188 118.269531 271.617188 108.980469 L 271.617188 103.503906 L 327.699219 115.96875 L 327.699219 34.695312 L 215.535156 59.625 L 215.535156 91.039062 L 226.753906 93.535156 L 226.753906 108.980469 " fill-opacity="1" fill-rule="nonzero"/></svg>