<svg xmlns="http://www.w3.org/2000/svg" xmlns:xlink="http://www.w3.org/1999/xlink" width="500" zoomAndPan="magnify" viewBox="0 0 375 374.999991" height="500" preserveAspectRatio="xMidYMid meet" version="1.0"><defs><clipPath id="46990a3700"><path d="M 3.074219 98.570312 L 309 98.570312 L 309 356.171875 L 3.074219 356.171875 Z M 3.074219 98.570312 " clip-rule="nonzero"/></clipPath><clipPath id="50bb3cd2e9"><path d="M 112.433594 18.820312 L 371.914062 18.820312 L 371.914062 215.433594 L 112.433594 215.433594 Z M 112.433594 18.820312 " clip-rule="nonzero"/></clipPath></defs><g clip-path="url(#46990a3700)"><path fill="#00f3f7" d="M 283.582031 274.710938 L 283.582031 186.554688 C 283.582031 182.867188 280.589844 179.875 276.902344 179.875 C 274.40625 179.875 272.238281 181.242188 271.089844 183.265625 C 270.539062 184.238281 270.222656 185.359375 270.222656 186.554688 L 270.222656 276.269531 C 270.222656 277.292969 270.457031 278.304688 270.90625 279.222656 L 295.621094 329.394531 L 295.621094 342.8125 L 16.433594 342.8125 L 16.433594 329.394531 L 41.140625 279.222656 C 41.59375 278.300781 41.828125 277.292969 41.828125 276.269531 L 41.828125 111.96875 L 133.332031 111.96875 C 135.824219 111.96875 137.996094 110.601562 139.144531 108.578125 C 139.695312 107.605469 140.011719 106.484375 140.011719 105.289062 C 140.011719 101.601562 137.023438 98.609375 133.332031 98.609375 L 35.148438 98.609375 C 31.460938 98.609375 28.46875 101.601562 28.46875 105.289062 L 28.46875 274.710938 L 3.761719 324.886719 C 3.308594 325.800781 3.074219 326.8125 3.074219 327.835938 L 3.074219 349.492188 C 3.074219 353.183594 6.066406 356.171875 9.753906 356.171875 L 302.304688 356.171875 C 305.992188 356.171875 308.984375 353.183594 308.984375 349.492188 L 308.984375 327.835938 C 308.984375 326.8125 308.75 325.800781 308.296875 324.886719 L 283.582031 274.710938 " fill-opacity="1" fill-rule="nonzero"/></g><path fill="#00f3f7" d="M 256.472656 182.882812 C 253.886719 182.882812 251.644531 184.355469 250.535156 186.511719 C 250.0625 187.425781 249.792969 188.460938 249.792969 189.5625 L 249.792969 254.675781 L 63.804688 254.675781 L 63.804688 132.992188 L 133.332031 132.992188 C 135.921875 132.992188 138.164062 131.515625 139.273438 129.363281 C 139.742188 128.445312 140.011719 127.414062 140.011719 126.3125 C 140.011719 122.625 137.023438 119.632812 133.332031 119.632812 L 57.125 119.632812 C 53.433594 119.632812 50.441406 122.625 50.441406 126.3125 L 50.441406 261.355469 C 50.441406 265.046875 53.433594 268.039062 57.125 268.039062 L 256.472656 268.039062 C 260.164062 268.039062 263.15625 265.046875 263.15625 261.355469 L 263.15625 189.5625 C 263.15625 185.871094 260.164062 182.882812 256.472656 182.882812 " fill-opacity="1" fill-rule="nonzero"/><path fill="#00f3f7" d="M 222.214844 317.785156 L 220.773438 311.089844 L 259.257812 311.089844 L 262.140625 317.785156 Z M 216.332031 290.476562 L 250.375 290.476562 L 253.5 297.730469 L 217.894531 297.730469 Z M 163.460938 317.785156 L 163.460938 311.089844 L 207.105469 311.089844 L 208.546875 317.785156 Z M 150.097656 297.730469 L 109.328125 297.730469 L 110.890625 290.476562 L 150.097656 290.476562 Z M 150.097656 317.785156 L 105.007812 317.785156 L 106.449219 311.089844 L 150.097656 311.089844 Z M 95.660156 297.730469 L 58.878906 297.730469 L 62.003906 290.476562 L 97.222656 290.476562 Z M 91.339844 317.785156 L 50.238281 317.785156 L 53.121094 311.089844 L 92.78125 311.089844 Z M 163.460938 290.476562 L 202.664062 290.476562 L 204.230469 297.730469 L 163.460938 297.730469 Z M 254.769531 277.113281 L 57.609375 277.113281 C 54.941406 277.113281 52.53125 278.703125 51.472656 281.152344 L 33.949219 321.824219 C 33.058594 323.886719 33.269531 326.261719 34.503906 328.136719 C 35.738281 330.015625 37.835938 331.144531 40.085938 331.144531 L 272.296875 331.144531 C 272.300781 331.144531 272.304688 331.144531 272.308594 331.144531 C 276 331.144531 278.988281 328.15625 278.988281 324.464844 C 278.988281 323.375 278.726562 322.34375 278.261719 321.433594 L 260.902344 281.148438 C 259.851562 278.699219 257.4375 277.113281 254.769531 277.113281 " fill-opacity="1" fill-rule="nonzero"/><g clip-path="url(#50bb3cd2e9)"><path fill="#00f3f7" d="M 305.089844 114.414062 C 305.050781 114.414062 305.011719 114.414062 304.976562 114.414062 C 304.574219 114.414062 304.183594 114.460938 303.800781 114.527344 C 303.171875 114.332031 302.503906 114.226562 301.808594 114.226562 C 301.257812 114.226562 300.730469 114.300781 300.21875 114.425781 C 299.886719 114.367188 299.546875 114.324219 299.195312 114.316406 L 262.03125 113.699219 L 226.800781 113.109375 L 200.570312 89.5625 L 136.976562 32.476562 L 257.664062 34.5 L 347.460938 115.121094 Z M 302.140625 176.59375 C 300.761719 176.59375 299.640625 175.472656 299.640625 174.09375 C 299.640625 172.714844 300.761719 171.59375 302.140625 171.59375 C 303.519531 171.59375 304.640625 172.714844 304.640625 174.09375 C 304.640625 175.472656 303.519531 176.59375 302.140625 176.59375 Z M 278.101562 147.882812 C 278.042969 148.007812 277.984375 148.140625 277.929688 148.269531 C 277.902344 148.347656 277.871094 148.425781 277.84375 148.507812 C 277.8125 148.578125 277.777344 148.65625 277.738281 148.746094 C 277.613281 149.046875 277.46875 149.339844 277.324219 149.632812 C 275.96875 152.421875 273.867188 154.875 271.09375 156.921875 C 269.597656 158.023438 267.875 159.03125 265.972656 159.917969 L 265.5 160.125 C 258.71875 163.15625 249.992188 164.53125 240.285156 164.097656 C 239.136719 164.046875 237.984375 163.964844 236.816406 163.863281 C 232.898438 163.523438 228.898438 162.90625 224.882812 162.015625 C 221.628906 161.292969 218.308594 160.375 215.019531 159.292969 C 213.101562 158.65625 211.230469 157.984375 209.457031 157.289062 C 209.023438 157.117188 208.597656 156.941406 208.175781 156.765625 L 207.753906 156.589844 C 202.546875 154.441406 197.59375 151.925781 193.035156 149.117188 C 187.914062 145.960938 183.285156 142.449219 179.277344 138.6875 C 174.671875 134.355469 170.960938 129.730469 168.367188 125.121094 C 167.617188 123.785156 166.957031 122.453125 166.398438 121.132812 C 166.058594 120.324219 165.742188 119.472656 165.457031 118.601562 C 165.125 117.585938 164.855469 116.601562 164.660156 115.691406 C 164.003906 112.613281 163.960938 109.671875 164.539062 106.953125 C 164.660156 106.382812 164.777344 105.90625 164.902344 105.488281 C 165.042969 105.023438 165.191406 104.597656 165.351562 104.1875 C 165.351562 104.1875 165.351562 104.1875 165.351562 104.183594 C 165.359375 104.164062 165.367188 104.144531 165.375 104.125 L 173.5625 83.273438 L 219.730469 124.71875 C 220.929688 125.792969 222.472656 126.402344 224.082031 126.429688 L 286.121094 127.464844 Z M 369.699219 117.125 L 264.734375 22.890625 C 263.535156 21.816406 261.992188 21.210938 260.382812 21.183594 L 119.308594 18.820312 C 116.515625 18.777344 114 20.460938 112.980469 23.058594 C 111.960938 25.652344 112.660156 28.609375 114.738281 30.472656 L 163.003906 73.800781 C 162.851562 74.070312 162.710938 74.351562 162.59375 74.648438 L 152.945312 99.21875 C 152.941406 99.230469 152.9375 99.238281 152.933594 99.25 C 152.929688 99.261719 152.921875 99.277344 152.917969 99.292969 C 152.628906 100.03125 152.355469 100.820312 152.113281 101.617188 C 151.878906 102.402344 151.664062 103.246094 151.464844 104.195312 C 150.707031 107.769531 150.582031 111.503906 151.066406 115.324219 C 151.199219 116.371094 151.367188 117.425781 151.59375 118.484375 C 151.886719 119.863281 152.28125 121.300781 152.757812 122.761719 C 153.160156 123.980469 153.605469 125.175781 154.085938 126.316406 C 156.335938 131.660156 159.746094 137.023438 164.101562 142.113281 C 165.945312 144.273438 167.957031 146.382812 170.128906 148.421875 C 174.789062 152.800781 180.136719 156.863281 186.023438 160.492188 C 191.195312 163.675781 196.789062 166.519531 202.652344 168.941406 L 203.050781 169.105469 C 203.554688 169.3125 204.058594 169.523438 204.574219 169.722656 C 206.574219 170.511719 208.679688 171.269531 210.835938 171.980469 C 214.546875 173.203125 218.296875 174.238281 221.984375 175.058594 C 225.164062 175.765625 228.332031 176.316406 231.480469 176.722656 C 234.242188 177.078125 236.984375 177.324219 239.6875 177.445312 C 241.039062 177.503906 242.378906 177.535156 243.703125 177.535156 C 248.914062 177.535156 253.894531 177.070312 258.542969 176.164062 C 263.015625 175.289062 267.183594 174.007812 270.9375 172.328125 L 271.09375 172.261719 C 271.265625 172.1875 271.4375 172.113281 271.609375 172.03125 C 274.320312 170.769531 276.8125 169.304688 279.023438 167.675781 C 283.554688 164.332031 287.027344 160.230469 289.335938 155.484375 C 289.539062 155.070312 289.785156 154.558594 290.03125 153.980469 L 290.054688 153.925781 C 290.160156 153.707031 290.257812 153.488281 290.347656 153.257812 C 290.359375 153.230469 290.371094 153.199219 290.382812 153.171875 L 295.128906 141.082031 L 295.128906 159.871094 C 289.890625 162.464844 286.277344 167.863281 286.277344 174.09375 C 286.277344 180.324219 289.890625 185.722656 295.128906 188.316406 L 295.128906 208.605469 C 295.128906 212.292969 298.117188 215.285156 301.808594 215.285156 C 305.496094 215.285156 308.492188 212.292969 308.492188 208.605469 L 308.492188 188.628906 C 314.085938 186.171875 318 180.582031 318 174.09375 C 318 167.605469 314.085938 162.015625 308.492188 159.5625 L 308.492188 127.835938 L 365.125 128.777344 C 365.160156 128.777344 365.199219 128.777344 365.234375 128.777344 C 367.976562 128.777344 370.445312 127.097656 371.449219 124.539062 C 372.472656 121.941406 371.773438 118.988281 369.699219 117.125 " fill-opacity="1" fill-rule="nonzero"/></g></svg>