<svg xmlns="http://www.w3.org/2000/svg" xmlns:xlink="http://www.w3.org/1999/xlink" width="500" zoomAndPan="magnify" viewBox="0 0 375 374.999991" height="500" preserveAspectRatio="xMidYMid meet" version="1.0"><defs><clipPath id="dda35f9b7d"><path d="M 263 261 L 363 261 L 363 360.613281 L 263 360.613281 Z M 263 261 " clip-rule="nonzero"/></clipPath><clipPath id="0ca1717cba"><path d="M 12 279 L 71 279 L 71 360.613281 L 12 360.613281 Z M 12 279 " clip-rule="nonzero"/></clipPath></defs><g clip-path="url(#dda35f9b7d)"><path fill="#00f3f7" d="M 357.078125 290.710938 L 333.6875 290.710938 C 330.472656 290.710938 327.839844 293.34375 327.839844 296.558594 L 326.203125 296.558594 L 315.851562 265.449219 C 315.03125 263.109375 312.8125 261.472656 310.296875 261.472656 C 302.929688 261.472656 296.203125 264.921875 291.875 270.886719 C 287.546875 276.910156 286.4375 284.335938 288.777344 291.355469 L 290.472656 296.558594 L 281.058594 296.558594 C 271.410156 296.558594 263.515625 304.453125 263.515625 314.101562 L 263.515625 343.339844 C 263.515625 352.988281 271.410156 360.882812 281.058594 360.882812 L 316.144531 360.882812 C 317.3125 360.882812 318.425781 360.53125 319.359375 359.890625 L 327.839844 354.21875 L 327.839844 355.035156 C 327.839844 358.253906 330.472656 360.882812 333.6875 360.882812 L 357.078125 360.882812 C 360.292969 360.882812 362.925781 358.253906 362.925781 355.035156 L 362.925781 296.558594 C 362.925781 293.34375 360.292969 290.710938 357.078125 290.710938 Z M 314.390625 349.1875 L 281.058594 349.1875 C 277.839844 349.1875 275.210938 346.558594 275.210938 343.339844 L 275.210938 314.101562 C 275.210938 310.886719 277.839844 308.253906 281.058594 308.253906 L 298.601562 308.253906 C 300.472656 308.253906 302.226562 307.378906 303.335938 305.796875 C 304.449219 304.277344 304.742188 302.347656 304.15625 300.535156 L 299.828125 287.671875 C 298.71875 284.277344 299.242188 280.652344 301.347656 277.730469 C 302.636719 275.976562 304.390625 274.628906 306.320312 273.871094 L 316.4375 304.277344 C 317.253906 306.617188 319.476562 308.253906 321.992188 308.253906 L 327.839844 308.253906 L 327.839844 340.183594 Z M 314.390625 349.1875 " fill-opacity="1" fill-rule="nonzero"/></g><path fill="#00f3f7" d="M 316.144531 109.433594 C 341.933594 109.433594 362.925781 88.4375 362.925781 62.648438 C 362.925781 36.863281 341.933594 15.867188 316.144531 15.867188 C 290.355469 15.867188 269.363281 36.863281 269.363281 62.648438 C 269.363281 88.4375 290.355469 109.433594 316.144531 109.433594 Z M 304.449219 45.105469 L 333.6875 62.648438 L 304.449219 80.191406 Z M 304.449219 45.105469 " fill-opacity="1" fill-rule="nonzero"/><path fill="#00f3f7" d="M 328.890625 261.765625 C 329.710938 262.117188 330.53125 262.292969 331.289062 262.292969 C 333.511719 262.292969 335.675781 261.003906 336.667969 258.839844 C 346.316406 237.496094 351.230469 214.75 351.230469 191.300781 C 351.230469 167.441406 346.144531 144.402344 336.203125 122.765625 C 334.855469 119.839844 331.347656 118.554688 328.425781 119.898438 C 325.5 121.246094 324.214844 124.753906 325.558594 127.675781 C 334.855469 147.734375 339.535156 169.136719 339.535156 191.300781 C 339.535156 213.113281 334.972656 234.164062 325.96875 253.988281 C 324.679688 256.96875 325.96875 260.417969 328.890625 261.765625 Z M 328.890625 261.765625 " fill-opacity="1" fill-rule="nonzero"/><path fill="#00f3f7" d="M 276.320312 195.394531 C 277.78125 194.984375 279.070312 193.988281 279.828125 192.644531 L 291.523438 172.410156 C 292.34375 171.066406 292.519531 169.429688 292.109375 167.96875 C 291.757812 166.445312 290.765625 165.160156 289.417969 164.402344 L 280.941406 159.488281 C 281 158.378906 281.058594 157.324219 281.058594 156.214844 C 281.058594 155.101562 281 154.050781 280.941406 152.9375 L 289.417969 148.027344 C 290.765625 147.265625 291.757812 145.980469 292.109375 144.460938 C 292.519531 142.996094 292.34375 141.359375 291.523438 140.015625 L 279.828125 119.78125 C 279.070312 118.4375 277.78125 117.441406 276.320312 117.035156 C 274.800781 116.625 273.222656 116.859375 271.875 117.617188 L 263.339844 122.53125 C 261.585938 121.304688 259.65625 120.191406 257.667969 119.257812 L 257.667969 109.433594 C 257.667969 106.214844 255.035156 103.585938 251.820312 103.585938 L 228.429688 103.585938 C 225.210938 103.585938 222.582031 106.214844 222.582031 109.433594 L 222.582031 119.257812 C 220.59375 120.191406 218.664062 121.304688 216.910156 122.53125 L 208.371094 117.617188 C 207.027344 116.859375 205.445312 116.625 203.925781 117.035156 C 202.464844 117.441406 201.179688 118.4375 200.417969 119.78125 L 188.722656 140.015625 C 187.902344 141.359375 187.726562 142.996094 188.136719 144.460938 C 188.546875 145.980469 189.484375 147.265625 190.828125 148.027344 L 199.304688 152.9375 C 199.25 154.050781 199.191406 155.101562 199.191406 156.214844 C 199.191406 157.324219 199.25 158.378906 199.304688 159.488281 L 195.332031 161.828125 L 193.75 160.25 C 191.46875 157.96875 187.785156 157.96875 185.507812 160.25 L 178.253906 167.5 C 177.4375 167.148438 176.617188 166.796875 175.796875 166.445312 L 175.796875 156.214844 C 175.796875 152.996094 173.167969 150.367188 169.949219 150.367188 L 134.863281 150.367188 C 131.648438 150.367188 129.015625 152.996094 129.015625 156.214844 L 129.015625 166.445312 C 128.199219 166.796875 127.378906 167.148438 126.5625 167.5 L 119.308594 160.25 C 117.027344 157.96875 113.34375 157.96875 111.066406 160.25 L 86.269531 185.042969 C 85.160156 186.152344 84.515625 187.617188 84.515625 189.195312 C 84.515625 190.714844 85.160156 192.234375 86.269531 193.289062 L 93.519531 200.539062 C 93.171875 201.359375 92.820312 202.175781 92.46875 202.996094 L 82.234375 202.996094 C 79.019531 202.996094 76.386719 205.625 76.386719 208.84375 L 76.386719 243.929688 C 76.386719 247.144531 79.019531 249.777344 82.234375 249.777344 L 92.46875 249.777344 C 92.820312 250.597656 93.171875 251.414062 93.519531 252.234375 L 86.269531 259.484375 C 85.160156 260.535156 84.515625 262.058594 84.515625 263.578125 C 84.515625 265.15625 85.160156 266.617188 86.269531 267.730469 L 111.066406 292.523438 C 113.34375 294.804688 117.027344 294.804688 119.308594 292.523438 L 126.5625 285.273438 C 127.378906 285.625 128.199219 285.972656 129.015625 286.324219 L 129.015625 296.558594 C 129.015625 299.773438 131.648438 302.40625 134.863281 302.40625 L 169.949219 302.40625 C 173.167969 302.40625 175.796875 299.773438 175.796875 296.558594 L 175.796875 286.324219 C 176.617188 285.972656 177.4375 285.625 178.253906 285.273438 L 185.507812 292.523438 C 187.785156 294.804688 191.46875 294.804688 193.75 292.523438 L 218.546875 267.730469 C 219.65625 266.617188 220.300781 265.15625 220.300781 263.578125 C 220.300781 262.058594 219.65625 260.535156 218.546875 259.484375 L 211.292969 252.234375 C 211.644531 251.414062 211.996094 250.597656 212.347656 249.777344 L 222.582031 249.777344 C 225.796875 249.777344 228.429688 247.144531 228.429688 243.929688 L 228.429688 208.84375 L 251.820312 208.84375 C 255.035156 208.84375 257.667969 206.210938 257.667969 202.996094 L 257.667969 193.171875 C 259.65625 192.234375 261.585938 191.125 263.339844 189.894531 L 271.875 194.808594 C 273.222656 195.570312 274.800781 195.800781 276.320312 195.394531 Z M 240.125 173.757812 C 230.476562 173.757812 222.582031 165.863281 222.582031 156.214844 C 222.582031 146.566406 230.476562 138.671875 240.125 138.671875 C 249.773438 138.671875 257.667969 146.566406 257.667969 156.214844 C 257.667969 165.863281 249.773438 173.757812 240.125 173.757812 Z M 216.734375 238.082031 L 208.195312 238.082031 C 205.621094 238.082031 203.398438 239.71875 202.640625 242.175781 C 201.703125 244.980469 200.535156 247.847656 199.074219 250.710938 C 197.84375 252.992188 198.3125 255.742188 200.125 257.554688 L 206.148438 263.578125 L 189.597656 280.125 L 183.578125 274.105469 C 181.761719 272.289062 179.015625 271.882812 176.734375 273.050781 C 173.867188 274.511719 171.003906 275.683594 168.195312 276.617188 C 165.742188 277.378906 164.101562 279.601562 164.101562 282.171875 L 164.101562 290.710938 L 140.710938 290.710938 L 140.710938 282.171875 C 140.710938 279.601562 139.074219 277.378906 136.617188 276.617188 C 133.8125 275.683594 130.945312 274.511719 128.082031 273.050781 C 125.859375 271.882812 123.050781 272.289062 121.238281 274.105469 L 115.214844 280.125 L 98.667969 263.578125 L 104.691406 257.554688 C 106.503906 255.742188 106.972656 252.933594 105.742188 250.710938 C 104.28125 247.90625 103.113281 245.039062 102.175781 242.175781 C 101.414062 239.71875 99.195312 238.082031 96.621094 238.082031 L 88.082031 238.082031 L 88.082031 214.691406 L 96.621094 214.691406 C 99.195312 214.691406 101.414062 213.054688 102.175781 210.597656 C 103.113281 207.730469 104.28125 204.867188 105.742188 202.058594 C 106.972656 199.835938 106.503906 197.03125 104.691406 195.21875 L 98.667969 189.195312 L 115.214844 172.644531 L 121.238281 178.667969 C 123.050781 180.480469 125.859375 180.949219 128.082031 179.722656 C 130.945312 178.257812 133.8125 177.089844 136.617188 176.15625 C 139.074219 175.394531 140.710938 173.171875 140.710938 170.597656 L 140.710938 162.0625 L 164.101562 162.0625 L 164.101562 170.597656 C 164.101562 173.171875 165.742188 175.394531 168.195312 176.15625 C 171.003906 177.089844 173.867188 178.257812 176.734375 179.722656 C 179.015625 180.949219 181.761719 180.480469 183.578125 178.667969 L 189.597656 172.644531 L 206.148438 189.195312 L 200.125 195.21875 C 198.3125 197.03125 197.84375 199.777344 199.074219 202.058594 C 200.535156 204.925781 201.703125 207.789062 202.640625 210.597656 C 203.398438 213.054688 205.621094 214.691406 208.195312 214.691406 L 216.734375 214.691406 Z M 212.347656 202.996094 C 211.996094 202.175781 211.644531 201.359375 211.292969 200.539062 L 218.546875 193.289062 C 219.011719 192.820312 219.421875 192.292969 219.714844 191.652344 C 220.652344 192.234375 221.585938 192.703125 222.582031 193.171875 L 222.582031 202.996094 Z M 212.347656 202.996094 " fill-opacity="1" fill-rule="nonzero"/><path fill="#00f3f7" d="M 257.667969 45.105469 C 257.667969 45.492188 257.628906 45.871094 257.554688 46.246094 C 257.480469 46.625 257.367188 46.988281 257.222656 47.34375 C 257.074219 47.699219 256.894531 48.035156 256.679688 48.355469 C 256.46875 48.675781 256.226562 48.96875 255.953125 49.242188 C 255.683594 49.511719 255.386719 49.757812 255.066406 49.96875 C 254.75 50.183594 254.410156 50.363281 254.058594 50.507812 C 253.703125 50.65625 253.335938 50.765625 252.960938 50.84375 C 252.582031 50.917969 252.203125 50.953125 251.820312 50.953125 C 251.433594 50.953125 251.054688 50.917969 250.679688 50.84375 C 250.300781 50.765625 249.9375 50.65625 249.582031 50.507812 C 249.226562 50.363281 248.890625 50.183594 248.570312 49.96875 C 248.25 49.757812 247.957031 49.511719 247.683594 49.242188 C 247.414062 48.96875 247.171875 48.675781 246.957031 48.355469 C 246.742188 48.035156 246.5625 47.699219 246.417969 47.34375 C 246.269531 46.988281 246.160156 46.625 246.082031 46.246094 C 246.007812 45.871094 245.972656 45.492188 245.972656 45.105469 C 245.972656 44.722656 246.007812 44.34375 246.082031 43.964844 C 246.160156 43.589844 246.269531 43.222656 246.417969 42.871094 C 246.5625 42.515625 246.742188 42.175781 246.957031 41.859375 C 247.171875 41.539062 247.414062 41.242188 247.683594 40.972656 C 247.957031 40.699219 248.25 40.457031 248.570312 40.246094 C 248.890625 40.03125 249.226562 39.851562 249.582031 39.703125 C 249.9375 39.558594 250.300781 39.445312 250.679688 39.371094 C 251.054688 39.296875 251.433594 39.257812 251.820312 39.257812 C 252.203125 39.257812 252.582031 39.296875 252.960938 39.371094 C 253.335938 39.445312 253.703125 39.558594 254.058594 39.703125 C 254.410156 39.851562 254.75 40.03125 255.066406 40.246094 C 255.386719 40.457031 255.683594 40.699219 255.953125 40.972656 C 256.226562 41.242188 256.46875 41.539062 256.679688 41.859375 C 256.894531 42.175781 257.074219 42.515625 257.222656 42.871094 C 257.367188 43.222656 257.480469 43.589844 257.554688 43.964844 C 257.628906 44.34375 257.667969 44.722656 257.667969 45.105469 Z M 257.667969 45.105469 " fill-opacity="1" fill-rule="nonzero"/><path fill="#00f3f7" d="M 243.808594 332.523438 C 225.796875 339.714844 206.851562 343.339844 187.496094 343.339844 C 149.777344 343.339844 113.636719 329.421875 85.683594 304.160156 C 83.289062 301.996094 79.546875 302.230469 77.382812 304.628906 C 75.21875 307.027344 75.453125 310.710938 77.847656 312.875 C 107.964844 340.066406 146.910156 355.035156 187.496094 355.035156 C 208.371094 355.035156 228.777344 351.117188 248.136719 343.398438 C 251.117188 342.171875 252.578125 338.777344 251.410156 335.796875 C 250.183594 332.757812 246.789062 331.351562 243.808594 332.523438 Z M 243.808594 332.523438 " fill-opacity="1" fill-rule="nonzero"/><path fill="#00f3f7" d="M 187.496094 75.046875 L 217.609375 44.929688 C 224.21875 38.265625 224.21875 27.503906 217.609375 20.839844 C 214.277344 17.503906 209.949219 15.867188 205.5625 15.867188 C 201.179688 15.867188 196.851562 17.503906 193.515625 20.839844 L 187.496094 26.863281 L 181.472656 20.839844 C 174.804688 14.230469 164.042969 14.230469 157.378906 20.839844 C 154.046875 24.171875 152.40625 28.5 152.40625 32.886719 C 152.40625 37.269531 154.046875 41.597656 157.378906 44.929688 Z M 187.496094 75.046875 " fill-opacity="1" fill-rule="nonzero"/><path fill="#00f3f7" d="M 152.40625 191.300781 C 133.050781 191.300781 117.320312 207.03125 117.320312 226.386719 C 117.320312 245.742188 133.050781 261.472656 152.40625 261.472656 C 171.765625 261.472656 187.496094 245.742188 187.496094 226.386719 C 187.496094 207.03125 171.765625 191.300781 152.40625 191.300781 Z M 152.40625 249.777344 C 139.484375 249.777344 129.015625 239.308594 129.015625 226.386719 C 129.015625 213.460938 139.484375 202.996094 152.40625 202.996094 C 165.332031 202.996094 175.796875 213.460938 175.796875 226.386719 C 175.796875 239.308594 165.332031 249.777344 152.40625 249.777344 Z M 152.40625 249.777344 " fill-opacity="1" fill-rule="nonzero"/><path fill="#00f3f7" d="M 114.691406 143.875 C 115.507812 144.285156 116.445312 144.519531 117.320312 144.519531 C 118.375 144.519531 119.484375 144.226562 120.421875 143.640625 C 122.117188 142.589844 123.167969 140.71875 123.167969 138.671875 L 123.167969 125.980469 C 129.953125 123.582031 134.863281 117.035156 134.863281 109.433594 L 134.863281 86.039062 C 134.863281 76.390625 126.96875 68.496094 117.320312 68.496094 L 93.929688 68.496094 L 93.929688 62.648438 C 93.929688 53 86.035156 45.105469 76.386719 45.105469 L 29.605469 45.105469 C 19.957031 45.105469 12.0625 53 12.0625 62.648438 L 12.0625 86.039062 C 12.0625 93.644531 16.976562 100.191406 23.757812 102.589844 L 23.757812 115.28125 C 23.757812 117.328125 24.8125 119.199219 26.507812 120.25 C 27.441406 120.835938 28.554688 121.128906 29.605469 121.128906 C 30.484375 121.128906 31.417969 120.894531 32.238281 120.484375 L 53.054688 110.074219 C 53.347656 119.429688 61.125 126.976562 70.539062 126.976562 L 80.832031 126.976562 Z M 64.691406 109.433594 L 64.691406 86.039062 C 64.691406 82.824219 67.324219 80.191406 70.539062 80.191406 L 117.320312 80.191406 C 120.539062 80.191406 123.167969 82.824219 123.167969 86.039062 L 123.167969 109.433594 C 123.167969 112.648438 120.539062 115.28125 117.320312 115.28125 C 114.105469 115.28125 111.472656 117.910156 111.472656 121.128906 L 111.472656 129.195312 L 84.867188 115.921875 C 84.046875 115.511719 83.171875 115.28125 82.234375 115.28125 L 70.539062 115.28125 C 67.324219 115.28125 64.691406 112.648438 64.691406 109.433594 Z M 64.691406 109.433594 " fill-opacity="1" fill-rule="nonzero"/><path fill="#00f3f7" d="M 134.863281 50.953125 C 134.863281 51.339844 134.828125 51.71875 134.753906 52.09375 C 134.675781 52.472656 134.566406 52.835938 134.417969 53.191406 C 134.273438 53.546875 134.09375 53.882812 133.878906 54.203125 C 133.664062 54.523438 133.421875 54.816406 133.152344 55.089844 C 132.878906 55.359375 132.585938 55.605469 132.265625 55.816406 C 131.945312 56.03125 131.609375 56.210938 131.253906 56.355469 C 130.898438 56.503906 130.535156 56.613281 130.15625 56.691406 C 129.78125 56.765625 129.402344 56.800781 129.015625 56.800781 C 128.632812 56.800781 128.253906 56.765625 127.875 56.691406 C 127.5 56.613281 127.132812 56.503906 126.777344 56.355469 C 126.425781 56.210938 126.085938 56.03125 125.769531 55.816406 C 125.449219 55.605469 125.152344 55.359375 124.882812 55.089844 C 124.609375 54.816406 124.367188 54.523438 124.15625 54.203125 C 123.941406 53.882812 123.761719 53.546875 123.613281 53.191406 C 123.46875 52.835938 123.355469 52.472656 123.28125 52.09375 C 123.207031 51.71875 123.167969 51.339844 123.167969 50.953125 C 123.167969 50.570312 123.207031 50.191406 123.28125 49.8125 C 123.355469 49.4375 123.46875 49.070312 123.613281 48.71875 C 123.761719 48.363281 123.941406 48.023438 124.15625 47.707031 C 124.367188 47.386719 124.609375 47.089844 124.882812 46.820312 C 125.152344 46.546875 125.449219 46.304688 125.769531 46.09375 C 126.085938 45.878906 126.425781 45.699219 126.777344 45.550781 C 127.132812 45.40625 127.5 45.292969 127.875 45.21875 C 128.253906 45.144531 128.632812 45.105469 129.015625 45.105469 C 129.402344 45.105469 129.78125 45.144531 130.15625 45.21875 C 130.535156 45.292969 130.898438 45.40625 131.253906 45.550781 C 131.609375 45.699219 131.945312 45.878906 132.265625 46.09375 C 132.585938 46.304688 132.878906 46.546875 133.152344 46.820312 C 133.421875 47.089844 133.664062 47.386719 133.878906 47.707031 C 134.09375 48.023438 134.273438 48.363281 134.417969 48.71875 C 134.566406 49.070312 134.675781 49.4375 134.753906 49.8125 C 134.828125 50.191406 134.863281 50.570312 134.863281 50.953125 Z M 134.863281 50.953125 " fill-opacity="1" fill-rule="nonzero"/><g clip-path="url(#0ca1717cba)"><path fill="#00f3f7" d="M 59.195312 317.492188 C 62.585938 313.457031 64.691406 308.195312 64.691406 302.40625 C 64.691406 289.484375 54.226562 279.015625 41.300781 279.015625 C 28.378906 279.015625 17.910156 289.484375 17.910156 302.40625 C 17.910156 308.195312 20.015625 313.457031 23.40625 317.492188 C 16.625 321.527344 12.0625 328.957031 12.0625 337.492188 L 12.0625 355.035156 C 12.0625 358.253906 14.695312 360.882812 17.910156 360.882812 L 64.691406 360.882812 C 67.910156 360.882812 70.539062 358.253906 70.539062 355.035156 L 70.539062 337.492188 C 70.539062 328.957031 65.980469 321.527344 59.195312 317.492188 Z M 59.195312 317.492188 " fill-opacity="1" fill-rule="nonzero"/></g><path fill="#00f3f7" d="M 41.417969 131.070312 C 38.378906 129.957031 34.984375 131.476562 33.875 134.519531 C 27.148438 152.703125 23.757812 171.769531 23.757812 191.300781 C 23.757812 216.914062 29.546875 241.53125 41.007812 264.394531 C 42.003906 266.441406 44.109375 267.671875 46.214844 267.671875 C 47.089844 267.671875 48.027344 267.4375 48.84375 267.027344 C 51.710938 265.566406 52.878906 262.058594 51.476562 259.191406 C 40.832031 237.964844 35.453125 215.101562 35.453125 191.300781 C 35.453125 173.171875 38.613281 155.453125 44.867188 138.554688 C 45.980469 135.570312 44.402344 132.179688 41.417969 131.070312 Z M 41.417969 131.070312 " fill-opacity="1" fill-rule="nonzero"/></svg>