<svg xmlns="http://www.w3.org/2000/svg" xmlns:xlink="http://www.w3.org/1999/xlink" width="500" zoomAndPan="magnify" viewBox="0 0 375 374.999991" height="500" preserveAspectRatio="xMidYMid meet" version="1.0"><defs><clipPath id="76784feda7"><path d="M 6.722656 9.535156 L 240 9.535156 L 240 365.335938 L 6.722656 365.335938 Z M 6.722656 9.535156 " clip-rule="nonzero"/></clipPath><clipPath id="b395bf9c22"><path d="M 208.246094 9.535156 L 368.097656 9.535156 L 368.097656 295 L 208.246094 295 Z M 208.246094 9.535156 " clip-rule="nonzero"/></clipPath></defs><path fill="#00f3f7" d="M 136.515625 209.609375 C 122.253906 209.609375 110.65625 198.011719 110.65625 183.75 C 110.65625 169.488281 122.253906 157.875 136.515625 157.875 C 150.78125 157.875 162.390625 169.488281 162.390625 183.75 C 162.390625 198.011719 150.78125 209.609375 136.515625 209.609375 Z M 180.34375 183.691406 C 180.332031 180.566406 181.480469 177.542969 183.761719 175.402344 L 194.261719 165.445312 C 195.265625 164.496094 195.488281 162.980469 194.792969 161.777344 L 184.6875 144.261719 C 183.992188 143.058594 182.566406 142.492188 181.238281 142.886719 L 167.308594 147.027344 C 164.300781 147.921875 161.105469 147.410156 158.410156 145.835938 C 158.375 145.8125 158.351562 145.800781 158.316406 145.777344 C 155.640625 144.226562 153.652344 141.738281 152.921875 138.730469 L 149.550781 124.59375 C 149.226562 123.25 148.023438 122.289062 146.636719 122.289062 L 126.410156 122.289062 C 125.023438 122.289062 123.816406 123.25 123.492188 124.59375 L 120.125 138.730469 C 119.40625 141.738281 117.40625 144.226562 114.730469 145.777344 C 114.695312 145.800781 114.671875 145.8125 114.636719 145.835938 C 111.941406 147.410156 108.734375 147.921875 105.734375 147.027344 L 91.808594 142.886719 C 90.476562 142.492188 89.054688 143.058594 88.359375 144.261719 L 78.253906 161.777344 C 77.558594 162.980469 77.777344 164.496094 78.785156 165.445312 L 89.285156 175.402344 C 91.554688 177.542969 92.710938 180.566406 92.699219 183.691406 C 92.699219 183.703125 92.699219 183.726562 92.699219 183.75 C 92.699219 183.761719 92.699219 183.785156 92.699219 183.808594 C 92.710938 186.933594 91.554688 189.941406 89.285156 192.097656 L 78.785156 202.039062 C 77.777344 202.988281 77.558594 204.503906 78.253906 205.710938 L 88.359375 223.226562 C 89.054688 224.429688 90.476562 224.996094 91.808594 224.601562 L 105.734375 220.457031 C 108.734375 219.566406 111.929688 220.074219 114.636719 221.660156 C 114.660156 221.671875 114.695312 221.695312 114.730469 221.707031 C 117.40625 223.257812 119.40625 225.761719 120.125 228.769531 L 123.492188 242.894531 C 123.816406 244.246094 125.023438 245.195312 126.410156 245.195312 L 146.636719 245.195312 C 148.023438 245.195312 149.226562 244.246094 149.550781 242.894531 L 152.921875 228.769531 C 153.652344 225.761719 155.640625 223.257812 158.316406 221.707031 C 158.351562 221.695312 158.375 221.671875 158.410156 221.660156 C 161.105469 220.074219 164.3125 219.566406 167.308594 220.457031 L 181.238281 224.601562 C 182.566406 224.996094 183.992188 224.429688 184.6875 223.226562 L 194.792969 205.710938 C 195.488281 204.503906 195.265625 202.988281 194.261719 202.039062 L 183.761719 192.097656 C 181.480469 189.941406 180.332031 186.921875 180.34375 183.796875 C 180.34375 183.785156 180.34375 183.761719 180.34375 183.75 C 180.34375 183.726562 180.34375 183.703125 180.34375 183.691406 " fill-opacity="1" fill-rule="nonzero"/><g clip-path="url(#76784feda7)"><path fill="#00f3f7" d="M 141.484375 348.457031 L 104.324219 348.457031 C 99.449219 348.457031 95.503906 344.5 95.503906 339.625 C 95.503906 334.75 99.449219 330.792969 104.324219 330.792969 L 141.484375 330.792969 C 146.355469 330.792969 150.316406 334.75 150.316406 339.625 C 150.316406 344.5 146.355469 348.457031 141.484375 348.457031 Z M 215.351562 283.863281 L 215.351562 304.015625 C 215.351562 309.480469 210.917969 313.902344 205.453125 313.902344 L 40.351562 313.902344 C 34.886719 313.902344 30.464844 309.480469 30.464844 304.015625 L 30.464844 59.003906 C 30.464844 53.539062 34.886719 49.117188 40.351562 49.117188 L 205.453125 49.117188 C 210.917969 49.117188 215.351562 53.539062 215.351562 59.003906 L 215.351562 137.15625 C 220.804688 134.328125 227.265625 133.554688 233.515625 135.40625 L 239.082031 137.0625 L 239.082031 33.292969 C 239.082031 20.175781 228.457031 9.546875 215.351562 9.546875 L 30.464844 9.546875 C 17.351562 9.546875 6.722656 20.175781 6.722656 33.292969 L 6.722656 341.605469 C 6.722656 354.710938 17.351562 365.335938 30.464844 365.335938 L 215.351562 365.335938 C 228.457031 365.335938 239.082031 354.710938 239.082031 341.605469 L 239.082031 283.976562 L 233.515625 285.632812 C 227.265625 287.496094 220.804688 286.6875 215.351562 283.863281 " fill-opacity="1" fill-rule="nonzero"/></g><g clip-path="url(#b395bf9c22)"><path fill="#00f3f7" d="M 288.5625 245.71875 C 269.148438 245.71875 253.367188 229.925781 253.367188 210.527344 C 253.367188 191.113281 269.148438 175.332031 288.5625 175.332031 C 307.964844 175.332031 323.753906 191.113281 323.753906 210.527344 C 323.753906 229.925781 307.964844 245.71875 288.5625 245.71875 Z M 353.144531 222.171875 C 349.960938 219.160156 348.167969 214.972656 348.179688 210.59375 L 348.179688 210.445312 C 348.167969 206.070312 349.960938 201.878906 353.144531 198.867188 L 367.128906 185.625 C 368.496094 184.328125 368.796875 182.269531 367.859375 180.636719 L 354.09375 156.789062 C 353.144531 155.15625 351.210938 154.390625 349.40625 154.925781 L 330.882812 160.433594 C 326.683594 161.683594 322.132812 161.140625 318.335938 158.929688 L 318.21875 158.859375 C 314.480469 156.695312 311.796875 153.082031 310.789062 148.871094 L 306.285156 130.035156 L 306.285156 58.78125 L 316.867188 58.78125 C 320.140625 58.78125 322.074219 55.101562 320.222656 52.402344 L 291.90625 11.308594 C 290.296875 8.957031 286.824219 8.957031 285.203125 11.308594 L 256.898438 52.402344 C 255.035156 55.101562 256.96875 58.78125 260.246094 58.78125 L 270.835938 58.78125 L 270.835938 130.035156 L 266.335938 148.859375 C 265.328125 153.070312 262.640625 156.683594 258.902344 158.859375 L 258.773438 158.929688 C 254.988281 161.140625 250.453125 161.683594 246.238281 160.433594 L 227.714844 154.925781 C 225.910156 154.390625 223.964844 155.15625 223.027344 156.789062 L 209.261719 180.636719 C 208.3125 182.269531 208.613281 184.328125 209.992188 185.625 L 223.929688 198.832031 C 227.125 201.855469 228.929688 206.058594 228.929688 210.445312 L 228.929688 210.59375 C 228.929688 214.992188 227.125 219.195312 223.929688 222.21875 L 209.992188 235.414062 C 208.613281 236.710938 208.3125 238.785156 209.261719 240.414062 L 223.027344 264.25 C 223.964844 265.882812 225.910156 266.660156 227.714844 266.113281 L 246.261719 260.605469 C 250.464844 259.355469 254.988281 259.898438 258.773438 262.109375 L 258.902344 262.179688 C 262.640625 264.367188 265.328125 267.992188 266.335938 272.203125 L 270.835938 291.015625 C 271.265625 292.84375 272.910156 294.140625 274.796875 294.140625 L 302.324219 294.140625 C 304.199219 294.140625 305.84375 292.84375 306.285156 291.015625 L 310.777344 272.191406 C 311.785156 267.980469 314.46875 264.367188 318.21875 262.179688 L 318.335938 262.109375 C 322.132812 259.898438 326.671875 259.355469 330.871094 260.605469 L 349.40625 266.113281 C 351.210938 266.660156 353.144531 265.882812 354.09375 264.25 L 367.859375 240.414062 C 368.796875 238.785156 368.496094 236.710938 367.128906 235.414062 L 353.144531 222.171875 " fill-opacity="1" fill-rule="nonzero"/></g></svg>