<svg xmlns="http://www.w3.org/2000/svg" xmlns:xlink="http://www.w3.org/1999/xlink" width="500" zoomAndPan="magnify" viewBox="0 0 375 374.999991" height="500" preserveAspectRatio="xMidYMid meet" version="1.0"><defs><clipPath id="5ebff14b42"><path d="M 5.3125 18.75 L 369.8125 18.75 L 369.8125 278 L 5.3125 278 Z M 5.3125 18.75 " clip-rule="nonzero"/></clipPath><clipPath id="1c3d7ae897"><path d="M 5.3125 228 L 369.8125 228 L 369.8125 236 L 5.3125 236 Z M 5.3125 228 " clip-rule="nonzero"/></clipPath><clipPath id="c7540baab5"><path d="M 100 322 L 275 322 L 275 356.25 L 100 356.25 Z M 100 322 " clip-rule="nonzero"/></clipPath><clipPath id="9e67b5209a"><path d="M 5.3125 53 L 369.8125 53 L 369.8125 61 L 5.3125 61 Z M 5.3125 53 " clip-rule="nonzero"/></clipPath></defs><g clip-path="url(#5ebff14b42)"><path fill="#00f3f7" d="M 339.082031 277.882812 L 35.914062 277.882812 C 18.835938 277.882812 5.3125 264.359375 5.3125 247.28125 L 5.3125 50.148438 C 5.3125 33.070312 19.546875 18.835938 35.914062 18.835938 L 339.082031 18.835938 C 355.453125 18.835938 369.683594 33.070312 369.683594 50.148438 L 369.683594 247.28125 C 369.683594 264.359375 356.164062 277.882812 339.082031 277.882812 Z M 35.914062 25.953125 C 23.105469 25.953125 12.429688 37.339844 12.429688 50.148438 L 12.429688 247.28125 C 12.429688 260.089844 23.105469 270.765625 35.914062 270.765625 L 339.082031 270.765625 C 351.894531 270.765625 362.566406 260.089844 362.566406 247.28125 L 362.566406 50.148438 C 362.566406 37.339844 351.894531 25.953125 339.082031 25.953125 Z M 35.914062 25.953125 " fill-opacity="1" fill-rule="evenodd"/></g><g clip-path="url(#1c3d7ae897)"><path fill="#00f3f7" d="M 366.125 235.894531 L 8.871094 235.894531 C 6.738281 235.894531 5.3125 234.46875 5.3125 232.335938 C 5.3125 230.199219 6.738281 228.777344 8.871094 228.777344 L 366.125 228.777344 C 368.261719 228.777344 369.683594 230.199219 369.683594 232.335938 C 369.683594 234.46875 368.261719 235.894531 366.125 235.894531 Z M 366.125 235.894531 " fill-opacity="1" fill-rule="evenodd"/></g><path fill="#00f3f7" d="M 244.433594 329.121094 C 243.007812 329.121094 241.585938 328.410156 240.875 326.984375 L 222.371094 275.746094 C 221.660156 273.609375 223.082031 271.476562 224.503906 270.765625 C 226.640625 270.054688 228.777344 271.476562 229.488281 272.898438 L 247.992188 324.140625 C 248.703125 326.273438 247.277344 328.410156 245.855469 329.121094 C 245.144531 329.121094 245.144531 329.121094 244.433594 329.121094 Z M 130.566406 329.121094 C 129.855469 329.121094 129.855469 329.121094 129.144531 329.121094 C 127.71875 328.410156 126.296875 326.273438 127.007812 324.140625 L 145.511719 272.898438 C 146.222656 271.476562 148.359375 270.054688 150.492188 270.765625 C 151.917969 271.476562 153.339844 273.609375 152.628906 275.746094 L 134.125 326.984375 C 133.414062 328.410156 131.988281 329.121094 130.566406 329.121094 Z M 215.253906 329.121094 C 213.832031 329.121094 212.40625 328.410156 211.695312 326.273438 L 205.289062 304.210938 L 169.707031 304.210938 L 163.304688 326.273438 C 162.589844 328.410156 160.457031 329.832031 158.320312 329.121094 C 156.898438 328.410156 155.472656 326.273438 156.1875 324.851562 L 163.304688 299.941406 C 164.015625 298.519531 165.4375 297.097656 166.859375 297.097656 L 208.136719 297.097656 C 209.5625 297.097656 210.984375 297.808594 211.695312 299.941406 L 218.8125 324.851562 C 218.8125 326.273438 218.101562 328.410156 215.964844 329.121094 C 215.964844 329.121094 215.253906 329.121094 215.253906 329.121094 Z M 215.253906 329.121094 " fill-opacity="1" fill-rule="evenodd"/><g clip-path="url(#c7540baab5)"><path fill="#00f3f7" d="M 270.765625 356.164062 L 104.234375 356.164062 C 102.101562 356.164062 100.675781 354.742188 100.675781 352.605469 L 100.675781 339.085938 C 100.675781 329.832031 108.503906 322.003906 117.757812 322.003906 L 257.242188 322.003906 C 266.492188 322.003906 274.320312 329.832031 274.320312 339.085938 L 274.320312 352.605469 C 274.320312 354.742188 272.898438 356.164062 270.765625 356.164062 Z M 107.792969 349.046875 L 267.207031 349.046875 L 267.207031 339.085938 C 267.207031 332.679688 262.222656 329.121094 257.242188 329.121094 L 117.757812 329.121094 C 112.773438 329.121094 107.792969 332.679688 107.792969 339.085938 Z M 107.792969 349.046875 " fill-opacity="1" fill-rule="evenodd"/></g><path fill="#00f3f7" d="M 337.660156 256.53125 L 316.308594 256.53125 C 314.175781 256.53125 312.75 255.109375 312.75 252.972656 C 312.75 250.839844 314.175781 249.414062 316.308594 249.414062 L 337.660156 249.414062 C 339.796875 249.414062 341.21875 250.839844 341.21875 252.972656 C 341.21875 255.109375 339.796875 256.53125 337.660156 256.53125 Z M 337.660156 256.53125 " fill-opacity="1" fill-rule="evenodd"/><path fill="#00f3f7" d="M 294.25 277.882812 C 292.113281 277.882812 290.691406 276.457031 290.691406 274.324219 L 290.691406 232.335938 C 290.691406 230.199219 292.113281 228.777344 294.25 228.777344 C 296.382812 228.777344 297.808594 230.199219 297.808594 232.335938 L 297.808594 274.324219 C 297.808594 276.457031 296.382812 277.882812 294.25 277.882812 Z M 294.25 277.882812 " fill-opacity="1" fill-rule="evenodd"/><path fill="#00f3f7" d="M 80.75 277.882812 C 78.613281 277.882812 77.191406 276.457031 77.191406 274.324219 L 77.191406 232.335938 C 77.191406 230.199219 78.613281 228.777344 80.75 228.777344 C 82.886719 228.777344 84.308594 230.199219 84.308594 232.335938 L 84.308594 274.324219 C 84.308594 276.457031 82.886719 277.882812 80.75 277.882812 Z M 80.75 277.882812 " fill-opacity="1" fill-rule="evenodd"/><g clip-path="url(#9e67b5209a)"><path fill="#00f3f7" d="M 366.125 60.824219 L 8.871094 60.824219 C 6.738281 60.824219 5.3125 59.402344 5.3125 57.265625 C 5.3125 55.128906 6.738281 53.707031 8.871094 53.707031 L 366.125 53.707031 C 368.261719 53.707031 369.683594 55.128906 369.683594 57.265625 C 369.683594 59.402344 368.261719 60.824219 366.125 60.824219 Z M 366.125 60.824219 " fill-opacity="1" fill-rule="evenodd"/></g><path fill="#00f3f7" d="M 80.75 235.894531 C 78.613281 235.894531 77.191406 234.46875 77.191406 232.335938 L 77.191406 57.265625 C 77.191406 55.128906 78.613281 53.707031 80.75 53.707031 C 82.886719 53.707031 84.308594 55.128906 84.308594 57.265625 L 84.308594 232.335938 C 84.308594 234.46875 82.886719 235.894531 80.75 235.894531 Z M 80.75 235.894531 " fill-opacity="1" fill-rule="evenodd"/><path fill="#00f3f7" d="M 65.09375 85.019531 L 24.527344 85.019531 C 22.394531 85.019531 20.96875 83.597656 20.96875 81.460938 C 20.96875 79.328125 22.394531 77.902344 24.527344 77.902344 L 65.09375 77.902344 C 67.226562 77.902344 68.652344 79.328125 68.652344 81.460938 C 68.652344 83.597656 67.226562 85.019531 65.09375 85.019531 Z M 65.09375 85.019531 " fill-opacity="1" fill-rule="evenodd"/><path fill="#00f3f7" d="M 65.09375 116.332031 L 24.527344 116.332031 C 22.394531 116.332031 20.96875 114.910156 20.96875 112.777344 C 20.96875 110.640625 22.394531 109.21875 24.527344 109.21875 L 65.09375 109.21875 C 67.226562 109.21875 68.652344 110.640625 68.652344 112.777344 C 68.652344 114.910156 67.226562 116.332031 65.09375 116.332031 Z M 65.09375 116.332031 " fill-opacity="1" fill-rule="evenodd"/><path fill="#00f3f7" d="M 57.976562 148.359375 L 24.527344 148.359375 C 22.394531 148.359375 20.96875 146.933594 20.96875 144.800781 C 20.96875 142.664062 22.394531 141.242188 24.527344 141.242188 L 57.976562 141.242188 C 60.113281 141.242188 61.535156 142.664062 61.535156 144.800781 C 61.535156 146.933594 60.113281 148.359375 57.976562 148.359375 Z M 57.976562 148.359375 " fill-opacity="1" fill-rule="evenodd"/><path fill="#00f3f7" d="M 57.976562 179.671875 L 24.527344 179.671875 C 22.394531 179.671875 20.96875 178.25 20.96875 176.113281 C 20.96875 173.976562 22.394531 172.554688 24.527344 172.554688 L 57.976562 172.554688 C 60.113281 172.554688 61.535156 173.976562 61.535156 176.113281 C 61.535156 178.25 60.113281 179.671875 57.976562 179.671875 Z M 57.976562 179.671875 " fill-opacity="1" fill-rule="evenodd"/><path fill="#00f3f7" d="M 57.976562 210.984375 L 24.527344 210.984375 C 22.394531 210.984375 20.96875 209.5625 20.96875 207.425781 C 20.96875 205.292969 22.394531 203.867188 24.527344 203.867188 L 57.976562 203.867188 C 60.113281 203.867188 61.535156 205.292969 61.535156 207.425781 C 61.535156 209.5625 60.113281 210.984375 57.976562 210.984375 Z M 57.976562 210.984375 " fill-opacity="1" fill-rule="evenodd"/><path fill="#00f3f7" d="M 256.53125 140.53125 L 235.890625 140.53125 C 235.179688 140.53125 234.46875 140.53125 233.757812 139.820312 L 214.542969 123.449219 L 190.347656 123.449219 L 178.960938 137.683594 C 177.535156 139.105469 175.402344 139.820312 173.976562 138.394531 C 172.554688 136.972656 171.84375 134.835938 173.265625 133.414062 L 186.074219 117.757812 C 186.789062 117.046875 188.210938 116.332031 188.921875 116.332031 L 215.964844 116.332031 C 216.675781 116.332031 217.390625 117.046875 218.101562 117.046875 L 237.316406 133.414062 L 256.53125 133.414062 C 258.664062 133.414062 260.089844 134.835938 260.089844 136.972656 C 260.089844 139.105469 258.664062 140.53125 256.53125 140.53125 Z M 256.53125 140.53125 " fill-opacity="1" fill-rule="evenodd"/><path fill="#00f3f7" d="M 198.175781 174.691406 L 165.4375 174.691406 C 163.304688 174.691406 161.878906 173.265625 161.878906 171.132812 C 161.878906 168.996094 163.304688 167.574219 165.4375 167.574219 L 194.617188 167.574219 L 194.617188 145.511719 C 194.617188 144.800781 194.617188 144.089844 195.328125 143.375 L 213.121094 117.757812 C 214.542969 116.332031 216.675781 115.621094 218.101562 117.046875 C 219.523438 117.757812 220.234375 119.890625 218.8125 122.027344 L 201.734375 146.933594 L 201.734375 171.132812 C 201.734375 173.265625 200.308594 174.691406 198.175781 174.691406 Z M 198.175781 174.691406 " fill-opacity="1" fill-rule="evenodd"/><path fill="#00f3f7" d="M 223.792969 198.175781 C 221.660156 198.175781 220.234375 196.75 220.234375 194.617188 L 220.234375 169.707031 L 196.039062 148.359375 C 194.617188 146.933594 193.902344 144.800781 195.328125 143.375 C 196.75 141.953125 198.886719 141.242188 200.308594 142.664062 L 225.929688 165.4375 C 226.640625 166.148438 227.351562 167.574219 227.351562 168.285156 L 227.351562 194.617188 C 227.351562 196.75 225.929688 198.175781 223.792969 198.175781 Z M 223.792969 198.175781 " fill-opacity="1" fill-rule="evenodd"/><path fill="#00f3f7" d="M 228.777344 113.488281 C 219.523438 113.488281 212.40625 106.371094 212.40625 97.117188 C 212.40625 88.578125 219.523438 81.460938 228.777344 81.460938 C 237.316406 81.460938 244.433594 88.578125 244.433594 97.117188 C 244.433594 106.371094 237.316406 113.488281 228.777344 113.488281 Z M 228.777344 88.578125 C 223.792969 88.578125 219.523438 92.847656 219.523438 97.117188 C 219.523438 102.101562 223.792969 106.371094 228.777344 106.371094 C 233.046875 106.371094 237.316406 102.101562 237.316406 97.117188 C 237.316406 92.847656 233.046875 88.578125 228.777344 88.578125 Z M 228.777344 88.578125 " fill-opacity="1" fill-rule="evenodd"/><path fill="#00f3f7" d="M 235.890625 178.25 C 234.46875 178.25 233.757812 177.535156 233.046875 176.824219 C 231.621094 174.691406 232.335938 172.554688 233.757812 171.84375 C 242.296875 166.863281 247.277344 157.609375 247.277344 148.359375 C 247.277344 146.222656 248.703125 144.800781 250.835938 144.800781 C 252.972656 144.800781 254.394531 146.222656 254.394531 148.359375 C 254.394531 160.457031 247.992188 171.132812 237.316406 177.535156 C 237.316406 178.25 236.605469 178.25 235.890625 178.25 Z M 235.890625 178.25 " fill-opacity="1" fill-rule="evenodd"/><path fill="#00f3f7" d="M 179.671875 162.59375 C 178.960938 162.59375 177.535156 162.59375 177.535156 161.878906 C 173.976562 158.320312 171.132812 153.339844 168.996094 148.359375 C 168.285156 146.222656 169.707031 144.089844 171.132812 143.375 C 173.265625 142.664062 175.402344 144.089844 176.113281 145.511719 C 177.535156 150.492188 179.671875 154.050781 182.519531 156.1875 C 183.941406 157.609375 183.941406 160.457031 182.519531 161.878906 C 181.804688 162.59375 180.382812 162.59375 179.671875 162.59375 Z M 179.671875 162.59375 " fill-opacity="1" fill-rule="evenodd"/><path fill="#00f3f7" d="M 313.464844 209.5625 L 282.863281 209.5625 C 280.726562 209.5625 279.304688 208.136719 279.304688 206.003906 C 279.304688 203.867188 280.726562 202.445312 282.863281 202.445312 L 313.464844 202.445312 C 315.597656 202.445312 317.023438 203.867188 317.023438 206.003906 C 317.023438 208.136719 315.597656 209.5625 313.464844 209.5625 Z M 267.207031 209.5625 L 133.414062 209.5625 C 131.277344 209.5625 129.855469 208.136719 129.855469 206.003906 C 129.855469 203.867188 131.277344 202.445312 133.414062 202.445312 L 267.207031 202.445312 C 269.339844 202.445312 270.765625 203.867188 270.765625 206.003906 C 270.765625 208.136719 269.339844 209.5625 267.207031 209.5625 Z M 267.207031 209.5625 " fill-opacity="1" fill-rule="evenodd"/><path fill="#00f3f7" d="M 275.035156 225.21875 C 268.628906 225.21875 263.648438 220.238281 263.648438 213.832031 L 263.648438 198.175781 C 263.648438 191.769531 268.628906 186.789062 275.035156 186.789062 C 281.4375 186.789062 286.421875 191.769531 286.421875 198.175781 L 286.421875 213.832031 C 286.421875 220.238281 281.4375 225.21875 275.035156 225.21875 Z M 275.035156 193.90625 C 272.898438 193.90625 270.765625 196.039062 270.765625 198.175781 L 270.765625 213.832031 C 270.765625 215.964844 272.898438 218.101562 275.035156 218.101562 C 277.167969 218.101562 279.304688 215.964844 279.304688 213.832031 L 279.304688 198.175781 C 279.304688 196.039062 277.167969 193.90625 275.035156 193.90625 Z M 275.035156 193.90625 " fill-opacity="1" fill-rule="evenodd"/><path fill="#00f3f7" d="M 291.402344 127.71875 C 290.691406 127.71875 289.980469 127.71875 289.265625 127.007812 C 288.554688 126.296875 287.84375 125.585938 287.84375 124.160156 L 287.84375 82.175781 C 287.84375 80.75 288.554688 80.039062 289.265625 79.328125 C 290.691406 78.617188 292.113281 78.617188 292.824219 79.328125 L 331.253906 100.675781 C 332.679688 100.675781 333.390625 102.101562 333.390625 103.523438 C 333.390625 104.945312 332.679688 105.660156 331.253906 106.371094 L 292.824219 127.007812 C 292.824219 127.71875 292.113281 127.71875 291.402344 127.71875 Z M 294.960938 88.578125 L 294.960938 118.46875 L 322.714844 103.523438 Z M 294.960938 88.578125 " fill-opacity="1" fill-rule="evenodd"/><path fill="#00f3f7" d="M 51.570312 43.746094 L 40.183594 43.746094 C 38.050781 43.746094 36.625 42.320312 36.625 40.1875 C 36.625 38.050781 38.050781 36.628906 40.183594 36.628906 L 51.570312 36.628906 C 53.707031 36.628906 55.128906 38.050781 55.128906 40.1875 C 55.128906 42.320312 53.707031 43.746094 51.570312 43.746094 Z M 51.570312 43.746094 " fill-opacity="1" fill-rule="evenodd"/><path fill="#00f3f7" d="M 79.328125 43.746094 L 67.941406 43.746094 C 65.804688 43.746094 64.382812 42.320312 64.382812 40.1875 C 64.382812 38.050781 65.804688 36.628906 67.941406 36.628906 L 79.328125 36.628906 C 81.460938 36.628906 82.886719 38.050781 82.886719 40.1875 C 82.886719 42.320312 81.460938 43.746094 79.328125 43.746094 Z M 79.328125 43.746094 " fill-opacity="1" fill-rule="evenodd"/><path fill="#00f3f7" d="M 107.082031 43.746094 L 95.695312 43.746094 C 93.558594 43.746094 92.136719 42.320312 92.136719 40.1875 C 92.136719 38.050781 93.558594 36.628906 95.695312 36.628906 L 107.082031 36.628906 C 109.214844 36.628906 110.640625 38.050781 110.640625 40.1875 C 110.640625 42.320312 109.214844 43.746094 107.082031 43.746094 Z M 107.082031 43.746094 " fill-opacity="1" fill-rule="evenodd"/></svg>