<svg xmlns="http://www.w3.org/2000/svg" xmlns:xlink="http://www.w3.org/1999/xlink" width="500" zoomAndPan="magnify" viewBox="0 0 375 374.999991" height="500" preserveAspectRatio="xMidYMid meet" version="1.0"><defs><clipPath id="56813d9194"><path d="M 8.128906 4 L 366.628906 4 L 366.628906 370.75 L 8.128906 370.75 Z M 8.128906 4 " clip-rule="nonzero"/></clipPath></defs><g clip-path="url(#56813d9194)"><path fill="#00f3f7" d="M 328.859375 197.597656 C 325.59375 197.597656 322.941406 200.25 322.941406 203.515625 L 322.941406 280.175781 C 322.941406 288.414062 316.242188 295.117188 308 295.117188 L 297.015625 295.117188 C 307.601562 286.066406 314.332031 272.628906 314.332031 257.640625 L 314.332031 198.621094 C 314.332031 192.101562 311.546875 186.21875 307.105469 182.097656 C 314.179688 177.203125 318.824219 169.039062 318.824219 159.804688 C 318.824219 144.863281 306.667969 132.707031 291.726562 132.707031 C 276.785156 132.707031 264.628906 144.863281 264.628906 159.804688 C 264.628906 169.046875 269.28125 177.21875 276.363281 182.109375 C 271.910156 186.230469 269.117188 192.109375 269.117188 198.621094 L 269.117188 200.640625 L 256.277344 208.925781 L 207.679688 208.925781 C 198.511719 208.925781 191.054688 216.382812 191.054688 225.550781 C 191.054688 227.210938 191.300781 228.816406 191.757812 230.335938 L 151.152344 230.335938 C 151.609375 228.816406 151.855469 227.210938 151.855469 225.550781 C 151.855469 216.382812 144.398438 208.925781 135.234375 208.925781 L 86.632812 208.925781 L 73.792969 200.640625 L 73.792969 198.621094 C 73.792969 192.109375 71 186.230469 66.546875 182.109375 C 73.632812 177.21875 78.285156 169.046875 78.285156 159.804688 C 78.285156 144.863281 66.128906 132.707031 51.183594 132.707031 C 36.242188 132.707031 24.085938 144.863281 24.085938 159.804688 C 24.085938 169.039062 28.730469 177.203125 35.804688 182.097656 C 31.363281 186.21875 28.578125 192.101562 28.578125 198.621094 L 28.578125 257.640625 C 28.578125 272.628906 35.308594 286.066406 45.894531 295.117188 L 34.914062 295.117188 C 26.671875 295.117188 19.96875 288.414062 19.96875 280.175781 L 19.96875 203.515625 C 19.96875 200.25 17.320312 197.597656 14.054688 197.597656 C 10.785156 197.597656 8.136719 200.25 8.136719 203.515625 L 8.136719 280.175781 C 8.136719 294.9375 20.148438 306.949219 34.914062 306.949219 L 59.242188 306.949219 L 59.242188 365.015625 C 59.242188 368.285156 61.890625 370.933594 65.160156 370.933594 L 79.238281 370.933594 C 82.507812 370.933594 85.15625 368.285156 85.15625 365.015625 L 85.15625 306.949219 L 92.171875 306.949219 C 92.964844 306.949219 94.816406 306.949219 96.507812 312.714844 L 112.371094 366.683594 C 113.113281 369.203125 115.421875 370.933594 118.046875 370.933594 L 224.867188 370.933594 C 227.492188 370.933594 229.800781 369.203125 230.542969 366.683594 L 246.402344 312.714844 C 248.097656 306.949219 249.949219 306.949219 250.742188 306.949219 L 257.757812 306.949219 L 257.757812 365.015625 C 257.757812 368.285156 260.40625 370.933594 263.675781 370.933594 L 277.753906 370.933594 C 281.023438 370.933594 283.671875 368.285156 283.671875 365.015625 L 283.671875 306.949219 L 308 306.949219 C 322.765625 306.949219 334.777344 294.9375 334.777344 280.171875 L 334.777344 203.515625 C 334.777344 200.246094 332.128906 197.597656 328.859375 197.597656 Z M 291.726562 144.542969 C 300.140625 144.542969 306.988281 151.386719 306.988281 159.804688 C 306.988281 168.21875 300.140625 175.070312 291.726562 175.070312 C 283.308594 175.070312 276.460938 168.222656 276.460938 159.804688 C 276.460938 151.386719 283.308594 144.542969 291.726562 144.542969 Z M 202.890625 225.546875 C 202.890625 222.90625 205.039062 220.757812 207.679688 220.757812 L 259.765625 220.757812 L 280.09375 207.640625 C 281.167969 206.953125 282.441406 206.722656 283.6875 206.996094 C 284.929688 207.265625 285.996094 208.003906 286.683594 209.078125 C 287.371094 210.148438 287.601562 211.425781 287.328125 212.667969 C 287.058594 213.914062 286.316406 214.976562 285.234375 215.671875 L 263.710938 229.5625 C 262.9375 230.058594 262.042969 230.320312 261.121094 230.328125 L 207.679688 230.339844 L 207.679688 230.335938 L 207.601562 230.335938 C 204.996094 230.292969 202.890625 228.164062 202.890625 225.546875 Z M 73.792969 240.105469 C 76.230469 241.441406 78.957031 242.148438 81.753906 242.164062 L 94.128906 242.164062 L 94.128906 251.488281 C 94.128906 254.757812 96.777344 257.40625 100.046875 257.40625 L 126.6875 257.40625 L 126.6875 293.382812 C 119.222656 276.53125 106.910156 261.738281 83.394531 261.738281 L 77.890625 261.738281 C 75.671875 261.738281 73.792969 259.859375 73.792969 257.640625 Z M 236.949219 242.167969 L 236.949219 245.570312 L 105.964844 245.570312 L 105.964844 242.167969 Z M 138.523438 257.40625 L 204.390625 257.40625 L 204.390625 359.097656 L 138.523438 359.097656 Z M 216.222656 257.40625 L 242.867188 257.40625 C 246.132812 257.40625 248.785156 254.757812 248.785156 251.488281 L 248.785156 242.164062 L 261.160156 242.164062 C 263.953125 242.152344 266.675781 241.445312 269.117188 240.105469 L 269.117188 257.640625 C 269.117188 259.859375 267.242188 261.738281 265.023438 261.738281 L 259.519531 261.738281 C 236.003906 261.738281 223.691406 276.53125 216.222656 293.386719 Z M 135.234375 220.757812 C 137.875 220.757812 140.023438 222.90625 140.023438 225.546875 C 140.023438 228.164062 137.917969 230.292969 135.3125 230.332031 L 135.234375 230.332031 L 135.234375 230.335938 L 81.792969 230.328125 C 80.871094 230.320312 79.976562 230.058594 79.214844 229.566406 L 57.667969 215.664062 C 56.59375 214.976562 55.855469 213.910156 55.585938 212.667969 C 55.3125 211.421875 55.542969 210.148438 56.230469 209.078125 C 56.917969 208.003906 57.984375 207.265625 59.226562 206.992188 C 60.472656 206.722656 61.746094 206.953125 62.804688 207.632812 L 83.148438 220.757812 Z M 51.1875 144.542969 C 59.601562 144.542969 66.449219 151.386719 66.449219 159.804688 C 66.449219 168.21875 59.605469 175.070312 51.1875 175.070312 C 42.769531 175.070312 35.925781 168.222656 35.925781 159.804688 C 35.925781 151.386719 42.773438 144.542969 51.1875 144.542969 Z M 71.074219 359.097656 L 71.074219 306.949219 L 73.320312 306.949219 L 73.320312 359.097656 Z M 107.863281 309.378906 C 104.398438 297.589844 97.417969 295.113281 92.171875 295.113281 L 77.890625 295.113281 C 57.226562 295.113281 40.414062 278.304688 40.414062 257.640625 L 40.414062 198.621094 C 40.414062 192.710938 45.226562 187.898438 51.136719 187.898438 C 55.855469 187.898438 59.867188 190.910156 61.34375 195.09375 C 55.511719 194.714844 49.644531 197.425781 46.269531 202.683594 C 41.324219 210.386719 43.570312 220.679688 51.261719 225.617188 L 61.960938 232.519531 L 61.960938 257.640625 C 61.960938 266.425781 69.105469 273.570312 77.890625 273.570312 L 83.394531 273.570312 C 101.855469 273.570312 112.785156 284.921875 121.117188 312.742188 L 126.6875 331.34375 L 126.6875 359.097656 L 122.476562 359.097656 Z M 235.050781 309.378906 L 220.4375 359.097656 L 216.222656 359.097656 L 216.222656 331.34375 L 221.796875 312.742188 C 230.128906 284.921875 241.058594 273.570312 259.519531 273.570312 L 265.023438 273.570312 C 273.804688 273.570312 280.953125 266.425781 280.953125 257.640625 L 280.953125 232.519531 L 291.640625 225.625 C 299.34375 220.679688 301.585938 210.390625 296.640625 202.6875 C 293.269531 197.429688 287.402344 194.714844 281.566406 195.09375 C 283.042969 190.914062 287.058594 187.902344 291.777344 187.902344 C 297.6875 187.902344 302.5 192.710938 302.5 198.621094 L 302.5 257.640625 C 302.5 278.304688 285.6875 295.117188 265.023438 295.117188 L 250.742188 295.117188 C 245.496094 295.113281 238.515625 297.589844 235.050781 309.378906 Z M 271.839844 359.097656 L 269.59375 359.097656 L 269.59375 306.949219 L 271.839844 306.949219 Z M 60.753906 66.554688 L 70.566406 60.890625 L 110.550781 101.5625 C 109.914062 103.195312 109.550781 104.960938 109.550781 106.816406 C 109.550781 114.792969 116.039062 121.285156 124.015625 121.285156 C 131.992188 121.285156 138.484375 114.792969 138.484375 106.816406 C 138.484375 105.003906 138.132812 103.277344 137.523438 101.679688 L 169.277344 69.925781 C 171.585938 67.617188 171.585938 63.871094 169.277344 61.558594 C 166.964844 59.246094 163.21875 59.25 160.910156 61.558594 L 129.15625 93.3125 C 127.554688 92.699219 125.828125 92.351562 124.015625 92.351562 C 122.25 92.351562 120.5625 92.6875 118.996094 93.269531 L 75.796875 49.328125 C 73.90625 47.402344 70.953125 47 68.617188 48.351562 L 54.835938 56.304688 C 52.007812 57.941406 51.039062 61.558594 52.671875 64.390625 C 54.308594 67.21875 57.925781 68.1875 60.753906 66.554688 Z M 126.648438 106.816406 C 126.648438 108.269531 125.46875 109.449219 124.015625 109.449219 C 122.566406 109.449219 121.382812 108.269531 121.382812 106.816406 C 121.382812 105.367188 122.566406 104.183594 124.015625 104.183594 C 125.46875 104.183594 126.648438 105.367188 126.648438 106.816406 Z M 119.671875 88.652344 C 120.78125 89.761719 122.285156 90.382812 123.855469 90.382812 C 125.425781 90.382812 126.929688 89.761719 128.039062 88.652344 L 153.65625 63.035156 C 155.964844 60.726562 155.964844 56.980469 153.65625 54.667969 L 131.289062 32.300781 C 128.976562 29.992188 125.230469 29.992188 122.921875 32.300781 L 122.242188 32.980469 L 108.304688 19.042969 C 105.996094 16.734375 102.25 16.734375 99.9375 19.042969 L 79.1875 39.796875 C 76.875 42.109375 76.875 45.855469 79.1875 48.164062 Z M 141.101562 58.851562 L 123.855469 76.097656 L 109.859375 62.101562 L 114.296875 57.660156 L 116.078125 59.445312 C 117.234375 60.601562 118.75 61.175781 120.261719 61.175781 C 121.777344 61.175781 123.292969 60.601562 124.449219 59.445312 C 126.757812 57.132812 126.757812 53.386719 124.449219 51.078125 L 122.664062 49.292969 L 126.425781 45.53125 L 127.105469 44.855469 Z M 113.875 41.347656 L 101.488281 53.734375 L 91.738281 43.980469 L 93.746094 41.972656 L 94.394531 42.621094 C 95.550781 43.777344 97.066406 44.355469 98.578125 44.355469 C 100.09375 44.355469 101.609375 43.777344 102.765625 42.621094 C 105.074219 40.3125 105.074219 36.566406 102.765625 34.253906 L 102.113281 33.605469 L 104.121094 31.597656 Z M 305.730469 4.0625 C 272.023438 4.0625 244.605469 31.484375 244.605469 65.1875 C 244.605469 77.523438 248.214844 89.292969 255.074219 99.414062 L 248.175781 125.160156 C 247.628906 127.203125 248.214844 129.382812 249.707031 130.875 C 250.832031 132 252.34375 132.609375 253.890625 132.609375 C 254.402344 132.609375 254.917969 132.542969 255.421875 132.410156 L 287.960938 123.691406 C 293.703125 125.433594 299.671875 126.316406 305.730469 126.316406 C 339.433594 126.316406 366.855469 98.894531 366.855469 65.1875 C 366.855469 31.484375 339.433594 4.0625 305.730469 4.0625 Z M 305.730469 114.480469 C 300.34375 114.480469 295.050781 113.617188 289.996094 111.914062 C 288.890625 111.542969 287.703125 111.507812 286.578125 111.808594 L 262.261719 118.324219 L 267.230469 99.78125 C 267.699219 98.027344 267.339844 96.15625 266.25 94.703125 C 259.832031 86.132812 256.4375 75.925781 256.4375 65.1875 C 256.4375 38.007812 278.550781 15.898438 305.730469 15.898438 C 332.910156 15.898438 355.023438 38.007812 355.023438 65.1875 C 355.023438 92.367188 332.910156 114.480469 305.730469 114.480469 Z M 323.28125 72.878906 C 323.746094 76.710938 322.703125 80.226562 320.261719 83.042969 C 318.222656 85.402344 315.210938 87.160156 311.742188 88.09375 C 311.726562 91.347656 309.082031 93.984375 305.824219 93.984375 C 302.554688 93.984375 299.90625 91.335938 299.90625 88.066406 L 299.90625 87.984375 C 294.179688 86.242188 289.859375 81.996094 288.433594 76.292969 C 287.644531 73.121094 289.574219 69.910156 292.746094 69.117188 C 295.917969 68.328125 299.128906 70.257812 299.917969 73.429688 C 300.601562 76.171875 303.699219 77.074219 306.15625 77.019531 C 308.59375 76.960938 310.632812 76.089844 311.3125 75.300781 C 311.453125 75.140625 311.613281 74.957031 311.53125 74.304688 C 311.453125 73.632812 311.234375 71.84375 304.898438 70.804688 C 291.96875 68.679688 289.6875 61.144531 289.476562 56.84375 C 289.15625 50.195312 293.28125 44.558594 299.90625 42.324219 L 299.90625 42.121094 C 299.90625 38.855469 302.554688 36.203125 305.824219 36.203125 C 309.089844 36.203125 311.742188 38.855469 311.742188 42.121094 L 311.742188 42.246094 C 316.269531 43.769531 320.011719 47.113281 321.96875 51.777344 C 323.234375 54.789062 321.816406 58.257812 318.800781 59.523438 C 315.789062 60.789062 312.320312 59.371094 311.054688 56.355469 C 309.6875 53.09375 306.214844 52.925781 304.378906 53.34375 C 303.632812 53.511719 301.199219 54.222656 301.296875 56.269531 C 301.378906 57.894531 304.34375 58.71875 306.816406 59.125 C 316.832031 60.769531 322.371094 65.398438 323.28125 72.878906 Z M 305.824219 22.875 C 282.542969 22.875 263.601562 41.816406 263.601562 65.09375 C 263.601562 88.375 282.542969 107.316406 305.824219 107.316406 C 329.105469 107.316406 348.042969 88.375 348.042969 65.09375 C 348.042969 41.816406 329.101562 22.875 305.824219 22.875 Z M 305.824219 95.480469 C 289.070312 95.480469 275.4375 81.851562 275.4375 65.09375 C 275.4375 48.339844 289.066406 34.707031 305.824219 34.707031 C 322.578125 34.707031 336.210938 48.339844 336.210938 65.09375 C 336.210938 81.851562 322.578125 95.480469 305.824219 95.480469 Z M 48.371094 131.007812 L 102.722656 131.007812 L 108.753906 153.519531 C 109.300781 155.5625 110.898438 157.15625 112.9375 157.703125 C 113.445312 157.839844 113.960938 157.902344 114.46875 157.902344 C 116.019531 157.902344 117.53125 157.296875 118.65625 156.171875 L 143.820312 131.007812 L 178.621094 131.007812 C 186.371094 131.007812 192.675781 124.703125 192.675781 116.953125 L 192.675781 18.117188 C 192.675781 10.367188 186.371094 4.0625 178.621094 4.0625 L 48.371094 4.0625 C 40.621094 4.0625 34.320312 10.367188 34.320312 18.117188 L 34.320312 116.953125 C 34.320312 124.703125 40.621094 131.007812 48.371094 131.007812 Z M 46.152344 18.117188 C 46.152344 16.890625 47.148438 15.898438 48.371094 15.898438 L 178.621094 15.898438 C 179.84375 15.898438 180.839844 16.890625 180.839844 18.117188 L 180.839844 116.953125 C 180.839844 118.175781 179.84375 119.171875 178.621094 119.171875 L 141.367188 119.171875 C 139.796875 119.171875 138.292969 119.796875 137.183594 120.90625 L 117.535156 140.554688 L 112.980469 123.558594 C 112.285156 120.972656 109.941406 119.171875 107.261719 119.171875 L 48.371094 119.171875 C 47.148438 119.171875 46.152344 118.175781 46.152344 116.953125 Z M 46.152344 18.117188 " fill-opacity="1" fill-rule="nonzero"/></g></svg>