<svg xmlns="http://www.w3.org/2000/svg" xmlns:xlink="http://www.w3.org/1999/xlink" width="500" zoomAndPan="magnify" viewBox="0 0 375 374.999991" height="500" preserveAspectRatio="xMidYMid meet" version="1.0"><defs><clipPath id="ab2ce5c849"><path d="M 5.082031 5.082031 L 369.582031 5.082031 L 369.582031 369.582031 L 5.082031 369.582031 Z M 5.082031 5.082031 " clip-rule="nonzero"/></clipPath></defs><g clip-path="url(#ab2ce5c849)"><path fill="#00f3f7" d="M 170.695312 358.480469 L 204.042969 358.503906 L 204.066406 325.703125 C 204.070312 322.90625 206.105469 320.519531 208.867188 320.078125 C 229.351562 316.800781 249.097656 308.636719 265.964844 296.464844 C 268.238281 294.828125 271.359375 295.078125 273.335938 297.058594 L 296.519531 320.277344 L 320.117188 296.714844 L 296.933594 273.496094 C 294.957031 271.515625 294.707031 268.394531 296.351562 266.128906 C 308.546875 249.273438 316.742188 229.539062 320.046875 209.0625 C 320.492188 206.300781 322.875 204.269531 325.675781 204.269531 C 325.675781 204.269531 325.675781 204.269531 325.679688 204.269531 L 358.480469 204.292969 L 358.503906 170.945312 L 325.703125 170.921875 C 322.90625 170.921875 320.519531 168.886719 320.078125 166.121094 C 316.800781 145.640625 308.636719 125.894531 296.464844 109.019531 C 294.828125 106.753906 295.078125 103.628906 297.058594 101.652344 L 320.277344 78.46875 L 296.714844 54.871094 L 273.496094 78.054688 C 271.515625 80.035156 268.394531 80.28125 266.128906 78.640625 C 249.273438 66.445312 229.539062 58.25 209.0625 54.941406 C 206.300781 54.496094 204.269531 52.113281 204.269531 49.3125 L 204.292969 16.511719 L 170.945312 16.488281 L 170.921875 49.289062 C 170.921875 52.085938 168.886719 54.472656 166.121094 54.914062 C 145.640625 58.1875 125.894531 66.351562 109.023438 78.523438 C 106.753906 80.164062 103.628906 79.910156 101.652344 77.929688 L 78.46875 54.714844 L 54.871094 78.273438 L 78.058594 101.492188 C 80.035156 103.472656 80.28125 106.597656 78.640625 108.863281 C 66.441406 125.714844 58.25 145.449219 54.945312 165.929688 C 54.496094 168.691406 52.113281 170.71875 49.316406 170.71875 C 49.3125 170.71875 49.3125 170.71875 49.3125 170.71875 L 16.511719 170.695312 L 16.488281 204.042969 L 49.289062 204.066406 C 52.085938 204.070312 54.46875 206.105469 54.910156 208.867188 C 58.1875 229.351562 66.351562 249.097656 78.523438 265.964844 C 80.164062 268.238281 79.910156 271.359375 77.929688 273.335938 L 54.710938 296.519531 L 78.273438 320.117188 L 101.492188 296.933594 C 103.472656 294.957031 106.597656 294.707031 108.863281 296.351562 C 125.71875 308.546875 145.449219 316.742188 165.929688 320.046875 C 168.691406 320.492188 170.722656 322.878906 170.71875 325.679688 Z M 209.738281 369.910156 C 209.738281 369.910156 209.738281 369.910156 209.734375 369.910156 L 164.988281 369.875 C 161.839844 369.875 159.289062 367.320312 159.289062 364.171875 L 159.316406 330.445312 C 149.722656 328.5625 140.324219 325.710938 131.316406 321.941406 C 122.527344 318.265625 114.089844 313.710938 106.171875 308.375 L 82.296875 332.210938 C 81.226562 333.28125 79.777344 333.878906 78.269531 333.878906 C 78.265625 333.878906 78.265625 333.878906 78.265625 333.878906 C 76.753906 333.878906 75.304688 333.277344 74.234375 332.207031 L 42.617188 300.542969 C 41.546875 299.472656 40.949219 298.023438 40.949219 296.511719 C 40.949219 295 41.554688 293.550781 42.621094 292.480469 L 66.496094 268.640625 C 61.171875 260.714844 56.628906 252.269531 52.96875 243.476562 C 49.210938 234.464844 46.371094 225.0625 44.503906 215.464844 L 10.777344 215.441406 C 9.265625 215.4375 7.816406 214.835938 6.746094 213.765625 C 5.679688 212.695312 5.078125 211.246094 5.082031 209.734375 L 5.113281 164.988281 C 5.117188 161.839844 7.667969 159.289062 10.8125 159.289062 C 10.816406 159.289062 10.816406 159.289062 10.820312 159.289062 L 44.546875 159.316406 C 46.429688 149.722656 49.28125 140.324219 53.050781 131.316406 C 56.722656 122.527344 61.277344 114.089844 66.617188 106.171875 L 42.777344 82.296875 C 41.707031 81.226562 41.109375 79.777344 41.109375 78.265625 C 41.113281 76.753906 41.710938 75.304688 42.78125 74.234375 L 74.449219 42.617188 C 75.515625 41.550781 76.964844 40.949219 78.476562 40.949219 C 78.476562 40.949219 78.476562 40.949219 78.480469 40.949219 C 79.992188 40.949219 81.441406 41.550781 82.507812 42.621094 L 106.347656 66.496094 C 114.277344 61.171875 122.722656 56.628906 131.511719 52.96875 C 140.527344 49.210938 149.929688 46.375 159.527344 44.503906 L 159.550781 10.777344 C 159.550781 9.265625 160.152344 7.816406 161.222656 6.75 C 162.292969 5.679688 163.742188 5.082031 165.25 5.082031 C 165.25 5.082031 165.253906 5.082031 165.253906 5.082031 L 210.003906 5.113281 C 211.515625 5.113281 212.964844 5.71875 214.03125 6.785156 C 215.101562 7.855469 215.699219 9.304688 215.699219 10.820312 L 215.675781 44.542969 C 225.269531 46.429688 234.667969 49.28125 243.675781 53.050781 C 252.460938 56.722656 260.898438 61.277344 268.820312 66.613281 L 292.695312 42.777344 C 293.761719 41.707031 295.210938 41.109375 296.71875 41.109375 C 296.722656 41.109375 296.726562 41.109375 296.726562 41.109375 C 298.238281 41.109375 299.6875 41.714844 300.757812 42.78125 L 332.375 74.449219 C 334.597656 76.675781 334.59375 80.285156 332.367188 82.507812 L 308.492188 106.347656 C 313.820312 114.277344 318.359375 122.722656 322.023438 131.511719 C 325.777344 140.527344 328.617188 149.929688 330.484375 159.527344 L 364.214844 159.550781 C 365.722656 159.550781 367.175781 160.152344 368.242188 161.222656 C 369.3125 162.292969 369.910156 163.742188 369.910156 165.253906 L 369.875 210.003906 C 369.875 213.148438 367.324219 215.699219 364.175781 215.699219 C 364.175781 215.699219 364.171875 215.699219 364.171875 215.699219 L 330.445312 215.675781 C 328.5625 225.269531 325.710938 234.667969 321.941406 243.675781 C 318.265625 252.460938 313.710938 260.898438 308.375 268.820312 L 332.210938 292.695312 C 333.28125 293.761719 333.882812 295.214844 333.878906 296.726562 C 333.878906 298.238281 333.277344 299.6875 332.207031 300.757812 L 300.542969 332.375 C 299.472656 333.441406 298.023438 334.039062 296.511719 334.039062 C 295 334.039062 293.550781 333.4375 292.480469 332.367188 L 268.640625 308.492188 C 260.714844 313.820312 252.269531 318.359375 243.476562 322.023438 C 234.464844 325.777344 225.0625 328.617188 215.464844 330.484375 L 215.441406 364.214844 C 215.4375 365.722656 214.835938 367.175781 213.765625 368.242188 C 212.699219 369.3125 211.25 369.910156 209.738281 369.910156 " fill-opacity="1" fill-rule="nonzero"/></g><path fill="#00f3f7" d="M 108.046875 187.4375 L 108.050781 187.4375 Z M 187.492188 113.746094 C 167.8125 113.746094 149.3125 121.402344 135.386719 135.308594 C 121.445312 149.226562 113.761719 167.742188 113.746094 187.441406 C 113.71875 228.105469 146.777344 261.214844 187.441406 261.246094 C 187.457031 261.246094 187.476562 261.246094 187.496094 261.246094 C 228.136719 261.246094 261.214844 228.195312 261.246094 187.550781 C 261.273438 146.882812 228.214844 113.777344 187.550781 113.746094 C 187.53125 113.746094 187.511719 113.746094 187.492188 113.746094 Z M 187.496094 272.644531 C 187.476562 272.644531 187.453125 272.644531 187.433594 272.644531 C 175.941406 272.636719 164.789062 270.375 154.292969 265.925781 C 144.15625 261.628906 135.054688 255.484375 127.242188 247.660156 C 119.429688 239.835938 113.296875 230.726562 109.015625 220.582031 C 104.582031 210.078125 102.335938 198.925781 102.34375 187.433594 C 102.355469 175.941406 104.613281 164.789062 109.0625 154.292969 C 113.359375 144.15625 119.503906 135.054688 127.328125 127.242188 C 135.152344 119.429688 144.261719 113.296875 154.40625 109.015625 C 164.890625 104.589844 176.023438 102.34375 187.492188 102.34375 C 187.515625 102.34375 187.535156 102.34375 187.558594 102.34375 C 199.050781 102.355469 210.199219 104.613281 220.699219 109.0625 C 230.835938 113.359375 239.9375 119.503906 247.75 127.328125 C 255.5625 135.152344 261.695312 144.261719 265.976562 154.40625 C 270.40625 164.910156 272.652344 176.066406 272.644531 187.558594 C 272.636719 199.050781 270.375 210.199219 265.925781 220.699219 C 261.628906 230.835938 255.484375 239.9375 247.660156 247.75 C 239.835938 255.5625 230.726562 261.695312 220.582031 265.976562 C 210.097656 270.402344 198.964844 272.644531 187.496094 272.644531 " fill-opacity="1" fill-rule="nonzero"/><path fill="#00f3f7" d="M 187.496094 144.074219 C 178.039062 144.074219 170.347656 151.765625 170.347656 161.222656 C 170.347656 170.675781 178.039062 178.367188 187.496094 178.367188 C 196.949219 178.367188 204.640625 170.675781 204.640625 161.222656 C 204.640625 151.765625 196.949219 144.074219 187.496094 144.074219 Z M 187.496094 189.769531 C 171.753906 189.769531 158.949219 176.960938 158.949219 161.222656 C 158.949219 145.480469 171.753906 132.671875 187.496094 132.671875 C 203.234375 132.671875 216.042969 145.480469 216.042969 161.222656 C 216.042969 176.960938 203.234375 189.769531 187.496094 189.769531 " fill-opacity="1" fill-rule="nonzero"/><path fill="#00f3f7" d="M 187.496094 242.316406 C 184.347656 242.316406 181.792969 239.765625 181.792969 236.617188 L 181.792969 184.066406 C 181.792969 180.917969 184.347656 178.367188 187.496094 178.367188 C 190.644531 178.367188 193.195312 180.917969 193.195312 184.066406 L 193.195312 236.617188 C 193.195312 239.765625 190.644531 242.316406 187.496094 242.316406 " fill-opacity="1" fill-rule="nonzero"/><path fill="#00f3f7" d="M 187.496094 208.046875 L 171.957031 208.046875 C 168.8125 208.046875 166.257812 205.492188 166.257812 202.34375 C 166.257812 199.199219 168.8125 196.644531 171.957031 196.644531 L 187.496094 196.644531 C 190.644531 196.644531 193.195312 199.199219 193.195312 202.34375 C 193.195312 205.492188 190.644531 208.046875 187.496094 208.046875 " fill-opacity="1" fill-rule="nonzero"/><path fill="#00f3f7" d="M 187.496094 224.039062 L 176.984375 224.039062 C 173.835938 224.039062 171.285156 221.488281 171.285156 218.339844 C 171.285156 215.191406 173.835938 212.636719 176.984375 212.636719 L 187.496094 212.636719 C 190.644531 212.636719 193.195312 215.191406 193.195312 218.339844 C 193.195312 221.488281 190.644531 224.039062 187.496094 224.039062 " fill-opacity="1" fill-rule="nonzero"/></svg>