<svg xmlns="http://www.w3.org/2000/svg" xmlns:xlink="http://www.w3.org/1999/xlink" width="500" zoomAndPan="magnify" viewBox="0 0 375 374.999991" height="500" preserveAspectRatio="xMidYMid meet" version="1.0"><defs><clipPath id="c5dc21e9a6"><path d="M 5.632812 5.632812 L 251 5.632812 L 251 316 L 5.632812 316 Z M 5.632812 5.632812 " clip-rule="nonzero"/></clipPath></defs><g clip-path="url(#c5dc21e9a6)"><path fill="#00f3f7" d="M 233.648438 5.632812 L 22.597656 5.632812 C 13.265625 5.632812 5.628906 13.214844 5.628906 22.601562 L 5.628906 298.140625 C 5.628906 307.476562 13.265625 315.113281 22.597656 315.113281 L 176.628906 315.113281 C 175.953125 313.414062 175.328125 311.660156 174.761719 309.964844 C 173.460938 306.117188 173.234375 302.046875 174.085938 298.140625 L 22.597656 298.140625 L 22.597656 56.488281 L 233.648438 56.488281 L 233.648438 178.164062 C 236.589844 176.863281 239.589844 175.730469 242.585938 174.710938 C 244.90625 173.921875 247.339844 173.582031 249.769531 173.582031 L 250.621094 173.582031 L 250.621094 22.601562 C 250.621094 13.214844 242.984375 5.632812 233.648438 5.632812 Z M 35.496094 39.460938 C 30.800781 39.460938 27.011719 35.613281 27.011719 30.917969 C 27.011719 26.222656 30.800781 22.433594 35.496094 22.433594 C 40.191406 22.433594 44.035156 26.222656 44.035156 30.917969 C 44.035156 35.613281 40.191406 39.460938 35.496094 39.460938 Z M 58.347656 39.460938 C 53.652344 39.460938 49.863281 35.613281 49.863281 30.917969 C 49.863281 26.222656 53.652344 22.433594 58.347656 22.433594 C 63.042969 22.433594 66.890625 26.222656 66.890625 30.917969 C 66.890625 35.613281 63.042969 39.460938 58.347656 39.460938 Z M 81.203125 39.460938 C 76.507812 39.460938 72.714844 35.613281 72.714844 30.917969 C 72.714844 26.222656 76.507812 22.433594 81.203125 22.433594 C 85.894531 22.433594 89.742188 26.222656 89.742188 30.917969 C 89.742188 35.613281 85.894531 39.460938 81.203125 39.460938 Z M 81.203125 39.460938 " fill-opacity="1" fill-rule="nonzero"/></g><path fill="#00f3f7" d="M 88.949219 79.339844 L 88.949219 121.144531 C 88.949219 124.652344 86.066406 127.535156 82.558594 127.535156 L 40.699219 127.535156 C 37.191406 127.535156 34.363281 124.652344 34.363281 121.144531 L 34.363281 79.339844 C 34.363281 75.832031 37.191406 73.003906 40.699219 73.003906 L 82.558594 73.003906 C 86.066406 73.003906 88.949219 75.832031 88.949219 79.339844 Z M 88.949219 79.339844 " fill-opacity="1" fill-rule="nonzero"/><path fill="#00f3f7" d="M 88.949219 156.328125 L 88.949219 198.132812 C 88.949219 201.636719 86.066406 204.523438 82.558594 204.523438 L 40.699219 204.523438 C 37.191406 204.523438 34.363281 201.636719 34.363281 198.132812 L 34.363281 156.328125 C 34.363281 152.820312 37.191406 149.992188 40.699219 149.992188 L 82.558594 149.992188 C 86.066406 149.992188 88.949219 152.820312 88.949219 156.328125 Z M 88.949219 156.328125 " fill-opacity="1" fill-rule="nonzero"/><path fill="#00f3f7" d="M 171.144531 271.894531 C 171.144531 273.480469 169.898438 274.722656 168.316406 274.722656 L 101.679688 274.722656 C 100.09375 274.722656 98.851562 273.480469 98.851562 271.894531 C 98.851562 270.3125 100.09375 269.066406 101.679688 269.066406 L 168.316406 269.066406 C 169.898438 269.066406 171.144531 270.3125 171.144531 271.894531 Z M 171.144531 271.894531 " fill-opacity="1" fill-rule="nonzero"/><path fill="#00f3f7" d="M 98.851562 194.90625 C 98.851562 193.324219 100.09375 192.078125 101.679688 192.078125 L 168.316406 192.078125 C 169.898438 192.078125 171.144531 193.324219 171.144531 194.90625 C 171.144531 196.492188 169.898438 197.734375 168.316406 197.734375 L 101.679688 197.734375 C 100.09375 197.734375 98.851562 196.492188 98.851562 194.90625 Z M 98.851562 194.90625 " fill-opacity="1" fill-rule="nonzero"/><path fill="#00f3f7" d="M 98.851562 117.917969 C 98.851562 116.335938 100.09375 115.089844 101.679688 115.089844 L 168.316406 115.089844 C 169.898438 115.089844 171.144531 116.335938 171.144531 117.917969 C 171.144531 119.503906 169.898438 120.746094 168.316406 120.746094 L 101.679688 120.746094 C 100.09375 120.746094 98.851562 119.503906 98.851562 117.917969 Z M 98.851562 117.917969 " fill-opacity="1" fill-rule="nonzero"/><path fill="#00f3f7" d="M 177.761719 262.902344 L 101.679688 262.902344 C 100.09375 262.902344 98.851562 261.65625 98.851562 260.070312 C 98.851562 258.542969 100.09375 257.242188 101.679688 257.242188 L 174.875 257.242188 C 175.273438 258.488281 175.78125 259.675781 176.460938 260.863281 C 176.855469 261.597656 177.308594 262.277344 177.761719 262.902344 Z M 177.761719 262.902344 " fill-opacity="1" fill-rule="nonzero"/><path fill="#00f3f7" d="M 173.972656 245.476562 C 173.632812 247.34375 173.519531 249.269531 173.632812 251.132812 L 101.679688 251.132812 C 100.09375 251.132812 98.851562 249.890625 98.851562 248.304688 C 98.851562 246.722656 100.09375 245.476562 101.679688 245.476562 Z M 173.972656 245.476562 " fill-opacity="1" fill-rule="nonzero"/><path fill="#00f3f7" d="M 88.949219 233.316406 L 88.949219 275.117188 C 88.949219 278.625 86.066406 281.511719 82.558594 281.511719 L 40.699219 281.511719 C 37.191406 281.511719 34.363281 278.625 34.363281 275.117188 L 34.363281 233.316406 C 34.363281 229.808594 37.191406 226.980469 40.699219 226.980469 L 82.558594 226.980469 C 86.066406 226.980469 88.949219 229.808594 88.949219 233.316406 Z M 88.949219 233.316406 " fill-opacity="1" fill-rule="nonzero"/><path fill="#00f3f7" d="M 178.15625 233.710938 C 177.308594 235.578125 176.574219 237.445312 175.839844 239.367188 L 101.679688 239.367188 C 100.09375 239.367188 98.851562 238.066406 98.851562 236.539062 C 98.851562 234.957031 100.09375 233.710938 101.679688 233.710938 Z M 178.15625 233.710938 " fill-opacity="1" fill-rule="nonzero"/><path fill="#00f3f7" d="M 221.882812 183.085938 C 221.882812 184.667969 220.640625 185.914062 219.054688 185.914062 L 101.679688 185.914062 C 100.09375 185.914062 98.851562 184.667969 98.851562 183.085938 C 98.851562 181.558594 100.09375 180.257812 101.679688 180.257812 L 219.054688 180.257812 C 220.640625 180.257812 221.882812 181.558594 221.882812 183.085938 Z M 221.882812 183.085938 " fill-opacity="1" fill-rule="nonzero"/><path fill="#00f3f7" d="M 221.882812 159.550781 C 221.882812 161.078125 220.640625 162.378906 219.054688 162.378906 L 101.679688 162.378906 C 100.09375 162.378906 98.851562 161.078125 98.851562 159.550781 C 98.851562 157.96875 100.09375 156.722656 101.679688 156.722656 L 219.054688 156.722656 C 220.640625 156.722656 221.882812 157.96875 221.882812 159.550781 Z M 221.882812 159.550781 " fill-opacity="1" fill-rule="nonzero"/><path fill="#00f3f7" d="M 221.882812 171.316406 C 221.882812 172.902344 220.640625 174.148438 219.054688 174.148438 L 101.679688 174.148438 C 100.09375 174.148438 98.851562 172.902344 98.851562 171.316406 C 98.851562 169.734375 100.09375 168.488281 101.679688 168.488281 L 219.054688 168.488281 C 220.640625 168.488281 221.882812 169.734375 221.882812 171.316406 Z M 221.882812 171.316406 " fill-opacity="1" fill-rule="nonzero"/><path fill="#00f3f7" d="M 221.882812 94.332031 C 221.882812 95.914062 220.640625 97.160156 219.054688 97.160156 L 101.679688 97.160156 C 100.09375 97.160156 98.851562 95.914062 98.851562 94.332031 C 98.851562 92.746094 100.09375 91.503906 101.679688 91.503906 L 219.054688 91.503906 C 220.640625 91.503906 221.882812 92.746094 221.882812 94.332031 Z M 221.882812 94.332031 " fill-opacity="1" fill-rule="nonzero"/><path fill="#00f3f7" d="M 221.882812 106.097656 C 221.882812 107.679688 220.640625 108.925781 219.054688 108.925781 L 101.679688 108.925781 C 100.09375 108.925781 98.851562 107.679688 98.851562 106.097656 C 98.851562 104.570312 100.09375 103.269531 101.679688 103.269531 L 219.054688 103.269531 C 220.640625 103.269531 221.882812 104.570312 221.882812 106.097656 Z M 221.882812 106.097656 " fill-opacity="1" fill-rule="nonzero"/><path fill="#00f3f7" d="M 98.851562 82.566406 C 98.851562 80.980469 100.09375 79.734375 101.679688 79.734375 L 219.054688 79.734375 C 220.640625 79.734375 221.882812 80.980469 221.882812 82.566406 C 221.882812 84.09375 220.640625 85.394531 219.054688 85.394531 L 101.679688 85.394531 C 100.09375 85.394531 98.851562 84.09375 98.851562 82.566406 Z M 98.851562 82.566406 " fill-opacity="1" fill-rule="nonzero"/><path fill="#00f3f7" d="M 283.660156 239.945312 C 257.507812 234.847656 234.859375 257.5 239.957031 283.648438 C 242.9375 298.945312 255.796875 310.941406 271.238281 312.980469 C 295.613281 316.1875 316.191406 295.609375 312.984375 271.234375 C 310.953125 255.785156 298.957031 242.925781 283.660156 239.945312 Z M 283.660156 239.945312 " fill-opacity="1" fill-rule="nonzero"/><path fill="#00f3f7" d="M 358.972656 291.714844 C 348.078125 289.136719 340.449219 283.179688 340.449219 276.25 C 340.449219 269.320312 348.085938 263.382812 358.984375 260.8125 C 365.484375 259.28125 369.183594 252.464844 367.085938 246.121094 C 365.597656 241.640625 363.789062 237.308594 361.679688 233.152344 C 358.625 227.144531 351.191406 225.316406 345.441406 228.832031 C 335.996094 234.605469 326.5 235.753906 321.628906 230.882812 C 316.757812 226.011719 317.929688 216.539062 323.714844 207.101562 C 327.230469 201.367188 325.402344 193.945312 319.40625 190.902344 C 315.246094 188.792969 310.910156 186.976562 306.429688 185.488281 C 300.09375 183.382812 293.269531 187.078125 291.738281 193.578125 C 289.160156 204.472656 283.203125 212.101562 276.273438 212.101562 C 269.34375 212.101562 263.402344 204.460938 260.835938 193.566406 C 259.304688 187.066406 252.488281 183.367188 246.144531 185.464844 C 241.660156 186.953125 237.328125 188.761719 233.167969 190.878906 C 227.167969 193.929688 225.339844 201.367188 228.859375 207.101562 C 234.644531 216.539062 235.808594 226.019531 230.945312 230.882812 C 226.082031 235.753906 216.578125 234.605469 207.132812 228.832031 C 201.382812 225.316406 193.949219 227.148438 190.894531 233.152344 C 188.78125 237.308594 186.96875 241.644531 185.488281 246.121094 C 183.390625 252.457031 187.089844 259.28125 193.589844 260.8125 C 204.488281 263.382812 212.125 269.320312 212.125 276.25 C 212.125 283.179688 204.488281 289.136719 193.601562 291.714844 C 187.101562 293.253906 183.40625 300.070312 185.515625 306.40625 C 187.003906 310.890625 188.820312 315.226562 190.929688 319.382812 C 193.972656 325.378906 201.394531 327.210938 207.132812 323.691406 C 216.566406 317.90625 226.046875 316.742188 230.910156 321.605469 C 235.78125 326.476562 234.632812 335.972656 228.859375 345.421875 C 225.34375 351.167969 227.179688 358.601562 233.179688 361.65625 C 237.335938 363.769531 241.671875 365.582031 246.152344 367.0625 C 252.492188 369.160156 259.308594 365.460938 260.839844 358.960938 C 263.410156 348.0625 269.347656 340.425781 276.277344 340.425781 C 283.207031 340.425781 289.164062 348.0625 291.742188 358.953125 C 293.28125 365.449219 300.097656 369.144531 306.433594 367.039062 C 310.914062 365.554688 315.246094 363.738281 319.40625 361.628906 C 325.40625 358.582031 327.238281 351.15625 323.726562 345.414062 C 317.953125 335.96875 316.804688 326.46875 321.671875 321.601562 C 326.542969 316.730469 336.019531 317.902344 345.453125 323.6875 C 351.191406 327.199219 358.613281 325.375 361.65625 319.378906 C 363.765625 315.21875 365.582031 310.878906 367.070312 306.402344 C 369.160156 300.070312 365.46875 293.253906 358.972656 291.714844 Z M 326.957031 284.980469 C 323.445312 306.265625 306.277344 323.425781 284.996094 326.945312 C 249.855469 332.75 219.824219 302.753906 225.589844 267.5625 C 229.078125 246.253906 246.265625 229.0625 267.574219 225.570312 C 302.757812 219.8125 332.753906 249.839844 326.957031 284.980469 Z M 326.957031 284.980469 " fill-opacity="1" fill-rule="nonzero"/></svg>