<svg xmlns="http://www.w3.org/2000/svg" xmlns:xlink="http://www.w3.org/1999/xlink" width="500" zoomAndPan="magnify" viewBox="0 0 375 374.999991" height="500" preserveAspectRatio="xMidYMid meet" version="1.0"><defs><clipPath id="53896ae416"><path d="M 282.003906 149.476562 L 371.066406 149.476562 L 371.066406 236.367188 L 282.003906 236.367188 Z M 282.003906 149.476562 " clip-rule="nonzero"/></clipPath><clipPath id="c05edfad32"><path d="M 3.566406 241.070312 L 97.511719 241.070312 L 97.511719 334.871094 L 3.566406 334.871094 Z M 3.566406 241.070312 " clip-rule="nonzero"/></clipPath><clipPath id="f64ea51b43"><path d="M 157 37.5 L 163 37.5 L 163 44 L 157 44 Z M 157 37.5 " clip-rule="nonzero"/></clipPath><clipPath id="d22c1bd199"><path d="M 111 37.5 L 117 37.5 L 117 44 L 111 44 Z M 111 37.5 " clip-rule="nonzero"/></clipPath><clipPath id="ad51b82bd2"><path d="M 106.917969 258.058594 L 335.578125 258.058594 L 335.578125 334.871094 L 106.917969 334.871094 Z M 106.917969 258.058594 " clip-rule="nonzero"/></clipPath></defs><path fill="#00f3f7" d="M 225.335938 235.070312 C 226.695312 235.070312 227.800781 233.96875 227.800781 232.605469 L 227.800781 194.5 C 227.800781 193.136719 226.695312 192.03125 225.335938 192.03125 L 204.550781 192.03125 C 203.191406 192.03125 202.085938 193.136719 202.085938 194.5 L 202.085938 232.605469 C 202.085938 233.96875 203.191406 235.070312 204.550781 235.070312 C 205.910156 235.070312 207.015625 233.96875 207.015625 232.605469 L 207.015625 196.960938 L 222.871094 196.960938 L 222.871094 232.605469 C 222.871094 233.96875 223.976562 235.070312 225.335938 235.070312 " fill-opacity="1" fill-rule="nonzero"/><path fill="#00f3f7" d="M 257.996094 235.074219 C 259.359375 235.074219 260.460938 233.96875 260.460938 232.605469 L 260.460938 169.753906 C 260.460938 168.394531 259.359375 167.289062 257.996094 167.289062 L 237.214844 167.289062 C 235.851562 167.289062 234.746094 168.394531 234.746094 169.753906 L 234.746094 232.605469 C 234.746094 233.96875 235.851562 235.074219 237.214844 235.074219 C 238.574219 235.074219 239.675781 233.96875 239.675781 232.605469 L 239.675781 172.21875 L 255.53125 172.21875 L 255.53125 232.605469 C 255.53125 233.96875 256.636719 235.074219 257.996094 235.074219 " fill-opacity="1" fill-rule="nonzero"/><path fill="#00f3f7" d="M 269.875 192.03125 C 268.515625 192.03125 267.410156 193.136719 267.410156 194.5 L 267.410156 232.605469 C 267.410156 233.96875 268.515625 235.070312 269.875 235.070312 C 271.238281 235.070312 272.339844 233.96875 272.339844 232.605469 L 272.339844 196.960938 L 278.359375 196.960938 C 279.722656 196.960938 280.824219 195.859375 280.824219 194.5 C 280.824219 193.136719 279.722656 192.03125 278.359375 192.03125 L 269.875 192.03125 " fill-opacity="1" fill-rule="nonzero"/><path fill="#00f3f7" d="M 293.128906 232.605469 L 293.128906 211.128906 C 293.128906 209.765625 292.023438 208.664062 290.660156 208.664062 C 289.300781 208.664062 288.199219 209.765625 288.199219 211.128906 L 288.199219 232.605469 C 288.199219 233.96875 289.300781 235.070312 290.660156 235.070312 C 292.023438 235.070312 293.128906 233.96875 293.128906 232.605469 " fill-opacity="1" fill-rule="nonzero"/><path fill="#00f3f7" d="M 305.003906 232.605469 L 305.003906 218.285156 C 305.003906 216.925781 303.898438 215.820312 302.539062 215.820312 C 301.175781 215.820312 300.070312 216.925781 300.070312 218.285156 L 300.070312 232.605469 C 300.070312 233.96875 301.175781 235.074219 302.539062 235.074219 C 303.898438 235.074219 305.003906 233.96875 305.003906 232.605469 " fill-opacity="1" fill-rule="nonzero"/><path fill="#00f3f7" d="M 325.785156 232.605469 L 325.785156 218.285156 C 325.785156 216.925781 324.683594 215.820312 323.320312 215.820312 C 321.960938 215.820312 320.855469 216.925781 320.855469 218.285156 L 320.855469 232.605469 C 320.855469 233.96875 321.960938 235.074219 323.320312 235.074219 C 324.683594 235.074219 325.785156 233.96875 325.785156 232.605469 " fill-opacity="1" fill-rule="nonzero"/><path fill="#00f3f7" d="M 300.074219 130.164062 L 300.074219 143.550781 C 300.074219 144.914062 301.175781 146.015625 302.539062 146.015625 C 303.898438 146.015625 305.003906 144.914062 305.003906 143.550781 L 305.003906 132.628906 L 320.855469 132.628906 L 320.855469 143.78125 C 320.855469 145.140625 321.960938 146.246094 323.320312 146.246094 C 324.683594 146.246094 325.785156 145.140625 325.785156 143.78125 L 325.785156 130.164062 C 325.785156 128.800781 324.683594 127.699219 323.320312 127.699219 L 302.539062 127.699219 C 301.175781 127.699219 300.074219 128.800781 300.074219 130.164062 " fill-opacity="1" fill-rule="nonzero"/><path fill="#00f3f7" d="M 335.15625 240.398438 L 193.117188 240.398438 C 191.753906 240.398438 190.652344 241.5 190.652344 242.863281 C 190.652344 244.222656 191.753906 245.328125 193.117188 245.328125 L 335.15625 245.328125 C 336.515625 245.328125 337.621094 244.222656 337.621094 242.863281 C 337.621094 241.5 336.515625 240.398438 335.15625 240.398438 " fill-opacity="1" fill-rule="nonzero"/><g clip-path="url(#53896ae416)"><path fill="#00f3f7" d="M 364.875 229.460938 C 363.730469 230.667969 362.1875 231.335938 360.523438 231.335938 C 358.992188 231.335938 357.53125 230.753906 356.414062 229.699219 L 339.75 213.9375 C 339.773438 213.371094 340.363281 211.742188 342.21875 209.554688 C 344.527344 206.828125 346.988281 205.335938 347.976562 205.242188 L 364.640625 221.003906 C 365.800781 222.101562 366.460938 223.585938 366.507812 225.183594 C 366.554688 226.78125 365.972656 228.300781 364.875 229.460938 Z M 335.003906 202.722656 C 335.265625 202.46875 335.523438 202.207031 335.773438 201.941406 C 336.050781 201.648438 336.320312 201.347656 336.585938 201.046875 L 340.222656 204.488281 C 339.664062 205.023438 339.132812 205.585938 338.636719 206.160156 Z M 334.308594 196.019531 C 333.664062 196.898438 332.957031 197.746094 332.191406 198.554688 C 331.496094 199.292969 330.761719 199.980469 329.996094 200.625 C 329.859375 200.71875 329.730469 200.824219 329.609375 200.945312 C 324.984375 204.699219 319.273438 206.730469 313.199219 206.730469 L 313.195312 206.730469 C 306.488281 206.730469 300.113281 204.191406 295.238281 199.582031 C 290.164062 194.785156 287.265625 188.300781 287.070312 181.320312 C 286.875 174.339844 289.410156 167.703125 294.207031 162.628906 C 299.195312 157.355469 305.945312 154.449219 313.203125 154.449219 C 319.910156 154.449219 326.289062 156.988281 331.164062 161.597656 C 336.234375 166.394531 339.136719 172.882812 339.332031 179.863281 C 339.496094 185.730469 337.730469 191.355469 334.3125 196.011719 C 334.308594 196.011719 334.308594 196.015625 334.308594 196.019531 Z M 368.027344 217.417969 L 351.203125 201.511719 C 350.375 200.726562 349.289062 200.308594 348.070312 200.308594 C 346.761719 200.308594 345.421875 200.800781 344.207031 201.472656 L 339.554688 197.066406 C 340.652344 195.308594 341.578125 193.4375 342.308594 191.472656 C 343.714844 187.710938 344.371094 183.757812 344.261719 179.726562 C 344.148438 175.691406 343.273438 171.78125 341.65625 168.101562 C 339.988281 164.292969 337.597656 160.898438 334.550781 158.015625 C 328.757812 152.539062 321.175781 149.519531 313.203125 149.519531 C 309.023438 149.519531 304.957031 150.339844 301.117188 151.957031 C 297.140625 153.632812 293.613281 156.082031 290.625 159.242188 C 287.746094 162.289062 285.542969 165.808594 284.089844 169.707031 C 282.683594 173.46875 282.03125 177.425781 282.140625 181.457031 C 282.253906 185.492188 283.128906 189.398438 284.742188 193.082031 C 286.410156 196.890625 288.804688 200.285156 291.851562 203.164062 C 297.644531 208.644531 305.222656 211.660156 313.195312 211.660156 C 313.195312 211.660156 313.199219 211.660156 313.199219 211.660156 C 317.378906 211.660156 321.445312 210.84375 325.28125 209.226562 C 327.386719 208.335938 329.367188 207.230469 331.207031 205.917969 L 335.824219 210.28125 C 335.675781 210.582031 335.542969 210.875 335.429688 211.164062 C 334.050781 214.621094 335.324219 216.539062 336.207031 217.371094 L 353.027344 233.28125 C 355.0625 235.203125 357.726562 236.261719 360.523438 236.261719 C 363.511719 236.261719 366.40625 235.019531 368.457031 232.847656 C 372.59375 228.476562 372.398438 221.554688 368.027344 217.417969 " fill-opacity="1" fill-rule="nonzero"/></g><path fill="#00f3f7" d="M 311.269531 158.554688 C 305.945312 158.554688 300.941406 160.628906 297.175781 164.394531 C 293.414062 168.15625 291.339844 173.164062 291.339844 178.484375 C 291.339844 179.847656 292.441406 180.953125 293.804688 180.953125 C 295.167969 180.953125 296.269531 179.847656 296.269531 178.484375 C 296.269531 170.214844 303 163.484375 311.269531 163.484375 C 312.632812 163.484375 313.734375 162.382812 313.734375 161.019531 C 313.734375 159.660156 312.632812 158.554688 311.269531 158.554688 " fill-opacity="1" fill-rule="nonzero"/><path fill="#00f3f7" d="M 214.941406 147.117188 C 217.628906 147.117188 219.808594 149.300781 219.808594 151.984375 C 219.808594 154.667969 217.628906 156.851562 214.941406 156.851562 C 212.261719 156.851562 210.078125 154.667969 210.078125 151.984375 C 210.078125 149.300781 212.261719 147.117188 214.941406 147.117188 Z M 247.605469 121.113281 C 250.289062 121.113281 252.472656 123.296875 252.472656 125.980469 C 252.472656 128.667969 250.289062 130.847656 247.605469 130.847656 C 244.921875 130.847656 242.738281 128.667969 242.738281 125.980469 C 242.738281 123.296875 244.921875 121.113281 247.605469 121.113281 Z M 278.359375 135.78125 C 281.042969 135.78125 283.226562 137.964844 283.226562 140.648438 C 283.226562 143.332031 281.042969 145.511719 278.359375 145.511719 C 275.675781 145.511719 273.492188 143.332031 273.492188 140.648438 C 273.492188 137.964844 275.675781 135.78125 278.359375 135.78125 Z M 312.929688 74.453125 C 315.613281 74.453125 317.796875 76.636719 317.796875 79.320312 C 317.796875 82.007812 315.613281 84.191406 312.929688 84.191406 C 310.246094 84.191406 308.0625 82.007812 308.0625 79.320312 C 308.0625 76.636719 310.246094 74.453125 312.929688 74.453125 Z M 214.941406 161.78125 C 220.34375 161.78125 224.742188 157.386719 224.742188 151.984375 C 224.742188 150.570312 224.4375 149.222656 223.898438 148.007812 L 241.726562 133.8125 C 243.367188 135.046875 245.398438 135.78125 247.605469 135.78125 C 250.609375 135.78125 253.300781 134.421875 255.097656 132.285156 L 268.738281 138.789062 C 268.625 139.390625 268.5625 140.011719 268.5625 140.648438 C 268.5625 146.046875 272.957031 150.445312 278.359375 150.445312 C 283.761719 150.445312 288.15625 146.046875 288.15625 140.648438 C 288.15625 137.882812 287.007812 135.382812 285.160156 133.601562 L 310.421875 88.792969 C 311.222656 89.007812 312.0625 89.121094 312.929688 89.121094 C 318.332031 89.121094 322.726562 84.722656 322.726562 79.320312 C 322.726562 73.921875 318.332031 69.523438 312.929688 69.523438 C 307.527344 69.523438 303.132812 73.921875 303.132812 79.320312 C 303.132812 82.085938 304.28125 84.585938 306.128906 86.367188 L 280.871094 131.175781 C 280.070312 130.964844 279.226562 130.847656 278.359375 130.847656 C 275.359375 130.847656 272.664062 132.207031 270.867188 134.34375 L 257.222656 127.839844 C 257.34375 127.238281 257.402344 126.617188 257.402344 125.980469 C 257.402344 120.578125 253.007812 116.183594 247.605469 116.183594 C 242.203125 116.183594 237.808594 120.578125 237.808594 125.980469 C 237.808594 127.398438 238.109375 128.742188 238.652344 129.957031 L 220.824219 144.152344 C 219.183594 142.917969 217.148438 142.1875 214.941406 142.1875 C 209.539062 142.1875 205.144531 146.582031 205.144531 151.984375 C 205.144531 157.386719 209.539062 161.78125 214.941406 161.78125 " fill-opacity="1" fill-rule="nonzero"/><path fill="#00f3f7" d="M 99.6875 230.199219 C 100.183594 228.667969 100.570312 227.089844 100.835938 225.5 L 106.4375 223.058594 C 107.105469 222.769531 107.65625 222.289062 108.035156 221.667969 C 108.46875 220.960938 108.636719 220.117188 108.511719 219.300781 L 106.867188 208.636719 C 106.625 207.0625 105.34375 205.84375 103.757812 205.679688 L 97.679688 205.042969 C 96.945312 203.609375 96.105469 202.21875 95.167969 200.910156 L 97.40625 195.230469 C 97.707031 194.457031 97.730469 193.597656 97.464844 192.820312 C 97.234375 192.128906 96.804688 191.53125 96.21875 191.097656 C 96.214844 191.09375 96.207031 191.089844 96.203125 191.085938 L 87.492188 184.714844 C 86.203125 183.773438 84.4375 183.820312 83.195312 184.824219 L 78.449219 188.667969 C 76.917969 188.175781 75.339844 187.792969 73.746094 187.527344 L 71.304688 181.929688 C 70.667969 180.46875 69.117188 179.617188 67.539062 179.863281 L 56.871094 181.515625 C 56.457031 181.578125 56.066406 181.714844 55.707031 181.910156 C 55.179688 182.203125 54.726562 182.628906 54.402344 183.160156 C 54.128906 183.609375 53.960938 184.101562 53.90625 184.625 L 53.273438 190.648438 C 52.289062 191.160156 51.269531 191.761719 50.25 192.445312 C 49.871094 192.695312 49.496094 192.949219 49.128906 193.210938 L 43.445312 190.980469 C 41.957031 190.398438 40.261719 190.890625 39.316406 192.179688 L 34.609375 198.613281 L 32.941406 200.890625 C 32.941406 200.894531 32.9375 200.898438 32.933594 200.898438 C 32.929688 200.90625 32.929688 200.910156 32.925781 200.914062 C 32.871094 200.988281 32.824219 201.0625 32.777344 201.136719 C 32 202.40625 32.109375 204.03125 33.042969 205.183594 L 36.886719 209.925781 C 36.390625 211.457031 36.007812 213.03125 35.742188 214.621094 L 30.136719 217.0625 C 29.472656 217.355469 28.917969 217.835938 28.542969 218.453125 C 28.328125 218.804688 28.175781 219.183594 28.09375 219.585938 C 28.011719 219.996094 28 220.410156 28.0625 220.824219 L 29.707031 231.484375 C 29.953125 233.0625 31.230469 234.277344 32.824219 234.445312 L 37.121094 234.871094 C 38.160156 235.054688 39.21875 234.582031 39.769531 233.683594 C 39.925781 233.429688 40.035156 233.148438 40.09375 232.859375 C 40.378906 231.46875 39.480469 230.113281 38.089844 229.828125 C 37.933594 229.796875 37.773438 229.78125 37.609375 229.777344 L 34.601562 229.464844 L 33.339844 221.273438 L 39.109375 218.761719 C 39.59375 218.546875 39.996094 218.199219 40.273438 217.746094 C 40.46875 217.429688 40.589844 217.082031 40.632812 216.710938 C 40.898438 214.527344 41.425781 212.375 42.195312 210.316406 C 42.515625 209.46875 42.359375 208.503906 41.785156 207.796875 L 37.832031 202.921875 L 39.53125 200.597656 L 42.734375 196.230469 L 48.585938 198.527344 C 49.429688 198.859375 50.398438 198.714844 51.113281 198.15625 C 52.84375 196.800781 54.738281 195.648438 56.746094 194.738281 C 57.214844 194.523438 57.609375 194.179688 57.878906 193.738281 C 58.074219 193.417969 58.199219 193.050781 58.238281 192.675781 L 58.3125 192.085938 C 58.34375 191.898438 58.359375 191.710938 58.351562 191.523438 L 58.890625 186.402344 L 67.089844 185.132812 L 69.601562 190.894531 C 69.964844 191.722656 70.75 192.308594 71.652344 192.417969 C 73.84375 192.679688 75.996094 193.203125 78.054688 193.972656 C 78.902344 194.289062 79.871094 194.132812 80.574219 193.5625 L 85.441406 189.617188 L 92.148438 194.507812 L 91.085938 197.234375 C 91.0625 197.285156 91.039062 197.34375 91.019531 197.394531 C 91.011719 197.417969 91.003906 197.441406 91 197.464844 L 89.859375 200.363281 C 89.527344 201.207031 89.667969 202.175781 90.226562 202.890625 C 91.582031 204.617188 92.730469 206.507812 93.644531 208.515625 C 94.019531 209.339844 94.8125 209.914062 95.714844 210.007812 L 101.972656 210.660156 L 103.238281 218.847656 L 97.46875 221.363281 C 96.980469 221.574219 96.578125 221.925781 96.300781 222.378906 C 96.109375 222.695312 95.988281 223.042969 95.941406 223.410156 C 95.675781 225.597656 95.152344 227.75 94.378906 229.804688 C 94.0625 230.65625 94.21875 231.621094 94.789062 232.324219 L 98.746094 237.207031 L 93.839844 243.894531 L 91.101562 242.824219 C 91.050781 242.804688 90.996094 242.785156 90.941406 242.765625 C 90.925781 242.757812 90.90625 242.753906 90.890625 242.746094 C 90.792969 242.714844 90.695312 242.6875 90.601562 242.667969 C 89.542969 242.453125 88.457031 242.925781 87.894531 243.847656 C 87.738281 244.101562 87.628906 244.378906 87.570312 244.671875 C 87.3125 245.917969 87.988281 247.140625 89.175781 247.585938 L 93.125 249.132812 C 94.601562 249.710938 96.292969 249.226562 97.238281 247.957031 C 97.242188 247.949219 97.246094 247.941406 97.25 247.9375 L 103.636719 239.230469 C 103.691406 239.152344 103.746094 239.070312 103.796875 238.988281 C 104.574219 237.71875 104.46875 236.09375 103.53125 234.941406 L 99.6875 230.199219 " fill-opacity="1" fill-rule="nonzero"/><path fill="#00f3f7" d="M 109.269531 289.875 C 109.949219 291.082031 111.363281 291.683594 112.707031 291.332031 L 120.054688 289.417969 C 120.824219 289.21875 121.480469 288.730469 121.894531 288.050781 C 122.1875 287.574219 122.34375 287.027344 122.34375 286.464844 L 122.359375 282.488281 C 123.148438 281.960938 123.914062 281.382812 124.636719 280.765625 L 128.46875 281.835938 C 129.164062 282.03125 129.910156 281.972656 130.558594 281.675781 C 131.125 281.421875 131.59375 281.007812 131.921875 280.472656 L 131.9375 280.449219 C 131.941406 280.445312 131.945312 280.433594 131.949219 280.429688 L 135.789062 273.886719 C 136.492188 272.6875 136.300781 271.167969 135.320312 270.183594 L 132.515625 267.363281 C 132.699219 266.433594 132.832031 265.488281 132.90625 264.539062 L 136.375 262.585938 C 136.832031 262.332031 137.214844 261.960938 137.484375 261.515625 C 137.917969 260.8125 138.046875 259.949219 137.835938 259.148438 L 135.921875 251.808594 C 135.574219 250.46875 134.359375 249.53125 132.972656 249.527344 L 129.023438 249.515625 C 128.625 248.929688 128.175781 248.335938 127.6875 247.746094 C 127.550781 247.578125 127.410156 247.40625 127.265625 247.242188 L 128.339844 243.410156 C 128.714844 242.074219 128.136719 240.652344 126.941406 239.949219 L 122.101562 237.125 L 120.386719 236.121094 L 120.371094 236.109375 C 119.425781 235.566406 118.28125 235.578125 117.359375 236.082031 C 117.113281 236.21875 116.886719 236.386719 116.683594 236.589844 L 113.347656 239.90625 C 113.332031 239.921875 113.316406 239.9375 113.300781 239.953125 C 113.160156 240.109375 113.035156 240.273438 112.929688 240.445312 C 112.21875 241.609375 112.554688 242.792969 113.207031 243.449219 C 113.644531 243.890625 114.238281 244.132812 114.878906 244.136719 C 115.507812 244.140625 116.101562 243.910156 116.503906 243.511719 L 119.109375 240.921875 L 120.46875 241.714844 L 123.367188 243.410156 L 122.296875 247.234375 C 122.066406 248.046875 122.289062 248.925781 122.875 249.535156 C 123.914062 250.613281 124.824219 251.816406 125.582031 253.117188 C 126.007812 253.839844 126.792969 254.296875 127.632812 254.300781 L 128.03125 254.308594 C 128.183594 254.320312 128.335938 254.316406 128.488281 254.296875 L 131.625 254.304688 L 132.871094 259.070312 L 129.40625 261.023438 C 129.050781 261.222656 128.75 261.511719 128.539062 261.859375 C 128.316406 262.222656 128.195312 262.636719 128.1875 263.0625 C 128.160156 264.566406 127.953125 266.0625 127.570312 267.511719 C 127.355469 268.328125 127.59375 269.203125 128.1875 269.804688 L 130.976562 272.605469 L 128.480469 276.867188 L 126.941406 276.441406 C 126.886719 276.425781 126.835938 276.410156 126.789062 276.398438 L 126.769531 276.394531 C 126.761719 276.390625 126.75 276.390625 126.742188 276.390625 L 124.65625 275.804688 C 123.839844 275.578125 122.957031 275.800781 122.351562 276.386719 C 121.269531 277.425781 120.0625 278.335938 118.761719 279.097656 C 118.421875 279.292969 118.132812 279.578125 117.925781 279.914062 C 117.699219 280.289062 117.578125 280.71875 117.574219 281.15625 L 117.5625 285.125 L 112.789062 286.371094 L 111.085938 283.34375 C 111.074219 283.324219 111.0625 283.304688 111.050781 283.289062 C 110.4375 282.316406 109.1875 281.554688 107.894531 282.179688 C 107.472656 282.378906 107.136719 282.679688 106.902344 283.0625 C 106.417969 283.855469 106.445312 284.925781 106.972656 285.796875 L 109.269531 289.875 " fill-opacity="1" fill-rule="nonzero"/><path fill="#00f3f7" d="M 70.3125 291.375 C 68.769531 298.929688 62.917969 304.945312 55.40625 306.703125 C 50.261719 307.902344 44.953125 307.03125 40.457031 304.242188 C 35.957031 301.453125 32.820312 297.085938 31.621094 291.949219 C 30.964844 289.144531 30.921875 286.304688 31.496094 283.503906 C 32.671875 277.742188 36.355469 272.875 41.371094 270.109375 C 42.933594 269.25 44.621094 268.59375 46.402344 268.179688 C 57.035156 265.691406 67.707031 272.308594 70.1875 282.929688 C 70.84375 285.734375 70.886719 288.578125 70.3125 291.375 Z M 70.976562 272.832031 C 69.085938 270.242188 66.742188 268.066406 64.003906 266.371094 C 61.269531 264.671875 58.277344 263.535156 55.113281 262.992188 C 51.839844 262.429688 48.523438 262.535156 45.261719 263.296875 C 43.023438 263.820312 40.890625 264.640625 38.910156 265.734375 C 36.71875 266.941406 34.714844 268.476562 32.96875 270.308594 C 29.726562 273.703125 27.515625 277.917969 26.578125 282.503906 C 25.859375 286.015625 25.910156 289.578125 26.734375 293.09375 C 27.496094 296.351562 28.871094 299.363281 30.828125 302.046875 C 32.71875 304.636719 35.066406 306.8125 37.800781 308.507812 C 40.539062 310.207031 43.53125 311.34375 46.691406 311.886719 C 49.96875 312.445312 53.285156 312.347656 56.546875 311.582031 C 61.257812 310.480469 65.511719 308.054688 68.839844 304.570312 C 72.082031 301.175781 74.292969 296.960938 75.230469 292.375 C 75.949219 288.863281 75.894531 285.300781 75.074219 281.785156 C 74.3125 278.527344 72.933594 275.515625 70.976562 272.832031 " fill-opacity="1" fill-rule="nonzero"/><g clip-path="url(#c05edfad32)"><path fill="#00f3f7" d="M 85.242188 287.378906 C 84.464844 287.789062 83.949219 288.601562 83.910156 289.484375 C 83.792969 292.117188 83.359375 294.742188 82.621094 297.285156 C 82.375 298.136719 82.597656 299.0625 83.207031 299.703125 L 88.59375 305.398438 L 82.988281 314.417969 L 75.488281 312.117188 C 74.640625 311.859375 73.707031 312.066406 73.054688 312.667969 C 71.109375 314.449219 68.953125 315.996094 66.648438 317.265625 C 66.640625 317.273438 66.632812 317.277344 66.625 317.28125 C 65.851562 317.707031 65.355469 318.523438 65.328125 319.40625 L 65.105469 327.226562 L 60.984375 328.195312 L 54.898438 329.609375 C 54.859375 329.617188 54.820312 329.625 54.78125 329.636719 L 51.109375 322.726562 C 50.695312 321.945312 49.886719 321.4375 49.003906 321.398438 C 46.355469 321.289062 43.730469 320.863281 41.191406 320.128906 C 40.34375 319.886719 39.414062 320.109375 38.769531 320.71875 L 33.074219 326.109375 L 24.046875 320.519531 L 26.054688 313.976562 C 26.074219 313.917969 26.09375 313.863281 26.105469 313.808594 L 26.347656 313.027344 C 26.523438 312.445312 26.484375 311.820312 26.234375 311.265625 C 26.125 311.015625 25.972656 310.78125 25.785156 310.578125 C 23.996094 308.625 22.445312 306.464844 21.171875 304.15625 C 20.746094 303.382812 19.929688 302.886719 19.046875 302.863281 L 11.207031 302.644531 L 8.792969 292.3125 L 15.722656 288.640625 C 16.503906 288.222656 17.015625 287.417969 17.054688 286.535156 C 17.171875 283.898438 17.605469 281.273438 18.34375 278.734375 C 18.59375 277.882812 18.367188 276.957031 17.757812 276.3125 L 12.371094 270.621094 L 17.976562 261.601562 L 25.476562 263.902344 C 26.324219 264.160156 27.257812 263.949219 27.910156 263.351562 C 29.859375 261.570312 32.015625 260.019531 34.316406 258.75 C 34.324219 258.746094 34.332031 258.742188 34.339844 258.738281 C 35.117188 258.308594 35.613281 257.496094 35.636719 256.613281 L 35.859375 248.78125 L 46.203125 246.359375 L 49.875 253.28125 C 50.289062 254.0625 51.097656 254.574219 51.980469 254.613281 C 54.617188 254.726562 57.246094 255.160156 59.789062 255.894531 C 60.640625 256.144531 61.570312 255.917969 62.210938 255.308594 L 67.914062 249.921875 L 76.9375 255.519531 L 74.632812 263.011719 C 74.371094 263.859375 74.582031 264.789062 75.179688 265.441406 C 76.96875 267.390625 78.523438 269.550781 79.792969 271.859375 C 80.21875 272.636719 81.035156 273.132812 81.921875 273.15625 L 89.757812 273.375 L 92.175781 283.707031 Z M 94.402344 271.191406 C 94.402344 271.183594 94.398438 271.175781 94.398438 271.167969 C 94.015625 269.578125 92.609375 268.4375 90.972656 268.390625 L 83.464844 268.183594 C 82.398438 266.414062 81.183594 264.71875 79.839844 263.140625 L 82.050781 255.964844 C 82.535156 254.394531 81.894531 252.6875 80.496094 251.820312 L 69.65625 245.097656 C 68.257812 244.230469 66.445312 244.414062 65.25 245.542969 L 59.785156 250.703125 C 57.777344 250.203125 55.714844 249.863281 53.652344 249.695312 L 50.140625 243.066406 C 49.367188 241.613281 47.710938 240.863281 46.105469 241.238281 L 33.675781 244.144531 C 33.347656 244.21875 33.039062 244.339844 32.753906 244.5 C 31.648438 245.109375 30.910156 246.265625 30.875 247.574219 L 30.660156 255.074219 C 28.886719 256.140625 27.191406 257.355469 25.609375 258.695312 L 18.429688 256.496094 C 16.855469 256.011719 15.148438 256.652344 14.28125 258.050781 L 7.542969 268.886719 C 7.316406 269.25 7.15625 269.648438 7.070312 270.070312 C 6.835938 271.226562 7.175781 272.429688 7.988281 273.289062 L 13.148438 278.742188 C 12.644531 280.75 12.304688 282.808594 12.132812 284.867188 L 5.496094 288.382812 C 4.046875 289.148438 3.292969 290.804688 3.660156 292.402344 C 3.660156 292.40625 3.660156 292.410156 3.660156 292.414062 L 6.5625 304.828125 C 6.9375 306.429688 8.347656 307.582031 9.996094 307.625 L 17.5 307.835938 C 18.664062 309.78125 19.878906 311.507812 21.117188 312.972656 L 18.9375 320.078125 C 18.453125 321.652344 19.09375 323.355469 20.492188 324.222656 L 31.339844 330.933594 C 32.738281 331.800781 34.550781 331.613281 35.746094 330.484375 L 41.199219 325.320312 C 43.210938 325.820312 45.269531 326.15625 47.335938 326.320312 L 50.859375 332.949219 C 51.628906 334.398438 53.289062 335.152344 54.890625 334.773438 L 61.550781 333.210938 L 67.289062 331.875 C 67.738281 331.769531 68.15625 331.582031 68.527344 331.328125 C 69.492188 330.671875 70.085938 329.585938 70.117188 328.425781 L 70.25 323.597656 C 70.253906 323.539062 70.246094 323.480469 70.234375 323.421875 L 70.304688 320.945312 C 72.078125 319.878906 73.773438 318.664062 75.355469 317.320312 L 82.535156 319.523438 C 84.109375 320.003906 85.816406 319.367188 86.6875 317.96875 L 93.421875 307.132812 C 94.292969 305.734375 94.109375 303.925781 92.976562 302.730469 L 87.820312 297.277344 C 88.320312 295.269531 88.660156 293.210938 88.832031 291.152344 L 95.46875 287.632812 C 96.921875 286.863281 97.679688 285.207031 97.304688 283.605469 L 94.402344 271.191406 " fill-opacity="1" fill-rule="nonzero"/></g><path fill="#00f3f7" d="M 112.808594 275.929688 C 120.019531 274.21875 124.492188 266.964844 122.785156 259.765625 C 122.183594 257.230469 120.871094 254.941406 118.988281 253.152344 C 117.160156 251.414062 114.886719 250.222656 112.414062 249.71875 C 111.816406 249.59375 111.207031 249.695312 110.695312 249.980469 C 110.320312 250.1875 109.996094 250.488281 109.765625 250.867188 C 109.613281 251.113281 109.507812 251.382812 109.449219 251.671875 C 109.3125 252.328125 109.441406 252.996094 109.808594 253.554688 C 110.179688 254.117188 110.746094 254.5 111.402344 254.632812 C 114.59375 255.289062 117.144531 257.757812 117.894531 260.925781 C 118.964844 265.433594 116.164062 269.972656 111.648438 271.046875 C 110.460938 271.328125 109.253906 271.351562 108.066406 271.117188 C 106.707031 270.847656 105.382812 271.730469 105.109375 273.085938 C 104.835938 274.445312 105.722656 275.769531 107.078125 276.039062 C 108.980469 276.417969 110.910156 276.378906 112.808594 275.929688 " fill-opacity="1" fill-rule="nonzero"/><path fill="#00f3f7" d="M 61.628906 215.351562 C 62.675781 213.644531 64.324219 212.445312 66.277344 211.976562 C 68.226562 211.503906 70.242188 211.820312 71.949219 212.859375 C 75.480469 215.015625 76.59375 219.640625 74.4375 223.167969 C 73.734375 224.316406 72.769531 225.210938 71.667969 225.816406 C 69.378906 227.078125 66.5 227.113281 64.117188 225.660156 C 60.585938 223.503906 59.472656 218.878906 61.628906 215.351562 Z M 61.496094 229.941406 C 64.34375 231.683594 67.707031 232.207031 70.964844 231.421875 C 74.222656 230.636719 76.976562 228.632812 78.722656 225.785156 C 80.464844 222.9375 80.992188 219.574219 80.207031 216.320312 C 79.425781 213.066406 77.421875 210.316406 74.570312 208.578125 C 70.59375 206.148438 65.785156 206.210938 61.96875 208.3125 C 60.128906 209.328125 58.519531 210.820312 57.34375 212.734375 C 55.601562 215.585938 55.074219 218.945312 55.855469 222.199219 C 56.640625 225.453125 58.644531 228.203125 61.496094 229.941406 " fill-opacity="1" fill-rule="nonzero"/><path fill="#00f3f7" d="M 181.769531 77.640625 C 182.050781 77.640625 182.328125 77.585938 182.585938 77.480469 L 185.957031 76.128906 C 186.5 75.914062 186.921875 75.496094 187.152344 74.960938 C 187.382812 74.421875 187.390625 73.832031 187.171875 73.289062 C 186.835938 72.457031 186.042969 71.917969 185.144531 71.917969 C 184.867188 71.917969 184.589844 71.972656 184.328125 72.078125 L 180.957031 73.429688 C 179.839844 73.878906 179.296875 75.152344 179.746094 76.269531 C 180.078125 77.101562 180.875 77.640625 181.769531 77.640625 " fill-opacity="1" fill-rule="nonzero"/><path fill="#00f3f7" d="M 189.734375 74.445312 C 190.011719 74.445312 190.285156 74.390625 190.546875 74.289062 L 191.925781 73.734375 C 193.039062 73.285156 193.585938 72.011719 193.136719 70.894531 C 192.800781 70.0625 192.003906 69.523438 191.109375 69.523438 C 190.828125 69.523438 190.558594 69.578125 190.296875 69.683594 L 188.921875 70.234375 C 187.804688 70.683594 187.261719 71.957031 187.710938 73.074219 C 188.042969 73.90625 188.839844 74.445312 189.734375 74.445312 " fill-opacity="1" fill-rule="nonzero"/><path fill="#00f3f7" d="M 155.097656 51.078125 C 155.375 51.195312 155.660156 51.253906 155.957031 51.253906 C 156.832031 51.253906 157.621094 50.730469 157.964844 49.925781 L 158.984375 47.535156 C 159.214844 47 159.222656 46.40625 159.003906 45.863281 C 158.785156 45.324219 158.371094 44.898438 157.835938 44.671875 C 157.5625 44.554688 157.273438 44.496094 156.976562 44.496094 C 156.101562 44.496094 155.3125 45.015625 154.96875 45.824219 L 153.949219 48.210938 C 153.71875 48.746094 153.710938 49.339844 153.929688 49.882812 C 154.148438 50.425781 154.5625 50.847656 155.097656 51.078125 " fill-opacity="1" fill-rule="nonzero"/><g clip-path="url(#f64ea51b43)"><path fill="#00f3f7" d="M 158.492188 43.132812 C 158.765625 43.25 159.050781 43.308594 159.347656 43.308594 C 160.222656 43.308594 161.011719 42.789062 161.359375 41.980469 L 161.917969 40.671875 C 162.148438 40.136719 162.152344 39.542969 161.933594 39 C 161.71875 38.457031 161.300781 38.035156 160.765625 37.804688 C 160.492188 37.691406 160.207031 37.632812 159.910156 37.632812 C 159.03125 37.632812 158.246094 38.152344 157.902344 38.957031 L 157.339844 40.269531 C 156.867188 41.375 157.382812 42.660156 158.492188 43.132812 " fill-opacity="1" fill-rule="nonzero"/></g><path fill="#00f3f7" d="M 180.507812 114.378906 L 182.636719 115.285156 C 182.910156 115.402344 183.195312 115.460938 183.492188 115.460938 C 184.367188 115.460938 185.15625 114.941406 185.5 114.136719 C 185.972656 113.027344 185.457031 111.742188 184.351562 111.269531 L 182.222656 110.363281 C 181.953125 110.246094 181.664062 110.1875 181.367188 110.1875 C 180.492188 110.1875 179.703125 110.707031 179.359375 111.511719 C 179.128906 112.050781 179.121094 112.644531 179.339844 113.183594 C 179.558594 113.726562 179.972656 114.148438 180.507812 114.378906 " fill-opacity="1" fill-rule="nonzero"/><path fill="#00f3f7" d="M 187.953125 117.558594 L 189.761719 118.328125 C 190.035156 118.449219 190.324219 118.507812 190.617188 118.507812 C 191.496094 118.507812 192.285156 117.984375 192.628906 117.179688 C 192.859375 116.644531 192.863281 116.050781 192.648438 115.511719 C 192.429688 114.96875 192.015625 114.542969 191.480469 114.316406 L 189.667969 113.539062 C 189.394531 113.425781 189.105469 113.367188 188.8125 113.367188 C 187.933594 113.367188 187.144531 113.886719 186.800781 114.691406 C 186.574219 115.226562 186.566406 115.820312 186.78125 116.363281 C 187 116.90625 187.414062 117.328125 187.953125 117.558594 " fill-opacity="1" fill-rule="nonzero"/><path fill="#00f3f7" d="M 166.402344 66.21875 C 166.984375 66.21875 167.535156 65.988281 167.949219 65.578125 L 174.078125 59.445312 C 174.929688 58.59375 174.929688 57.207031 174.078125 56.355469 C 173.667969 55.945312 173.121094 55.71875 172.535156 55.71875 C 171.953125 55.71875 171.402344 55.945312 170.992188 56.355469 L 164.859375 62.488281 C 164.449219 62.902344 164.21875 63.449219 164.21875 64.035156 C 164.21875 64.617188 164.449219 65.164062 164.859375 65.578125 C 165.273438 65.988281 165.820312 66.21875 166.402344 66.21875 " fill-opacity="1" fill-rule="nonzero"/><path fill="#00f3f7" d="M 137.011719 54.039062 C 138.214844 54.039062 139.195312 53.0625 139.195312 51.859375 L 139.195312 43.1875 C 139.195312 41.980469 138.214844 41.003906 137.011719 41.003906 C 135.808594 41.003906 134.828125 41.980469 134.828125 43.1875 L 134.828125 51.859375 C 134.828125 53.0625 135.808594 54.039062 137.011719 54.039062 " fill-opacity="1" fill-rule="nonzero"/><path fill="#00f3f7" d="M 178.578125 95.609375 L 187.25 95.609375 C 188.453125 95.609375 189.433594 94.628906 189.433594 93.425781 C 189.433594 92.222656 188.453125 91.242188 187.25 91.242188 L 178.578125 91.242188 C 177.375 91.242188 176.394531 92.222656 176.394531 93.425781 C 176.394531 94.628906 177.375 95.609375 178.578125 95.609375 " fill-opacity="1" fill-rule="nonzero"/><path fill="#00f3f7" d="M 87.898438 76.128906 L 91.273438 77.480469 C 91.53125 77.585938 91.804688 77.640625 92.085938 77.640625 C 92.984375 77.640625 93.777344 77.101562 94.113281 76.269531 C 94.328125 75.730469 94.324219 75.136719 94.09375 74.597656 C 93.863281 74.0625 93.441406 73.644531 92.898438 73.429688 L 89.527344 72.078125 C 89.265625 71.972656 88.992188 71.917969 88.714844 71.917969 C 87.816406 71.917969 87.019531 72.457031 86.6875 73.289062 C 86.46875 73.832031 86.476562 74.421875 86.707031 74.960938 C 86.933594 75.496094 87.359375 75.914062 87.898438 76.128906 " fill-opacity="1" fill-rule="nonzero"/><path fill="#00f3f7" d="M 81.933594 73.734375 L 83.308594 74.289062 C 83.570312 74.390625 83.84375 74.445312 84.121094 74.445312 C 85.019531 74.445312 85.8125 73.90625 86.148438 73.074219 C 86.597656 71.957031 86.054688 70.683594 84.9375 70.234375 L 83.558594 69.683594 C 83.300781 69.578125 83.027344 69.523438 82.746094 69.523438 C 81.851562 69.523438 81.054688 70.0625 80.722656 70.894531 C 80.273438 72.011719 80.816406 73.285156 81.933594 73.734375 " fill-opacity="1" fill-rule="nonzero"/><path fill="#00f3f7" d="M 114.855469 45.863281 C 114.636719 46.40625 114.644531 47 114.871094 47.535156 L 115.894531 49.925781 C 116.238281 50.730469 117.027344 51.253906 117.902344 51.253906 C 118.195312 51.253906 118.484375 51.195312 118.757812 51.078125 C 119.292969 50.847656 119.710938 50.425781 119.925781 49.882812 C 120.144531 49.339844 120.136719 48.746094 119.910156 48.210938 L 118.886719 45.824219 C 118.542969 45.015625 117.757812 44.496094 116.878906 44.496094 C 116.585938 44.496094 116.296875 44.554688 116.023438 44.671875 C 115.488281 44.898438 115.070312 45.324219 114.855469 45.863281 " fill-opacity="1" fill-rule="nonzero"/><g clip-path="url(#d22c1bd199)"><path fill="#00f3f7" d="M 112.5 41.980469 C 112.84375 42.789062 113.632812 43.308594 114.507812 43.308594 C 114.804688 43.308594 115.09375 43.25 115.367188 43.132812 C 116.472656 42.660156 116.988281 41.375 116.515625 40.269531 L 115.957031 38.957031 C 115.613281 38.152344 114.824219 37.632812 113.949219 37.632812 C 113.652344 37.632812 113.363281 37.691406 113.089844 37.804688 C 112.554688 38.035156 112.140625 38.457031 111.921875 39 C 111.703125 39.542969 111.710938 40.136719 111.941406 40.671875 L 112.5 41.980469 " fill-opacity="1" fill-rule="nonzero"/></g><path fill="#00f3f7" d="M 92.488281 110.1875 C 92.195312 110.1875 91.90625 110.246094 91.632812 110.363281 L 89.507812 111.269531 C 88.398438 111.742188 87.882812 113.027344 88.355469 114.136719 C 88.699219 114.941406 89.488281 115.460938 90.363281 115.460938 C 90.660156 115.460938 90.949219 115.402344 91.222656 115.285156 L 93.347656 114.378906 C 93.882812 114.148438 94.296875 113.726562 94.515625 113.183594 C 94.734375 112.644531 94.726562 112.050781 94.496094 111.511719 C 94.152344 110.707031 93.367188 110.1875 92.488281 110.1875 " fill-opacity="1" fill-rule="nonzero"/><path fill="#00f3f7" d="M 85.046875 113.367188 C 84.75 113.367188 84.460938 113.425781 84.1875 113.539062 L 82.378906 114.316406 C 81.839844 114.542969 81.425781 114.96875 81.207031 115.511719 C 80.992188 116.050781 81 116.644531 81.226562 117.179688 C 81.570312 117.984375 82.359375 118.507812 83.234375 118.507812 C 83.53125 118.507812 83.820312 118.449219 84.09375 118.332031 L 85.902344 117.558594 C 86.441406 117.328125 86.855469 116.90625 87.074219 116.363281 C 87.289062 115.820312 87.285156 115.226562 87.054688 114.691406 C 86.710938 113.886719 85.921875 113.367188 85.046875 113.367188 " fill-opacity="1" fill-rule="nonzero"/><path fill="#00f3f7" d="M 101.320312 131.132812 C 101.90625 131.132812 102.453125 130.90625 102.867188 130.492188 L 109 124.359375 C 109.847656 123.511719 109.847656 122.125 109 121.273438 C 108.585938 120.859375 108.039062 120.632812 107.453125 120.632812 C 106.871094 120.632812 106.320312 120.859375 105.910156 121.273438 L 99.777344 127.40625 C 99.367188 127.816406 99.140625 128.363281 99.140625 128.949219 C 99.140625 129.53125 99.367188 130.082031 99.777344 130.492188 C 100.1875 130.90625 100.738281 131.132812 101.320312 131.132812 " fill-opacity="1" fill-rule="nonzero"/><path fill="#00f3f7" d="M 169.378906 121.273438 C 168.96875 120.859375 168.417969 120.632812 167.835938 120.632812 C 167.25 120.632812 166.703125 120.859375 166.292969 121.273438 C 165.441406 122.125 165.441406 123.511719 166.292969 124.359375 L 172.421875 130.492188 C 172.835938 130.90625 173.386719 131.132812 173.96875 131.132812 C 174.550781 131.132812 175.101562 130.90625 175.511719 130.492188 C 175.921875 130.082031 176.152344 129.53125 176.152344 128.949219 C 176.152344 128.363281 175.921875 127.816406 175.511719 127.40625 L 169.382812 121.273438 C 169.382812 121.273438 169.382812 121.273438 169.378906 121.273438 " fill-opacity="1" fill-rule="nonzero"/><path fill="#00f3f7" d="M 105.910156 65.578125 C 106.320312 65.988281 106.871094 66.21875 107.453125 66.21875 C 108.039062 66.21875 108.585938 65.988281 108.996094 65.578125 C 109.410156 65.164062 109.636719 64.617188 109.636719 64.035156 C 109.636719 63.449219 109.410156 62.902344 108.996094 62.488281 L 102.867188 56.355469 C 102.453125 55.945312 101.90625 55.71875 101.320312 55.71875 C 100.738281 55.71875 100.191406 55.945312 99.777344 56.355469 C 98.925781 57.207031 98.925781 58.59375 99.777344 59.445312 L 105.910156 65.578125 " fill-opacity="1" fill-rule="nonzero"/><path fill="#00f3f7" d="M 84.421875 93.425781 C 84.421875 94.628906 85.402344 95.609375 86.605469 95.609375 L 95.277344 95.609375 C 96.484375 95.609375 97.460938 94.628906 97.460938 93.425781 C 97.460938 92.222656 96.484375 91.242188 95.277344 91.242188 L 86.605469 91.242188 C 85.402344 91.242188 84.421875 92.222656 84.421875 93.425781 " fill-opacity="1" fill-rule="nonzero"/><path fill="#00f3f7" d="M 137.003906 62.082031 C 154.058594 62.082031 167.933594 75.960938 167.933594 93.015625 C 167.933594 101.027344 164.886719 108.621094 159.347656 114.402344 C 155.78125 117.722656 153.117188 121.179688 151.425781 124.671875 C 150.121094 127.367188 149.898438 129.113281 149.875 129.300781 C 149.875 129.316406 149.871094 129.328125 149.871094 129.34375 L 149.863281 129.492188 C 149.863281 129.5 149.863281 129.507812 149.863281 129.515625 L 149.863281 129.527344 C 149.863281 129.535156 149.863281 129.542969 149.863281 129.546875 C 149.863281 130.335938 149.222656 130.972656 148.433594 130.972656 L 125.570312 130.972656 C 124.789062 130.972656 124.152344 130.34375 124.144531 129.5625 C 124.148438 129.136719 124.066406 127.585938 122.890625 125.078125 C 121.339844 121.777344 118.582031 118.195312 114.683594 114.429688 C 109.128906 108.597656 106.070312 100.992188 106.070312 93.015625 C 106.070312 75.960938 119.949219 62.082031 137.003906 62.082031 Z M 147.800781 137.25 L 145.558594 137.289062 C 144.355469 137.289062 143.375 138.269531 143.375 139.472656 C 143.375 140.675781 144.355469 141.660156 145.558594 141.660156 L 147.800781 141.617188 L 147.800781 143.332031 L 145.820312 143.332031 C 144.617188 143.332031 143.636719 144.308594 143.636719 145.515625 C 143.636719 146.71875 144.617188 147.699219 145.820312 147.699219 L 147.800781 147.699219 L 147.800781 148.4375 C 147.800781 148.917969 147.410156 149.3125 146.925781 149.3125 L 143.402344 149.3125 C 142.199219 149.3125 141.21875 150.292969 141.21875 151.496094 C 141.21875 152.167969 141.523438 152.765625 142 153.167969 L 139.324219 155.148438 L 134.714844 155.148438 L 132.742188 153.710938 L 138.054688 153.703125 C 139.261719 153.703125 140.238281 152.722656 140.238281 151.519531 C 140.238281 150.316406 139.261719 149.335938 138.054688 149.335938 L 127.089844 149.332031 C 126.605469 149.332031 126.214844 148.9375 126.214844 148.457031 L 126.214844 147.722656 L 139.4375 147.722656 C 140.640625 147.722656 141.621094 146.742188 141.621094 145.539062 C 141.621094 144.335938 140.640625 143.355469 139.4375 143.355469 L 126.214844 143.347656 L 126.214844 141.640625 L 139.574219 141.644531 C 140.777344 141.644531 141.757812 140.664062 141.757812 139.460938 C 141.757812 138.257812 140.777344 137.277344 139.574219 137.277344 L 126.214844 137.265625 L 126.214844 135.882812 C 126.214844 135.867188 126.214844 135.847656 126.214844 135.828125 C 126.214844 135.800781 126.214844 135.773438 126.214844 135.75 L 126.214844 135.34375 L 147.800781 135.339844 Z M 104.480469 79.277344 C 102.636719 83.628906 101.707031 88.25 101.707031 93.015625 C 101.707031 102.140625 105.203125 110.828125 111.554688 117.476562 C 111.558594 117.480469 111.558594 117.480469 111.5625 117.484375 L 111.605469 117.53125 C 111.609375 117.53125 111.613281 117.535156 111.621094 117.542969 C 115.851562 121.625 117.855469 124.742188 118.792969 126.636719 C 119.679688 128.429688 119.769531 129.417969 119.777344 129.546875 C 119.777344 131.25 120.542969 132.878906 121.839844 133.976562 L 121.839844 135.847656 C 121.839844 135.878906 121.84375 135.914062 121.847656 135.945312 L 121.847656 148.457031 C 121.847656 150.105469 122.59375 151.621094 123.898438 152.617188 C 124.035156 152.71875 126.867188 154.816406 132.324219 158.855469 L 132.660156 159.105469 C 133.035156 159.382812 133.496094 159.535156 133.960938 159.535156 L 140.019531 159.535156 C 140.375 159.535156 140.726562 159.445312 141.042969 159.28125 C 141.15625 159.222656 141.261719 159.160156 141.355469 159.085938 L 141.691406 158.835938 C 147.148438 154.800781 149.984375 152.699219 150.117188 152.597656 C 151.421875 151.601562 152.167969 150.085938 152.167969 148.4375 L 152.167969 133.976562 C 153.429688 132.914062 154.175781 131.386719 154.226562 129.734375 C 154.296875 129.347656 154.566406 128.164062 155.449219 126.382812 C 156.457031 124.351562 158.476562 121.171875 162.359375 117.566406 C 162.367188 117.5625 162.371094 117.558594 162.375 117.554688 L 162.4375 117.492188 C 162.445312 117.484375 162.449219 117.480469 162.457031 117.472656 C 168.804688 110.871094 172.300781 102.183594 172.300781 93.015625 C 172.300781 88.25 171.367188 83.628906 169.527344 79.277344 C 167.75 75.074219 165.203125 71.296875 161.964844 68.054688 C 158.722656 64.8125 154.945312 62.269531 150.742188 60.492188 C 146.390625 58.652344 141.765625 57.71875 137.003906 57.71875 C 132.238281 57.71875 127.617188 58.652344 123.261719 60.492188 C 119.058594 62.269531 115.285156 64.8125 112.042969 68.054688 C 108.800781 71.296875 106.257812 75.070312 104.480469 79.277344 " fill-opacity="1" fill-rule="nonzero"/><path fill="#00f3f7" d="M 118.238281 93.066406 C 119.492188 93.066406 120.507812 92.050781 120.507812 90.796875 C 120.507812 82.347656 127.378906 75.476562 135.828125 75.476562 C 137.082031 75.476562 138.097656 74.460938 138.097656 73.207031 C 138.097656 71.953125 137.082031 70.9375 135.828125 70.9375 C 130.523438 70.9375 125.535156 73.003906 121.785156 76.753906 C 118.035156 80.507812 115.96875 85.492188 115.96875 90.796875 C 115.96875 92.050781 116.984375 93.066406 118.238281 93.066406 " fill-opacity="1" fill-rule="nonzero"/><path fill="#00f3f7" d="M 121.582031 184.160156 L 121.582031 224.414062 C 121.582031 225.820312 122.722656 226.960938 124.125 226.960938 C 125.53125 226.960938 126.671875 225.820312 126.671875 224.414062 L 126.671875 184.160156 C 126.671875 180.324219 129.792969 177.199219 133.628906 177.199219 L 218.539062 177.199219 C 219.941406 177.199219 221.082031 176.058594 221.082031 174.65625 C 221.082031 173.253906 219.941406 172.113281 218.539062 172.113281 L 133.628906 172.113281 C 126.988281 172.113281 121.582031 177.515625 121.582031 184.160156 " fill-opacity="1" fill-rule="nonzero"/><g clip-path="url(#ad51b82bd2)"><path fill="#00f3f7" d="M 329.878906 321.28125 L 323.917969 328.808594 C 323.4375 329.417969 322.660156 329.78125 321.839844 329.78125 L 120.554688 329.78125 C 119.738281 329.78125 118.960938 329.417969 118.476562 328.808594 L 112.515625 321.28125 C 111.957031 320.574219 111.859375 319.746094 112.246094 318.949219 C 112.574219 318.269531 113.363281 317.542969 114.59375 317.542969 L 327.800781 317.542969 C 329.035156 317.542969 329.824219 318.269531 330.152344 318.949219 C 330.53125 319.734375 330.433594 320.585938 329.878906 321.28125 Z M 327.800781 312.453125 L 320.820312 312.453125 L 320.859375 260.65625 C 320.859375 259.246094 319.714844 258.101562 318.3125 258.101562 C 316.910156 258.101562 315.765625 259.246094 315.765625 260.648438 L 315.730469 312.453125 L 126.671875 312.453125 L 126.671875 300.652344 C 126.671875 299.25 125.53125 298.113281 124.128906 298.113281 C 122.722656 298.113281 121.585938 299.25 121.582031 300.652344 L 121.582031 312.453125 L 114.59375 312.453125 C 111.59375 312.453125 108.9375 314.09375 107.660156 316.734375 C 106.433594 319.265625 106.765625 322.222656 108.527344 324.441406 L 114.488281 331.96875 C 115.925781 333.785156 118.195312 334.871094 120.554688 334.871094 L 321.839844 334.871094 C 324.199219 334.871094 326.46875 333.785156 327.910156 331.96875 L 333.871094 324.441406 C 335.632812 322.222656 335.960938 319.265625 334.734375 316.734375 C 333.460938 314.09375 330.800781 312.453125 327.800781 312.453125 " fill-opacity="1" fill-rule="nonzero"/></g><path fill="#00f3f7" d="M 239.640625 63.449219 L 253.082031 63.449219 C 254.453125 63.449219 255.5625 62.335938 255.5625 60.964844 C 255.5625 59.59375 254.453125 58.484375 253.082031 58.484375 L 239.640625 58.484375 C 238.269531 58.484375 237.160156 59.59375 237.160156 60.964844 C 237.160156 62.335938 238.269531 63.449219 239.640625 63.449219 " fill-opacity="1" fill-rule="nonzero"/><path fill="#00f3f7" d="M 218.644531 63.449219 L 223.753906 63.449219 C 225.125 63.449219 226.234375 62.335938 226.234375 60.964844 C 226.234375 59.59375 225.125 58.484375 223.753906 58.484375 L 218.644531 58.484375 C 217.273438 58.484375 216.164062 59.59375 216.164062 60.964844 C 216.164062 62.335938 217.273438 63.449219 218.644531 63.449219 " fill-opacity="1" fill-rule="nonzero"/><path fill="#00f3f7" d="M 243.214844 79.320312 C 243.214844 80.691406 244.328125 81.804688 245.699219 81.804688 L 260.464844 81.804688 C 261.832031 81.804688 262.945312 80.691406 262.945312 79.320312 C 262.945312 77.949219 261.832031 76.839844 260.464844 76.839844 L 245.699219 76.839844 C 244.328125 76.839844 243.214844 77.949219 243.214844 79.320312 " fill-opacity="1" fill-rule="nonzero"/><path fill="#00f3f7" d="M 17.503906 126.1875 L 33.289062 126.1875 C 34.660156 126.1875 35.769531 125.078125 35.769531 123.703125 C 35.769531 122.335938 34.660156 121.222656 33.289062 121.222656 L 17.503906 121.222656 C 16.132812 121.222656 15.019531 122.335938 15.019531 123.703125 C 15.019531 125.078125 16.132812 126.1875 17.503906 126.1875 " fill-opacity="1" fill-rule="nonzero"/><path fill="#00f3f7" d="M 60.296875 150.335938 L 62.539062 150.335938 C 63.910156 150.335938 65.023438 149.222656 65.023438 147.851562 C 65.023438 146.480469 63.910156 145.371094 62.539062 145.371094 L 60.296875 145.371094 C 58.925781 145.371094 57.816406 146.480469 57.816406 147.851562 C 57.816406 149.222656 58.925781 150.335938 60.296875 150.335938 " fill-opacity="1" fill-rule="nonzero"/><path fill="#00f3f7" d="M 30.804688 147.851562 C 30.804688 149.222656 31.917969 150.335938 33.289062 150.335938 L 46.289062 150.335938 C 47.660156 150.335938 48.773438 149.222656 48.773438 147.851562 C 48.773438 146.480469 47.660156 145.371094 46.289062 145.371094 L 33.289062 145.371094 C 31.917969 145.371094 30.804688 146.480469 30.804688 147.851562 " fill-opacity="1" fill-rule="nonzero"/><path fill="#00f3f7" d="M 351.386719 273.816406 L 340.222656 273.816406 C 338.851562 273.816406 337.738281 274.925781 337.738281 276.296875 C 337.738281 277.667969 338.851562 278.78125 340.222656 278.78125 L 351.386719 278.78125 C 352.757812 278.78125 353.871094 277.667969 353.871094 276.296875 C 353.871094 274.925781 352.757812 273.816406 351.386719 273.816406 " fill-opacity="1" fill-rule="nonzero"/><path fill="#00f3f7" d="M 351.386719 287.515625 L 345.804688 287.515625 C 344.433594 287.515625 343.324219 288.628906 343.324219 290 C 343.324219 291.367188 344.433594 292.480469 345.804688 292.480469 L 351.386719 292.480469 C 352.757812 292.480469 353.871094 291.367188 353.871094 290 C 353.871094 288.628906 352.757812 287.515625 351.386719 287.515625 " fill-opacity="1" fill-rule="nonzero"/></svg>