<svg xmlns="http://www.w3.org/2000/svg" xmlns:xlink="http://www.w3.org/1999/xlink" width="500" zoomAndPan="magnify" viewBox="0 0 375 374.999991" height="500" preserveAspectRatio="xMidYMid meet" version="1.0"><defs><clipPath id="fc8b029d28"><path d="M 6.515625 44 L 368.765625 44 L 368.765625 331 L 6.515625 331 Z M 6.515625 44 " clip-rule="nonzero"/></clipPath></defs><g clip-path="url(#fc8b029d28)"><path fill="#00f3f7" d="M 364.242188 277.089844 L 342.675781 277.089844 L 330.449219 261.808594 L 345.921875 261.808594 C 348.265625 261.808594 350.164062 259.910156 350.164062 257.566406 L 350.164062 69.570312 C 350.164062 55.726562 338.847656 44.457031 324.933594 44.457031 L 50.011719 44.457031 C 36.132812 44.457031 24.84375 55.726562 24.84375 69.570312 L 24.84375 257.566406 C 24.84375 259.910156 26.746094 261.808594 29.085938 261.808594 L 254.605469 261.808594 L 257.710938 277.089844 L 229.691406 277.089844 C 227.351562 277.089844 225.449219 278.992188 225.449219 281.332031 L 225.449219 299.542969 L 149.4375 299.542969 L 149.4375 281.332031 C 149.4375 278.992188 147.535156 277.089844 145.195312 277.089844 L 10.757812 277.089844 C 8.414062 277.089844 6.515625 278.992188 6.515625 281.332031 L 6.515625 302.089844 C 6.515625 317.773438 19.273438 330.539062 34.964844 330.539062 L 340.09375 330.539062 C 355.746094 330.539062 368.484375 317.777344 368.484375 302.089844 L 368.484375 281.332031 C 368.484375 278.992188 366.582031 277.089844 364.242188 277.089844 Z M 341.679688 253.324219 L 323.65625 253.324219 L 319.65625 248.332031 L 341.679688 241.664062 Z M 33.328125 253.324219 L 33.328125 69.570312 C 33.328125 60.402344 40.8125 52.941406 50.011719 52.941406 L 324.941406 52.941406 C 334.171875 52.941406 341.6875 60.402344 341.6875 69.570312 L 341.6875 229.40625 L 324.261719 221.597656 L 324.261719 74.617188 C 324.261719 72.273438 322.359375 70.375 320.019531 70.375 L 54.984375 70.375 C 52.644531 70.375 50.6875 72.332031 50.6875 74.671875 L 50.6875 231.675781 C 50.6875 234.015625 52.585938 235.917969 54.929688 235.917969 L 249.34375 235.917969 L 252.878906 253.324219 Z M 240.285156 191.3125 L 247.621094 227.433594 L 59.171875 227.433594 L 59.171875 78.855469 L 315.773438 78.855469 L 315.773438 217.773438 L 246.1875 186.570312 C 243.027344 185.15625 239.601562 187.945312 240.285156 191.3125 Z M 256.980469 230.882812 C 256.976562 230.867188 256.984375 230.851562 256.980469 230.828125 L 250.261719 197.71875 L 333.824219 235.175781 L 311.207031 242.027344 C 308.335938 242.898438 307.253906 246.402344 309.125 248.738281 L 338.859375 285.890625 L 316.828125 303.519531 L 287.089844 266.363281 C 285.21875 264.019531 281.570312 264.308594 280.089844 266.929688 L 273.140625 279.210938 C 273.132812 279.222656 273.117188 279.230469 273.109375 279.242188 L 268.46875 287.445312 Z M 284.808594 277.089844 L 284.089844 277.089844 L 284.386719 276.566406 Z M 360 302.089844 C 360 313.097656 351.070312 322.054688 340.09375 322.054688 L 34.964844 322.054688 C 23.953125 322.054688 15 313.101562 15 302.089844 L 15 285.574219 L 140.953125 285.574219 L 140.953125 303.785156 C 140.953125 306.128906 142.851562 308.027344 145.195312 308.027344 L 229.691406 308.027344 C 232.03125 308.027344 233.933594 306.128906 233.933594 303.785156 L 233.933594 285.574219 L 259.421875 285.574219 L 262.410156 300.28125 C 263.179688 304.082031 268.332031 304.96875 270.265625 301.53125 L 279.285156 285.574219 L 291.558594 285.574219 L 312.855469 312.152344 C 314.320312 313.984375 316.988281 314.277344 318.816406 312.8125 L 347.488281 289.851562 C 348.609375 288.957031 349.339844 287.152344 348.972656 285.574219 L 360 285.574219 Z M 360 302.089844 " fill-opacity="1" fill-rule="nonzero"/></g><path fill="#00f3f7" d="M 119.941406 115.40625 L 97.265625 115.40625 L 97.265625 181.445312 L 108.414062 181.445312 L 108.414062 162.074219 L 120.128906 162.074219 C 129.828125 162.074219 137.027344 160.222656 141.714844 156.503906 C 146.410156 152.789062 148.757812 146.929688 148.757812 138.933594 C 148.757812 130.929688 146.457031 125.015625 141.863281 121.167969 C 137.257812 117.328125 129.957031 115.40625 119.941406 115.40625 Z M 133.96875 148.421875 C 131.726562 150.785156 127.527344 151.964844 121.355469 151.964844 L 108.410156 151.964844 L 108.410156 125.511719 L 119.75 125.511719 C 125.796875 125.511719 130.234375 126.457031 133.074219 128.34375 C 135.90625 130.234375 137.320312 133.464844 137.320312 138.027344 C 137.320312 142.597656 136.207031 146.066406 133.96875 148.421875 Z M 133.96875 148.421875 " fill-opacity="1" fill-rule="nonzero"/><path fill="#00f3f7" d="M 184.5625 115.40625 L 161.890625 115.40625 L 161.890625 181.445312 L 173.039062 181.445312 L 173.039062 162.074219 L 184.75 162.074219 C 194.449219 162.074219 201.648438 160.222656 206.339844 156.503906 C 211.03125 152.789062 213.378906 146.929688 213.378906 138.933594 C 213.378906 130.929688 211.078125 125.015625 206.484375 121.167969 C 201.886719 117.328125 194.582031 115.40625 184.5625 115.40625 Z M 198.597656 148.421875 C 196.355469 150.785156 192.152344 151.964844 185.984375 151.964844 L 173.039062 151.964844 L 173.039062 125.511719 L 184.378906 125.511719 C 190.421875 125.511719 194.863281 126.457031 197.695312 128.34375 C 200.53125 130.234375 201.945312 133.464844 201.945312 138.027344 C 201.949219 142.597656 200.832031 146.066406 198.597656 148.421875 Z M 198.597656 148.421875 " fill-opacity="1" fill-rule="nonzero"/><path fill="#00f3f7" d="M 282.449219 170.582031 L 275.265625 163.210938 C 272.238281 166.046875 269.34375 168.109375 266.574219 169.398438 C 263.800781 170.695312 260.492188 171.335938 256.652344 171.335938 C 250.476562 171.335938 245.136719 169.082031 240.636719 164.582031 C 236.132812 160.078125 233.875 154.46875 233.875 147.761719 C 233.875 141.054688 236.144531 135.539062 240.679688 131.222656 C 245.214844 126.910156 250.820312 124.753906 257.5 124.753906 C 261.277344 124.753906 264.570312 125.351562 267.375 126.546875 C 270.179688 127.738281 273.148438 129.847656 276.304688 132.875 L 283.394531 125.125 C 276.527344 117.570312 267.976562 113.785156 257.738281 113.785156 C 247.5 113.785156 239.027344 117.0625 232.320312 123.609375 C 225.613281 130.167969 222.257812 138.351562 222.257812 148.179688 C 222.257812 158.003906 225.550781 166.132812 232.132812 172.554688 C 238.71875 178.980469 246.996094 182.195312 256.984375 182.195312 C 266.96875 182.203125 275.457031 178.332031 282.449219 170.582031 Z M 282.449219 170.582031 " fill-opacity="1" fill-rule="nonzero"/><path fill="#00f3f7" d="M 44.222656 291.820312 L 28.714844 291.820312 C 26.371094 291.820312 24.472656 293.71875 24.472656 296.0625 L 24.472656 311.570312 C 24.472656 313.910156 26.371094 315.8125 28.714844 315.8125 L 44.222656 315.8125 C 46.5625 315.8125 48.464844 313.910156 48.464844 311.570312 L 48.464844 296.0625 C 48.464844 293.71875 46.570312 291.820312 44.222656 291.820312 Z M 39.980469 307.328125 L 32.957031 307.328125 L 32.957031 300.304688 L 39.980469 300.304688 Z M 39.980469 307.328125 " fill-opacity="1" fill-rule="nonzero"/><path fill="#00f3f7" d="M 74.742188 291.820312 L 59.234375 291.820312 C 56.890625 291.820312 54.992188 293.71875 54.992188 296.0625 L 54.992188 311.570312 C 54.992188 313.910156 56.890625 315.8125 59.234375 315.8125 L 74.742188 315.8125 C 77.082031 315.8125 78.980469 313.910156 78.980469 311.570312 L 78.980469 296.0625 C 78.980469 293.71875 77.082031 291.820312 74.742188 291.820312 Z M 70.5 307.328125 L 63.472656 307.328125 L 63.472656 300.304688 L 70.5 300.304688 Z M 70.5 307.328125 " fill-opacity="1" fill-rule="nonzero"/></svg>