<svg xmlns="http://www.w3.org/2000/svg" xmlns:xlink="http://www.w3.org/1999/xlink" width="500" zoomAndPan="magnify" viewBox="0 0 375 374.999991" height="500" preserveAspectRatio="xMidYMid meet" version="1.0"><defs><clipPath id="4e6488c63e"><path d="M 251 312 L 324.621094 312 L 324.621094 368 L 251 368 Z M 251 312 " clip-rule="nonzero"/></clipPath></defs><path fill="#00f3f7" d="M 165.882812 196.316406 C 129.96875 199.984375 94.535156 179.597656 80.738281 144.40625 C 64.148438 102.109375 85.046875 54.136719 127.390625 37.527344 C 169.738281 20.910156 217.679688 41.886719 234.261719 84.183594 C 246.398438 115.101562 238.527344 149.019531 216.855469 171.53125 C 219.835938 171.316406 222.878906 171.726562 225.945312 172.695312 C 226.59375 172.882812 227.347656 173.167969 228.121094 173.5 C 230.125 171.445312 232.429688 169.824219 234.988281 168.695312 C 252.652344 143.609375 257.78125 110.382812 245.738281 79.675781 C 226.671875 31.070312 171.570312 7.015625 122.914062 26.109375 C 74.246094 45.191406 50.195312 100.292969 69.261719 148.902344 C 85.566406 190.476562 128.136719 214.066406 170.535156 208.179688 C 168.933594 204.265625 167.332031 200.164062 165.882812 196.316406 " fill-opacity="1" fill-rule="nonzero"/><path fill="#00f3f7" d="M 202.664062 161.9375 L 204.402344 166.367188 C 225.4375 147.4375 233.695312 116.636719 222.742188 88.703125 C 208.625 52.730469 167.878906 34.949219 131.914062 49.054688 C 95.941406 63.164062 78.152344 103.90625 92.265625 139.882812 C 103.574219 168.703125 131.835938 185.816406 161.164062 184.292969 C 159.753906 180.6875 158.859375 178.417969 158.859375 178.417969 C 158.097656 176.472656 157.335938 174.535156 156.824219 172.566406 C 156.753906 172.394531 156.769531 172.265625 156.703125 172.097656 C 133.925781 171.761719 112.507812 157.902344 103.683594 135.402344 C 92.050781 105.75 106.757812 72.15625 136.410156 60.523438 C 166.066406 48.894531 199.691406 63.53125 211.316406 93.175781 C 219.847656 114.90625 214.277344 138.707031 199.03125 154.46875 C 200.617188 157.046875 201.773438 159.667969 202.664062 161.9375 " fill-opacity="1" fill-rule="nonzero"/><path fill="#00f3f7" d="M 161.910156 90.554688 C 162.117188 90.597656 162.320312 90.625 162.519531 90.675781 C 168.308594 91.832031 172.144531 95.273438 174.011719 101.019531 L 165.695312 104.199219 L 165.492188 104.277344 C 164.71875 102.28125 163.761719 100.738281 162.621094 99.660156 C 161.199219 98.683594 159.375 98.203125 157.148438 98.21875 C 156.128906 98.21875 155.222656 98.332031 154.441406 98.539062 L 154.433594 98.539062 C 153.429688 98.804688 152.609375 99.230469 151.992188 99.832031 C 150.902344 100.902344 150.363281 102.167969 150.371094 103.660156 C 150.382812 105.210938 150.9375 106.382812 152.042969 107.171875 C 153.148438 107.960938 155.605469 108.960938 159.402344 110.160156 C 162.816406 111.222656 165.492188 112.265625 167.417969 113.320312 C 169.34375 114.355469 170.914062 115.820312 172.121094 117.714844 C 173.328125 119.609375 173.9375 121.828125 173.953125 124.34375 C 173.96875 127.660156 172.917969 130.648438 170.792969 133.3125 C 169.851562 134.496094 168.660156 135.472656 167.230469 136.25 C 165.910156 136.96875 164.394531 137.507812 162.664062 137.878906 C 162.511719 137.921875 162.347656 137.945312 162.191406 137.980469 L 162.226562 144.128906 L 153.140625 144.191406 L 153.105469 138.066406 C 152.898438 138.03125 152.703125 137.996094 152.496094 137.953125 C 146.707031 136.789062 142.871094 133.347656 141.003906 127.597656 L 149.320312 124.421875 L 149.523438 124.34375 C 150.296875 126.339844 151.253906 127.882812 152.394531 128.960938 C 153.816406 129.929688 155.632812 130.417969 157.859375 130.398438 C 158.886719 130.398438 159.785156 130.289062 160.574219 130.082031 L 160.582031 130.082031 C 161.585938 129.816406 162.40625 129.390625 163.023438 128.789062 C 164.113281 127.71875 164.652344 126.453125 164.644531 124.960938 C 164.632812 123.410156 164.078125 122.238281 162.980469 121.449219 C 161.867188 120.660156 159.410156 119.660156 155.613281 118.460938 C 152.199219 117.398438 149.523438 116.351562 147.597656 115.300781 C 145.671875 114.261719 144.101562 112.796875 142.894531 110.90625 C 141.6875 109.011719 141.078125 106.792969 141.0625 104.277344 C 141.046875 100.960938 142.089844 97.972656 144.222656 95.308594 C 145.164062 94.125 146.355469 93.148438 147.785156 92.371094 C 149.097656 91.652344 150.628906 91.109375 152.351562 90.734375 C 152.503906 90.699219 152.660156 90.675781 152.824219 90.640625 L 152.789062 84.492188 L 161.875 84.429688 Z M 117.824219 114.546875 C 117.953125 136.464844 135.828125 154.117188 157.738281 153.988281 C 179.65625 153.859375 197.320312 135.992188 197.191406 114.074219 C 197.0625 92.15625 179.1875 74.503906 157.277344 74.632812 C 135.359375 74.761719 117.695312 92.628906 117.824219 114.546875 " fill-opacity="1" fill-rule="nonzero"/><path fill="#00f3f7" d="M 300.230469 307.007812 C 305.839844 304.796875 309.386719 299.222656 308.984375 293.207031 C 308.488281 285.792969 308.238281 275.898438 309.6875 269.484375 C 311.453125 261.679688 310.320312 253.636719 307.347656 246.039062 C 299.785156 226.671875 292.28125 207.28125 284.617188 187.957031 C 281.710938 180.625 275.878906 177.773438 269.542969 180.136719 C 263.015625 182.589844 260.546875 188.925781 263.367188 196.515625 C 264.839844 200.480469 268.164062 208.085938 269.832031 213.570312 C 270.347656 215.265625 267.914062 216.191406 267.195312 214.570312 C 264.027344 207.480469 259.570312 195.195312 257.164062 189.097656 C 253.6875 180.285156 247.664062 176.59375 240.90625 179.078125 C 234.0625 181.601562 232.042969 188.285156 235.496094 197.167969 C 238.082031 203.832031 243.886719 217.21875 245.859375 224.558594 C 246.304688 226.183594 244.015625 227.066406 243.238281 225.570312 C 239.195312 217.707031 232.941406 200.171875 229.679688 191.691406 C 228.273438 188.035156 226.097656 185.226562 222.3125 184.027344 C 217.902344 182.632812 213.875 183.386719 210.550781 186.792969 C 206.894531 190.535156 206.253906 194.949219 208.078125 199.691406 C 210.902344 207.050781 216.726562 220.746094 219.871094 229.945312 C 220.453125 231.648438 217.980469 232.625 217.242188 230.980469 C 210.457031 215.796875 198.304688 183.28125 191.613281 166.324219 C 190.765625 164.171875 189.824219 161.988281 188.539062 160.078125 C 185.429688 155.445312 179.632812 153.835938 174.699219 155.984375 C 169.507812 158.238281 166.765625 163.875 168.273438 169.421875 C 168.789062 171.289062 169.550781 173.097656 170.261719 174.90625 C 179.726562 199.050781 189.113281 223.230469 198.679688 247.339844 C 199.039062 248.25 198.59375 249.277344 197.6875 249.636719 C 196.789062 249.980469 195.777344 249.542969 195.417969 248.652344 C 195.03125 247.710938 192.359375 243.410156 191.109375 242.613281 C 183.648438 237.886719 175.890625 237.234375 167.855469 241.132812 C 162.886719 243.539062 160.523438 247.691406 161.257812 252.941406 C 162.023438 258.40625 165.34375 262.699219 171.160156 262.734375 C 182.757812 262.800781 188.378906 269.234375 192.214844 279.296875 C 198.734375 296.378906 211.058594 308.070312 228.359375 313.945312 C 234.6875 316.09375 239.964844 319.210938 244.007812 324.042969 C 245.910156 326.3125 249.042969 327.101562 251.792969 326.023438 C 262.234375 321.917969 286.519531 312.394531 300.230469 307.007812 " fill-opacity="1" fill-rule="nonzero"/><g clip-path="url(#4e6488c63e)"><path fill="#00f3f7" d="M 269.15625 355.496094 L 263.597656 341.328125 L 306.765625 324.394531 L 312.324219 338.5625 Z M 323.949219 339.445312 L 314.6875 315.839844 C 313.601562 313.054688 310.449219 311.675781 307.65625 312.773438 L 255.050781 333.40625 C 252.257812 334.5 250.878906 337.652344 251.972656 340.445312 L 261.234375 364.050781 C 262.328125 366.835938 265.480469 368.214844 268.273438 367.117188 L 320.882812 346.484375 C 323.675781 345.386719 325.042969 342.234375 323.949219 339.445312 " fill-opacity="1" fill-rule="nonzero"/></g></svg>