<svg xmlns="http://www.w3.org/2000/svg" xmlns:xlink="http://www.w3.org/1999/xlink" width="500" zoomAndPan="magnify" viewBox="0 0 375 374.999991" height="500" preserveAspectRatio="xMidYMid meet" version="1.0"><defs><clipPath id="6d27235997"><path d="M 7.945312 7.945312 L 367.195312 7.945312 L 367.195312 367.195312 L 7.945312 367.195312 Z M 7.945312 7.945312 " clip-rule="nonzero"/></clipPath></defs><path fill="#00f3f7" d="M 268.589844 100.617188 C 271.777344 100.617188 274.382812 103.21875 274.382812 106.410156 C 274.382812 109.601562 271.777344 112.203125 268.589844 112.203125 C 265.398438 112.203125 262.796875 109.601562 262.796875 106.410156 C 262.796875 103.21875 265.398438 100.617188 268.589844 100.617188 Z M 251.210938 106.410156 C 251.210938 116.003906 258.996094 123.785156 268.589844 123.785156 C 278.183594 123.785156 285.964844 116.003906 285.964844 106.410156 C 285.964844 103.742188 285.308594 101.230469 284.222656 98.964844 L 295.851562 87.335938 L 287.660156 79.148438 L 276.03125 90.777344 C 273.769531 89.691406 271.257812 89.035156 268.589844 89.035156 C 265.917969 89.035156 263.40625 89.691406 261.144531 90.777344 L 243.722656 73.355469 L 235.53125 81.546875 L 252.953125 98.964844 C 251.867188 101.230469 251.210938 103.742188 251.210938 106.410156 " fill-opacity="1" fill-rule="nonzero"/><path fill="#00f3f7" d="M 205.171875 100.617188 C 206.367188 87.40625 211.59375 75.324219 219.648438 65.664062 L 227.636719 73.648438 L 235.828125 65.457031 L 227.839844 57.472656 C 237.5 49.417969 249.582031 44.191406 262.796875 42.992188 L 262.796875 54.28125 L 274.382812 54.28125 L 274.382812 42.992188 C 287.59375 44.191406 299.675781 49.417969 309.335938 57.472656 L 301.351562 65.457031 L 309.539062 73.648438 L 317.527344 65.664062 C 325.582031 75.324219 330.808594 87.40625 332.007812 100.617188 L 320.71875 100.617188 L 320.71875 112.203125 L 332.007812 112.203125 C 330.808594 125.414062 325.582031 137.496094 317.527344 147.160156 L 309.539062 139.171875 L 301.351562 147.363281 L 309.335938 155.347656 C 299.675781 163.402344 287.59375 168.628906 274.382812 169.828125 L 274.382812 158.539062 L 262.796875 158.539062 L 262.796875 169.828125 C 249.582031 168.628906 237.5 163.402344 227.839844 155.347656 L 235.828125 147.363281 L 227.636719 139.171875 L 219.648438 147.160156 C 211.59375 137.496094 206.367188 125.414062 205.171875 112.203125 L 216.460938 112.203125 L 216.460938 100.617188 Z M 268.589844 181.707031 C 310.105469 181.707031 343.886719 147.929688 343.886719 106.410156 C 343.886719 64.894531 310.105469 31.113281 268.589844 31.113281 C 227.070312 31.113281 193.292969 64.894531 193.292969 106.410156 C 193.292969 147.929688 227.070312 181.707031 268.589844 181.707031 " fill-opacity="1" fill-rule="nonzero"/><path fill="#00f3f7" d="M 228.042969 239.628906 L 239.628906 239.628906 L 239.628906 228.042969 L 228.042969 228.042969 L 228.042969 239.628906 " fill-opacity="1" fill-rule="nonzero"/><path fill="#00f3f7" d="M 251.210938 239.628906 L 262.796875 239.628906 L 262.796875 228.042969 L 251.210938 228.042969 L 251.210938 239.628906 " fill-opacity="1" fill-rule="nonzero"/><path fill="#00f3f7" d="M 285.964844 228.042969 L 274.382812 228.042969 L 274.382812 239.628906 L 285.964844 239.628906 L 285.964844 228.042969 " fill-opacity="1" fill-rule="nonzero"/><g clip-path="url(#6d27235997)"><path fill="#00f3f7" d="M 343.886719 210.667969 L 343.886719 257.003906 L 340.898438 257.003906 C 336.191406 257.003906 332.007812 259.808594 330.199219 264.152344 C 328.410156 268.5 329.382812 273.453125 332.710938 276.777344 L 334.8125 278.882812 L 302.050781 311.667969 L 299.949219 309.539062 C 296.621094 306.214844 291.667969 305.242188 287.324219 307.027344 C 282.976562 308.839844 280.171875 313.046875 280.171875 317.730469 L 280.171875 320.71875 L 233.835938 320.71875 L 233.835938 317.730469 C 233.835938 313.046875 231.03125 308.839844 226.6875 307.027344 C 222.34375 305.21875 217.386719 306.214844 214.0625 309.539062 L 211.957031 311.667969 L 179.195312 278.882812 L 181.300781 276.777344 C 184.625 273.453125 185.597656 268.5 183.8125 264.152344 C 182 259.808594 177.816406 257.003906 173.109375 257.003906 L 170.125 257.003906 L 170.125 253.136719 C 174.511719 251.210938 178.765625 249.0625 182.863281 246.640625 C 188.925781 282.367188 219.761719 309.132812 257.003906 309.132812 C 298.523438 309.132812 332.300781 275.355469 332.300781 233.835938 C 332.300781 218.449219 327.550781 203.472656 318.863281 190.914062 C 322.59375 188.699219 326.191406 186.253906 329.585938 183.5625 L 334.8125 188.789062 L 332.710938 190.894531 C 329.382812 194.21875 328.410156 199.175781 330.199219 203.519531 C 332.007812 207.863281 336.191406 210.667969 340.898438 210.667969 Z M 135.371094 285.964844 L 112.203125 285.964844 L 112.203125 262.207031 C 116.003906 262.59375 119.871094 262.796875 123.785156 262.796875 C 127.699219 262.796875 131.546875 262.546875 135.371094 262.164062 Z M 129.578125 355.46875 L 117.996094 355.46875 C 114.804688 355.46875 112.203125 352.867188 112.203125 349.679688 L 112.203125 297.550781 L 135.371094 297.550781 L 135.371094 349.679688 C 135.371094 352.867188 132.769531 355.46875 129.578125 355.46875 Z M 19.527344 146.953125 C 19.527344 89.464844 66.296875 42.699219 123.785156 42.699219 C 144.625 42.699219 164.511719 48.804688 181.640625 60.300781 C 179.808594 63.738281 178.246094 67.335938 176.820312 70.980469 C 161.34375 60.1875 142.792969 54.28125 123.785156 54.28125 C 72.675781 54.28125 31.113281 95.84375 31.113281 146.953125 C 31.113281 198.066406 72.675781 239.628906 123.785156 239.628906 C 160.800781 239.628906 193.902344 217.703125 208.609375 184.308594 C 211.6875 186.683594 214.921875 188.878906 218.292969 190.894531 C 201.1875 227.683594 164.671875 251.210938 123.785156 251.210938 C 66.296875 251.210938 19.527344 204.445312 19.527344 146.953125 Z M 190.304688 193.292969 L 181.707031 193.292969 L 181.707031 152.65625 C 186.390625 161.414062 192.339844 169.375 199.332031 176.324219 C 196.980469 182.386719 193.925781 188.085938 190.304688 193.292969 Z M 180.578125 204.875 C 165.757812 219.402344 145.53125 228.042969 123.785156 228.042969 C 101.75 228.042969 81.769531 219.175781 67.132812 204.875 Z M 135.371094 193.292969 L 112.203125 193.292969 L 112.203125 100.617188 L 135.371094 100.617188 Z M 100.617188 193.292969 L 77.449219 193.292969 L 77.449219 146.953125 L 100.617188 146.953125 Z M 146.953125 193.292969 L 146.953125 135.371094 L 170.125 135.371094 L 170.125 193.292969 Z M 171.773438 123.96875 C 171.230469 123.878906 170.6875 123.785156 170.125 123.785156 L 146.953125 123.785156 L 146.953125 100.617188 C 146.953125 94.238281 141.75 89.035156 135.371094 89.035156 L 112.203125 89.035156 C 105.820312 89.035156 100.617188 94.238281 100.617188 100.617188 L 100.617188 135.371094 L 77.449219 135.371094 C 71.070312 135.371094 65.867188 140.574219 65.867188 146.953125 L 65.867188 193.292969 L 57.335938 193.292969 C 48.128906 180.144531 42.699219 164.171875 42.699219 146.953125 C 42.699219 102.246094 79.078125 65.867188 123.785156 65.867188 C 141.660156 65.867188 159.035156 71.863281 173.132812 82.699219 C 171.230469 90.300781 170.125 98.21875 170.125 106.410156 C 170.125 112.40625 170.734375 118.242188 171.773438 123.96875 Z M 257.003906 285.964844 C 285.761719 285.964844 309.132812 262.59375 309.132812 233.835938 C 309.132812 221.503906 304.835938 209.875 297.140625 200.621094 C 301.035156 199.445312 304.8125 197.996094 308.476562 196.367188 C 316.375 207.207031 320.71875 220.328125 320.71875 233.835938 C 320.71875 268.972656 292.140625 297.550781 257.003906 297.550781 C 223.699219 297.550781 196.460938 272.253906 193.609375 239.449219 C 197.679688 236.347656 201.527344 233 205.171875 229.402344 C 205.058594 230.871094 204.875 232.34375 204.875 233.835938 C 204.875 262.59375 228.246094 285.964844 257.003906 285.964844 Z M 283.882812 203.5625 C 292.570312 211.257812 297.550781 222.160156 297.550781 233.835938 C 297.550781 256.191406 279.359375 274.382812 257.003906 274.382812 C 234.652344 274.382812 216.460938 256.191406 216.460938 233.835938 C 216.460938 219.582031 223.949219 206.574219 236.054688 199.242188 C 246.257812 202.816406 257.164062 204.875 268.589844 204.875 C 273.816406 204.875 278.882812 204.355469 283.882812 203.5625 Z M 268.589844 19.527344 C 316.507812 19.527344 355.46875 58.488281 355.46875 106.410156 C 355.46875 154.332031 316.507812 193.292969 268.589844 193.292969 C 220.667969 193.292969 181.707031 154.332031 181.707031 106.410156 C 181.707031 58.488281 220.667969 19.527344 268.589844 19.527344 Z M 351.214844 188.789062 L 338.296875 175.871094 C 356.058594 158.0625 367.054688 133.492188 367.054688 106.410156 C 367.054688 52.109375 322.890625 7.945312 268.589844 7.945312 C 235.101562 7.945312 205.488281 24.777344 187.679688 50.414062 C 168.71875 37.808594 146.773438 31.113281 123.785156 31.113281 C 59.914062 31.113281 7.945312 83.082031 7.945312 146.953125 C 7.945312 202.886719 47.8125 249.695312 100.617188 260.464844 L 100.617188 349.679688 C 100.617188 359.269531 108.402344 367.054688 117.996094 367.054688 L 129.578125 367.054688 C 139.171875 367.054688 146.953125 359.269531 146.953125 349.679688 L 146.953125 260.421875 C 150.871094 259.628906 154.761719 258.679688 158.539062 257.503906 L 158.539062 268.589844 L 173.109375 268.589844 L 162.792969 278.882812 L 211.957031 328.027344 L 222.253906 317.730469 L 222.253906 332.300781 L 291.757812 332.300781 L 291.757812 317.730469 L 302.050781 328.027344 L 351.214844 278.882812 L 340.898438 268.589844 L 355.46875 268.589844 L 355.46875 199.082031 L 340.898438 199.082031 L 351.214844 188.789062 " fill-opacity="1" fill-rule="nonzero"/></g></svg>