<svg xmlns="http://www.w3.org/2000/svg" xmlns:xlink="http://www.w3.org/1999/xlink" width="500" zoomAndPan="magnify" viewBox="0 0 375 374.999991" height="500" preserveAspectRatio="xMidYMid meet" version="1.0"><defs><clipPath id="8581918e0a"><path d="M 5.929688 11.148438 L 368.929688 11.148438 L 368.929688 363.648438 L 5.929688 363.648438 Z M 5.929688 11.148438 " clip-rule="nonzero"/></clipPath></defs><g clip-path="url(#8581918e0a)"><path fill="#00f3f7" d="M 292.28125 179.335938 L 292.28125 38.996094 C 292.28125 34.042969 288.25 30.011719 283.296875 30.011719 L 33.804688 30.011719 C 28.851562 30.011719 24.820312 34.042969 24.820312 38.996094 L 24.820312 179.335938 C 24.820312 182.566406 27.441406 185.191406 30.675781 185.191406 L 286.425781 185.191406 C 289.65625 185.191406 292.28125 182.566406 292.28125 179.335938 Z M 280.566406 173.476562 L 36.53125 173.476562 L 36.53125 41.722656 L 280.566406 41.722656 Z M 350.488281 357.996094 C 350.488281 361.230469 347.863281 363.851562 344.628906 363.851562 L 141.929688 363.851562 C 138.695312 363.851562 136.070312 361.230469 136.070312 357.996094 C 136.070312 354.761719 138.695312 352.140625 141.929688 352.140625 L 344.628906 352.140625 C 347.863281 352.140625 350.488281 354.761719 350.488281 357.996094 Z M 51.546875 154.027344 C 52.46875 154.558594 53.476562 154.8125 54.46875 154.8125 C 56.492188 154.8125 58.460938 153.761719 59.546875 151.882812 L 80.820312 115.03125 C 82.199219 115.339844 83.632812 115.507812 85.105469 115.507812 C 88.382812 115.507812 91.46875 114.695312 94.1875 113.265625 L 102.246094 121.324219 C 100.816406 124.042969 100.003906 127.132812 100.003906 130.410156 C 100.003906 141.21875 108.800781 150.015625 119.609375 150.015625 C 130.421875 150.015625 139.214844 141.21875 139.214844 130.410156 C 139.214844 125.296875 137.246094 120.636719 134.03125 117.144531 L 148.019531 92.914062 C 149.398438 93.222656 150.832031 93.390625 152.300781 93.390625 C 155.578125 93.390625 158.667969 92.578125 161.386719 91.152344 L 170.339844 100.105469 C 168.914062 102.824219 168.101562 105.914062 168.101562 109.191406 C 168.101562 120 176.898438 128.796875 187.707031 128.796875 C 198.515625 128.796875 207.3125 120 207.3125 109.191406 C 207.3125 105.914062 206.5 102.824219 205.074219 100.109375 L 224 81.179688 C 226.71875 82.605469 229.808594 83.417969 233.085938 83.417969 C 243.894531 83.417969 252.691406 74.625 252.691406 63.8125 C 252.691406 53.003906 243.894531 44.207031 233.085938 44.207031 C 222.273438 44.207031 213.480469 53.003906 213.480469 63.8125 C 213.480469 67.089844 214.292969 70.179688 215.71875 72.894531 L 196.789062 91.824219 C 194.074219 90.398438 190.984375 89.585938 187.707031 89.585938 C 184.429688 89.585938 181.339844 90.398438 178.625 91.824219 L 169.667969 82.871094 C 171.09375 80.152344 171.90625 77.0625 171.90625 73.785156 C 171.90625 62.976562 163.113281 54.179688 152.300781 54.179688 C 141.492188 54.179688 132.695312 62.976562 132.695312 73.785156 C 132.695312 78.898438 134.664062 83.558594 137.882812 87.050781 L 123.890625 111.28125 C 122.511719 110.972656 121.082031 110.804688 119.609375 110.804688 C 116.332031 110.804688 113.246094 111.617188 110.527344 113.042969 L 102.46875 104.984375 C 103.898438 102.269531 104.707031 99.179688 104.707031 95.902344 C 104.707031 85.09375 95.914062 76.296875 85.101562 76.296875 C 74.292969 76.296875 65.496094 85.09375 65.496094 95.902344 C 65.496094 101.015625 67.464844 105.675781 70.683594 109.167969 L 49.402344 146.027344 C 47.785156 148.828125 48.746094 152.410156 51.546875 154.027344 Z M 233.085938 55.921875 C 237.4375 55.921875 240.980469 59.460938 240.980469 63.8125 C 240.980469 68.164062 237.4375 71.707031 233.085938 71.707031 C 228.734375 71.707031 225.195312 68.164062 225.195312 63.8125 C 225.195312 59.460938 228.734375 55.921875 233.085938 55.921875 Z M 195.601562 109.191406 C 195.601562 113.542969 192.058594 117.082031 187.707031 117.082031 C 183.355469 117.082031 179.816406 113.542969 179.816406 109.191406 C 179.816406 104.839844 183.355469 101.296875 187.707031 101.296875 C 192.058594 101.296875 195.601562 104.839844 195.601562 109.191406 Z M 152.304688 65.894531 C 156.65625 65.894531 160.195312 69.433594 160.195312 73.785156 C 160.195312 78.140625 156.65625 81.679688 152.304688 81.679688 C 147.949219 81.679688 144.410156 78.136719 144.410156 73.785156 C 144.410156 69.433594 147.949219 65.894531 152.304688 65.894531 Z M 127.503906 130.410156 C 127.503906 134.761719 123.964844 138.300781 119.613281 138.300781 C 115.257812 138.300781 111.71875 134.761719 111.71875 130.410156 C 111.71875 126.054688 115.257812 122.515625 119.613281 122.515625 C 123.964844 122.515625 127.503906 126.058594 127.503906 130.410156 Z M 85.105469 88.007812 C 89.457031 88.007812 92.996094 91.550781 92.996094 95.902344 C 92.996094 100.253906 89.457031 103.796875 85.105469 103.796875 C 80.75 103.796875 77.210938 100.253906 77.210938 95.902344 C 77.210938 91.550781 80.75 88.007812 85.105469 88.007812 Z M 303.472656 214.121094 C 308.292969 208.929688 311.148438 202.035156 311.148438 194.777344 L 311.148438 39.5625 C 311.148438 23.894531 298.398438 11.144531 282.730469 11.144531 L 34.371094 11.144531 C 18.703125 11.144531 5.953125 23.894531 5.953125 39.5625 L 5.953125 194.777344 C 5.953125 210.445312 18.703125 223.195312 34.371094 223.195312 L 106.574219 223.195312 L 106.574219 247.328125 L 78.089844 247.328125 C 64.25 247.328125 52.992188 256.851562 52.992188 268.554688 L 52.992188 283.929688 C 52.992188 287.164062 55.613281 289.785156 58.847656 289.785156 L 122.394531 289.785156 C 119.21875 300.820312 117.511719 312.476562 117.511719 324.519531 C 117.511719 327.753906 120.136719 330.375 123.367188 330.375 L 225.097656 330.375 C 226.582031 334.984375 229.703125 338.800781 233.953125 341.167969 C 236.882812 342.800781 240.058594 343.574219 243.195312 343.574219 C 249.886719 343.574219 256.390625 340.046875 259.875 333.792969 C 260.488281 332.695312 260.984375 331.550781 261.367188 330.375 L 363.191406 330.375 C 366.425781 330.375 369.046875 327.753906 369.046875 324.519531 C 369.046875 276.964844 342.511719 235.492188 303.472656 214.121094 Z M 357.1875 318.664062 L 337.25 318.664062 C 336.457031 305.78125 333.058594 293.589844 327.578125 282.613281 L 344.839844 272.644531 C 351.984375 286.578125 356.347656 302.164062 357.1875 318.664062 Z M 338.960938 262.515625 L 321.707031 272.480469 C 314.753906 262.03125 305.769531 253.050781 295.324219 246.09375 L 305.285156 228.839844 C 318.726562 237.578125 330.222656 249.074219 338.960938 262.515625 Z M 141.71875 272.648438 L 158.980469 282.613281 C 153.5 293.589844 150.101562 305.78125 149.308594 318.664062 L 129.371094 318.664062 C 130.210938 302.164062 134.574219 286.578125 141.71875 272.648438 Z M 164.851562 272.480469 L 147.597656 262.515625 C 156.335938 249.074219 167.828125 237.582031 181.269531 228.84375 L 191.238281 246.09375 C 180.789062 253.046875 171.808594 262.03125 164.851562 272.480469 Z M 201.371094 240.222656 L 191.398438 222.964844 C 205.332031 215.816406 220.921875 211.453125 237.421875 210.613281 L 237.421875 230.550781 C 224.539062 231.347656 212.347656 234.742188 201.371094 240.222656 Z M 249.136719 210.613281 C 265.636719 211.453125 281.21875 215.816406 295.152344 222.960938 L 285.1875 240.222656 C 274.210938 234.742188 262.019531 231.347656 249.136719 230.550781 Z M 17.664062 194.777344 L 17.664062 39.5625 C 17.664062 30.351562 25.160156 22.859375 34.371094 22.859375 L 282.730469 22.859375 C 291.941406 22.859375 299.433594 30.351562 299.433594 39.5625 L 299.433594 194.777344 C 299.433594 200.316406 296.605469 205.511719 292.0625 208.601562 C 277.054688 202.261719 260.566406 198.753906 243.277344 198.753906 C 223.53125 198.753906 204.832031 203.335938 188.183594 211.480469 L 34.371094 211.480469 C 25.160156 211.480469 17.664062 203.988281 17.664062 194.777344 Z M 118.289062 223.195312 L 168.871094 223.195312 C 159.535156 230.066406 151.179688 238.195312 144.058594 247.328125 L 118.289062 247.328125 Z M 64.707031 278.074219 L 64.707031 268.558594 C 64.707031 263.398438 70.835938 259.039062 78.089844 259.039062 L 135.941406 259.039062 C 132.25 265.070312 129.050781 271.433594 126.402344 278.074219 Z M 226.578125 315.25 C 225.964844 316.347656 225.46875 317.492188 225.089844 318.664062 L 161.046875 318.664062 C 164.058594 275.925781 199.789062 242.074219 243.277344 242.074219 C 286.769531 242.074219 322.5 275.925781 325.515625 318.664062 L 262.59375 318.664062 L 281.488281 270.003906 C 282.535156 267.316406 281.464844 264.265625 278.964844 262.816406 C 276.46875 261.371094 273.289062 261.960938 271.476562 264.203125 L 237.347656 306.40625 C 232.925781 307.839844 229.015625 310.878906 226.578125 315.25 Z M 253.886719 308.730469 C 253.4375 308.429688 252.976562 308.140625 252.5 307.875 C 252.203125 307.710938 251.90625 307.554688 251.605469 307.40625 L 256.984375 300.753906 Z M 249.640625 328.09375 C 247.671875 331.632812 243.191406 332.90625 239.652344 330.9375 C 237.941406 329.980469 236.703125 328.417969 236.164062 326.53125 C 235.625 324.644531 235.855469 322.660156 236.8125 320.949219 C 238.15625 318.539062 240.660156 317.179688 243.238281 317.179688 C 244.449219 317.179688 245.671875 317.476562 246.800781 318.105469 C 248.515625 319.0625 249.753906 320.625 250.289062 322.511719 C 250.828125 324.398438 250.597656 326.382812 249.640625 328.09375 Z M 249.640625 328.09375 " fill-opacity="1" fill-rule="nonzero"/></g></svg>