<svg xmlns="http://www.w3.org/2000/svg" xmlns:xlink="http://www.w3.org/1999/xlink" width="500" zoomAndPan="magnify" viewBox="0 0 375 374.999991" height="500" preserveAspectRatio="xMidYMid meet" version="1.0"><defs><clipPath id="2af5149e72"><path d="M 8.671875 8.671875 L 366.421875 8.671875 L 366.421875 366.421875 L 8.671875 366.421875 Z M 8.671875 8.671875 " clip-rule="nonzero"/></clipPath></defs><path fill="#00f3f7" d="M 260.59375 147.605469 C 261.152344 149.277344 262.824219 150.953125 264.5 151.511719 C 266.171875 152.066406 268.402344 151.511719 269.519531 149.835938 L 276.214844 143.140625 L 290.164062 157.089844 C 291.28125 158.207031 292.953125 158.765625 294.070312 158.765625 C 295.746094 158.765625 296.859375 158.207031 297.976562 157.089844 L 313.042969 142.023438 C 315.273438 139.792969 315.273438 136.445312 313.042969 134.214844 L 299.09375 120.265625 L 305.789062 113.570312 C 306.902344 112.453125 307.460938 110.21875 307.460938 108.546875 C 306.902344 106.871094 305.789062 105.199219 303.554688 104.640625 L 250.550781 87.902344 C 248.316406 87.34375 246.644531 87.902344 244.96875 89.019531 C 243.296875 90.691406 242.738281 92.921875 243.855469 94.597656 Z M 291.839844 111.894531 L 287.375 116.359375 C 286.257812 117.472656 285.699219 118.589844 285.699219 120.265625 C 285.699219 121.9375 286.257812 123.054688 287.375 124.167969 L 301.324219 138.117188 L 294.628906 144.816406 L 280.679688 131.421875 C 279.5625 130.308594 278.449219 129.75 276.773438 129.75 C 275.101562 129.75 273.984375 130.308594 272.867188 131.421875 L 268.402344 135.886719 L 257.800781 101.851562 Z M 291.839844 111.894531 " fill-opacity="1" fill-rule="nonzero"/><g clip-path="url(#2af5149e72)"><path fill="#00f3f7" d="M 344.84375 8.671875 L 30.152344 8.671875 C 18.433594 8.671875 8.949219 18.15625 8.949219 29.875 L 8.949219 267.566406 C 8.949219 279.285156 18.433594 288.769531 30.152344 288.769531 L 134.492188 288.769531 L 122.773438 332.847656 L 98.78125 332.847656 C 89.855469 332.847656 82.042969 340.101562 82.042969 349.589844 C 82.042969 358.515625 89.296875 366.328125 98.78125 366.328125 L 276.214844 366.328125 C 285.144531 366.328125 292.953125 359.074219 292.953125 349.589844 C 292.953125 340.660156 285.699219 332.847656 276.214844 332.847656 L 252.222656 332.847656 L 240.503906 288.769531 L 344.84375 288.769531 C 356.5625 288.769531 366.046875 279.285156 366.046875 267.566406 L 366.046875 29.875 C 366.046875 18.15625 356.5625 8.671875 344.84375 8.671875 Z M 30.152344 19.832031 L 344.289062 19.832031 C 349.867188 19.832031 354.332031 24.292969 354.332031 29.875 L 354.332031 226.835938 L 20.109375 226.835938 L 20.109375 29.875 C 20.109375 24.292969 24.574219 19.832031 30.152344 19.832031 Z M 228.789062 288.769531 L 240.503906 332.847656 L 134.492188 332.847656 L 146.210938 288.769531 Z M 281.238281 349.03125 C 281.238281 351.820312 279.003906 354.609375 275.65625 354.609375 L 98.78125 354.609375 C 95.992188 354.609375 93.203125 352.378906 93.203125 349.03125 C 93.203125 346.242188 95.433594 343.449219 98.78125 343.449219 C 175.222656 343.449219 196.425781 343.449219 276.214844 343.449219 C 279.003906 344.007812 281.238281 346.242188 281.238281 349.03125 Z M 344.84375 277.609375 L 321.410156 277.609375 L 321.410156 269.242188 C 321.410156 265.894531 319.179688 263.660156 315.832031 263.660156 C 312.484375 263.660156 310.25 265.894531 310.25 269.242188 L 310.25 277.609375 L 297.976562 277.609375 L 297.976562 269.242188 C 297.976562 265.894531 295.746094 263.660156 292.398438 263.660156 C 289.046875 263.660156 286.816406 265.894531 286.816406 269.242188 L 286.816406 277.609375 L 274.542969 277.609375 L 274.542969 269.242188 C 274.542969 265.894531 272.308594 263.660156 268.960938 263.660156 C 265.613281 263.660156 263.382812 265.894531 263.382812 269.242188 L 263.382812 277.609375 C 210.933594 277.609375 165.179688 277.609375 112.730469 277.609375 L 112.730469 269.242188 C 112.730469 265.894531 110.5 263.660156 107.152344 263.660156 C 103.804688 263.660156 101.570312 265.894531 101.570312 269.242188 L 101.570312 277.609375 L 89.296875 277.609375 L 89.296875 269.242188 C 89.296875 265.894531 87.066406 263.660156 83.71875 263.660156 C 80.371094 263.660156 78.136719 265.894531 78.136719 269.242188 L 78.136719 277.609375 L 65.863281 277.609375 L 65.863281 269.242188 C 65.863281 265.894531 63.628906 263.660156 60.28125 263.660156 C 56.933594 263.660156 54.703125 265.894531 54.703125 269.242188 L 54.703125 277.609375 L 30.152344 277.609375 C 24.574219 277.609375 20.109375 273.148438 20.109375 267.566406 L 20.109375 238.554688 L 354.890625 238.554688 L 354.890625 267.566406 C 354.890625 273.148438 350.425781 277.609375 344.84375 277.609375 Z M 344.84375 277.609375 " fill-opacity="1" fill-rule="nonzero"/></g><path fill="#00f3f7" d="M 41.871094 211.210938 L 333.128906 211.210938 C 336.476562 211.210938 338.707031 208.980469 338.707031 205.632812 L 338.707031 41.03125 C 338.707031 37.683594 336.476562 35.453125 333.128906 35.453125 L 41.871094 35.453125 C 38.523438 35.453125 36.289062 37.683594 36.289062 41.03125 L 36.289062 205.632812 C 36.289062 208.980469 38.523438 211.210938 41.871094 211.210938 Z M 84.273438 200.054688 L 118.867188 124.726562 L 136.167969 148.164062 C 137.28125 149.835938 138.957031 150.394531 141.1875 150.394531 C 142.863281 150.394531 144.535156 149.277344 145.652344 147.605469 L 171.875 100.734375 L 196.984375 149.835938 C 197.542969 151.511719 199.214844 152.625 200.890625 152.625 C 202.5625 153.183594 204.238281 152.625 205.910156 150.953125 L 226 131.980469 L 257.800781 199.496094 L 84.273438 199.496094 Z M 47.449219 46.613281 L 327.546875 46.613281 L 327.546875 200.054688 L 270.078125 200.054688 L 232.695312 120.820312 C 232.136719 119.148438 230.460938 118.03125 228.789062 117.472656 C 227.113281 116.917969 225.441406 117.472656 223.765625 119.148438 L 203.121094 138.117188 L 176.339844 86.785156 C 175.222656 85.113281 173.550781 83.996094 171.316406 83.996094 C 169.085938 83.996094 167.414062 85.113281 166.296875 86.785156 L 139.515625 134.769531 L 121.660156 110.777344 C 120.542969 109.105469 118.3125 108.546875 116.636719 108.546875 C 114.40625 108.546875 112.730469 110.21875 112.171875 111.894531 L 71.441406 200.609375 L 47.449219 200.609375 Z M 47.449219 46.613281 " fill-opacity="1" fill-rule="nonzero"/><path fill="#00f3f7" d="M 187.5 241.34375 C 178.570312 241.34375 170.761719 248.597656 170.761719 258.082031 C 170.761719 267.007812 178.011719 274.820312 187.5 274.820312 C 196.425781 274.820312 204.238281 267.566406 204.238281 258.082031 C 204.238281 248.597656 196.425781 241.34375 187.5 241.34375 Z M 187.5 263.101562 C 184.710938 263.101562 181.917969 260.871094 181.917969 257.523438 C 181.917969 254.734375 184.152344 251.945312 187.5 251.945312 C 190.289062 251.945312 193.078125 254.175781 193.078125 257.523438 C 193.078125 260.871094 190.289062 263.101562 187.5 263.101562 Z M 187.5 263.101562 " fill-opacity="1" fill-rule="nonzero"/><path fill="#00f3f7" d="M 87.066406 110.777344 C 99.898438 110.777344 109.941406 100.175781 109.941406 87.902344 C 109.941406 75.070312 99.339844 65.027344 87.066406 65.027344 C 74.230469 65.027344 64.1875 75.625 64.1875 87.902344 C 63.628906 100.734375 74.230469 110.777344 87.066406 110.777344 Z M 87.066406 75.625 C 93.761719 75.625 98.78125 81.207031 98.78125 87.34375 C 98.78125 94.039062 93.203125 99.0625 87.066406 99.0625 C 80.371094 99.0625 75.347656 93.480469 75.347656 87.34375 C 74.789062 81.207031 80.371094 75.625 87.066406 75.625 Z M 87.066406 75.625 " fill-opacity="1" fill-rule="nonzero"/></svg>