<svg xmlns="http://www.w3.org/2000/svg" xmlns:xlink="http://www.w3.org/1999/xlink" width="500" zoomAndPan="magnify" viewBox="0 0 375 374.999991" height="500" preserveAspectRatio="xMidYMid meet" version="1.0"><defs><clipPath id="c99e74f7b5"><path d="M 14 10 L 364 10 L 364 365.378906 L 14 365.378906 Z M 14 10 " clip-rule="nonzero"/></clipPath></defs><path fill="#00f3f7" d="M 62.109375 249.425781 C 71.609375 256.773438 83.519531 261.128906 96.453125 261.128906 C 127.5625 261.128906 152.765625 235.902344 152.765625 204.796875 C 152.765625 173.707031 127.558594 148.480469 96.453125 148.480469 C 65.347656 148.480469 40.140625 173.707031 40.140625 204.796875 C 40.140625 217.054688 44.03125 228.378906 50.6875 237.613281 L 11.742188 276.558594 C 8.539062 279.761719 8.539062 284.953125 11.742188 288.175781 C 13.335938 289.769531 15.457031 290.574219 17.542969 290.574219 C 19.644531 290.574219 21.75 289.769531 23.359375 288.175781 Z M 68.351562 176.539062 C 75.566406 169.359375 85.492188 164.921875 96.453125 164.921875 C 118.441406 164.921875 136.332031 182.816406 136.332031 204.804688 C 136.332031 215.765625 131.898438 225.691406 124.714844 232.90625 C 117.488281 240.183594 107.480469 244.6875 96.453125 244.6875 C 74.464844 244.6875 56.570312 226.792969 56.570312 204.804688 C 56.570312 193.777344 61.070312 183.769531 68.351562 176.539062 Z M 68.351562 176.539062 " fill-opacity="1" fill-rule="nonzero"/><g clip-path="url(#c99e74f7b5)"><path fill="#00f3f7" d="M 191.699219 10.980469 C 151.195312 9.84375 111.214844 22.757812 79.109375 47.347656 C 47.46875 71.585938 24.703125 106.09375 15.011719 144.519531 C 14.398438 146.941406 15.867188 149.394531 18.285156 150.007812 C 20.707031 150.625 23.164062 149.152344 23.773438 146.730469 C 32.972656 110.273438 54.574219 77.527344 84.605469 54.523438 C 115.070312 31.191406 153.015625 18.953125 191.445312 20.015625 C 236.316406 21.277344 278.011719 39.933594 308.851562 72.554688 C 339.691406 105.179688 355.980469 147.859375 354.71875 192.730469 C 352.113281 285.363281 274.640625 358.652344 182.003906 356 C 142.316406 354.886719 104.890625 340.035156 75.421875 313.929688 L 81.402344 307.628906 C 82.742188 306.210938 81.828125 303.871094 79.878906 303.746094 L 59.839844 302.445312 C 58.402344 302.351562 57.234375 303.582031 57.402344 305.011719 L 59.761719 324.957031 C 59.992188 326.894531 62.378906 327.6875 63.71875 326.269531 L 69.203125 320.492188 C 100.289062 348.128906 139.820312 363.859375 181.75 365.039062 C 183.4375 365.085938 185.117188 365.109375 186.792969 365.109375 C 282.160156 365.109375 361.054688 288.910156 363.753906 192.984375 C 366.496094 95.367188 289.3125 13.722656 191.699219 10.980469 Z M 191.699219 10.980469 " fill-opacity="1" fill-rule="nonzero"/></g><path fill="#00f3f7" d="M 15.421875 213.722656 C 15.605469 213.722656 15.789062 213.710938 15.980469 213.6875 C 18.453125 213.386719 20.21875 211.132812 19.914062 208.652344 C 18.890625 200.300781 18.492188 191.765625 18.730469 183.285156 C 18.839844 179.371094 19.089844 175.398438 19.472656 171.472656 C 19.714844 168.992188 17.898438 166.78125 15.410156 166.539062 C 12.925781 166.296875 10.71875 168.117188 10.476562 170.597656 C 10.074219 174.730469 9.8125 178.910156 9.695312 183.035156 C 9.441406 191.960938 9.863281 200.953125 10.941406 209.753906 C 11.222656 212.042969 13.171875 213.722656 15.421875 213.722656 Z M 15.421875 213.722656 " fill-opacity="1" fill-rule="nonzero"/><path fill="#00f3f7" d="M 188.96875 217.589844 L 211.046875 217.589844 L 211.046875 207.363281 L 182.867188 207.363281 C 180.050781 207.363281 175.992188 210.179688 175.992188 212.992188 L 175.992188 315.414062 C 175.992188 318.226562 180.050781 320.566406 182.867188 320.566406 L 241.921875 320.566406 C 244.738281 320.566406 246.835938 318.226562 246.835938 315.414062 L 246.835938 248.261719 L 237.34375 248.261719 L 237.34375 300.273438 C 237.34375 301.472656 237.019531 303.039062 235.824219 303.039062 L 188.972656 303.039062 C 187.773438 303.039062 186.21875 301.472656 186.21875 300.273438 L 186.21875 219.09375 C 186.214844 217.910156 187.773438 217.589844 188.96875 217.589844 Z M 212.394531 310.171875 C 214.179688 310.171875 215.628906 311.617188 215.628906 313.402344 C 215.628906 315.1875 214.179688 316.636719 212.394531 316.636719 C 210.609375 316.636719 209.160156 315.1875 209.160156 313.402344 C 209.160156 311.617188 210.609375 310.171875 212.394531 310.171875 Z M 212.394531 310.171875 " fill-opacity="1" fill-rule="nonzero"/><path fill="#00f3f7" d="M 237.425781 58.203125 C 237.054688 58.066406 236.65625 57.640625 236.234375 57.640625 L 137.652344 57.640625 C 137.175781 57.640625 136.726562 58.085938 136.320312 58.253906 L 186.835938 90.25 Z M 237.425781 58.203125 " fill-opacity="1" fill-rule="nonzero"/><path fill="#00f3f7" d="M 305.234375 116.800781 L 238.800781 116.800781 L 238.800781 68.957031 L 189.164062 100.59375 C 188.355469 101.101562 187.597656 101.359375 186.679688 101.359375 C 185.765625 101.359375 184.617188 101.101562 183.808594 100.59375 L 133.632812 68.957031 L 133.632812 126.476562 C 133.632812 127.566406 134.363281 128.527344 135.09375 129.171875 L 135.09375 129.242188 C 135.824219 129.78125 136.78125 129.945312 137.652344 129.945312 L 220.542969 129.945312 L 220.542969 232.601562 C 220.542969 236.1875 224.246094 238.769531 227.832031 238.769531 L 305.234375 238.769531 C 308.820312 238.769531 311.105469 236.1875 311.105469 232.601562 L 311.105469 123.980469 C 311.105469 120.394531 308.820312 116.800781 305.234375 116.800781 Z M 293.851562 187.644531 L 239.058594 187.644531 C 237.242188 187.644531 235.773438 186.171875 235.773438 184.359375 C 235.773438 182.542969 237.242188 181.070312 239.058594 181.070312 L 293.851562 181.070312 C 295.667969 181.070312 297.136719 182.542969 297.136719 184.359375 C 297.136719 186.171875 295.667969 187.644531 293.851562 187.644531 Z M 293.851562 171.578125 L 239.058594 171.578125 C 237.242188 171.578125 235.773438 170.105469 235.773438 168.289062 C 235.773438 166.476562 237.242188 165.003906 239.058594 165.003906 L 293.851562 165.003906 C 295.667969 165.003906 297.136719 166.476562 297.136719 168.289062 C 297.136719 170.105469 295.667969 171.578125 293.851562 171.578125 Z M 293.851562 171.578125 " fill-opacity="1" fill-rule="nonzero"/></svg>