<svg xmlns="http://www.w3.org/2000/svg" xmlns:xlink="http://www.w3.org/1999/xlink" width="500" zoomAndPan="magnify" viewBox="0 0 375 374.999991" height="500" preserveAspectRatio="xMidYMid meet" version="1.0"><defs><clipPath id="ec24a7e14d"><path d="M 7.097656 7.097656 L 367.847656 7.097656 L 367.847656 367.847656 L 7.097656 367.847656 Z M 7.097656 7.097656 " clip-rule="nonzero"/></clipPath></defs><g clip-path="url(#ec24a7e14d)"><path fill="#00f3f7" d="M 356.441406 52.15625 L 322.636719 52.15625 L 322.636719 18.351562 L 356.441406 18.351562 Z M 356.441406 356.421875 L 18.371094 356.421875 L 18.371094 63.414062 L 356.441406 63.414062 Z M 18.371094 18.351562 L 311.363281 18.351562 L 311.363281 52.15625 L 18.371094 52.15625 Z M 322.636719 7.078125 L 7.097656 7.078125 L 7.097656 367.699219 L 367.71875 367.699219 L 367.71875 7.078125 L 322.636719 7.078125 " fill-opacity="1" fill-rule="nonzero"/></g><path fill="#00f3f7" d="M 187.398438 131.042969 C 187.398438 124.816406 192.46875 119.765625 198.671875 119.765625 C 204.898438 119.765625 209.945312 124.816406 209.945312 131.042969 C 209.945312 137.246094 204.898438 142.296875 198.671875 142.296875 C 192.46875 142.296875 187.398438 137.246094 187.398438 131.042969 Z M 221.203125 131.042969 C 221.203125 118.613281 211.101562 108.492188 198.671875 108.492188 C 186.242188 108.492188 176.140625 118.613281 176.140625 131.042969 C 176.140625 143.472656 186.242188 153.574219 198.671875 153.574219 C 211.101562 153.574219 221.203125 143.472656 221.203125 131.042969 " fill-opacity="1" fill-rule="nonzero"/><path fill="#00f3f7" d="M 153.59375 176.121094 L 153.59375 164.847656 L 93.558594 164.847656 L 93.558594 176.121094 L 153.59375 176.121094 " fill-opacity="1" fill-rule="nonzero"/><path fill="#00f3f7" d="M 52.175781 198.652344 L 221.203125 198.652344 L 221.203125 187.378906 L 52.175781 187.378906 L 52.175781 198.652344 " fill-opacity="1" fill-rule="nonzero"/><path fill="#00f3f7" d="M 327.785156 181.742188 L 320.816406 185.558594 L 317 192.546875 L 313.203125 185.558594 L 306.214844 181.742188 L 313.203125 177.941406 L 317 170.953125 L 320.816406 177.941406 Z M 304.882812 169.625 L 282.726562 181.742188 L 304.882812 193.875 L 317 216.035156 L 329.136719 193.875 L 351.292969 181.742188 L 329.136719 169.625 L 317 147.464844 L 304.882812 169.625 " fill-opacity="1" fill-rule="nonzero"/><path fill="#00f3f7" d="M 69.070312 114.128906 C 69.070312 111.019531 71.613281 108.492188 74.707031 108.492188 L 136.699219 108.492188 C 139.792969 108.492188 142.335938 111.019531 142.335938 114.128906 C 142.335938 117.242188 139.792969 119.765625 136.699219 119.765625 L 74.707031 119.765625 C 71.613281 119.765625 69.070312 117.242188 69.070312 114.128906 Z M 136.699219 131.042969 C 146.015625 131.042969 153.59375 123.449219 153.59375 114.128906 C 153.59375 104.8125 146.015625 97.238281 136.699219 97.238281 L 74.707031 97.238281 C 65.390625 97.238281 57.8125 104.8125 57.8125 114.128906 C 57.8125 123.449219 65.390625 131.042969 74.707031 131.042969 L 136.699219 131.042969 " fill-opacity="1" fill-rule="nonzero"/><path fill="#00f3f7" d="M 52.175781 40.882812 C 63.453125 40.882812 52.175781 40.882812 63.453125 40.882812 L 63.453125 29.605469 L 52.175781 29.605469 L 52.175781 40.882812 " fill-opacity="1" fill-rule="nonzero"/><path fill="#00f3f7" d="M 29.648438 40.882812 C 40.902344 40.882812 29.648438 40.882812 40.902344 40.882812 L 40.902344 29.605469 L 29.648438 29.605469 L 29.648438 40.882812 " fill-opacity="1" fill-rule="nonzero"/><path fill="#00f3f7" d="M 288.617188 270.628906 L 311.363281 270.628906 L 311.363281 259.371094 L 288.617188 259.371094 L 288.617188 270.628906 " fill-opacity="1" fill-rule="nonzero"/><path fill="#00f3f7" d="M 52.175781 153.574219 L 153.59375 153.574219 L 153.59375 142.296875 L 52.175781 142.296875 L 52.175781 153.574219 " fill-opacity="1" fill-rule="nonzero"/><path fill="#00f3f7" d="M 74.707031 40.882812 C 85.980469 40.882812 74.707031 40.882812 85.980469 40.882812 L 85.980469 29.605469 L 74.707031 29.605469 L 74.707031 40.882812 " fill-opacity="1" fill-rule="nonzero"/><path fill="#00f3f7" d="M 91.621094 288.8125 L 53.390625 288.8125 L 53.390625 300.085938 L 91.621094 300.085938 L 91.621094 288.8125 " fill-opacity="1" fill-rule="nonzero"/><path fill="#00f3f7" d="M 292.648438 112.308594 L 288.832031 119.296875 L 285.015625 112.308594 L 278.046875 108.492188 L 285.015625 104.695312 L 288.832031 97.707031 L 292.648438 104.695312 L 299.617188 108.492188 Z M 288.832031 74.21875 L 276.714844 96.375 L 254.558594 108.492188 L 276.714844 120.628906 L 288.832031 142.785156 L 300.949219 120.628906 L 323.125 108.492188 L 300.949219 96.375 L 288.832031 74.21875 " fill-opacity="1" fill-rule="nonzero"/><path fill="#00f3f7" d="M 53.390625 243.734375 L 164.867188 243.734375 L 164.867188 232.457031 L 53.390625 232.457031 L 53.390625 243.734375 " fill-opacity="1" fill-rule="nonzero"/><path fill="#00f3f7" d="M 204.308594 221.203125 L 204.308594 209.925781 L 147.953125 209.925781 L 147.953125 221.203125 L 204.308594 221.203125 " fill-opacity="1" fill-rule="nonzero"/><path fill="#00f3f7" d="M 53.390625 277.539062 L 164.867188 277.539062 L 164.867188 266.261719 L 53.390625 266.261719 L 53.390625 277.539062 " fill-opacity="1" fill-rule="nonzero"/><path fill="#00f3f7" d="M 255.027344 230.304688 L 255.027344 302.242188 L 232.476562 290.964844 L 232.476562 241.578125 Z M 221.203125 288.8125 L 203.058594 288.8125 C 197.535156 288.8125 193.035156 283.839844 193.035156 277.753906 L 193.035156 254.792969 C 193.035156 248.703125 197.535156 243.734375 203.058594 243.734375 L 221.203125 243.734375 Z M 243.753906 74.6875 L 29.648438 74.6875 L 29.648438 339.53125 L 40.902344 339.53125 L 40.902344 85.960938 L 232.476562 85.960938 L 232.476562 228.972656 L 225.527344 232.457031 L 203.058594 232.457031 C 191.3125 232.457031 181.78125 242.480469 181.78125 254.792969 L 181.78125 277.753906 C 181.78125 290.066406 191.3125 300.085938 203.058594 300.085938 L 225.527344 300.085938 L 232.476562 303.570312 L 232.476562 339.53125 L 243.753906 339.53125 L 243.753906 309.191406 L 266.28125 320.464844 L 266.28125 212.082031 L 243.753906 223.335938 L 243.753906 74.6875 " fill-opacity="1" fill-rule="nonzero"/><path fill="#00f3f7" d="M 301.925781 232.984375 L 296.859375 222.925781 L 275.304688 233.75 L 280.355469 243.832031 L 301.925781 232.984375 " fill-opacity="1" fill-rule="nonzero"/><path fill="#00f3f7" d="M 52.175781 221.203125 L 69.070312 221.203125 L 69.070312 209.925781 L 52.175781 209.925781 L 52.175781 221.203125 " fill-opacity="1" fill-rule="nonzero"/><path fill="#00f3f7" d="M 136.699219 221.203125 L 136.699219 209.925781 L 80.34375 209.925781 L 80.34375 221.203125 L 136.699219 221.203125 " fill-opacity="1" fill-rule="nonzero"/><path fill="#00f3f7" d="M 102.894531 300.085938 L 164.867188 300.085938 L 164.867188 288.8125 L 102.894531 288.8125 L 102.894531 300.085938 " fill-opacity="1" fill-rule="nonzero"/><path fill="#00f3f7" d="M 53.390625 322.617188 L 147.953125 322.617188 L 147.953125 311.34375 L 53.390625 311.34375 L 53.390625 322.617188 " fill-opacity="1" fill-rule="nonzero"/><path fill="#00f3f7" d="M 275.304688 296.230469 L 296.859375 307.074219 L 301.925781 297.015625 L 280.355469 286.171875 L 275.304688 296.230469 " fill-opacity="1" fill-rule="nonzero"/></svg>