<svg xmlns="http://www.w3.org/2000/svg" xmlns:xlink="http://www.w3.org/1999/xlink" width="500" zoomAndPan="magnify" viewBox="0 0 375 374.999991" height="500" preserveAspectRatio="xMidYMid meet" version="1.0"><defs><clipPath id="f492fd4edf"><path d="M 241 9.019531 L 369 9.019531 L 369 234 L 241 234 Z M 241 9.019531 " clip-rule="nonzero"/></clipPath></defs><g clip-path="url(#f492fd4edf)"><path fill="#00f3f7" d="M 308.632812 10.851562 C 308.125 10.445312 307.558594 10.136719 306.945312 9.921875 C 306.328125 9.707031 305.695312 9.597656 305.042969 9.597656 C 304.390625 9.597656 303.757812 9.707031 303.140625 9.921875 C 302.527344 10.136719 301.964844 10.445312 301.453125 10.851562 L 243.972656 56.835938 C 243.292969 57.382812 242.761719 58.050781 242.382812 58.835938 C 242.003906 59.625 241.816406 60.453125 241.816406 61.328125 L 241.816406 228.019531 C 241.816406 228.398438 241.851562 228.773438 241.925781 229.140625 C 242 229.511719 242.109375 229.871094 242.253906 230.222656 C 242.398438 230.570312 242.574219 230.902344 242.785156 231.214844 C 242.992188 231.527344 243.230469 231.820312 243.5 232.085938 C 243.765625 232.351562 244.054688 232.589844 244.371094 232.800781 C 244.683594 233.011719 245.015625 233.1875 245.363281 233.332031 C 245.710938 233.476562 246.070312 233.585938 246.441406 233.660156 C 246.8125 233.730469 247.1875 233.769531 247.5625 233.769531 L 362.523438 233.769531 C 362.902344 233.769531 363.273438 233.730469 363.644531 233.660156 C 364.015625 233.585938 364.375 233.476562 364.722656 233.332031 C 365.074219 233.1875 365.402344 233.011719 365.71875 232.800781 C 366.03125 232.589844 366.320312 232.351562 366.589844 232.085938 C 366.855469 231.820312 367.09375 231.527344 367.304688 231.214844 C 367.511719 230.902344 367.691406 230.570312 367.835938 230.222656 C 367.980469 229.871094 368.089844 229.511719 368.160156 229.140625 C 368.234375 228.773438 368.273438 228.398438 368.273438 228.019531 L 368.273438 61.328125 C 368.273438 60.453125 368.082031 59.625 367.703125 58.835938 C 367.324219 58.050781 366.796875 57.382812 366.113281 56.835938 Z M 356.777344 222.273438 L 253.3125 222.273438 L 253.3125 64.089844 L 305.042969 22.703125 L 356.777344 64.089844 Z M 356.777344 222.273438 " fill-opacity="1" fill-rule="nonzero"/></g><path fill="#00f3f7" d="M 287.800781 67.074219 C 287.800781 67.640625 287.828125 68.203125 287.882812 68.765625 C 287.9375 69.328125 288.019531 69.886719 288.132812 70.441406 C 288.242188 70.992188 288.378906 71.542969 288.542969 72.082031 C 288.707031 72.621094 288.894531 73.152344 289.113281 73.675781 C 289.328125 74.195312 289.570312 74.707031 289.835938 75.203125 C 290.101562 75.703125 290.390625 76.1875 290.707031 76.65625 C 291.019531 77.125 291.355469 77.578125 291.714844 78.015625 C 292.070312 78.453125 292.449219 78.871094 292.851562 79.269531 C 293.25 79.667969 293.667969 80.046875 294.105469 80.40625 C 294.539062 80.765625 294.992188 81.101562 295.464844 81.414062 C 295.933594 81.726562 296.417969 82.019531 296.914062 82.285156 C 297.414062 82.550781 297.921875 82.792969 298.445312 83.007812 C 298.964844 83.222656 299.496094 83.414062 300.039062 83.578125 C 300.578125 83.742188 301.125 83.878906 301.679688 83.988281 C 302.234375 84.097656 302.792969 84.179688 303.351562 84.238281 C 303.914062 84.292969 304.480469 84.320312 305.042969 84.320312 C 305.609375 84.320312 306.171875 84.292969 306.734375 84.238281 C 307.296875 84.179688 307.855469 84.097656 308.40625 83.988281 C 308.960938 83.878906 309.507812 83.742188 310.050781 83.578125 C 310.589844 83.414062 311.121094 83.222656 311.644531 83.007812 C 312.164062 82.792969 312.675781 82.550781 313.171875 82.285156 C 313.671875 82.019531 314.15625 81.726562 314.625 81.414062 C 315.09375 81.101562 315.546875 80.765625 315.984375 80.40625 C 316.417969 80.046875 316.835938 79.667969 317.238281 79.269531 C 317.636719 78.871094 318.015625 78.453125 318.375 78.015625 C 318.730469 77.578125 319.066406 77.125 319.382812 76.65625 C 319.695312 76.1875 319.984375 75.703125 320.25 75.203125 C 320.519531 74.707031 320.757812 74.195312 320.976562 73.675781 C 321.191406 73.152344 321.382812 72.621094 321.546875 72.082031 C 321.710938 71.542969 321.847656 70.992188 321.957031 70.441406 C 322.066406 69.886719 322.148438 69.328125 322.203125 68.765625 C 322.261719 68.203125 322.289062 67.640625 322.289062 67.074219 C 322.289062 66.511719 322.261719 65.949219 322.203125 65.386719 C 322.148438 64.824219 322.066406 64.265625 321.957031 63.710938 C 321.847656 63.15625 321.710938 62.609375 321.546875 62.070312 C 321.382812 61.53125 321.191406 61 320.976562 60.476562 C 320.757812 59.957031 320.519531 59.445312 320.25 58.945312 C 319.984375 58.449219 319.695312 57.964844 319.382812 57.496094 C 319.066406 57.027344 318.730469 56.574219 318.375 56.136719 C 318.015625 55.699219 317.636719 55.28125 317.238281 54.882812 C 316.835938 54.484375 316.417969 54.105469 315.984375 53.746094 C 315.546875 53.386719 315.09375 53.050781 314.625 52.738281 C 314.15625 52.425781 313.671875 52.132812 313.171875 51.867188 C 312.675781 51.601562 312.164062 51.359375 311.644531 51.144531 C 311.121094 50.929688 310.589844 50.738281 310.050781 50.574219 C 309.507812 50.410156 308.960938 50.273438 308.40625 50.164062 C 307.855469 50.054688 307.296875 49.96875 306.734375 49.914062 C 306.171875 49.859375 305.609375 49.832031 305.042969 49.832031 C 304.480469 49.832031 303.914062 49.859375 303.355469 49.917969 C 302.792969 49.972656 302.234375 50.054688 301.679688 50.167969 C 301.128906 50.277344 300.582031 50.414062 300.039062 50.578125 C 299.5 50.742188 298.96875 50.933594 298.449219 51.148438 C 297.925781 51.367188 297.417969 51.605469 296.917969 51.875 C 296.421875 52.140625 295.9375 52.429688 295.46875 52.742188 C 295 53.058594 294.546875 53.394531 294.109375 53.75 C 293.671875 54.109375 293.253906 54.488281 292.855469 54.886719 C 292.457031 55.289062 292.078125 55.703125 291.71875 56.140625 C 291.359375 56.578125 291.023438 57.03125 290.710938 57.5 C 290.398438 57.96875 290.109375 58.453125 289.839844 58.949219 C 289.574219 59.449219 289.332031 59.957031 289.117188 60.480469 C 288.902344 61 288.710938 61.53125 288.546875 62.074219 C 288.382812 62.613281 288.246094 63.160156 288.132812 63.714844 C 288.023438 64.265625 287.941406 64.824219 287.882812 65.386719 C 287.828125 65.949219 287.800781 66.511719 287.800781 67.074219 Z M 310.792969 67.074219 C 310.792969 67.453125 310.753906 67.828125 310.679688 68.199219 C 310.609375 68.566406 310.5 68.925781 310.355469 69.277344 C 310.210938 69.625 310.03125 69.957031 309.824219 70.269531 C 309.613281 70.582031 309.375 70.875 309.109375 71.140625 C 308.839844 71.40625 308.550781 71.644531 308.238281 71.855469 C 307.921875 72.066406 307.59375 72.242188 307.242188 72.386719 C 306.894531 72.53125 306.535156 72.640625 306.164062 72.714844 C 305.792969 72.789062 305.421875 72.824219 305.042969 72.824219 C 304.667969 72.824219 304.292969 72.789062 303.921875 72.714844 C 303.550781 72.640625 303.191406 72.53125 302.84375 72.386719 C 302.496094 72.242188 302.164062 72.066406 301.851562 71.855469 C 301.535156 71.644531 301.246094 71.40625 300.980469 71.140625 C 300.710938 70.875 300.472656 70.582031 300.265625 70.269531 C 300.054688 69.957031 299.878906 69.625 299.734375 69.277344 C 299.589844 68.925781 299.480469 68.566406 299.40625 68.199219 C 299.332031 67.828125 299.296875 67.453125 299.296875 67.074219 C 299.296875 66.699219 299.332031 66.324219 299.40625 65.953125 C 299.480469 65.585938 299.589844 65.226562 299.734375 64.875 C 299.878906 64.527344 300.054688 64.195312 300.265625 63.882812 C 300.472656 63.570312 300.710938 63.277344 300.980469 63.011719 C 301.246094 62.746094 301.535156 62.507812 301.851562 62.296875 C 302.164062 62.085938 302.496094 61.910156 302.84375 61.765625 C 303.191406 61.621094 303.550781 61.511719 303.921875 61.4375 C 304.292969 61.363281 304.667969 61.328125 305.042969 61.328125 C 305.421875 61.328125 305.792969 61.367188 306.164062 61.4375 C 306.535156 61.511719 306.894531 61.621094 307.242188 61.765625 C 307.589844 61.910156 307.921875 62.089844 308.234375 62.296875 C 308.550781 62.507812 308.839844 62.746094 309.105469 63.011719 C 309.375 63.28125 309.613281 63.570312 309.820312 63.882812 C 310.03125 64.199219 310.207031 64.527344 310.351562 64.878906 C 310.496094 65.226562 310.605469 65.585938 310.679688 65.953125 C 310.753906 66.324219 310.792969 66.699219 310.792969 67.074219 Z M 310.792969 67.074219 " fill-opacity="1" fill-rule="nonzero"/><path fill="#00f3f7" d="M 310.792969 119.097656 L 310.792969 107.3125 L 299.296875 107.3125 L 299.296875 119.097656 C 298.671875 119.1875 298.058594 119.304688 297.445312 119.453125 C 296.835938 119.597656 296.234375 119.773438 295.636719 119.976562 C 295.042969 120.179688 294.460938 120.410156 293.886719 120.667969 C 293.3125 120.925781 292.753906 121.207031 292.207031 121.519531 C 291.660156 121.828125 291.132812 122.164062 290.617188 122.523438 C 290.101562 122.886719 289.605469 123.269531 289.125 123.675781 C 288.648438 124.082031 288.1875 124.511719 287.75 124.960938 C 287.3125 125.410156 286.894531 125.878906 286.5 126.367188 C 286.105469 126.859375 285.734375 127.363281 285.390625 127.886719 C 285.042969 128.410156 284.71875 128.949219 284.425781 129.503906 C 284.128906 130.058594 283.859375 130.625 283.613281 131.203125 C 283.371094 131.785156 283.15625 132.375 282.96875 132.972656 C 282.78125 133.574219 282.621094 134.179688 282.492188 134.792969 C 282.359375 135.410156 282.257812 136.027344 282.1875 136.652344 C 282.113281 137.277344 282.070312 137.902344 282.054688 138.53125 C 282.042969 139.15625 282.058594 139.785156 282.101562 140.410156 C 282.148438 141.039062 282.222656 141.660156 282.328125 142.28125 C 282.429688 142.902344 282.5625 143.515625 282.722656 144.121094 C 282.882812 144.730469 283.074219 145.328125 283.292969 145.917969 C 283.507812 146.507812 283.753906 147.085938 284.023438 147.652344 C 284.296875 148.21875 284.59375 148.769531 284.917969 149.308594 C 285.242188 149.847656 285.589844 150.367188 285.960938 150.875 C 286.335938 151.378906 286.730469 151.867188 287.148438 152.335938 C 287.566406 152.804688 288.003906 153.253906 288.464844 153.679688 C 288.925781 154.109375 289.40625 154.511719 289.902344 154.894531 C 290.402344 155.277344 290.917969 155.636719 291.449219 155.972656 C 291.980469 156.304688 292.527344 156.613281 293.089844 156.894531 C 293.652344 157.179688 294.222656 157.433594 294.808594 157.664062 C 295.394531 157.894531 295.988281 158.09375 296.59375 158.265625 C 297.195312 158.441406 297.808594 158.585938 298.425781 158.699219 C 299.042969 158.816406 299.664062 158.902344 300.289062 158.960938 C 300.914062 159.019531 301.542969 159.046875 302.167969 159.042969 L 307.917969 159.042969 C 308.484375 159.042969 309.042969 159.101562 309.601562 159.210938 C 310.15625 159.320312 310.695312 159.484375 311.21875 159.699219 C 311.738281 159.917969 312.238281 160.183594 312.707031 160.496094 C 313.179688 160.8125 313.613281 161.167969 314.015625 161.570312 C 314.414062 161.96875 314.773438 162.40625 315.085938 162.875 C 315.402344 163.347656 315.667969 163.84375 315.882812 164.367188 C 316.101562 164.890625 316.261719 165.429688 316.375 165.984375 C 316.484375 166.539062 316.539062 167.101562 316.539062 167.667969 C 316.539062 168.234375 316.484375 168.792969 316.375 169.347656 C 316.261719 169.902344 316.101562 170.441406 315.882812 170.964844 C 315.667969 171.488281 315.402344 171.984375 315.085938 172.457031 C 314.773438 172.925781 314.414062 173.363281 314.015625 173.761719 C 313.613281 174.164062 313.179688 174.519531 312.707031 174.835938 C 312.238281 175.148438 311.738281 175.414062 311.21875 175.632812 C 310.695312 175.847656 310.15625 176.011719 309.601562 176.121094 C 309.042969 176.234375 308.484375 176.289062 307.917969 176.289062 L 302.167969 176.289062 C 301.605469 176.289062 301.042969 176.230469 300.488281 176.121094 C 299.933594 176.011719 299.394531 175.847656 298.871094 175.628906 C 298.347656 175.414062 297.851562 175.148438 297.382812 174.832031 C 296.910156 174.519531 296.476562 174.160156 296.074219 173.761719 C 295.675781 173.359375 295.316406 172.925781 295.003906 172.453125 C 294.6875 171.984375 294.421875 171.488281 294.207031 170.964844 C 293.988281 170.441406 293.824219 169.902344 293.714844 169.347656 C 293.605469 168.792969 293.546875 168.234375 293.546875 167.667969 L 293.546875 164.792969 L 282.050781 164.792969 L 282.050781 167.667969 C 282.054688 168.863281 282.164062 170.050781 282.378906 171.226562 C 282.597656 172.402344 282.914062 173.550781 283.335938 174.671875 C 283.753906 175.792969 284.273438 176.867188 284.886719 177.894531 C 285.496094 178.921875 286.195312 179.886719 286.980469 180.789062 C 287.765625 181.695312 288.625 182.519531 289.558594 183.269531 C 290.492188 184.019531 291.484375 184.679688 292.535156 185.25 C 293.585938 185.824219 294.679688 186.296875 295.816406 186.675781 C 296.949219 187.050781 298.109375 187.324219 299.296875 187.496094 L 299.296875 199.28125 L 310.792969 199.28125 L 310.792969 187.496094 C 311.414062 187.40625 312.03125 187.289062 312.640625 187.140625 C 313.253906 186.996094 313.855469 186.820312 314.449219 186.617188 C 315.042969 186.414062 315.628906 186.183594 316.199219 185.925781 C 316.773438 185.667969 317.332031 185.382812 317.878906 185.074219 C 318.425781 184.765625 318.957031 184.429688 319.472656 184.066406 C 319.984375 183.707031 320.480469 183.324219 320.960938 182.917969 C 321.441406 182.511719 321.898438 182.082031 322.335938 181.632812 C 322.777344 181.183594 323.191406 180.714844 323.585938 180.222656 C 323.980469 179.734375 324.351562 179.230469 324.699219 178.707031 C 325.046875 178.179688 325.367188 177.640625 325.664062 177.089844 C 325.960938 176.535156 326.230469 175.96875 326.472656 175.386719 C 326.714844 174.808594 326.929688 174.21875 327.117188 173.621094 C 327.304688 173.019531 327.464844 172.414062 327.597656 171.800781 C 327.726562 171.183594 327.828125 170.566406 327.902344 169.941406 C 327.972656 169.316406 328.015625 168.691406 328.03125 168.0625 C 328.046875 167.433594 328.03125 166.808594 327.984375 166.179688 C 327.9375 165.554688 327.863281 164.929688 327.761719 164.3125 C 327.65625 163.691406 327.523438 163.078125 327.363281 162.472656 C 327.203125 161.863281 327.011719 161.265625 326.796875 160.675781 C 326.578125 160.085938 326.335938 159.507812 326.0625 158.941406 C 325.789062 158.375 325.492188 157.824219 325.167969 157.285156 C 324.847656 156.746094 324.5 156.222656 324.125 155.71875 C 323.753906 155.210938 323.359375 154.726562 322.9375 154.257812 C 322.519531 153.789062 322.082031 153.339844 321.621094 152.910156 C 321.160156 152.484375 320.679688 152.078125 320.183594 151.695312 C 319.683594 151.3125 319.167969 150.957031 318.636719 150.621094 C 318.105469 150.289062 317.558594 149.980469 316.996094 149.695312 C 316.4375 149.414062 315.863281 149.15625 315.277344 148.929688 C 314.695312 148.699219 314.097656 148.5 313.496094 148.324219 C 312.890625 148.152344 312.28125 148.007812 311.664062 147.890625 C 311.046875 147.777344 310.425781 147.691406 309.796875 147.632812 C 309.171875 147.574219 308.546875 147.546875 307.917969 147.546875 L 302.167969 147.546875 C 301.601562 147.546875 301.042969 147.492188 300.488281 147.382812 C 299.933594 147.273438 299.394531 147.109375 298.871094 146.890625 C 298.347656 146.675781 297.851562 146.410156 297.378906 146.09375 C 296.910156 145.78125 296.472656 145.421875 296.074219 145.023438 C 295.671875 144.621094 295.316406 144.1875 295 143.714844 C 294.6875 143.246094 294.421875 142.75 294.203125 142.226562 C 293.988281 141.703125 293.824219 141.164062 293.714844 140.609375 C 293.601562 140.054688 293.546875 139.492188 293.546875 138.925781 C 293.546875 138.359375 293.601562 137.800781 293.714844 137.246094 C 293.824219 136.6875 293.988281 136.148438 294.203125 135.625 C 294.421875 135.105469 294.6875 134.605469 295 134.136719 C 295.316406 133.664062 295.671875 133.230469 296.074219 132.828125 C 296.472656 132.429688 296.910156 132.070312 297.378906 131.757812 C 297.851562 131.441406 298.347656 131.175781 298.871094 130.960938 C 299.394531 130.742188 299.933594 130.582031 300.488281 130.46875 C 301.042969 130.359375 301.601562 130.304688 302.167969 130.304688 L 307.917969 130.304688 C 308.484375 130.304688 309.042969 130.359375 309.597656 130.472656 C 310.152344 130.582031 310.691406 130.746094 311.214844 130.964844 C 311.738281 131.179688 312.234375 131.445312 312.707031 131.761719 C 313.175781 132.074219 313.613281 132.433594 314.011719 132.832031 C 314.410156 133.234375 314.769531 133.667969 315.082031 134.136719 C 315.398438 134.609375 315.664062 135.105469 315.882812 135.628906 C 316.097656 136.152344 316.261719 136.691406 316.371094 137.246094 C 316.484375 137.800781 316.539062 138.359375 316.539062 138.925781 L 316.539062 141.800781 L 328.035156 141.800781 L 328.035156 138.925781 C 328.03125 137.730469 327.921875 136.542969 327.707031 135.367188 C 327.492188 134.1875 327.171875 133.039062 326.753906 131.921875 C 326.332031 130.800781 325.816406 129.726562 325.203125 128.699219 C 324.589844 127.671875 323.890625 126.707031 323.105469 125.800781 C 322.320312 124.898438 321.460938 124.074219 320.527344 123.324219 C 319.59375 122.574219 318.601562 121.914062 317.550781 121.339844 C 316.5 120.769531 315.40625 120.292969 314.273438 119.917969 C 313.136719 119.542969 311.976562 119.269531 310.792969 119.097656 Z M 310.792969 119.097656 " fill-opacity="1" fill-rule="nonzero"/><path fill="#00f3f7" d="M 98.113281 283.019531 L 98.113281 296.996094 C 97.359375 297 96.613281 297.074219 95.871094 297.21875 C 95.132812 297.367188 94.414062 297.585938 93.71875 297.875 C 93.019531 298.164062 92.359375 298.519531 91.730469 298.9375 C 91.101562 299.359375 90.523438 299.835938 89.988281 300.367188 C 89.457031 300.902344 88.980469 301.480469 88.558594 302.109375 C 88.140625 302.738281 87.785156 303.398438 87.496094 304.097656 C 87.207031 304.792969 86.988281 305.511719 86.839844 306.25 C 86.695312 306.992188 86.617188 307.738281 86.617188 308.492188 L 86.617188 354.476562 C 86.617188 355.230469 86.695312 355.980469 86.839844 356.71875 C 86.988281 357.460938 87.207031 358.179688 87.496094 358.875 C 87.785156 359.570312 88.140625 360.234375 88.558594 360.863281 C 88.980469 361.488281 89.457031 362.070312 89.988281 362.601562 C 90.523438 363.136719 91.101562 363.613281 91.730469 364.03125 C 92.359375 364.453125 93.019531 364.804688 93.71875 365.09375 C 94.414062 365.382812 95.132812 365.601562 95.871094 365.75 C 96.613281 365.898438 97.359375 365.972656 98.113281 365.972656 L 144.097656 365.972656 C 144.851562 365.972656 145.601562 365.898438 146.339844 365.75 C 147.082031 365.601562 147.800781 365.382812 148.496094 365.09375 C 149.191406 364.804688 149.855469 364.453125 150.480469 364.03125 C 151.109375 363.613281 151.691406 363.136719 152.222656 362.601562 C 152.757812 362.070312 153.234375 361.488281 153.652344 360.863281 C 154.074219 360.234375 154.425781 359.570312 154.714844 358.875 C 155.003906 358.179688 155.222656 357.460938 155.371094 356.71875 C 155.519531 355.980469 155.59375 355.230469 155.59375 354.476562 L 155.59375 308.492188 C 155.59375 307.738281 155.519531 306.992188 155.371094 306.25 C 155.222656 305.511719 155.003906 304.792969 154.714844 304.097656 C 154.425781 303.398438 154.074219 302.738281 153.652344 302.109375 C 153.234375 301.480469 152.757812 300.902344 152.222656 300.367188 C 151.691406 299.835938 151.109375 299.359375 150.480469 298.9375 C 149.855469 298.519531 149.191406 298.164062 148.496094 297.875 C 147.800781 297.585938 147.082031 297.367188 146.339844 297.21875 C 145.601562 297.074219 144.851562 297 144.097656 296.996094 L 144.097656 283.019531 C 146.269531 282.550781 148.425781 282.015625 150.566406 281.417969 C 152.707031 280.816406 154.828125 280.152344 156.925781 279.425781 C 159.027344 278.695312 161.101562 277.902344 163.152344 277.046875 C 165.203125 276.191406 167.226562 275.273438 169.222656 274.296875 C 171.21875 273.316406 173.179688 272.277344 175.113281 271.179688 C 177.042969 270.078125 178.941406 268.921875 180.800781 267.707031 C 182.664062 266.492188 184.484375 265.222656 186.269531 263.894531 C 188.050781 262.570312 189.792969 261.191406 191.492188 259.757812 C 193.191406 258.324219 194.847656 256.84375 196.457031 255.308594 C 198.0625 253.777344 199.625 252.195312 201.136719 250.566406 C 202.648438 248.9375 204.109375 247.265625 205.519531 245.546875 C 206.929688 243.828125 208.289062 242.070312 209.589844 240.269531 C 210.894531 238.46875 212.140625 236.628906 213.328125 234.753906 C 214.519531 232.875 215.652344 230.964844 216.726562 229.019531 C 217.800781 227.074219 218.8125 225.097656 219.765625 223.089844 C 220.71875 221.082031 221.609375 219.046875 222.441406 216.984375 C 223.269531 214.921875 224.035156 212.835938 224.734375 210.726562 C 225.4375 208.617188 226.074219 206.492188 226.644531 204.34375 C 227.214844 202.195312 227.722656 200.03125 228.160156 197.855469 C 228.601562 195.675781 228.972656 193.484375 229.28125 191.285156 C 229.585938 189.082031 229.824219 186.875 229.996094 184.65625 C 230.167969 182.441406 230.269531 180.222656 230.304688 178 C 230.339844 175.777344 230.308594 173.558594 230.207031 171.335938 C 230.109375 169.117188 229.941406 166.902344 229.707031 164.691406 C 229.46875 162.480469 229.167969 160.28125 228.796875 158.089844 C 228.429688 155.898438 227.992188 153.71875 227.488281 151.554688 C 226.988281 149.390625 226.417969 147.242188 225.785156 145.113281 C 225.152344 142.980469 224.453125 140.875 223.691406 138.785156 C 222.929688 136.699219 222.101562 134.636719 221.214844 132.597656 C 220.328125 130.5625 219.375 128.554688 218.367188 126.574219 C 217.355469 124.59375 216.285156 122.648438 215.15625 120.734375 C 214.023438 118.820312 212.835938 116.941406 211.59375 115.101562 C 210.347656 113.261719 209.050781 111.457031 207.695312 109.695312 C 206.339844 107.933594 204.933594 106.214844 203.472656 104.539062 C 202.015625 102.863281 200.507812 101.234375 198.945312 99.648438 C 197.386719 98.066406 195.78125 96.53125 194.128906 95.042969 C 192.476562 93.558594 190.78125 92.125 189.039062 90.742188 C 187.300781 89.359375 185.519531 88.03125 183.699219 86.757812 C 181.878906 85.484375 180.019531 84.265625 178.125 83.105469 C 176.226562 81.945312 174.296875 80.84375 172.335938 79.800781 C 170.371094 78.757812 168.378906 77.777344 166.359375 76.855469 C 164.335938 75.933594 162.285156 75.078125 160.210938 74.28125 C 158.136719 73.484375 156.039062 72.753906 153.917969 72.085938 C 151.796875 71.417969 149.660156 70.816406 147.503906 70.277344 C 145.347656 69.742188 143.175781 69.269531 140.992188 68.867188 C 138.804688 68.460938 136.609375 68.125 134.402344 67.851562 C 132.199219 67.582031 129.984375 67.378906 127.769531 67.242188 C 125.550781 67.109375 123.328125 67.039062 121.105469 67.039062 C 118.882812 67.039062 116.664062 67.109375 114.445312 67.242188 C 112.226562 67.378906 110.015625 67.582031 107.808594 67.851562 C 105.601562 68.125 103.40625 68.460938 101.222656 68.867188 C 99.035156 69.269531 96.867188 69.742188 94.710938 70.277344 C 92.550781 70.816406 90.414062 71.417969 88.292969 72.085938 C 86.175781 72.753906 84.078125 73.484375 82.003906 74.28125 C 79.925781 75.078125 77.878906 75.933594 75.855469 76.855469 C 73.832031 77.777344 71.839844 78.757812 69.878906 79.800781 C 67.914062 80.84375 65.984375 81.945312 64.089844 83.105469 C 62.195312 84.265625 60.335938 85.484375 58.515625 86.757812 C 56.691406 88.03125 54.914062 89.359375 53.171875 90.742188 C 51.433594 92.125 49.734375 93.558594 48.082031 95.042969 C 46.429688 96.53125 44.824219 98.066406 43.265625 99.648438 C 41.707031 101.234375 40.199219 102.863281 38.738281 104.539062 C 37.277344 106.214844 35.871094 107.933594 34.519531 109.695312 C 33.164062 111.457031 31.863281 113.261719 30.621094 115.101562 C 29.375 116.941406 28.1875 118.820312 27.058594 120.734375 C 25.929688 122.648438 24.859375 124.59375 23.847656 126.574219 C 22.835938 128.554688 21.886719 130.5625 20.996094 132.597656 C 20.109375 134.636719 19.285156 136.699219 18.523438 138.785156 C 17.757812 140.875 17.0625 142.980469 16.425781 145.113281 C 15.792969 147.242188 15.226562 149.390625 14.722656 151.554688 C 14.21875 153.71875 13.785156 155.898438 13.414062 158.089844 C 13.046875 160.28125 12.742188 162.480469 12.507812 164.691406 C 12.273438 166.902344 12.105469 169.117188 12.003906 171.335938 C 11.90625 173.558594 11.871094 175.777344 11.90625 178 C 11.941406 180.222656 12.046875 182.441406 12.21875 184.65625 C 12.390625 186.875 12.628906 189.082031 12.933594 191.285156 C 13.238281 193.484375 13.613281 195.675781 14.050781 197.855469 C 14.492188 200.03125 14.996094 202.195312 15.566406 204.34375 C 16.140625 206.492188 16.777344 208.617188 17.476562 210.726562 C 18.179688 212.835938 18.945312 214.921875 19.773438 216.984375 C 20.601562 219.046875 21.492188 221.082031 22.445312 223.089844 C 23.398438 225.097656 24.414062 227.074219 25.488281 229.019531 C 26.5625 230.964844 27.691406 232.875 28.882812 234.753906 C 30.074219 236.628906 31.320312 238.46875 32.621094 240.269531 C 33.925781 242.070312 35.28125 243.828125 36.691406 245.546875 C 38.101562 247.265625 39.5625 248.9375 41.074219 250.566406 C 42.589844 252.195312 44.148438 253.777344 45.757812 255.308594 C 47.367188 256.84375 49.019531 258.324219 50.71875 259.757812 C 52.417969 261.191406 54.160156 262.570312 55.945312 263.894531 C 57.726562 265.222656 59.550781 266.492188 61.410156 267.707031 C 63.273438 268.921875 65.167969 270.078125 67.101562 271.179688 C 69.03125 272.277344 70.996094 273.316406 72.992188 274.296875 C 74.984375 275.273438 77.007812 276.191406 79.058594 277.046875 C 81.109375 277.902344 83.1875 278.695312 85.285156 279.425781 C 87.386719 280.152344 89.503906 280.816406 91.644531 281.417969 C 93.785156 282.015625 95.941406 282.550781 98.113281 283.019531 Z M 144.105469 354.476562 L 98.113281 354.476562 L 98.113281 308.492188 L 144.097656 308.492188 Z M 132.601562 296.996094 L 109.609375 296.996094 L 109.609375 284.882812 C 117.273438 285.710938 124.9375 285.710938 132.601562 284.882812 Z M 121.105469 78.570312 C 122.707031 78.570312 124.304688 78.609375 125.902344 78.691406 C 127.5 78.769531 129.09375 78.886719 130.683594 79.042969 C 132.277344 79.199219 133.863281 79.394531 135.445312 79.628906 C 137.027344 79.863281 138.601562 80.136719 140.171875 80.449219 C 141.738281 80.761719 143.296875 81.113281 144.851562 81.5 C 146.402344 81.890625 147.941406 82.316406 149.472656 82.78125 C 151.003906 83.242188 152.519531 83.746094 154.027344 84.285156 C 155.53125 84.824219 157.023438 85.398438 158.5 86.011719 C 159.976562 86.621094 161.441406 87.269531 162.886719 87.953125 C 164.332031 88.636719 165.757812 89.355469 167.167969 90.109375 C 168.582031 90.863281 169.972656 91.652344 171.34375 92.472656 C 172.714844 93.296875 174.066406 94.152344 175.394531 95.039062 C 176.722656 95.929688 178.03125 96.847656 179.316406 97.800781 C 180.601562 98.753906 181.859375 99.738281 183.097656 100.753906 C 184.332031 101.765625 185.542969 102.8125 186.730469 103.886719 C 187.914062 104.960938 189.070312 106.0625 190.203125 107.191406 C 191.332031 108.324219 192.4375 109.480469 193.507812 110.667969 C 194.582031 111.851562 195.628906 113.0625 196.640625 114.296875 C 197.65625 115.535156 198.640625 116.792969 199.59375 118.078125 C 200.546875 119.363281 201.464844 120.671875 202.355469 122 C 203.242188 123.328125 204.097656 124.679688 204.921875 126.050781 C 205.742188 127.425781 206.53125 128.816406 207.285156 130.226562 C 208.039062 131.636719 208.757812 133.0625 209.441406 134.507812 C 210.125 135.953125 210.773438 137.417969 211.386719 138.894531 C 211.996094 140.371094 212.570312 141.863281 213.109375 143.367188 C 213.648438 144.875 214.152344 146.394531 214.617188 147.921875 C 215.078125 149.453125 215.507812 150.992188 215.894531 152.546875 C 216.285156 154.097656 216.632812 155.65625 216.945312 157.226562 C 217.257812 158.792969 217.53125 160.367188 217.765625 161.949219 C 218 163.53125 218.195312 165.121094 218.351562 166.710938 C 218.507812 168.300781 218.625 169.898438 218.707031 171.492188 C 218.785156 173.089844 218.824219 174.6875 218.824219 176.289062 C 218.824219 177.886719 218.785156 179.484375 218.707031 181.082031 C 218.625 182.679688 218.507812 184.273438 218.351562 185.867188 C 218.195312 187.457031 218 189.042969 217.765625 190.625 C 217.53125 192.207031 217.257812 193.785156 216.945312 195.351562 C 216.632812 196.921875 216.285156 198.480469 215.894531 200.03125 C 215.507812 201.582031 215.078125 203.125 214.617188 204.652344 C 214.152344 206.183594 213.648438 207.703125 213.109375 209.207031 C 212.570312 210.714844 211.996094 212.207031 211.386719 213.683594 C 210.773438 215.160156 210.125 216.621094 209.441406 218.066406 C 208.757812 219.511719 208.039062 220.941406 207.285156 222.351562 C 206.53125 223.761719 205.742188 225.152344 204.921875 226.523438 C 204.097656 227.898438 203.242188 229.246094 202.355469 230.578125 C 201.464844 231.90625 200.546875 233.214844 199.59375 234.5 C 198.640625 235.78125 197.65625 237.042969 196.640625 238.28125 C 195.628906 239.515625 194.582031 240.726562 193.507812 241.910156 C 192.4375 243.097656 191.332031 244.253906 190.203125 245.382812 C 189.070312 246.515625 187.914062 247.617188 186.730469 248.691406 C 185.542969 249.765625 184.332031 250.808594 183.097656 251.824219 C 181.859375 252.839844 180.601562 253.824219 179.316406 254.773438 C 178.03125 255.726562 176.722656 256.648438 175.394531 257.535156 C 174.066406 258.425781 172.714844 259.28125 171.34375 260.101562 C 169.972656 260.925781 168.582031 261.714844 167.167969 262.46875 C 165.757812 263.222656 164.332031 263.941406 162.886719 264.625 C 161.441406 265.308594 159.976562 265.953125 158.5 266.566406 C 157.023438 267.179688 155.53125 267.753906 154.027344 268.292969 C 152.519531 268.832031 151.003906 269.332031 149.472656 269.796875 C 147.941406 270.261719 146.402344 270.6875 144.851562 271.078125 C 143.296875 271.464844 141.738281 271.816406 140.171875 272.128906 C 138.601562 272.441406 137.027344 272.714844 135.445312 272.949219 C 133.863281 273.183594 132.277344 273.378906 130.683594 273.535156 C 129.09375 273.691406 127.5 273.808594 125.902344 273.886719 C 124.304688 273.964844 122.707031 274.003906 121.105469 274.003906 C 119.507812 274.003906 117.910156 273.964844 116.3125 273.886719 C 114.714844 273.808594 113.121094 273.691406 111.527344 273.535156 C 109.9375 273.378906 108.351562 273.183594 106.769531 272.949219 C 105.1875 272.714844 103.613281 272.441406 102.042969 272.128906 C 100.472656 271.816406 98.914062 271.464844 97.363281 271.078125 C 95.8125 270.6875 94.269531 270.261719 92.742188 269.796875 C 91.210938 269.332031 89.691406 268.832031 88.1875 268.292969 C 86.679688 267.753906 85.1875 267.179688 83.710938 266.566406 C 82.234375 265.953125 80.773438 265.308594 79.328125 264.625 C 77.882812 263.941406 76.453125 263.222656 75.042969 262.46875 C 73.632812 261.714844 72.242188 260.925781 70.871094 260.101562 C 69.5 259.28125 68.148438 258.425781 66.816406 257.535156 C 65.488281 256.648438 64.179688 255.726562 62.898438 254.773438 C 61.613281 253.824219 60.351562 252.839844 59.117188 251.824219 C 57.878906 250.808594 56.667969 249.765625 55.484375 248.691406 C 54.300781 247.617188 53.140625 246.515625 52.011719 245.382812 C 50.878906 244.253906 49.777344 243.097656 48.703125 241.910156 C 47.628906 240.726562 46.585938 239.515625 45.570312 238.28125 C 44.554688 237.042969 43.574219 235.78125 42.621094 234.5 C 41.667969 233.214844 40.746094 231.90625 39.859375 230.578125 C 38.96875 229.246094 38.113281 227.898438 37.292969 226.523438 C 36.46875 225.152344 35.683594 223.761719 34.929688 222.351562 C 34.175781 220.941406 33.457031 219.511719 32.773438 218.066406 C 32.089844 216.621094 31.441406 215.160156 30.828125 213.683594 C 30.214844 212.207031 29.640625 210.714844 29.101562 209.207031 C 28.5625 207.703125 28.0625 206.183594 27.597656 204.652344 C 27.132812 203.125 26.707031 201.582031 26.316406 200.03125 C 25.929688 198.480469 25.578125 196.921875 25.265625 195.351562 C 24.957031 193.785156 24.683594 192.207031 24.449219 190.625 C 24.210938 189.042969 24.015625 187.457031 23.859375 185.867188 C 23.703125 184.273438 23.585938 182.679688 23.507812 181.082031 C 23.429688 179.484375 23.390625 177.886719 23.390625 176.289062 C 23.390625 174.691406 23.433594 173.09375 23.511719 171.496094 C 23.59375 169.898438 23.710938 168.304688 23.871094 166.714844 C 24.027344 165.125 24.226562 163.539062 24.460938 161.957031 C 24.699219 160.375 24.972656 158.800781 25.285156 157.234375 C 25.597656 155.664062 25.949219 154.105469 26.339844 152.554688 C 26.730469 151.003906 27.15625 149.464844 27.621094 147.933594 C 28.085938 146.40625 28.589844 144.886719 29.128906 143.382812 C 29.667969 141.878906 30.246094 140.386719 30.855469 138.910156 C 31.46875 137.433594 32.117188 135.972656 32.800781 134.527344 C 33.488281 133.082031 34.207031 131.65625 34.960938 130.246094 C 35.714844 128.835938 36.503906 127.445312 37.324219 126.074219 C 38.148438 124.703125 39.003906 123.355469 39.890625 122.027344 C 40.78125 120.695312 41.699219 119.390625 42.652344 118.105469 C 43.605469 116.824219 44.589844 115.5625 45.605469 114.328125 C 46.617188 113.089844 47.664062 111.882812 48.734375 110.695312 C 49.808594 109.511719 50.910156 108.355469 52.042969 107.222656 C 53.171875 106.09375 54.332031 104.992188 55.515625 103.917969 C 56.699219 102.84375 57.910156 101.800781 59.144531 100.785156 C 60.378906 99.773438 61.640625 98.789062 62.925781 97.835938 C 64.207031 96.882812 65.515625 95.960938 66.84375 95.074219 C 68.171875 94.183594 69.523438 93.328125 70.894531 92.507812 C 72.265625 91.683594 73.65625 90.898438 75.066406 90.140625 C 76.472656 89.386719 77.902344 88.667969 79.347656 87.984375 C 80.792969 87.300781 82.253906 86.652344 83.730469 86.039062 C 85.207031 85.425781 86.695312 84.851562 88.203125 84.3125 C 89.707031 83.773438 91.222656 83.269531 92.753906 82.804688 C 94.28125 82.339844 95.824219 81.910156 97.375 81.523438 C 98.921875 81.132812 100.484375 80.78125 102.050781 80.46875 C 103.617188 80.15625 105.191406 79.878906 106.773438 79.644531 C 108.355469 79.40625 109.941406 79.210938 111.53125 79.050781 C 113.121094 78.894531 114.714844 78.773438 116.3125 78.695312 C 117.910156 78.613281 119.507812 78.574219 121.105469 78.570312 Z M 121.105469 78.570312 " fill-opacity="1" fill-rule="nonzero"/><path fill="#00f3f7" d="M 121.105469 262.507812 C 122.515625 262.507812 123.929688 262.472656 125.335938 262.40625 C 126.746094 262.335938 128.152344 262.230469 129.558594 262.09375 C 130.960938 261.957031 132.363281 261.78125 133.757812 261.574219 C 135.152344 261.367188 136.542969 261.128906 137.925781 260.851562 C 139.3125 260.578125 140.6875 260.269531 142.054688 259.925781 C 143.425781 259.582031 144.785156 259.207031 146.136719 258.796875 C 147.484375 258.386719 148.824219 257.945312 150.152344 257.46875 C 151.480469 256.992188 152.796875 256.484375 154.101562 255.945312 C 155.40625 255.40625 156.695312 254.835938 157.96875 254.230469 C 159.246094 253.628906 160.507812 252.992188 161.75 252.328125 C 162.996094 251.664062 164.222656 250.96875 165.433594 250.242188 C 166.644531 249.515625 167.835938 248.761719 169.007812 247.976562 C 170.179688 247.195312 171.335938 246.382812 172.46875 245.542969 C 173.601562 244.699219 174.714844 243.832031 175.804688 242.9375 C 176.894531 242.042969 177.964844 241.121094 179.007812 240.175781 C 180.054688 239.226562 181.074219 238.253906 182.074219 237.253906 C 183.070312 236.257812 184.042969 235.238281 184.992188 234.191406 C 185.9375 233.144531 186.859375 232.078125 187.753906 230.988281 C 188.652344 229.894531 189.519531 228.785156 190.359375 227.648438 C 191.199219 226.515625 192.011719 225.363281 192.796875 224.191406 C 193.582031 223.015625 194.335938 221.824219 195.058594 220.613281 C 195.785156 219.40625 196.480469 218.175781 197.144531 216.933594 C 197.8125 215.6875 198.445312 214.429688 199.050781 213.152344 C 199.652344 211.878906 200.222656 210.585938 200.765625 209.285156 C 201.304688 207.980469 201.8125 206.664062 202.285156 205.335938 C 202.761719 204.007812 203.203125 202.667969 203.613281 201.316406 C 204.023438 199.96875 204.398438 198.605469 204.742188 197.238281 C 205.085938 195.871094 205.394531 194.492188 205.671875 193.109375 C 205.945312 191.726562 206.1875 190.335938 206.394531 188.941406 C 206.601562 187.542969 206.773438 186.144531 206.910156 184.738281 C 207.050781 183.335938 207.152344 181.929688 207.222656 180.519531 C 207.292969 179.109375 207.328125 177.699219 207.328125 176.289062 C 207.328125 174.878906 207.292969 173.46875 207.222656 172.058594 C 207.152344 170.648438 207.050781 169.242188 206.910156 167.835938 C 206.773438 166.433594 206.601562 165.035156 206.394531 163.636719 C 206.1875 162.242188 205.945312 160.851562 205.671875 159.46875 C 205.394531 158.082031 205.085938 156.707031 204.742188 155.339844 C 204.398438 153.96875 204.023438 152.609375 203.613281 151.261719 C 203.203125 149.910156 202.761719 148.570312 202.285156 147.242188 C 201.8125 145.914062 201.304688 144.597656 200.765625 143.292969 C 200.222656 141.988281 199.652344 140.699219 199.050781 139.425781 C 198.445312 138.148438 197.8125 136.890625 197.144531 135.644531 C 196.480469 134.398438 195.785156 133.171875 195.058594 131.960938 C 194.335938 130.753906 193.582031 129.558594 192.796875 128.386719 C 192.011719 127.214844 191.199219 126.058594 190.359375 124.925781 C 189.519531 123.792969 188.652344 122.683594 187.753906 121.589844 C 186.859375 120.5 185.9375 119.433594 184.992188 118.386719 C 184.042969 117.339844 183.070312 116.320312 182.074219 115.320312 C 181.074219 114.324219 180.054688 113.351562 179.007812 112.402344 C 177.964844 111.457031 176.894531 110.535156 175.804688 109.640625 C 174.714844 108.742188 173.601562 107.875 172.46875 107.035156 C 171.335938 106.195312 170.179688 105.382812 169.007812 104.597656 C 167.835938 103.816406 166.644531 103.058594 165.433594 102.335938 C 164.222656 101.609375 162.996094 100.914062 161.75 100.25 C 160.507812 99.582031 159.246094 98.949219 157.96875 98.347656 C 156.695312 97.742188 155.40625 97.171875 154.101562 96.632812 C 152.796875 96.089844 151.480469 95.582031 150.152344 95.109375 C 148.824219 94.632812 147.484375 94.191406 146.136719 93.78125 C 144.785156 93.371094 143.425781 92.996094 142.054688 92.652344 C 140.6875 92.308594 139.3125 92 137.925781 91.726562 C 136.542969 91.449219 135.152344 91.207031 133.757812 91 C 132.363281 90.792969 130.960938 90.621094 129.558594 90.484375 C 128.152344 90.34375 126.746094 90.242188 125.335938 90.171875 C 123.929688 90.101562 122.515625 90.066406 121.105469 90.066406 C 119.695312 90.066406 118.285156 90.101562 116.875 90.171875 C 115.464844 90.242188 114.058594 90.34375 112.65625 90.484375 C 111.25 90.621094 109.851562 90.792969 108.457031 91 C 107.058594 91.207031 105.667969 91.449219 104.285156 91.726562 C 102.902344 92 101.523438 92.308594 100.15625 92.652344 C 98.789062 92.996094 97.429688 93.371094 96.078125 93.78125 C 94.726562 94.191406 93.386719 94.632812 92.058594 95.109375 C 90.730469 95.582031 89.414062 96.089844 88.109375 96.632812 C 86.808594 97.171875 85.519531 97.742188 84.242188 98.347656 C 82.96875 98.949219 81.707031 99.582031 80.460938 100.25 C 79.21875 100.914062 77.992188 101.609375 76.78125 102.335938 C 75.570312 103.058594 74.378906 103.816406 73.203125 104.597656 C 72.03125 105.382812 70.878906 106.195312 69.746094 107.035156 C 68.613281 107.875 67.5 108.742188 66.410156 109.640625 C 65.316406 110.535156 64.25 111.457031 63.203125 112.402344 C 62.160156 113.351562 61.136719 114.324219 60.140625 115.320312 C 59.140625 116.320312 58.167969 117.339844 57.222656 118.386719 C 56.273438 119.433594 55.351562 120.5 54.457031 121.589844 C 53.5625 122.683594 52.695312 123.792969 51.851562 124.925781 C 51.011719 126.058594 50.199219 127.214844 49.417969 128.386719 C 48.632812 129.558594 47.878906 130.753906 47.152344 131.960938 C 46.425781 133.171875 45.730469 134.398438 45.066406 135.644531 C 44.402344 136.890625 43.765625 138.148438 43.164062 139.425781 C 42.5625 140.699219 41.988281 141.988281 41.449219 143.292969 C 40.910156 144.597656 40.402344 145.914062 39.925781 147.242188 C 39.449219 148.570312 39.007812 149.910156 38.597656 151.261719 C 38.1875 152.609375 37.8125 153.96875 37.46875 155.339844 C 37.128906 156.707031 36.816406 158.082031 36.542969 159.46875 C 36.265625 160.851562 36.027344 162.242188 35.820312 163.636719 C 35.613281 165.035156 35.4375 166.433594 35.300781 167.835938 C 35.164062 169.242188 35.058594 170.648438 34.988281 172.058594 C 34.921875 173.46875 34.886719 174.878906 34.886719 176.289062 C 34.886719 177.699219 34.921875 179.109375 34.996094 180.519531 C 35.066406 181.925781 35.171875 183.332031 35.308594 184.738281 C 35.449219 186.140625 35.625 187.539062 35.832031 188.933594 C 36.039062 190.332031 36.28125 191.71875 36.558594 193.101562 C 36.835938 194.484375 37.144531 195.863281 37.488281 197.230469 C 37.832031 198.597656 38.210938 199.957031 38.621094 201.304688 C 39.03125 202.65625 39.472656 203.996094 39.949219 205.324219 C 40.425781 206.652344 40.933594 207.964844 41.476562 209.269531 C 42.015625 210.570312 42.585938 211.859375 43.191406 213.136719 C 43.792969 214.410156 44.429688 215.671875 45.09375 216.914062 C 45.761719 218.15625 46.457031 219.382812 47.183594 220.59375 C 47.90625 221.804688 48.664062 222.996094 49.445312 224.167969 C 50.230469 225.339844 51.042969 226.492188 51.882812 227.625 C 52.722656 228.757812 53.589844 229.871094 54.488281 230.960938 C 55.382812 232.050781 56.300781 233.117188 57.25 234.164062 C 58.199219 235.207031 59.171875 236.230469 60.167969 237.226562 C 61.164062 238.226562 62.1875 239.199219 63.230469 240.144531 C 64.277344 241.09375 65.34375 242.011719 66.433594 242.910156 C 67.523438 243.804688 68.636719 244.671875 69.769531 245.511719 C 70.902344 246.351562 72.054688 247.164062 73.226562 247.949219 C 74.398438 248.734375 75.589844 249.488281 76.800781 250.214844 C 78.011719 250.9375 79.238281 251.632812 80.480469 252.300781 C 81.726562 252.964844 82.984375 253.601562 84.257812 254.203125 C 85.535156 254.808594 86.824219 255.378906 88.125 255.921875 C 89.429688 256.460938 90.746094 256.96875 92.074219 257.445312 C 93.398438 257.921875 94.738281 258.363281 96.089844 258.773438 C 97.4375 259.183594 98.796875 259.5625 100.164062 259.90625 C 101.535156 260.25 102.910156 260.558594 104.292969 260.835938 C 105.675781 261.113281 107.066406 261.355469 108.460938 261.5625 C 109.855469 261.773438 111.253906 261.945312 112.660156 262.085938 C 114.0625 262.226562 115.46875 262.332031 116.878906 262.402344 C 118.285156 262.472656 119.695312 262.507812 121.105469 262.507812 Z M 121.105469 101.5625 C 122.328125 101.5625 123.550781 101.59375 124.773438 101.652344 C 125.996094 101.714844 127.214844 101.804688 128.429688 101.925781 C 129.648438 102.042969 130.859375 102.195312 132.070312 102.371094 C 133.28125 102.550781 134.484375 102.761719 135.683594 103 C 136.882812 103.238281 138.078125 103.507812 139.261719 103.804688 C 140.449219 104.101562 141.628906 104.425781 142.796875 104.78125 C 143.96875 105.136719 145.128906 105.519531 146.28125 105.933594 C 147.433594 106.34375 148.574219 106.785156 149.703125 107.253906 C 150.832031 107.71875 151.949219 108.214844 153.054688 108.738281 C 154.160156 109.261719 155.253906 109.8125 156.332031 110.386719 C 157.410156 110.964844 158.472656 111.566406 159.523438 112.195312 C 160.570312 112.824219 161.605469 113.476562 162.621094 114.15625 C 163.636719 114.835938 164.636719 115.539062 165.621094 116.269531 C 166.601562 116.996094 167.566406 117.75 168.511719 118.527344 C 169.457031 119.300781 170.382812 120.101562 171.289062 120.921875 C 172.195312 121.742188 173.078125 122.585938 173.945312 123.449219 C 174.808594 124.316406 175.652344 125.199219 176.472656 126.105469 C 177.292969 127.011719 178.09375 127.9375 178.871094 128.882812 C 179.644531 129.828125 180.398438 130.792969 181.125 131.773438 C 181.855469 132.757812 182.558594 133.757812 183.238281 134.773438 C 183.917969 135.789062 184.570312 136.824219 185.199219 137.871094 C 185.828125 138.921875 186.429688 139.984375 187.007812 141.0625 C 187.585938 142.140625 188.132812 143.234375 188.65625 144.339844 C 189.179688 145.445312 189.675781 146.5625 190.144531 147.691406 C 190.609375 148.824219 191.050781 149.964844 191.460938 151.113281 C 191.875 152.265625 192.257812 153.425781 192.613281 154.597656 C 192.96875 155.765625 193.292969 156.945312 193.589844 158.132812 C 193.890625 159.316406 194.15625 160.511719 194.394531 161.710938 C 194.632812 162.910156 194.84375 164.113281 195.023438 165.324219 C 195.203125 166.535156 195.351562 167.746094 195.472656 168.964844 C 195.589844 170.179688 195.679688 171.402344 195.742188 172.621094 C 195.800781 173.84375 195.832031 175.066406 195.832031 176.289062 C 195.832031 177.511719 195.800781 178.734375 195.742188 179.957031 C 195.679688 181.175781 195.589844 182.394531 195.472656 183.613281 C 195.351562 184.828125 195.203125 186.042969 195.023438 187.253906 C 194.84375 188.460938 194.632812 189.667969 194.394531 190.867188 C 194.15625 192.066406 193.890625 193.257812 193.589844 194.445312 C 193.292969 195.632812 192.96875 196.808594 192.613281 197.980469 C 192.257812 199.148438 191.875 200.3125 191.460938 201.460938 C 191.050781 202.613281 190.609375 203.753906 190.144531 204.882812 C 189.675781 206.015625 189.179688 207.132812 188.65625 208.238281 C 188.132812 209.34375 187.585938 210.433594 187.007812 211.511719 C 186.429688 212.59375 185.828125 213.65625 185.199219 214.703125 C 184.570312 215.753906 183.917969 216.785156 183.238281 217.804688 C 182.558594 218.820312 181.855469 219.820312 181.125 220.800781 C 180.398438 221.785156 179.644531 222.746094 178.871094 223.691406 C 178.09375 224.636719 177.296875 225.5625 176.472656 226.46875 C 175.652344 227.375 174.808594 228.261719 173.945312 229.125 C 173.078125 229.992188 172.195312 230.835938 171.289062 231.65625 C 170.382812 232.476562 169.457031 233.277344 168.511719 234.050781 C 167.566406 234.828125 166.601562 235.578125 165.621094 236.308594 C 164.636719 237.035156 163.636719 237.742188 162.621094 238.417969 C 161.605469 239.097656 160.570312 239.753906 159.523438 240.382812 C 158.472656 241.011719 157.410156 241.613281 156.332031 242.191406 C 155.253906 242.765625 154.160156 243.316406 153.054688 243.839844 C 151.949219 244.363281 150.832031 244.855469 149.703125 245.324219 C 148.574219 245.792969 147.433594 246.234375 146.28125 246.644531 C 145.128906 247.058594 143.96875 247.441406 142.796875 247.796875 C 141.628906 248.152344 140.449219 248.476562 139.261719 248.773438 C 138.078125 249.070312 136.882812 249.339844 135.683594 249.578125 C 134.484375 249.816406 133.28125 250.023438 132.070312 250.203125 C 130.859375 250.382812 129.648438 250.535156 128.429688 250.652344 C 127.214844 250.773438 125.996094 250.863281 124.773438 250.921875 C 123.550781 250.984375 122.328125 251.011719 121.105469 251.011719 C 119.882812 251.011719 118.660156 250.984375 117.441406 250.921875 C 116.21875 250.863281 115 250.773438 113.78125 250.652344 C 112.566406 250.535156 111.351562 250.382812 110.140625 250.203125 C 108.933594 250.023438 107.726562 249.816406 106.527344 249.578125 C 105.328125 249.339844 104.136719 249.070312 102.949219 248.773438 C 101.761719 248.476562 100.585938 248.152344 99.414062 247.796875 C 98.246094 247.441406 97.082031 247.058594 95.933594 246.644531 C 94.78125 246.234375 93.640625 245.792969 92.511719 245.324219 C 91.378906 244.855469 90.261719 244.363281 89.15625 243.839844 C 88.050781 243.316406 86.960938 242.765625 85.882812 242.191406 C 84.804688 241.613281 83.738281 241.011719 82.691406 240.382812 C 81.640625 239.753906 80.609375 239.097656 79.589844 238.417969 C 78.574219 237.742188 77.574219 237.035156 76.59375 236.308594 C 75.609375 235.578125 74.648438 234.828125 73.703125 234.050781 C 72.757812 233.277344 71.832031 232.476562 70.925781 231.65625 C 70.019531 230.835938 69.132812 229.992188 68.269531 229.125 C 67.402344 228.261719 66.558594 227.375 65.738281 226.46875 C 64.917969 225.5625 64.121094 224.636719 63.34375 223.691406 C 62.566406 222.746094 61.816406 221.785156 61.085938 220.800781 C 60.359375 219.820312 59.65625 218.820312 58.976562 217.804688 C 58.296875 216.785156 57.640625 215.753906 57.011719 214.703125 C 56.382812 213.65625 55.78125 212.59375 55.207031 211.511719 C 54.628906 210.433594 54.078125 209.34375 53.554688 208.238281 C 53.035156 207.132812 52.539062 206.015625 52.070312 204.882812 C 51.601562 203.753906 51.160156 202.613281 50.75 201.460938 C 50.339844 200.3125 49.953125 199.148438 49.597656 197.980469 C 49.246094 196.808594 48.917969 195.632812 48.621094 194.445312 C 48.324219 193.257812 48.054688 192.066406 47.816406 190.867188 C 47.578125 189.667969 47.371094 188.460938 47.191406 187.253906 C 47.011719 186.042969 46.863281 184.828125 46.742188 183.613281 C 46.621094 182.394531 46.53125 181.175781 46.472656 179.957031 C 46.410156 178.734375 46.382812 177.511719 46.382812 176.289062 C 46.382812 175.066406 46.414062 173.84375 46.476562 172.625 C 46.539062 171.402344 46.628906 170.183594 46.75 168.96875 C 46.871094 167.75 47.019531 166.539062 47.203125 165.328125 C 47.382812 164.121094 47.59375 162.914062 47.832031 161.714844 C 48.070312 160.519531 48.339844 159.324219 48.636719 158.140625 C 48.9375 156.953125 49.261719 155.777344 49.617188 154.605469 C 49.972656 153.4375 50.359375 152.277344 50.769531 151.125 C 51.183594 149.976562 51.625 148.835938 52.09375 147.707031 C 52.5625 146.578125 53.058594 145.460938 53.582031 144.355469 C 54.105469 143.25 54.652344 142.160156 55.230469 141.082031 C 55.808594 140.003906 56.410156 138.9375 57.039062 137.890625 C 57.667969 136.84375 58.320312 135.808594 59 134.792969 C 59.679688 133.777344 60.386719 132.777344 61.113281 131.796875 C 61.839844 130.816406 62.59375 129.851562 63.371094 128.90625 C 64.144531 127.960938 64.945312 127.035156 65.765625 126.128906 C 66.585938 125.226562 67.429688 124.339844 68.292969 123.476562 C 69.15625 122.609375 70.042969 121.769531 70.949219 120.945312 C 71.855469 120.125 72.78125 119.328125 73.722656 118.550781 C 74.667969 117.777344 75.632812 117.023438 76.613281 116.296875 C 77.597656 115.566406 78.59375 114.863281 79.613281 114.183594 C 80.628906 113.503906 81.660156 112.851562 82.707031 112.222656 C 83.757812 111.59375 84.820312 110.988281 85.898438 110.414062 C 86.976562 109.835938 88.066406 109.285156 89.171875 108.761719 C 90.277344 108.238281 91.394531 107.742188 92.523438 107.273438 C 93.652344 106.804688 94.792969 106.367188 95.945312 105.953125 C 97.09375 105.539062 98.253906 105.15625 99.425781 104.800781 C 100.59375 104.445312 101.773438 104.117188 102.957031 103.820312 C 104.144531 103.523438 105.335938 103.253906 106.535156 103.015625 C 107.734375 102.773438 108.9375 102.5625 110.144531 102.382812 C 111.355469 102.203125 112.566406 102.050781 113.785156 101.929688 C 115 101.8125 116.21875 101.71875 117.441406 101.65625 C 118.664062 101.597656 119.882812 101.566406 121.105469 101.5625 Z M 121.105469 101.5625 " fill-opacity="1" fill-rule="nonzero"/><path fill="#00f3f7" d="M 105.011719 196.980469 C 105.546875 197.691406 106.207031 198.25 107 198.652344 C 107.792969 199.058594 108.632812 199.265625 109.519531 199.28125 C 110.40625 199.277344 111.25 199.089844 112.050781 198.710938 C 112.851562 198.335938 113.53125 197.804688 114.097656 197.125 L 132.457031 174.179688 L 145.25 191.230469 C 145.777344 191.9375 146.429688 192.488281 147.210938 192.894531 C 147.992188 193.296875 148.820312 193.511719 149.699219 193.53125 C 150.578125 193.546875 151.414062 193.375 152.214844 193.015625 C 153.011719 192.652344 153.695312 192.136719 154.261719 191.46875 L 183 156.980469 L 174.171875 149.613281 L 150.085938 178.523438 L 137.199219 161.347656 C 136.667969 160.632812 136.003906 160.074219 135.214844 159.671875 C 134.421875 159.265625 133.582031 159.058594 132.691406 159.042969 C 131.804688 159.042969 130.960938 159.230469 130.160156 159.609375 C 129.359375 159.984375 128.675781 160.515625 128.113281 161.199219 L 109.757812 184.148438 L 96.964844 167.09375 C 96.4375 166.390625 95.785156 165.835938 95.003906 165.433594 C 94.222656 165.027344 93.390625 164.816406 92.511719 164.792969 C 91.636719 164.789062 90.800781 164.964844 90.007812 165.328125 C 89.210938 165.6875 88.523438 166.199219 87.953125 166.859375 L 59.210938 201.347656 L 68.039062 208.710938 L 92.128906 179.800781 Z M 105.011719 196.980469 " fill-opacity="1" fill-rule="nonzero"/></svg>