<svg xmlns="http://www.w3.org/2000/svg" xmlns:xlink="http://www.w3.org/1999/xlink" width="500" zoomAndPan="magnify" viewBox="0 0 375 374.999991" height="500" preserveAspectRatio="xMidYMid meet" version="1.0"><defs><clipPath id="529acbf21d"><path d="M 5.355469 0 L 369.855469 0 L 369.855469 364.5 L 5.355469 364.5 Z M 5.355469 0 " clip-rule="nonzero"/></clipPath></defs><path fill="#00f3f7" d="M 187.496094 289.699219 C 159.941406 289.699219 133.980469 278.96875 114.507812 259.433594 C 95.035156 239.960938 84.238281 213.996094 84.238281 186.445312 C 84.238281 158.890625 94.96875 132.929688 114.507812 113.457031 C 133.980469 93.984375 159.941406 83.1875 187.496094 83.1875 C 189.351562 83.1875 190.875 84.710938 190.875 86.566406 C 190.875 88.421875 189.351562 89.945312 187.496094 89.945312 C 134.3125 89.945312 90.996094 133.257812 90.996094 186.445312 C 90.996094 239.628906 134.3125 282.945312 187.496094 282.945312 C 240.679688 282.945312 283.996094 239.628906 283.996094 186.445312 C 283.996094 148.492188 261.609375 113.917969 226.96875 98.355469 C 225.25 97.625 224.519531 95.574219 225.25 93.917969 C 225.976562 92.195312 228.03125 91.464844 229.6875 92.195312 C 266.710938 108.820312 290.6875 145.84375 290.6875 186.445312 C 290.6875 213.996094 279.957031 239.960938 260.417969 259.433594 C 241.011719 278.96875 215.046875 289.699219 187.496094 289.699219 Z M 187.496094 289.699219 " fill-opacity="1" fill-rule="nonzero"/><path fill="#00f3f7" d="M 177.363281 98.621094 C 176.433594 98.621094 175.441406 98.222656 174.777344 97.425781 C 173.585938 96.035156 173.71875 93.917969 175.175781 92.660156 L 182.328125 86.566406 L 175.175781 80.472656 C 173.785156 79.28125 173.585938 77.160156 174.777344 75.703125 C 175.972656 74.3125 178.089844 74.113281 179.546875 75.304688 L 189.679688 83.917969 C 190.410156 84.578125 190.875 85.503906 190.875 86.5 C 190.875 87.492188 190.410156 88.421875 189.679688 89.082031 L 179.546875 97.691406 C 178.886719 98.355469 178.089844 98.621094 177.363281 98.621094 Z M 177.363281 98.621094 " fill-opacity="1" fill-rule="nonzero"/><path fill="#00f3f7" d="M 204.980469 269.832031 C 201.140625 269.832031 197.496094 268.308594 194.78125 265.589844 L 163.453125 234.261719 C 162.128906 232.9375 162.128906 230.820312 163.453125 229.496094 C 164.777344 228.171875 166.898438 228.171875 168.222656 229.496094 L 199.550781 260.824219 C 202.53125 263.804688 207.433594 263.804688 210.414062 260.824219 C 213.394531 257.84375 213.394531 252.941406 210.414062 249.960938 L 179.085938 218.632812 C 177.757812 217.308594 177.757812 215.1875 179.085938 213.863281 C 180.410156 212.539062 182.527344 212.539062 183.851562 213.863281 L 215.179688 245.191406 C 220.8125 250.820312 220.8125 259.960938 215.179688 265.589844 C 212.464844 268.308594 208.824219 269.832031 204.980469 269.832031 Z M 204.980469 269.832031 " fill-opacity="1" fill-rule="nonzero"/><path fill="#00f3f7" d="M 160.007812 239.097656 C 157.757812 239.097656 155.703125 238.238281 154.113281 236.648438 L 125.898438 208.433594 C 124.308594 206.84375 123.449219 204.789062 123.449219 202.539062 C 123.449219 200.285156 124.308594 198.234375 125.898438 196.644531 L 152.457031 170.085938 C 165.308594 157.234375 173.058594 140.214844 174.25 122.066406 C 174.316406 120.742188 175.175781 119.617188 176.433594 119.152344 C 177.695312 118.6875 179.085938 119.019531 180.011719 119.945312 L 242.601562 182.535156 C 243.527344 183.464844 243.859375 184.855469 243.394531 186.113281 C 242.933594 187.371094 241.804688 188.230469 240.480469 188.296875 C 222.332031 189.492188 205.3125 197.238281 192.464844 210.089844 L 165.902344 236.648438 C 164.316406 238.238281 162.195312 239.097656 160.007812 239.097656 Z M 180.144531 129.683594 C 177.496094 146.769531 169.480469 162.601562 157.226562 174.851562 L 130.667969 201.414062 C 130.269531 201.808594 130.203125 202.273438 130.203125 202.539062 C 130.203125 202.804688 130.269531 203.265625 130.667969 203.664062 L 158.816406 231.8125 C 159.214844 232.210938 159.679688 232.277344 159.941406 232.277344 C 160.207031 232.277344 160.671875 232.210938 161.070312 231.8125 L 187.628906 205.253906 C 199.949219 192.933594 215.777344 184.988281 232.796875 182.335938 Z M 180.144531 129.683594 " fill-opacity="1" fill-rule="nonzero"/><path fill="#00f3f7" d="M 244.125 189.953125 C 241.871094 189.953125 239.554688 189.09375 237.832031 187.371094 L 175.242188 124.78125 C 173.585938 123.125 172.660156 120.875 172.660156 118.488281 C 172.660156 116.105469 173.585938 113.851562 175.242188 112.199219 C 176.898438 110.542969 179.152344 109.613281 181.535156 109.613281 C 183.917969 109.613281 186.171875 110.542969 187.828125 112.199219 L 250.417969 174.785156 C 252.070312 176.441406 253 178.695312 253 181.078125 C 253 183.464844 252.070312 185.714844 250.417969 187.371094 C 248.695312 189.09375 246.375 189.953125 244.125 189.953125 Z M 181.535156 116.238281 C 180.9375 116.238281 180.410156 116.4375 180.011719 116.898438 C 179.613281 117.296875 179.347656 117.828125 179.347656 118.421875 C 179.347656 119.019531 179.546875 119.550781 180.011719 119.945312 L 242.601562 182.535156 C 243.460938 183.398438 244.851562 183.398438 245.648438 182.535156 C 246.046875 182.136719 246.308594 181.609375 246.308594 181.011719 C 246.308594 180.417969 246.113281 179.886719 245.648438 179.488281 L 183.058594 116.898438 C 182.59375 116.503906 182.066406 116.238281 181.535156 116.238281 Z M 181.535156 116.238281 " fill-opacity="1" fill-rule="nonzero"/><path fill="#00f3f7" d="M 224.585938 157.035156 C 223.726562 157.035156 222.863281 156.707031 222.203125 156.042969 C 220.875 154.71875 220.875 152.597656 222.203125 151.273438 L 226.242188 147.234375 C 227.632812 145.84375 228.425781 143.921875 228.425781 141.9375 C 228.425781 139.949219 227.632812 138.027344 226.242188 136.636719 L 225.910156 136.304688 C 224.519531 134.914062 222.597656 134.121094 220.613281 134.121094 C 218.625 134.121094 216.703125 134.914062 215.3125 136.304688 L 211.273438 140.347656 C 209.949219 141.671875 207.828125 141.671875 206.503906 140.347656 C 205.179688 139.019531 205.179688 136.902344 206.503906 135.578125 L 210.542969 131.539062 C 213.261719 128.820312 216.769531 127.363281 220.613281 127.363281 C 224.453125 127.363281 227.964844 128.820312 230.679688 131.539062 L 231.011719 131.867188 C 233.726562 134.582031 235.183594 138.09375 235.183594 141.9375 C 235.183594 145.710938 233.726562 149.289062 231.011719 152.003906 L 226.96875 156.042969 C 226.308594 156.707031 225.445312 157.035156 224.585938 157.035156 Z M 224.585938 157.035156 " fill-opacity="1" fill-rule="nonzero"/><path fill="#00f3f7" d="M 148.21875 240.554688 C 144.578125 240.554688 140.933594 239.164062 138.152344 236.382812 L 126.097656 224.328125 C 123.382812 221.613281 121.925781 218.101562 121.925781 214.261719 C 121.925781 210.484375 123.382812 206.910156 126.097656 204.195312 L 126.230469 204.0625 C 127.554688 202.738281 129.675781 202.738281 131 204.0625 C 132.324219 205.386719 132.324219 207.503906 131 208.832031 L 130.867188 208.960938 C 129.476562 210.355469 128.679688 212.273438 128.679688 214.261719 C 128.679688 216.25 129.476562 218.167969 130.867188 219.558594 L 142.921875 231.613281 C 145.835938 234.527344 150.605469 234.527344 153.519531 231.613281 L 153.652344 231.480469 C 154.976562 230.15625 157.09375 230.15625 158.417969 231.480469 C 159.746094 232.804688 159.746094 234.925781 158.417969 236.25 L 158.289062 236.382812 C 155.503906 239.164062 151.863281 240.554688 148.21875 240.554688 Z M 148.21875 240.554688 " fill-opacity="1" fill-rule="nonzero"/><path fill="#00f3f7" d="M 197.164062 235.257812 C 196.503906 235.257812 195.839844 235.058594 195.246094 234.660156 C 193.722656 233.601562 193.324219 231.480469 194.382812 229.957031 L 199.816406 222.144531 C 190.675781 221.480469 181.335938 219.625 180.804688 219.558594 C 178.953125 219.230469 177.824219 217.441406 178.15625 215.585938 C 178.488281 213.730469 180.277344 212.605469 182.132812 212.9375 C 182.261719 212.9375 196.171875 215.652344 206.105469 215.652344 C 207.367188 215.652344 208.492188 216.378906 209.085938 217.441406 C 209.683594 218.566406 209.550781 219.890625 208.890625 220.949219 L 199.949219 233.800781 C 199.285156 234.792969 198.226562 235.257812 197.164062 235.257812 Z M 197.164062 235.257812 " fill-opacity="1" fill-rule="nonzero"/><path fill="#00f3f7" d="M 191.269531 209.824219 C 190.410156 209.824219 189.550781 209.492188 188.886719 208.832031 L 153.71875 173.660156 C 152.394531 172.335938 152.394531 170.21875 153.71875 168.890625 C 155.042969 167.566406 157.160156 167.566406 158.484375 168.890625 L 193.722656 204.128906 C 195.046875 205.453125 195.046875 207.570312 193.722656 208.898438 C 192.992188 209.492188 192.132812 209.824219 191.269531 209.824219 Z M 191.269531 209.824219 " fill-opacity="1" fill-rule="nonzero"/><g clip-path="url(#529acbf21d)"><path fill="#00f3f7" d="M 187.496094 364.277344 C 162.855469 364.277344 139.015625 359.507812 116.628906 349.972656 C 94.902344 340.832031 75.429688 327.652344 58.742188 310.894531 C 41.984375 294.136719 28.871094 274.664062 19.664062 253.007812 C 10.125 230.554688 5.355469 206.710938 5.355469 182.136719 C 5.355469 157.566406 10.125 133.65625 19.664062 111.269531 C 28.804688 89.546875 41.984375 70.074219 58.742188 53.382812 C 75.496094 36.691406 94.96875 23.511719 116.628906 14.304688 C 139.078125 4.769531 162.921875 0 187.496094 0 C 212.066406 0 235.976562 4.769531 258.363281 14.304688 C 280.089844 23.445312 299.5625 36.625 316.25 53.382812 C 333.007812 70.140625 346.121094 89.613281 355.328125 111.269531 C 364.867188 133.722656 369.632812 157.566406 369.632812 182.136719 C 369.632812 206.710938 364.867188 230.621094 355.328125 253.007812 C 346.1875 274.730469 333.007812 294.203125 316.25 310.894531 C 299.496094 327.652344 280.023438 340.765625 258.363281 349.972656 C 235.976562 359.507812 212.132812 364.277344 187.496094 364.277344 Z M 187.496094 6.625 C 90.796875 6.625 12.046875 85.375 12.046875 182.074219 C 12.046875 278.769531 90.796875 357.523438 187.496094 357.523438 C 284.195312 357.523438 362.945312 278.835938 362.945312 182.074219 C 362.945312 85.308594 284.195312 6.625 187.496094 6.625 Z M 187.496094 6.625 " fill-opacity="1" fill-rule="nonzero"/></g></svg>