<svg xmlns="http://www.w3.org/2000/svg" xmlns:xlink="http://www.w3.org/1999/xlink" width="500" zoomAndPan="magnify" viewBox="0 0 375 374.999991" height="500" preserveAspectRatio="xMidYMid meet" version="1.0"><defs><clipPath id="ea340d6171"><path d="M 19 268 L 358 268 L 358 351.894531 L 19 351.894531 Z M 19 268 " clip-rule="nonzero"/></clipPath><clipPath id="1e347a770d"><path d="M 155 23.394531 L 216 23.394531 L 216 84 L 155 84 Z M 155 23.394531 " clip-rule="nonzero"/></clipPath></defs><g clip-path="url(#ea340d6171)"><path fill="#00f3f7" d="M 343.152344 321.613281 C 340.96875 321.613281 338.246094 322.160156 336.609375 323.25 L 303.898438 290.539062 C 304.988281 288.359375 305.53125 286.175781 305.53125 283.453125 C 305.53125 275.273438 298.992188 268.730469 290.8125 268.730469 C 282.632812 268.730469 276.09375 275.273438 276.09375 283.453125 C 276.09375 286.175781 276.636719 288.359375 277.726562 290.539062 L 245.015625 323.25 C 240.109375 320.523438 234.65625 321.070312 230.839844 323.796875 L 202.492188 301.441406 C 203.582031 299.808594 203.582031 297.625 203.582031 295.445312 C 203.582031 287.269531 197.039062 280.726562 188.859375 280.726562 C 180.683594 280.726562 174.140625 287.269531 174.140625 295.445312 C 174.140625 297.625 174.6875 300.351562 175.777344 301.988281 L 147.425781 324.339844 C 145.246094 322.707031 141.972656 321.613281 138.703125 321.613281 C 136.523438 321.613281 134.34375 322.160156 132.707031 323.25 L 100.539062 290.539062 C 101.628906 288.359375 102.71875 286.175781 102.71875 283.453125 C 102.71875 275.273438 96.179688 268.730469 88 268.730469 C 79.824219 268.730469 73.28125 275.273438 73.28125 283.453125 C 73.28125 286.175781 74.371094 288.902344 75.460938 291.628906 L 42.75 324.339844 C 40.570312 322.707031 37.84375 322.160156 34.570312 322.160156 C 26.394531 322.160156 19.851562 328.703125 19.851562 336.878906 C 19.851562 345.058594 26.394531 351.601562 34.570312 351.601562 C 42.75 351.601562 49.292969 345.058594 49.292969 336.878906 C 49.292969 334.699219 48.746094 332.519531 48.203125 330.882812 L 81.457031 297.625 C 83.09375 298.71875 85.273438 298.71875 87.457031 298.71875 C 89.636719 298.71875 92.363281 298.171875 93.996094 297.082031 L 126.164062 329.246094 C 124.527344 331.429688 123.984375 334.15625 123.984375 336.878906 C 123.984375 345.058594 130.527344 351.601562 138.703125 351.601562 C 146.882812 351.601562 153.421875 345.058594 153.421875 336.878906 C 153.421875 335.246094 152.878906 333.0625 152.332031 331.429688 L 181.230469 308.53125 C 183.410156 309.621094 185.589844 310.710938 188.316406 310.710938 C 191.042969 310.710938 193.769531 309.621094 196.492188 308.53125 L 225.390625 330.882812 C 224.300781 332.519531 223.753906 334.699219 223.753906 336.878906 C 223.753906 345.058594 230.296875 351.601562 238.472656 351.601562 C 246.652344 351.601562 253.195312 345.058594 253.195312 336.878906 C 253.195312 334.15625 252.648438 331.972656 251.011719 329.792969 L 283.726562 297.082031 C 285.90625 298.171875 288.085938 298.71875 290.8125 298.71875 C 293.539062 298.71875 295.71875 298.171875 297.898438 297.082031 L 330.613281 329.792969 C 329.519531 331.972656 328.429688 334.15625 328.429688 336.878906 C 328.429688 345.058594 334.972656 351.601562 343.152344 351.601562 C 351.328125 351.601562 357.871094 345.058594 357.871094 336.878906 C 357.871094 328.15625 351.328125 321.613281 343.152344 321.613281 Z M 35.117188 342.332031 C 31.84375 342.332031 29.121094 339.605469 29.121094 335.789062 C 29.121094 332.519531 31.84375 329.246094 35.660156 329.246094 C 38.933594 329.246094 42.203125 331.972656 42.203125 335.789062 C 41.660156 339.605469 38.933594 342.332031 35.117188 342.332031 Z M 81.457031 283.453125 C 81.457031 280.179688 84.183594 276.910156 88 276.910156 C 91.273438 276.910156 94.542969 279.636719 94.542969 283.453125 C 94.542969 286.722656 91.816406 289.992188 88 289.992188 C 84.730469 289.992188 81.457031 286.722656 81.457031 283.453125 Z M 139.25 342.332031 C 135.976562 342.332031 132.707031 339.605469 132.707031 335.789062 C 132.707031 332.519531 135.433594 329.246094 139.25 329.246094 C 142.519531 329.246094 145.789062 331.972656 145.789062 335.789062 C 145.789062 339.605469 142.519531 342.332031 139.25 342.332031 Z M 182.863281 295.445312 C 182.863281 292.175781 185.589844 288.902344 189.40625 288.902344 C 192.675781 288.902344 195.949219 291.628906 195.949219 295.445312 C 195.949219 297.082031 195.402344 298.714844 194.3125 299.808594 C 193.222656 300.898438 191.585938 301.441406 189.953125 301.441406 C 185.589844 301.988281 182.863281 298.714844 182.863281 295.445312 Z M 239.019531 342.332031 C 235.75 342.332031 232.476562 339.605469 232.476562 335.789062 C 232.476562 327.066406 245.5625 327.066406 245.5625 335.789062 C 245.5625 339.605469 242.289062 342.332031 239.019531 342.332031 Z M 284.816406 283.453125 C 284.816406 280.179688 287.542969 276.910156 291.359375 276.910156 C 294.628906 276.910156 297.898438 279.636719 297.898438 283.453125 C 297.898438 286.722656 295.175781 289.992188 291.359375 289.992188 C 287.542969 289.992188 284.816406 286.722656 284.816406 283.453125 Z M 343.152344 342.332031 C 339.878906 342.332031 336.609375 339.605469 336.609375 335.789062 C 336.609375 332.519531 339.335938 329.246094 343.152344 329.246094 C 346.421875 329.246094 349.695312 331.972656 349.695312 335.789062 C 349.695312 339.605469 346.96875 342.332031 343.152344 342.332031 Z M 343.152344 342.332031 " fill-opacity="1" fill-rule="nonzero"/></g><path fill="#00f3f7" d="M 15.488281 179.320312 L 15.488281 245.832031 C 15.488281 256.191406 24.210938 264.371094 34.570312 264.371094 L 336.0625 264.371094 C 346.421875 264.371094 355.144531 256.191406 355.144531 245.832031 L 355.144531 179.320312 C 355.144531 168.960938 346.421875 160.78125 336.0625 160.78125 L 301.714844 160.78125 L 307.167969 148.789062 C 318.617188 147.152344 342.0625 142.792969 357.328125 129.160156 C 369.320312 118.800781 353.511719 99.722656 340.96875 111.171875 C 330.066406 120.984375 306.625 125.890625 302.261719 123.710938 L 279.910156 113.351562 C 275.003906 111.171875 270.640625 99.175781 269.550781 93.722656 C 269.003906 92.089844 267.914062 90.996094 266.824219 90.996094 C 265.1875 90.453125 264.097656 90.996094 263.007812 92.089844 C 259.191406 95.90625 254.828125 99.722656 250.46875 103.539062 C 248.832031 104.628906 248.832031 106.808594 249.378906 108.445312 C 253.195312 117.710938 255.921875 122.074219 258.644531 125.890625 L 242.289062 160.238281 L 227.570312 160.238281 L 227.570312 117.167969 C 236.292969 111.714844 244.472656 105.71875 251.558594 99.722656 C 256.464844 95.359375 261.371094 90.996094 265.1875 86.636719 C 274.457031 76.824219 281 67.007812 285.359375 56.652344 C 289.175781 48.472656 285.90625 38.660156 278.273438 34.84375 C 269.550781 30.480469 258.644531 33.753906 254.828125 43.019531 C 246.105469 62.648438 224.300781 79.003906 211.757812 87.179688 C 210.667969 87.726562 209.035156 88.273438 207.941406 88.273438 L 165.964844 88.273438 C 164.328125 88.273438 163.238281 87.726562 162.148438 87.179688 C 152.332031 80.640625 128.34375 63.738281 119.078125 43.019531 C 115.261719 34.296875 104.355469 30.480469 95.632812 34.84375 C 88 38.660156 84.730469 48.472656 88.546875 56.652344 C 92.90625 66.464844 99.996094 76.824219 108.71875 86.636719 C 113.078125 90.996094 117.441406 95.359375 122.347656 99.722656 C 129.433594 105.71875 138.160156 111.714844 146.335938 117.167969 L 146.335938 160.238281 L 131.617188 160.238281 L 115.261719 125.890625 C 115.261719 125.890625 115.261719 125.34375 115.804688 125.34375 C 118.53125 121.527344 121.800781 117.167969 125.617188 108.445312 C 126.164062 106.808594 125.617188 105.171875 124.527344 103.539062 C 120.167969 99.722656 115.804688 95.90625 111.988281 92.089844 C 110.898438 90.996094 109.261719 90.453125 108.171875 90.996094 C 106.535156 91.542969 105.445312 92.632812 105.445312 93.722656 C 103.8125 99.722656 97.8125 111.167969 93.996094 112.804688 L 71.644531 123.164062 C 70.554688 123.710938 69.464844 123.710938 68.375 123.710938 C 59.648438 122.617188 43.292969 119.347656 33.480469 110.625 C 20.941406 99.175781 5.675781 118.257812 17.125 128.617188 C 32.390625 142.246094 55.832031 146.609375 67.28125 148.242188 L 72.734375 160.238281 L 34.570312 160.238281 C 24.210938 160.238281 15.488281 168.960938 15.488281 179.320312 Z M 346.96875 179.320312 L 346.96875 245.832031 C 346.96875 251.828125 342.0625 256.191406 336.0625 256.191406 L 34.570312 256.191406 C 28.574219 256.191406 23.667969 251.285156 23.667969 245.832031 L 23.667969 179.320312 C 23.667969 173.320312 28.574219 168.960938 34.570312 168.960938 C 84.730469 168.960938 258.101562 168.960938 336.0625 168.960938 C 342.0625 168.414062 346.96875 173.320312 346.96875 179.320312 Z M 266.824219 126.980469 C 268.460938 123.164062 264.097656 123.164062 258.101562 107.898438 C 260.28125 106.261719 262.460938 104.082031 264.644531 102.445312 C 266.824219 108.445312 271.1875 117.710938 277.726562 120.4375 L 300.082031 130.796875 C 310.441406 135.703125 337.699219 125.890625 347.511719 117.167969 C 351.875 113.351562 356.78125 119.894531 352.964844 123.164062 C 338.246094 136.25 314.800781 140.066406 304.988281 141.15625 C 303.351562 141.15625 302.261719 142.246094 301.714844 143.335938 L 293.539062 160.78125 L 252.105469 160.78125 Z M 153.421875 111.714844 C 144.699219 106.261719 135.976562 100.265625 128.34375 93.722656 C 123.4375 89.90625 119.078125 85.546875 115.261719 81.183594 C 106.535156 71.914062 100.539062 62.648438 96.179688 53.925781 C 94.542969 49.5625 96.179688 44.65625 99.996094 42.476562 C 104.355469 40.292969 110.351562 41.929688 111.988281 46.835938 C 121.257812 68.644531 144.699219 86.089844 157.785156 94.269531 C 160.511719 95.90625 163.238281 96.449219 165.964844 96.449219 L 207.941406 96.449219 C 210.667969 96.449219 213.941406 95.359375 216.121094 94.269531 C 229.207031 86.089844 252.648438 68.644531 261.917969 46.835938 C 264.097656 42.476562 269.550781 40.292969 273.910156 42.476562 C 277.726562 44.65625 279.363281 49.5625 277.183594 53.925781 C 273.367188 63.191406 266.824219 72.460938 258.101562 81.183594 C 254.285156 85.546875 249.921875 89.363281 245.015625 93.722656 C 237.382812 100.265625 229.207031 106.261719 219.9375 111.714844 C 218.847656 112.261719 217.757812 113.894531 217.757812 114.984375 L 217.757812 160.238281 L 155.058594 160.238281 L 155.058594 114.984375 C 155.058594 113.894531 154.515625 112.261719 153.421875 111.714844 Z M 73.28125 143.335938 C 72.734375 142.246094 71.644531 141.15625 70.007812 141.15625 C 60.742188 140.066406 36.753906 136.25 22.03125 123.164062 C 18.214844 119.894531 23.121094 113.351562 27.484375 117.167969 C 38.933594 126.980469 56.925781 130.796875 66.738281 132.433594 C 69.464844 132.976562 72.191406 132.433594 74.914062 131.34375 C 95.632812 120.984375 99.996094 121.527344 103.8125 115.53125 C 105.992188 111.714844 108.71875 108.445312 110.898438 102.992188 C 113.078125 105.171875 115.261719 106.808594 117.441406 108.445312 C 111.445312 121.527344 105.445312 122.617188 107.628906 126.980469 L 122.894531 160.238281 L 81.457031 160.238281 Z M 73.28125 143.335938 " fill-opacity="1" fill-rule="nonzero"/><path fill="#00f3f7" d="M 90.179688 204.398438 L 75.460938 204.398438 L 71.097656 190.769531 C 70.554688 189.132812 68.917969 188.042969 67.28125 188.042969 C 65.648438 188.042969 64.011719 189.132812 63.464844 190.769531 L 59.105469 204.398438 L 43.839844 204.398438 C 42.203125 204.398438 40.570312 205.488281 40.023438 207.125 C 39.476562 208.757812 40.023438 210.941406 41.660156 211.484375 L 53.652344 219.664062 L 49.292969 233.292969 C 48.746094 234.929688 49.292969 236.566406 50.925781 237.65625 C 52.5625 238.746094 54.199219 238.746094 55.832031 237.65625 L 67.828125 228.933594 L 79.824219 237.65625 C 80.367188 238.199219 81.457031 238.199219 82.003906 238.199219 C 83.09375 238.199219 83.640625 238.199219 84.183594 237.65625 C 85.820312 236.566406 86.363281 234.929688 85.820312 233.292969 L 81.457031 219.664062 L 93.453125 211.484375 C 95.089844 210.394531 95.632812 208.757812 95.089844 207.125 C 93.453125 205.488281 92.363281 204.398438 90.179688 204.398438 Z M 72.191406 220.207031 L 73.824219 224.570312 L 69.464844 221.84375 C 68.917969 221.300781 67.828125 221.300781 67.28125 221.300781 C 66.191406 221.300781 65.648438 221.300781 65.101562 221.84375 L 60.742188 224.570312 L 62.375 220.207031 C 62.921875 218.574219 62.375 216.390625 60.742188 215.300781 L 56.378906 212.574219 L 61.285156 212.574219 C 62.921875 212.574219 64.558594 211.484375 65.101562 209.851562 L 66.738281 204.941406 L 68.375 209.851562 C 68.917969 211.484375 70.554688 212.574219 72.191406 212.574219 L 77.097656 212.574219 L 73.28125 215.300781 C 72.191406 216.390625 71.644531 218.027344 72.191406 220.207031 Z M 72.191406 220.207031 " fill-opacity="1" fill-rule="nonzero"/><path fill="#00f3f7" d="M 169.78125 204.398438 L 154.515625 204.398438 L 150.152344 190.769531 C 149.605469 189.132812 147.972656 188.042969 146.335938 188.042969 C 144.699219 188.042969 143.066406 189.132812 142.519531 190.769531 L 138.160156 204.398438 L 123.4375 204.398438 C 121.800781 204.398438 120.167969 205.488281 119.621094 207.125 C 119.078125 208.757812 119.621094 210.941406 121.257812 211.484375 L 133.25 219.664062 L 128.890625 233.292969 C 128.34375 234.929688 128.890625 236.566406 130.527344 237.65625 C 132.160156 238.746094 133.796875 238.746094 135.433594 237.65625 L 147.425781 228.933594 L 159.421875 237.65625 C 159.964844 238.199219 161.054688 238.199219 161.601562 238.199219 C 162.691406 238.199219 163.238281 238.199219 163.78125 237.65625 C 165.417969 236.566406 165.964844 234.929688 165.417969 233.292969 L 159.964844 220.207031 L 171.960938 212.03125 C 173.597656 210.941406 174.140625 209.304688 173.597656 207.667969 C 173.050781 205.488281 171.414062 204.398438 169.78125 204.398438 Z M 151.242188 220.207031 L 152.878906 224.570312 L 148.515625 221.84375 C 147.972656 221.300781 146.882812 221.300781 146.335938 221.300781 C 145.789062 221.300781 144.699219 221.300781 144.15625 221.84375 L 139.792969 224.570312 L 141.429688 220.207031 C 141.976562 218.574219 141.429688 216.390625 139.792969 215.300781 L 135.976562 212.574219 L 140.882812 212.574219 C 142.519531 212.574219 144.15625 211.484375 144.699219 209.851562 L 146.335938 204.941406 L 147.972656 209.851562 C 148.515625 211.484375 150.152344 212.574219 151.789062 212.574219 L 156.695312 212.574219 L 152.878906 215.300781 C 151.242188 216.390625 150.699219 218.027344 151.242188 220.207031 Z M 151.242188 220.207031 " fill-opacity="1" fill-rule="nonzero"/><path fill="#00f3f7" d="M 248.832031 204.398438 L 234.113281 204.398438 L 229.75 190.769531 C 229.207031 189.132812 227.570312 188.042969 225.933594 188.042969 C 224.300781 188.042969 222.664062 189.132812 222.117188 190.769531 L 217.757812 204.398438 L 203.035156 204.398438 C 201.402344 204.398438 199.765625 205.488281 199.21875 207.125 C 198.675781 208.757812 199.21875 210.941406 200.855469 211.484375 L 212.851562 219.664062 L 208.488281 233.292969 C 207.941406 234.929688 208.488281 236.566406 210.125 237.65625 C 211.757812 238.746094 213.394531 238.746094 215.03125 237.65625 L 227.023438 228.933594 L 239.019531 237.65625 C 239.5625 238.199219 240.65625 238.199219 241.199219 238.199219 C 242.289062 238.199219 242.835938 238.199219 243.378906 237.65625 C 245.015625 236.566406 245.5625 234.929688 245.015625 233.292969 L 240.65625 219.664062 L 252.648438 211.484375 C 254.285156 210.394531 254.828125 208.757812 254.285156 207.125 C 252.105469 205.488281 250.46875 204.398438 248.832031 204.398438 Z M 230.296875 220.207031 L 231.933594 224.570312 L 227.570312 221.84375 C 227.023438 221.300781 225.933594 221.300781 225.390625 221.300781 C 224.300781 221.300781 223.753906 221.300781 223.207031 221.84375 L 218.847656 224.570312 L 220.484375 220.207031 C 221.027344 218.574219 220.484375 216.390625 218.847656 215.300781 L 215.03125 212.574219 L 219.9375 212.574219 C 221.574219 212.574219 223.207031 211.484375 223.753906 209.851562 L 225.390625 204.941406 L 227.023438 209.851562 C 227.570312 211.484375 229.207031 212.574219 230.839844 212.574219 L 235.75 212.574219 L 231.933594 215.300781 C 230.296875 216.390625 229.75 218.027344 230.296875 220.207031 Z M 230.296875 220.207031 " fill-opacity="1" fill-rule="nonzero"/><path fill="#00f3f7" d="M 277.183594 207.125 C 276.636719 208.757812 277.183594 210.941406 278.820312 211.484375 L 290.8125 219.664062 L 286.449219 233.292969 C 285.90625 234.929688 286.449219 236.566406 288.085938 237.65625 C 289.722656 238.746094 291.359375 238.746094 292.992188 237.65625 L 304.988281 228.933594 L 316.980469 237.65625 C 317.527344 238.199219 318.617188 238.199219 319.164062 238.199219 C 320.253906 238.199219 320.796875 238.199219 321.34375 237.65625 C 322.980469 236.566406 323.523438 234.929688 322.980469 233.292969 L 318.074219 220.207031 L 330.066406 212.03125 C 331.703125 210.941406 332.246094 209.304688 331.703125 207.667969 C 331.15625 206.035156 329.519531 204.941406 327.886719 204.941406 L 313.164062 204.941406 L 308.804688 191.3125 C 308.257812 189.679688 306.625 188.585938 304.988281 188.585938 C 303.351562 188.585938 301.714844 189.679688 301.171875 191.3125 L 296.265625 204.398438 L 281.542969 204.398438 C 279.363281 204.398438 277.726562 205.488281 277.183594 207.125 Z M 298.992188 212.574219 C 300.625 212.574219 302.261719 211.484375 302.808594 209.851562 L 304.441406 204.941406 L 306.078125 209.851562 C 306.625 211.484375 308.257812 212.574219 309.894531 212.574219 L 314.800781 212.574219 L 310.984375 215.300781 C 309.347656 216.390625 308.804688 218.027344 309.347656 220.207031 L 310.984375 224.570312 L 306.625 221.84375 C 304.988281 220.753906 303.351562 220.753906 301.714844 221.84375 L 297.355469 224.570312 L 298.992188 220.207031 C 299.535156 218.574219 298.992188 216.390625 297.355469 215.300781 L 293.539062 212.574219 Z M 298.992188 212.574219 " fill-opacity="1" fill-rule="nonzero"/><g clip-path="url(#1e347a770d)"><path fill="#00f3f7" d="M 185.589844 83.363281 C 201.945312 83.363281 215.574219 69.734375 215.574219 53.378906 C 215.574219 37.023438 201.945312 23.394531 185.589844 23.394531 C 169.234375 23.394531 155.605469 37.023438 155.605469 53.378906 C 155.605469 70.28125 168.6875 83.363281 185.589844 83.363281 Z M 185.589844 31.570312 C 197.585938 31.570312 207.398438 41.386719 207.398438 53.378906 C 207.398438 65.375 197.585938 75.1875 185.589844 75.1875 C 173.597656 75.1875 163.78125 65.375 163.78125 53.378906 C 163.78125 41.386719 173.597656 31.570312 185.589844 31.570312 Z M 185.589844 31.570312 " fill-opacity="1" fill-rule="nonzero"/></g><path fill="#00f3f7" d="M 295.175781 114.984375 C 305.53125 119.894531 318.074219 114.984375 322.433594 105.171875 C 328.976562 91.542969 318.617188 75.730469 303.898438 75.730469 C 295.71875 75.730469 288.632812 80.640625 285.359375 87.726562 C 280.453125 97.539062 284.816406 110.078125 295.175781 114.984375 Z M 292.449219 90.996094 C 294.628906 86.636719 298.992188 83.910156 303.898438 83.910156 C 313.164062 83.910156 319.164062 93.179688 315.347656 101.902344 C 312.621094 107.898438 304.988281 110.625 298.992188 107.898438 C 292.449219 104.628906 289.722656 96.996094 292.449219 90.996094 Z M 292.449219 90.996094 " fill-opacity="1" fill-rule="nonzero"/><path fill="#00f3f7" d="M 70.554688 116.621094 C 85.273438 116.621094 95.632812 100.8125 89.089844 87.179688 C 85.820312 80.09375 78.1875 75.1875 70.554688 75.1875 C 62.375 75.1875 54.199219 80.09375 50.925781 88.816406 C 46.566406 102.445312 56.378906 116.621094 70.554688 116.621094 Z M 59.105469 91.542969 C 60.742188 86.636719 65.648438 83.363281 70.554688 83.363281 C 75.460938 83.363281 79.824219 86.089844 82.003906 90.453125 C 85.820312 98.628906 79.824219 108.445312 70.554688 108.445312 C 62.375 108.445312 55.832031 99.722656 59.105469 91.542969 Z M 59.105469 91.542969 " fill-opacity="1" fill-rule="nonzero"/></svg>