<svg xmlns="http://www.w3.org/2000/svg" xmlns:xlink="http://www.w3.org/1999/xlink" width="500" zoomAndPan="magnify" viewBox="0 0 375 374.999991" height="500" preserveAspectRatio="xMidYMid meet" version="1.0"><defs><clipPath id="6ce6a9e2b0"><path d="M 9.453125 45.0625 L 339 45.0625 L 339 282 L 9.453125 282 Z M 9.453125 45.0625 " clip-rule="nonzero"/></clipPath><clipPath id="f0a595428f"><path d="M 137 272 L 146.265625 272 L 146.265625 329.820312 L 137 329.820312 Z M 137 272 " clip-rule="nonzero"/></clipPath><clipPath id="f65c48a19c"><path d="M 202 272 L 210.921875 272 L 210.921875 329.820312 L 202 329.820312 Z M 202 272 " clip-rule="nonzero"/></clipPath><clipPath id="a3982af4e7"><path d="M 108 321 L 239.972656 321 L 239.972656 329.820312 L 108 329.820312 Z M 108 321 " clip-rule="nonzero"/></clipPath><clipPath id="ee3d2b9642"><path d="M 9.453125 229 L 257 229 L 257 238 L 9.453125 238 Z M 9.453125 229 " clip-rule="nonzero"/></clipPath><clipPath id="b2772b231f"><path d="M 247 157 L 365.703125 157 L 365.703125 166 L 247 166 Z M 247 157 " clip-rule="nonzero"/></clipPath><clipPath id="0d60750e9f"><path d="M 247 290 L 365.703125 290 L 365.703125 300 L 247 300 Z M 247 290 " clip-rule="nonzero"/></clipPath><clipPath id="3f945e48f9"><path d="M 247.46875 126 L 365.539062 126 L 365.539062 329.820312 L 247.46875 329.820312 Z M 247.46875 126 " clip-rule="nonzero"/></clipPath></defs><g clip-path="url(#6ce6a9e2b0)"><path fill="#00f3f7" d="M 252.132812 281.246094 L 21.640625 281.246094 C 14.921875 281.246094 9.453125 275.777344 9.453125 269.058594 L 9.453125 57.34375 C 9.453125 50.625 14.921875 45.15625 21.640625 45.15625 L 326.542969 45.15625 C 333.261719 45.15625 338.730469 50.625 338.730469 57.34375 L 338.730469 130.652344 C 338.730469 132.976562 336.847656 134.859375 334.523438 134.859375 C 332.203125 134.859375 330.316406 132.976562 330.316406 130.652344 L 330.316406 57.34375 C 330.316406 55.257812 328.621094 53.566406 326.542969 53.566406 L 21.640625 53.566406 C 19.558594 53.566406 17.863281 55.257812 17.863281 57.34375 L 17.863281 269.058594 C 17.863281 271.140625 19.558594 272.832031 21.640625 272.832031 L 252.132812 272.832031 C 254.457031 272.832031 256.339844 274.714844 256.339844 277.035156 C 256.339844 279.363281 254.457031 281.246094 252.132812 281.246094 " fill-opacity="1" fill-rule="nonzero"/></g><path fill="#00f3f7" d="M 173.679688 246.933594 C 178.332031 246.933594 182.101562 250.703125 182.101562 255.359375 C 182.101562 260.011719 178.332031 263.78125 173.679688 263.78125 C 169.023438 263.78125 165.253906 260.011719 165.253906 255.359375 C 165.253906 250.703125 169.023438 246.933594 173.679688 246.933594 " fill-opacity="1" fill-rule="nonzero"/><g clip-path="url(#f0a595428f)"><path fill="#00f3f7" d="M 141.855469 329.820312 C 139.535156 329.820312 137.652344 327.933594 137.652344 325.613281 L 137.652344 277.035156 C 137.652344 274.710938 139.535156 272.832031 141.855469 272.832031 C 144.179688 272.832031 146.0625 274.710938 146.0625 277.035156 L 146.0625 325.613281 C 146.0625 327.933594 144.179688 329.820312 141.855469 329.820312 " fill-opacity="1" fill-rule="nonzero"/></g><g clip-path="url(#f65c48a19c)"><path fill="#00f3f7" d="M 206.320312 329.820312 C 203.996094 329.820312 202.113281 327.933594 202.113281 325.613281 L 202.113281 277.035156 C 202.113281 274.710938 203.996094 272.832031 206.320312 272.832031 C 208.640625 272.832031 210.527344 274.710938 210.527344 277.035156 L 210.527344 325.613281 C 210.527344 327.933594 208.640625 329.820312 206.320312 329.820312 " fill-opacity="1" fill-rule="nonzero"/></g><g clip-path="url(#a3982af4e7)"><path fill="#00f3f7" d="M 235.390625 329.820312 L 112.785156 329.820312 C 110.464844 329.820312 108.578125 327.933594 108.578125 325.613281 C 108.578125 323.289062 110.464844 321.410156 112.785156 321.410156 L 235.390625 321.410156 C 237.714844 321.410156 239.597656 323.289062 239.597656 325.613281 C 239.597656 327.933594 237.714844 329.820312 235.390625 329.820312 " fill-opacity="1" fill-rule="nonzero"/></g><g clip-path="url(#ee3d2b9642)"><path fill="#00f3f7" d="M 252.132812 237.90625 L 13.65625 237.90625 C 11.332031 237.90625 9.453125 236.027344 9.453125 233.703125 C 9.453125 231.375 11.332031 229.496094 13.65625 229.496094 L 252.132812 229.496094 C 254.457031 229.496094 256.339844 231.375 256.339844 233.703125 C 256.339844 236.027344 254.457031 237.90625 252.132812 237.90625 " fill-opacity="1" fill-rule="nonzero"/></g><path fill="#00f3f7" d="M 306.617188 291.65625 L 306.851562 291.65625 L 306.851562 300.269531 L 306.617188 300.269531 L 306.617188 291.65625 " fill-opacity="1" fill-rule="nonzero"/><path fill="#00f3f7" d="M 45.457031 78.355469 C 43.910156 78.355469 42.652344 79.613281 42.652344 81.160156 L 42.652344 106.675781 C 42.652344 108.222656 43.910156 109.480469 45.457031 109.480469 L 129.945312 109.480469 C 131.492188 109.480469 132.746094 108.222656 132.746094 106.675781 L 132.746094 81.160156 C 132.746094 79.613281 131.492188 78.355469 129.945312 78.355469 Z M 129.945312 117.894531 L 45.457031 117.894531 C 39.269531 117.894531 34.242188 112.859375 34.242188 106.675781 L 34.242188 81.160156 C 34.242188 74.972656 39.269531 69.945312 45.457031 69.945312 L 129.945312 69.945312 C 136.128906 69.945312 141.160156 74.972656 141.160156 81.160156 L 141.160156 106.675781 C 141.160156 112.859375 136.128906 117.894531 129.945312 117.894531 " fill-opacity="1" fill-rule="nonzero"/><path fill="#00f3f7" d="M 45.457031 145.585938 C 43.910156 145.585938 42.652344 146.847656 42.652344 148.390625 L 42.652344 173.910156 C 42.652344 175.457031 43.910156 176.710938 45.457031 176.710938 L 80.691406 176.710938 C 82.234375 176.710938 83.496094 175.457031 83.496094 173.910156 L 83.496094 148.390625 C 83.496094 146.847656 82.234375 145.585938 80.691406 145.585938 Z M 80.691406 185.125 L 45.457031 185.125 C 39.269531 185.125 34.242188 180.09375 34.242188 173.910156 L 34.242188 148.390625 C 34.242188 142.210938 39.269531 137.175781 45.457031 137.175781 L 80.691406 137.175781 C 86.875 137.175781 91.90625 142.210938 91.90625 148.390625 L 91.90625 173.910156 C 91.90625 180.09375 86.875 185.125 80.691406 185.125 " fill-opacity="1" fill-rule="nonzero"/><path fill="#00f3f7" d="M 112.648438 145.585938 C 111.101562 145.585938 109.84375 146.847656 109.84375 148.390625 L 109.84375 173.910156 C 109.84375 175.457031 111.101562 176.710938 112.648438 176.710938 L 147.882812 176.710938 C 149.425781 176.710938 150.6875 175.457031 150.6875 173.910156 L 150.6875 148.390625 C 150.6875 146.847656 149.425781 145.585938 147.882812 145.585938 Z M 147.882812 185.125 L 112.648438 185.125 C 106.464844 185.125 101.429688 180.09375 101.429688 173.910156 L 101.429688 148.390625 C 101.429688 142.210938 106.464844 137.175781 112.648438 137.175781 L 147.882812 137.175781 C 154.0625 137.175781 159.097656 142.210938 159.097656 148.390625 L 159.097656 173.910156 C 159.097656 180.09375 154.0625 185.125 147.882812 185.125 " fill-opacity="1" fill-rule="nonzero"/><path fill="#00f3f7" d="M 179.835938 145.585938 C 178.289062 145.585938 177.035156 146.847656 177.035156 148.390625 L 177.035156 173.910156 C 177.035156 175.457031 178.289062 176.710938 179.835938 176.710938 L 215.074219 176.710938 C 216.617188 176.710938 217.871094 175.457031 217.871094 173.910156 L 217.871094 148.390625 C 217.871094 146.847656 216.617188 145.585938 215.074219 145.585938 Z M 215.074219 185.125 L 179.835938 185.125 C 173.652344 185.125 168.621094 180.09375 168.621094 173.910156 L 168.621094 148.390625 C 168.621094 142.210938 173.652344 137.175781 179.835938 137.175781 L 215.074219 137.175781 C 221.253906 137.175781 226.285156 142.210938 226.285156 148.390625 L 226.285156 173.910156 C 226.285156 180.09375 221.253906 185.125 215.074219 185.125 " fill-opacity="1" fill-rule="nonzero"/><path fill="#00f3f7" d="M 222.078125 81.066406 L 155.085938 81.066406 C 152.761719 81.066406 150.878906 79.183594 150.878906 76.859375 C 150.878906 74.535156 152.761719 72.652344 155.085938 72.652344 L 222.078125 72.652344 C 224.402344 72.652344 226.285156 74.535156 226.285156 76.859375 C 226.285156 79.183594 224.402344 81.066406 222.078125 81.066406 " fill-opacity="1" fill-rule="nonzero"/><path fill="#00f3f7" d="M 222.078125 98.121094 L 155.085938 98.121094 C 152.761719 98.121094 150.878906 96.238281 150.878906 93.917969 C 150.878906 91.59375 152.761719 89.710938 155.085938 89.710938 L 222.078125 89.710938 C 224.402344 89.710938 226.285156 91.59375 226.285156 93.917969 C 226.285156 96.238281 224.402344 98.121094 222.078125 98.121094 " fill-opacity="1" fill-rule="nonzero"/><path fill="#00f3f7" d="M 222.078125 115.179688 L 155.085938 115.179688 C 152.761719 115.179688 150.878906 113.300781 150.878906 110.976562 C 150.878906 108.652344 152.761719 106.769531 155.085938 106.769531 L 222.078125 106.769531 C 224.402344 106.769531 226.285156 108.652344 226.285156 110.976562 C 226.285156 113.300781 224.402344 115.179688 222.078125 115.179688 " fill-opacity="1" fill-rule="nonzero"/><g clip-path="url(#b2772b231f)"><path fill="#00f3f7" d="M 361.332031 165.652344 L 252.132812 165.652344 C 249.808594 165.652344 247.925781 163.773438 247.925781 161.449219 C 247.925781 159.128906 249.808594 157.242188 252.132812 157.242188 L 361.332031 157.242188 C 363.652344 157.242188 365.539062 159.128906 365.539062 161.449219 C 365.539062 163.773438 363.652344 165.652344 361.332031 165.652344 " fill-opacity="1" fill-rule="nonzero"/></g><g clip-path="url(#0d60750e9f)"><path fill="#00f3f7" d="M 361.332031 299.023438 L 252.132812 299.023438 C 249.808594 299.023438 247.925781 297.136719 247.925781 294.816406 C 247.925781 292.492188 249.808594 290.609375 252.132812 290.609375 L 361.332031 290.609375 C 363.652344 290.609375 365.539062 292.492188 365.539062 294.816406 C 365.539062 297.136719 363.652344 299.023438 361.332031 299.023438 " fill-opacity="1" fill-rule="nonzero"/></g><path fill="#00f3f7" d="M 293.980469 189.496094 C 292.433594 189.496094 291.175781 190.757812 291.175781 192.300781 L 291.175781 210.007812 C 291.175781 211.554688 292.433594 212.8125 293.980469 212.8125 L 319.484375 212.8125 C 321.03125 212.8125 322.289062 211.554688 322.289062 210.007812 L 322.289062 192.300781 C 322.289062 190.757812 321.03125 189.496094 319.484375 189.496094 Z M 319.484375 221.222656 L 293.980469 221.222656 C 287.792969 221.222656 282.765625 216.195312 282.765625 210.007812 L 282.765625 192.300781 C 282.765625 186.117188 287.792969 181.085938 293.980469 181.085938 L 319.484375 181.085938 C 325.667969 181.085938 330.703125 186.117188 330.703125 192.300781 L 330.703125 210.007812 C 330.703125 216.195312 325.667969 221.222656 319.484375 221.222656 " fill-opacity="1" fill-rule="nonzero"/><path fill="#00f3f7" d="M 343.1875 275.175781 L 270.277344 275.175781 C 267.953125 275.175781 266.070312 273.296875 266.070312 270.976562 C 266.070312 268.652344 267.953125 266.769531 270.277344 266.769531 L 343.1875 266.769531 C 345.511719 266.769531 347.398438 268.652344 347.398438 270.976562 C 347.398438 273.296875 345.511719 275.175781 343.1875 275.175781 " fill-opacity="1" fill-rule="nonzero"/><path fill="#00f3f7" d="M 343.1875 259.316406 L 270.277344 259.316406 C 267.953125 259.316406 266.070312 257.433594 266.070312 255.109375 C 266.070312 252.785156 267.953125 250.90625 270.277344 250.90625 L 343.1875 250.90625 C 345.511719 250.90625 347.398438 252.785156 347.398438 255.109375 C 347.398438 257.433594 345.511719 259.316406 343.1875 259.316406 " fill-opacity="1" fill-rule="nonzero"/><path fill="#00f3f7" d="M 343.1875 243.453125 L 270.277344 243.453125 C 267.953125 243.453125 266.070312 241.566406 266.070312 239.246094 C 266.070312 236.921875 267.953125 235.039062 270.277344 235.039062 L 343.1875 235.039062 C 345.511719 235.039062 347.398438 236.921875 347.398438 239.246094 C 347.398438 241.566406 345.511719 243.453125 343.1875 243.453125 " fill-opacity="1" fill-rule="nonzero"/><g clip-path="url(#3f945e48f9)"><path fill="#00f3f7" d="M 260.371094 134.859375 C 258.148438 134.859375 256.339844 136.667969 256.339844 138.894531 L 256.339844 317.375 C 256.339844 319.597656 258.148438 321.410156 260.371094 321.410156 L 353.09375 321.410156 C 354.167969 321.410156 355.183594 320.988281 355.945312 320.226562 C 356.707031 319.464844 357.121094 318.449219 357.121094 317.375 L 357.121094 138.894531 C 357.121094 136.667969 355.316406 134.859375 353.09375 134.859375 Z M 353.09375 329.820312 L 260.371094 329.820312 C 253.507812 329.820312 247.925781 324.234375 247.925781 317.375 L 247.925781 138.894531 C 247.925781 132.03125 253.507812 126.445312 260.371094 126.445312 L 353.09375 126.445312 C 359.953125 126.445312 365.535156 132.03125 365.535156 138.894531 L 365.535156 317.375 C 365.539062 320.695312 364.242188 323.820312 361.890625 326.175781 C 359.542969 328.523438 356.417969 329.820312 353.09375 329.820312 " fill-opacity="1" fill-rule="nonzero"/></g></svg>