<svg xmlns="http://www.w3.org/2000/svg" xmlns:xlink="http://www.w3.org/1999/xlink" width="500" zoomAndPan="magnify" viewBox="0 0 375 374.999991" height="500" preserveAspectRatio="xMidYMid meet" version="1.0"><defs><clipPath id="5958a546d1"><path d="M 102 266 L 273 266 L 273 367.5 L 102 367.5 Z M 102 266 " clip-rule="nonzero"/></clipPath><clipPath id="a108a6d344"><path d="M 18.75 7.5 L 356.25 7.5 L 356.25 98 L 18.75 98 Z M 18.75 7.5 " clip-rule="nonzero"/></clipPath></defs><path fill="#00f3f7" d="M 327 108.75 L 48 108.75 C 46.148438 108.75 44.417969 109.660156 43.371094 111.1875 C 42.320312 112.710938 42.082031 114.65625 42.746094 116.382812 L 64.222656 172.632812 C 65.054688 174.808594 67.148438 176.25 69.480469 176.25 L 305.523438 176.25 C 307.859375 176.25 309.945312 174.808594 310.78125 172.628906 L 332.257812 116.378906 C 332.917969 114.652344 332.679688 112.710938 331.636719 111.179688 C 330.582031 109.660156 328.851562 108.75 327 108.75 Z M 301.648438 165 L 73.351562 165 L 56.167969 120 L 318.828125 120 Z M 301.648438 165 " fill-opacity="1" fill-rule="nonzero"/><path fill="#00f3f7" d="M 296.929688 187.5 L 78.070312 187.5 C 76.21875 187.5 74.488281 188.410156 73.441406 189.9375 C 72.390625 191.460938 72.152344 193.402344 72.816406 195.132812 L 94.289062 251.382812 C 95.121094 253.558594 97.207031 255 99.542969 255 L 275.453125 255 C 277.785156 255 279.875 253.558594 280.710938 251.378906 L 302.183594 195.128906 C 302.839844 193.394531 302.605469 191.460938 301.558594 189.929688 C 300.511719 188.410156 298.78125 187.5 296.929688 187.5 Z M 271.582031 243.75 L 103.417969 243.75 L 86.238281 198.75 L 288.761719 198.75 Z M 271.582031 243.75 " fill-opacity="1" fill-rule="nonzero"/><g clip-path="url(#5958a546d1)"><path fill="#00f3f7" d="M 266.863281 266.25 L 108.136719 266.25 C 106.285156 266.25 104.554688 267.160156 103.507812 268.6875 C 102.457031 270.210938 102.21875 272.15625 102.882812 273.882812 L 137.246094 363.882812 C 138.078125 366.058594 140.164062 367.5 142.5 367.5 L 232.5 367.5 C 234.835938 367.5 236.921875 366.058594 237.757812 363.878906 L 272.121094 273.878906 C 272.78125 272.152344 272.542969 270.210938 271.5 268.679688 C 270.445312 267.160156 268.714844 266.25 266.863281 266.25 Z M 228.628906 356.25 L 146.371094 356.25 L 116.296875 277.5 L 258.691406 277.5 Z M 228.628906 356.25 " fill-opacity="1" fill-rule="nonzero"/></g><g clip-path="url(#a108a6d344)"><path fill="#00f3f7" d="M 350.625 7.5 L 24.375 7.5 C 21.265625 7.5 18.75 10.015625 18.75 13.125 L 18.75 52.5 C 18.75 53.1875 18.875 53.867188 19.117188 54.503906 L 34.152344 93.878906 C 34.988281 96.058594 37.078125 97.5 39.410156 97.5 L 335.589844 97.5 C 337.921875 97.5 340.011719 96.058594 340.847656 93.878906 L 355.882812 54.503906 C 356.125 53.867188 356.25 53.1875 356.25 52.5 L 356.25 13.125 C 356.25 10.015625 353.734375 7.5 350.625 7.5 Z M 345 51.460938 L 331.71875 86.25 L 43.28125 86.25 L 30 51.460938 L 30 18.75 L 345 18.75 Z M 345 51.460938 " fill-opacity="1" fill-rule="nonzero"/></g><path fill="#00f3f7" d="M 187.5 333.75 C 184.394531 333.75 181.875 331.230469 181.875 328.125 L 170.625 328.125 C 170.625 335.449219 175.34375 341.636719 181.875 343.964844 L 181.875 350.625 L 193.125 350.625 L 193.125 343.964844 C 199.65625 341.636719 204.375 335.449219 204.375 328.125 C 204.375 318.820312 196.804688 311.25 187.5 311.25 C 184.394531 311.25 181.875 308.730469 181.875 305.625 C 181.875 302.519531 184.394531 300 187.5 300 C 190.605469 300 193.125 302.519531 193.125 305.625 L 204.375 305.625 C 204.375 298.300781 199.65625 292.113281 193.125 289.785156 L 193.125 283.125 L 181.875 283.125 L 181.875 289.785156 C 175.34375 292.113281 170.625 298.300781 170.625 305.625 C 170.625 314.929688 178.195312 322.5 187.5 322.5 C 190.605469 322.5 193.125 325.019531 193.125 328.125 C 193.125 331.230469 190.605469 333.75 187.5 333.75 Z M 187.5 333.75 " fill-opacity="1" fill-rule="nonzero"/></svg>