<svg xmlns="http://www.w3.org/2000/svg" xmlns:xlink="http://www.w3.org/1999/xlink" width="500" zoomAndPan="magnify" viewBox="0 0 375 374.999991" height="500" preserveAspectRatio="xMidYMid meet" version="1.0"><path fill="#00f3f7" d="M 237.546875 22.363281 L 238.113281 24.34375 L 249.988281 24.34375 L 248.574219 19.253906 C 246.03125 10.769531 236.980469 5.679688 228.214844 7.941406 L 169.964844 24.34375 L 211.816406 24.34375 L 231.324219 18.96875 C 234.152344 18.121094 236.980469 19.535156 237.546875 22.363281 Z M 237.546875 22.363281 " fill-opacity="1" fill-rule="nonzero"/><path fill="#00f3f7" d="M 55.445312 68.171875 L 60.253906 66.757812 L 60.253906 54.882812 L 52.335938 57.144531 C 48.09375 58.273438 44.699219 61.101562 42.4375 65.0625 C 40.460938 68.738281 39.894531 73.261719 41.023438 77.503906 L 60.253906 143.953125 L 60.253906 103.234375 L 52.050781 74.390625 C 51.769531 73.261719 51.769531 71.847656 52.617188 70.714844 C 53.183594 69.585938 54.03125 68.738281 55.445312 68.171875 Z M 55.445312 68.171875 " fill-opacity="1" fill-rule="nonzero"/><path fill="#00f3f7" d="M 227.085938 137.449219 C 236.414062 137.449219 244.050781 129.8125 244.050781 120.484375 L 244.050781 80.894531 C 244.050781 71.566406 236.414062 63.929688 227.085938 63.929688 L 147.910156 63.929688 C 138.578125 63.929688 130.945312 71.566406 130.945312 80.894531 L 130.945312 120.484375 C 130.945312 129.8125 138.578125 137.449219 147.910156 137.449219 Z M 142.253906 120.484375 L 142.253906 80.894531 C 142.253906 77.785156 144.800781 75.242188 147.910156 75.242188 L 227.085938 75.242188 C 230.195312 75.242188 232.738281 77.785156 232.738281 80.894531 L 232.738281 120.484375 C 232.738281 123.59375 230.195312 126.136719 227.085938 126.136719 L 147.910156 126.136719 C 144.800781 126.136719 142.253906 123.59375 142.253906 120.484375 Z M 142.253906 120.484375 " fill-opacity="1" fill-rule="nonzero"/><path fill="#00f3f7" d="M 178.449219 115.675781 C 179.015625 115.675781 179.863281 115.394531 180.429688 115.109375 L 198.808594 103.800781 C 201.070312 102.386719 201.070312 99.277344 198.808594 97.863281 L 180.429688 86.550781 C 179.863281 86.269531 179.296875 85.984375 178.449219 85.984375 C 176.46875 85.984375 174.773438 87.398438 174.773438 89.660156 L 174.773438 112 C 174.773438 114.261719 176.46875 115.675781 178.449219 115.675781 Z M 178.449219 115.675781 " fill-opacity="1" fill-rule="nonzero"/><path fill="#00f3f7" d="M 108.324219 160.070312 C 108.324219 163.179688 110.867188 165.726562 113.976562 165.726562 L 255.359375 165.726562 C 258.472656 165.726562 261.015625 163.179688 261.015625 160.070312 C 261.015625 156.960938 258.472656 154.414062 255.359375 154.414062 L 113.976562 154.414062 C 110.867188 154.414062 108.324219 156.960938 108.324219 160.070312 Z M 108.324219 160.070312 " fill-opacity="1" fill-rule="nonzero"/><path fill="#00f3f7" d="M 113.976562 233.589844 L 173.359375 233.589844 C 176.46875 233.589844 179.015625 231.042969 179.015625 227.933594 C 179.015625 224.824219 176.46875 222.277344 173.359375 222.277344 L 113.976562 222.277344 C 110.867188 222.277344 108.324219 224.824219 108.324219 227.933594 C 108.324219 231.042969 110.867188 233.589844 113.976562 233.589844 Z M 113.976562 233.589844 " fill-opacity="1" fill-rule="nonzero"/><path fill="#00f3f7" d="M 113.976562 256.210938 L 216.339844 256.210938 L 221.710938 244.898438 L 113.976562 244.898438 C 110.867188 244.898438 108.324219 247.445312 108.324219 250.554688 C 108.324219 253.664062 110.867188 256.210938 113.976562 256.210938 Z M 113.976562 256.210938 " fill-opacity="1" fill-rule="nonzero"/><path fill="#00f3f7" d="M 113.976562 210.96875 L 237.828125 210.96875 L 243.203125 199.65625 L 113.976562 199.65625 C 110.867188 199.65625 108.324219 202.203125 108.324219 205.3125 C 108.324219 208.421875 110.867188 210.96875 113.976562 210.96875 Z M 113.976562 210.96875 " fill-opacity="1" fill-rule="nonzero"/><path fill="#00f3f7" d="M 113.976562 188.347656 L 248.574219 188.347656 L 253.945312 177.035156 L 113.976562 177.035156 C 110.867188 177.035156 108.324219 179.582031 108.324219 182.691406 C 108.324219 185.800781 110.867188 188.347656 113.976562 188.347656 Z M 113.976562 188.347656 " fill-opacity="1" fill-rule="nonzero"/><path fill="#00f3f7" d="M 72.976562 52.621094 C 72.976562 52.621094 72.976562 301.453125 72.976562 301.453125 C 72.976562 302.867188 73.542969 304.28125 74.675781 305.410156 L 136.882812 367.621094 C 138.011719 368.75 139.425781 369.316406 140.839844 369.316406 L 282.222656 369.316406 C 291.554688 369.316406 299.191406 361.683594 299.191406 352.351562 L 299.191406 259.886719 L 287.878906 283.640625 L 287.878906 352.351562 C 287.878906 355.460938 285.335938 358.007812 282.222656 358.007812 L 146.496094 358.007812 L 146.496094 312.761719 C 146.496094 303.433594 138.863281 295.796875 129.53125 295.796875 L 84.289062 295.796875 L 84.289062 52.621094 C 84.289062 49.507812 86.832031 46.964844 89.941406 46.964844 L 282.222656 46.964844 C 285.335938 46.964844 287.878906 49.507812 287.878906 52.621094 L 287.878906 126.703125 C 289.292969 126.421875 290.988281 126.136719 292.402344 126.136719 C 294.664062 126.136719 296.925781 126.421875 299.191406 127.269531 L 299.191406 52.621094 C 299.191406 43.289062 291.554688 35.652344 282.222656 35.652344 L 89.941406 35.652344 C 80.613281 35.652344 72.976562 43.289062 72.976562 52.621094 Z M 129.53125 307.109375 C 132.640625 307.109375 135.1875 309.652344 135.1875 312.761719 L 135.1875 350.089844 L 92.207031 307.109375 Z M 129.53125 307.109375 " fill-opacity="1" fill-rule="nonzero"/><path fill="#00f3f7" d="M 319.265625 324.640625 L 309.085938 327.75 L 309.085938 339.625 L 322.660156 335.386719 C 326.902344 334.253906 330.292969 331.425781 332.554688 327.46875 C 334.535156 323.792969 335.101562 319.265625 333.96875 315.027344 L 310.78125 235.003906 L 309.085938 238.679688 L 309.085938 269.785156 L 322.941406 318.136719 C 323.226562 319.265625 323.226562 320.679688 322.375 321.8125 C 321.8125 323.507812 320.960938 324.355469 319.265625 324.640625 Z M 319.265625 324.640625 " fill-opacity="1" fill-rule="nonzero"/><path fill="#00f3f7" d="M 325.488281 152.152344 L 297.492188 138.582031 C 294.664062 137.167969 291.554688 137.167969 288.726562 138.015625 C 285.898438 139.144531 283.636719 141.125 282.222656 143.953125 L 222.84375 269.5 C 221.996094 271.195312 221.710938 273.175781 221.710938 275.15625 L 218.882812 319.832031 L 218.882812 320.117188 C 218.882812 326.054688 222.277344 328.316406 223.691406 328.882812 C 224.257812 329.164062 225.386719 329.730469 227.085938 329.730469 C 228.78125 329.730469 231.042969 329.164062 233.589844 327.183594 L 267.800781 298.058594 C 269.214844 296.929688 270.066406 295.515625 270.914062 294.101562 L 331.140625 167.140625 C 333.121094 161.484375 330.859375 154.980469 325.488281 152.152344 Z M 294.949219 143.671875 L 292.402344 148.757812 Z M 230.195312 314.742188 L 232.175781 283.921875 L 253.664062 294.667969 Z M 261.582031 286.183594 L 233.871094 272.328125 L 292.402344 148.757812 L 320.398438 162.332031 Z M 261.582031 286.183594 " fill-opacity="1" fill-rule="nonzero"/></svg>