<svg xmlns="http://www.w3.org/2000/svg" xmlns:xlink="http://www.w3.org/1999/xlink" width="500" zoomAndPan="magnify" viewBox="0 0 375 374.999991" height="500" preserveAspectRatio="xMidYMid meet" version="1.0"><defs><clipPath id="9c0befc226"><path d="M 8 4.40625 L 367 4.40625 L 367 370.40625 L 8 370.40625 Z M 8 4.40625 " clip-rule="nonzero"/></clipPath></defs><g clip-path="url(#9c0befc226)"><path fill="#00f3f7" d="M 363.660156 216.839844 L 342.878906 204.140625 C 344.03125 193.363281 344.03125 182.394531 342.878906 171.425781 L 363.660156 158.726562 C 365.96875 157.378906 367.121094 154.496094 366.546875 151.800781 C 363.851562 137.945312 359.425781 124.285156 353.460938 111.390625 C 352.304688 108.890625 349.613281 107.351562 347.109375 107.542969 L 322.867188 109.46875 C 317.476562 100.039062 310.9375 91.1875 303.625 83.105469 L 312.859375 60.59375 C 313.824219 58.089844 313.246094 55.207031 311.320312 53.28125 C 300.929688 43.660156 289.386719 35.386719 277.070312 28.265625 C 274.761719 26.917969 271.683594 27.304688 269.566406 29.035156 L 251.09375 44.816406 C 241.085938 40.390625 230.695312 36.925781 220.113281 34.808594 L 214.339844 11.140625 C 213.765625 8.449219 211.453125 6.523438 208.761719 6.136719 C 194.714844 4.40625 180.476562 4.40625 166.429688 6.136719 C 163.734375 6.523438 161.425781 8.449219 160.847656 11.140625 L 155.074219 34.808594 C 144.300781 37.117188 133.910156 40.390625 123.902344 44.816406 L 105.429688 29.035156 C 103.316406 27.304688 100.429688 26.917969 97.925781 28.265625 C 85.613281 35.195312 74.066406 43.660156 63.675781 53.28125 C 61.75 55.207031 60.980469 58.089844 62.136719 60.59375 L 71.371094 83.105469 C 64.0625 91.1875 57.710938 100.039062 52.132812 109.46875 L 27.886719 107.542969 C 25.191406 107.351562 22.5 108.890625 21.535156 111.390625 C 15.570312 124.285156 11.144531 137.945312 8.453125 151.800781 C 7.875 154.496094 9.027344 157.1875 11.335938 158.726562 L 32.121094 171.425781 C 30.964844 182.203125 30.964844 193.171875 32.121094 204.140625 L 11.335938 216.839844 C 9.027344 218.183594 7.875 221.070312 8.453125 223.765625 C 11.144531 237.621094 15.570312 251.28125 21.535156 264.175781 C 22.691406 266.675781 25.191406 268.214844 27.886719 268.023438 L 52.132812 266.097656 C 57.519531 275.527344 64.0625 284.378906 71.371094 292.460938 L 61.945312 314.972656 C 60.980469 317.472656 61.558594 320.359375 63.484375 322.285156 C 73.875 331.90625 85.417969 340.179688 97.734375 347.300781 C 100.042969 348.644531 103.121094 348.261719 105.238281 346.53125 L 123.710938 330.75 C 133.71875 335.175781 144.109375 338.640625 154.882812 340.757812 L 160.65625 364.425781 C 161.234375 367.117188 163.542969 369.042969 166.234375 369.429688 C 173.355469 370.199219 180.28125 370.582031 187.402344 370.582031 C 194.523438 370.582031 201.640625 370.199219 208.570312 369.429688 C 211.261719 369.042969 213.570312 367.117188 214.148438 364.425781 L 219.921875 340.757812 C 232.042969 338.253906 243.78125 334.214844 254.941406 328.828125 C 258.214844 327.289062 259.558594 323.4375 258.019531 320.167969 C 256.480469 316.898438 252.632812 315.550781 249.363281 317.089844 C 238.007812 322.476562 225.886719 326.519531 213.570312 328.828125 C 211.070312 329.210938 208.953125 331.136719 208.375 333.636719 L 202.796875 356.921875 C 192.789062 357.882812 182.59375 357.882812 172.394531 356.921875 L 166.8125 333.636719 C 166.234375 331.136719 164.121094 329.210938 161.617188 328.828125 C 149.109375 326.519531 137.179688 322.667969 125.828125 317.089844 C 123.519531 315.933594 120.824219 316.320312 118.707031 318.050781 L 100.429688 333.636719 C 91.769531 328.441406 83.496094 322.476562 75.796875 315.742188 L 84.84375 293.613281 C 85.804688 291.304688 85.226562 288.417969 83.496094 286.6875 C 74.835938 277.449219 67.332031 267.253906 61.367188 256.09375 C 60.210938 253.78125 57.710938 252.4375 55.210938 252.628906 L 31.347656 254.554688 C 27.308594 245.316406 24.230469 235.503906 21.921875 225.691406 L 42.316406 213.183594 C 44.433594 211.835938 45.78125 209.335938 45.394531 206.832031 C 43.664062 194.324219 43.664062 181.625 45.394531 169.117188 C 45.78125 166.617188 44.625 164.117188 42.316406 162.769531 L 21.921875 150.070312 C 24.230469 140.253906 27.308594 130.441406 31.347656 121.207031 L 55.210938 123.128906 C 57.710938 123.320312 60.210938 121.976562 61.367188 119.667969 C 67.332031 108.507812 74.835938 98.308594 83.496094 89.070312 C 85.226562 87.148438 85.804688 84.453125 84.84375 82.144531 L 75.796875 60.015625 C 83.496094 53.28125 91.578125 47.316406 100.429688 42.121094 L 118.707031 57.707031 C 120.632812 59.4375 123.519531 59.824219 125.828125 58.667969 C 137.179688 53.28125 149.304688 49.242188 161.617188 46.929688 C 164.121094 46.546875 166.234375 44.621094 166.8125 42.121094 L 172.394531 18.839844 C 182.398438 17.875 192.597656 17.875 202.796875 18.839844 L 208.375 42.121094 C 208.953125 44.621094 211.070312 46.546875 213.570312 46.929688 C 226.078125 49.242188 238.007812 53.089844 249.363281 58.667969 C 251.671875 59.824219 254.363281 59.4375 256.480469 57.707031 L 274.761719 42.121094 C 283.421875 47.316406 291.695312 53.28125 299.390625 60.015625 L 289.960938 81.953125 C 289 84.261719 289.578125 87.148438 291.308594 88.878906 C 299.96875 98.113281 307.472656 108.3125 313.4375 119.472656 C 314.59375 121.78125 317.09375 123.128906 319.59375 122.9375 L 343.457031 121.011719 C 347.496094 130.25 350.574219 140.0625 352.882812 149.875 L 332.488281 162.382812 C 330.371094 163.730469 329.023438 166.230469 329.410156 168.734375 C 331.140625 181.242188 331.140625 193.941406 329.410156 206.449219 C 329.023438 208.949219 330.179688 211.449219 332.488281 212.796875 L 352.882812 225.304688 C 350.574219 235.117188 347.496094 244.933594 343.457031 254.167969 L 319.59375 252.242188 C 317.09375 252.050781 314.59375 253.398438 313.4375 255.707031 C 309.972656 261.863281 306.125 268.023438 301.890625 273.601562 C 299.777344 276.488281 300.351562 280.53125 303.238281 282.839844 C 306.125 284.957031 310.167969 284.378906 312.476562 281.492188 C 316.324219 276.488281 319.789062 271.101562 322.867188 265.714844 L 347.109375 267.636719 C 349.804688 267.828125 352.5 266.289062 353.460938 263.789062 C 359.425781 250.898438 363.851562 237.425781 366.546875 223.378906 C 367.121094 221.070312 365.96875 218.378906 363.660156 216.839844 Z M 363.660156 216.839844 " fill-opacity="1" fill-rule="nonzero"/></g><path fill="#00f3f7" d="M 147.765625 168.15625 C 151.417969 168.15625 154.304688 165.269531 154.304688 161.613281 C 154.304688 157.957031 151.417969 155.070312 147.765625 155.070312 L 121.59375 155.070312 C 117.9375 155.070312 115.050781 157.957031 115.050781 161.613281 L 115.050781 187.78125 C 115.050781 191.4375 117.9375 194.324219 121.59375 194.324219 L 141.222656 194.324219 L 141.222656 207.410156 L 121.59375 207.410156 C 117.9375 207.410156 115.050781 210.296875 115.050781 213.953125 C 115.050781 217.609375 117.9375 220.496094 121.59375 220.496094 L 147.765625 220.496094 C 151.417969 220.496094 154.304688 217.609375 154.304688 213.953125 L 154.304688 187.78125 C 154.304688 184.128906 151.417969 181.242188 147.765625 181.242188 L 128.136719 181.242188 L 128.136719 168.15625 Z M 147.765625 168.15625 " fill-opacity="1" fill-rule="nonzero"/><path fill="#00f3f7" d="M 200.101562 168.15625 C 203.757812 168.15625 206.644531 165.269531 206.644531 161.613281 C 206.644531 157.957031 203.757812 155.070312 200.101562 155.070312 L 173.933594 155.070312 C 170.277344 155.070312 167.390625 157.957031 167.390625 161.613281 L 167.390625 213.757812 C 167.390625 217.414062 170.277344 220.300781 173.933594 220.300781 L 200.101562 220.300781 C 203.757812 220.300781 206.644531 217.414062 206.644531 213.757812 C 206.644531 210.105469 203.757812 207.21875 200.101562 207.21875 L 180.476562 207.21875 L 180.476562 194.132812 L 200.101562 194.132812 C 203.757812 194.132812 206.644531 191.246094 206.644531 187.589844 C 206.644531 183.933594 203.757812 181.046875 200.101562 181.046875 L 180.476562 181.046875 L 180.476562 167.964844 L 200.101562 167.964844 Z M 200.101562 168.15625 " fill-opacity="1" fill-rule="nonzero"/><path fill="#00f3f7" d="M 258.789062 213.953125 L 258.789062 161.613281 C 258.789062 157.957031 255.902344 155.070312 252.246094 155.070312 L 226.078125 155.070312 C 222.421875 155.070312 219.535156 157.957031 219.535156 161.613281 L 219.535156 213.757812 C 219.535156 217.414062 222.421875 220.300781 226.078125 220.300781 L 252.246094 220.300781 C 255.902344 220.496094 258.789062 217.414062 258.789062 213.953125 Z M 245.707031 207.410156 L 232.621094 207.410156 L 232.621094 168.15625 L 245.707031 168.15625 Z M 245.707031 207.410156 " fill-opacity="1" fill-rule="nonzero"/><path fill="#00f3f7" d="M 313.246094 296.691406 C 308.628906 292.074219 302.277344 289.765625 295.925781 289.957031 L 267.449219 261.480469 C 283.996094 242.621094 294.195312 217.800781 294.195312 190.863281 C 294.195312 131.597656 245.898438 83.492188 186.824219 83.492188 C 127.753906 83.492188 79.261719 131.597656 79.261719 190.863281 C 79.261719 250.128906 127.558594 298.230469 186.632812 298.230469 C 207.027344 298.230469 225.886719 292.460938 242.242188 282.644531 L 272.453125 312.855469 C 272.453125 313.046875 272.453125 313.242188 272.453125 313.625 C 272.453125 319.976562 274.953125 326.132812 279.378906 330.558594 L 303.816406 354.996094 C 308.242188 359.421875 314.398438 361.921875 320.75 361.921875 C 327.097656 361.921875 333.066406 359.421875 337.683594 354.996094 C 342.109375 350.570312 344.609375 344.414062 344.609375 338.0625 C 344.609375 331.714844 342.109375 325.75 337.683594 321.128906 Z M 92.347656 190.863281 C 92.347656 138.714844 134.679688 96.382812 186.824219 96.382812 C 238.972656 96.382812 281.304688 138.714844 281.304688 190.863281 C 281.304688 243.007812 238.972656 285.339844 186.824219 285.339844 C 134.679688 285.339844 92.347656 242.816406 92.347656 190.863281 Z M 254.941406 276.679688 L 259.558594 272.0625 L 282.074219 294.578125 C 281.109375 295.152344 280.339844 295.921875 279.570312 296.691406 C 278.800781 297.460938 278.226562 298.425781 277.453125 299.195312 Z M 328.445312 345.566406 C 324.40625 349.609375 317.09375 349.609375 313.054688 345.566406 L 288.617188 321.128906 C 286.5 319.011719 285.34375 316.320312 285.34375 313.433594 C 285.34375 310.546875 286.5 307.851562 288.617188 305.738281 C 290.539062 303.8125 293.425781 302.464844 296.3125 302.464844 C 299.199219 302.464844 301.890625 303.621094 304.007812 305.738281 L 328.445312 330.175781 C 330.5625 332.289062 331.71875 334.984375 331.71875 337.871094 C 331.71875 340.757812 330.5625 343.644531 328.445312 345.566406 Z M 328.445312 345.566406 " fill-opacity="1" fill-rule="nonzero"/></svg>