<svg xmlns="http://www.w3.org/2000/svg" xmlns:xlink="http://www.w3.org/1999/xlink" width="500" zoomAndPan="magnify" viewBox="0 0 375 374.999991" height="500" preserveAspectRatio="xMidYMid meet" version="1.0"><defs><clipPath id="1498c92b41"><path d="M 4.804688 4.804688 L 331 4.804688 L 331 331 L 4.804688 331 Z M 4.804688 4.804688 " clip-rule="nonzero"/></clipPath><clipPath id="c97c8fd617"><path d="M 102 103 L 370.054688 103 L 370.054688 370 L 102 370 Z M 102 103 " clip-rule="nonzero"/></clipPath></defs><g clip-path="url(#1498c92b41)"><path fill="#00f3f7" d="M 156.070312 318.867188 L 32.867188 318.867188 C 23.640625 318.867188 16.144531 311.371094 16.144531 302.144531 L 16.144531 80.726562 L 318.867188 80.726562 L 318.867188 156.453125 C 318.867188 159.527344 321.363281 162.027344 324.4375 162.027344 C 327.515625 162.027344 330.011719 159.527344 330.011719 156.453125 L 330.011719 33.058594 C 330.011719 17.683594 317.519531 4.996094 301.953125 4.996094 L 32.867188 4.996094 C 17.296875 4.996094 4.804688 17.492188 4.804688 33.058594 L 4.804688 302.144531 C 4.804688 317.519531 17.296875 330.207031 32.867188 330.207031 L 156.070312 330.207031 C 159.144531 330.207031 161.644531 327.707031 161.644531 324.632812 C 161.644531 321.554688 159.144531 318.867188 156.070312 318.867188 Z M 32.867188 16.144531 L 301.953125 16.144531 C 311.175781 16.144531 318.671875 23.640625 318.671875 32.867188 L 318.671875 69.386719 L 15.953125 69.386719 L 15.953125 32.867188 C 15.953125 23.832031 23.640625 16.144531 32.867188 16.144531 Z M 32.867188 16.144531 " fill-opacity="1" fill-rule="nonzero"/></g><path fill="#00f3f7" d="M 44.015625 58.238281 L 66.503906 58.238281 C 69.578125 58.238281 72.074219 55.738281 72.074219 52.664062 L 72.074219 30.175781 C 72.074219 27.101562 69.578125 24.601562 66.503906 24.601562 L 44.015625 24.601562 C 40.9375 24.601562 38.441406 27.101562 38.441406 30.175781 L 38.441406 52.664062 C 38.441406 55.738281 40.9375 58.238281 44.015625 58.238281 Z M 49.589844 35.75 L 60.734375 35.75 L 60.734375 46.898438 L 49.589844 46.898438 Z M 49.589844 35.75 " fill-opacity="1" fill-rule="nonzero"/><path fill="#00f3f7" d="M 88.796875 58.238281 L 111.285156 58.238281 C 114.359375 58.238281 116.859375 55.738281 116.859375 52.664062 L 116.859375 30.175781 C 116.859375 27.101562 114.359375 24.601562 111.285156 24.601562 L 88.796875 24.601562 C 85.722656 24.601562 83.222656 27.101562 83.222656 30.175781 L 83.222656 52.664062 C 83.222656 55.738281 85.722656 58.238281 88.796875 58.238281 Z M 94.5625 35.75 L 105.710938 35.75 L 105.710938 46.898438 L 94.5625 46.898438 Z M 94.5625 35.75 " fill-opacity="1" fill-rule="nonzero"/><path fill="#00f3f7" d="M 133.773438 58.238281 L 156.261719 58.238281 C 159.335938 58.238281 161.835938 55.738281 161.835938 52.664062 L 161.835938 30.175781 C 161.835938 27.101562 159.335938 24.601562 156.261719 24.601562 L 133.773438 24.601562 C 130.699219 24.601562 128.199219 27.101562 128.199219 30.175781 L 128.199219 52.664062 C 128.007812 55.738281 130.699219 58.238281 133.773438 58.238281 Z M 139.347656 35.75 L 150.496094 35.75 L 150.496094 46.898438 L 139.347656 46.898438 Z M 139.347656 35.75 " fill-opacity="1" fill-rule="nonzero"/><path fill="#00f3f7" d="M 181.246094 195.472656 C 184.324219 195.472656 186.820312 192.972656 186.820312 189.898438 C 186.820312 186.820312 184.324219 184.324219 181.246094 184.324219 L 158.953125 184.324219 C 155.875 184.324219 153.378906 186.820312 153.378906 189.898438 L 153.378906 212.382812 C 153.378906 215.460938 155.875 217.957031 158.953125 217.957031 L 175.671875 217.957031 L 175.671875 229.105469 L 158.953125 229.105469 C 155.875 229.105469 153.378906 231.605469 153.378906 234.679688 C 153.378906 237.753906 155.875 240.253906 158.953125 240.253906 L 181.441406 240.253906 C 184.515625 240.253906 187.015625 237.753906 187.015625 234.679688 L 187.015625 212.191406 C 187.015625 209.117188 184.515625 206.617188 181.441406 206.617188 L 164.71875 206.617188 L 164.71875 195.472656 Z M 181.246094 195.472656 " fill-opacity="1" fill-rule="nonzero"/><path fill="#00f3f7" d="M 226.222656 195.472656 C 229.296875 195.472656 231.796875 192.972656 231.796875 189.898438 C 231.796875 186.820312 229.296875 184.324219 226.222656 184.324219 L 203.734375 184.324219 C 200.660156 184.324219 198.160156 186.820312 198.160156 189.898438 L 198.160156 234.679688 C 198.160156 237.753906 200.660156 240.253906 203.734375 240.253906 L 226.222656 240.253906 C 229.296875 240.253906 231.796875 237.753906 231.796875 234.679688 C 231.796875 231.605469 229.296875 229.105469 226.222656 229.105469 L 209.5 229.105469 L 209.5 217.957031 L 226.222656 217.957031 C 229.296875 217.957031 231.796875 215.460938 231.796875 212.382812 C 231.796875 209.308594 229.296875 206.8125 226.222656 206.8125 L 209.5 206.8125 L 209.5 195.664062 L 226.222656 195.664062 Z M 226.222656 195.472656 " fill-opacity="1" fill-rule="nonzero"/><path fill="#00f3f7" d="M 271.007812 184.324219 L 248.519531 184.324219 C 245.445312 184.324219 242.945312 186.820312 242.945312 189.898438 L 242.945312 234.679688 C 242.945312 237.753906 245.445312 240.253906 248.519531 240.253906 L 271.007812 240.253906 C 274.082031 240.253906 276.582031 237.753906 276.582031 234.679688 L 276.582031 189.898438 C 276.582031 186.820312 274.082031 184.324219 271.007812 184.324219 Z M 265.433594 229.105469 L 254.285156 229.105469 L 254.285156 195.472656 L 265.433594 195.472656 Z M 265.433594 229.105469 " fill-opacity="1" fill-rule="nonzero"/><path fill="#00f3f7" d="M 214.691406 122.625 C 163.757812 122.625 122.433594 163.949219 122.433594 214.882812 C 122.433594 265.816406 163.757812 307.140625 214.691406 307.140625 C 265.625 307.140625 306.949219 265.816406 306.949219 214.882812 C 306.949219 163.949219 265.625 122.625 214.691406 122.625 Z M 214.691406 295.992188 C 170.101562 295.992188 133.582031 259.667969 133.582031 214.882812 C 133.582031 170.101562 170.101562 133.964844 214.691406 133.964844 C 259.28125 133.964844 295.800781 170.292969 295.800781 215.074219 C 295.800781 259.859375 259.472656 295.992188 214.691406 295.992188 Z M 214.691406 295.992188 " fill-opacity="1" fill-rule="nonzero"/><g clip-path="url(#c97c8fd617)"><path fill="#00f3f7" d="M 364.035156 335.203125 L 343.082031 314.253906 C 339.046875 310.214844 333.664062 308.292969 328.089844 308.488281 L 302.914062 283.5 C 317.710938 264.472656 326.554688 240.832031 326.554688 215.074219 C 326.554688 153.378906 276.386719 103.214844 214.691406 103.214844 C 152.992188 103.214844 102.828125 153.1875 102.828125 214.882812 C 102.828125 276.582031 152.992188 326.746094 214.691406 326.746094 C 240.445312 326.746094 264.085938 317.90625 283.117188 303.105469 L 308.101562 328.089844 C 308.101562 328.285156 308.101562 328.476562 308.101562 328.667969 C 308.101562 334.050781 310.214844 339.429688 314.058594 343.082031 L 335.011719 364.035156 C 338.855469 367.878906 344.042969 369.992188 349.617188 369.992188 C 355.191406 369.992188 360.1875 367.878906 364.226562 364.035156 C 368.070312 360.1875 370.183594 355 370.183594 349.617188 C 369.992188 344.234375 367.878906 339.046875 364.035156 335.203125 Z M 114.167969 214.882812 C 114.167969 159.335938 159.335938 114.167969 214.882812 114.167969 C 270.429688 114.167969 315.597656 159.335938 315.597656 214.882812 C 315.597656 270.429688 270.429688 315.597656 214.882812 315.597656 C 159.335938 315.597656 114.167969 270.429688 114.167969 214.882812 Z M 292.917969 297.144531 L 296.953125 293.109375 L 316.175781 312.332031 C 315.40625 312.90625 314.636719 313.484375 313.867188 314.058594 C 313.097656 314.828125 312.714844 315.597656 312.136719 316.175781 Z M 355.960938 356.152344 C 352.5 359.613281 346.351562 359.613281 342.699219 356.152344 L 321.941406 335.394531 C 320.210938 333.664062 319.25 331.167969 319.25 328.859375 C 319.25 326.363281 320.210938 324.054688 321.941406 322.324219 C 323.671875 320.59375 325.976562 319.632812 328.476562 319.632812 C 330.972656 319.632812 333.28125 320.59375 335.011719 322.324219 L 355.960938 343.273438 C 357.691406 345.003906 358.652344 347.3125 358.652344 349.808594 C 358.84375 352.117188 357.882812 354.421875 355.960938 356.152344 Z M 355.960938 356.152344 " fill-opacity="1" fill-rule="nonzero"/></g></svg>