<svg xmlns="http://www.w3.org/2000/svg" xmlns:xlink="http://www.w3.org/1999/xlink" width="500" zoomAndPan="magnify" viewBox="0 0 375 374.999991" height="500" preserveAspectRatio="xMidYMid meet" version="1.0"><defs><clipPath id="ec8b98c972"><path d="M 267 317 L 291 317 L 291 371.078125 L 267 371.078125 Z M 267 317 " clip-rule="nonzero"/></clipPath><clipPath id="044f7aa4f7"><path d="M 80 3.578125 L 234 3.578125 L 234 157 L 80 157 Z M 80 3.578125 " clip-rule="nonzero"/></clipPath><clipPath id="7a14efe35f"><path d="M 18.75 187 L 234 187 L 234 326 L 18.75 326 Z M 18.75 187 " clip-rule="nonzero"/></clipPath></defs><path fill="#00f3f7" d="M 279.460938 340.761719 C 249.878906 340.761719 225.816406 316.699219 225.816406 287.121094 C 225.816406 257.539062 249.878906 233.476562 279.460938 233.476562 C 309.039062 233.476562 333.101562 257.539062 333.101562 287.121094 C 333.101562 316.699219 309.039062 340.761719 279.460938 340.761719 Z M 279.460938 256.464844 C 262.554688 256.464844 248.804688 270.214844 248.804688 287.121094 C 248.804688 304.023438 262.554688 317.773438 279.460938 317.773438 C 296.367188 317.773438 310.113281 304.023438 310.113281 287.121094 C 310.113281 270.214844 296.367188 256.464844 279.460938 256.464844 Z M 279.460938 256.464844 " fill-opacity="1" fill-rule="nonzero"/><g clip-path="url(#ec8b98c972)"><path fill="#00f3f7" d="M 279.460938 371.417969 C 273.113281 371.417969 267.964844 366.265625 267.964844 359.921875 L 267.964844 329.269531 C 267.964844 322.921875 273.113281 317.773438 279.460938 317.773438 C 285.804688 317.773438 290.953125 322.921875 290.953125 329.269531 L 290.953125 359.921875 C 290.953125 366.265625 285.804688 371.417969 279.460938 371.417969 Z M 279.460938 371.417969 " fill-opacity="1" fill-rule="nonzero"/></g><path fill="#00f3f7" d="M 279.460938 256.464844 C 273.113281 256.464844 267.964844 251.316406 267.964844 244.972656 L 267.964844 214.316406 C 267.964844 207.972656 273.113281 202.824219 279.460938 202.824219 C 285.804688 202.824219 290.953125 207.972656 290.953125 214.316406 L 290.953125 244.972656 C 290.953125 251.316406 285.804688 256.464844 279.460938 256.464844 Z M 279.460938 256.464844 " fill-opacity="1" fill-rule="nonzero"/><path fill="#00f3f7" d="M 315.9375 277.617188 C 311.96875 277.617188 308.105469 275.5625 305.976562 271.871094 C 302.800781 266.367188 304.6875 259.347656 310.175781 256.160156 L 336.691406 240.832031 C 342.175781 237.660156 349.210938 239.546875 352.398438 245.03125 C 355.570312 250.535156 353.6875 257.554688 348.199219 260.742188 L 321.683594 276.070312 C 319.875 277.125 317.898438 277.617188 315.9375 277.617188 Z M 315.9375 277.617188 " fill-opacity="1" fill-rule="nonzero"/><path fill="#00f3f7" d="M 216.484375 334.9375 C 212.511719 334.9375 208.652344 332.886719 206.519531 329.191406 C 203.347656 323.6875 205.234375 316.667969 210.71875 313.480469 L 237.234375 298.15625 C 242.722656 294.964844 249.757812 296.867188 252.945312 302.355469 C 256.117188 307.855469 254.230469 314.875 248.746094 318.0625 L 222.230469 333.390625 C 220.40625 334.449219 218.429688 334.9375 216.484375 334.9375 Z M 216.484375 334.9375 " fill-opacity="1" fill-rule="nonzero"/><path fill="#00f3f7" d="M 242.984375 277.617188 C 241.035156 277.617188 239.042969 277.125 237.234375 276.070312 L 210.71875 260.742188 C 205.234375 257.554688 203.347656 250.535156 206.519531 245.03125 C 209.707031 239.546875 216.742188 237.660156 222.230469 240.832031 L 248.746094 256.160156 C 254.230469 259.347656 256.117188 266.367188 252.945312 271.871094 C 250.800781 275.5625 246.9375 277.617188 242.984375 277.617188 Z M 242.984375 277.617188 " fill-opacity="1" fill-rule="nonzero"/><path fill="#00f3f7" d="M 342.4375 334.9375 C 340.492188 334.9375 338.5 334.449219 336.691406 333.390625 L 310.175781 318.0625 C 304.6875 314.875 302.800781 307.855469 305.976562 302.355469 C 309.164062 296.867188 316.199219 294.980469 321.683594 298.15625 L 348.199219 313.480469 C 353.6875 316.667969 355.570312 323.6875 352.398438 329.191406 C 350.269531 332.886719 346.40625 334.9375 342.4375 334.9375 Z M 342.4375 334.9375 " fill-opacity="1" fill-rule="nonzero"/><g clip-path="url(#044f7aa4f7)"><path fill="#00f3f7" d="M 156.847656 156.84375 C 114.589844 156.84375 80.214844 122.464844 80.214844 80.210938 C 80.214844 37.953125 114.589844 3.578125 156.847656 3.578125 C 199.101562 3.578125 233.480469 37.953125 233.480469 80.210938 C 233.480469 122.464844 199.101562 156.84375 156.847656 156.84375 Z M 156.847656 26.566406 C 127.265625 26.566406 103.203125 50.628906 103.203125 80.210938 C 103.203125 109.789062 127.265625 133.851562 156.847656 133.851562 C 186.425781 133.851562 210.488281 109.789062 210.488281 80.210938 C 210.488281 50.628906 186.425781 26.566406 156.847656 26.566406 Z M 156.847656 26.566406 " fill-opacity="1" fill-rule="nonzero"/></g><g clip-path="url(#7a14efe35f)"><path fill="#00f3f7" d="M 172.171875 325.4375 L 30.402344 325.4375 C 24.054688 325.4375 18.90625 320.285156 18.90625 313.941406 L 18.90625 260.296875 C 18.90625 220.15625 51.566406 187.496094 91.707031 187.496094 L 221.984375 187.496094 C 228.332031 187.496094 233.480469 192.644531 233.480469 198.992188 C 233.480469 205.335938 228.332031 210.484375 221.984375 210.484375 L 91.707031 210.484375 C 64.242188 210.484375 41.898438 232.832031 41.898438 260.296875 L 41.898438 302.445312 L 172.171875 302.445312 C 178.519531 302.445312 183.667969 307.597656 183.667969 313.941406 C 183.667969 320.285156 178.519531 325.4375 172.171875 325.4375 Z M 172.171875 325.4375 " fill-opacity="1" fill-rule="nonzero"/></g></svg>