<svg xmlns="http://www.w3.org/2000/svg" xmlns:xlink="http://www.w3.org/1999/xlink" width="500" zoomAndPan="magnify" viewBox="0 0 375 374.999991" height="500" preserveAspectRatio="xMidYMid meet" version="1.0"><defs><clipPath id="74f7683414"><path d="M 290 7.566406 L 367.566406 7.566406 L 367.566406 85 L 290 85 Z M 290 7.566406 " clip-rule="nonzero"/></clipPath><clipPath id="634899c202"><path d="M 296 303 L 367.566406 303 L 367.566406 367.566406 L 296 367.566406 Z M 296 303 " clip-rule="nonzero"/></clipPath><clipPath id="5531869a47"><path d="M 277 142 L 367.566406 142 L 367.566406 233 L 277 233 Z M 277 142 " clip-rule="nonzero"/></clipPath><clipPath id="8ca60bebaa"><path d="M 7.566406 161 L 34 161 L 34 214 L 7.566406 214 Z M 7.566406 161 " clip-rule="nonzero"/></clipPath></defs><g clip-path="url(#74f7683414)"><path fill="#00f3f7" d="M 354.574219 39.695312 L 341.722656 39.695312 L 341.722656 36.484375 C 341.722656 34.703125 340.289062 33.269531 338.507812 33.269531 C 336.726562 33.269531 335.296875 34.703125 335.296875 36.484375 L 335.296875 46.121094 L 348.148438 46.121094 L 348.148438 58.976562 L 335.296875 58.976562 L 335.296875 71.828125 L 322.441406 71.828125 L 322.441406 58.976562 L 309.589844 58.976562 L 309.589844 46.121094 L 322.441406 46.121094 L 322.441406 36.484375 C 322.441406 27.621094 329.648438 20.417969 338.507812 20.417969 C 347.371094 20.417969 354.574219 27.621094 354.574219 36.484375 Z M 328.871094 7.566406 C 307.609375 7.566406 290.3125 24.863281 290.3125 46.121094 C 290.3125 67.382812 307.609375 84.679688 328.871094 84.679688 C 350.128906 84.679688 367.425781 67.382812 367.425781 46.121094 C 367.425781 24.863281 350.128906 7.566406 328.871094 7.566406 " fill-opacity="1" fill-rule="nonzero"/></g><g clip-path="url(#634899c202)"><path fill="#00f3f7" d="M 361 367.425781 L 303.164062 367.425781 C 299.625 367.425781 296.738281 364.539062 296.738281 361 L 296.738281 341.722656 L 307.28125 341.722656 C 310.167969 352.765625 320.132812 361 332.082031 361 C 344.03125 361 353.996094 352.765625 356.882812 341.722656 L 367.425781 341.722656 L 367.425781 361 C 367.425781 364.539062 364.539062 367.425781 361 367.425781 Z M 344.933594 335.296875 C 344.933594 342.375 339.160156 348.148438 332.082031 348.148438 C 325.003906 348.148438 319.230469 342.375 319.230469 335.296875 C 319.230469 328.214844 325.003906 322.441406 332.082031 322.441406 C 339.160156 322.441406 344.933594 328.214844 344.933594 335.296875 Z M 361 303.164062 C 364.539062 303.164062 367.425781 306.050781 367.425781 309.589844 L 367.425781 328.871094 L 356.882812 328.871094 C 353.996094 317.824219 344.03125 309.589844 332.082031 309.589844 C 320.132812 309.589844 310.167969 317.824219 307.28125 328.871094 L 296.738281 328.871094 L 296.738281 309.589844 C 296.738281 306.050781 299.625 303.164062 303.164062 303.164062 L 361 303.164062 " fill-opacity="1" fill-rule="nonzero"/></g><path fill="#00f3f7" d="M 332.082031 174.644531 C 330.300781 174.644531 328.871094 176.074219 328.871094 177.855469 L 328.871094 183.53125 C 328.871094 188.023438 326.585938 192.089844 322.769531 194.449219 C 318.953125 196.808594 314.285156 197.035156 310.269531 195.027344 L 306.476562 193.117188 C 308.511719 198.84375 313.003906 203.285156 318.855469 205.21875 C 321.164062 205.996094 323.722656 205.996094 326.03125 205.21875 L 327.488281 204.742188 C 332.15625 203.183594 335.296875 198.84375 335.296875 193.921875 L 335.296875 177.855469 C 335.296875 176.074219 333.863281 174.644531 332.082031 174.644531 " fill-opacity="1" fill-rule="nonzero"/><g clip-path="url(#5531869a47)"><path fill="#00f3f7" d="M 348.148438 187.496094 L 348.148438 193.921875 C 348.148438 204.390625 341.46875 213.628906 331.554688 216.941406 L 330.097656 217.417969 C 327.640625 218.246094 325.027344 218.648438 322.441406 218.648438 C 319.832031 218.648438 317.246094 218.246094 314.789062 217.417969 C 304.144531 213.878906 296.160156 205.269531 293.449219 194.375 L 290.515625 182.625 C 289.886719 180.191406 290.765625 177.632812 292.722656 176.050781 C 294.679688 174.492188 297.367188 174.191406 299.625 175.320312 L 316.015625 183.53125 L 316.015625 177.855469 C 316.015625 168.996094 323.222656 161.792969 332.082031 161.792969 C 339.839844 161.792969 346.339844 167.3125 347.820312 174.644531 L 354.574219 174.644531 L 354.574219 187.496094 Z M 322.441406 142.511719 C 297.644531 142.511719 277.460938 162.695312 277.460938 187.496094 C 277.460938 212.296875 297.644531 232.476562 322.441406 232.476562 C 347.242188 232.476562 367.425781 212.296875 367.425781 187.496094 C 367.425781 162.695312 347.242188 142.511719 322.441406 142.511719 " fill-opacity="1" fill-rule="nonzero"/></g><path fill="#00f3f7" d="M 226.050781 181.070312 L 213.199219 181.070312 L 213.199219 193.921875 L 226.050781 193.921875 L 226.050781 181.070312 " fill-opacity="1" fill-rule="nonzero"/><path fill="#00f3f7" d="M 251.757812 181.070312 L 238.90625 181.070312 L 238.90625 193.921875 L 251.757812 193.921875 L 251.757812 181.070312 " fill-opacity="1" fill-rule="nonzero"/><path fill="#00f3f7" d="M 223.066406 128.933594 C 219.25 130.363281 215.308594 131.644531 211.34375 132.722656 L 214.679688 145.125 C 219.050781 143.945312 223.417969 142.539062 227.609375 140.957031 L 223.066406 128.933594 " fill-opacity="1" fill-rule="nonzero"/><path fill="#00f3f7" d="M 290.386719 92.109375 L 290.890625 91.40625 L 280.371094 84.027344 L 279.871094 84.730469 C 277.660156 87.867188 275.300781 90.929688 272.84375 93.816406 L 282.632812 102.148438 C 285.34375 98.9375 287.976562 95.574219 290.386719 92.109375 " fill-opacity="1" fill-rule="nonzero"/><path fill="#00f3f7" d="M 255.121094 110.859375 L 263.050781 120.976562 C 266.589844 118.191406 270.054688 115.175781 273.320312 112.066406 L 264.40625 102.777344 C 261.472656 105.613281 258.332031 108.324219 255.121094 110.859375 " fill-opacity="1" fill-rule="nonzero"/><path fill="#00f3f7" d="M 245.054688 117.9375 C 241.589844 120.148438 237.976562 122.179688 234.335938 123.988281 L 240.085938 135.484375 C 244.101562 133.476562 248.089844 131.21875 251.933594 128.808594 L 245.054688 117.9375 " fill-opacity="1" fill-rule="nonzero"/><path fill="#00f3f7" d="M 264.40625 272.214844 L 273.320312 262.925781 C 270.054688 259.8125 266.589844 256.800781 263.050781 254.015625 L 255.121094 264.132812 C 258.332031 266.667969 261.472656 269.378906 264.40625 272.214844 " fill-opacity="1" fill-rule="nonzero"/><path fill="#00f3f7" d="M 280.371094 290.964844 L 290.890625 283.585938 L 290.386719 282.882812 C 287.976562 279.417969 285.34375 276.054688 282.632812 272.84375 L 272.84375 281.175781 C 275.300781 284.0625 277.660156 287.125 279.871094 290.261719 L 280.371094 290.964844 " fill-opacity="1" fill-rule="nonzero"/><path fill="#00f3f7" d="M 223.066406 246.058594 L 227.609375 234.035156 C 223.417969 232.453125 219.050781 231.046875 214.679688 229.867188 L 211.34375 242.269531 C 215.308594 243.347656 219.25 244.628906 223.066406 246.058594 " fill-opacity="1" fill-rule="nonzero"/><path fill="#00f3f7" d="M 245.054688 257.054688 L 251.933594 246.183594 C 248.089844 243.773438 244.101562 241.515625 240.085938 239.507812 L 234.335938 251.003906 C 237.976562 252.8125 241.589844 254.84375 245.054688 257.054688 " fill-opacity="1" fill-rule="nonzero"/><g clip-path="url(#8ca60bebaa)"><path fill="#00f3f7" d="M 7.566406 181.070312 L 7.566406 193.921875 C 7.566406 204.566406 16.203125 213.199219 26.84375 213.199219 L 33.269531 213.199219 L 33.269531 161.792969 L 26.84375 161.792969 C 16.203125 161.792969 7.566406 170.425781 7.566406 181.070312 " fill-opacity="1" fill-rule="nonzero"/></g><path fill="#00f3f7" d="M 63.792969 193.921875 L 76.644531 193.921875 L 76.644531 206.773438 L 63.792969 206.773438 Z M 63.792969 168.21875 L 76.644531 168.21875 L 76.644531 181.070312 L 63.792969 181.070312 Z M 46.121094 219.625 L 97.53125 219.625 L 97.53125 155.367188 L 46.121094 155.367188 L 46.121094 219.625 " fill-opacity="1" fill-rule="nonzero"/><path fill="#00f3f7" d="M 65.402344 277.460938 C 65.402344 281 68.289062 283.886719 71.828125 283.886719 C 75.367188 283.886719 78.253906 281 78.253906 277.460938 L 78.253906 232.476562 L 65.402344 232.476562 L 65.402344 277.460938 " fill-opacity="1" fill-rule="nonzero"/><path fill="#00f3f7" d="M 110.382812 215.007812 L 127.074219 220.554688 C 139.351562 224.648438 150.773438 230.644531 161.089844 238.378906 L 161.792969 238.90625 L 161.792969 137.394531 C 146.78125 149.140625 129.308594 157.121094 110.382812 160.710938 L 110.382812 215.007812 " fill-opacity="1" fill-rule="nonzero"/><path fill="#00f3f7" d="M 181.070312 110.382812 C 177.53125 110.382812 174.644531 113.269531 174.644531 116.808594 L 174.644531 258.183594 C 174.644531 261.722656 177.53125 264.609375 181.070312 264.609375 C 184.609375 264.609375 187.496094 261.722656 187.496094 258.183594 L 187.496094 116.808594 C 187.496094 113.269531 184.609375 110.382812 181.070312 110.382812 " fill-opacity="1" fill-rule="nonzero"/></svg>