<svg xmlns="http://www.w3.org/2000/svg" xmlns:xlink="http://www.w3.org/1999/xlink" width="500" zoomAndPan="magnify" viewBox="0 0 375 374.999991" height="500" preserveAspectRatio="xMidYMid meet" version="1.0"><defs><clipPath id="75e10ca0e0"><path d="M 270 359 L 283 359 L 283 371.871094 L 270 371.871094 Z M 270 359 " clip-rule="nonzero"/></clipPath><clipPath id="e065d67399"><path d="M 295 359 L 309 359 L 309 371.871094 L 295 371.871094 Z M 295 359 " clip-rule="nonzero"/></clipPath><clipPath id="1568b766ff"><path d="M 193 2.871094 L 371.871094 2.871094 L 371.871094 131 L 193 131 Z M 193 2.871094 " clip-rule="nonzero"/></clipPath><clipPath id="9d4161b816"><path d="M 321 359 L 334 359 L 334 371.871094 L 321 371.871094 Z M 321 359 " clip-rule="nonzero"/></clipPath><clipPath id="497d56813b"><path d="M 2.871094 333 L 371.871094 333 L 371.871094 371.871094 L 2.871094 371.871094 Z M 2.871094 333 " clip-rule="nonzero"/></clipPath></defs><path fill="#00f3f7" d="M 83.421875 132.660156 C 84.886719 127.4375 86.902344 122.390625 89.140625 117.464844 L 53.800781 117.464844 L 53.800781 295.722656 L 321.1875 295.722656 L 321.1875 142.929688 L 308.453125 142.929688 L 308.453125 185.703125 L 291.570312 191.398438 C 289.257812 199.582031 286 207.4375 281.84375 214.851562 L 289.777344 230.816406 L 256.28125 264.3125 L 240.316406 256.378906 C 232.90625 260.535156 225.046875 263.792969 216.863281 266.105469 L 211.167969 282.988281 L 163.820312 282.988281 L 158.125 266.105469 C 149.945312 263.792969 142.085938 260.535156 134.675781 256.378906 L 118.707031 264.3125 L 85.210938 230.816406 L 93.144531 214.851562 C 88.992188 207.4375 85.734375 199.582031 83.421875 191.398438 L 66.535156 185.703125 L 66.535156 138.355469 L 83.421875 132.660156 " fill-opacity="1" fill-rule="nonzero"/><path fill="#00f3f7" d="M 346.652344 142.929688 L 333.921875 142.929688 L 333.921875 295.722656 C 333.921875 302.734375 328.199219 308.453125 321.1875 308.453125 L 53.800781 308.453125 C 46.789062 308.453125 41.070312 302.734375 41.070312 295.722656 L 41.070312 117.464844 C 41.070312 110.453125 46.789062 104.734375 53.800781 104.734375 L 90.929688 104.734375 L 85.210938 93.242188 L 86.453125 92 L 47.4375 92 C 36.890625 92 28.335938 100.554688 28.335938 111.097656 L 28.335938 321.1875 L 346.652344 321.1875 L 346.652344 142.929688 " fill-opacity="1" fill-rule="nonzero"/><path fill="#00f3f7" d="M 79.269531 176.554688 L 94.0625 181.527344 L 94.886719 184.933594 C 97.199219 194.234375 100.851562 203.113281 105.828125 211.320312 L 107.640625 214.304688 L 100.679688 228.277344 L 121.246094 248.84375 L 135.222656 241.882812 L 138.207031 243.699219 C 146.414062 248.671875 155.289062 252.351562 164.589844 254.640625 L 168 255.460938 L 172.972656 270.257812 L 202.019531 270.257812 L 206.992188 255.460938 L 210.398438 254.640625 C 219.699219 252.351562 228.578125 248.671875 236.785156 243.699219 L 239.769531 241.882812 L 253.746094 248.84375 L 274.308594 228.277344 L 267.347656 214.304688 L 269.164062 211.320312 C 274.136719 203.113281 277.792969 194.234375 280.105469 184.933594 L 280.925781 181.527344 L 295.722656 176.554688 L 295.722656 142.929688 L 267.992188 142.929688 C 269.460938 149.148438 270.257812 155.539062 270.257812 162.03125 C 270.257812 207.664062 233.128906 244.792969 187.496094 244.792969 C 141.863281 244.792969 104.734375 207.664062 104.734375 162.03125 C 104.734375 118.535156 138.453125 82.875 181.128906 79.589844 L 181.128906 53.800781 L 172.972656 53.800781 L 168 68.597656 L 164.589844 69.417969 C 155.289062 71.734375 146.414062 75.386719 138.207031 80.363281 L 135.222656 82.175781 L 121.246094 75.214844 L 100.679688 95.78125 L 107.640625 109.757812 L 105.828125 112.742188 C 100.851562 120.945312 97.199219 129.824219 94.886719 139.125 L 94.0625 142.53125 L 79.269531 147.507812 L 79.269531 176.554688 " fill-opacity="1" fill-rule="nonzero"/><path fill="#00f3f7" d="M 155.664062 224.324219 L 155.664062 193.859375 L 142.929688 193.859375 L 142.929688 215.992188 C 146.835938 219.226562 151.113281 221.988281 155.664062 224.324219 " fill-opacity="1" fill-rule="nonzero"/><path fill="#00f3f7" d="M 206.59375 168.394531 L 193.859375 168.394531 L 193.859375 231.734375 C 198.238281 231.335938 202.492188 230.515625 206.59375 229.347656 L 206.59375 168.394531 " fill-opacity="1" fill-rule="nonzero"/><path fill="#00f3f7" d="M 181.128906 231.734375 L 181.128906 181.128906 L 168.394531 181.128906 L 168.394531 229.347656 C 172.5 230.515625 176.75 231.335938 181.128906 231.734375 " fill-opacity="1" fill-rule="nonzero"/><g clip-path="url(#75e10ca0e0)"><path fill="#00f3f7" d="M 270.257812 365.75 L 270.257812 372.117188 L 282.988281 372.117188 L 282.988281 359.386719 L 276.625 359.386719 C 273.117188 359.386719 270.257812 362.246094 270.257812 365.75 " fill-opacity="1" fill-rule="nonzero"/></g><path fill="#00f3f7" d="M 219.328125 142.929688 L 219.328125 224.324219 C 223.878906 221.988281 228.15625 219.226562 232.058594 215.992188 L 232.058594 142.929688 L 219.328125 142.929688 " fill-opacity="1" fill-rule="nonzero"/><g clip-path="url(#e065d67399)"><path fill="#00f3f7" d="M 295.722656 372.117188 L 308.453125 372.117188 L 308.453125 359.386719 L 295.722656 359.386719 L 295.722656 372.117188 " fill-opacity="1" fill-rule="nonzero"/></g><path fill="#00f3f7" d="M 333.921875 29.902344 L 321.1875 32.738281 L 321.1875 87.597656 L 333.921875 90.433594 L 333.921875 29.902344 " fill-opacity="1" fill-rule="nonzero"/><path fill="#00f3f7" d="M 244.792969 49.699219 L 232.058594 52.535156 L 232.058594 67.804688 L 244.792969 70.636719 L 244.792969 49.699219 " fill-opacity="1" fill-rule="nonzero"/><g clip-path="url(#1568b766ff)"><path fill="#00f3f7" d="M 346.652344 106.300781 L 282.988281 92.148438 L 282.988281 98.367188 C 282.988281 108.910156 274.433594 117.464844 263.890625 117.464844 L 251.15625 117.464844 C 240.613281 117.464844 232.058594 108.910156 232.058594 98.367188 L 232.058594 80.835938 L 219.328125 78 L 219.328125 42.339844 L 346.652344 14.039062 Z M 365.75 2.871094 L 200.226562 2.871094 C 196.722656 2.871094 193.859375 5.730469 193.859375 9.238281 L 193.859375 123.832031 C 193.859375 127.339844 196.722656 130.199219 200.226562 130.199219 L 365.75 130.199219 C 369.257812 130.199219 372.117188 127.339844 372.117188 123.832031 L 372.117188 9.238281 C 372.117188 5.730469 369.257812 2.871094 365.75 2.871094 " fill-opacity="1" fill-rule="nonzero"/></g><path fill="#00f3f7" d="M 308.453125 35.574219 L 257.523438 46.890625 L 257.523438 73.449219 L 308.453125 84.761719 L 308.453125 35.574219 " fill-opacity="1" fill-rule="nonzero"/><path fill="#00f3f7" d="M 244.792969 98.367188 C 244.792969 101.871094 247.652344 104.734375 251.15625 104.734375 L 263.890625 104.734375 C 267.398438 104.734375 270.257812 101.871094 270.257812 98.367188 L 270.257812 89.339844 L 244.792969 83.667969 L 244.792969 98.367188 " fill-opacity="1" fill-rule="nonzero"/><g clip-path="url(#9d4161b816)"><path fill="#00f3f7" d="M 327.554688 359.386719 L 321.1875 359.386719 L 321.1875 372.117188 L 333.921875 372.117188 L 333.921875 365.75 C 333.921875 362.246094 331.058594 359.386719 327.554688 359.386719 " fill-opacity="1" fill-rule="nonzero"/></g><g clip-path="url(#497d56813b)"><path fill="#00f3f7" d="M 2.871094 353.019531 C 2.871094 363.5625 11.425781 372.117188 21.972656 372.117188 L 257.523438 372.117188 L 257.523438 365.75 C 257.523438 355.207031 266.078125 346.652344 276.625 346.652344 L 327.554688 346.652344 C 338.097656 346.652344 346.652344 355.207031 346.652344 365.75 L 346.652344 372.117188 L 353.019531 372.117188 C 363.5625 372.117188 372.117188 363.5625 372.117188 353.019531 L 372.117188 333.921875 L 2.871094 333.921875 L 2.871094 353.019531 " fill-opacity="1" fill-rule="nonzero"/></g></svg>