<svg xmlns="http://www.w3.org/2000/svg" xmlns:xlink="http://www.w3.org/1999/xlink" width="500" zoomAndPan="magnify" viewBox="0 0 375 374.999991" height="500" preserveAspectRatio="xMidYMid meet" version="1.0"><defs><clipPath id="852dfd3690"><path d="M 77 6.964844 L 288 6.964844 L 288 89 L 77 89 Z M 77 6.964844 " clip-rule="nonzero"/></clipPath><clipPath id="364eed0c73"><path d="M 77 186 L 288 186 L 288 367.714844 L 77 367.714844 Z M 77 186 " clip-rule="nonzero"/></clipPath><clipPath id="a69a0cd5ac"><path d="M 37.8125 96 L 159 96 L 159 189 L 37.8125 189 Z M 37.8125 96 " clip-rule="nonzero"/></clipPath><clipPath id="ada5798a42"><path d="M 217 202 L 337.8125 202 L 337.8125 296 L 217 296 Z M 217 202 " clip-rule="nonzero"/></clipPath></defs><path fill="#00f3f7" d="M 269.898438 50.730469 C 269.898438 48.535156 268.117188 46.753906 265.917969 46.753906 C 263.722656 46.753906 261.941406 48.535156 261.941406 50.730469 C 261.941406 52.925781 263.722656 54.707031 265.917969 54.707031 C 268.117188 54.707031 269.898438 52.925781 269.898438 50.730469 " fill-opacity="1" fill-rule="nonzero"/><path fill="#00f3f7" d="M 305.023438 244.382812 C 307.21875 244.382812 309 242.601562 309 240.40625 C 309 238.207031 307.21875 236.429688 305.023438 236.429688 C 302.824219 236.429688 301.046875 238.207031 301.046875 240.40625 C 301.046875 242.601562 302.824219 244.382812 305.023438 244.382812 " fill-opacity="1" fill-rule="nonzero"/><path fill="#00f3f7" d="M 127.570312 140.417969 C 129.769531 140.417969 131.546875 138.636719 131.546875 136.441406 C 131.546875 134.242188 129.769531 132.460938 127.570312 132.460938 C 125.375 132.460938 123.59375 134.242188 123.59375 136.441406 C 123.59375 138.636719 125.375 140.417969 127.570312 140.417969 " fill-opacity="1" fill-rule="nonzero"/><g clip-path="url(#852dfd3690)"><path fill="#00f3f7" d="M 81.292969 88.136719 C 83.613281 88.136719 85.492188 86.253906 85.492188 83.9375 L 85.492188 55.945312 C 85.492188 55.480469 85.503906 55.011719 85.519531 54.546875 L 243.632812 54.546875 C 245.953125 54.546875 247.832031 52.667969 247.832031 50.347656 C 247.832031 48.03125 245.953125 46.152344 243.632812 46.152344 L 86.691406 46.152344 C 91.082031 28.488281 107.074219 15.363281 126.078125 15.363281 L 238.035156 15.363281 C 260.414062 15.363281 278.621094 33.566406 278.621094 55.945312 L 278.621094 72.742188 C 278.621094 75.058594 280.5 76.9375 282.820312 76.9375 C 285.136719 76.9375 287.015625 75.058594 287.015625 72.742188 L 287.015625 55.945312 C 287.015625 28.941406 265.042969 6.964844 238.035156 6.964844 L 126.078125 6.964844 C 101.71875 6.964844 81.457031 24.835938 77.714844 48.160156 C 77.324219 48.796875 77.09375 49.546875 77.09375 50.347656 C 77.09375 50.789062 77.164062 51.214844 77.289062 51.613281 C 77.164062 53.039062 77.09375 54.488281 77.09375 55.945312 L 77.09375 83.9375 C 77.09375 86.253906 78.972656 88.136719 81.292969 88.136719 " fill-opacity="1" fill-rule="nonzero"/></g><g clip-path="url(#364eed0c73)"><path fill="#00f3f7" d="M 238.035156 359.636719 L 126.078125 359.636719 C 115.285156 359.636719 105.109375 355.402344 97.417969 347.707031 C 89.726562 340.019531 85.492188 329.839844 85.492188 319.050781 L 85.492188 317.648438 L 278.621094 317.648438 L 278.621094 319.050781 C 278.621094 341.429688 260.414062 359.636719 238.035156 359.636719 Z M 282.820312 292.460938 C 280.5 292.460938 278.621094 294.339844 278.621094 296.65625 L 278.621094 309.253906 L 85.492188 309.253906 L 85.492188 190.296875 C 85.492188 187.980469 83.613281 186.097656 81.292969 186.097656 C 78.972656 186.097656 77.09375 187.980469 77.09375 190.296875 L 77.09375 319.050781 C 77.09375 332.082031 82.203125 344.371094 91.480469 353.648438 C 100.757812 362.921875 113.042969 368.03125 126.078125 368.03125 L 238.035156 368.03125 C 265.042969 368.03125 287.015625 346.058594 287.015625 319.050781 L 287.015625 296.65625 C 287.015625 294.339844 285.136719 292.460938 282.820312 292.460938 " fill-opacity="1" fill-rule="nonzero"/></g><g clip-path="url(#a69a0cd5ac)"><path fill="#00f3f7" d="M 46.304688 104.929688 L 149.867188 104.929688 L 149.867188 163.707031 L 131.675781 163.707031 C 129.867188 163.707031 128.261719 164.863281 127.691406 166.578125 L 124.242188 176.925781 L 112.253906 164.9375 C 111.464844 164.148438 110.394531 163.707031 109.28125 163.707031 L 46.304688 163.707031 Z M 123.109375 187.667969 C 123.90625 188.464844 124.976562 188.898438 126.078125 188.898438 C 126.398438 188.898438 126.722656 188.859375 127.042969 188.785156 C 128.457031 188.453125 129.597656 187.40625 130.058594 186.027344 L 134.703125 172.105469 L 154.066406 172.105469 C 156.386719 172.105469 158.265625 170.222656 158.265625 167.90625 L 158.265625 100.730469 C 158.265625 98.414062 156.386719 96.53125 154.066406 96.53125 L 42.109375 96.53125 C 39.789062 96.53125 37.910156 98.414062 37.910156 100.730469 L 37.910156 167.90625 C 37.910156 170.222656 39.789062 172.105469 42.109375 172.105469 L 107.542969 172.105469 L 123.109375 187.667969 " fill-opacity="1" fill-rule="nonzero"/></g><g clip-path="url(#ada5798a42)"><path fill="#00f3f7" d="M 329 270.066406 L 266.023438 270.066406 C 264.910156 270.066406 263.84375 270.511719 263.054688 271.296875 L 251.066406 283.289062 L 247.617188 272.9375 C 247.042969 271.222656 245.441406 270.066406 243.632812 270.066406 L 225.441406 270.066406 L 225.441406 211.289062 L 329 211.289062 Z M 333.199219 202.894531 L 221.242188 202.894531 C 218.921875 202.894531 217.042969 204.773438 217.042969 207.089844 L 217.042969 274.265625 C 217.042969 276.585938 218.921875 278.464844 221.242188 278.464844 L 240.605469 278.464844 L 245.25 292.386719 C 245.707031 293.769531 246.851562 294.8125 248.265625 295.144531 C 248.585938 295.222656 248.910156 295.257812 249.230469 295.257812 C 250.332031 295.257812 251.402344 294.828125 252.199219 294.03125 L 267.765625 278.464844 L 333.199219 278.464844 C 335.519531 278.464844 337.398438 276.585938 337.398438 274.265625 L 337.398438 207.089844 C 337.398438 204.773438 335.519531 202.894531 333.199219 202.894531 " fill-opacity="1" fill-rule="nonzero"/></g><path fill="#00f3f7" d="M 288.789062 136.988281 C 292.605469 142.078125 294.789062 149.167969 295.296875 158.109375 L 236.789062 158.109375 C 237.417969 149.660156 239.96875 142.453125 244.261719 137.097656 C 249.460938 130.609375 256.785156 127.320312 266.023438 127.320312 C 276.460938 127.320312 283.910156 130.484375 288.789062 136.988281 Z M 253.429688 106.328125 C 253.429688 99.386719 259.082031 93.734375 266.023438 93.734375 C 272.96875 93.734375 278.621094 99.386719 278.621094 106.328125 C 278.621094 113.273438 272.96875 118.925781 266.023438 118.925781 C 259.082031 118.925781 253.429688 113.273438 253.429688 106.328125 Z M 287.015625 106.328125 C 287.015625 94.753906 277.601562 85.335938 266.023438 85.335938 C 254.449219 85.335938 245.03125 94.753906 245.03125 106.328125 C 245.03125 112.3125 247.554688 117.714844 251.585938 121.542969 C 246.152344 123.699219 241.46875 127.15625 237.710938 131.84375 C 231.515625 139.574219 228.238281 150.109375 228.238281 162.308594 C 228.238281 164.625 230.117188 166.507812 232.4375 166.507812 L 299.613281 166.507812 C 301.929688 166.507812 303.8125 164.625 303.8125 162.308594 C 303.8125 140.628906 295.753906 126.5 280.789062 121.238281 C 284.632812 117.429688 287.015625 112.152344 287.015625 106.328125 " fill-opacity="1" fill-rule="nonzero"/><path fill="#00f3f7" d="M 131.675781 244.878906 C 142.113281 244.878906 149.558594 248.039062 154.441406 254.546875 C 158.257812 259.632812 160.4375 266.722656 160.949219 275.664062 L 102.4375 275.664062 C 103.066406 267.214844 105.617188 260.011719 109.914062 254.652344 C 115.113281 248.167969 122.433594 244.878906 131.675781 244.878906 Z M 119.078125 223.886719 C 119.078125 216.941406 124.730469 211.289062 131.675781 211.289062 C 138.621094 211.289062 144.269531 216.941406 144.269531 223.886719 C 144.269531 230.828125 138.621094 236.480469 131.675781 236.480469 C 124.730469 236.480469 119.078125 230.828125 119.078125 223.886719 Z M 103.359375 249.402344 C 97.164062 257.132812 93.890625 267.664062 93.890625 279.863281 C 93.890625 282.183594 95.769531 284.0625 98.085938 284.0625 L 165.261719 284.0625 C 167.582031 284.0625 169.460938 282.183594 169.460938 279.863281 C 169.460938 258.1875 161.402344 244.058594 146.4375 238.792969 C 150.28125 234.988281 152.667969 229.710938 152.667969 223.886719 C 152.667969 212.308594 143.25 202.894531 131.675781 202.894531 C 120.097656 202.894531 110.683594 212.308594 110.683594 223.886719 C 110.683594 229.871094 113.203125 235.273438 117.234375 239.101562 C 111.804688 241.253906 107.117188 244.714844 103.359375 249.402344 " fill-opacity="1" fill-rule="nonzero"/><path fill="#00f3f7" d="M 243.632812 244.878906 L 282.820312 244.878906 C 285.136719 244.878906 287.015625 242.996094 287.015625 240.679688 C 287.015625 238.359375 285.136719 236.480469 282.820312 236.480469 L 243.632812 236.480469 C 241.316406 236.480469 239.433594 238.359375 239.433594 240.679688 C 239.433594 242.996094 241.316406 244.878906 243.632812 244.878906 " fill-opacity="1" fill-rule="nonzero"/><path fill="#00f3f7" d="M 103.683594 132.242188 L 64.5 132.242188 C 62.179688 132.242188 60.300781 134.121094 60.300781 136.441406 C 60.300781 138.757812 62.179688 140.640625 64.5 140.640625 L 103.683594 140.640625 C 106.003906 140.640625 107.882812 138.757812 107.882812 136.441406 C 107.882812 134.121094 106.003906 132.242188 103.683594 132.242188 " fill-opacity="1" fill-rule="nonzero"/><path fill="#00f3f7" d="M 278.621094 179.101562 L 278.621094 190.296875 C 278.621094 192.617188 280.5 194.496094 282.820312 194.496094 C 285.136719 194.496094 287.015625 192.617188 287.015625 190.296875 L 287.015625 179.101562 C 287.015625 176.78125 285.136719 174.902344 282.820312 174.902344 C 280.5 174.902344 278.621094 176.78125 278.621094 179.101562 " fill-opacity="1" fill-rule="nonzero"/><path fill="#00f3f7" d="M 199.867188 135.84375 L 177.476562 130.246094 C 175.226562 129.683594 172.949219 131.050781 172.386719 133.300781 C 171.824219 135.550781 173.191406 137.828125 175.441406 138.390625 L 197.832031 143.988281 C 198.175781 144.074219 198.515625 144.117188 198.851562 144.117188 C 200.734375 144.117188 202.445312 142.84375 202.921875 140.933594 C 203.484375 138.683594 202.117188 136.40625 199.867188 135.84375 " fill-opacity="1" fill-rule="nonzero"/><path fill="#00f3f7" d="M 197.832031 231.007812 L 175.441406 236.605469 C 173.191406 237.167969 171.824219 239.449219 172.386719 241.699219 C 172.863281 243.605469 174.574219 244.878906 176.457031 244.878906 C 176.792969 244.878906 177.136719 244.835938 177.476562 244.753906 L 199.867188 239.152344 C 202.117188 238.589844 203.484375 236.3125 202.921875 234.0625 C 202.359375 231.8125 200.082031 230.445312 197.832031 231.007812 " fill-opacity="1" fill-rule="nonzero"/></svg>