<svg xmlns="http://www.w3.org/2000/svg" xmlns:xlink="http://www.w3.org/1999/xlink" width="500" zoomAndPan="magnify" viewBox="0 0 375 374.999991" height="500" preserveAspectRatio="xMidYMid meet" version="1.0"><defs><clipPath id="95df4bf944"><path d="M 265 263 L 368 263 L 368 365.738281 L 265 365.738281 Z M 265 263 " clip-rule="nonzero"/></clipPath><clipPath id="927cf51233"><path d="M 7 281 L 68 281 L 68 365.738281 L 7 365.738281 Z M 7 281 " clip-rule="nonzero"/></clipPath></defs><g clip-path="url(#95df4bf944)"><path fill="#00f3f7" d="M 361.601562 293.460938 L 337.585938 293.460938 C 334.285156 293.460938 331.582031 296.160156 331.582031 299.464844 L 329.902344 299.464844 L 319.277344 267.523438 C 318.4375 265.121094 316.15625 263.441406 313.574219 263.441406 C 306.007812 263.441406 299.105469 266.984375 294.660156 273.105469 C 290.21875 279.292969 289.078125 286.914062 291.480469 294.121094 L 293.21875 299.464844 L 283.554688 299.464844 C 273.648438 299.464844 265.542969 307.566406 265.542969 317.472656 L 265.542969 347.492188 C 265.542969 357.398438 273.648438 365.503906 283.554688 365.503906 L 319.578125 365.503906 C 320.777344 365.503906 321.917969 365.144531 322.878906 364.484375 L 331.582031 358.660156 L 331.582031 359.5 C 331.582031 362.800781 334.285156 365.503906 337.585938 365.503906 L 361.601562 365.503906 C 364.902344 365.503906 367.605469 362.800781 367.605469 359.5 L 367.605469 299.464844 C 367.605469 296.160156 364.902344 293.460938 361.601562 293.460938 Z M 317.773438 353.496094 L 283.554688 353.496094 C 280.253906 353.496094 277.550781 350.792969 277.550781 347.492188 L 277.550781 317.472656 C 277.550781 314.171875 280.253906 311.46875 283.554688 311.46875 L 301.566406 311.46875 C 303.488281 311.46875 305.289062 310.570312 306.429688 308.949219 C 307.570312 307.386719 307.871094 305.40625 307.269531 303.546875 L 302.828125 290.335938 C 301.683594 286.855469 302.226562 283.132812 304.386719 280.132812 C 305.707031 278.332031 307.507812 276.949219 309.492188 276.167969 L 319.875 307.386719 C 320.71875 309.789062 323 311.46875 325.578125 311.46875 L 331.582031 311.46875 L 331.582031 344.25 Z M 317.773438 353.496094 " fill-opacity="1" fill-rule="nonzero"/></g><path fill="#00f3f7" d="M 319.578125 107.347656 C 346.050781 107.347656 367.605469 85.792969 367.605469 59.316406 C 367.605469 32.839844 346.050781 11.289062 319.578125 11.289062 C 293.101562 11.289062 271.546875 32.839844 271.546875 59.316406 C 271.546875 85.792969 293.101562 107.347656 319.578125 107.347656 Z M 307.570312 41.308594 L 337.585938 59.316406 L 307.570312 77.328125 Z M 307.570312 41.308594 " fill-opacity="1" fill-rule="nonzero"/><path fill="#00f3f7" d="M 332.664062 263.742188 C 333.503906 264.101562 334.34375 264.28125 335.125 264.28125 C 337.40625 264.28125 339.628906 262.960938 340.648438 260.738281 C 350.554688 238.828125 355.597656 215.472656 355.597656 191.398438 C 355.597656 166.902344 350.375 143.25 340.167969 121.035156 C 338.789062 118.035156 335.1875 116.710938 332.183594 118.09375 C 329.183594 119.472656 327.863281 123.078125 329.242188 126.078125 C 338.789062 146.671875 343.589844 168.644531 343.589844 191.398438 C 343.589844 213.792969 338.90625 235.40625 329.664062 255.757812 C 328.339844 258.820312 329.664062 262.359375 332.664062 263.742188 Z M 332.664062 263.742188 " fill-opacity="1" fill-rule="nonzero"/><path fill="#00f3f7" d="M 278.691406 195.601562 C 280.191406 195.179688 281.511719 194.160156 282.292969 192.777344 L 294.300781 172.007812 C 295.140625 170.625 295.320312 168.945312 294.902344 167.441406 C 294.542969 165.882812 293.519531 164.5625 292.140625 163.78125 L 283.433594 158.738281 C 283.496094 157.597656 283.554688 156.515625 283.554688 155.375 C 283.554688 154.234375 283.496094 153.15625 283.433594 152.015625 L 292.140625 146.972656 C 293.519531 146.191406 294.542969 144.871094 294.902344 143.308594 C 295.320312 141.808594 295.140625 140.125 294.300781 138.746094 L 282.292969 117.972656 C 281.511719 116.59375 280.191406 115.570312 278.691406 115.152344 C 277.128906 114.730469 275.507812 114.972656 274.128906 115.753906 L 265.363281 120.796875 C 263.5625 119.535156 261.582031 118.394531 259.539062 117.433594 L 259.539062 107.347656 C 259.539062 104.042969 256.839844 101.34375 253.535156 101.34375 L 229.523438 101.34375 C 226.21875 101.34375 223.519531 104.042969 223.519531 107.347656 L 223.519531 117.433594 C 221.476562 118.394531 219.496094 119.535156 217.695312 120.796875 L 208.929688 115.753906 C 207.546875 114.972656 205.925781 114.730469 204.367188 115.152344 C 202.867188 115.570312 201.542969 116.59375 200.765625 117.972656 L 188.757812 138.746094 C 187.917969 140.125 187.738281 141.808594 188.15625 143.308594 C 188.578125 144.871094 189.539062 146.191406 190.917969 146.972656 L 199.625 152.015625 C 199.5625 153.15625 199.503906 154.234375 199.503906 155.375 C 199.503906 156.515625 199.5625 157.597656 199.625 158.738281 L 195.542969 161.140625 L 193.921875 159.519531 C 191.578125 157.175781 187.796875 157.175781 185.457031 159.519531 L 178.011719 166.964844 C 177.171875 166.601562 176.328125 166.242188 175.488281 165.882812 L 175.488281 155.375 C 175.488281 152.074219 172.789062 149.371094 169.484375 149.371094 L 133.464844 149.371094 C 130.160156 149.371094 127.460938 152.074219 127.460938 155.375 L 127.460938 165.882812 C 126.621094 166.242188 125.777344 166.601562 124.9375 166.964844 L 117.492188 159.519531 C 115.152344 157.175781 111.371094 157.175781 109.027344 159.519531 L 83.574219 184.972656 C 82.433594 186.113281 81.773438 187.617188 81.773438 189.238281 C 81.773438 190.796875 82.433594 192.359375 83.574219 193.4375 L 91.019531 200.882812 C 90.65625 201.722656 90.296875 202.566406 89.9375 203.40625 L 79.429688 203.40625 C 76.128906 203.40625 73.425781 206.105469 73.425781 209.410156 L 73.425781 245.429688 C 73.425781 248.734375 76.128906 251.433594 79.429688 251.433594 L 89.9375 251.433594 C 90.296875 252.273438 90.65625 253.113281 91.019531 253.957031 L 83.574219 261.398438 C 82.433594 262.480469 81.773438 264.042969 81.773438 265.601562 C 81.773438 267.222656 82.433594 268.726562 83.574219 269.867188 L 109.027344 295.320312 C 111.371094 297.664062 115.152344 297.664062 117.492188 295.320312 L 124.9375 287.875 C 125.777344 288.238281 126.621094 288.597656 127.460938 288.957031 L 127.460938 299.464844 C 127.460938 302.765625 130.160156 305.46875 133.464844 305.46875 L 169.484375 305.46875 C 172.789062 305.46875 175.488281 302.765625 175.488281 299.464844 L 175.488281 288.957031 C 176.328125 288.597656 177.171875 288.238281 178.011719 287.875 L 185.457031 295.320312 C 187.796875 297.664062 191.578125 297.664062 193.921875 295.320312 L 219.375 269.867188 C 220.515625 268.726562 221.175781 267.222656 221.175781 265.601562 C 221.175781 264.042969 220.515625 262.480469 219.375 261.398438 L 211.929688 253.957031 C 212.292969 253.113281 212.652344 252.273438 213.011719 251.433594 L 223.519531 251.433594 C 226.820312 251.433594 229.523438 248.734375 229.523438 245.429688 L 229.523438 209.410156 L 253.535156 209.410156 C 256.839844 209.410156 259.539062 206.707031 259.539062 203.40625 L 259.539062 193.320312 C 261.582031 192.359375 263.5625 191.21875 265.363281 189.957031 L 274.128906 195 C 275.507812 195.78125 277.128906 196.019531 278.691406 195.601562 Z M 241.527344 173.386719 C 231.625 173.386719 223.519531 165.28125 223.519531 155.375 C 223.519531 145.46875 231.625 137.363281 241.527344 137.363281 C 251.433594 137.363281 259.539062 145.46875 259.539062 155.375 C 259.539062 165.28125 251.433594 173.386719 241.527344 173.386719 Z M 217.515625 239.425781 L 208.75 239.425781 C 206.109375 239.425781 203.828125 241.109375 203.046875 243.628906 C 202.085938 246.511719 200.882812 249.453125 199.382812 252.394531 C 198.121094 254.734375 198.601562 257.558594 200.464844 259.417969 L 206.648438 265.601562 L 189.65625 282.59375 L 183.472656 276.410156 C 181.613281 274.546875 178.792969 274.128906 176.449219 275.328125 C 173.507812 276.828125 170.566406 278.03125 167.683594 278.992188 C 165.164062 279.769531 163.480469 282.054688 163.480469 284.695312 L 163.480469 293.460938 L 139.46875 293.460938 L 139.46875 284.695312 C 139.46875 282.054688 137.785156 279.769531 135.265625 278.992188 C 132.382812 278.03125 129.441406 276.828125 126.5 275.328125 C 124.21875 274.128906 121.335938 274.546875 119.476562 276.410156 L 113.292969 282.59375 L 96.300781 265.601562 L 102.484375 259.417969 C 104.347656 257.558594 104.828125 254.675781 103.566406 252.394531 C 102.066406 249.511719 100.863281 246.570312 99.902344 243.628906 C 99.121094 241.109375 96.839844 239.425781 94.199219 239.425781 L 85.433594 239.425781 L 85.433594 215.414062 L 94.199219 215.414062 C 96.839844 215.414062 99.121094 213.730469 99.902344 211.210938 C 100.863281 208.269531 102.066406 205.328125 103.566406 202.445312 C 104.828125 200.164062 104.347656 197.28125 102.484375 195.421875 L 96.300781 189.238281 L 113.292969 172.246094 L 119.476562 178.429688 C 121.335938 180.292969 124.21875 180.769531 126.5 179.511719 C 129.441406 178.007812 132.382812 176.808594 135.265625 175.847656 C 137.785156 175.066406 139.46875 172.785156 139.46875 170.144531 L 139.46875 161.378906 L 163.480469 161.378906 L 163.480469 170.144531 C 163.480469 172.785156 165.164062 175.066406 167.683594 175.847656 C 170.566406 176.808594 173.507812 178.007812 176.449219 179.511719 C 178.792969 180.769531 181.613281 180.292969 183.472656 178.429688 L 189.65625 172.246094 L 206.648438 189.238281 L 200.464844 195.421875 C 198.601562 197.28125 198.121094 200.101562 199.382812 202.445312 C 200.882812 205.386719 202.085938 208.328125 203.046875 211.210938 C 203.828125 213.730469 206.109375 215.414062 208.75 215.414062 L 217.515625 215.414062 Z M 213.011719 203.40625 C 212.652344 202.566406 212.292969 201.722656 211.929688 200.882812 L 219.375 193.4375 C 219.855469 192.957031 220.277344 192.417969 220.578125 191.757812 C 221.535156 192.359375 222.496094 192.839844 223.519531 193.320312 L 223.519531 203.40625 Z M 213.011719 203.40625 " fill-opacity="1" fill-rule="nonzero"/><path fill="#00f3f7" d="M 259.539062 41.308594 C 259.539062 41.699219 259.5 42.089844 259.425781 42.476562 C 259.347656 42.863281 259.234375 43.238281 259.082031 43.605469 C 258.933594 43.96875 258.746094 44.316406 258.527344 44.640625 C 258.308594 44.96875 258.058594 45.273438 257.78125 45.550781 C 257.503906 45.832031 257.199219 46.078125 256.871094 46.296875 C 256.542969 46.519531 256.199219 46.703125 255.832031 46.855469 C 255.46875 47.003906 255.09375 47.117188 254.707031 47.195312 C 254.320312 47.273438 253.929688 47.3125 253.535156 47.3125 C 253.140625 47.3125 252.75 47.273438 252.363281 47.195312 C 251.976562 47.117188 251.601562 47.003906 251.238281 46.855469 C 250.875 46.703125 250.527344 46.519531 250.199219 46.296875 C 249.875 46.078125 249.570312 45.832031 249.292969 45.550781 C 249.011719 45.273438 248.761719 44.96875 248.542969 44.640625 C 248.324219 44.316406 248.140625 43.96875 247.988281 43.605469 C 247.839844 43.238281 247.726562 42.863281 247.648438 42.476562 C 247.570312 42.089844 247.53125 41.699219 247.53125 41.308594 C 247.53125 40.914062 247.570312 40.523438 247.648438 40.136719 C 247.726562 39.75 247.839844 39.375 247.988281 39.007812 C 248.140625 38.644531 248.324219 38.300781 248.542969 37.972656 C 248.761719 37.644531 249.011719 37.339844 249.292969 37.0625 C 249.570312 36.78125 249.875 36.535156 250.199219 36.316406 C 250.527344 36.097656 250.875 35.910156 251.238281 35.761719 C 251.601562 35.609375 251.976562 35.496094 252.363281 35.417969 C 252.75 35.339844 253.140625 35.304688 253.535156 35.304688 C 253.929688 35.304688 254.320312 35.339844 254.707031 35.417969 C 255.09375 35.496094 255.46875 35.609375 255.832031 35.761719 C 256.199219 35.910156 256.542969 36.097656 256.871094 36.316406 C 257.199219 36.535156 257.503906 36.78125 257.78125 37.0625 C 258.058594 37.339844 258.308594 37.644531 258.527344 37.972656 C 258.746094 38.300781 258.933594 38.644531 259.082031 39.007812 C 259.234375 39.375 259.347656 39.75 259.425781 40.136719 C 259.5 40.523438 259.539062 40.914062 259.539062 41.308594 Z M 259.539062 41.308594 " fill-opacity="1" fill-rule="nonzero"/><path fill="#00f3f7" d="M 245.3125 336.386719 C 226.820312 343.769531 207.367188 347.492188 187.496094 347.492188 C 148.773438 347.492188 111.671875 333.203125 82.972656 307.269531 C 80.511719 305.046875 76.667969 305.285156 74.449219 307.75 C 72.226562 310.210938 72.464844 313.992188 74.929688 316.214844 C 105.847656 344.128906 145.832031 359.5 187.496094 359.5 C 208.929688 359.5 229.882812 355.476562 249.753906 347.550781 C 252.816406 346.292969 254.316406 342.808594 253.117188 339.746094 C 251.855469 336.625 248.375 335.183594 245.3125 336.386719 Z M 245.3125 336.386719 " fill-opacity="1" fill-rule="nonzero"/><path fill="#00f3f7" d="M 187.496094 72.046875 L 218.414062 41.125 C 225.199219 34.28125 225.199219 23.234375 218.414062 16.390625 C 214.992188 12.96875 210.550781 11.289062 206.046875 11.289062 C 201.542969 11.289062 197.101562 12.96875 193.679688 16.390625 L 187.496094 22.574219 L 181.3125 16.390625 C 174.46875 9.609375 163.421875 9.609375 156.578125 16.390625 C 153.15625 19.8125 151.472656 24.257812 151.472656 28.757812 C 151.472656 33.261719 153.15625 37.703125 156.578125 41.125 Z M 187.496094 72.046875 " fill-opacity="1" fill-rule="nonzero"/><path fill="#00f3f7" d="M 151.472656 191.398438 C 131.601562 191.398438 115.453125 207.546875 115.453125 227.417969 C 115.453125 247.292969 131.601562 263.441406 151.472656 263.441406 C 171.347656 263.441406 187.496094 247.292969 187.496094 227.417969 C 187.496094 207.546875 171.347656 191.398438 151.472656 191.398438 Z M 151.472656 251.433594 C 138.207031 251.433594 127.460938 240.6875 127.460938 227.417969 C 127.460938 214.152344 138.207031 203.40625 151.472656 203.40625 C 164.742188 203.40625 175.488281 214.152344 175.488281 227.417969 C 175.488281 240.6875 164.742188 251.433594 151.472656 251.433594 Z M 151.472656 251.433594 " fill-opacity="1" fill-rule="nonzero"/><path fill="#00f3f7" d="M 112.75 142.707031 C 113.589844 143.128906 114.550781 143.367188 115.453125 143.367188 C 116.535156 143.367188 117.675781 143.070312 118.632812 142.46875 C 120.375 141.386719 121.457031 139.464844 121.457031 137.363281 L 121.457031 124.335938 C 128.421875 121.875 133.464844 115.152344 133.464844 107.347656 L 133.464844 83.332031 C 133.464844 73.425781 125.359375 65.320312 115.453125 65.320312 L 91.4375 65.320312 L 91.4375 59.316406 C 91.4375 49.410156 83.332031 41.308594 73.425781 41.308594 L 25.398438 41.308594 C 15.492188 41.308594 7.386719 49.410156 7.386719 59.316406 L 7.386719 83.332031 C 7.386719 91.136719 12.429688 97.859375 19.394531 100.324219 L 19.394531 113.351562 C 19.394531 115.453125 20.476562 117.371094 22.214844 118.453125 C 23.175781 119.054688 24.316406 119.355469 25.398438 119.355469 C 26.296875 119.355469 27.257812 119.113281 28.101562 118.695312 L 49.472656 108.007812 C 49.773438 117.613281 57.757812 125.359375 67.421875 125.359375 L 77.988281 125.359375 Z M 61.421875 107.347656 L 61.421875 83.332031 C 61.421875 80.03125 64.121094 77.328125 67.421875 77.328125 L 115.453125 77.328125 C 118.753906 77.328125 121.457031 80.03125 121.457031 83.332031 L 121.457031 107.347656 C 121.457031 110.648438 118.753906 113.351562 115.453125 113.351562 C 112.152344 113.351562 109.449219 116.050781 109.449219 119.355469 L 109.449219 127.640625 L 82.132812 114.011719 C 81.292969 113.589844 80.390625 113.351562 79.429688 113.351562 L 67.421875 113.351562 C 64.121094 113.351562 61.421875 110.648438 61.421875 107.347656 Z M 61.421875 107.347656 " fill-opacity="1" fill-rule="nonzero"/><path fill="#00f3f7" d="M 133.464844 47.3125 C 133.464844 47.703125 133.425781 48.09375 133.347656 48.480469 C 133.269531 48.867188 133.15625 49.242188 133.007812 49.609375 C 132.855469 49.972656 132.671875 50.316406 132.453125 50.644531 C 132.234375 50.972656 131.984375 51.277344 131.707031 51.554688 C 131.425781 51.835938 131.125 52.082031 130.796875 52.300781 C 130.46875 52.519531 130.121094 52.707031 129.757812 52.855469 C 129.394531 53.007812 129.019531 53.121094 128.632812 53.199219 C 128.246094 53.277344 127.855469 53.3125 127.460938 53.3125 C 127.066406 53.3125 126.675781 53.277344 126.289062 53.199219 C 125.902344 53.121094 125.527344 53.007812 125.164062 52.855469 C 124.796875 52.707031 124.453125 52.519531 124.125 52.300781 C 123.796875 52.082031 123.492188 51.835938 123.214844 51.554688 C 122.9375 51.277344 122.6875 50.972656 122.46875 50.644531 C 122.25 50.316406 122.0625 49.972656 121.914062 49.609375 C 121.761719 49.242188 121.648438 48.867188 121.570312 48.480469 C 121.496094 48.09375 121.457031 47.703125 121.457031 47.3125 C 121.457031 46.917969 121.496094 46.527344 121.570312 46.140625 C 121.648438 45.753906 121.761719 45.378906 121.914062 45.011719 C 122.0625 44.648438 122.25 44.304688 122.46875 43.976562 C 122.6875 43.648438 122.9375 43.34375 123.214844 43.066406 C 123.492188 42.785156 123.796875 42.539062 124.125 42.320312 C 124.453125 42.101562 124.796875 41.914062 125.164062 41.765625 C 125.527344 41.613281 125.902344 41.5 126.289062 41.421875 C 126.675781 41.34375 127.066406 41.308594 127.460938 41.308594 C 127.855469 41.308594 128.246094 41.34375 128.632812 41.421875 C 129.019531 41.5 129.394531 41.613281 129.757812 41.765625 C 130.121094 41.914062 130.46875 42.101562 130.796875 42.320312 C 131.125 42.539062 131.425781 42.785156 131.707031 43.066406 C 131.984375 43.34375 132.234375 43.648438 132.453125 43.976562 C 132.671875 44.304688 132.855469 44.648438 133.007812 45.011719 C 133.15625 45.378906 133.269531 45.753906 133.347656 46.140625 C 133.425781 46.527344 133.464844 46.917969 133.464844 47.3125 Z M 133.464844 47.3125 " fill-opacity="1" fill-rule="nonzero"/><g clip-path="url(#927cf51233)"><path fill="#00f3f7" d="M 55.777344 320.957031 C 59.257812 316.8125 61.421875 311.410156 61.421875 305.46875 C 61.421875 292.199219 50.671875 281.453125 37.40625 281.453125 C 24.136719 281.453125 13.390625 292.199219 13.390625 305.46875 C 13.390625 311.410156 15.550781 316.8125 19.035156 320.957031 C 12.070312 325.097656 7.386719 332.722656 7.386719 341.488281 L 7.386719 359.5 C 7.386719 362.800781 10.089844 365.503906 13.390625 365.503906 L 61.421875 365.503906 C 64.722656 365.503906 67.421875 362.800781 67.421875 359.5 L 67.421875 341.488281 C 67.421875 332.722656 62.742188 325.097656 55.777344 320.957031 Z M 55.777344 320.957031 " fill-opacity="1" fill-rule="nonzero"/></g><path fill="#00f3f7" d="M 37.527344 129.558594 C 34.402344 128.417969 30.921875 129.980469 29.78125 133.101562 C 22.875 151.773438 19.394531 171.34375 19.394531 191.398438 C 19.394531 217.695312 25.339844 242.96875 37.105469 266.441406 C 38.125 268.542969 40.289062 269.804688 42.449219 269.804688 C 43.347656 269.804688 44.308594 269.566406 45.148438 269.144531 C 48.09375 267.644531 49.292969 264.042969 47.851562 261.101562 C 36.925781 239.308594 31.402344 215.832031 31.402344 191.398438 C 31.402344 172.785156 34.644531 154.59375 41.066406 137.246094 C 42.207031 134.183594 40.585938 130.699219 37.527344 129.558594 Z M 37.527344 129.558594 " fill-opacity="1" fill-rule="nonzero"/></svg>