<svg xmlns="http://www.w3.org/2000/svg" xmlns:xlink="http://www.w3.org/1999/xlink" width="500" zoomAndPan="magnify" viewBox="0 0 375 374.999991" height="500" preserveAspectRatio="xMidYMid meet" version="1.0"><defs><clipPath id="8a4c92f8c0"><path d="M 9.222656 9.222656 L 365.472656 9.222656 L 365.472656 365.472656 L 9.222656 365.472656 Z M 9.222656 9.222656 " clip-rule="nonzero"/></clipPath></defs><g clip-path="url(#8a4c92f8c0)"><path fill="#00f3f7" d="M 9.222656 56.761719 C 9.222656 82.972656 30.550781 104.300781 56.761719 104.300781 C 82.972656 104.300781 104.300781 82.972656 104.300781 56.761719 C 104.300781 30.550781 82.972656 9.222656 56.761719 9.222656 C 30.550781 9.222656 9.222656 30.550781 9.222656 56.761719 Z M 56.761719 21.109375 C 76.425781 21.109375 92.417969 37.097656 92.417969 56.761719 C 92.417969 76.425781 76.425781 92.417969 56.761719 92.417969 C 37.097656 92.417969 21.109375 76.425781 21.109375 56.761719 C 21.109375 37.097656 37.097656 21.109375 56.761719 21.109375 Z M 41.949219 79.757812 C 42.855469 80.277344 43.867188 80.53125 44.878906 80.53125 C 45.933594 80.53125 46.992188 80.253906 47.9375 79.683594 L 77.648438 61.855469 C 79.4375 60.785156 80.53125 58.847656 80.53125 56.761719 C 80.53125 54.675781 79.4375 52.738281 77.648438 51.667969 L 47.9375 33.84375 C 46.101562 32.738281 43.808594 32.707031 41.949219 33.765625 C 40.085938 34.816406 38.933594 36.796875 38.933594 38.933594 L 38.933594 74.589844 C 38.933594 76.730469 40.085938 78.707031 41.949219 79.757812 Z M 50.820312 49.429688 L 63.039062 56.761719 L 50.820312 64.09375 Z M 240.976562 193.4375 C 250.804688 193.4375 258.804688 185.4375 258.804688 175.609375 L 258.804688 120.828125 L 294.457031 111.914062 L 294.457031 146.996094 C 292.589844 146.324219 290.605469 145.898438 288.515625 145.898438 C 278.6875 145.898438 270.6875 153.898438 270.6875 163.726562 C 270.6875 173.554688 278.6875 181.550781 288.515625 181.550781 C 298.34375 181.550781 306.34375 173.554688 306.34375 163.726562 L 306.34375 104.300781 C 306.34375 102.472656 305.5 100.742188 304.054688 99.617188 C 302.617188 98.488281 300.722656 98.089844 298.957031 98.539062 L 251.417969 110.421875 C 248.773438 111.082031 246.917969 113.457031 246.917969 116.1875 L 246.917969 158.875 C 245.050781 158.210938 243.066406 157.78125 240.976562 157.78125 C 231.148438 157.78125 223.148438 165.78125 223.148438 175.609375 C 223.148438 185.4375 231.148438 193.4375 240.976562 193.4375 Z M 288.515625 169.667969 C 285.242188 169.667969 282.574219 167 282.574219 163.726562 C 282.574219 160.449219 285.242188 157.78125 288.515625 157.78125 C 291.789062 157.78125 294.457031 160.449219 294.457031 163.726562 C 294.457031 167 291.789062 169.667969 288.515625 169.667969 Z M 240.976562 169.667969 C 244.25 169.667969 246.917969 172.335938 246.917969 175.609375 C 246.917969 178.882812 244.25 181.550781 240.976562 181.550781 C 237.703125 181.550781 235.035156 178.882812 235.035156 175.609375 C 235.035156 172.335938 237.703125 169.667969 240.976562 169.667969 Z M 90.675781 165.464844 C 89.277344 164.074219 87.277344 163.464844 85.351562 163.832031 C 83.414062 164.207031 81.785156 165.515625 81.011719 167.328125 L 45.808594 249.46875 L 10.964844 284.3125 C 9.847656 285.425781 9.222656 286.941406 9.222656 288.515625 C 9.222656 311.453125 27.882812 330.113281 50.820312 330.113281 C 52.394531 330.113281 53.910156 329.488281 55.019531 328.371094 L 62.703125 320.6875 L 106.042969 364.023438 C 107.199219 365.183594 108.722656 365.765625 110.242188 365.765625 C 111.765625 365.765625 113.285156 365.183594 114.445312 364.023438 L 138.214844 340.253906 C 140.539062 337.933594 140.539062 334.175781 138.214844 331.851562 L 96.878906 290.519531 L 172.007812 258.320312 C 173.820312 257.550781 175.128906 255.921875 175.503906 253.984375 C 175.878906 252.046875 175.265625 250.050781 173.867188 248.660156 Z M 48.453125 318.132812 C 33.957031 316.984375 22.351562 305.378906 21.203125 290.878906 L 27.050781 285.03125 L 54.300781 312.285156 Z M 35.453125 276.628906 L 50.820312 261.261719 L 78.070312 288.515625 L 62.703125 303.882812 Z M 110.242188 351.421875 L 71.105469 312.285156 L 86.472656 296.917969 L 125.609375 336.054688 Z M 87.828125 281.46875 L 57.863281 251.5 L 88.476562 180.074219 L 159.257812 250.851562 Z M 104.300781 104.300781 C 101.019531 104.300781 98.359375 106.964844 98.359375 110.242188 L 98.359375 157.78125 C 98.359375 161.0625 101.019531 163.726562 104.300781 163.726562 L 128.070312 163.726562 C 131.351562 163.726562 134.011719 161.0625 134.011719 157.78125 L 134.011719 110.242188 C 134.011719 106.964844 131.351562 104.300781 128.070312 104.300781 Z M 122.128906 151.839844 L 110.242188 151.839844 L 110.242188 116.1875 L 122.128906 116.1875 Z M 229.089844 205.320312 L 181.550781 205.320312 C 178.273438 205.320312 175.609375 207.984375 175.609375 211.265625 L 175.609375 235.035156 C 175.609375 238.3125 178.273438 240.976562 181.550781 240.976562 L 229.089844 240.976562 C 232.371094 240.976562 235.035156 238.3125 235.035156 235.035156 L 235.035156 211.265625 C 235.035156 207.984375 232.371094 205.320312 229.089844 205.320312 Z M 223.148438 229.089844 L 187.496094 229.089844 L 187.496094 217.207031 L 223.148438 217.207031 Z M 165.464844 191.695312 C 166.625 192.855469 168.144531 193.4375 169.667969 193.4375 C 171.1875 193.4375 172.710938 192.855469 173.867188 191.695312 L 203.582031 161.984375 C 205.902344 159.660156 205.902344 155.90625 203.582031 153.582031 L 185.753906 135.753906 C 183.429688 133.429688 179.675781 133.429688 177.351562 135.753906 L 147.640625 165.464844 C 145.316406 167.789062 145.316406 171.546875 147.640625 173.867188 Z M 181.550781 148.359375 L 190.976562 157.78125 L 169.667969 179.09375 L 160.242188 169.667969 Z M 359.824219 205.320312 L 252.859375 205.320312 C 249.582031 205.320312 246.917969 207.984375 246.917969 211.265625 L 246.917969 294.457031 C 246.917969 297.738281 249.582031 300.398438 252.859375 300.398438 L 359.824219 300.398438 C 363.105469 300.398438 365.765625 297.738281 365.765625 294.457031 L 365.765625 211.265625 C 365.765625 207.984375 363.105469 205.320312 359.824219 205.320312 Z M 353.882812 217.207031 L 353.882812 268.226562 L 328.371094 242.71875 C 326.046875 240.394531 322.292969 240.394531 319.96875 242.71875 L 306.34375 256.34375 L 280.832031 230.832031 C 278.507812 228.507812 274.753906 228.507812 272.429688 230.832031 L 258.804688 244.457031 L 258.804688 217.207031 Z M 258.804688 261.261719 L 276.628906 243.4375 L 321.710938 288.515625 L 258.804688 288.515625 Z M 338.515625 288.515625 L 314.746094 264.746094 L 324.167969 255.320312 L 353.882812 285.03125 L 353.882812 288.515625 Z M 151.839844 116.1875 L 169.667969 116.1875 C 171.242188 116.1875 172.757812 115.5625 173.867188 114.445312 L 239.234375 49.078125 C 241.558594 46.753906 241.558594 43 239.234375 40.675781 L 221.40625 22.847656 C 219.085938 20.527344 215.328125 20.527344 213.003906 22.847656 L 147.640625 88.214844 C 146.523438 89.328125 145.898438 90.84375 145.898438 92.417969 L 145.898438 110.242188 C 145.898438 113.523438 148.558594 116.1875 151.839844 116.1875 Z M 217.207031 35.453125 L 226.632812 44.878906 L 217.335938 54.171875 L 207.914062 44.746094 Z M 157.78125 94.875 L 199.503906 53.15625 L 208.929688 62.578125 L 167.207031 104.300781 L 157.78125 104.300781 Z M 157.78125 94.875 " fill-opacity="1" fill-rule="nonzero"/></g></svg>