<svg xmlns="http://www.w3.org/2000/svg" xmlns:xlink="http://www.w3.org/1999/xlink" width="500" zoomAndPan="magnify" viewBox="0 0 375 374.999991" height="500" preserveAspectRatio="xMidYMid meet" version="1.0"><defs><clipPath id="b28b183be2"><path d="M 109 99 L 303 99 L 303 365.917969 L 109 365.917969 Z M 109 99 " clip-rule="nonzero"/></clipPath></defs><path fill="#00f3f7" d="M 52.191406 218.996094 C 50.785156 218.996094 49.382812 219.066406 47.988281 219.203125 C 46.589844 219.339844 45.203125 219.546875 43.824219 219.820312 C 42.449219 220.09375 41.085938 220.4375 39.742188 220.84375 C 38.398438 221.25 37.078125 221.722656 35.78125 222.261719 C 34.484375 222.796875 33.214844 223.398438 31.976562 224.058594 C 30.738281 224.722656 29.535156 225.441406 28.367188 226.222656 C 27.199219 227.003906 26.074219 227.839844 24.988281 228.730469 C 23.902344 229.621094 22.863281 230.5625 21.871094 231.554688 C 20.878906 232.546875 19.933594 233.585938 19.042969 234.671875 C 18.152344 235.757812 17.316406 236.886719 16.539062 238.054688 C 15.757812 239.222656 15.035156 240.421875 14.375 241.664062 C 13.710938 242.902344 13.113281 244.167969 12.574219 245.464844 C 12.039062 246.761719 11.566406 248.085938 11.15625 249.429688 C 10.75 250.773438 10.410156 252.132812 10.136719 253.507812 C 9.863281 254.886719 9.65625 256.273438 9.519531 257.671875 C 9.378906 259.070312 9.3125 260.46875 9.3125 261.875 C 9.3125 263.277344 9.378906 264.679688 9.519531 266.078125 C 9.65625 267.476562 9.863281 268.863281 10.136719 270.238281 C 10.410156 271.617188 10.75 272.976562 11.15625 274.320312 C 11.566406 275.664062 12.039062 276.984375 12.574219 278.285156 C 13.113281 279.582031 13.710938 280.847656 14.375 282.085938 C 15.035156 283.324219 15.757812 284.527344 16.539062 285.695312 C 17.316406 286.863281 18.152344 287.992188 19.042969 289.078125 C 19.933594 290.160156 20.878906 291.199219 21.871094 292.195312 C 22.863281 293.1875 23.902344 294.128906 24.988281 295.019531 C 26.074219 295.910156 27.199219 296.746094 28.367188 297.527344 C 29.535156 298.308594 30.738281 299.027344 31.976562 299.691406 C 33.214844 300.351562 34.484375 300.953125 35.78125 301.488281 C 37.078125 302.027344 38.398438 302.5 39.742188 302.90625 C 41.085938 303.3125 42.449219 303.65625 43.824219 303.929688 C 45.203125 304.203125 46.589844 304.410156 47.988281 304.546875 C 49.382812 304.683594 50.785156 304.753906 52.191406 304.753906 C 53.59375 304.753906 54.996094 304.683594 56.390625 304.546875 C 57.789062 304.410156 59.175781 304.203125 60.554688 303.929688 C 61.933594 303.65625 63.292969 303.3125 64.636719 302.90625 C 65.980469 302.5 67.300781 302.027344 68.597656 301.488281 C 69.894531 300.953125 71.164062 300.351562 72.402344 299.691406 C 73.640625 299.027344 74.84375 298.308594 76.011719 297.527344 C 77.179688 296.746094 78.304688 295.910156 79.390625 295.019531 C 80.476562 294.128906 81.515625 293.1875 82.507812 292.195312 C 83.5 291.199219 84.445312 290.160156 85.335938 289.078125 C 86.226562 287.992188 87.0625 286.863281 87.839844 285.695312 C 88.621094 284.527344 89.34375 283.324219 90.003906 282.085938 C 90.667969 280.847656 91.265625 279.582031 91.804688 278.285156 C 92.339844 276.984375 92.8125 275.664062 93.222656 274.320312 C 93.628906 272.976562 93.96875 271.617188 94.242188 270.238281 C 94.519531 268.863281 94.722656 267.476562 94.859375 266.078125 C 95 264.679688 95.066406 263.277344 95.066406 261.875 C 95.066406 260.472656 94.996094 259.070312 94.855469 257.675781 C 94.714844 256.277344 94.507812 254.890625 94.234375 253.515625 C 93.957031 252.136719 93.617188 250.777344 93.207031 249.433594 C 92.800781 248.09375 92.324219 246.773438 91.789062 245.476562 C 91.25 244.179688 90.648438 242.910156 89.988281 241.675781 C 89.324219 240.4375 88.601562 239.234375 87.824219 238.066406 C 87.042969 236.902344 86.207031 235.773438 85.316406 234.691406 C 84.425781 233.605469 83.484375 232.566406 82.492188 231.574219 C 81.5 230.582031 80.460938 229.640625 79.375 228.75 C 78.289062 227.859375 77.164062 227.023438 75.996094 226.242188 C 74.832031 225.460938 73.628906 224.738281 72.390625 224.078125 C 71.152344 223.414062 69.886719 222.816406 68.589844 222.277344 C 67.292969 221.738281 65.972656 221.265625 64.628906 220.855469 C 63.285156 220.449219 61.925781 220.105469 60.550781 219.832031 C 59.175781 219.554688 57.789062 219.347656 56.390625 219.207031 C 54.992188 219.070312 53.59375 219 52.191406 218.996094 Z M 52.191406 298.652344 C 50.984375 298.652344 49.78125 298.59375 48.582031 298.476562 C 47.382812 298.359375 46.191406 298.179688 45.007812 297.945312 C 43.824219 297.710938 42.65625 297.417969 41.503906 297.066406 C 40.347656 296.71875 39.214844 296.3125 38.101562 295.851562 C 36.988281 295.390625 35.898438 294.875 34.835938 294.304688 C 33.773438 293.738281 32.738281 293.117188 31.738281 292.449219 C 30.734375 291.777344 29.765625 291.058594 28.835938 290.296875 C 27.902344 289.53125 27.011719 288.722656 26.160156 287.867188 C 25.304688 287.015625 24.496094 286.125 23.734375 285.191406 C 22.96875 284.257812 22.25 283.292969 21.582031 282.289062 C 20.910156 281.285156 20.292969 280.253906 19.722656 279.191406 C 19.15625 278.125 18.640625 277.039062 18.179688 275.921875 C 17.71875 274.808594 17.3125 273.675781 16.964844 272.523438 C 16.613281 271.367188 16.320312 270.199219 16.085938 269.015625 C 15.851562 267.835938 15.675781 266.644531 15.558594 265.441406 C 15.4375 264.242188 15.378906 263.039062 15.378906 261.835938 C 15.382812 260.628906 15.441406 259.425781 15.558594 258.226562 C 15.675781 257.027344 15.855469 255.835938 16.089844 254.652344 C 16.324219 253.46875 16.617188 252.300781 16.96875 251.148438 C 17.320312 249.996094 17.726562 248.859375 18.1875 247.746094 C 18.648438 246.632812 19.164062 245.542969 19.734375 244.480469 C 20.300781 243.417969 20.921875 242.386719 21.59375 241.382812 C 22.261719 240.378906 22.980469 239.414062 23.746094 238.480469 C 24.511719 237.550781 25.320312 236.660156 26.171875 235.804688 C 27.027344 234.953125 27.917969 234.144531 28.851562 233.382812 C 29.78125 232.617188 30.75 231.898438 31.753906 231.230469 C 32.757812 230.558594 33.789062 229.941406 34.851562 229.375 C 35.917969 228.804688 37.003906 228.292969 38.121094 227.832031 C 39.234375 227.371094 40.367188 226.964844 41.523438 226.617188 C 42.675781 226.265625 43.84375 225.972656 45.027344 225.738281 C 46.210938 225.503906 47.402344 225.328125 48.601562 225.210938 C 49.800781 225.09375 51.003906 225.035156 52.210938 225.035156 C 53.414062 225.035156 54.617188 225.097656 55.816406 225.214844 C 57.019531 225.332031 58.210938 225.511719 59.390625 225.746094 C 60.574219 225.984375 61.742188 226.277344 62.894531 226.628906 C 64.050781 226.976562 65.183594 227.382812 66.296875 227.847656 C 67.410156 228.308594 68.5 228.824219 69.5625 229.394531 C 70.625 229.960938 71.65625 230.582031 72.660156 231.253906 C 73.660156 231.921875 74.628906 232.640625 75.558594 233.40625 C 76.492188 234.171875 77.382812 234.980469 78.234375 235.835938 C 79.085938 236.6875 79.894531 237.582031 80.660156 238.511719 C 81.425781 239.445312 82.140625 240.414062 82.808594 241.417969 C 83.480469 242.417969 84.097656 243.453125 84.664062 244.515625 C 85.234375 245.582031 85.746094 246.667969 86.207031 247.785156 C 86.667969 248.898438 87.074219 250.03125 87.421875 251.1875 C 87.769531 252.339844 88.0625 253.507812 88.296875 254.691406 C 88.53125 255.875 88.707031 257.066406 88.824219 258.265625 C 88.941406 259.464844 89 260.667969 89 261.875 C 88.996094 263.078125 88.9375 264.28125 88.816406 265.480469 C 88.695312 266.679688 88.519531 267.867188 88.28125 269.050781 C 88.042969 270.230469 87.75 271.398438 87.398438 272.550781 C 87.046875 273.703125 86.640625 274.835938 86.179688 275.945312 C 85.71875 277.058594 85.203125 278.148438 84.632812 279.207031 C 84.066406 280.269531 83.445312 281.300781 82.773438 282.304688 C 82.105469 283.304688 81.386719 284.269531 80.625 285.199219 C 79.859375 286.132812 79.050781 287.023438 78.199219 287.875 C 77.347656 288.726562 76.453125 289.535156 75.523438 290.296875 C 74.589844 291.0625 73.625 291.777344 72.621094 292.445312 C 71.621094 293.117188 70.589844 293.734375 69.527344 294.300781 C 68.464844 294.871094 67.375 295.386719 66.265625 295.847656 C 65.152344 296.308594 64.019531 296.714844 62.867188 297.0625 C 61.714844 297.414062 60.546875 297.707031 59.363281 297.941406 C 58.183594 298.175781 56.992188 298.355469 55.792969 298.472656 C 54.597656 298.59375 53.394531 298.652344 52.191406 298.652344 Z M 52.191406 298.652344 " fill-opacity="1" fill-rule="nonzero"/><path fill="#00f3f7" d="M 63.265625 236.507812 C 61.964844 235.960938 60.609375 235.6875 59.199219 235.6875 L 55.800781 235.6875 C 55.117188 235.6875 54.4375 235.757812 53.765625 235.890625 C 53.09375 236.027344 52.441406 236.226562 51.8125 236.488281 C 51.179688 236.753906 50.578125 237.074219 50.007812 237.457031 C 49.4375 237.835938 48.914062 238.269531 48.429688 238.753906 C 47.945312 239.238281 47.511719 239.765625 47.128906 240.332031 C 46.75 240.902344 46.425781 241.503906 46.164062 242.136719 C 45.902344 242.769531 45.703125 243.417969 45.566406 244.089844 C 45.433594 244.761719 45.363281 245.441406 45.363281 246.125 L 45.363281 254.074219 L 42.328125 254.074219 C 41.925781 254.074219 41.539062 254.152344 41.167969 254.308594 C 40.792969 254.460938 40.464844 254.679688 40.183594 254.964844 C 39.898438 255.25 39.679688 255.578125 39.523438 255.949219 C 39.371094 256.320312 39.292969 256.707031 39.292969 257.109375 C 39.292969 257.511719 39.371094 257.898438 39.523438 258.273438 C 39.679688 258.644531 39.898438 258.972656 40.183594 259.257812 C 40.464844 259.539062 40.792969 259.761719 41.167969 259.914062 C 41.539062 260.066406 41.925781 260.144531 42.328125 260.144531 L 45.363281 260.144531 L 45.363281 285.058594 C 45.363281 285.460938 45.4375 285.847656 45.59375 286.21875 C 45.746094 286.589844 45.964844 286.917969 46.25 287.203125 C 46.535156 287.488281 46.863281 287.707031 47.234375 287.863281 C 47.605469 288.015625 47.992188 288.09375 48.398438 288.09375 C 48.800781 288.09375 49.1875 288.015625 49.558594 287.863281 C 49.929688 287.707031 50.257812 287.488281 50.542969 287.203125 C 50.828125 286.917969 51.046875 286.589844 51.199219 286.21875 C 51.355469 285.847656 51.429688 285.460938 51.429688 285.058594 L 51.429688 260.207031 L 58.59375 260.207031 C 58.996094 260.207031 59.382812 260.128906 59.753906 259.976562 C 60.125 259.820312 60.453125 259.601562 60.738281 259.316406 C 61.023438 259.03125 61.242188 258.703125 61.394531 258.332031 C 61.550781 257.960938 61.628906 257.574219 61.628906 257.171875 C 61.628906 256.769531 61.550781 256.382812 61.394531 256.011719 C 61.242188 255.636719 61.023438 255.308594 60.738281 255.027344 C 60.453125 254.742188 60.125 254.523438 59.753906 254.367188 C 59.382812 254.214844 58.996094 254.136719 58.59375 254.136719 L 51.429688 254.136719 L 51.429688 246.1875 C 51.433594 245.898438 51.460938 245.617188 51.519531 245.335938 C 51.578125 245.054688 51.660156 244.78125 51.773438 244.519531 C 51.882812 244.253906 52.015625 244.003906 52.175781 243.765625 C 52.335938 243.527344 52.515625 243.308594 52.71875 243.105469 C 52.921875 242.902344 53.140625 242.722656 53.378906 242.5625 C 53.617188 242.402344 53.867188 242.269531 54.132812 242.15625 C 54.398438 242.046875 54.667969 241.960938 54.949219 241.90625 C 55.230469 241.847656 55.515625 241.820312 55.800781 241.816406 L 59.199219 241.816406 C 59.792969 241.816406 60.359375 241.9375 60.898438 242.179688 C 61.273438 242.335938 61.667969 242.417969 62.074219 242.417969 C 62.480469 242.417969 62.875 242.339844 63.25 242.1875 C 63.628906 242.03125 63.960938 241.808594 64.25 241.523438 C 64.539062 241.234375 64.761719 240.902344 64.917969 240.527344 C 65.078125 240.152344 65.15625 239.757812 65.15625 239.351562 C 65.15625 238.945312 65.082031 238.550781 64.925781 238.175781 C 64.769531 237.796875 64.550781 237.464844 64.261719 237.175781 C 63.972656 236.886719 63.640625 236.664062 63.265625 236.507812 Z M 63.265625 236.507812 " fill-opacity="1" fill-rule="nonzero"/><path fill="#00f3f7" d="M 61.476562 112.484375 C 62.878906 112.484375 64.28125 112.417969 65.679688 112.277344 C 67.074219 112.140625 68.464844 111.933594 69.839844 111.660156 C 71.21875 111.386719 72.578125 111.046875 73.921875 110.636719 C 75.265625 110.230469 76.585938 109.757812 77.882812 109.222656 C 79.179688 108.683594 80.449219 108.085938 81.6875 107.421875 C 82.925781 106.761719 84.128906 106.039062 85.296875 105.257812 C 86.464844 104.480469 87.589844 103.644531 88.675781 102.753906 C 89.761719 101.859375 90.800781 100.917969 91.792969 99.925781 C 92.789062 98.933594 93.730469 97.894531 94.621094 96.808594 C 95.511719 95.722656 96.347656 94.597656 97.128906 93.429688 C 97.90625 92.261719 98.628906 91.058594 99.289062 89.820312 C 99.953125 88.582031 100.550781 87.3125 101.089844 86.015625 C 101.625 84.71875 102.097656 83.398438 102.507812 82.054688 C 102.914062 80.710938 103.253906 79.347656 103.53125 77.972656 C 103.804688 76.59375 104.007812 75.207031 104.148438 73.808594 C 104.285156 72.414062 104.351562 71.011719 104.351562 69.605469 C 104.351562 68.203125 104.285156 66.800781 104.148438 65.40625 C 104.007812 64.007812 103.804688 62.621094 103.53125 61.242188 C 103.253906 59.863281 102.914062 58.503906 102.507812 57.160156 C 102.097656 55.816406 101.625 54.496094 101.089844 53.199219 C 100.550781 51.902344 99.953125 50.632812 99.289062 49.394531 C 98.628906 48.15625 97.90625 46.953125 97.128906 45.785156 C 96.347656 44.617188 95.511719 43.492188 94.621094 42.40625 C 93.730469 41.320312 92.789062 40.28125 91.792969 39.289062 C 90.800781 38.292969 89.761719 37.351562 88.675781 36.460938 C 87.589844 35.570312 86.464844 34.734375 85.296875 33.957031 C 84.128906 33.175781 82.925781 32.453125 81.6875 31.792969 C 80.449219 31.128906 79.179688 30.53125 77.882812 29.992188 C 76.585938 29.457031 75.265625 28.984375 73.921875 28.574219 C 72.578125 28.167969 71.21875 27.828125 69.839844 27.554688 C 68.464844 27.277344 67.074219 27.074219 65.679688 26.9375 C 64.28125 26.796875 62.878906 26.730469 61.476562 26.730469 C 60.070312 26.730469 58.671875 26.796875 57.273438 26.9375 C 55.875 27.074219 54.488281 27.277344 53.109375 27.554688 C 51.734375 27.828125 50.371094 28.167969 49.027344 28.574219 C 47.683594 28.984375 46.363281 29.457031 45.066406 29.992188 C 43.769531 30.53125 42.5 31.128906 41.261719 31.792969 C 40.023438 32.453125 38.820312 33.175781 37.652344 33.957031 C 36.484375 34.734375 35.359375 35.570312 34.273438 36.460938 C 33.1875 37.351562 32.148438 38.292969 31.15625 39.289062 C 30.164062 40.28125 29.222656 41.320312 28.332031 42.40625 C 27.4375 43.492188 26.605469 44.617188 25.824219 45.785156 C 25.042969 46.953125 24.324219 48.15625 23.660156 49.394531 C 23 50.632812 22.398438 51.902344 21.859375 53.199219 C 21.324219 54.496094 20.851562 55.816406 20.445312 57.160156 C 20.035156 58.503906 19.695312 59.863281 19.421875 61.242188 C 19.148438 62.621094 18.941406 64.007812 18.804688 65.40625 C 18.667969 66.800781 18.597656 68.203125 18.597656 69.605469 C 18.597656 71.011719 18.671875 72.410156 18.808594 73.808594 C 18.949219 75.203125 19.15625 76.589844 19.429688 77.96875 C 19.707031 79.34375 20.046875 80.703125 20.457031 82.046875 C 20.867188 83.390625 21.339844 84.710938 21.878906 86.007812 C 22.414062 87.304688 23.015625 88.570312 23.679688 89.808594 C 24.339844 91.046875 25.0625 92.246094 25.84375 93.414062 C 26.621094 94.582031 27.457031 95.707031 28.347656 96.792969 C 29.238281 97.878906 30.179688 98.914062 31.171875 99.910156 C 32.167969 100.902344 33.207031 101.84375 34.289062 102.734375 C 35.375 103.625 36.5 104.460938 37.667969 105.238281 C 38.835938 106.019531 40.039062 106.742188 41.273438 107.402344 C 42.511719 108.066406 43.78125 108.667969 45.074219 109.203125 C 46.371094 109.742188 47.691406 110.214844 49.035156 110.625 C 50.378906 111.035156 51.738281 111.375 53.113281 111.652344 C 54.492188 111.925781 55.878906 112.132812 57.273438 112.273438 C 58.671875 112.414062 60.070312 112.484375 61.476562 112.484375 Z M 61.476562 32.796875 C 62.679688 32.796875 63.882812 32.855469 65.082031 32.976562 C 66.28125 33.09375 67.472656 33.269531 68.65625 33.503906 C 69.839844 33.742188 71.007812 34.035156 72.160156 34.382812 C 73.3125 34.734375 74.449219 35.140625 75.5625 35.601562 C 76.675781 36.0625 77.765625 36.578125 78.828125 37.144531 C 79.890625 37.710938 80.921875 38.332031 81.925781 39 C 82.925781 39.671875 83.894531 40.390625 84.828125 41.152344 C 85.757812 41.917969 86.652344 42.726562 87.503906 43.578125 C 88.355469 44.433594 89.164062 45.324219 89.929688 46.253906 C 90.695312 47.1875 91.410156 48.15625 92.082031 49.15625 C 92.75 50.160156 93.371094 51.191406 93.9375 52.253906 C 94.507812 53.320312 95.019531 54.40625 95.480469 55.519531 C 95.945312 56.632812 96.347656 57.769531 96.699219 58.921875 C 97.050781 60.074219 97.339844 61.242188 97.578125 62.425781 C 97.8125 63.609375 97.988281 64.800781 98.105469 66 C 98.226562 67.199219 98.285156 68.402344 98.285156 69.605469 C 98.285156 70.8125 98.226562 72.015625 98.105469 73.214844 C 97.988281 74.414062 97.8125 75.605469 97.578125 76.789062 C 97.339844 77.96875 97.050781 79.136719 96.699219 80.292969 C 96.347656 81.445312 95.945312 82.578125 95.480469 83.691406 C 95.019531 84.808594 94.507812 85.894531 93.9375 86.957031 C 93.371094 88.023438 92.75 89.054688 92.082031 90.058594 C 91.410156 91.058594 90.695312 92.027344 89.929688 92.957031 C 89.164062 93.890625 88.355469 94.78125 87.503906 95.636719 C 86.652344 96.488281 85.757812 97.296875 84.828125 98.0625 C 83.894531 98.824219 82.925781 99.542969 81.925781 100.210938 C 80.921875 100.882812 79.890625 101.5 78.828125 102.070312 C 77.765625 102.636719 76.675781 103.152344 75.5625 103.613281 C 74.449219 104.074219 73.3125 104.480469 72.160156 104.832031 C 71.007812 105.179688 69.839844 105.472656 68.65625 105.707031 C 67.472656 105.945312 66.28125 106.121094 65.082031 106.238281 C 63.882812 106.355469 62.679688 106.414062 61.476562 106.414062 C 60.269531 106.414062 59.066406 106.355469 57.867188 106.238281 C 56.667969 106.121094 55.476562 105.945312 54.292969 105.707031 C 53.113281 105.472656 51.945312 105.179688 50.789062 104.832031 C 49.636719 104.480469 48.503906 104.074219 47.390625 103.613281 C 46.277344 103.152344 45.1875 102.636719 44.125 102.070312 C 43.0625 101.5 42.027344 100.882812 41.027344 100.210938 C 40.023438 99.542969 39.054688 98.824219 38.125 98.0625 C 37.191406 97.296875 36.300781 96.488281 35.449219 95.636719 C 34.59375 94.78125 33.785156 93.890625 33.023438 92.957031 C 32.257812 92.027344 31.539062 91.058594 30.871094 90.058594 C 30.199219 89.054688 29.582031 88.023438 29.011719 86.957031 C 28.445312 85.894531 27.929688 84.808594 27.46875 83.691406 C 27.007812 82.578125 26.601562 81.445312 26.25 80.292969 C 25.902344 79.136719 25.609375 77.96875 25.375 76.789062 C 25.136719 75.605469 24.960938 74.414062 24.84375 73.214844 C 24.726562 72.015625 24.667969 70.8125 24.667969 69.605469 C 24.667969 68.402344 24.726562 67.199219 24.847656 66 C 24.964844 64.800781 25.144531 63.609375 25.378906 62.429688 C 25.613281 61.246094 25.90625 60.078125 26.257812 58.925781 C 26.609375 57.773438 27.015625 56.640625 27.476562 55.527344 C 27.9375 54.414062 28.453125 53.324219 29.023438 52.261719 C 29.589844 51.199219 30.210938 50.167969 30.878906 49.164062 C 31.550781 48.164062 32.265625 47.195312 33.03125 46.265625 C 33.796875 45.332031 34.605469 44.441406 35.457031 43.589844 C 36.308594 42.734375 37.199219 41.925781 38.132812 41.164062 C 39.0625 40.398438 40.03125 39.679688 41.03125 39.011719 C 42.035156 38.339844 43.066406 37.722656 44.128906 37.152344 C 45.191406 36.585938 46.28125 36.070312 47.394531 35.609375 C 48.507812 35.148438 49.640625 34.742188 50.792969 34.390625 C 51.945312 34.039062 53.113281 33.746094 54.296875 33.511719 C 55.476562 33.273438 56.667969 33.097656 57.867188 32.976562 C 59.066406 32.859375 60.269531 32.800781 61.476562 32.796875 Z M 61.476562 32.796875 " fill-opacity="1" fill-rule="nonzero"/><path fill="#00f3f7" d="M 45.179688 93.183594 L 77.800781 93.183594 C 78.417969 93.183594 79.027344 93.125 79.628906 93.003906 C 80.234375 92.886719 80.820312 92.707031 81.390625 92.472656 C 81.957031 92.234375 82.5 91.945312 83.011719 91.605469 C 83.523438 91.261719 83.996094 90.875 84.429688 90.4375 C 84.867188 90.003906 85.253906 89.53125 85.597656 89.019531 C 85.941406 88.507812 86.226562 87.964844 86.464844 87.398438 C 86.699219 86.828125 86.878906 86.242188 86.996094 85.636719 C 87.117188 85.035156 87.179688 84.425781 87.179688 83.808594 L 87.179688 55.375 C 87.175781 54.761719 87.113281 54.152344 86.992188 53.546875 C 86.871094 52.945312 86.691406 52.359375 86.457031 51.792969 C 86.21875 51.222656 85.929688 50.683594 85.589844 50.171875 C 85.246094 49.660156 84.859375 49.1875 84.421875 48.753906 C 83.988281 48.320312 83.515625 47.929688 83.003906 47.589844 C 82.492188 47.246094 81.953125 46.957031 81.382812 46.71875 C 80.816406 46.484375 80.230469 46.304688 79.628906 46.183594 C 79.023438 46.0625 78.417969 46 77.800781 46 L 45.179688 46 C 44.566406 46 43.957031 46.0625 43.351562 46.183594 C 42.75 46.304688 42.164062 46.484375 41.597656 46.71875 C 41.027344 46.957031 40.488281 47.246094 39.976562 47.589844 C 39.464844 47.929688 38.992188 48.320312 38.558594 48.753906 C 38.125 49.1875 37.734375 49.660156 37.394531 50.171875 C 37.050781 50.683594 36.761719 51.222656 36.523438 51.792969 C 36.289062 52.359375 36.109375 52.945312 35.988281 53.546875 C 35.867188 54.152344 35.804688 54.761719 35.804688 55.375 L 35.804688 83.808594 C 35.804688 84.425781 35.863281 85.035156 35.984375 85.636719 C 36.101562 86.242188 36.28125 86.828125 36.515625 87.398438 C 36.753906 87.964844 37.042969 88.507812 37.382812 89.019531 C 37.726562 89.53125 38.113281 90.003906 38.550781 90.4375 C 38.984375 90.875 39.457031 91.261719 39.96875 91.605469 C 40.480469 91.945312 41.023438 92.234375 41.589844 92.472656 C 42.160156 92.707031 42.746094 92.886719 43.351562 93.003906 C 43.953125 93.125 44.5625 93.183594 45.179688 93.183594 Z M 41.871094 55.375 C 41.871094 54.9375 41.957031 54.515625 42.125 54.109375 C 42.292969 53.703125 42.53125 53.347656 42.839844 53.035156 C 43.152344 52.726562 43.507812 52.488281 43.914062 52.320312 C 44.320312 52.152344 44.742188 52.066406 45.179688 52.066406 L 77.800781 52.066406 C 78.238281 52.066406 78.660156 52.152344 79.066406 52.320312 C 79.472656 52.488281 79.828125 52.726562 80.140625 53.035156 C 80.449219 53.347656 80.6875 53.703125 80.855469 54.109375 C 81.023438 54.515625 81.109375 54.9375 81.109375 55.375 L 81.109375 83.808594 C 81.109375 84.246094 81.023438 84.667969 80.855469 85.074219 C 80.6875 85.480469 80.449219 85.835938 80.140625 86.148438 C 79.828125 86.457031 79.472656 86.695312 79.066406 86.863281 C 78.660156 87.03125 78.238281 87.117188 77.800781 87.117188 L 45.179688 87.117188 C 44.742188 87.117188 44.320312 87.03125 43.914062 86.863281 C 43.507812 86.695312 43.152344 86.457031 42.839844 86.148438 C 42.53125 85.835938 42.292969 85.480469 42.125 85.074219 C 41.957031 84.667969 41.871094 84.246094 41.871094 83.808594 Z M 41.871094 55.375 " fill-opacity="1" fill-rule="nonzero"/><path fill="#00f3f7" d="M 61.476562 83.839844 C 62.347656 83.839844 63.207031 83.753906 64.0625 83.585938 C 64.917969 83.414062 65.746094 83.164062 66.550781 82.828125 C 67.355469 82.496094 68.117188 82.085938 68.84375 81.605469 C 69.566406 81.121094 70.238281 80.570312 70.851562 79.953125 C 71.46875 79.339844 72.019531 78.667969 72.5 77.945312 C 72.984375 77.222656 73.394531 76.457031 73.726562 75.652344 C 74.058594 74.847656 74.3125 74.019531 74.480469 73.164062 C 74.652344 72.3125 74.734375 71.449219 74.734375 70.578125 C 74.734375 69.707031 74.652344 68.84375 74.480469 67.992188 C 74.3125 67.136719 74.058594 66.308594 73.726562 65.503906 C 73.394531 64.699219 72.984375 63.933594 72.5 63.210938 C 72.019531 62.488281 71.46875 61.816406 70.851562 61.203125 C 70.238281 60.585938 69.566406 60.035156 68.84375 59.550781 C 68.117188 59.066406 67.355469 58.660156 66.550781 58.328125 C 65.746094 57.992188 64.917969 57.742188 64.0625 57.570312 C 63.207031 57.402344 62.347656 57.316406 61.476562 57.316406 C 60.605469 57.316406 59.742188 57.402344 58.886719 57.570312 C 58.035156 57.742188 57.203125 57.992188 56.402344 58.328125 C 55.597656 58.660156 54.832031 59.070312 54.109375 59.550781 C 53.382812 60.035156 52.714844 60.585938 52.097656 61.203125 C 51.484375 61.816406 50.933594 62.488281 50.449219 63.210938 C 49.964844 63.933594 49.558594 64.699219 49.222656 65.503906 C 48.890625 66.308594 48.640625 67.136719 48.46875 67.992188 C 48.300781 68.84375 48.214844 69.707031 48.214844 70.578125 C 48.214844 71.449219 48.300781 72.3125 48.46875 73.164062 C 48.640625 74.019531 48.890625 74.847656 49.222656 75.652344 C 49.558594 76.457031 49.964844 77.222656 50.449219 77.945312 C 50.933594 78.667969 51.484375 79.339844 52.097656 79.953125 C 52.714844 80.570312 53.382812 81.121094 54.109375 81.605469 C 54.832031 82.085938 55.597656 82.496094 56.402344 82.828125 C 57.203125 83.164062 58.035156 83.414062 58.886719 83.585938 C 59.742188 83.753906 60.605469 83.839844 61.476562 83.839844 Z M 61.476562 63.386719 C 61.949219 63.386719 62.414062 63.433594 62.878906 63.523438 C 63.339844 63.617188 63.792969 63.753906 64.226562 63.933594 C 64.664062 64.113281 65.078125 64.335938 65.472656 64.597656 C 65.863281 64.859375 66.226562 65.160156 66.5625 65.492188 C 66.894531 65.828125 67.191406 66.191406 67.457031 66.582031 C 67.71875 66.976562 67.9375 67.390625 68.121094 67.824219 C 68.300781 68.261719 68.4375 68.710938 68.527344 69.175781 C 68.621094 69.636719 68.667969 70.105469 68.667969 70.578125 C 68.667969 71.050781 68.621094 71.519531 68.527344 71.980469 C 68.4375 72.445312 68.300781 72.894531 68.121094 73.332031 C 67.9375 73.765625 67.71875 74.179688 67.457031 74.574219 C 67.191406 74.964844 66.894531 75.328125 66.5625 75.664062 C 66.226562 75.996094 65.863281 76.296875 65.472656 76.558594 C 65.078125 76.820312 64.664062 77.042969 64.226562 77.222656 C 63.792969 77.402344 63.339844 77.539062 62.878906 77.632812 C 62.414062 77.722656 61.949219 77.769531 61.476562 77.769531 C 61.003906 77.769531 60.535156 77.722656 60.070312 77.632812 C 59.609375 77.539062 59.160156 77.402344 58.722656 77.222656 C 58.285156 77.042969 57.871094 76.820312 57.480469 76.558594 C 57.085938 76.296875 56.722656 75.996094 56.390625 75.664062 C 56.054688 75.328125 55.757812 74.964844 55.496094 74.574219 C 55.234375 74.179688 55.011719 73.765625 54.832031 73.332031 C 54.648438 72.894531 54.515625 72.445312 54.421875 71.980469 C 54.328125 71.519531 54.285156 71.050781 54.285156 70.578125 C 54.292969 70.113281 54.347656 69.652344 54.445312 69.195312 C 54.546875 68.742188 54.6875 68.300781 54.875 67.871094 C 55.058594 67.445312 55.285156 67.039062 55.546875 66.65625 C 55.8125 66.269531 56.109375 65.917969 56.441406 65.589844 C 56.777344 65.265625 57.136719 64.972656 57.527344 64.71875 C 57.914062 64.460938 58.328125 64.246094 58.757812 64.070312 C 59.1875 63.894531 59.632812 63.761719 60.089844 63.671875 C 60.546875 63.582031 61.007812 63.539062 61.476562 63.539062 Z M 61.476562 63.386719 " fill-opacity="1" fill-rule="nonzero"/><path fill="#00f3f7" d="M 77.863281 57.378906 C 77.863281 57.648438 77.808594 57.90625 77.707031 58.15625 C 77.605469 58.40625 77.457031 58.625 77.265625 58.816406 C 77.074219 59.007812 76.855469 59.152344 76.605469 59.257812 C 76.359375 59.359375 76.097656 59.410156 75.828125 59.410156 C 75.558594 59.410156 75.300781 59.359375 75.050781 59.257812 C 74.800781 59.152344 74.582031 59.007812 74.390625 58.816406 C 74.199219 58.625 74.054688 58.40625 73.949219 58.15625 C 73.847656 57.90625 73.796875 57.648438 73.796875 57.378906 C 73.796875 57.109375 73.847656 56.847656 73.949219 56.601562 C 74.054688 56.351562 74.199219 56.132812 74.390625 55.941406 C 74.582031 55.75 74.800781 55.601562 75.050781 55.5 C 75.300781 55.394531 75.558594 55.34375 75.828125 55.34375 C 76.097656 55.34375 76.359375 55.394531 76.605469 55.5 C 76.855469 55.601562 77.074219 55.75 77.265625 55.941406 C 77.457031 56.132812 77.605469 56.351562 77.707031 56.601562 C 77.808594 56.847656 77.863281 57.109375 77.863281 57.378906 Z M 77.863281 57.378906 " fill-opacity="1" fill-rule="nonzero"/><path fill="#00f3f7" d="M 368.964844 178.546875 C 368.964844 177.164062 368.894531 175.785156 368.761719 174.40625 C 368.628906 173.03125 368.429688 171.664062 368.160156 170.308594 C 367.894531 168.949219 367.5625 167.609375 367.167969 166.285156 C 366.773438 164.960938 366.3125 163.65625 365.789062 162.378906 C 365.269531 161.097656 364.6875 159.84375 364.042969 158.621094 C 363.398438 157.394531 362.699219 156.207031 361.941406 155.050781 C 361.183594 153.894531 360.371094 152.777344 359.503906 151.699219 C 358.636719 150.621094 357.71875 149.585938 356.753906 148.597656 C 355.789062 147.609375 354.777344 146.667969 353.71875 145.777344 C 352.660156 144.886719 351.5625 144.050781 350.425781 143.265625 C 349.285156 142.480469 348.113281 141.75 346.902344 141.078125 C 345.695312 140.410156 344.457031 139.796875 343.1875 139.246094 C 341.917969 138.695312 340.628906 138.203125 339.3125 137.777344 C 337.996094 137.351562 336.664062 136.988281 335.3125 136.691406 C 333.964844 136.394531 332.601562 136.164062 331.230469 135.996094 C 329.855469 135.832031 328.480469 135.730469 327.097656 135.699219 C 325.714844 135.667969 324.332031 135.699219 322.953125 135.800781 C 321.574219 135.902344 320.203125 136.070312 318.839844 136.304688 C 317.476562 136.539062 316.128906 136.835938 314.796875 137.199219 C 313.460938 137.566406 312.148438 137.992188 310.855469 138.484375 C 309.5625 138.976562 308.296875 139.527344 307.058594 140.140625 C 305.820312 140.753906 304.613281 141.425781 303.4375 142.15625 C 302.261719 142.886719 301.128906 143.671875 300.027344 144.511719 C 298.929688 145.355469 297.875 146.246094 296.863281 147.1875 C 295.851562 148.128906 294.886719 149.117188 293.972656 150.15625 C 293.054688 151.191406 292.191406 152.269531 291.378906 153.386719 C 290.566406 154.507812 289.8125 155.664062 289.109375 156.855469 C 288.410156 158.046875 287.769531 159.269531 287.1875 160.523438 C 286.605469 161.78125 286.085938 163.058594 285.628906 164.363281 C 285.171875 165.667969 284.777344 166.992188 284.445312 168.335938 C 284.117188 169.679688 283.851562 171.035156 283.652344 172.402344 C 283.453125 173.769531 283.324219 175.144531 283.257812 176.527344 C 283.191406 177.910156 283.191406 179.289062 283.261719 180.671875 C 283.328125 182.050781 283.460938 183.425781 283.664062 184.792969 C 283.863281 186.164062 284.128906 187.519531 284.460938 188.859375 C 284.792969 190.203125 285.191406 191.527344 285.652344 192.832031 C 286.109375 194.132812 286.632812 195.414062 287.214844 196.667969 C 287.800781 197.921875 288.441406 199.144531 289.144531 200.335938 C 289.847656 201.527344 290.605469 202.679688 291.417969 203.796875 C 292.234375 204.917969 293.097656 205.992188 294.015625 207.027344 C 294.933594 208.0625 295.898438 209.046875 296.914062 209.988281 C 297.925781 210.929688 298.984375 211.820312 300.082031 212.660156 C 301.183594 213.496094 302.320312 214.28125 303.496094 215.007812 C 304.671875 215.738281 305.878906 216.40625 307.117188 217.019531 C 308.359375 217.632812 309.625 218.183594 310.917969 218.671875 C 312.210938 219.160156 313.527344 219.585938 314.859375 219.949219 C 316.195312 220.308594 317.542969 220.605469 318.90625 220.839844 C 320.269531 221.070312 321.640625 221.234375 323.019531 221.332031 C 322.941406 223.1875 322.585938 224.988281 321.960938 226.734375 L 327.632812 228.890625 C 328.558594 226.457031 329.054688 223.9375 329.121094 221.332031 C 330.457031 221.238281 331.789062 221.082031 333.113281 220.863281 C 334.433594 220.640625 335.746094 220.359375 337.042969 220.019531 C 338.339844 219.675781 339.617188 219.273438 340.875 218.808594 C 342.132812 218.347656 343.367188 217.828125 344.578125 217.25 C 345.789062 216.667969 346.96875 216.035156 348.121094 215.347656 C 349.269531 214.65625 350.386719 213.914062 351.46875 213.121094 C 352.546875 212.328125 353.589844 211.484375 354.589844 210.59375 C 355.59375 209.703125 356.550781 208.765625 357.464844 207.785156 C 358.378906 206.800781 359.246094 205.78125 360.0625 204.71875 C 360.882812 203.65625 361.648438 202.554688 362.363281 201.421875 C 363.078125 200.285156 363.738281 199.121094 364.34375 197.921875 C 364.949219 196.726562 365.5 195.503906 365.988281 194.257812 C 366.480469 193.007812 366.910156 191.738281 367.285156 190.449219 C 367.65625 189.164062 367.964844 187.859375 368.214844 186.542969 C 368.464844 185.222656 368.652344 183.898438 368.777344 182.5625 C 368.902344 181.226562 368.964844 179.886719 368.964844 178.546875 Z M 326.085938 215.265625 C 324.878906 215.265625 323.675781 215.207031 322.476562 215.085938 C 321.277344 214.96875 320.085938 214.792969 318.902344 214.554688 C 317.71875 214.320312 316.550781 214.027344 315.394531 213.679688 C 314.242188 213.328125 313.105469 212.921875 311.992188 212.460938 C 310.878906 211.996094 309.789062 211.484375 308.726562 210.914062 C 307.664062 210.34375 306.628906 209.726562 305.625 209.054688 C 304.625 208.382812 303.65625 207.667969 302.726562 206.902344 C 301.792969 206.136719 300.898438 205.324219 300.046875 204.472656 C 299.195312 203.621094 298.386719 202.726562 297.621094 201.792969 C 296.855469 200.859375 296.140625 199.894531 295.46875 198.890625 C 294.800781 197.886719 294.183594 196.851562 293.613281 195.789062 C 293.046875 194.726562 292.53125 193.636719 292.070312 192.519531 C 291.609375 191.40625 291.203125 190.273438 290.855469 189.117188 C 290.507812 187.960938 290.214844 186.792969 289.980469 185.609375 C 289.746094 184.425781 289.570312 183.234375 289.453125 182.035156 C 289.335938 180.835938 289.277344 179.632812 289.277344 178.425781 C 289.277344 177.21875 289.339844 176.015625 289.457031 174.816406 C 289.578125 173.617188 289.753906 172.425781 289.992188 171.242188 C 290.226562 170.058594 290.523438 168.890625 290.871094 167.734375 C 291.222656 166.582031 291.632812 165.449219 292.09375 164.335938 C 292.558594 163.21875 293.074219 162.132812 293.644531 161.070312 C 294.210938 160.003906 294.832031 158.972656 295.503906 157.972656 C 296.175781 156.96875 296.894531 156.003906 297.660156 155.070312 C 298.425781 154.140625 299.238281 153.246094 300.089844 152.394531 C 300.945312 151.542969 301.839844 150.734375 302.773438 149.972656 C 303.707031 149.207031 304.671875 148.492188 305.675781 147.824219 C 306.679688 147.152344 307.714844 146.535156 308.78125 145.96875 C 309.84375 145.402344 310.933594 144.886719 312.050781 144.429688 C 313.164062 143.96875 314.300781 143.5625 315.453125 143.214844 C 316.609375 142.867188 317.777344 142.578125 318.960938 142.34375 C 320.144531 142.109375 321.335938 141.933594 322.535156 141.816406 C 323.738281 141.703125 324.941406 141.644531 326.148438 141.648438 C 327.351562 141.648438 328.554688 141.710938 329.757812 141.832031 C 330.957031 141.949219 332.148438 142.128906 333.332031 142.367188 C 334.511719 142.605469 335.679688 142.898438 336.835938 143.25 C 337.988281 143.601562 339.121094 144.011719 340.234375 144.476562 C 341.347656 144.9375 342.4375 145.457031 343.5 146.027344 C 344.5625 146.597656 345.59375 147.21875 346.597656 147.890625 C 347.597656 148.5625 348.5625 149.28125 349.496094 150.050781 C 350.425781 150.816406 351.316406 151.625 352.167969 152.480469 C 353.019531 153.335938 353.824219 154.230469 354.589844 155.164062 C 355.351562 156.097656 356.066406 157.066406 356.734375 158.070312 C 357.402344 159.078125 358.019531 160.109375 358.585938 161.175781 C 359.152344 162.242188 359.667969 163.332031 360.125 164.445312 C 360.585938 165.5625 360.988281 166.699219 361.335938 167.851562 C 361.683594 169.007812 361.972656 170.175781 362.203125 171.359375 C 362.4375 172.542969 362.609375 173.734375 362.726562 174.9375 C 362.84375 176.136719 362.898438 177.339844 362.894531 178.546875 C 362.890625 179.75 362.828125 180.949219 362.703125 182.148438 C 362.582031 183.34375 362.402344 184.53125 362.164062 185.710938 C 361.921875 186.890625 361.628906 188.054688 361.273438 189.203125 C 360.921875 190.355469 360.515625 191.484375 360.050781 192.59375 C 359.585938 193.707031 359.070312 194.789062 358.5 195.851562 C 357.933594 196.910156 357.3125 197.941406 356.640625 198.9375 C 355.972656 199.9375 355.253906 200.902344 354.488281 201.832031 C 353.722656 202.757812 352.914062 203.648438 352.0625 204.496094 C 351.210938 205.347656 350.320312 206.152344 349.390625 206.917969 C 348.460938 207.679688 347.496094 208.394531 346.492188 209.0625 C 345.492188 209.730469 344.460938 210.347656 343.402344 210.914062 C 342.339844 211.480469 341.253906 211.996094 340.140625 212.457031 C 339.03125 212.914062 337.898438 213.320312 336.75 213.671875 C 335.597656 214.019531 334.433594 214.3125 333.25 214.550781 C 332.070312 214.785156 330.882812 214.960938 329.6875 215.082031 C 328.488281 215.203125 327.289062 215.261719 326.085938 215.265625 Z M 326.085938 215.265625 " fill-opacity="1" fill-rule="nonzero"/><path fill="#00f3f7" d="M 353.578125 162.707031 C 353.332031 162.453125 353.046875 162.253906 352.730469 162.097656 C 352.855469 161.796875 352.929688 161.484375 352.957031 161.15625 C 352.980469 160.832031 352.953125 160.511719 352.875 160.195312 C 352.792969 159.875 352.667969 159.578125 352.492188 159.304688 C 352.316406 159.027344 352.101562 158.785156 351.847656 158.578125 C 351.578125 158.351562 351.273438 158.179688 350.941406 158.058594 C 350.605469 157.9375 350.261719 157.875 349.90625 157.875 C 349.550781 157.875 349.207031 157.9375 348.875 158.058594 C 348.539062 158.179688 348.238281 158.351562 347.964844 158.578125 C 346.804688 159.171875 345.601562 159.660156 344.355469 160.035156 C 343.417969 159.292969 342.402344 158.6875 341.300781 158.222656 C 340.203125 157.753906 339.058594 157.445312 337.875 157.292969 C 336.691406 157.136719 335.507812 157.148438 334.324219 157.316406 C 333.140625 157.488281 332.003906 157.8125 330.910156 158.292969 C 329.816406 158.773438 328.808594 159.394531 327.882812 160.152344 C 326.960938 160.90625 326.152344 161.773438 325.464844 162.75 C 324.78125 163.730469 324.234375 164.78125 323.835938 165.90625 C 323.4375 167.03125 323.195312 168.191406 323.113281 169.382812 C 321.5625 169.171875 320.042969 168.8125 318.5625 168.304688 C 317.082031 167.800781 315.660156 167.15625 314.304688 166.378906 C 312.945312 165.597656 311.675781 164.695312 310.492188 163.667969 C 309.308594 162.640625 308.238281 161.511719 307.273438 160.277344 C 306.984375 159.90625 306.632812 159.617188 306.210938 159.410156 C 305.789062 159.199219 305.34375 159.097656 304.875 159.09375 C 304.398438 159.09375 303.945312 159.203125 303.519531 159.414062 C 303.089844 159.628906 302.734375 159.925781 302.445312 160.308594 C 301.914062 161.183594 301.480469 162.109375 301.148438 163.078125 C 300.816406 164.050781 300.597656 165.046875 300.484375 166.066406 C 300.371094 167.085938 300.371094 168.105469 300.480469 169.125 C 300.59375 170.144531 300.8125 171.140625 301.140625 172.113281 C 300.460938 172.695312 300.109375 173.433594 300.082031 174.328125 C 300.050781 176.167969 300.375 177.941406 301.050781 179.652344 C 301.730469 181.359375 302.710938 182.875 303.996094 184.191406 C 303.769531 184.847656 303.769531 185.507812 303.996094 186.164062 C 304.855469 188.792969 306.394531 190.9375 308.605469 192.597656 C 306.300781 193.332031 303.945312 193.582031 301.535156 193.355469 C 301.207031 193.335938 300.882812 193.371094 300.566406 193.457031 C 300.25 193.546875 299.953125 193.679688 299.679688 193.863281 C 299.40625 194.046875 299.167969 194.269531 298.964844 194.53125 C 298.765625 194.792969 298.609375 195.078125 298.503906 195.386719 C 298.394531 195.707031 298.339844 196.035156 298.339844 196.371094 C 298.339844 196.710938 298.394531 197.039062 298.507812 197.355469 C 298.617188 197.675781 298.773438 197.96875 298.980469 198.234375 C 299.1875 198.5 299.433594 198.722656 299.714844 198.910156 C 302.230469 200.488281 304.90625 201.722656 307.738281 202.609375 C 310.570312 203.5 313.46875 204.015625 316.4375 204.15625 C 317.453125 204.164062 318.464844 204.09375 319.472656 203.945312 C 322.621094 203.675781 325.675781 202.972656 328.632812 201.84375 C 331.585938 200.714844 334.328125 199.199219 336.859375 197.300781 C 339.683594 195.054688 342.058594 192.40625 343.988281 189.359375 C 345.917969 186.3125 347.296875 183.03125 348.117188 179.519531 C 348.496094 177.949219 348.757812 176.359375 348.90625 174.753906 C 348.90625 173.964844 348.90625 173.175781 349.089844 172.355469 L 349.089844 171.871094 C 350.839844 170.320312 352.410156 168.601562 353.792969 166.710938 C 354.019531 166.421875 354.191406 166.101562 354.304688 165.75 C 354.414062 165.398438 354.460938 165.039062 354.441406 164.667969 C 354.421875 164.300781 354.335938 163.945312 354.1875 163.609375 C 354.039062 163.269531 353.835938 162.96875 353.578125 162.707031 Z M 343.019531 172.144531 C 343.019531 172.839844 343.019531 173.539062 343.019531 174.207031 C 342.882812 175.546875 342.660156 176.871094 342.351562 178.183594 C 341.703125 181.042969 340.601562 183.714844 339.039062 186.199219 C 337.476562 188.683594 335.546875 190.835938 333.246094 192.65625 C 331.128906 194.203125 328.839844 195.429688 326.382812 196.335938 C 323.921875 197.242188 321.386719 197.796875 318.773438 197.996094 C 316.734375 198.277344 314.710938 198.1875 312.703125 197.726562 C 314.671875 196.960938 316.503906 195.949219 318.195312 194.691406 C 318.644531 194.324219 318.960938 193.867188 319.144531 193.320312 C 319.332031 192.773438 319.359375 192.21875 319.226562 191.65625 C 319.078125 191.085938 318.785156 190.597656 318.351562 190.199219 C 317.917969 189.796875 317.410156 189.546875 316.832031 189.441406 C 315.117188 189.253906 313.558594 188.660156 312.15625 187.648438 C 312.847656 187.34375 313.355469 186.847656 313.675781 186.164062 C 313.914062 185.71875 314.03125 185.242188 314.03125 184.738281 C 314.03125 184.230469 313.914062 183.757812 313.675781 183.3125 L 313.492188 183.039062 C 313.054688 182.300781 312.414062 181.835938 311.582031 181.640625 C 310.78125 181.476562 310.042969 181.164062 309.371094 180.699219 C 308.695312 180.234375 308.136719 179.660156 307.695312 178.972656 C 308.3125 178.941406 308.871094 178.738281 309.363281 178.371094 C 309.859375 178 310.207031 177.523438 310.410156 176.941406 C 310.613281 176.355469 310.636719 175.765625 310.480469 175.167969 C 310.324219 174.570312 310.011719 174.070312 309.546875 173.660156 C 308.761719 173.007812 308.132812 172.230469 307.65625 171.324219 C 307.183594 170.421875 306.902344 169.460938 306.816406 168.441406 C 309.59375 170.730469 312.664062 172.503906 316.035156 173.769531 C 319.402344 175.03125 322.882812 175.714844 326.480469 175.816406 C 326.953125 175.84375 327.40625 175.757812 327.835938 175.558594 C 328.265625 175.359375 328.625 175.070312 328.910156 174.691406 C 329.199219 174.324219 329.398438 173.914062 329.5 173.453125 C 329.601562 172.996094 329.597656 172.539062 329.484375 172.082031 C 329.363281 171.535156 329.300781 170.976562 329.304688 170.414062 C 329.304688 169.949219 329.347656 169.488281 329.4375 169.035156 C 329.527344 168.578125 329.664062 168.136719 329.839844 167.707031 C 330.019531 167.28125 330.238281 166.871094 330.496094 166.484375 C 330.753906 166.101562 331.046875 165.742188 331.375 165.414062 C 331.703125 165.085938 332.058594 164.792969 332.445312 164.535156 C 332.832031 164.277344 333.238281 164.058594 333.667969 163.882812 C 334.097656 163.703125 334.539062 163.570312 334.992188 163.480469 C 335.449219 163.390625 335.910156 163.34375 336.375 163.34375 C 337.347656 163.335938 338.285156 163.527344 339.175781 163.917969 C 340.070312 164.3125 340.84375 164.867188 341.5 165.589844 C 341.742188 165.84375 342.015625 166.058594 342.320312 166.226562 C 342.171875 166.953125 342.273438 167.640625 342.625 168.289062 C 342.8125 168.667969 343.074219 168.980469 343.414062 169.230469 C 343.058594 170.171875 342.925781 171.140625 343.019531 172.144531 Z M 343.019531 172.144531 " fill-opacity="1" fill-rule="nonzero"/><path fill="#00f3f7" d="M 284.300781 80.714844 C 285.429688 80.714844 286.554688 80.660156 287.679688 80.550781 C 288.804688 80.441406 289.921875 80.277344 291.027344 80.058594 C 292.136719 79.835938 293.230469 79.5625 294.3125 79.238281 C 295.390625 78.910156 296.453125 78.53125 297.496094 78.101562 C 298.539062 77.667969 299.5625 77.1875 300.558594 76.65625 C 301.554688 76.125 302.519531 75.546875 303.460938 74.917969 C 304.398438 74.292969 305.304688 73.621094 306.179688 72.90625 C 307.054688 72.1875 307.890625 71.433594 308.6875 70.632812 C 309.488281 69.835938 310.246094 69 310.960938 68.128906 C 311.679688 67.257812 312.351562 66.351562 312.980469 65.414062 C 313.609375 64.472656 314.1875 63.507812 314.722656 62.511719 C 315.253906 61.515625 315.738281 60.496094 316.171875 59.453125 C 316.601562 58.410156 316.984375 57.347656 317.3125 56.269531 C 317.640625 55.1875 317.914062 54.09375 318.136719 52.988281 C 318.359375 51.878906 318.523438 50.765625 318.636719 49.640625 C 318.746094 48.515625 318.800781 47.390625 318.804688 46.261719 C 318.804688 45.132812 318.75 44.003906 318.640625 42.882812 C 318.527344 41.757812 318.363281 40.640625 318.144531 39.535156 C 317.925781 38.425781 317.652344 37.332031 317.324219 36.253906 C 316.996094 35.171875 316.617188 34.109375 316.1875 33.066406 C 315.753906 32.023438 315.273438 31.003906 314.742188 30.007812 C 314.210938 29.011719 313.628906 28.042969 313.003906 27.101562 C 312.375 26.164062 311.703125 25.257812 310.988281 24.382812 C 310.273438 23.511719 309.515625 22.675781 308.71875 21.875 C 307.917969 21.078125 307.082031 20.320312 306.210938 19.601562 C 305.339844 18.886719 304.433594 18.214844 303.496094 17.585938 C 302.554688 16.957031 301.589844 16.378906 300.59375 15.84375 C 299.597656 15.3125 298.578125 14.832031 297.535156 14.398438 C 296.492188 13.964844 295.429688 13.585938 294.347656 13.257812 C 293.269531 12.929688 292.175781 12.652344 291.066406 12.433594 C 289.960938 12.214844 288.84375 12.046875 287.71875 11.9375 C 286.597656 11.824219 285.46875 11.769531 284.339844 11.769531 C 283.210938 11.769531 282.085938 11.824219 280.960938 11.933594 C 279.835938 12.042969 278.722656 12.210938 277.613281 12.429688 C 276.507812 12.648438 275.414062 12.921875 274.332031 13.25 C 273.25 13.578125 272.191406 13.957031 271.144531 14.390625 C 270.101562 14.820312 269.082031 15.304688 268.085938 15.835938 C 267.089844 16.367188 266.125 16.949219 265.183594 17.574219 C 264.246094 18.203125 263.339844 18.875 262.464844 19.589844 C 261.59375 20.304688 260.757812 21.0625 259.960938 21.863281 C 259.160156 22.660156 258.402344 23.496094 257.6875 24.367188 C 256.96875 25.242188 256.296875 26.148438 255.671875 27.085938 C 255.042969 28.023438 254.464844 28.992188 253.929688 29.988281 C 253.398438 30.984375 252.917969 32.003906 252.484375 33.046875 C 252.050781 34.089844 251.671875 35.152344 251.34375 36.234375 C 251.015625 37.3125 250.742188 38.40625 250.519531 39.515625 C 250.300781 40.621094 250.136719 41.738281 250.023438 42.863281 C 249.914062 43.984375 249.859375 45.113281 249.859375 46.242188 C 249.859375 47.371094 249.917969 48.496094 250.027344 49.617188 C 250.140625 50.738281 250.304688 51.855469 250.527344 52.960938 C 250.746094 54.066406 251.019531 55.160156 251.347656 56.238281 C 251.675781 57.320312 252.054688 58.378906 252.488281 59.421875 C 252.921875 60.464844 253.402344 61.480469 253.933594 62.476562 C 254.464844 63.472656 255.042969 64.4375 255.671875 65.375 C 256.296875 66.3125 256.96875 67.21875 257.683594 68.089844 C 258.398438 68.964844 259.15625 69.800781 259.953125 70.597656 C 260.75 71.394531 261.585938 72.152344 262.457031 72.867188 C 263.328125 73.585938 264.234375 74.257812 265.171875 74.882812 C 266.109375 75.511719 267.074219 76.089844 268.070312 76.625 C 269.0625 77.15625 270.082031 77.640625 271.121094 78.074219 C 272.164062 78.503906 273.226562 78.886719 274.304688 79.214844 C 275.382812 79.542969 276.476562 79.820312 277.582031 80.039062 C 278.6875 80.261719 279.800781 80.429688 280.925781 80.542969 C 282.046875 80.65625 283.171875 80.710938 284.300781 80.714844 Z M 284.300781 18.019531 C 285.230469 18.019531 286.160156 18.0625 287.085938 18.152344 C 288.011719 18.246094 288.933594 18.378906 289.84375 18.558594 C 290.757812 18.742188 291.660156 18.964844 292.550781 19.234375 C 293.441406 19.503906 294.316406 19.816406 295.175781 20.171875 C 296.039062 20.527344 296.878906 20.925781 297.699219 21.363281 C 298.519531 21.800781 299.316406 22.277344 300.09375 22.792969 C 300.867188 23.3125 301.613281 23.863281 302.332031 24.453125 C 303.054688 25.042969 303.742188 25.667969 304.402344 26.324219 C 305.058594 26.984375 305.683594 27.671875 306.273438 28.390625 C 306.867188 29.109375 307.421875 29.855469 307.9375 30.628906 C 308.457031 31.402344 308.933594 32.199219 309.371094 33.019531 C 309.8125 33.839844 310.210938 34.679688 310.566406 35.539062 C 310.921875 36.398438 311.238281 37.273438 311.507812 38.164062 C 311.777344 39.054688 312.003906 39.957031 312.1875 40.871094 C 312.367188 41.78125 312.503906 42.703125 312.597656 43.628906 C 312.6875 44.554688 312.734375 45.484375 312.734375 46.414062 C 312.734375 47.34375 312.6875 48.273438 312.597656 49.199219 C 312.507812 50.125 312.371094 51.042969 312.191406 51.957031 C 312.007812 52.871094 311.78125 53.773438 311.511719 54.664062 C 311.242188 55.554688 310.929688 56.429688 310.574219 57.289062 C 310.21875 58.148438 309.820312 58.988281 309.382812 59.808594 C 308.945312 60.628906 308.464844 61.425781 307.949219 62.199219 C 307.433594 62.976562 306.878906 63.722656 306.289062 64.441406 C 305.699219 65.160156 305.074219 65.847656 304.414062 66.507812 C 303.757812 67.164062 303.066406 67.789062 302.347656 68.378906 C 301.628906 68.96875 300.882812 69.523438 300.109375 70.042969 C 299.335938 70.558594 298.539062 71.035156 297.71875 71.472656 C 296.894531 71.914062 296.054688 72.308594 295.195312 72.667969 C 294.335938 73.023438 293.460938 73.335938 292.570312 73.605469 C 291.679688 73.875 290.777344 74.101562 289.863281 74.28125 C 288.953125 74.464844 288.03125 74.601562 287.105469 74.691406 C 286.179688 74.78125 285.25 74.828125 284.320312 74.828125 C 283.390625 74.824219 282.460938 74.78125 281.535156 74.6875 C 280.609375 74.597656 279.691406 74.460938 278.777344 74.277344 C 277.863281 74.097656 276.964844 73.871094 276.074219 73.597656 C 275.183594 73.328125 274.308594 73.015625 273.449219 72.660156 C 272.589844 72.300781 271.746094 71.902344 270.925781 71.464844 C 270.105469 71.027344 269.308594 70.546875 268.535156 70.03125 C 267.761719 69.511719 267.015625 68.957031 266.296875 68.367188 C 265.578125 67.777344 264.890625 67.152344 264.234375 66.492188 C 263.574219 65.835938 262.953125 65.144531 262.363281 64.425781 C 261.773438 63.707031 261.21875 62.957031 260.703125 62.183594 C 260.1875 61.410156 259.707031 60.613281 259.269531 59.792969 C 258.832031 58.96875 258.4375 58.128906 258.082031 57.269531 C 257.726562 56.410156 257.414062 55.535156 257.144531 54.644531 C 256.875 53.753906 256.648438 52.851562 256.46875 51.9375 C 256.289062 51.023438 256.152344 50.105469 256.0625 49.179688 C 255.972656 48.253906 255.925781 47.324219 255.929688 46.394531 C 255.929688 45.464844 255.976562 44.539062 256.066406 43.613281 C 256.160156 42.6875 256.296875 41.769531 256.476562 40.859375 C 256.660156 39.949219 256.886719 39.050781 257.15625 38.160156 C 257.425781 37.269531 257.738281 36.398438 258.097656 35.539062 C 258.453125 34.683594 258.847656 33.84375 259.285156 33.023438 C 259.726562 32.203125 260.203125 31.410156 260.71875 30.636719 C 261.234375 29.863281 261.789062 29.121094 262.378906 28.402344 C 262.96875 27.683594 263.589844 26.996094 264.246094 26.339844 C 264.902344 25.683594 265.589844 25.058594 266.308594 24.46875 C 267.027344 23.878906 267.773438 23.328125 268.542969 22.8125 C 269.316406 22.292969 270.113281 21.816406 270.933594 21.378906 C 271.75 20.941406 272.589844 20.542969 273.449219 20.1875 C 274.304688 19.832031 275.179688 19.519531 276.066406 19.25 C 276.957031 18.976562 277.855469 18.753906 278.769531 18.570312 C 279.679688 18.386719 280.597656 18.25 281.519531 18.160156 C 282.445312 18.066406 283.371094 18.019531 284.300781 18.019531 Z M 284.300781 18.019531 " fill-opacity="1" fill-rule="nonzero"/><path fill="#00f3f7" d="M 279.019531 65.996094 L 280.082031 65.996094 L 280.082031 66.785156 L 279.902344 68.394531 C 279.859375 69.066406 279.972656 69.710938 280.246094 70.328125 C 280.519531 70.945312 280.921875 71.460938 281.449219 71.882812 C 282.144531 72.390625 282.921875 72.632812 283.785156 72.609375 C 284.496094 72.609375 285.183594 72.476562 285.847656 72.214844 C 292.421875 68.78125 298.421875 64.535156 303.84375 59.472656 C 311.761719 50.855469 312.582031 41.265625 306.210938 32.917969 C 305.9375 32.464844 299.292969 22.296875 281.601562 23.632812 L 281.175781 23.632812 C 276.835938 24.300781 262.453125 27.519531 259.507812 41.839844 C 259.296875 42.296875 256.503906 60.503906 279.019531 65.996094 Z M 265.273438 43.328125 C 267.367188 33.101562 277.59375 30.492188 281.875 29.855469 C 295.648438 28.882812 300.597656 35.921875 300.929688 36.53125 C 305.664062 42.84375 305.058594 49.03125 299.078125 55.527344 C 295.148438 59.242188 290.839844 62.449219 286.152344 65.144531 C 286.164062 64.535156 286.085938 63.941406 285.910156 63.355469 C 285.121094 61.019531 282.390625 60.320312 280.144531 60.078125 C 263.574219 55.769531 265.214844 43.722656 265.273438 43.328125 Z M 265.273438 43.328125 " fill-opacity="1" fill-rule="nonzero"/><path fill="#00f3f7" d="M 275.441406 47.910156 C 275.804688 47.914062 276.15625 47.847656 276.492188 47.710938 C 276.828125 47.574219 277.128906 47.378906 277.386719 47.125 C 277.644531 46.871094 277.847656 46.574219 277.988281 46.238281 C 278.128906 45.902344 278.199219 45.554688 278.199219 45.1875 C 278.203125 44.824219 278.132812 44.476562 277.996094 44.140625 C 277.855469 43.800781 277.660156 43.503906 277.402344 43.25 C 277.144531 42.992188 276.847656 42.792969 276.511719 42.652344 C 276.175781 42.515625 275.824219 42.445312 275.460938 42.449219 C 275.097656 42.449219 274.746094 42.519531 274.410156 42.660156 C 274.074219 42.804688 273.78125 43.003906 273.523438 43.261719 C 273.269531 43.523438 273.074219 43.820312 272.9375 44.15625 C 272.800781 44.496094 272.734375 44.84375 272.738281 45.210938 C 272.738281 45.566406 272.808594 45.914062 272.945312 46.242188 C 273.082031 46.574219 273.277344 46.867188 273.53125 47.121094 C 273.785156 47.371094 274.074219 47.566406 274.40625 47.703125 C 274.738281 47.839844 275.082031 47.910156 275.441406 47.910156 Z M 275.441406 47.910156 " fill-opacity="1" fill-rule="nonzero"/><path fill="#00f3f7" d="M 285.96875 47.910156 C 286.332031 47.914062 286.683594 47.847656 287.023438 47.710938 C 287.359375 47.574219 287.65625 47.378906 287.917969 47.125 C 288.175781 46.871094 288.375 46.574219 288.515625 46.238281 C 288.660156 45.902344 288.730469 45.554688 288.730469 45.1875 C 288.730469 44.824219 288.664062 44.476562 288.523438 44.140625 C 288.386719 43.800781 288.1875 43.503906 287.929688 43.25 C 287.671875 42.992188 287.375 42.792969 287.039062 42.652344 C 286.703125 42.515625 286.355469 42.445312 285.988281 42.449219 C 285.625 42.449219 285.277344 42.519531 284.941406 42.660156 C 284.605469 42.804688 284.308594 43.003906 284.054688 43.261719 C 283.800781 43.523438 283.601562 43.820312 283.46875 44.15625 C 283.332031 44.496094 283.265625 44.84375 283.269531 45.210938 C 283.269531 45.566406 283.335938 45.914062 283.472656 46.242188 C 283.613281 46.574219 283.808594 46.867188 284.058594 47.121094 C 284.3125 47.371094 284.605469 47.566406 284.9375 47.703125 C 285.265625 47.839844 285.613281 47.910156 285.96875 47.910156 Z M 285.96875 47.910156 " fill-opacity="1" fill-rule="nonzero"/><path fill="#00f3f7" d="M 299.230469 45.210938 C 299.230469 45.570312 299.160156 45.921875 299.023438 46.253906 C 298.882812 46.589844 298.6875 46.882812 298.429688 47.140625 C 298.175781 47.398438 297.878906 47.59375 297.542969 47.734375 C 297.210938 47.871094 296.863281 47.941406 296.5 47.941406 C 296.136719 47.941406 295.789062 47.871094 295.453125 47.734375 C 295.121094 47.59375 294.824219 47.398438 294.570312 47.140625 C 294.3125 46.882812 294.113281 46.589844 293.976562 46.253906 C 293.835938 45.921875 293.769531 45.570312 293.769531 45.210938 C 293.769531 44.847656 293.835938 44.5 293.976562 44.164062 C 294.113281 43.828125 294.3125 43.535156 294.570312 43.277344 C 294.824219 43.023438 295.121094 42.824219 295.453125 42.6875 C 295.789062 42.546875 296.136719 42.476562 296.5 42.476562 C 296.863281 42.476562 297.210938 42.546875 297.542969 42.6875 C 297.878906 42.824219 298.175781 43.023438 298.429688 43.277344 C 298.6875 43.535156 298.882812 43.828125 299.023438 44.164062 C 299.160156 44.5 299.230469 44.847656 299.230469 45.210938 Z M 299.230469 45.210938 " fill-opacity="1" fill-rule="nonzero"/><path fill="#00f3f7" d="M 112.96875 323.753906 L 120.949219 320.507812 L 123.234375 326.128906 L 115.253906 329.375 Z M 112.96875 323.753906 " fill-opacity="1" fill-rule="nonzero"/><path fill="#00f3f7" d="M 59.867188 329.242188 C 62.6875 331.121094 65.722656 332.546875 68.96875 333.519531 L 70.792969 327.722656 C 68.164062 326.921875 65.703125 325.757812 63.417969 324.234375 Z M 59.867188 329.242188 " fill-opacity="1" fill-rule="nonzero"/><path fill="#00f3f7" d="M 78.984375 329.394531 L 78.347656 335.460938 C 80.5 335.675781 82.808594 335.796875 85.175781 335.796875 L 87.84375 335.796875 L 87.632812 329.726562 C 84.742188 329.820312 81.859375 329.707031 78.984375 329.394531 Z M 78.984375 329.394531 " fill-opacity="1" fill-rule="nonzero"/><path fill="#00f3f7" d="M 102.898438 327.816406 C 100.679688 328.238281 98.496094 328.605469 96.433594 328.878906 L 97.222656 334.945312 C 99.496094 334.613281 101.894531 334.25 104.351562 333.761719 C 104.5625 333.746094 104.765625 333.695312 104.960938 333.609375 L 106.871094 332.851562 L 104.597656 327.238281 Z M 102.898438 327.816406 " fill-opacity="1" fill-rule="nonzero"/><path fill="#00f3f7" d="M 48.730469 312.371094 C 49.234375 315.964844 50.539062 319.242188 52.644531 322.203125 L 57.652344 318.773438 C 56.171875 316.660156 55.210938 314.335938 54.769531 311.792969 Z M 48.730469 312.371094 " fill-opacity="1" fill-rule="nonzero"/><path fill="#00f3f7" d="M 112.335938 58.136719 C 114.269531 58.140625 116.191406 58.292969 118.101562 58.589844 L 119.011719 52.523438 C 116.796875 52.1875 114.570312 52.015625 112.335938 52.007812 C 111.25 51.996094 110.167969 52.046875 109.085938 52.160156 L 109.816406 58.226562 C 110.652344 58.136719 111.492188 58.109375 112.335938 58.136719 Z M 112.335938 58.136719 " fill-opacity="1" fill-rule="nonzero"/><path fill="#00f3f7" d="M 148.628906 94.097656 L 154.695312 93.277344 C 154.292969 90.125 153.667969 87.019531 152.816406 83.960938 L 146.988281 85.570312 C 147.726562 88.375 148.273438 91.214844 148.628906 94.097656 Z M 148.628906 94.097656 " fill-opacity="1" fill-rule="nonzero"/><path fill="#00f3f7" d="M 137.097656 59.867188 C 134.417969 57.914062 131.535156 56.339844 128.449219 55.132812 L 126.203125 60.746094 C 128.796875 61.777344 131.222656 63.113281 133.484375 64.75 Z M 137.097656 59.867188 " fill-opacity="1" fill-rule="nonzero"/><path fill="#00f3f7" d="M 149.414062 74.949219 C 148 71.953125 146.261719 69.164062 144.195312 66.574219 L 139.492188 70.367188 C 141.25 72.5625 142.734375 74.929688 143.953125 77.464844 Z M 149.414062 74.949219 " fill-opacity="1" fill-rule="nonzero"/><path fill="#00f3f7" d="M 249.402344 51.21875 L 248.707031 45.148438 C 246.132812 45.429688 243.582031 45.855469 241.058594 46.421875 L 242.332031 52.339844 C 244.671875 51.839844 247.027344 51.46875 249.402344 51.21875 Z M 249.402344 51.21875 " fill-opacity="1" fill-rule="nonzero"/><path fill="#00f3f7" d="M 220.789062 64.386719 L 216.023438 60.65625 C 213.9375 63.320312 212.320312 66.242188 211.167969 69.425781 L 216.875 71.488281 C 217.8125 68.917969 219.117188 66.554688 220.789062 64.386719 Z M 220.789062 64.386719 " fill-opacity="1" fill-rule="nonzero"/><path fill="#00f3f7" d="M 234.140625 54.859375 L 231.863281 49.214844 C 228.835938 50.429688 225.984375 51.964844 223.308594 53.828125 L 226.796875 58.804688 C 229.089844 57.199219 231.539062 55.886719 234.140625 54.859375 Z M 234.140625 54.859375 " fill-opacity="1" fill-rule="nonzero"/><path fill="#00f3f7" d="M 215.597656 87.8125 C 215.238281 85.929688 215.066406 84.027344 215.082031 82.109375 C 215.082031 81.359375 215.082031 80.542969 215.082031 79.652344 L 209.015625 79.226562 C 209.015625 80.226562 209.015625 81.199219 209.015625 82.261719 C 208.992188 84.652344 209.226562 87.019531 209.710938 89.363281 Z M 215.597656 87.8125 " fill-opacity="1" fill-rule="nonzero"/><path fill="#00f3f7" d="M 310.914062 237.507812 L 313.554688 242.96875 C 316.609375 241.53125 319.371094 239.660156 321.839844 237.355469 L 317.648438 232.957031 C 315.636719 234.816406 313.390625 236.332031 310.914062 237.507812 Z M 310.914062 237.507812 " fill-opacity="1" fill-rule="nonzero"/><path fill="#00f3f7" d="M 294.34375 242.242188 L 295.226562 248.308594 C 298.359375 247.855469 301.457031 247.207031 304.511719 246.367188 L 302.902344 240.511719 C 300.085938 241.257812 297.230469 241.835938 294.34375 242.242188 Z M 294.34375 242.242188 " fill-opacity="1" fill-rule="nonzero"/><path fill="#00f3f7" d="M 187.679688 168.167969 C 186.496094 168.167969 185.316406 168.226562 184.140625 168.34375 C 182.960938 168.457031 181.792969 168.632812 180.628906 168.863281 C 179.46875 169.09375 178.324219 169.382812 177.191406 169.726562 C 176.058594 170.070312 174.945312 170.464844 173.851562 170.917969 C 172.757812 171.371094 171.6875 171.878906 170.644531 172.4375 C 169.601562 172.992188 168.585938 173.601562 167.601562 174.257812 C 166.617188 174.917969 165.667969 175.621094 164.753906 176.371094 C 163.839844 177.125 162.960938 177.917969 162.125 178.753906 C 161.289062 179.589844 160.496094 180.46875 159.742188 181.382812 C 158.992188 182.296875 158.289062 183.246094 157.632812 184.230469 C 156.972656 185.214844 156.367188 186.230469 155.808594 187.273438 C 155.25 188.316406 154.746094 189.386719 154.292969 190.480469 C 153.839844 191.574219 153.441406 192.6875 153.097656 193.820312 C 152.753906 194.953125 152.464844 196.097656 152.234375 197.257812 C 152.003906 198.421875 151.832031 199.589844 151.714844 200.765625 C 151.597656 201.945312 151.539062 203.125 151.539062 204.308594 C 151.539062 205.492188 151.597656 206.675781 151.714844 207.851562 C 151.832031 209.03125 152.003906 210.199219 152.234375 211.359375 C 152.464844 212.523438 152.753906 213.667969 153.097656 214.800781 C 153.441406 215.933594 153.839844 217.046875 154.292969 218.140625 C 154.746094 219.234375 155.25 220.304688 155.808594 221.347656 C 156.367188 222.390625 156.972656 223.40625 157.632812 224.390625 C 158.289062 225.371094 158.992188 226.324219 159.742188 227.238281 C 160.496094 228.152344 161.289062 229.027344 162.125 229.867188 C 162.960938 230.703125 163.839844 231.496094 164.753906 232.246094 C 165.667969 233 166.617188 233.703125 167.601562 234.359375 C 168.585938 235.019531 169.601562 235.625 170.644531 236.183594 C 171.6875 236.742188 172.757812 237.246094 173.851562 237.699219 C 174.945312 238.152344 176.058594 238.550781 177.191406 238.894531 C 178.324219 239.238281 179.46875 239.527344 180.628906 239.757812 C 181.792969 239.988281 182.960938 240.160156 184.140625 240.277344 C 185.316406 240.394531 186.496094 240.449219 187.679688 240.449219 C 188.863281 240.449219 190.046875 240.394531 191.222656 240.277344 C 192.402344 240.160156 193.570312 239.988281 194.730469 239.757812 C 195.894531 239.527344 197.039062 239.238281 198.171875 238.894531 C 199.304688 238.550781 200.417969 238.152344 201.511719 237.699219 C 202.605469 237.246094 203.675781 236.742188 204.71875 236.183594 C 205.761719 235.625 206.777344 235.019531 207.761719 234.359375 C 208.746094 233.703125 209.695312 233 210.609375 232.246094 C 211.523438 231.496094 212.398438 230.703125 213.238281 229.867188 C 214.074219 229.027344 214.867188 228.152344 215.617188 227.238281 C 216.371094 226.324219 217.074219 225.371094 217.730469 224.390625 C 218.390625 223.40625 218.996094 222.390625 219.554688 221.347656 C 220.113281 220.304688 220.617188 219.234375 221.070312 218.140625 C 221.523438 217.046875 221.921875 215.933594 222.265625 214.800781 C 222.609375 213.667969 222.898438 212.523438 223.128906 211.359375 C 223.359375 210.199219 223.53125 209.03125 223.648438 207.851562 C 223.765625 206.675781 223.824219 205.492188 223.824219 204.308594 C 223.820312 203.125 223.761719 201.945312 223.644531 200.769531 C 223.527344 199.589844 223.355469 198.421875 223.125 197.261719 C 222.890625 196.101562 222.605469 194.953125 222.257812 193.820312 C 221.914062 192.691406 221.515625 191.578125 221.0625 190.484375 C 220.609375 189.390625 220.105469 188.324219 219.546875 187.277344 C 218.988281 186.234375 218.378906 185.222656 217.722656 184.238281 C 217.066406 183.253906 216.359375 182.304688 215.609375 181.390625 C 214.859375 180.476562 214.066406 179.601562 213.226562 178.761719 C 212.390625 177.925781 211.515625 177.132812 210.601562 176.382812 C 209.6875 175.628906 208.738281 174.925781 207.753906 174.269531 C 206.769531 173.609375 205.753906 173.003906 204.710938 172.445312 C 203.667969 171.886719 202.601562 171.382812 201.507812 170.929688 C 200.414062 170.472656 199.300781 170.074219 198.167969 169.730469 C 197.035156 169.386719 195.890625 169.101562 194.730469 168.867188 C 193.570312 168.636719 192.402344 168.460938 191.222656 168.34375 C 190.046875 168.226562 188.863281 168.167969 187.679688 168.167969 Z M 210.835938 185.132812 C 206.996094 186.175781 203.101562 186.945312 199.152344 187.4375 C 197.589844 182.816406 195.355469 178.546875 192.445312 174.632812 C 194.230469 174.917969 195.976562 175.363281 197.679688 175.964844 C 199.386719 176.566406 201.023438 177.316406 202.59375 178.210938 C 204.164062 179.109375 205.640625 180.136719 207.027344 181.300781 C 208.410156 182.464844 209.679688 183.738281 210.835938 185.132812 Z M 187.226562 231.863281 C 184.597656 228.4375 182.574219 224.683594 181.15625 220.605469 C 185.203125 220.347656 189.25 220.347656 193.296875 220.605469 C 191.894531 224.695312 189.871094 228.445312 187.226562 231.863281 Z M 179.488281 214.566406 C 179.011719 212.28125 178.710938 209.976562 178.578125 207.648438 L 195.996094 207.648438 C 195.878906 209.988281 195.574219 212.304688 195.085938 214.597656 C 189.886719 214.1875 184.6875 214.175781 179.488281 214.566406 Z M 192.960938 187.953125 C 189.179688 188.164062 185.394531 188.164062 181.613281 187.953125 C 183 184.253906 184.890625 180.835938 187.285156 177.695312 C 189.699219 180.828125 191.589844 184.246094 192.960938 187.953125 Z M 187.164062 194.296875 C 189.625 194.296875 192.171875 194.296875 194.84375 193.992188 C 195.421875 196.492188 195.804688 199.019531 195.996094 201.578125 L 178.609375 201.578125 C 178.753906 199.027344 179.117188 196.511719 179.699219 194.023438 C 182.039062 194.234375 184.496094 194.355469 187.105469 194.355469 Z M 172.601562 201.519531 L 157.761719 201.519531 C 158.089844 197.773438 159.101562 194.222656 160.796875 190.867188 C 165.023438 192.015625 169.3125 192.855469 173.660156 193.386719 C 173.085938 196.089844 172.710938 198.820312 172.539062 201.578125 Z M 172.601562 207.585938 C 172.734375 210.125 173.039062 212.644531 173.511719 215.144531 C 169.242188 215.671875 165.035156 216.5 160.886719 217.632812 C 159.273438 214.464844 158.261719 211.117188 157.851562 207.585938 Z M 202.035156 207.585938 L 217.664062 207.585938 C 217.195312 211.378906 216.042969 214.949219 214.203125 218.300781 C 209.847656 216.953125 205.417969 215.941406 200.910156 215.265625 C 201.46875 212.75 201.851562 210.210938 202.066406 207.648438 Z M 202.035156 201.519531 C 201.878906 198.757812 201.503906 196.027344 200.910156 193.324219 C 205.507812 192.648438 210.03125 191.636719 214.476562 190.289062 C 216.304688 193.785156 217.398438 197.5 217.753906 201.425781 Z M 182.039062 174.753906 C 179.183594 178.632812 176.976562 182.851562 175.421875 187.40625 C 171.703125 186.976562 168.019531 186.328125 164.375 185.464844 C 166.578125 182.710938 169.1875 180.417969 172.203125 178.585938 C 175.21875 176.757812 178.457031 175.5 181.914062 174.8125 Z M 164.253906 223.09375 C 167.792969 222.3125 171.363281 221.726562 174.964844 221.332031 C 176.378906 225.777344 178.402344 229.925781 181.035156 233.773438 C 177.714844 233 174.613281 231.695312 171.734375 229.863281 C 168.859375 228.03125 166.363281 225.773438 164.253906 223.09375 Z M 193.234375 233.835938 C 195.953125 229.984375 198.035156 225.816406 199.484375 221.332031 C 203.320312 221.847656 207.105469 222.613281 210.835938 223.640625 C 208.582031 226.3125 205.945312 228.523438 202.925781 230.273438 C 199.902344 232.023438 196.671875 233.210938 193.234375 233.835938 Z M 193.234375 233.835938 " fill-opacity="1" fill-rule="nonzero"/><path fill="#00f3f7" d="M 202.066406 297.015625 L 174.300781 297.015625 C 173.8125 297.015625 173.328125 297.0625 172.847656 297.15625 C 172.371094 297.253906 171.90625 297.394531 171.453125 297.582031 C 171.003906 297.765625 170.574219 297.996094 170.167969 298.269531 C 169.761719 298.539062 169.386719 298.847656 169.042969 299.191406 C 168.695312 299.539062 168.386719 299.914062 168.117188 300.320312 C 167.847656 300.726562 167.617188 301.152344 167.429688 301.605469 C 167.242188 302.054688 167.101562 302.519531 167.007812 303 C 166.910156 303.476562 166.863281 303.960938 166.863281 304.449219 C 166.863281 304.9375 166.910156 305.421875 167.007812 305.898438 C 167.101562 306.378906 167.242188 306.84375 167.429688 307.292969 C 167.617188 307.746094 167.847656 308.171875 168.117188 308.578125 C 168.386719 308.984375 168.695312 309.359375 169.042969 309.707031 C 169.386719 310.050781 169.761719 310.359375 170.167969 310.632812 C 170.574219 310.902344 171.003906 311.132812 171.453125 311.316406 C 171.90625 311.503906 172.371094 311.644531 172.847656 311.742188 C 173.328125 311.835938 173.8125 311.882812 174.300781 311.882812 L 202.066406 311.882812 C 202.554688 311.882812 203.035156 311.835938 203.515625 311.742188 C 203.996094 311.644531 204.460938 311.503906 204.910156 311.316406 C 205.359375 311.132812 205.789062 310.902344 206.195312 310.632812 C 206.601562 310.359375 206.976562 310.050781 207.320312 309.707031 C 207.667969 309.359375 207.976562 308.984375 208.246094 308.578125 C 208.519531 308.171875 208.746094 307.746094 208.933594 307.292969 C 209.121094 306.84375 209.261719 306.378906 209.355469 305.898438 C 209.453125 305.421875 209.5 304.9375 209.5 304.449219 C 209.5 303.960938 209.453125 303.476562 209.355469 303 C 209.261719 302.519531 209.121094 302.054688 208.933594 301.605469 C 208.746094 301.152344 208.519531 300.726562 208.246094 300.320312 C 207.976562 299.914062 207.667969 299.539062 207.320312 299.191406 C 206.976562 298.847656 206.601562 298.539062 206.195312 298.269531 C 205.789062 297.996094 205.359375 297.765625 204.910156 297.582031 C 204.460938 297.394531 203.996094 297.253906 203.515625 297.15625 C 203.035156 297.0625 202.554688 297.015625 202.066406 297.015625 Z M 202.066406 305.816406 L 174.300781 305.816406 C 174.117188 305.816406 173.945312 305.78125 173.777344 305.710938 C 173.609375 305.640625 173.460938 305.542969 173.332031 305.414062 C 173.207031 305.285156 173.105469 305.140625 173.039062 304.972656 C 172.96875 304.804688 172.933594 304.628906 172.933594 304.449219 C 172.9375 304.269531 172.976562 304.097656 173.046875 303.929688 C 173.117188 303.765625 173.214844 303.621094 173.34375 303.492188 C 173.46875 303.363281 173.617188 303.265625 173.78125 303.195312 C 173.945312 303.125 174.121094 303.085938 174.300781 303.082031 L 202.066406 303.082031 C 202.246094 303.082031 202.421875 303.117188 202.585938 303.1875 C 202.753906 303.257812 202.902344 303.355469 203.03125 303.484375 C 203.160156 303.613281 203.257812 303.757812 203.328125 303.925781 C 203.394531 304.09375 203.429688 304.269531 203.429688 304.449219 C 203.429688 304.628906 203.394531 304.804688 203.328125 304.972656 C 203.257812 305.140625 203.160156 305.285156 203.03125 305.414062 C 202.902344 305.542969 202.753906 305.640625 202.585938 305.710938 C 202.421875 305.78125 202.246094 305.816406 202.066406 305.816406 Z M 202.066406 305.816406 " fill-opacity="1" fill-rule="nonzero"/><g clip-path="url(#b28b183be2)"><path fill="#00f3f7" d="M 293.769531 314.554688 C 293.496094 313.796875 292.796875 311.976562 291.976562 309.882812 C 290.855469 306.847656 288.730469 301.445312 288.457031 300.078125 C 288.457031 294.679688 288.730469 289.1875 288.972656 283.84375 C 289.628906 274.136719 289.691406 264.425781 289.15625 254.714844 C 288.089844 244.828125 285.84375 235.21875 282.417969 225.886719 L 277.382812 210.410156 C 276.660156 208.117188 276.296875 205.769531 276.289062 203.367188 L 276.289062 162.433594 C 276.285156 161.589844 275.984375 160.871094 275.378906 160.277344 C 274.773438 159.679688 274.046875 159.386719 273.195312 159.398438 C 271.488281 159.421875 269.800781 159.609375 268.132812 159.96875 C 266.464844 160.328125 264.851562 160.847656 263.285156 161.53125 C 261.722656 162.214844 260.242188 163.046875 258.84375 164.023438 C 257.449219 165.003906 256.164062 166.113281 254.988281 167.347656 L 254.988281 107.023438 C 254.996094 106.554688 254.957031 106.089844 254.871094 105.632812 C 254.785156 105.171875 254.65625 104.722656 254.480469 104.289062 C 254.304688 103.855469 254.085938 103.445312 253.828125 103.054688 C 253.570312 102.664062 253.273438 102.304688 252.941406 101.976562 C 252.609375 101.644531 252.25 101.351562 251.859375 101.09375 C 251.46875 100.835938 251.054688 100.621094 250.621094 100.449219 C 250.1875 100.273438 249.738281 100.144531 249.277344 100.0625 C 248.816406 99.980469 248.355469 99.941406 247.886719 99.953125 L 128.628906 99.953125 C 128.175781 99.953125 127.722656 99.996094 127.277344 100.085938 C 126.828125 100.175781 126.394531 100.308594 125.976562 100.480469 C 125.554688 100.65625 125.15625 100.871094 124.777344 101.125 C 124.398438 101.378906 124.046875 101.667969 123.726562 101.988281 C 123.40625 102.3125 123.117188 102.664062 122.867188 103.042969 C 122.613281 103.421875 122.402344 103.824219 122.230469 104.246094 C 122.054688 104.664062 121.925781 105.101562 121.839844 105.546875 C 121.75 105.996094 121.707031 106.445312 121.710938 106.902344 L 121.710938 163.433594 L 118.523438 163.433594 C 117.910156 163.433594 117.300781 163.496094 116.699219 163.613281 C 116.097656 163.734375 115.511719 163.910156 114.941406 164.144531 C 114.375 164.378906 113.835938 164.667969 113.324219 165.007812 C 112.8125 165.347656 112.339844 165.738281 111.90625 166.171875 C 111.46875 166.605469 111.082031 167.074219 110.738281 167.585938 C 110.394531 168.097656 110.105469 168.636719 109.871094 169.203125 C 109.632812 169.769531 109.453125 170.355469 109.332031 170.957031 C 109.210938 171.558594 109.148438 172.167969 109.148438 172.78125 L 109.148438 186.011719 C 109.15625 186.847656 109.273438 187.671875 109.5 188.476562 C 109.730469 189.285156 110.058594 190.046875 110.492188 190.765625 C 110.921875 191.480469 111.441406 192.128906 112.050781 192.707031 C 112.65625 193.289062 113.328125 193.777344 114.0625 194.175781 C 113.328125 194.574219 112.660156 195.0625 112.054688 195.640625 C 111.449219 196.222656 110.933594 196.871094 110.503906 197.585938 C 110.074219 198.304688 109.746094 199.066406 109.523438 199.875 C 109.296875 200.679688 109.183594 201.5 109.179688 202.335938 L 109.179688 215.566406 C 109.183594 216.402344 109.300781 217.226562 109.527344 218.03125 C 109.75 218.835938 110.078125 219.597656 110.507812 220.316406 C 110.9375 221.03125 111.453125 221.679688 112.058594 222.261719 C 112.660156 222.839844 113.328125 223.332031 114.0625 223.730469 C 113.328125 224.132812 112.660156 224.621094 112.058594 225.199219 C 111.453125 225.78125 110.9375 226.429688 110.507812 227.148438 C 110.078125 227.863281 109.75 228.625 109.527344 229.429688 C 109.300781 230.238281 109.183594 231.058594 109.179688 231.894531 L 109.179688 245.125 C 109.183594 245.960938 109.296875 246.785156 109.523438 247.59375 C 109.75 248.402344 110.074219 249.164062 110.503906 249.886719 C 110.933594 250.605469 111.453125 251.257812 112.054688 251.839844 C 112.660156 252.421875 113.328125 252.914062 114.0625 253.316406 C 113.324219 253.714844 112.652344 254.199219 112.042969 254.777344 C 111.4375 255.355469 110.914062 256.003906 110.484375 256.722656 C 110.050781 257.441406 109.722656 258.203125 109.496094 259.011719 C 109.269531 259.820312 109.152344 260.640625 109.148438 261.480469 L 109.148438 274.679688 C 109.148438 275.296875 109.210938 275.902344 109.332031 276.503906 C 109.453125 277.109375 109.632812 277.691406 109.871094 278.257812 C 110.105469 278.828125 110.394531 279.363281 110.738281 279.875 C 111.082031 280.386719 111.46875 280.859375 111.90625 281.292969 C 112.339844 281.726562 112.8125 282.113281 113.324219 282.453125 C 113.835938 282.792969 114.375 283.082031 114.941406 283.316406 C 115.511719 283.550781 116.097656 283.726562 116.699219 283.847656 C 117.300781 283.96875 117.910156 284.027344 118.523438 284.027344 L 121.710938 284.027344 L 121.710938 313.035156 C 121.710938 313.492188 121.753906 313.941406 121.84375 314.390625 C 121.933594 314.835938 122.0625 315.269531 122.238281 315.6875 C 122.410156 316.109375 122.625 316.507812 122.875 316.886719 C 123.128906 317.265625 123.414062 317.617188 123.734375 317.941406 C 124.054688 318.261719 124.40625 318.550781 124.785156 318.804688 C 125.160156 319.058594 125.558594 319.273438 125.980469 319.449219 C 126.398438 319.625 126.832031 319.757812 127.277344 319.847656 C 127.722656 319.9375 128.175781 319.984375 128.628906 319.984375 L 182.1875 319.984375 C 188.015625 326.875 194.085938 332.519531 204.707031 333.640625 L 212.351562 363.957031 C 212.433594 364.292969 212.570312 364.605469 212.761719 364.894531 C 212.953125 365.1875 213.1875 365.433594 213.460938 365.644531 C 213.738281 365.855469 214.042969 366.011719 214.371094 366.117188 C 214.703125 366.226562 215.039062 366.273438 215.386719 366.261719 L 216.023438 366.261719 L 299.835938 348.785156 C 300.695312 348.605469 301.355469 348.136719 301.808594 347.386719 C 302.285156 346.648438 302.398438 345.859375 302.144531 345.019531 Z M 127.78125 107.023438 C 127.761719 106.898438 127.769531 106.777344 127.804688 106.65625 C 127.839844 106.535156 127.898438 106.425781 127.980469 106.332031 C 128.0625 106.234375 128.160156 106.160156 128.273438 106.105469 C 128.386719 106.054688 128.503906 106.023438 128.628906 106.019531 L 247.886719 106.019531 C 248.125 106.03125 248.332031 106.117188 248.5 106.289062 C 248.667969 106.457031 248.757812 106.660156 248.765625 106.902344 L 248.765625 165.863281 C 248.765625 167.804688 248.765625 169.988281 248.765625 171.929688 C 248.765625 173.875 248.765625 176.484375 248.765625 178 C 248.160156 180.265625 247.863281 182.574219 247.886719 184.917969 L 247.339844 232.074219 L 244.972656 233.957031 L 244.972656 118.917969 C 244.976562 118.46875 244.933594 118.027344 244.847656 117.585938 C 244.761719 117.148438 244.632812 116.722656 244.464844 116.308594 C 244.292969 115.894531 244.085938 115.5 243.839844 115.128906 C 243.589844 114.753906 243.308594 114.410156 242.992188 114.09375 C 242.675781 113.773438 242.332031 113.492188 241.960938 113.242188 C 241.589844 112.992188 241.199219 112.78125 240.785156 112.609375 C 240.371094 112.4375 239.945312 112.308594 239.503906 112.222656 C 239.066406 112.132812 238.625 112.089844 238.175781 112.089844 L 138.824219 112.089844 C 138.378906 112.089844 137.9375 112.132812 137.5 112.222656 C 137.0625 112.308594 136.636719 112.4375 136.222656 112.609375 C 135.8125 112.777344 135.421875 112.988281 135.050781 113.234375 C 134.679688 113.484375 134.335938 113.765625 134.019531 114.082031 C 133.703125 114.398438 133.421875 114.742188 133.171875 115.113281 C 132.925781 115.484375 132.714844 115.875 132.546875 116.285156 C 132.375 116.699219 132.246094 117.125 132.160156 117.5625 C 132.070312 118 132.027344 118.441406 132.027344 118.886719 L 132.027344 163.949219 L 130.84375 163.675781 L 130.117188 163.675781 C 129.367188 163.632812 128.621094 163.632812 127.871094 163.675781 Z M 225.945312 289.457031 L 138.824219 289.457031 C 138.625 289.457031 138.453125 289.386719 138.308594 289.246094 C 138.167969 289.101562 138.097656 288.929688 138.097656 288.730469 L 138.097656 280.355469 L 139.160156 279.382812 C 140.65625 277.886719 141.8125 276.160156 142.625 274.203125 C 143.441406 272.25 143.851562 270.214844 143.863281 268.09375 C 143.863281 267.457031 143.863281 266.820312 143.863281 266.214844 C 143.863281 265.605469 143.863281 265.820312 143.863281 265.605469 C 143.863281 265.394531 143.863281 264.789062 143.648438 264.363281 C 143.4375 263.9375 143.257812 263.816406 143.195312 263.816406 C 143.132812 263.816406 142.984375 263.117188 142.863281 262.753906 C 142.773438 262.507812 142.671875 262.265625 142.558594 262.027344 C 142.558594 261.722656 142.285156 261.390625 142.132812 261.085938 L 141.738281 260.359375 L 141.375 259.355469 C 141.191406 259.113281 141.039062 258.871094 140.890625 258.628906 L 140.101562 257.746094 L 139.554688 257.082031 L 138.796875 256.351562 L 138.339844 255.925781 L 138.339844 250.796875 C 138.703125 250.464844 139.066406 250.160156 139.402344 249.796875 C 140.917969 248.3125 142.085938 246.589844 142.902344 244.632812 C 143.71875 242.671875 144.117188 240.632812 144.105469 238.507812 C 144.105469 237.871094 144.105469 237.234375 144.105469 236.628906 C 144.105469 236.019531 144.105469 236.203125 144.105469 236.019531 C 144.105469 235.839844 144.105469 235.203125 143.894531 234.808594 C 143.679688 234.414062 143.742188 234.320312 143.679688 234.078125 C 143.621094 233.835938 143.46875 233.378906 143.347656 233.015625 C 143.257812 232.769531 143.15625 232.527344 143.042969 232.289062 C 143.042969 231.984375 142.769531 231.652344 142.617188 231.347656 L 142.222656 230.621094 L 141.375 229.769531 L 140.890625 229.070312 L 140.25 228.28125 C 140.070312 228.070312 139.886719 227.828125 139.707031 227.644531 C 139.523438 227.464844 139.191406 227.128906 138.945312 226.886719 L 138.339844 226.339844 L 138.339844 221.332031 L 139.402344 220.363281 C 140.910156 218.871094 142.070312 217.144531 142.882812 215.191406 C 143.699219 213.234375 144.105469 211.195312 144.105469 209.074219 C 144.105469 208.4375 144.105469 207.800781 144.105469 207.191406 C 144.105469 206.585938 144.105469 206.769531 144.105469 206.585938 C 144.105469 206.402344 144.105469 205.765625 143.894531 205.371094 C 143.679688 204.976562 143.742188 204.886719 143.679688 204.644531 C 143.621094 204.402344 143.46875 203.945312 143.347656 203.582031 C 143.257812 203.332031 143.15625 203.089844 143.042969 202.851562 C 142.921875 202.53125 142.777344 202.21875 142.617188 201.914062 L 142.222656 201.183594 L 141.375 200.09375 C 141.195312 199.871094 141.035156 199.636719 140.890625 199.394531 L 140.25 198.636719 L 139.707031 197.96875 L 138.945312 197.238281 L 138.339844 196.691406 L 138.339844 191.65625 C 138.714844 191.355469 139.070312 191.03125 139.402344 190.683594 C 140.914062 189.199219 142.082031 187.476562 142.898438 185.515625 C 143.710938 183.558594 144.117188 181.519531 144.105469 179.394531 C 144.105469 178.757812 144.105469 178.121094 144.105469 177.515625 C 144.105469 176.90625 144.105469 177.089844 144.105469 176.90625 C 144.105469 176.726562 144.105469 176.089844 143.894531 175.664062 C 143.679688 175.238281 143.742188 175.207031 143.679688 174.964844 C 143.621094 174.722656 143.46875 174.269531 143.347656 173.902344 C 143.257812 173.65625 143.15625 173.414062 143.042969 173.175781 C 142.921875 172.855469 142.777344 172.539062 142.617188 172.234375 L 142.222656 171.507812 L 141.375 170.625 C 141.195312 170.40625 141.035156 170.171875 140.890625 169.929688 L 140.25 169.171875 L 139.707031 168.503906 L 138.945312 167.773438 L 138.339844 167.226562 L 138.339844 118.917969 C 138.332031 118.714844 138.398438 118.539062 138.542969 118.394531 C 138.6875 118.25 138.863281 118.179688 139.066406 118.191406 L 238.175781 118.191406 C 238.378906 118.191406 238.546875 118.261719 238.691406 118.402344 C 238.832031 118.546875 238.902344 118.71875 238.902344 118.917969 L 238.902344 239.785156 C 235.546875 243.679688 232.746094 247.945312 230.503906 252.574219 C 228.261719 257.203125 226.648438 262.042969 225.671875 267.09375 C 224.34375 274.566406 224.433594 282.019531 225.945312 289.457031 Z M 133.363281 200.730469 C 134.042969 201.179688 134.65625 201.703125 135.207031 202.304688 C 135.757812 202.90625 136.222656 203.566406 136.609375 204.285156 C 136.996094 205.003906 137.289062 205.757812 137.492188 206.546875 C 137.691406 207.335938 137.792969 208.136719 137.792969 208.953125 C 137.78125 210.273438 137.511719 211.539062 136.984375 212.75 C 136.460938 213.960938 135.71875 215.023438 134.757812 215.933594 C 133.851562 216.902344 132.789062 217.652344 131.570312 218.179688 C 130.351562 218.707031 129.078125 218.96875 127.75 218.964844 L 118.523438 218.964844 C 118.085938 218.96875 117.667969 218.890625 117.261719 218.726562 C 116.855469 218.5625 116.496094 218.324219 116.1875 218.015625 C 115.875 217.710938 115.636719 217.355469 115.46875 216.949219 C 115.300781 216.546875 115.21875 216.125 115.21875 215.6875 L 115.21875 202.335938 C 115.21875 201.898438 115.300781 201.480469 115.46875 201.078125 C 115.636719 200.671875 115.875 200.316406 116.1875 200.007812 C 116.496094 199.703125 116.855469 199.464844 117.261719 199.300781 C 117.667969 199.136719 118.085938 199.054688 118.523438 199.058594 L 127.871094 199.058594 C 129.875 199.046875 131.707031 199.605469 133.363281 200.730469 Z M 133.363281 230.285156 C 134.042969 230.734375 134.65625 231.261719 135.207031 231.863281 C 135.757812 232.464844 136.222656 233.125 136.609375 233.839844 C 136.996094 234.558594 137.289062 235.3125 137.492188 236.101562 C 137.691406 236.890625 137.792969 237.695312 137.792969 238.507812 C 137.78125 239.835938 137.515625 241.105469 136.988281 242.320312 C 136.460938 243.539062 135.71875 244.605469 134.757812 245.519531 C 134.289062 245.976562 133.78125 246.390625 133.242188 246.761719 C 131.578125 247.863281 129.746094 248.410156 127.75 248.402344 L 118.523438 248.402344 C 118.085938 248.40625 117.667969 248.324219 117.261719 248.160156 C 116.855469 247.996094 116.496094 247.761719 116.1875 247.453125 C 115.875 247.144531 115.636719 246.789062 115.46875 246.386719 C 115.300781 245.980469 115.21875 245.5625 115.21875 245.125 L 115.21875 231.894531 C 115.21875 231.457031 115.300781 231.035156 115.46875 230.632812 C 115.636719 230.230469 115.875 229.875 116.1875 229.566406 C 116.496094 229.257812 116.855469 229.023438 117.261719 228.855469 C 117.667969 228.691406 118.085938 228.613281 118.523438 228.617188 L 127.871094 228.617188 C 129.890625 228.648438 131.722656 229.257812 133.363281 230.4375 Z M 115.15625 172.628906 C 115.15625 172.191406 115.238281 171.773438 115.410156 171.367188 C 115.578125 170.964844 115.816406 170.609375 116.125 170.300781 C 116.4375 169.992188 116.796875 169.757812 117.199219 169.59375 C 117.605469 169.429688 118.027344 169.347656 118.464844 169.351562 L 127.808594 169.351562 C 129.808594 169.335938 131.640625 169.882812 133.300781 170.992188 C 133.980469 171.441406 134.597656 171.964844 135.144531 172.566406 C 135.695312 173.167969 136.164062 173.828125 136.550781 174.546875 C 136.9375 175.265625 137.230469 176.015625 137.429688 176.808594 C 137.628906 177.597656 137.730469 178.398438 137.734375 179.214844 C 137.726562 180.535156 137.457031 181.800781 136.929688 183.015625 C 136.402344 184.226562 135.660156 185.285156 134.699219 186.195312 C 133.792969 187.164062 132.730469 187.914062 131.511719 188.441406 C 130.289062 188.96875 129.015625 189.230469 127.6875 189.226562 L 118.523438 189.226562 C 118.089844 189.226562 117.667969 189.144531 117.265625 188.980469 C 116.863281 188.8125 116.507812 188.578125 116.195312 188.269531 C 115.886719 187.964844 115.648438 187.609375 115.476562 187.207031 C 115.308594 186.804688 115.222656 186.386719 115.21875 185.949219 Z M 118.464844 277.804688 C 118.027344 277.808594 117.605469 277.730469 117.199219 277.566406 C 116.796875 277.402344 116.4375 277.164062 116.125 276.855469 C 115.816406 276.550781 115.578125 276.195312 115.410156 275.789062 C 115.242188 275.386719 115.15625 274.964844 115.15625 274.527344 L 115.15625 261.480469 C 115.15625 261.042969 115.242188 260.621094 115.410156 260.21875 C 115.578125 259.816406 115.816406 259.460938 116.125 259.152344 C 116.4375 258.84375 116.796875 258.609375 117.199219 258.445312 C 117.605469 258.277344 118.027344 258.199219 118.464844 258.203125 L 127.808594 258.203125 C 129.8125 258.191406 131.644531 258.746094 133.300781 259.871094 C 133.980469 260.320312 134.597656 260.847656 135.144531 261.449219 C 135.695312 262.050781 136.164062 262.710938 136.550781 263.429688 C 136.9375 264.144531 137.230469 264.898438 137.429688 265.6875 C 137.628906 266.480469 137.730469 267.28125 137.734375 268.09375 C 137.722656 269.417969 137.453125 270.683594 136.925781 271.894531 C 136.398438 273.105469 135.65625 274.164062 134.699219 275.074219 C 134.226562 275.53125 133.722656 275.945312 133.179688 276.320312 C 131.519531 277.433594 129.6875 277.980469 127.6875 277.957031 L 118.523438 277.957031 Z M 127.71875 312.886719 L 127.71875 283.875 C 128.46875 283.921875 129.214844 283.921875 129.964844 283.875 L 130.722656 283.875 L 131.875 283.664062 L 131.875 288.882812 C 131.875 289.328125 131.921875 289.769531 132.007812 290.207031 C 132.09375 290.644531 132.222656 291.070312 132.394531 291.484375 C 132.566406 291.894531 132.773438 292.289062 133.023438 292.660156 C 133.269531 293.03125 133.550781 293.371094 133.867188 293.6875 C 134.183594 294.003906 134.527344 294.285156 134.898438 294.535156 C 135.269531 294.78125 135.660156 294.992188 136.074219 295.160156 C 136.484375 295.332031 136.910156 295.460938 137.347656 295.550781 C 137.785156 295.636719 138.226562 295.679688 138.671875 295.679688 L 227.496094 295.679688 C 228.042969 297.570312 228.699219 299.421875 229.46875 301.234375 C 229.589844 301.554688 229.710938 301.859375 229.832031 302.144531 L 230.378906 303.417969 L 231.53125 305.816406 C 231.804688 306.453125 232.136719 307.058594 232.410156 307.574219 C 233.261719 309.152344 234.261719 310.851562 235.445312 312.550781 C 235.589844 312.726562 235.652344 312.929688 235.625 313.160156 C 235.667969 313.300781 235.667969 313.441406 235.625 313.582031 C 235.554688 313.742188 235.441406 313.863281 235.292969 313.953125 C 235.140625 314.039062 234.980469 314.078125 234.808594 314.070312 L 128.628906 314.070312 C 128.5 314.066406 128.378906 314.035156 128.261719 313.980469 C 128.148438 313.925781 128.050781 313.847656 127.96875 313.75 C 127.886719 313.648438 127.828125 313.539062 127.796875 313.414062 C 127.761719 313.289062 127.757812 313.164062 127.78125 313.035156 Z M 217.542969 359.527344 L 210.804688 333.003906 C 211.386719 332.417969 211.679688 331.707031 211.683594 330.878906 C 211.683594 330.476562 211.609375 330.089844 211.453125 329.71875 C 211.300781 329.347656 211.082031 329.019531 210.796875 328.734375 C 210.511719 328.449219 210.183594 328.230469 209.8125 328.078125 C 209.4375 327.921875 209.050781 327.84375 208.648438 327.84375 C 206.9375 327.90625 205.238281 327.773438 203.550781 327.457031 C 201.867188 327.140625 200.238281 326.640625 198.664062 325.960938 C 197.089844 325.28125 195.609375 324.4375 194.222656 323.429688 C 192.835938 322.421875 191.574219 321.273438 190.441406 319.984375 L 234.625 319.984375 C 235.261719 319.988281 235.886719 319.902344 236.5 319.734375 C 237.113281 319.566406 237.691406 319.316406 238.238281 318.988281 C 238.785156 318.664062 239.277344 318.269531 239.714844 317.808594 C 240.152344 317.347656 240.523438 316.835938 240.820312 316.273438 C 241.121094 315.714844 241.339844 315.121094 241.480469 314.5 C 241.617188 313.878906 241.671875 313.253906 241.636719 312.617188 C 241.605469 311.980469 241.488281 311.363281 241.285156 310.757812 C 241.085938 310.15625 240.808594 309.589844 240.453125 309.0625 L 240.117188 308.515625 C 239.753906 307.9375 239.359375 307.332031 239.027344 306.753906 C 238.691406 306.179688 238.144531 305.238281 237.75 304.480469 C 237.464844 304.019531 237.214844 303.546875 236.992188 303.054688 C 236.171875 301.445312 235.476562 299.777344 234.808594 298.105469 L 234.261719 296.652344 C 233.957031 295.769531 233.714844 294.921875 233.441406 294.039062 C 233.167969 293.160156 232.925781 292.523438 232.742188 291.734375 L 232.742188 291.15625 C 230.78125 283.609375 230.46875 275.992188 231.804688 268.308594 C 232.699219 263.597656 234.210938 259.09375 236.335938 254.796875 C 238.464844 250.5 241.132812 246.566406 244.335938 243 C 246.703125 240.375 249.34375 238.058594 252.257812 236.050781 L 253.53125 235.140625 L 253.957031 184.917969 C 253.972656 183.25 254.207031 181.609375 254.652344 180.003906 L 254.894531 179.457031 L 254.894531 179.273438 C 255.15625 178.421875 255.472656 177.59375 255.847656 176.785156 C 256.21875 175.976562 256.648438 175.199219 257.128906 174.449219 C 257.609375 173.703125 258.140625 172.988281 258.71875 172.3125 C 259.296875 171.636719 259.917969 171.003906 260.585938 170.414062 C 261.253906 169.824219 261.957031 169.28125 262.695312 168.789062 C 263.4375 168.292969 264.207031 167.855469 265.011719 167.464844 C 265.8125 167.078125 266.636719 166.75 267.484375 166.476562 C 268.332031 166.203125 269.191406 165.988281 270.070312 165.832031 L 270.070312 203.429688 C 270.128906 206.445312 270.644531 209.375 271.617188 212.230469 L 276.625 227.738281 C 279.910156 236.570312 282.066406 245.675781 283.085938 255.046875 C 283.648438 264.496094 283.648438 273.941406 283.085938 283.390625 C 282.8125 288.761719 282.570312 294.34375 282.539062 299.867188 C 282.539062 301.109375 283.054688 302.902344 286.484375 312.003906 C 287.246094 313.976562 287.910156 315.648438 288.09375 316.253906 L 295.589844 343.320312 Z M 217.542969 359.527344 " fill-opacity="1" fill-rule="nonzero"/></g></svg>