<svg xmlns="http://www.w3.org/2000/svg" xmlns:xlink="http://www.w3.org/1999/xlink" width="500" zoomAndPan="magnify" viewBox="0 0 375 374.999991" height="500" preserveAspectRatio="xMidYMid meet" version="1.0"><defs><clipPath id="a680b99035"><path d="M 8.554688 4.199219 L 366.304688 4.199219 L 366.304688 370.949219 L 8.554688 370.949219 Z M 8.554688 4.199219 " clip-rule="nonzero"/></clipPath></defs><g clip-path="url(#a680b99035)"><path fill="#00f3f7" d="M 297.5 308.539062 C 331.992188 308.539062 360.628906 333.5625 366.269531 366.4375 C 366.445312 367.523438 366.132812 368.632812 365.421875 369.46875 C 364.707031 370.308594 363.660156 370.789062 362.558594 370.789062 C 341.917969 370.789062 253.089844 370.789062 232.441406 370.777344 C 231.34375 370.777344 230.304688 370.292969 229.59375 369.460938 C 228.882812 368.625 228.574219 367.519531 228.75 366.4375 C 234.390625 333.5625 263.023438 308.539062 297.5 308.539062 Z M 297.5 308.539062 C 278.078125 308.539062 262.242188 292.6875 262.242188 273.265625 C 262.242188 253.84375 278.078125 237.992188 297.5 237.992188 C 316.941406 237.992188 332.773438 253.84375 332.773438 273.265625 C 332.773438 292.6875 316.941406 308.539062 297.5 308.539062 Z M 158.785156 308.539062 C 193.277344 308.539062 221.914062 333.5625 227.554688 366.4375 C 227.726562 367.523438 227.417969 368.632812 226.703125 369.46875 C 225.992188 370.308594 224.945312 370.789062 223.84375 370.789062 C 203.203125 370.789062 114.371094 370.789062 93.726562 370.777344 C 92.628906 370.777344 91.585938 370.292969 90.878906 369.460938 C 90.167969 368.625 89.859375 367.519531 90.03125 366.4375 C 95.675781 333.5625 124.308594 308.539062 158.785156 308.539062 Z M 158.785156 308.539062 C 139.359375 308.539062 123.527344 292.6875 123.527344 273.265625 C 123.527344 253.84375 139.359375 237.992188 158.785156 237.992188 C 178.226562 237.992188 194.058594 253.84375 194.058594 273.265625 C 194.058594 292.6875 178.226562 308.539062 158.785156 308.539062 Z M 349.179688 22.375 C 349.179688 29.097656 343.730469 34.546875 337.007812 34.546875 L 130.09375 34.546875 C 123.371094 34.546875 117.921875 29.097656 117.921875 22.375 C 117.921875 15.652344 123.371094 10.203125 130.09375 10.203125 L 337.007812 10.203125 C 343.730469 10.203125 349.179688 15.652344 349.179688 22.375 Z M 227.539062 174.675781 L 148.832031 174.675781 C 140.539062 174.675781 133.820312 167.953125 133.820312 159.664062 L 133.820312 46.566406 L 333.28125 46.566406 L 333.28125 159.664062 C 333.28125 167.953125 326.558594 174.675781 318.269531 174.675781 L 239.558594 174.675781 L 239.558594 193.808594 C 246.644531 196.292969 251.730469 203.042969 251.730469 210.972656 C 251.730469 221.003906 243.585938 229.152344 233.550781 229.152344 C 223.515625 229.152344 215.371094 221.003906 215.371094 210.972656 C 215.371094 203.042969 220.457031 196.292969 227.539062 193.808594 Z M 233.550781 204.808594 C 230.148438 204.808594 227.390625 207.570312 227.390625 210.972656 C 227.390625 214.371094 230.148438 217.132812 233.550781 217.132812 C 236.949219 217.132812 239.710938 214.371094 239.710938 210.972656 C 239.710938 207.570312 236.949219 204.808594 233.550781 204.808594 Z M 315.605469 155.6875 L 191.722656 155.6875 C 188.40625 155.6875 185.710938 158.378906 185.710938 161.695312 C 185.710938 165.011719 188.40625 167.707031 191.722656 167.707031 L 315.605469 167.707031 C 318.921875 167.707031 321.617188 165.011719 321.617188 161.695312 C 321.617188 158.378906 318.921875 155.6875 315.605469 155.6875 Z M 315.605469 136.277344 L 225.589844 136.277344 C 222.269531 136.277344 219.578125 138.96875 219.578125 142.285156 C 219.578125 145.601562 222.269531 148.296875 225.589844 148.296875 L 315.605469 148.296875 C 318.921875 148.296875 321.617188 145.601562 321.617188 142.285156 C 321.617188 138.96875 318.921875 136.277344 315.605469 136.277344 Z M 291.359375 69.25 L 249.585938 117.734375 L 212.632812 82.753906 C 211.46875 81.652344 209.914062 81.058594 208.3125 81.109375 C 206.710938 81.164062 205.195312 81.851562 204.101562 83.023438 L 161.664062 128.628906 C 159.40625 131.054688 159.542969 134.863281 161.96875 137.121094 C 164.398438 139.378906 168.203125 139.242188 170.464844 136.816406 L 208.773438 95.648438 C 208.773438 95.648438 245.898438 130.789062 245.898438 130.789062 C 247.09375 131.921875 248.695312 132.511719 250.335938 132.429688 C 251.976562 132.34375 253.511719 131.59375 254.582031 130.347656 L 299.125 78.652344 C 299.90625 81.304688 302.453125 83.152344 305.324219 82.945312 C 308.632812 82.707031 311.125 79.824219 310.882812 76.515625 L 309.953125 63.703125 C 309.738281 60.726562 307.371094 58.359375 304.394531 58.144531 L 291.582031 57.214844 C 288.273438 56.972656 285.390625 59.464844 285.152344 62.773438 C 284.910156 66.082031 287.402344 68.960938 290.710938 69.203125 Z M 60.425781 4.207031 C 73.148438 4.207031 83.472656 11.476562 83.472656 28.195312 C 83.472656 44.917969 73.148438 58.492188 60.425781 58.492188 C 47.703125 58.492188 37.382812 44.917969 37.382812 28.195312 C 37.382812 11.476562 47.703125 4.207031 60.425781 4.207031 Z M 90.285156 101.289062 L 90.285156 262.703125 L 65.5625 262.703125 L 65.5625 187.128906 C 65.5625 184.75 63.632812 182.820312 61.253906 182.820312 C 58.875 182.820312 56.945312 184.75 56.945312 187.128906 L 56.945312 262.703125 L 30.566406 262.703125 L 30.566406 101.289062 C 30.566406 98.914062 28.636719 96.980469 26.257812 96.980469 C 23.878906 96.980469 21.949219 98.914062 21.949219 101.289062 L 21.949219 169.085938 C 14.125 165.863281 8.605469 158.410156 8.605469 149.804688 L 8.605469 86.875 C 8.605469 75.332031 18.90625 68.890625 30.566406 65.894531 C 50.777344 60.695312 70.667969 61.03125 90.285156 65.894531 C 101.984375 68.792969 112.246094 75.332031 112.246094 86.875 L 112.246094 149.804688 C 112.246094 158.410156 106.730469 165.863281 98.902344 169.085938 L 98.902344 101.289062 C 98.902344 98.914062 96.972656 96.980469 94.59375 96.980469 C 92.21875 96.980469 90.285156 98.914062 90.285156 101.289062 Z M 90.285156 101.289062 " fill-opacity="1" fill-rule="evenodd"/></g></svg>