<svg xmlns="http://www.w3.org/2000/svg" xmlns:xlink="http://www.w3.org/1999/xlink" width="500" zoomAndPan="magnify" viewBox="0 0 375 374.999991" height="500" preserveAspectRatio="xMidYMid meet" version="1.0"><defs><clipPath id="a53b89f666"><path d="M 8.972656 48 L 365 48 L 365 366 L 8.972656 366 Z M 8.972656 48 " clip-rule="nonzero"/></clipPath><clipPath id="893b3e8357"><path d="M 350 343 L 365.972656 343 L 365.972656 367 L 350 367 Z M 350 343 " clip-rule="nonzero"/></clipPath><clipPath id="7c1cb156b7"><path d="M 282 347 L 295 347 L 295 371.1875 L 282 371.1875 Z M 282 347 " clip-rule="nonzero"/></clipPath></defs><path fill="#00f3f7" d="M 267.945312 147.035156 C 266.335938 147.035156 265.023438 148.335938 265.023438 149.953125 L 265.023438 168.121094 C 265.023438 169.730469 266.328125 171.042969 267.945312 171.042969 L 296.847656 171.042969 C 298.453125 171.042969 299.765625 169.738281 299.765625 168.121094 L 299.765625 149.953125 C 299.765625 148.34375 298.460938 147.035156 296.847656 147.035156 Z M 278.644531 162.722656 C 278.644531 164.199219 277.441406 165.402344 275.964844 165.402344 C 274.484375 165.402344 273.28125 164.199219 273.28125 162.722656 L 273.28125 155.359375 C 273.28125 153.882812 274.484375 152.679688 275.964844 152.679688 C 277.441406 152.679688 278.644531 153.882812 278.644531 155.359375 Z M 291.507812 162.722656 C 291.507812 164.199219 290.304688 165.402344 288.824219 165.402344 C 287.347656 165.402344 286.144531 164.199219 286.144531 162.722656 L 286.144531 155.359375 C 286.144531 153.882812 287.347656 152.679688 288.824219 152.679688 C 290.304688 152.679688 291.507812 153.882812 291.507812 155.359375 Z M 291.507812 162.722656 " fill-opacity="1" fill-rule="nonzero"/><path fill="#00f3f7" d="M 199.199219 114.164062 L 199.199219 132.332031 C 199.199219 133.941406 200.503906 135.253906 202.117188 135.253906 L 231.019531 135.253906 C 232.628906 135.253906 233.9375 133.949219 233.9375 132.332031 L 233.9375 114.164062 C 233.9375 112.554688 232.636719 111.246094 231.019531 111.246094 L 202.117188 111.246094 C 200.503906 111.253906 199.199219 112.554688 199.199219 114.164062 Z M 220.320312 119.570312 C 220.320312 118.09375 221.523438 116.890625 223 116.890625 C 224.480469 116.890625 225.679688 118.09375 225.679688 119.570312 L 225.679688 126.933594 C 225.679688 128.410156 224.480469 129.613281 223 129.613281 C 221.523438 129.613281 220.320312 128.410156 220.320312 126.933594 Z M 207.449219 119.570312 C 207.449219 118.09375 208.652344 116.890625 210.132812 116.890625 C 211.609375 116.890625 212.8125 118.09375 212.8125 119.570312 L 212.8125 126.933594 C 212.8125 128.410156 211.609375 129.613281 210.132812 129.613281 C 208.652344 129.613281 207.449219 128.410156 207.449219 126.933594 Z M 207.449219 119.570312 " fill-opacity="1" fill-rule="nonzero"/><path fill="#00f3f7" d="M 240.65625 99.472656 L 269.558594 99.472656 C 271.167969 99.472656 272.476562 98.167969 272.476562 96.550781 L 272.476562 78.382812 C 272.476562 76.773438 271.175781 75.464844 269.558594 75.464844 L 240.65625 75.464844 C 239.046875 75.464844 237.738281 76.765625 237.738281 78.382812 L 237.738281 96.550781 C 237.738281 98.167969 239.046875 99.472656 240.65625 99.472656 Z M 258.859375 83.789062 C 258.859375 82.3125 260.0625 81.109375 261.539062 81.109375 C 263.019531 81.109375 264.21875 82.3125 264.21875 83.789062 L 264.21875 91.152344 C 264.21875 92.628906 263.019531 93.832031 261.539062 93.832031 C 260.0625 93.832031 258.859375 92.628906 258.859375 91.152344 Z M 245.996094 83.789062 C 245.996094 82.3125 247.199219 81.109375 248.679688 81.109375 C 250.15625 81.109375 251.359375 82.3125 251.359375 83.789062 L 251.359375 91.152344 C 251.359375 92.628906 250.15625 93.832031 248.679688 93.832031 C 247.199219 93.832031 245.996094 92.628906 245.996094 91.152344 Z M 245.996094 83.789062 " fill-opacity="1" fill-rule="nonzero"/><path fill="#00f3f7" d="M 51.042969 233.648438 L 68.753906 233.648438 C 70.230469 233.648438 71.433594 232.445312 71.433594 230.96875 C 71.433594 229.488281 70.230469 228.285156 68.753906 228.285156 L 51.042969 228.285156 C 49.5625 228.285156 48.359375 229.488281 48.359375 230.96875 C 48.359375 232.445312 49.554688 233.648438 51.042969 233.648438 Z M 51.042969 233.648438 " fill-opacity="1" fill-rule="nonzero"/><path fill="#00f3f7" d="M 51.042969 261.96875 L 68.753906 261.96875 C 70.230469 261.96875 71.433594 260.765625 71.433594 259.289062 C 71.433594 257.808594 70.230469 256.605469 68.753906 256.605469 L 51.042969 256.605469 C 49.5625 256.605469 48.359375 257.808594 48.359375 259.289062 C 48.359375 260.765625 49.554688 261.96875 51.042969 261.96875 Z M 51.042969 261.96875 " fill-opacity="1" fill-rule="nonzero"/><g clip-path="url(#a53b89f666)"><path fill="#00f3f7" d="M 364.117188 313.707031 L 364.117188 64.625 C 364.117188 55.691406 356.847656 48.421875 347.917969 48.421875 L 25.15625 48.421875 C 16.226562 48.421875 8.957031 55.691406 8.957031 64.625 L 8.957031 313.699219 C 8.957031 322.632812 16.226562 329.902344 25.15625 329.902344 L 145.484375 329.902344 L 145.484375 360.367188 L 136.753906 360.367188 C 135.273438 360.367188 134.070312 361.566406 134.070312 363.046875 C 134.070312 364.523438 135.273438 365.726562 136.753906 365.726562 L 245.453125 365.726562 C 246.929688 365.726562 248.132812 364.523438 248.132812 363.046875 C 248.132812 361.566406 246.929688 360.367188 245.453125 360.367188 L 234.621094 360.367188 L 234.621094 339.414062 C 234.621094 337.9375 233.417969 336.734375 231.941406 336.734375 C 230.460938 336.734375 229.257812 337.9375 229.257812 339.414062 L 229.257812 360.367188 L 150.847656 360.367188 L 150.847656 329.902344 L 347.925781 329.902344 C 356.847656 329.910156 364.117188 322.636719 364.117188 313.707031 Z M 358.757812 313.707031 C 358.757812 319.683594 353.890625 324.546875 347.917969 324.546875 L 25.15625 324.546875 C 19.183594 324.546875 14.320312 319.683594 14.320312 313.707031 L 14.320312 290.511719 L 358.757812 290.511719 Z M 358.757812 285.148438 L 14.320312 285.148438 L 14.320312 64.625 C 14.320312 58.648438 19.183594 53.785156 25.15625 53.785156 L 347.917969 53.785156 C 353.890625 53.785156 358.757812 58.648438 358.757812 64.625 Z M 358.757812 285.148438 " fill-opacity="1" fill-rule="nonzero"/></g><path fill="#00f3f7" d="M 339.214844 211.726562 L 234.613281 211.726562 L 234.613281 204.355469 L 237.324219 204.355469 C 240.414062 204.355469 242.917969 201.84375 242.917969 198.757812 L 242.917969 192.078125 C 242.917969 188.988281 240.40625 186.476562 237.324219 186.476562 L 226.539062 186.476562 C 223.453125 186.476562 220.941406 188.988281 220.941406 192.078125 L 220.941406 198.757812 C 220.941406 201.84375 223.453125 204.355469 226.539062 204.355469 L 229.25 204.355469 L 229.25 211.726562 L 33.859375 211.726562 C 32.382812 211.726562 31.179688 212.925781 31.179688 214.40625 L 31.179688 275.839844 C 31.179688 277.320312 32.382812 278.523438 33.859375 278.523438 L 339.214844 278.523438 C 340.695312 278.523438 341.894531 277.320312 341.894531 275.839844 L 341.894531 214.40625 C 341.894531 212.925781 340.695312 211.726562 339.214844 211.726562 Z M 226.539062 198.992188 C 226.410156 198.992188 226.300781 198.886719 226.300781 198.757812 L 226.300781 192.078125 C 226.300781 191.945312 226.410156 191.839844 226.539062 191.839844 L 237.324219 191.839844 C 237.457031 191.839844 237.554688 191.945312 237.554688 192.078125 L 237.554688 198.757812 C 237.554688 198.886719 237.449219 198.992188 237.324219 198.992188 Z M 83.941406 273.167969 L 36.539062 273.167969 L 36.539062 217.09375 L 83.941406 217.09375 Z M 336.535156 273.167969 L 89.304688 273.167969 L 89.304688 217.09375 L 229.25 217.09375 L 229.25 241.539062 L 215.308594 257.265625 C 214.84375 257.792969 214.199219 258.078125 213.5 258.078125 C 212.796875 258.078125 212.152344 257.785156 211.695312 257.265625 L 187.042969 229.441406 C 185.566406 227.78125 183.441406 226.824219 181.222656 226.824219 C 178.992188 226.824219 176.871094 227.78125 175.398438 229.441406 L 150.75 257.265625 C 150.28125 257.792969 149.636719 258.078125 148.941406 258.078125 C 148.234375 258.078125 147.59375 257.785156 147.125 257.265625 L 136.324219 245.070312 C 134.84375 243.40625 132.722656 242.449219 130.503906 242.449219 L 108.800781 242.449219 C 107.320312 242.449219 106.121094 243.652344 106.121094 245.132812 C 106.121094 246.609375 107.320312 247.8125 108.800781 247.8125 L 130.503906 247.8125 C 131.191406 247.8125 131.851562 248.113281 132.308594 248.625 L 143.109375 260.820312 C 144.589844 262.480469 146.710938 263.441406 148.933594 263.441406 C 151.164062 263.441406 153.285156 262.480469 154.753906 260.820312 L 179.40625 232.996094 C 179.871094 232.46875 180.515625 232.1875 181.214844 232.1875 C 181.917969 232.1875 182.5625 232.476562 183.027344 232.996094 L 207.679688 260.820312 C 209.160156 262.480469 211.28125 263.441406 213.5 263.441406 C 215.730469 263.441406 217.851562 262.480469 219.324219 260.820312 L 229.25 249.621094 L 229.25 267.515625 C 229.25 268.992188 230.453125 270.195312 231.933594 270.195312 C 233.410156 270.195312 234.613281 268.992188 234.613281 267.515625 L 234.613281 217.09375 L 336.527344 217.09375 L 336.527344 273.167969 Z M 336.535156 273.167969 " fill-opacity="1" fill-rule="nonzero"/><path fill="#00f3f7" d="M 243.980469 232.996094 C 244.449219 232.46875 245.09375 232.1875 245.789062 232.1875 C 246.496094 232.1875 247.136719 232.476562 247.605469 232.996094 L 272.265625 260.820312 C 273.742188 262.480469 275.863281 263.441406 278.085938 263.441406 C 280.308594 263.441406 282.4375 262.480469 283.90625 260.820312 L 294.714844 248.625 C 295.175781 248.113281 295.835938 247.8125 296.523438 247.8125 L 318.234375 247.8125 C 319.710938 247.8125 320.914062 246.609375 320.914062 245.132812 C 320.914062 243.652344 319.710938 242.449219 318.234375 242.449219 L 296.523438 242.449219 C 294.292969 242.449219 292.171875 243.40625 290.703125 245.070312 L 279.894531 257.265625 C 279.425781 257.792969 278.78125 258.078125 278.085938 258.078125 C 277.386719 258.078125 276.738281 257.785156 276.277344 257.265625 L 251.621094 229.441406 C 250.140625 227.78125 248.019531 226.824219 245.796875 226.824219 C 243.574219 226.824219 241.445312 227.78125 239.976562 229.441406 C 238.996094 230.554688 239.09375 232.246094 240.207031 233.226562 C 241.308594 234.207031 243 234.101562 243.980469 232.996094 Z M 243.980469 232.996094 " fill-opacity="1" fill-rule="nonzero"/><path fill="#00f3f7" d="M 179.46875 161.71875 L 255.824219 161.71875 C 257.304688 161.71875 258.507812 160.515625 258.507812 159.039062 C 258.507812 157.558594 257.304688 156.355469 255.824219 156.355469 L 179.46875 156.355469 C 177.988281 156.355469 176.785156 157.558594 176.785156 159.039062 C 176.785156 160.515625 177.988281 161.71875 179.46875 161.71875 Z M 179.46875 161.71875 " fill-opacity="1" fill-rule="nonzero"/><path fill="#00f3f7" d="M 325.496094 156.355469 L 308.789062 156.355469 C 307.308594 156.355469 306.105469 157.558594 306.105469 159.039062 C 306.105469 160.515625 307.308594 161.71875 308.789062 161.71875 L 325.496094 161.71875 C 326.972656 161.71875 328.175781 160.515625 328.175781 159.039062 C 328.175781 157.558594 326.972656 156.355469 325.496094 156.355469 Z M 325.496094 156.355469 " fill-opacity="1" fill-rule="nonzero"/><path fill="#00f3f7" d="M 179.46875 125.9375 L 189.761719 125.9375 C 191.242188 125.9375 192.445312 124.734375 192.445312 123.257812 C 192.445312 121.777344 191.242188 120.574219 189.761719 120.574219 L 179.46875 120.574219 C 177.988281 120.574219 176.785156 121.777344 176.785156 123.257812 C 176.785156 124.734375 177.988281 125.9375 179.46875 125.9375 Z M 179.46875 125.9375 " fill-opacity="1" fill-rule="nonzero"/><path fill="#00f3f7" d="M 325.496094 120.574219 L 242.925781 120.574219 C 241.445312 120.574219 240.242188 121.777344 240.242188 123.257812 C 240.242188 124.734375 241.445312 125.9375 242.925781 125.9375 L 325.496094 125.9375 C 326.972656 125.9375 328.175781 124.734375 328.175781 123.257812 C 328.175781 121.777344 326.972656 120.574219 325.496094 120.574219 Z M 325.496094 120.574219 " fill-opacity="1" fill-rule="nonzero"/><path fill="#00f3f7" d="M 179.46875 90.148438 L 228.027344 90.148438 C 229.503906 90.148438 230.707031 88.945312 230.707031 87.46875 C 230.707031 85.988281 229.503906 84.785156 228.027344 84.785156 L 179.46875 84.785156 C 177.988281 84.785156 176.785156 85.988281 176.785156 87.46875 C 176.785156 88.945312 177.988281 90.148438 179.46875 90.148438 Z M 179.46875 90.148438 " fill-opacity="1" fill-rule="nonzero"/><path fill="#00f3f7" d="M 281.625 90.148438 L 325.496094 90.148438 C 326.972656 90.148438 328.175781 88.945312 328.175781 87.46875 C 328.175781 85.988281 326.972656 84.785156 325.496094 84.785156 L 281.625 84.785156 C 280.144531 84.785156 278.945312 85.988281 278.945312 87.46875 C 278.945312 88.945312 280.144531 90.148438 281.625 90.148438 Z M 281.625 90.148438 " fill-opacity="1" fill-rule="nonzero"/><path fill="#00f3f7" d="M 86.671875 173.722656 C 114.539062 173.722656 137.210938 151.046875 137.210938 123.179688 C 137.210938 95.3125 114.539062 72.636719 86.671875 72.636719 C 58.800781 72.636719 36.121094 95.304688 36.121094 123.179688 C 36.121094 151.054688 58.792969 173.722656 86.671875 173.722656 Z M 86.671875 77.992188 C 111.582031 77.992188 131.851562 98.261719 131.851562 123.171875 C 131.851562 148.082031 111.582031 168.351562 86.671875 168.351562 C 61.757812 168.351562 41.488281 148.082031 41.488281 123.171875 C 41.488281 98.261719 61.75 77.992188 86.671875 77.992188 Z M 86.671875 77.992188 " fill-opacity="1" fill-rule="nonzero"/><path fill="#00f3f7" d="M 59.691406 149.011719 C 61.703125 150.449219 64.1875 151.214844 66.777344 151.214844 C 67.160156 151.214844 67.542969 151.199219 67.925781 151.164062 C 70.929688 150.902344 73.671875 149.636719 75.667969 147.609375 C 77.707031 145.53125 78.71875 142.898438 78.558594 140.179688 C 78.558594 140.171875 78.558594 140.164062 78.558594 140.15625 L 78.558594 105.597656 C 78.558594 105.484375 78.640625 105.382812 78.757812 105.371094 L 108.679688 100.957031 C 108.699219 100.949219 108.785156 100.941406 108.871094 101.011719 C 108.953125 101.078125 108.953125 101.164062 108.953125 101.1875 L 108.953125 126.082031 C 106.917969 124.972656 104.472656 124.414062 101.890625 124.636719 C 98.886719 124.894531 96.144531 126.160156 94.144531 128.1875 C 92.039062 130.335938 91.019531 133.0625 91.265625 135.878906 C 91.511719 138.691406 92.988281 141.203125 95.433594 142.949219 C 97.449219 144.390625 99.929688 145.15625 102.519531 145.15625 C 102.902344 145.15625 103.285156 145.140625 103.667969 145.101562 C 109.886719 144.558594 114.578125 139.703125 114.300781 134.203125 L 114.300781 101.171875 C 114.300781 99.546875 113.597656 98 112.363281 96.933594 C 111.128906 95.871094 109.496094 95.402344 107.890625 95.632812 L 77.96875 100.046875 C 75.242188 100.453125 73.1875 102.824219 73.1875 105.582031 L 73.1875 132.105469 C 71.097656 130.960938 68.636719 130.449219 66.125 130.671875 C 63.121094 130.933594 60.378906 132.195312 58.378906 134.226562 C 56.273438 136.371094 55.253906 139.097656 55.5 141.917969 C 55.761719 144.75 57.246094 147.261719 59.691406 149.011719 Z M 103.214844 139.785156 C 101.5 139.941406 99.839844 139.519531 98.558594 138.605469 C 97.410156 137.789062 96.71875 136.660156 96.613281 135.429688 C 96.503906 134.203125 96.988281 132.96875 97.976562 131.957031 C 99.070312 130.839844 100.628906 130.136719 102.359375 129.988281 C 102.589844 129.964844 102.816406 129.957031 103.039062 129.957031 C 106.121094 129.957031 108.6875 131.796875 108.953125 134.28125 L 108.953125 134.890625 C 108.953125 134.921875 108.960938 134.953125 108.960938 134.984375 C 108.785156 137.414062 106.355469 139.511719 103.214844 139.785156 Z M 62.226562 138.003906 C 63.320312 136.882812 64.875 136.179688 66.609375 136.035156 C 66.835938 136.011719 67.066406 136.003906 67.296875 136.003906 C 68.769531 136.003906 70.160156 136.425781 71.265625 137.214844 C 72.414062 138.03125 73.105469 139.160156 73.210938 140.390625 C 73.316406 141.617188 72.835938 142.851562 71.847656 143.863281 C 70.75 144.980469 69.195312 145.683594 67.464844 145.832031 C 65.742188 145.984375 64.085938 145.5625 62.808594 144.652344 C 61.660156 143.832031 60.96875 142.707031 60.863281 141.472656 C 60.753906 140.246094 61.238281 139.011719 62.226562 138.003906 Z M 62.226562 138.003906 " fill-opacity="1" fill-rule="nonzero"/><path fill="#00f3f7" d="M 45.496094 32.597656 C 46.007812 33.394531 46.875 33.828125 47.753906 33.828125 C 48.253906 33.828125 48.75 33.691406 49.203125 33.410156 C 50.453125 32.613281 50.8125 30.949219 50.015625 29.699219 L 39.246094 12.910156 C 38.449219 11.660156 36.785156 11.300781 35.539062 12.097656 C 34.289062 12.894531 33.929688 14.554688 34.726562 15.804688 Z M 45.496094 32.597656 " fill-opacity="1" fill-rule="nonzero"/><path fill="#00f3f7" d="M 107.320312 28.085938 C 107.621094 28.191406 107.925781 28.246094 108.226562 28.246094 C 109.320312 28.246094 110.355469 27.5625 110.746094 26.46875 L 117.496094 7.699219 C 117.992188 6.304688 117.273438 4.773438 115.878906 4.269531 C 114.484375 3.761719 112.953125 4.492188 112.445312 5.886719 L 105.699219 24.652344 C 105.199219 26.046875 105.929688 27.578125 107.320312 28.085938 Z M 107.320312 28.085938 " fill-opacity="1" fill-rule="nonzero"/><g clip-path="url(#893b3e8357)"><path fill="#00f3f7" d="M 365.246094 362.449219 L 355.09375 345.28125 C 354.34375 344.011719 352.695312 343.582031 351.425781 344.339844 C 350.152344 345.089844 349.726562 346.738281 350.484375 348.007812 L 360.632812 365.175781 C 361.132812 366.019531 362.027344 366.492188 362.945312 366.492188 C 363.414062 366.492188 363.882812 366.371094 364.308594 366.117188 C 365.574219 365.367188 365.996094 363.726562 365.246094 362.449219 Z M 365.246094 362.449219 " fill-opacity="1" fill-rule="nonzero"/></g><g clip-path="url(#7c1cb156b7)"><path fill="#00f3f7" d="M 293.144531 347.542969 C 291.773438 346.992188 290.210938 347.65625 289.660156 349.027344 L 282.230469 367.542969 C 281.679688 368.914062 282.34375 370.476562 283.714844 371.027344 C 284.046875 371.160156 284.382812 371.21875 284.710938 371.21875 C 285.777344 371.21875 286.78125 370.585938 287.203125 369.535156 L 294.632812 351.019531 C 295.183594 349.65625 294.515625 348.09375 293.144531 347.542969 Z M 293.144531 347.542969 " fill-opacity="1" fill-rule="nonzero"/></g></svg>