<svg xmlns="http://www.w3.org/2000/svg" xmlns:xlink="http://www.w3.org/1999/xlink" width="500" zoomAndPan="magnify" viewBox="0 0 375 374.999991" height="500" preserveAspectRatio="xMidYMid meet" version="1.0"><defs><clipPath id="a0f5398fb8"><path d="M 267.605469 197 L 362.941406 197 L 362.941406 307.394531 L 267.605469 307.394531 Z M 267.605469 197 " clip-rule="nonzero"/></clipPath><clipPath id="85ee757106"><path d="M 12.046875 197 L 108 197 L 108 308 L 12.046875 308 Z M 12.046875 197 " clip-rule="nonzero"/></clipPath><clipPath id="2ac66e6149"><path d="M 168 340.273438 L 194.929688 340.273438 L 194.929688 369.199219 L 168 369.199219 Z M 168 340.273438 " clip-rule="nonzero"/></clipPath><clipPath id="df89242366"><path d="M 157 5.449219 L 218 5.449219 L 218 53 L 157 53 Z M 157 5.449219 " clip-rule="nonzero"/></clipPath></defs><g clip-path="url(#a0f5398fb8)"><path fill="#00f3f7" d="M 320.792969 290.457031 C 316.355469 292.394531 311.1875 290.363281 309.25 285.925781 C 307.316406 281.488281 309.34375 276.320312 313.785156 274.382812 C 318.222656 272.445312 323.390625 274.476562 325.328125 278.914062 C 327.261719 283.355469 325.234375 288.519531 320.792969 290.457031 Z M 345.210938 239.21875 L 327.679688 199.019531 C 326.96875 197.394531 325.078125 196.652344 323.449219 197.359375 L 269.613281 220.839844 C 267.988281 221.546875 267.246094 223.441406 267.953125 225.066406 L 285.484375 265.265625 L 302.945312 305.300781 C 303.65625 306.925781 305.546875 307.671875 307.171875 306.960938 L 361.011719 283.484375 C 362.636719 282.773438 363.382812 280.878906 362.671875 279.253906 L 345.210938 239.21875 " fill-opacity="1" fill-rule="nonzero"/></g><g clip-path="url(#85ee757106)"><path fill="#00f3f7" d="M 66.175781 285.925781 C 64.238281 290.363281 59.070312 292.394531 54.632812 290.457031 C 50.195312 288.519531 48.164062 283.355469 50.101562 278.914062 C 52.035156 274.476562 57.203125 272.445312 61.644531 274.382812 C 66.082031 276.320312 68.109375 281.488281 66.175781 285.925781 Z M 105.8125 220.839844 L 51.972656 197.359375 C 50.347656 196.652344 48.457031 197.394531 47.746094 199.019531 L 30.214844 239.21875 L 12.753906 279.253906 C 12.042969 280.878906 12.789062 282.773438 14.414062 283.484375 L 68.25 306.960938 C 69.875 307.671875 71.769531 306.925781 72.480469 305.300781 L 89.9375 265.265625 L 107.472656 225.066406 C 108.179688 223.441406 107.4375 221.546875 105.8125 220.839844 " fill-opacity="1" fill-rule="nonzero"/></g><path fill="#00f3f7" d="M 133.242188 312.441406 C 130.140625 309.910156 125.574219 310.371094 123.042969 313.472656 L 114.382812 324.078125 C 111.851562 327.179688 112.3125 331.746094 115.414062 334.277344 C 118.515625 336.808594 123.082031 336.347656 125.613281 333.246094 L 134.269531 322.640625 C 136.800781 319.542969 136.339844 314.976562 133.242188 312.441406 " fill-opacity="1" fill-rule="nonzero"/><path fill="#00f3f7" d="M 152.308594 320.902344 C 149.207031 318.371094 144.640625 318.832031 142.109375 321.933594 L 129.953125 336.820312 C 127.421875 339.921875 127.882812 344.488281 130.984375 347.019531 C 134.082031 349.550781 138.648438 349.089844 141.179688 345.988281 L 153.335938 331.101562 C 155.871094 328 155.40625 323.433594 152.308594 320.902344 " fill-opacity="1" fill-rule="nonzero"/><path fill="#00f3f7" d="M 170.757812 332.007812 C 167.230469 329.132812 162.042969 329.65625 159.167969 333.179688 L 146.722656 348.417969 C 143.847656 351.941406 144.371094 357.132812 147.894531 360.007812 C 151.417969 362.886719 156.605469 362.359375 159.484375 358.835938 L 171.925781 343.597656 C 174.804688 340.074219 174.277344 334.882812 170.757812 332.007812 " fill-opacity="1" fill-rule="nonzero"/><g clip-path="url(#2ac66e6149)"><path fill="#00f3f7" d="M 191.835938 342.1875 C 188.3125 339.3125 183.125 339.835938 180.25 343.359375 L 169.9375 355.988281 C 167.058594 359.511719 167.582031 364.699219 171.109375 367.578125 C 174.632812 370.453125 179.820312 369.929688 182.695312 366.40625 L 193.007812 353.777344 C 195.882812 350.253906 195.359375 345.066406 191.835938 342.1875 " fill-opacity="1" fill-rule="nonzero"/></g><path fill="#00f3f7" d="M 250.4375 306.03125 L 203.570312 277.5625 L 203.214844 277.761719 L 200.851562 277.824219 C 200.167969 277.839844 199.460938 277.847656 198.761719 277.847656 C 194.804688 277.847656 191.289062 277.574219 188.191406 277.335938 C 185.871094 277.152344 183.867188 276.996094 182.207031 276.996094 C 180.226562 276.996094 179.640625 277.230469 179.578125 277.257812 C 175.203125 279.1875 171.273438 282.59375 167.472656 285.886719 C 161.78125 290.816406 155.894531 295.917969 148.089844 295.917969 C 146.164062 295.917969 144.253906 295.589844 142.414062 294.945312 C 140.101562 294.132812 134.6875 292.238281 132.359375 286.382812 C 130.671875 282.148438 131.300781 277.429688 134.226562 272.355469 C 137.914062 265.964844 145.734375 258.328125 155.804688 251.15625 L 127.117188 249.023438 C 117.738281 248.847656 113.382812 250.171875 112.09375 253.59375 L 112.035156 253.753906 L 92.496094 294.824219 C 90.941406 298.089844 90.464844 300.296875 90.898438 302.210938 C 91.402344 304.429688 93.246094 306.917969 96.703125 310.046875 L 97.070312 310.378906 L 97.292969 310.707031 C 97.476562 310.949219 99.699219 313.796875 106.089844 319.09375 C 106.351562 318.714844 106.625 318.34375 106.921875 317.984375 L 115.578125 307.378906 C 118.796875 303.433594 123.566406 301.175781 128.660156 301.175781 C 132.539062 301.175781 136.328125 302.523438 139.332031 304.980469 C 141.109375 306.429688 142.539062 308.183594 143.582031 310.152344 C 144.921875 309.8125 146.308594 309.632812 147.726562 309.632812 C 151.605469 309.632812 155.394531 310.984375 158.402344 313.441406 C 160.761719 315.367188 162.519531 317.84375 163.550781 320.628906 C 164.210938 320.554688 164.878906 320.515625 165.550781 320.515625 C 169.65625 320.515625 173.667969 321.945312 176.847656 324.542969 C 179.109375 326.390625 180.847656 328.710938 181.964844 331.316406 C 183.46875 330.910156 185.035156 330.699219 186.632812 330.699219 C 190.738281 330.699219 194.75 332.128906 197.929688 334.726562 C 201.628906 337.742188 203.929688 342.023438 204.410156 346.773438 C 204.519531 347.871094 204.523438 348.96875 204.4375 350.046875 L 220.070312 357.859375 C 223.136719 359.320312 226.957031 357.730469 228.582031 354.320312 L 228.894531 353.660156 C 230.242188 350.820312 229.675781 347.515625 227.554688 345.664062 L 227.554688 345.660156 C 223.570312 343.644531 189.515625 326.054688 177.144531 320.148438 C 175.089844 319.164062 174.214844 316.703125 175.195312 314.644531 L 175.195312 314.640625 C 176.175781 312.578125 178.644531 311.703125 180.707031 312.683594 L 240.199219 342.292969 C 243.269531 343.753906 247.085938 342.164062 248.710938 338.753906 L 249.023438 338.09375 C 250.648438 334.679688 249.472656 330.714844 246.402344 329.253906 L 191.515625 302.382812 C 189.34375 301.371094 188.414062 298.789062 189.433594 296.625 L 189.492188 296.507812 C 190.511719 294.351562 193.085938 293.429688 195.242188 294.449219 C 207.8125 300.402344 241.550781 317.65625 245.839844 319.539062 C 248.550781 319.90625 251.390625 318.253906 252.699219 315.507812 L 253.015625 314.847656 C 253.074219 314.722656 253.136719 314.574219 253.210938 314.390625 C 254.527344 311.089844 253.308594 307.429688 250.4375 306.03125 " fill-opacity="1" fill-rule="nonzero"/><path fill="#00f3f7" d="M 248.039062 243.714844 C 245.65625 242.914062 242.632812 242.535156 239.117188 242.53125 C 231.957031 239.605469 224.324219 235.703125 211.011719 237.660156 C 175.460938 242.894531 137.824219 274.054688 141.3125 282.824219 C 142.015625 284.59375 144.046875 285.308594 145.601562 285.851562 C 154.460938 288.957031 162.179688 274.402344 175.691406 268.441406 C 181.183594 266.015625 203.789062 266.421875 203.789062 266.421875 L 255.152344 297.621094 C 259.917969 300.164062 262.863281 305.03125 263.304688 310.324219 C 269.378906 308.011719 275.828125 305.449219 276.800781 302.503906 C 282.320312 285.808594 270.804688 251.378906 248.039062 243.714844 " fill-opacity="1" fill-rule="nonzero"/><g clip-path="url(#df89242366)"><path fill="#00f3f7" d="M 170.808594 30.625 C 170.808594 27.667969 173.207031 25.269531 176.164062 25.269531 L 198.875 25.269531 C 201.832031 25.269531 204.230469 27.667969 204.230469 30.625 L 204.230469 37.191406 C 204.230469 40.148438 201.832031 42.550781 198.875 42.550781 L 176.164062 42.550781 C 173.207031 42.550781 170.808594 40.148438 170.808594 37.191406 Z M 157.921875 26.765625 L 157.921875 41.054688 C 157.921875 47.242188 162.9375 52.261719 169.128906 52.261719 L 205.910156 52.261719 C 212.101562 52.261719 217.117188 47.242188 217.117188 41.054688 L 217.117188 26.765625 C 217.117188 20.574219 212.101562 15.558594 205.910156 15.558594 L 199.523438 15.558594 C 200.253906 14.523438 200.691406 13.265625 200.691406 11.902344 C 200.691406 8.402344 197.851562 5.566406 194.351562 5.566406 L 180.6875 5.566406 C 177.1875 5.566406 174.351562 8.402344 174.351562 11.902344 C 174.351562 13.265625 174.785156 14.523438 175.515625 15.558594 L 169.128906 15.558594 C 162.9375 15.558594 157.921875 20.574219 157.921875 26.765625 " fill-opacity="1" fill-rule="nonzero"/></g><path fill="#00f3f7" d="M 147.75 27.808594 L 86.171875 27.808594 C 84.394531 27.808594 82.957031 29.246094 82.957031 31.015625 L 82.957031 200.445312 L 101.210938 208.40625 L 101.210938 47.980469 C 101.210938 46.207031 102.648438 44.769531 104.425781 44.769531 L 148.078125 44.769531 C 147.867188 43.5625 147.75 42.324219 147.75 41.054688 L 147.75 27.808594 " fill-opacity="1" fill-rule="nonzero"/><path fill="#00f3f7" d="M 273.730469 208.519531 L 292.003906 200.609375 L 292.011719 198.039062 L 292.457031 31.179688 C 292.464844 29.40625 291.03125 27.964844 289.257812 27.960938 L 227.679688 27.796875 L 227.640625 41.042969 C 227.640625 42.3125 227.519531 43.550781 227.300781 44.757812 L 270.957031 44.875 C 272.730469 44.878906 274.164062 46.320312 274.160156 48.097656 L 273.75 200.535156 L 273.730469 208.519531 " fill-opacity="1" fill-rule="nonzero"/><path fill="#00f3f7" d="M 149.222656 142.492188 L 179.5625 163.21875 C 180.386719 163.785156 181.335938 164.058594 182.28125 164.058594 C 183.414062 164.058594 184.542969 163.664062 185.445312 162.875 L 226.636719 127.027344 C 228.644531 125.28125 228.855469 122.238281 227.109375 120.230469 C 225.363281 118.226562 222.320312 118.015625 220.3125 119.757812 L 181.925781 153.167969 L 154.660156 134.535156 C 152.464844 133.035156 149.464844 133.601562 147.964844 135.796875 C 146.464844 137.992188 147.027344 140.992188 149.222656 142.492188 " fill-opacity="1" fill-rule="nonzero"/><path fill="#00f3f7" d="M 187.707031 88.519531 C 216.820312 88.519531 240.507812 112.207031 240.507812 141.320312 C 240.507812 170.429688 216.820312 194.117188 187.707031 194.117188 C 158.597656 194.117188 134.910156 170.429688 134.910156 141.320312 C 134.910156 112.207031 158.597656 88.519531 187.707031 88.519531 Z M 125.277344 141.320312 C 125.277344 175.746094 153.28125 203.753906 187.707031 203.753906 C 222.132812 203.753906 250.140625 175.746094 250.140625 141.320312 C 250.140625 106.894531 222.132812 78.886719 187.707031 78.886719 C 153.28125 78.886719 125.277344 106.894531 125.277344 141.320312 " fill-opacity="1" fill-rule="nonzero"/></svg>