<svg xmlns="http://www.w3.org/2000/svg" xmlns:xlink="http://www.w3.org/1999/xlink" width="500" zoomAndPan="magnify" viewBox="0 0 375 374.999991" height="500" preserveAspectRatio="xMidYMid meet" version="1.0"><defs><clipPath id="3b7a2a8aa0"><path d="M 6.1875 6.1875 L 369 6.1875 L 369 369 L 6.1875 369 Z M 6.1875 6.1875 " clip-rule="nonzero"/></clipPath></defs><g clip-path="url(#3b7a2a8aa0)"><path fill="#00f3f7" d="M 17.519531 171.722656 L 55.441406 158.554688 C 57.242188 157.945312 58.597656 156.464844 59.078125 154.597656 C 62.136719 142.523438 66.964844 130.902344 73.4375 120.019531 C 74.402344 118.378906 74.5 116.382812 73.664062 114.675781 L 56.148438 78.460938 L 78.460938 56.117188 L 114.582031 73.664062 C 116.320312 74.46875 118.316406 74.402344 119.957031 73.40625 C 130.804688 66.964844 142.460938 62.136719 154.597656 59.078125 C 156.464844 58.597656 157.945312 57.242188 158.554688 55.441406 L 171.722656 17.519531 L 203.273438 17.519531 L 216.503906 55.441406 C 217.117188 57.242188 218.597656 58.597656 220.433594 59.078125 C 232.632812 62.234375 244.285156 67.0625 255.039062 73.4375 C 256.679688 74.402344 258.710938 74.46875 260.414062 73.664062 L 296.535156 56.117188 L 318.878906 78.460938 L 301.332031 114.675781 C 300.527344 116.382812 300.59375 118.378906 301.589844 120.019531 C 308.0625 130.902344 312.859375 142.523438 315.917969 154.597656 C 316.398438 156.464844 317.753906 157.945312 319.554688 158.554688 L 357.480469 171.722656 L 357.480469 203.273438 L 319.554688 216.503906 C 317.753906 217.117188 316.398438 218.597656 315.917969 220.433594 C 312.792969 232.601562 307.933594 244.222656 301.527344 254.941406 C 300.527344 256.585938 300.433594 258.613281 301.269531 260.351562 L 318.878906 296.535156 L 296.535156 318.847656 L 260.351562 301.332031 C 258.613281 300.496094 256.617188 300.59375 254.976562 301.558594 C 244.191406 307.964844 232.570312 312.792969 220.433594 315.917969 C 218.597656 316.398438 217.117188 317.753906 216.503906 319.554688 L 203.273438 357.476562 L 171.722656 357.476562 L 158.554688 319.554688 C 157.945312 317.753906 156.464844 316.367188 154.597656 315.917969 C 142.363281 312.828125 130.742188 307.964844 120.085938 301.527344 C 118.445312 300.527344 116.382812 300.433594 114.675781 301.269531 L 78.460938 318.847656 L 56.148438 296.535156 L 73.726562 260.351562 C 74.5625 258.613281 74.46875 256.585938 73.5 254.941406 C 67.0625 244.222656 62.203125 232.601562 59.078125 220.433594 C 58.597656 218.597656 57.242188 217.117188 55.441406 216.503906 L 17.519531 203.273438 Z M 6.1875 207.296875 C 6.1875 209.710938 7.699219 211.867188 9.984375 212.640625 L 48.875 226.226562 C 52.027344 237.367188 56.503906 248.085938 62.203125 258.097656 L 44.171875 295.214844 C 43.109375 297.375 43.5625 299.980469 45.269531 301.6875 L 73.308594 329.726562 C 75.015625 331.433594 77.621094 331.886719 79.78125 330.824219 L 116.867188 312.792969 C 126.878906 318.523438 137.628906 323.03125 148.867188 326.121094 L 162.355469 365.011719 C 163.128906 367.265625 165.285156 368.808594 167.699219 368.808594 L 207.296875 368.808594 C 209.710938 368.808594 211.867188 367.265625 212.640625 365.011719 L 226.226562 326.121094 C 237.332031 322.96875 248.019531 318.523438 258.097656 312.859375 L 295.214844 330.824219 C 297.40625 331.886719 300.011719 331.433594 301.6875 329.726562 L 329.726562 301.6875 C 331.433594 299.980469 331.886719 297.375 330.824219 295.214844 L 312.792969 258.128906 C 318.492188 248.085938 322.96875 237.367188 326.121094 226.226562 L 365.011719 212.640625 C 367.296875 211.867188 368.8125 209.710938 368.8125 207.296875 L 368.8125 167.699219 C 368.8125 165.285156 367.296875 163.128906 365.011719 162.355469 L 326.121094 148.832031 C 323.0625 137.757812 318.589844 127.039062 312.859375 116.898438 L 330.824219 79.78125 C 331.886719 77.621094 331.433594 75.015625 329.726562 73.308594 L 301.6875 45.269531 C 300.011719 43.5625 297.40625 43.144531 295.214844 44.171875 L 258.164062 62.136719 C 248.117188 56.472656 237.398438 52.027344 226.226562 48.90625 L 212.640625 9.984375 C 211.867188 7.699219 209.710938 6.1875 207.328125 6.1875 L 167.699219 6.1875 C 165.285156 6.1875 163.128906 7.699219 162.355469 9.984375 L 148.867188 48.875 C 137.695312 51.964844 126.941406 56.40625 116.832031 62.136719 L 79.78125 44.171875 C 77.621094 43.144531 75.015625 43.5625 73.308594 45.269531 L 45.269531 73.308594 C 43.5625 75.015625 43.109375 77.621094 44.171875 79.78125 L 62.136719 116.898438 C 56.40625 127.039062 51.933594 137.757812 48.875 148.867188 L 9.984375 162.355469 C 7.730469 163.128906 6.1875 165.285156 6.1875 167.699219 L 6.1875 207.296875 " fill-opacity="1" fill-rule="nonzero"/></g><path fill="#00f3f7" d="M 187.5 85.058594 C 243.933594 85.058594 289.871094 131.03125 289.871094 187.5 C 289.871094 243.964844 243.933594 289.90625 187.5 289.90625 C 131.03125 289.90625 85.125 243.964844 85.125 187.5 C 85.125 131.03125 131.03125 85.058594 187.5 85.058594 Z M 187.5 295.570312 C 247.085938 295.570312 295.539062 247.085938 295.539062 187.5 C 295.539062 127.875 247.085938 79.394531 187.5 79.394531 C 127.910156 79.394531 79.457031 127.875 79.457031 187.5 C 79.457031 247.085938 127.941406 295.570312 187.5 295.570312 " fill-opacity="1" fill-rule="nonzero"/><path fill="#00f3f7" d="M 128.746094 235.53125 L 185.566406 178.710938 C 188.367188 182.992188 191.972656 186.566406 196.253906 189.398438 L 139.464844 246.1875 C 136.535156 249.117188 131.707031 249.210938 128.714844 246.1875 C 125.785156 243.257812 125.847656 238.429688 128.746094 235.53125 Z M 194.355469 135.796875 C 200.3125 129.808594 208.292969 126.492188 216.730469 126.492188 C 217.40625 126.492188 218.050781 126.523438 218.691406 126.554688 L 205.367188 139.917969 C 204.785156 140.464844 204.527344 141.238281 204.527344 142.007812 L 205.492188 166.796875 C 205.558594 168.246094 206.75 169.4375 208.230469 169.503906 L 232.953125 170.4375 C 233.726562 170.53125 234.5 170.144531 235.046875 169.597656 L 248.40625 156.238281 C 248.988281 165.253906 245.734375 174.074219 239.167969 180.609375 C 226.804688 193.003906 206.75 192.972656 194.355469 180.578125 C 181.992188 168.214844 181.992188 148.15625 194.355469 135.796875 Z M 143.457031 250.210938 L 201.4375 192.230469 C 215.152344 198.410156 231.828125 195.996094 243.191406 184.632812 C 252.433594 175.394531 256.132812 162.324219 253.109375 149.640625 C 252.882812 148.640625 252.109375 147.835938 251.113281 147.578125 C 250.144531 147.289062 249.082031 147.578125 248.34375 148.285156 L 231.925781 164.738281 L 211.0625 163.964844 L 210.257812 143.039062 L 226.675781 126.621094 C 227.417969 125.878906 227.675781 124.816406 227.417969 123.851562 C 227.128906 122.855469 226.355469 122.113281 225.355469 121.855469 C 212.898438 118.863281 199.472656 122.660156 190.332031 131.773438 C 179.191406 142.910156 176.390625 159.523438 182.734375 173.527344 L 124.753906 231.507812 C 119.601562 236.6875 119.570312 245.058594 124.722656 250.210938 C 129.90625 255.394531 138.308594 255.363281 143.457031 250.210938 " fill-opacity="1" fill-rule="nonzero"/></svg>