<svg xmlns="http://www.w3.org/2000/svg" xmlns:xlink="http://www.w3.org/1999/xlink" width="500" zoomAndPan="magnify" viewBox="0 0 375 374.999991" height="500" preserveAspectRatio="xMidYMid meet" version="1.0"><defs><clipPath id="5b1fcc25d4"><path d="M 78.710938 6.1875 L 296.210938 6.1875 L 296.210938 369 L 78.710938 369 Z M 78.710938 6.1875 " clip-rule="nonzero"/></clipPath></defs><g clip-path="url(#5b1fcc25d4)"><path fill="#00f3f7" d="M 284.195312 338.589844 C 284.195312 348.597656 276.074219 356.71875 266.0625 356.71875 L 108.929688 356.71875 C 98.917969 356.71875 90.796875 348.597656 90.796875 338.589844 L 90.796875 36.40625 C 90.796875 26.398438 98.917969 18.277344 108.929688 18.277344 L 139.148438 18.277344 L 139.148438 24.320312 C 139.148438 34.332031 147.269531 42.453125 157.277344 42.453125 L 217.714844 42.453125 C 227.722656 42.453125 235.84375 34.332031 235.84375 24.320312 L 235.84375 18.277344 L 266.0625 18.277344 C 276.074219 18.277344 284.195312 26.398438 284.195312 36.40625 Z M 151.234375 18.277344 L 223.757812 18.277344 L 223.757812 24.320312 C 223.757812 27.648438 221.042969 30.363281 217.714844 30.363281 L 157.277344 30.363281 C 153.949219 30.363281 151.234375 27.648438 151.234375 24.320312 Z M 266.0625 6.191406 L 108.929688 6.191406 C 92.261719 6.191406 78.710938 19.742188 78.710938 36.40625 L 78.710938 338.589844 C 78.710938 355.253906 92.261719 368.808594 108.929688 368.808594 L 266.0625 368.808594 C 282.730469 368.808594 296.28125 355.253906 296.28125 338.589844 L 296.28125 36.40625 C 296.28125 19.742188 282.730469 6.191406 266.0625 6.191406 " fill-opacity="1" fill-rule="nonzero"/></g><path fill="#00f3f7" d="M 229.800781 332.546875 L 145.191406 332.546875 C 141.863281 332.546875 139.148438 335.261719 139.148438 338.589844 C 139.148438 341.917969 141.863281 344.632812 145.191406 344.632812 L 229.800781 344.632812 C 233.128906 344.632812 235.84375 341.917969 235.84375 338.589844 C 235.84375 335.261719 233.128906 332.546875 229.800781 332.546875 " fill-opacity="1" fill-rule="nonzero"/><path fill="#00f3f7" d="M 235.84375 241.890625 C 239.175781 241.890625 241.890625 239.175781 241.890625 235.847656 C 241.890625 232.519531 239.175781 229.804688 235.84375 229.804688 L 199.582031 229.804688 C 196.253906 229.804688 193.539062 232.519531 193.539062 235.847656 C 193.539062 239.175781 196.253906 241.890625 199.582031 241.890625 L 211.671875 241.890625 L 211.671875 290.238281 L 199.582031 290.238281 C 196.253906 290.238281 193.539062 292.953125 193.539062 296.285156 C 193.539062 299.613281 196.253906 302.328125 199.582031 302.328125 L 235.84375 302.328125 C 239.175781 302.328125 241.890625 299.613281 241.890625 296.285156 C 241.890625 292.953125 239.175781 290.238281 235.84375 290.238281 L 223.757812 290.238281 L 223.757812 241.890625 L 235.84375 241.890625 " fill-opacity="1" fill-rule="nonzero"/><path fill="#00f3f7" d="M 139.148438 229.804688 C 135.820312 229.804688 133.105469 232.519531 133.105469 235.847656 L 133.105469 278.152344 C 133.105469 291.492188 143.941406 302.328125 157.277344 302.328125 C 170.617188 302.328125 181.453125 291.492188 181.453125 278.152344 L 181.453125 235.847656 C 181.453125 232.519531 178.738281 229.804688 175.410156 229.804688 C 172.082031 229.804688 169.367188 232.519531 169.367188 235.847656 L 169.367188 278.152344 C 169.367188 284.808594 163.9375 290.238281 157.277344 290.238281 C 150.621094 290.238281 145.191406 284.808594 145.191406 278.152344 L 145.191406 235.847656 C 145.191406 232.519531 142.476562 229.804688 139.148438 229.804688 " fill-opacity="1" fill-rule="nonzero"/><path fill="#00f3f7" d="M 157.277344 139.148438 C 170.617188 139.148438 181.453125 128.3125 181.453125 114.976562 L 181.453125 72.667969 C 181.453125 69.339844 178.738281 66.625 175.410156 66.625 C 172.082031 66.625 169.367188 69.339844 169.367188 72.667969 L 169.367188 114.976562 C 169.367188 121.632812 163.9375 127.0625 157.277344 127.0625 C 150.621094 127.0625 145.191406 121.632812 145.191406 114.976562 L 145.191406 72.667969 C 145.191406 69.339844 142.476562 66.625 139.148438 66.625 C 135.820312 66.625 133.105469 69.339844 133.105469 72.667969 L 133.105469 114.976562 C 133.105469 128.3125 143.941406 139.148438 157.277344 139.148438 " fill-opacity="1" fill-rule="nonzero"/><path fill="#00f3f7" d="M 196.46875 138.277344 C 197.460938 138.867188 198.519531 139.148438 199.582031 139.148438 C 201.636719 139.148438 203.621094 138.109375 204.753906 136.222656 L 217.714844 114.644531 L 230.675781 136.222656 C 231.808594 138.109375 233.792969 139.148438 235.84375 139.148438 C 236.90625 139.148438 237.96875 138.867188 238.960938 138.277344 C 241.816406 136.574219 242.738281 132.871094 241.015625 129.988281 L 224.75 102.886719 L 241.015625 75.785156 C 242.738281 72.90625 241.816406 69.199219 238.960938 67.5 C 236.082031 65.777344 232.375 66.695312 230.675781 69.554688 L 217.714844 91.128906 L 204.753906 69.554688 C 203.054688 66.695312 199.347656 65.777344 196.46875 67.5 C 193.609375 69.199219 192.691406 72.90625 194.414062 75.785156 L 210.679688 102.886719 L 194.414062 129.988281 C 192.691406 132.871094 193.609375 136.574219 196.46875 138.277344 " fill-opacity="1" fill-rule="nonzero"/><path fill="#00f3f7" d="M 258.320312 157.515625 L 113.273438 199.820312 C 110.085938 200.765625 108.246094 204.117188 109.164062 207.328125 C 109.945312 209.972656 112.351562 211.671875 114.972656 211.671875 C 115.539062 211.671875 116.105469 211.601562 116.671875 211.4375 L 261.71875 169.132812 C 264.90625 168.1875 266.75 164.835938 265.828125 161.625 C 264.882812 158.4375 261.554688 156.570312 258.320312 157.515625 " fill-opacity="1" fill-rule="nonzero"/></svg>