<svg xmlns="http://www.w3.org/2000/svg" xmlns:xlink="http://www.w3.org/1999/xlink" width="500" zoomAndPan="magnify" viewBox="0 0 375 374.999991" height="500" preserveAspectRatio="xMidYMid meet" version="1.0"><defs><clipPath id="d300aae18c"><path d="M 4 15.839844 L 371 15.839844 L 371 359.339844 L 4 359.339844 Z M 4 15.839844 " clip-rule="nonzero"/></clipPath></defs><path fill="#00f3f7" d="M 221.519531 305.84375 C 221.816406 305.644531 222.410156 305.335938 223.15625 305.335938 C 223.648438 305.335938 224.203125 305.46875 224.789062 305.859375 C 231.953125 310.617188 236.359375 317.222656 237.882812 325.488281 C 237.917969 325.679688 237.941406 325.871094 237.953125 326.074219 C 238.113281 328.941406 237.609375 331.640625 236.714844 332.632812 C 236.550781 332.816406 236.355469 332.988281 235.777344 333.011719 C 235.417969 333.035156 234.972656 332.9375 234.476562 332.742188 C 231.984375 331.777344 223.585938 327.183594 220.234375 308.875 C 219.914062 307.113281 221.027344 306.167969 221.519531 305.84375 Z M 231.238281 341.089844 C 232.738281 341.671875 234.238281 341.96875 235.699219 341.96875 C 235.875 341.96875 236.046875 341.960938 236.226562 341.953125 C 239.070312 341.808594 241.539062 340.652344 243.375 338.609375 C 246.855469 334.734375 247.070312 328.769531 246.890625 325.578125 C 246.855469 324.996094 246.789062 324.417969 246.683594 323.863281 C 244.730469 313.277344 238.871094 304.46875 229.742188 298.40625 C 225.6875 295.714844 220.652344 295.699219 216.597656 298.371094 C 212.535156 301.050781 210.554688 305.691406 211.433594 310.484375 C 215.5 332.734375 226.632812 339.296875 231.238281 341.089844 " fill-opacity="1" fill-rule="nonzero"/><g clip-path="url(#d300aae18c)"><path fill="#00f3f7" d="M 362.003906 171.53125 L 338.414062 171.53125 L 338.414062 151.453125 L 362.003906 151.453125 Z M 228.558594 158.316406 C 245.78125 123.25 230.25 102.09375 229.582031 101.203125 C 228.632812 99.949219 227.09375 99.296875 225.539062 99.457031 C 223.980469 99.621094 222.621094 100.597656 221.957031 102.015625 L 189.636719 171.53125 L 175.699219 171.53125 L 175.699219 151.453125 L 188.929688 151.453125 C 191.402344 151.453125 193.402344 149.445312 193.402344 146.976562 C 193.402344 144.503906 191.402344 142.503906 188.929688 142.503906 L 110.617188 142.503906 L 110.617188 53.851562 L 199.292969 53.851562 L 199.292969 111.601562 C 199.292969 114.070312 201.296875 116.074219 203.769531 116.074219 C 206.238281 116.074219 208.242188 114.070312 208.242188 111.601562 L 208.242188 53.851562 L 296.917969 53.851562 L 296.917969 142.503906 L 246.207031 142.503906 C 243.734375 142.503906 241.734375 144.503906 241.734375 146.976562 C 241.734375 149.445312 243.734375 151.453125 246.207031 151.453125 L 264.375 151.453125 L 264.375 171.53125 L 221.710938 171.53125 Z M 205.386719 264.175781 C 211.476562 274.207031 219.390625 282.660156 228.894531 289.308594 C 236.597656 294.695312 242.785156 300.777344 247.285156 307.394531 C 252.632812 315.246094 254.855469 324.59375 253.542969 333.703125 C 252.566406 340.503906 249.789062 345.34375 245.296875 348.109375 C 242.003906 350.136719 237.800781 350.769531 233.472656 349.890625 C 214.371094 346.003906 208.722656 329.054688 207.1875 321.949219 C 206.324219 317.984375 205.34375 314.09375 204.261719 310.386719 C 197.429688 286.851562 182.957031 251.117188 182.34375 249.609375 C 181.207031 246.808594 181.152344 243.691406 182.191406 240.847656 L 186.214844 229.769531 L 205.296875 264.027344 C 205.324219 264.078125 205.355469 264.128906 205.386719 264.175781 Z M 161.816406 180.480469 L 180.21875 220.066406 L 176.296875 230.863281 L 150.171875 180.480469 Z M 12.988281 151.453125 L 36.578125 151.453125 L 36.578125 171.53125 L 12.988281 171.53125 Z M 12.988281 24.820312 L 36.578125 24.820312 L 36.578125 44.902344 L 12.988281 44.902344 Z M 362.003906 44.902344 L 338.414062 44.902344 L 338.414062 24.820312 L 362.003906 24.820312 Z M 305.867188 142.503906 L 305.867188 53.851562 L 362.003906 53.851562 L 362.003906 142.503906 Z M 305.867188 151.453125 L 329.464844 151.453125 L 329.464844 171.53125 L 305.867188 171.53125 Z M 305.867188 44.902344 L 305.867188 24.820312 L 329.464844 24.820312 L 329.464844 44.902344 Z M 273.324219 24.820312 L 296.917969 24.820312 L 296.917969 44.902344 L 273.324219 44.902344 Z M 175.699219 24.820312 L 199.292969 24.820312 L 199.292969 44.902344 L 175.699219 44.902344 Z M 78.070312 151.453125 L 101.667969 151.453125 L 101.667969 171.53125 L 78.070312 171.53125 Z M 69.121094 151.453125 L 69.121094 171.53125 L 45.527344 171.53125 L 45.527344 151.453125 Z M 69.121094 44.902344 L 45.527344 44.902344 L 45.527344 24.820312 L 69.121094 24.820312 Z M 101.667969 44.902344 L 78.070312 44.902344 L 78.070312 24.820312 L 101.667969 24.820312 Z M 12.988281 53.851562 L 101.667969 53.851562 L 101.667969 142.503906 L 12.988281 142.503906 Z M 134.207031 171.53125 L 110.617188 171.53125 L 110.617188 151.453125 L 134.207031 151.453125 Z M 178.582031 195.3125 L 171.683594 180.480469 L 185.476562 180.480469 Z M 188.59375 215.957031 C 188.382812 215.738281 188.15625 215.542969 187.90625 215.371094 L 183.515625 205.921875 L 226.015625 114.519531 C 228.355469 122.417969 229.535156 136.023438 220.570312 154.289062 Z M 166.75 151.453125 L 166.75 171.53125 L 143.15625 171.53125 L 143.15625 151.453125 Z M 110.617188 44.902344 L 110.617188 24.820312 L 134.207031 24.820312 L 134.207031 44.902344 Z M 143.15625 44.902344 L 143.15625 24.820312 L 166.75 24.820312 L 166.75 44.902344 Z M 208.242188 44.902344 L 208.242188 24.820312 L 231.835938 24.820312 L 231.835938 44.902344 Z M 240.785156 44.902344 L 240.785156 24.820312 L 264.375 24.820312 L 264.375 44.902344 Z M 296.917969 151.453125 L 296.917969 171.53125 L 273.324219 171.53125 L 273.324219 151.453125 Z M 366.480469 15.875 L 8.511719 15.875 C 6.042969 15.875 4.039062 17.878906 4.039062 20.347656 L 4.039062 176.003906 C 4.039062 178.472656 6.042969 180.480469 8.511719 180.480469 L 140.089844 180.480469 L 164.058594 226.691406 L 144.125 259.53125 C 138.683594 268.492188 131.621094 276.042969 123.140625 281.972656 C 114.542969 287.984375 107.589844 294.839844 102.476562 302.359375 C 95.871094 312.066406 93.132812 323.648438 94.757812 334.980469 C 96.46875 346.875 102.453125 352.832031 107.171875 355.730469 C 110.921875 358.039062 115.3125 359.226562 119.917969 359.226562 C 121.746094 359.226562 123.601562 359.039062 125.46875 358.660156 C 150.417969 353.589844 157.226562 330.726562 158.722656 323.847656 C 159.539062 320.082031 160.46875 316.394531 161.492188 312.882812 C 164.542969 302.375 168.457031 290.738281 173.121094 278.3125 C 173.121094 278.308594 173.121094 278.308594 173.121094 278.308594 L 173.625 276.964844 C 174.5 274.648438 173.332031 272.070312 171.019531 271.195312 C 168.707031 270.320312 166.125 271.492188 165.253906 273.804688 L 164.742188 275.164062 C 164.738281 275.164062 164.738281 275.171875 164.734375 275.175781 C 159.996094 287.8125 156.011719 299.660156 152.898438 310.386719 C 151.816406 314.09375 150.839844 317.984375 149.976562 321.949219 C 148.433594 329.054688 142.789062 346.003906 123.683594 349.890625 C 119.359375 350.769531 115.160156 350.136719 111.859375 348.105469 C 107.367188 345.34375 104.59375 340.503906 103.621094 333.703125 C 102.304688 324.59375 104.527344 315.246094 109.871094 307.394531 C 114.378906 300.777344 120.566406 294.691406 128.269531 289.308594 C 137.773438 282.660156 145.683594 274.207031 151.777344 264.171875 L 168.875 235.992188 L 172.59375 243.164062 C 172.296875 246.476562 172.777344 249.835938 174.050781 252.96875 C 174.65625 254.464844 188.960938 289.785156 195.671875 312.882812 C 196.691406 316.394531 197.621094 320.082031 198.4375 323.847656 C 199.933594 330.726562 206.742188 353.589844 231.691406 358.660156 C 233.558594 359.039062 235.417969 359.226562 237.246094 359.226562 C 241.847656 359.226562 246.242188 358.039062 249.988281 355.730469 C 254.707031 352.832031 260.691406 346.875 262.402344 334.980469 C 264.03125 323.648438 261.292969 312.066406 254.683594 302.359375 C 249.570312 294.84375 242.621094 287.984375 234.019531 281.972656 C 225.5625 276.058594 218.515625 268.535156 213.078125 259.597656 L 193.898438 225.167969 L 217.070312 180.480469 L 366.480469 180.480469 C 368.953125 180.480469 370.953125 178.472656 370.953125 176.003906 L 370.953125 20.347656 C 370.953125 17.878906 368.953125 15.875 366.480469 15.875 " fill-opacity="1" fill-rule="nonzero"/></g><path fill="#00f3f7" d="M 136.925781 308.875 C 133.578125 327.183594 125.179688 331.777344 122.6875 332.742188 C 122.1875 332.9375 121.75 333.035156 121.382812 333.011719 C 120.808594 332.988281 120.609375 332.816406 120.441406 332.628906 C 119.554688 331.640625 119.042969 328.941406 119.207031 326.074219 C 119.21875 325.878906 119.242188 325.679688 119.277344 325.488281 C 120.800781 317.222656 125.207031 310.617188 132.371094 305.859375 C 133.855469 304.878906 135.152344 305.523438 135.640625 305.84375 C 136.132812 306.167969 137.246094 307.113281 136.925781 308.875 Z M 127.421875 298.40625 C 118.289062 304.46875 112.429688 313.277344 110.476562 323.863281 C 110.375 324.40625 110.304688 324.976562 110.273438 325.5625 C 110.089844 328.769531 110.304688 334.734375 113.785156 338.609375 C 115.617188 340.652344 118.09375 341.808594 120.933594 341.953125 C 120.933594 341.953125 120.9375 341.953125 120.9375 341.953125 C 121.113281 341.960938 121.285156 341.96875 121.464844 341.96875 C 122.921875 341.96875 124.417969 341.671875 125.929688 341.085938 C 130.527344 339.296875 141.65625 332.734375 145.726562 310.484375 C 146.605469 305.691406 144.625 301.050781 140.566406 298.371094 C 136.511719 295.699219 131.472656 295.714844 127.421875 298.40625 " fill-opacity="1" fill-rule="nonzero"/></svg>