<svg xmlns="http://www.w3.org/2000/svg" xmlns:xlink="http://www.w3.org/1999/xlink" width="500" zoomAndPan="magnify" viewBox="0 0 375 374.999991" height="500" preserveAspectRatio="xMidYMid meet" version="1.0"><defs><clipPath id="d080fbbbb2"><path d="M 24.183594 32 L 351 32 L 351 366 L 24.183594 366 Z M 24.183594 32 " clip-rule="nonzero"/></clipPath><clipPath id="c58c825741"><path d="M 185 7.539062 L 190 7.539062 L 190 26 L 185 26 Z M 185 7.539062 " clip-rule="nonzero"/></clipPath></defs><path fill="#00f3f7" d="M 132.074219 333.449219 L 180.871094 333.449219 C 181.976562 333.449219 182.859375 332.566406 182.859375 331.464844 C 182.859375 330.359375 181.976562 329.476562 180.871094 329.476562 L 132.074219 329.476562 C 130.96875 329.476562 130.085938 330.359375 130.085938 331.464844 C 129.867188 332.566406 130.96875 333.449219 132.074219 333.449219 Z M 132.074219 333.449219 " fill-opacity="1" fill-rule="nonzero"/><path fill="#00f3f7" d="M 188.601562 333.449219 L 196.550781 333.449219 C 197.652344 333.449219 198.539062 332.566406 198.539062 331.464844 C 198.539062 330.359375 197.652344 329.476562 196.550781 329.476562 L 188.601562 329.476562 C 187.496094 329.476562 186.613281 330.359375 186.613281 331.464844 C 186.613281 332.566406 187.496094 333.449219 188.601562 333.449219 Z M 188.601562 333.449219 " fill-opacity="1" fill-rule="nonzero"/><path fill="#00f3f7" d="M 203.617188 333.449219 L 208.914062 333.449219 C 210.019531 333.449219 210.902344 332.566406 210.902344 331.464844 C 210.902344 330.359375 210.019531 329.476562 208.914062 329.476562 L 203.617188 329.476562 C 202.511719 329.476562 201.628906 330.359375 201.628906 331.464844 C 201.628906 332.566406 202.511719 333.449219 203.617188 333.449219 Z M 203.617188 333.449219 " fill-opacity="1" fill-rule="nonzero"/><path fill="#00f3f7" d="M 192.132812 341.179688 C 192.132812 342.285156 193.015625 343.167969 194.121094 343.167969 C 241.375 342.285156 244.90625 344.933594 244.90625 341.179688 C 244.90625 340.074219 244.023438 339.191406 242.917969 339.191406 L 194.121094 339.191406 C 193.015625 339.191406 192.132812 340.074219 192.132812 341.179688 Z M 192.132812 341.179688 " fill-opacity="1" fill-rule="nonzero"/><path fill="#00f3f7" d="M 176.234375 341.179688 C 176.234375 342.285156 177.117188 343.167969 178.222656 343.167969 L 186.171875 343.167969 C 187.277344 343.167969 188.160156 342.285156 188.160156 341.179688 C 188.160156 340.074219 187.277344 339.191406 186.171875 339.191406 L 178.222656 339.191406 C 177.117188 339.191406 176.234375 340.074219 176.234375 341.179688 Z M 176.234375 341.179688 " fill-opacity="1" fill-rule="nonzero"/><path fill="#00f3f7" d="M 171.378906 339.191406 L 166.078125 339.191406 C 164.972656 339.191406 164.089844 340.074219 164.089844 341.179688 C 164.089844 342.285156 164.972656 343.167969 166.078125 343.167969 L 171.378906 343.167969 C 172.480469 343.167969 173.363281 342.285156 173.363281 341.179688 C 173.363281 340.074219 172.480469 339.191406 171.378906 339.191406 Z M 171.378906 339.191406 " fill-opacity="1" fill-rule="nonzero"/><g clip-path="url(#d080fbbbb2)"><path fill="#00f3f7" d="M 325.058594 289.730469 C 341.84375 263.453125 350.675781 233.203125 350.675781 201.847656 C 350.675781 144.878906 320.644531 91.664062 271.84375 62.078125 L 274.273438 60.753906 C 275.15625 60.089844 275.597656 58.984375 274.9375 58.101562 C 274.273438 57.21875 273.171875 56.777344 272.289062 57.441406 L 267.871094 59.871094 C 261.46875 56.335938 255.0625 53.023438 248.21875 50.375 C 248.441406 50.375 248.660156 50.152344 248.882812 49.933594 L 253.960938 44.855469 C 254.84375 43.972656 254.84375 42.867188 253.960938 41.984375 C 253.078125 41.101562 251.972656 41.101562 251.089844 41.984375 L 246.011719 47.0625 C 245.347656 47.726562 245.347656 48.609375 245.570312 49.269531 C 239.609375 47.0625 233.425781 45.074219 227.242188 43.53125 C 217.085938 37.347656 205.382812 33.371094 192.796875 32.488281 C 176.457031 31.386719 160.777344 35.359375 147.308594 43.53125 C 141.125 45.074219 135.164062 47.0625 129.203125 49.269531 C 129.644531 48.609375 129.425781 47.726562 128.761719 47.0625 L 123.683594 41.984375 C 122.800781 41.101562 121.695312 41.101562 120.8125 41.984375 C 119.929688 42.867188 119.929688 43.972656 120.8125 44.855469 L 125.890625 49.933594 C 126.113281 50.152344 126.332031 50.152344 126.554688 50.375 C 119.929688 53.023438 113.304688 56.335938 106.902344 59.871094 L 102.484375 57.441406 C 101.601562 56.777344 100.277344 57.21875 99.835938 58.101562 C 99.171875 58.984375 99.613281 60.3125 100.5 60.753906 L 102.925781 62.078125 C 54.347656 91.664062 24.320312 144.878906 24.320312 201.847656 C 24.320312 227.90625 30.722656 253.738281 42.644531 276.925781 C 38.671875 277.585938 35.582031 281.121094 35.582031 285.316406 C 35.582031 289.953125 39.335938 293.707031 43.972656 293.707031 L 52.582031 293.707031 C 81.949219 336.761719 128.097656 362.820312 179.769531 365.027344 C 231.660156 367.457031 280.234375 345.816406 313.359375 305.628906 L 324.839844 305.628906 C 329.253906 305.628906 332.789062 302.097656 332.789062 297.679688 C 333.007812 293.265625 329.476562 289.730469 325.058594 289.730469 Z M 192.796875 36.464844 C 204.5 37.347656 215.539062 41.101562 225.253906 46.839844 C 225.476562 47.0625 225.695312 47.0625 225.917969 47.285156 C 245.128906 59.207031 258.375 80.183594 259.921875 104.03125 C 261.246094 124.566406 254.179688 143.996094 239.828125 158.792969 C 225.035156 174.027344 216.863281 193.898438 216.421875 215.539062 L 158.570312 215.539062 C 158.128906 194.339844 149.738281 174.027344 134.945312 158.570312 C 122.136719 145.101562 115.070312 127.4375 115.070312 108.890625 C 115.070312 88.796875 123.460938 69.585938 138.035156 55.894531 C 141.570312 52.582031 145.320312 49.710938 149.296875 47.285156 C 149.296875 47.285156 149.296875 47.285156 149.519531 47.285156 C 162.324219 39.113281 177.339844 35.359375 192.796875 36.464844 Z M 222.164062 227.683594 L 152.828125 227.683594 L 152.828125 222.824219 C 152.828125 221.058594 154.15625 219.734375 155.921875 219.734375 C 215.320312 219.734375 104.695312 219.734375 219.292969 219.734375 C 221.058594 219.734375 222.382812 221.058594 222.382812 222.824219 L 222.382812 227.683594 Z M 177.117188 267.207031 C 175.351562 267.207031 174.027344 265.882812 174.027344 264.117188 L 174.027344 258.816406 L 200.964844 258.816406 L 200.964844 264.117188 C 200.964844 265.882812 199.640625 267.207031 197.875 267.207031 Z M 155.921875 254.621094 C 154.15625 254.621094 152.828125 253.296875 152.828125 251.53125 L 152.828125 246.671875 L 222.382812 246.671875 L 222.382812 251.53125 C 222.382812 253.296875 221.058594 254.621094 219.292969 254.621094 C 206.042969 254.621094 168.507812 254.621094 155.921875 254.621094 Z M 152.828125 242.699219 L 152.828125 231.660156 L 222.382812 231.660156 L 222.382812 242.699219 Z M 107.121094 64.507812 L 113.085938 67.820312 C 113.96875 68.480469 115.292969 68.039062 115.734375 67.15625 C 116.394531 66.273438 115.953125 64.949219 115.070312 64.507812 L 111.316406 62.296875 C 119.929688 57.660156 128.761719 53.6875 138.035156 50.59375 C 137.152344 51.257812 136.269531 52.140625 135.386719 52.804688 C 119.929688 67.15625 111.097656 87.46875 111.097656 108.667969 C 111.097656 128.320312 118.605469 147.089844 132.074219 161.21875 C 146.207031 176.015625 154.15625 195.226562 154.597656 215.539062 C 151.285156 216.203125 148.855469 219.074219 148.855469 222.605469 L 148.855469 227.464844 L 147.75 227.464844 C 146.648438 227.464844 145.765625 228.347656 145.765625 229.449219 C 145.765625 230.554688 146.648438 231.4375 147.75 231.4375 L 148.855469 231.4375 L 148.855469 242.476562 L 147.75 242.476562 C 146.648438 242.476562 145.765625 243.359375 145.765625 244.464844 C 145.765625 245.570312 146.648438 246.453125 147.75 246.453125 L 148.855469 246.453125 L 148.855469 251.308594 C 148.855469 255.285156 152.167969 258.375 155.921875 258.375 L 170.054688 258.375 L 170.054688 263.675781 C 170.054688 267.648438 173.363281 270.742188 177.117188 270.742188 L 185.507812 270.742188 L 185.507812 271.84375 C 185.507812 274.273438 183.523438 276.261719 181.09375 276.261719 L 47.0625 276.261719 C 34.917969 253.296875 28.292969 227.464844 28.292969 201.40625 C 28.292969 145.542969 58.542969 92.992188 107.121094 64.507812 Z M 39.554688 285.316406 C 39.554688 282.886719 41.542969 280.898438 43.972656 280.898438 L 181.09375 280.898438 C 185.730469 280.898438 189.484375 277.144531 189.484375 272.507812 L 189.484375 271.402344 L 197.875 271.402344 C 201.847656 271.402344 204.941406 268.089844 204.941406 264.339844 L 204.941406 259.039062 L 219.074219 259.039062 C 223.046875 259.039062 226.136719 255.726562 226.136719 251.972656 L 226.136719 247.113281 L 227.242188 247.113281 C 228.347656 247.113281 229.230469 246.230469 229.230469 245.128906 C 229.230469 244.023438 228.347656 243.140625 227.242188 243.140625 L 226.136719 243.140625 L 226.136719 232.101562 L 227.242188 232.101562 C 228.347656 232.101562 229.230469 231.214844 229.230469 230.113281 C 229.230469 229.007812 228.347656 228.125 227.242188 228.125 L 226.136719 228.125 L 226.136719 223.269531 C 226.136719 219.734375 223.710938 216.863281 220.398438 216.203125 C 220.839844 195.667969 228.566406 176.457031 242.476562 162.324219 C 257.492188 146.648438 265 126.113281 263.675781 104.472656 C 262.351562 83.273438 252.195312 64.285156 236.957031 51.257812 C 246.230469 54.347656 255.285156 58.101562 263.894531 62.960938 L 260.144531 65.167969 C 259.257812 65.832031 258.816406 66.933594 259.480469 67.820312 C 260.144531 68.703125 261.246094 69.144531 262.128906 68.480469 L 268.09375 65.167969 C 316.667969 93.652344 346.921875 146.207031 346.921875 202.511719 C 346.921875 233.867188 337.867188 264.117188 320.644531 290.394531 L 43.972656 290.394531 C 41.542969 289.730469 39.554688 287.742188 39.554688 285.316406 Z M 295.03125 319.097656 C 263.234375 348.246094 222.824219 363.039062 179.988281 361.050781 C 141.347656 359.285156 106.902344 343.828125 80.183594 319.097656 Z M 299.445312 315.125 L 189.484375 315.125 L 189.484375 309.605469 C 189.484375 307.394531 191.25 305.628906 193.457031 305.628906 L 308.058594 305.628906 C 305.410156 308.941406 302.316406 312.03125 299.445312 315.125 Z M 324.839844 301.65625 L 193.457031 301.65625 C 189.042969 301.65625 185.507812 305.1875 185.507812 309.605469 L 185.507812 315.125 L 75.546875 315.125 C 68.921875 308.5 62.960938 301.433594 57.441406 293.707031 L 324.839844 293.707031 C 327.046875 293.707031 328.8125 295.472656 328.8125 297.679688 C 328.8125 299.886719 327.046875 301.65625 324.839844 301.65625 Z M 324.839844 301.65625 " fill-opacity="1" fill-rule="nonzero"/></g><path fill="#00f3f7" d="M 136.710938 71.570312 C 136.046875 72.234375 135.828125 73.117188 136.488281 74 L 144.21875 87.46875 C 143.335938 89.238281 142.671875 90.78125 142.011719 92.769531 L 126.996094 96.964844 C 126.113281 97.1875 125.449219 98.070312 125.449219 98.953125 L 125.449219 118.382812 C 125.449219 119.265625 126.113281 120.148438 126.996094 120.371094 L 142.011719 124.566406 C 142.671875 126.332031 143.335938 128.097656 144.21875 129.867188 L 136.488281 143.554688 C 136.046875 144.4375 136.269531 145.320312 136.710938 145.984375 L 150.402344 159.675781 C 151.0625 160.335938 151.945312 160.558594 152.828125 159.894531 L 166.300781 152.167969 C 168.066406 153.050781 169.609375 153.714844 171.597656 154.375 L 175.792969 169.390625 C 176.015625 170.273438 176.898438 170.9375 177.78125 170.9375 L 197.210938 170.9375 C 198.09375 170.9375 198.980469 170.273438 199.199219 169.390625 L 203.394531 154.375 C 205.160156 153.714844 206.929688 153.050781 208.695312 152.167969 L 222.164062 159.894531 C 223.046875 160.335938 223.929688 160.117188 224.59375 159.675781 L 238.28125 145.984375 C 238.945312 145.320312 239.164062 144.4375 238.503906 143.554688 L 230.773438 129.867188 C 231.660156 128.097656 232.320312 126.554688 232.984375 124.566406 L 248 120.371094 C 248.882812 120.148438 249.542969 119.265625 249.542969 118.382812 L 249.542969 98.953125 C 249.542969 98.070312 248.882812 97.1875 248 96.964844 L 232.984375 92.769531 C 232.320312 91.003906 231.660156 89.238281 230.773438 87.46875 L 238.503906 73.78125 C 238.945312 72.898438 238.722656 72.015625 238.28125 71.351562 L 224.59375 57.660156 C 223.929688 57 223.046875 56.777344 222.164062 57.441406 L 208.695312 65.167969 C 207.148438 64.285156 205.382812 63.625 203.394531 62.960938 L 199.199219 47.945312 C 198.980469 47.0625 198.09375 46.398438 197.210938 46.398438 L 177.78125 46.398438 C 176.898438 46.398438 176.015625 47.0625 175.792969 47.945312 L 171.597656 62.960938 C 169.832031 63.625 168.066406 64.285156 166.300781 65.167969 L 152.828125 57.441406 C 151.945312 57 151.0625 57.21875 150.402344 57.660156 Z M 152.167969 61.855469 L 165.414062 69.363281 C 166.078125 69.804688 166.742188 69.804688 167.402344 69.363281 C 169.390625 68.261719 171.597656 67.375 174.027344 66.714844 C 174.691406 66.492188 175.132812 66.050781 175.351562 65.390625 L 179.328125 50.816406 L 195.667969 50.816406 L 199.640625 65.390625 C 199.863281 66.050781 200.304688 66.492188 200.964844 66.714844 C 203.394531 67.375 205.601562 68.480469 207.589844 69.585938 C 208.253906 69.804688 208.914062 69.804688 209.578125 69.585938 L 222.824219 62.078125 L 234.308594 73.558594 L 226.800781 86.808594 C 226.359375 87.46875 226.359375 88.132812 226.800781 88.796875 C 227.90625 90.78125 228.789062 92.992188 229.449219 95.417969 C 229.671875 96.082031 230.113281 96.523438 230.773438 96.746094 L 245.347656 100.71875 L 245.347656 117.058594 L 230.773438 121.035156 C 230.113281 121.253906 229.671875 121.695312 229.449219 122.359375 C 228.789062 124.785156 227.683594 126.996094 226.800781 128.980469 C 226.578125 129.644531 226.578125 130.308594 226.800781 130.96875 L 234.308594 144.21875 L 222.824219 155.480469 L 209.578125 147.972656 C 208.914062 147.53125 208.253906 147.53125 207.589844 147.972656 C 205.601562 149.074219 203.175781 149.960938 200.964844 150.621094 C 200.304688 150.84375 199.863281 151.285156 199.640625 151.945312 L 195.667969 166.519531 L 179.328125 166.519531 L 175.351562 151.945312 C 175.132812 151.285156 174.691406 150.84375 174.027344 150.621094 C 171.820312 149.960938 169.609375 149.074219 167.402344 147.972656 C 166.742188 147.75 166.078125 147.75 165.414062 147.972656 L 152.167969 155.480469 L 140.683594 143.996094 L 148.191406 130.75 C 148.632812 130.085938 148.632812 129.425781 148.191406 128.761719 C 147.089844 126.773438 146.207031 124.566406 145.542969 122.136719 C 145.320312 121.476562 144.878906 121.035156 144.21875 120.8125 L 129.644531 116.839844 L 129.644531 100.5 L 144.21875 96.523438 C 144.878906 96.304688 145.320312 95.859375 145.542969 95.199219 C 146.207031 92.992188 147.308594 90.5625 148.191406 88.574219 C 148.414062 87.910156 148.414062 87.25 148.191406 86.585938 L 140.683594 73.339844 Z M 152.167969 61.855469 " fill-opacity="1" fill-rule="nonzero"/><path fill="#00f3f7" d="M 187.496094 134.0625 C 201.628906 134.0625 212.890625 122.578125 212.890625 108.667969 C 212.890625 94.535156 201.40625 83.273438 187.496094 83.273438 C 173.363281 83.273438 162.105469 94.757812 162.105469 108.667969 C 162.105469 122.578125 173.363281 134.0625 187.496094 134.0625 Z M 187.496094 87.25 C 199.421875 87.25 208.914062 96.746094 208.914062 108.667969 C 208.914062 120.589844 199.199219 130.085938 187.496094 130.085938 C 175.574219 130.085938 166.078125 120.371094 166.078125 108.667969 C 166.078125 96.746094 175.574219 87.25 187.496094 87.25 Z M 187.496094 87.25 " fill-opacity="1" fill-rule="nonzero"/><path fill="#00f3f7" d="M 187.496094 143.113281 C 206.484375 143.113281 221.941406 127.65625 221.941406 108.667969 C 221.941406 89.679688 206.484375 74.222656 187.496094 74.222656 C 168.507812 74.222656 153.050781 89.679688 153.050781 108.667969 C 153.050781 127.65625 168.507812 143.113281 187.496094 143.113281 Z M 187.496094 78.195312 C 204.277344 78.195312 217.96875 91.886719 217.96875 108.667969 C 217.96875 125.449219 204.277344 139.140625 187.496094 139.140625 C 170.714844 139.140625 157.023438 125.449219 157.023438 108.667969 C 157.023438 91.886719 170.714844 78.195312 187.496094 78.195312 Z M 187.496094 78.195312 " fill-opacity="1" fill-rule="nonzero"/><g clip-path="url(#c58c825741)"><path fill="#00f3f7" d="M 187.496094 25.644531 C 188.601562 25.644531 189.484375 24.761719 189.484375 23.65625 L 189.484375 9.523438 C 189.484375 8.421875 188.601562 7.539062 187.496094 7.539062 C 186.394531 7.539062 185.507812 8.421875 185.507812 9.523438 L 185.507812 23.65625 C 185.507812 24.761719 186.394531 25.644531 187.496094 25.644531 Z M 187.496094 25.644531 " fill-opacity="1" fill-rule="nonzero"/></g><path fill="#00f3f7" d="M 208.914062 28.515625 C 210.019531 28.734375 211.125 28.074219 211.34375 27.191406 L 213.109375 20.34375 C 213.332031 19.242188 212.667969 18.136719 211.785156 17.914062 C 210.679688 17.695312 209.578125 18.355469 209.355469 19.242188 L 207.589844 26.085938 C 207.148438 27.191406 207.8125 28.292969 208.914062 28.515625 Z M 208.914062 28.515625 " fill-opacity="1" fill-rule="nonzero"/><path fill="#00f3f7" d="M 270.078125 88.574219 L 276.925781 86.808594 C 278.027344 86.585938 278.691406 85.484375 278.25 84.378906 C 278.027344 83.273438 276.925781 82.613281 275.820312 83.054688 L 268.976562 84.820312 C 267.871094 85.042969 267.207031 86.144531 267.648438 87.25 C 267.871094 88.132812 268.976562 88.796875 270.078125 88.574219 Z M 270.078125 88.574219 " fill-opacity="1" fill-rule="nonzero"/><path fill="#00f3f7" d="M 276.925781 130.527344 L 270.078125 128.761719 C 268.976562 128.539062 267.871094 129.203125 267.648438 130.085938 C 267.429688 131.191406 268.09375 132.292969 268.976562 132.515625 L 275.820312 134.28125 C 276.925781 134.503906 278.027344 133.839844 278.25 132.957031 C 278.46875 131.851562 278.027344 130.75 276.925781 130.527344 Z M 276.925781 130.527344 " fill-opacity="1" fill-rule="nonzero"/><path fill="#00f3f7" d="M 163.648438 27.191406 C 163.871094 28.292969 164.972656 28.957031 166.078125 28.515625 C 167.183594 28.292969 167.84375 27.191406 167.402344 26.085938 L 165.636719 19.242188 C 165.414062 18.136719 164.3125 17.472656 163.207031 17.695312 C 162.105469 17.914062 161.441406 19.019531 161.882812 20.125 Z M 163.648438 27.191406 " fill-opacity="1" fill-rule="nonzero"/><path fill="#00f3f7" d="M 98.070312 86.808594 L 104.914062 88.574219 C 106.019531 88.796875 107.121094 88.132812 107.34375 87.25 C 107.5625 86.144531 106.902344 85.042969 106.019531 84.820312 L 99.171875 82.832031 C 98.070312 82.613281 96.964844 83.273438 96.746094 84.160156 C 96.523438 85.261719 96.964844 86.367188 98.070312 86.808594 Z M 98.070312 86.808594 " fill-opacity="1" fill-rule="nonzero"/><path fill="#00f3f7" d="M 107.34375 130.085938 C 107.121094 128.980469 106.019531 128.320312 104.914062 128.761719 L 98.070312 130.527344 C 96.964844 130.75 96.304688 131.851562 96.746094 132.957031 C 96.964844 134.0625 98.070312 134.722656 99.171875 134.28125 L 106.019531 132.515625 C 107.121094 132.292969 107.785156 131.191406 107.34375 130.085938 Z M 107.34375 130.085938 " fill-opacity="1" fill-rule="nonzero"/><path fill="#00f3f7" d="M 274.273438 156.363281 L 262.128906 149.296875 C 261.246094 148.632812 259.921875 149.074219 259.480469 149.960938 C 258.816406 150.84375 259.257812 152.167969 260.144531 152.609375 L 272.289062 159.675781 C 273.171875 160.335938 274.496094 159.894531 274.9375 159.011719 C 275.597656 158.128906 275.15625 156.804688 274.273438 156.363281 Z M 274.273438 156.363281 " fill-opacity="1" fill-rule="nonzero"/><path fill="#00f3f7" d="M 100.054688 159.011719 C 100.71875 159.894531 101.824219 160.335938 102.707031 159.675781 L 114.851562 152.609375 C 115.734375 151.945312 116.175781 150.84375 115.511719 149.960938 C 114.851562 149.074219 113.746094 148.632812 112.863281 149.296875 L 100.71875 156.363281 C 99.835938 156.804688 99.394531 158.128906 100.054688 159.011719 Z M 100.054688 159.011719 " fill-opacity="1" fill-rule="nonzero"/><path fill="#00f3f7" d="M 88.574219 110.65625 L 102.707031 110.65625 C 103.808594 110.65625 104.695312 109.773438 104.695312 108.667969 C 104.695312 107.5625 103.808594 106.679688 102.707031 106.679688 L 88.574219 106.679688 C 87.46875 106.679688 86.585938 107.5625 86.585938 108.667969 C 86.367188 109.773438 87.25 110.65625 88.574219 110.65625 Z M 88.574219 110.65625 " fill-opacity="1" fill-rule="nonzero"/><path fill="#00f3f7" d="M 143.335938 36.023438 C 143.996094 36.90625 145.101562 37.347656 145.984375 36.683594 C 146.867188 36.023438 147.308594 34.917969 146.648438 34.035156 L 139.582031 21.890625 C 138.917969 21.007812 137.816406 20.566406 136.929688 21.226562 C 136.046875 21.890625 135.605469 22.996094 136.269531 23.878906 Z M 143.335938 36.023438 " fill-opacity="1" fill-rule="nonzero"/><path fill="#00f3f7" d="M 229.007812 36.683594 C 229.890625 37.347656 231.214844 36.90625 231.660156 36.023438 L 238.722656 23.878906 C 239.386719 22.996094 238.945312 21.667969 238.0625 21.226562 C 237.179688 20.566406 235.855469 21.007812 235.414062 21.890625 L 228.347656 34.035156 C 227.683594 34.917969 227.90625 36.242188 229.007812 36.683594 Z M 229.007812 36.683594 " fill-opacity="1" fill-rule="nonzero"/><path fill="#00f3f7" d="M 286.417969 106.460938 L 272.289062 106.460938 C 271.183594 106.460938 270.300781 107.34375 270.300781 108.445312 C 270.300781 109.550781 271.183594 110.433594 272.289062 110.433594 L 286.417969 110.433594 C 287.523438 110.433594 288.40625 109.550781 288.40625 108.445312 C 288.628906 107.5625 287.523438 106.460938 286.417969 106.460938 Z M 286.417969 106.460938 " fill-opacity="1" fill-rule="nonzero"/></svg>