<svg xmlns="http://www.w3.org/2000/svg" xmlns:xlink="http://www.w3.org/1999/xlink" width="500" zoomAndPan="magnify" viewBox="0 0 375 374.999991" height="500" preserveAspectRatio="xMidYMid meet" version="1.0"><defs><clipPath id="6493442aa7"><path d="M 6.632812 45 L 368.132812 45 L 368.132812 329.839844 L 6.632812 329.839844 Z M 6.632812 45 " clip-rule="nonzero"/></clipPath></defs><g clip-path="url(#6493442aa7)"><path fill="#00f3f7" d="M 364.980469 45.851562 C 363.003906 45.003906 360.464844 45.289062 358.773438 46.980469 C 316.449219 85.917969 257.476562 99.746094 223.050781 104.542969 C 221.640625 88.742188 205.558594 76.324219 186.089844 76.324219 L 41.339844 76.324219 C 22.152344 76.042969 6.632812 89.871094 6.632812 106.800781 L 6.632812 197.65625 C 6.632812 210.917969 15.941406 222.203125 29.203125 226.4375 L 29.203125 300.644531 C 29.203125 316.730469 42.464844 329.992188 58.550781 329.992188 L 61.9375 329.992188 C 78.019531 329.992188 91.28125 316.730469 91.28125 300.644531 L 91.28125 228.414062 L 186.089844 228.414062 C 205.558594 228.414062 221.359375 215.996094 223.050781 200.195312 C 257.476562 204.992188 316.449219 218.535156 358.773438 257.757812 C 359.902344 258.605469 361.3125 259.167969 362.722656 259.167969 C 363.570312 259.167969 364.132812 258.886719 364.980469 258.605469 C 366.957031 257.757812 368.367188 255.78125 368.367188 253.523438 L 368.367188 50.929688 C 368.367188 48.671875 366.957031 46.699219 364.980469 45.851562 Z M 79.996094 300.644531 C 79.996094 310.523438 71.8125 318.703125 61.9375 318.703125 L 58.550781 318.703125 C 48.675781 318.703125 40.492188 310.523438 40.492188 300.644531 L 40.492188 228.414062 L 54.601562 228.414062 L 54.601562 262.273438 C 54.601562 265.375 57.140625 267.914062 60.242188 267.914062 C 63.347656 267.914062 65.886719 265.375 65.886719 262.273438 L 65.886719 228.414062 L 79.996094 228.414062 Z M 212.046875 197.65625 C 212.046875 208.378906 200.480469 217.125 186.371094 217.125 L 41.339844 217.125 C 28.359375 217.125 17.917969 208.378906 17.917969 197.65625 L 17.917969 106.800781 C 17.917969 96.078125 28.359375 87.332031 41.339844 87.332031 L 186.089844 87.332031 C 200.195312 87.332031 211.765625 96.078125 211.765625 106.800781 L 211.765625 197.65625 Z M 334.507812 225.589844 C 295.003906 201.890625 250.984375 192.578125 223.332031 188.910156 L 223.332031 115.828125 C 250.984375 112.160156 295.003906 102.847656 334.507812 79.148438 Z M 357.078125 241.390625 C 353.410156 238.289062 349.742188 235.75 345.792969 232.925781 L 345.792969 71.8125 C 349.742188 69.273438 353.410156 66.449219 357.078125 63.347656 Z M 357.078125 241.390625 " fill-opacity="1" fill-rule="nonzero"/></g><path fill="#00f3f7" d="M 181.007812 95.796875 L 46.699219 95.796875 C 37.105469 95.796875 29.203125 103.695312 29.203125 113.289062 L 29.203125 191.449219 C 29.203125 201.042969 37.105469 208.941406 46.699219 208.941406 L 181.292969 208.941406 C 190.886719 208.941406 198.785156 201.042969 198.785156 191.449219 L 198.785156 113.289062 C 198.503906 103.695312 190.601562 95.796875 181.007812 95.796875 Z M 187.21875 191.167969 C 187.21875 194.550781 184.394531 197.375 181.007812 197.375 L 46.699219 197.375 C 43.3125 197.375 40.492188 194.550781 40.492188 191.167969 L 40.492188 113.289062 C 40.492188 109.902344 43.3125 107.082031 46.699219 107.082031 L 181.292969 107.082031 C 184.675781 107.082031 187.5 109.902344 187.5 113.289062 L 187.5 191.167969 Z M 187.21875 191.167969 " fill-opacity="1" fill-rule="nonzero"/><path fill="#00f3f7" d="M 138.683594 147.996094 L 94.386719 122.601562 C 92.691406 121.472656 90.433594 121.472656 88.742188 122.601562 C 87.046875 123.730469 85.917969 125.421875 85.917969 127.398438 L 85.917969 178.46875 C 85.917969 180.445312 87.046875 182.417969 88.742188 183.265625 C 89.589844 183.832031 90.714844 184.113281 91.5625 184.113281 C 92.410156 184.113281 93.539062 183.832031 94.386719 183.265625 L 138.683594 157.871094 C 140.378906 156.742188 141.507812 155.050781 141.507812 153.074219 C 141.507812 151.097656 140.378906 149.125 138.683594 147.996094 Z M 97.207031 168.59375 L 97.207031 137.273438 L 124.578125 153.074219 Z M 97.207031 168.59375 " fill-opacity="1" fill-rule="nonzero"/><path fill="#00f3f7" d="M 240.546875 175.929688 C 243.648438 175.929688 246.1875 173.390625 246.1875 170.285156 L 246.1875 135.582031 C 246.1875 132.476562 243.648438 129.9375 240.546875 129.9375 C 237.441406 129.9375 234.902344 132.476562 234.902344 135.582031 L 234.902344 170.285156 C 234.902344 173.390625 237.441406 175.929688 240.546875 175.929688 Z M 240.546875 175.929688 " fill-opacity="1" fill-rule="nonzero"/><path fill="#00f3f7" d="M 263.117188 178.46875 C 266.222656 178.46875 268.761719 175.929688 268.761719 172.824219 L 268.761719 133.039062 C 268.761719 129.9375 266.222656 127.398438 263.117188 127.398438 C 260.015625 127.398438 257.476562 129.9375 257.476562 133.039062 L 257.476562 172.824219 C 257.476562 175.929688 260.015625 178.46875 263.117188 178.46875 Z M 263.117188 178.46875 " fill-opacity="1" fill-rule="nonzero"/></svg>