<svg xmlns="http://www.w3.org/2000/svg" xmlns:xlink="http://www.w3.org/1999/xlink" width="500" zoomAndPan="magnify" viewBox="0 0 375 374.999991" height="500" preserveAspectRatio="xMidYMid meet" version="1.0"><defs><clipPath id="fade11272d"><path d="M 50.574219 4.394531 L 324.324219 4.394531 L 324.324219 370.320312 L 50.574219 370.320312 Z M 50.574219 4.394531 " clip-rule="nonzero"/></clipPath></defs><path fill="#00f3f7" d="M 155.144531 252.582031 L 136.679688 288.644531 L 238.34375 288.644531 L 219.878906 252.582031 L 155.144531 252.582031 " fill-opacity="1" fill-rule="nonzero"/><path fill="#00f3f7" d="M 173.3125 136.9375 C 168.46875 134.929688 162.898438 136.042969 159.191406 139.746094 C 155.484375 143.449219 154.378906 149.023438 156.382812 153.863281 C 158.390625 158.707031 163.113281 161.863281 168.351562 161.863281 C 175.503906 161.851562 181.300781 156.058594 181.308594 148.90625 C 181.308594 143.664062 178.148438 138.941406 173.3125 136.9375 " fill-opacity="1" fill-rule="nonzero"/><path fill="#00f3f7" d="M 191.726562 35.164062 C 191.726562 32.839844 189.839844 30.953125 187.515625 30.953125 C 185.183594 30.953125 183.300781 32.839844 183.300781 35.164062 L 183.300781 45.226562 L 191.726562 45.226562 L 191.726562 35.164062 " fill-opacity="1" fill-rule="nonzero"/><g clip-path="url(#fade11272d)"><path fill="#00f3f7" d="M 314.085938 231.664062 C 314.070312 243.214844 304.714844 252.566406 293.171875 252.582031 L 238.078125 252.582031 L 256.542969 288.644531 L 278.035156 288.644531 C 282.511719 288.644531 286.136719 292.265625 286.136719 296.738281 C 286.136719 301.207031 282.511719 304.835938 278.035156 304.835938 L 264.828125 304.835938 L 287.15625 348.441406 C 288.128906 350.355469 288.308594 352.574219 287.648438 354.621094 C 286.992188 356.664062 285.550781 358.359375 283.636719 359.339844 C 281.722656 360.320312 279.503906 360.496094 277.457031 359.839844 C 275.417969 359.179688 273.714844 357.734375 272.738281 355.824219 L 246.636719 304.835938 L 128.394531 304.835938 L 102.285156 355.824219 C 101.3125 357.734375 99.609375 359.179688 97.566406 359.839844 C 95.519531 360.496094 93.300781 360.320312 91.390625 359.339844 C 89.476562 358.359375 88.035156 356.664062 87.375 354.621094 C 86.714844 352.574219 86.894531 350.355469 87.871094 348.441406 L 110.199219 304.835938 L 96.988281 304.835938 C 92.515625 304.835938 88.890625 301.207031 88.890625 296.738281 C 88.890625 292.265625 92.515625 288.644531 96.988281 288.644531 L 118.484375 288.644531 L 136.953125 252.578125 L 81.855469 252.578125 C 70.308594 252.5625 60.953125 243.207031 60.9375 231.664062 L 60.9375 66.144531 C 60.953125 54.597656 70.308594 45.242188 81.855469 45.226562 L 167.105469 45.226562 L 167.105469 35.164062 C 167.105469 29.753906 169.253906 24.5625 173.082031 20.738281 C 176.910156 16.910156 182.101562 14.757812 187.515625 14.757812 C 192.925781 14.757812 198.117188 16.910156 201.941406 20.738281 C 205.769531 24.5625 207.921875 29.753906 207.921875 35.164062 L 207.921875 45.230469 L 293.171875 45.230469 C 304.714844 45.246094 314.070312 54.597656 314.085938 66.148438 Z M 293.171875 34.867188 L 218.289062 34.867188 C 218.207031 26.757812 215.015625 19.152344 209.273438 13.40625 C 203.457031 7.597656 195.730469 4.394531 187.515625 4.394531 C 179.292969 4.394531 171.5625 7.597656 165.757812 13.410156 C 160.015625 19.148438 156.820312 26.757812 156.742188 34.863281 L 81.839844 34.863281 C 64.625 34.886719 50.59375 48.910156 50.574219 66.144531 L 50.574219 231.675781 C 50.59375 248.898438 64.625 262.925781 81.855469 262.945312 L 120 262.945312 L 112.144531 278.277344 L 96.988281 278.277344 C 86.808594 278.277344 78.527344 286.554688 78.527344 296.738281 C 78.527344 305.699219 84.945312 313.1875 93.425781 314.855469 L 78.648438 343.71875 C 76.402344 348.105469 75.996094 353.105469 77.515625 357.808594 C 79.007812 362.429688 82.339844 366.351562 86.667969 368.570312 C 89.257812 369.894531 92.167969 370.59375 95.082031 370.59375 C 96.996094 370.59375 98.898438 370.296875 100.753906 369.695312 C 105.445312 368.1875 109.265625 364.933594 111.515625 360.546875 L 134.730469 315.199219 L 240.296875 315.199219 L 263.503906 360.527344 C 265.703125 364.851562 269.621094 368.191406 274.300781 369.710938 C 276.128906 370.296875 278.023438 370.59375 279.949219 370.59375 C 282.859375 370.59375 285.777344 369.894531 288.363281 368.5625 C 292.679688 366.351562 296.011719 362.4375 297.515625 357.800781 C 299.027344 353.105469 298.625 348.105469 296.375 343.71875 L 281.597656 314.855469 C 290.082031 313.1875 296.5 305.699219 296.5 296.738281 C 296.5 286.554688 288.21875 278.277344 278.035156 278.277344 L 262.875 278.277344 L 255.027344 262.945312 L 293.183594 262.945312 C 310.398438 262.925781 324.425781 248.90625 324.453125 231.664062 L 324.453125 66.132812 C 324.425781 48.910156 310.398438 34.886719 293.171875 34.867188 " fill-opacity="1" fill-rule="nonzero"/></g><path fill="#00f3f7" d="M 274.183594 192.289062 C 274.183594 195.183594 272.640625 197.855469 270.136719 199.300781 C 267.628906 200.75 264.542969 200.75 262.039062 199.300781 L 235.867188 184.1875 L 235.867188 189.933594 C 235.851562 199.992188 227.703125 208.140625 217.648438 208.152344 L 119.058594 208.152344 C 109.003906 208.140625 100.855469 199.992188 100.84375 189.933594 L 100.84375 107.875 C 100.855469 97.820312 109.003906 89.667969 119.058594 89.65625 L 217.648438 89.65625 C 227.703125 89.667969 235.851562 97.820312 235.867188 107.875 L 235.867188 113.625 L 262.039062 98.511719 C 264.542969 97.0625 267.628906 97.0625 270.136719 98.511719 C 272.640625 99.960938 274.183594 102.632812 274.183594 105.527344 Z M 293.171875 61.425781 L 81.855469 61.425781 C 79.246094 61.429688 77.136719 63.539062 77.132812 66.148438 L 77.132812 231.664062 C 77.136719 234.269531 79.25 236.378906 81.855469 236.386719 L 293.171875 236.386719 C 295.773438 236.378906 297.890625 234.269531 297.894531 231.664062 L 297.894531 66.148438 C 297.890625 63.539062 295.773438 61.429688 293.171875 61.425781 " fill-opacity="1" fill-rule="nonzero"/><path fill="#00f3f7" d="M 179.507812 175.835938 C 168.617188 180.347656 156.078125 177.855469 147.742188 169.515625 C 139.40625 161.175781 136.910156 148.644531 141.425781 137.75 C 145.933594 126.859375 156.5625 119.757812 168.351562 119.757812 C 184.445312 119.773438 197.484375 132.8125 197.503906 148.90625 C 197.503906 160.695312 190.402344 171.324219 179.507812 175.835938 Z M 217.648438 105.851562 L 119.058594 105.851562 C 117.949219 105.867188 117.050781 106.769531 117.039062 107.875 L 117.039062 189.933594 C 117.050781 191.042969 117.949219 191.941406 119.058594 191.957031 L 217.648438 191.957031 C 218.757812 191.941406 219.652344 191.042969 219.671875 189.933594 L 219.671875 107.875 C 219.652344 106.769531 218.757812 105.867188 217.648438 105.851562 " fill-opacity="1" fill-rule="nonzero"/><path fill="#00f3f7" d="M 235.867188 165.484375 L 257.988281 178.257812 L 257.988281 119.546875 L 235.867188 132.324219 L 235.867188 165.484375 " fill-opacity="1" fill-rule="nonzero"/></svg>