<svg xmlns="http://www.w3.org/2000/svg" xmlns:xlink="http://www.w3.org/1999/xlink" width="500" zoomAndPan="magnify" viewBox="0 0 375 374.999991" height="500" preserveAspectRatio="xMidYMid meet" version="1.0"><defs><clipPath id="b686068501"><path d="M 115 313 L 264 313 L 264 343.574219 L 115 343.574219 Z M 115 313 " clip-rule="nonzero"/></clipPath><clipPath id="4a33de0c91"><path d="M 244 72 L 368.703125 72 L 368.703125 163 L 244 163 Z M 244 72 " clip-rule="nonzero"/></clipPath><clipPath id="1782d64be8"><path d="M 6.453125 31.574219 L 127 31.574219 L 127 201 L 6.453125 201 Z M 6.453125 31.574219 " clip-rule="nonzero"/></clipPath><clipPath id="0435564cbd"><path d="M 90 31.574219 L 127 31.574219 L 127 68 L 90 68 Z M 90 31.574219 " clip-rule="nonzero"/></clipPath></defs><path fill="#00f3f7" d="M 308.066406 286.734375 L 70.726562 286.734375 C 67.292969 286.734375 64.496094 283.941406 64.496094 280.503906 L 64.496094 198.203125 C 64.496094 196.730469 65.695312 195.535156 67.167969 195.535156 C 68.640625 195.535156 69.835938 196.730469 69.835938 198.203125 L 69.835938 280.503906 C 69.835938 280.984375 70.246094 281.394531 70.726562 281.394531 L 308.066406 281.394531 C 308.554688 281.394531 308.957031 280.984375 308.957031 280.503906 L 308.957031 162.425781 L 264.636719 162.425781 C 253.667969 162.425781 244.738281 153.511719 244.738281 142.558594 L 244.738281 127.714844 L 124.023438 127.714844 C 122.546875 127.714844 121.351562 126.519531 121.351562 125.046875 C 121.351562 123.570312 122.546875 122.375 124.023438 122.375 L 250.078125 122.375 L 250.078125 142.558594 C 250.078125 150.570312 256.605469 157.085938 264.636719 157.085938 L 314.296875 157.085938 L 314.296875 280.503906 C 314.296875 283.941406 311.507812 286.734375 308.066406 286.734375 " fill-opacity="1" fill-rule="nonzero"/><path fill="#00f3f7" d="M 311.625 261.21875 L 67.179688 261.21875 C 65.707031 261.21875 64.511719 260.023438 64.511719 258.546875 C 64.511719 257.082031 65.707031 255.878906 67.179688 255.878906 L 311.625 255.878906 C 313.101562 255.878906 314.296875 257.082031 314.296875 258.546875 C 314.296875 260.023438 313.101562 261.21875 311.625 261.21875 " fill-opacity="1" fill-rule="nonzero"/><path fill="#00f3f7" d="M 145.207031 318.789062 C 143.734375 318.789062 142.539062 317.59375 142.539062 316.117188 L 142.539062 284.039062 C 142.539062 282.5625 143.734375 281.367188 145.207031 281.367188 C 146.679688 281.367188 147.878906 282.5625 147.878906 284.039062 L 147.878906 316.117188 C 147.878906 317.59375 146.679688 318.789062 145.207031 318.789062 " fill-opacity="1" fill-rule="nonzero"/><path fill="#00f3f7" d="M 233.601562 318.789062 C 232.125 318.789062 230.929688 317.59375 230.929688 316.117188 L 230.929688 284.039062 C 230.929688 282.5625 232.125 281.367188 233.601562 281.367188 C 235.074219 281.367188 236.269531 282.5625 236.269531 284.039062 L 236.269531 316.117188 C 236.269531 317.59375 235.074219 318.789062 233.601562 318.789062 " fill-opacity="1" fill-rule="nonzero"/><g clip-path="url(#b686068501)"><path fill="#00f3f7" d="M 130.667969 318.773438 C 125.351562 318.773438 121.023438 323.097656 121.023438 328.410156 C 121.023438 333.730469 125.351562 338.054688 130.667969 338.054688 L 248.140625 338.054688 C 253.457031 338.054688 257.78125 333.730469 257.78125 328.410156 C 257.78125 323.097656 253.457031 318.773438 248.140625 318.773438 Z M 248.140625 343.394531 L 130.667969 343.394531 C 122.402344 343.394531 115.683594 336.679688 115.683594 328.410156 C 115.683594 320.152344 122.402344 313.433594 130.667969 313.433594 L 248.140625 313.433594 C 256.40625 313.433594 263.121094 320.152344 263.121094 328.410156 C 263.121094 336.679688 256.40625 343.394531 248.140625 343.394531 " fill-opacity="1" fill-rule="nonzero"/></g><path fill="#00f3f7" d="M 225.679688 208.242188 L 225.714844 208.242188 Z M 152.8125 205.429688 L 174.953125 227.578125 L 224.476562 205.851562 C 225.929688 205.003906 226.898438 203.550781 227.125 201.875 C 227.355469 200.15625 226.792969 198.460938 225.570312 197.238281 L 183.148438 154.824219 C 181.917969 153.59375 180.242188 153.023438 178.511719 153.265625 C 176.792969 153.496094 175.320312 154.503906 174.472656 156.011719 Z M 173.757812 233.933594 L 146.453125 206.625 L 169.703125 153.640625 C 171.488281 150.421875 174.394531 148.441406 177.78125 147.976562 C 181.152344 147.503906 184.5 148.621094 186.925781 151.042969 L 229.34375 193.460938 C 231.757812 195.886719 232.878906 199.21875 232.410156 202.605469 C 231.945312 206 229.96875 208.898438 226.988281 210.574219 L 226.75 210.683594 L 173.757812 233.933594 " fill-opacity="1" fill-rule="nonzero"/><path fill="#00f3f7" d="M 152.238281 248.292969 C 147.070312 248.292969 141.917969 246.332031 137.984375 242.402344 C 130.125 234.546875 130.125 221.753906 137.984375 213.902344 L 147.746094 204.140625 C 148.789062 203.097656 150.476562 203.097656 151.519531 204.140625 C 152.5625 205.183594 152.5625 206.875 151.519531 207.917969 L 141.757812 217.671875 C 135.980469 223.449219 135.980469 232.851562 141.757812 238.628906 C 147.535156 244.398438 156.929688 244.40625 162.707031 238.628906 L 172.476562 228.867188 C 173.511719 227.824219 175.210938 227.824219 176.253906 228.867188 C 177.296875 229.910156 177.296875 231.597656 176.253906 232.640625 L 166.484375 242.402344 C 162.554688 246.332031 157.394531 248.292969 152.238281 248.292969 " fill-opacity="1" fill-rule="nonzero"/><path fill="#00f3f7" d="M 218.949219 189.511719 C 218.261719 189.511719 217.582031 189.25 217.058594 188.726562 C 216.015625 187.683594 216.015625 185.996094 217.058594 184.953125 L 219.617188 182.398438 C 225.578125 176.433594 225.578125 166.734375 219.617188 160.769531 C 216.730469 157.875 212.886719 156.292969 208.800781 156.292969 C 204.71875 156.292969 200.871094 157.875 197.988281 160.769531 L 195.429688 163.328125 C 194.386719 164.371094 192.695312 164.371094 191.652344 163.328125 C 190.609375 162.285156 190.609375 160.59375 191.652344 159.550781 L 194.203125 156.992188 C 198.105469 153.09375 203.285156 150.953125 208.800781 150.953125 C 214.3125 150.953125 219.5 153.09375 223.394531 156.992188 C 231.4375 165.039062 231.4375 178.128906 223.394531 186.175781 L 220.835938 188.726562 C 220.3125 189.25 219.632812 189.511719 218.949219 189.511719 " fill-opacity="1" fill-rule="nonzero"/><path fill="#00f3f7" d="M 207.402344 260.515625 C 206.683594 260.515625 205.976562 260.34375 205.324219 259.980469 L 167.449219 238.683594 C 166.171875 237.96875 165.710938 236.332031 166.433594 235.054688 C 167.15625 233.769531 168.777344 233.300781 170.070312 234.03125 L 207.21875 254.917969 L 212.527344 249.605469 C 212.71875 249.417969 212.75 249.203125 212.742188 249.058594 C 212.734375 248.910156 212.679688 248.695312 212.464844 248.523438 L 185.679688 227.140625 C 184.527344 226.230469 184.339844 224.542969 185.257812 223.394531 C 186.179688 222.238281 187.871094 222.050781 189.011719 222.976562 L 215.792969 244.351562 C 217.140625 245.429688 217.976562 247.035156 218.074219 248.757812 C 218.164062 250.484375 217.523438 252.164062 216.308594 253.390625 L 210.417969 259.273438 C 209.605469 260.085938 208.507812 260.515625 207.402344 260.515625 " fill-opacity="1" fill-rule="nonzero"/><g clip-path="url(#4a33de0c91)"><path fill="#00f3f7" d="M 348.296875 162.425781 L 311.625 162.425781 C 310.152344 162.425781 308.957031 161.226562 308.957031 159.753906 C 308.957031 158.28125 310.152344 157.085938 311.625 157.085938 L 348.296875 157.085938 C 356.304688 157.085938 362.820312 150.570312 362.820312 142.558594 L 362.820312 92.722656 C 362.820312 84.710938 356.304688 78.195312 348.296875 78.195312 L 264.636719 78.195312 C 256.605469 78.195312 250.078125 84.710938 250.078125 92.722656 L 250.078125 125.046875 C 250.078125 126.519531 248.882812 127.714844 247.410156 127.714844 C 245.933594 127.714844 244.738281 126.519531 244.738281 125.046875 L 244.738281 92.722656 C 244.738281 81.769531 253.667969 72.855469 264.636719 72.855469 L 348.296875 72.855469 C 359.246094 72.855469 368.160156 81.769531 368.160156 92.722656 L 368.160156 142.558594 C 368.160156 153.511719 359.246094 162.425781 348.296875 162.425781 " fill-opacity="1" fill-rule="nonzero"/></g><path fill="#00f3f7" d="M 293.507812 97.296875 C 293.214844 97.296875 292.976562 97.40625 292.859375 97.476562 C 292.625 97.617188 292.234375 97.9375 292.234375 98.566406 L 292.234375 136.710938 C 292.234375 137.371094 292.671875 137.691406 292.859375 137.804688 C 293.101562 137.941406 293.582031 138.128906 294.125 137.804688 L 327.160156 118.730469 C 327.722656 118.40625 327.785156 117.863281 327.785156 117.640625 C 327.785156 117.367188 327.699219 116.863281 327.160156 116.546875 L 294.125 97.476562 C 293.902344 97.34375 293.6875 97.296875 293.507812 97.296875 Z M 293.492188 143.324219 C 292.359375 143.324219 291.226562 143.023438 290.195312 142.433594 C 288.125 141.238281 286.894531 139.097656 286.894531 136.710938 L 286.894531 98.566406 C 286.894531 96.183594 288.125 94.042969 290.191406 92.847656 C 292.253906 91.65625 294.722656 91.648438 296.796875 92.847656 L 329.828125 111.917969 C 331.886719 113.113281 333.125 115.25 333.125 117.640625 C 333.125 120.023438 331.894531 122.167969 329.828125 123.363281 L 296.796875 142.425781 C 295.757812 143.023438 294.625 143.324219 293.492188 143.324219 " fill-opacity="1" fill-rule="nonzero"/><g clip-path="url(#1782d64be8)"><path fill="#00f3f7" d="M 13.058594 36.9375 C 12.574219 36.9375 12.167969 37.347656 12.167969 37.828125 L 12.167969 194.644531 C 12.167969 195.125 12.574219 195.535156 13.058594 195.535156 L 120.460938 195.535156 C 120.941406 195.535156 121.351562 195.125 121.351562 194.644531 L 121.351562 66.277344 C 121.351562 66.050781 121.253906 65.828125 121.09375 65.660156 L 92.664062 37.203125 C 92.503906 37.035156 92.273438 36.9375 92.039062 36.9375 Z M 120.460938 200.875 L 13.058594 200.875 C 9.625 200.875 6.828125 198.070312 6.828125 194.644531 L 6.828125 37.828125 C 6.828125 34.394531 9.625 31.597656 13.058594 31.597656 L 92.039062 31.597656 C 93.679688 31.597656 95.285156 32.257812 96.441406 33.417969 L 124.871094 61.882812 C 126.046875 63.058594 126.691406 64.625 126.691406 66.277344 L 126.691406 194.644531 C 126.691406 198.070312 123.898438 200.875 120.460938 200.875 " fill-opacity="1" fill-rule="nonzero"/></g><g clip-path="url(#0435564cbd)"><path fill="#00f3f7" d="M 124.023438 67.480469 L 97.070312 67.480469 C 93.636719 67.480469 90.84375 64.6875 90.84375 61.25 L 90.84375 34.621094 C 90.84375 33.148438 92.039062 31.777344 93.511719 31.777344 C 94.984375 31.777344 96.183594 32.792969 96.183594 34.265625 L 96.183594 61.25 C 96.183594 61.746094 96.578125 62.140625 97.070312 62.140625 L 124.023438 62.140625 C 125.496094 62.140625 126.691406 63.335938 126.691406 64.8125 C 126.691406 66.285156 125.496094 67.480469 124.023438 67.480469 " fill-opacity="1" fill-rule="nonzero"/></g><path fill="#00f3f7" d="M 33.605469 180.46875 C 32.140625 180.46875 30.9375 179.269531 30.9375 177.796875 L 30.9375 83.152344 C 30.9375 81.679688 32.140625 80.484375 33.605469 80.484375 C 35.078125 80.484375 36.277344 81.679688 36.277344 83.152344 L 36.277344 177.796875 C 36.277344 179.269531 35.078125 180.46875 33.605469 180.46875 " fill-opacity="1" fill-rule="nonzero"/><path fill="#00f3f7" d="M 55.710938 180.46875 C 54.234375 180.46875 53.039062 179.269531 53.039062 177.796875 L 53.039062 136.550781 C 53.039062 135.078125 54.234375 133.882812 55.710938 133.882812 C 57.183594 133.882812 58.378906 135.078125 58.378906 136.550781 L 58.378906 177.796875 C 58.378906 179.269531 57.183594 180.46875 55.710938 180.46875 " fill-opacity="1" fill-rule="nonzero"/><path fill="#00f3f7" d="M 77.8125 180.46875 C 76.332031 180.46875 75.144531 179.269531 75.144531 177.796875 L 75.144531 100.953125 C 75.144531 99.480469 76.332031 98.28125 77.8125 98.28125 C 79.285156 98.28125 80.484375 99.480469 80.484375 100.953125 L 80.484375 177.796875 C 80.484375 179.269531 79.285156 180.46875 77.8125 180.46875 " fill-opacity="1" fill-rule="nonzero"/><path fill="#00f3f7" d="M 99.910156 180.46875 C 98.441406 180.46875 97.238281 179.269531 97.238281 177.796875 L 97.238281 118.753906 C 97.238281 117.277344 98.441406 116.082031 99.910156 116.082031 C 101.382812 116.082031 102.578125 117.277344 102.578125 118.753906 L 102.578125 177.796875 C 102.578125 179.269531 101.382812 180.46875 99.910156 180.46875 " fill-opacity="1" fill-rule="nonzero"/></svg>