<svg xmlns="http://www.w3.org/2000/svg" xmlns:xlink="http://www.w3.org/1999/xlink" width="500" zoomAndPan="magnify" viewBox="0 0 375 374.999991" height="500" preserveAspectRatio="xMidYMid meet" version="1.0"><defs><clipPath id="dd95f4048f"><path d="M 13.949219 5 L 361.199219 5 L 361.199219 370 L 13.949219 370 Z M 13.949219 5 " clip-rule="nonzero"/></clipPath></defs><g clip-path="url(#dd95f4048f)"><path fill="#00f3f7" d="M 361.046875 196.042969 C 361.046875 164.792969 352.730469 133.996094 336.769531 107.46875 L 336.769531 100.726562 C 336.769531 94.65625 331.824219 89.484375 325.527344 89.484375 C 325.078125 89.484375 324.855469 89.484375 324.40625 89.484375 C 308.445312 69.027344 287.761719 52.167969 264.605469 40.476562 C 257.863281 20.246094 238.980469 5.632812 216.5 5.632812 C 201.4375 5.40625 187.949219 11.925781 178.507812 22.492188 C 163.667969 23.167969 149.058594 25.863281 135.121094 30.359375 C 129.5 27.4375 123.203125 25.863281 116.460938 25.863281 C 95.328125 25.863281 78.019531 42.050781 76.222656 62.734375 C 36.429688 95.777344 13.949219 144.335938 13.949219 196.042969 C 13.949219 291.359375 91.507812 369.589844 187.5 369.589844 C 283.488281 369.589844 361.046875 291.359375 361.046875 196.042969 Z M 356.777344 196.042969 C 356.777344 243.25 337.441406 285.738281 306.195312 316.535156 L 233.582031 316.535156 C 234.707031 314.515625 234.933594 311.816406 233.808594 309.566406 L 193.34375 220.097656 C 196.941406 215.824219 198.964844 210.429688 199.414062 204.585938 L 254.492188 204.585938 C 261.234375 204.585938 266.855469 199.1875 266.855469 192.21875 L 266.855469 173.785156 L 314.738281 192.667969 C 315.414062 198.066406 320.132812 202.335938 325.753906 202.335938 C 331.824219 202.335938 336.992188 197.390625 336.992188 191.097656 L 336.992188 116.011719 C 350.03125 140.515625 356.777344 167.941406 356.777344 196.042969 Z M 171.539062 316.535156 C 169.515625 316.535156 167.941406 314.964844 167.941406 313.164062 L 163.667969 238.980469 C 163.667969 238.082031 162.996094 237.179688 161.871094 236.957031 C 160.972656 236.730469 160.074219 237.179688 159.625 238.082031 L 119.832031 314.964844 C 118.707031 316.535156 116.683594 317.210938 114.886719 316.3125 C 113.089844 315.414062 112.414062 313.164062 113.3125 311.367188 L 153.105469 223.242188 C 158.050781 227.738281 164.570312 230.4375 171.761719 230.4375 C 178.957031 230.4375 185.476562 227.738281 190.421875 223.242188 L 230.210938 311.140625 C 231.109375 312.941406 230.210938 314.964844 228.636719 316.085938 C 226.839844 316.988281 224.816406 316.535156 223.691406 314.964844 L 183.675781 238.082031 C 183.226562 237.179688 182.328125 236.730469 181.429688 236.957031 C 180.53125 237.179688 179.855469 237.855469 179.628906 238.980469 L 175.359375 313.164062 C 175.132812 314.964844 173.5625 316.535156 171.539062 316.535156 Z M 164.570312 316.535156 L 123.65625 316.535156 L 159.847656 246.847656 L 163.667969 313.390625 C 163.667969 314.515625 163.894531 315.414062 164.570312 316.535156 Z M 76.222656 175.136719 L 65.429688 175.136719 C 63.40625 175.136719 61.832031 173.5625 61.832031 171.539062 L 61.832031 120.058594 C 61.832031 118.035156 63.40625 116.460938 65.429688 116.460938 L 76.222656 116.460938 Z M 80.71875 99.375 C 80.71875 94.878906 84.3125 91.28125 88.808594 91.28125 L 254.714844 91.28125 C 259.210938 91.28125 262.808594 94.878906 262.808594 99.375 C 262.808594 154.679688 262.808594 137.144531 262.808594 191.996094 C 262.808594 196.492188 259.210938 200.089844 254.714844 200.089844 L 88.585938 200.089844 C 84.089844 200.089844 80.492188 196.492188 80.492188 191.996094 C 80.71875 151.980469 80.71875 140.964844 80.71875 99.375 Z M 314.511719 187.949219 L 266.855469 169.066406 L 266.855469 122.53125 L 314.511719 103.648438 Z M 195.367188 204.359375 C 194.242188 216.5 184.125 225.941406 171.761719 225.941406 C 159.398438 225.941406 149.058594 216.5 148.15625 204.359375 Z M 179.628906 313.164062 L 183.453125 246.847656 L 219.644531 316.535156 L 178.730469 316.535156 C 179.179688 315.414062 179.628906 314.289062 179.628906 313.164062 Z M 332.496094 100.5 L 332.496094 191.097656 C 332.496094 194.917969 329.351562 198.066406 325.527344 198.066406 C 321.707031 198.066406 318.558594 194.917969 318.558594 191.097656 L 318.558594 100.5 C 318.558594 96.679688 321.707031 93.53125 325.527344 93.53125 C 329.351562 93.53125 332.496094 96.679688 332.496094 100.5 Z M 320.132812 90.832031 C 317.210938 92.632812 314.960938 95.554688 314.511719 99.152344 L 266.628906 118.035156 L 266.628906 99.601562 C 266.628906 93.53125 262.132812 88.359375 256.289062 87.460938 C 263.257812 78.46875 267.078125 67.679688 267.078125 56.214844 C 267.078125 52.839844 266.628906 49.246094 265.957031 46.097656 C 287.085938 56.886719 305.519531 72.398438 320.132812 90.832031 Z M 216.5 9.679688 C 242.125 9.679688 262.808594 30.585938 262.808594 55.988281 C 262.808594 67.453125 258.535156 78.46875 250.667969 87.011719 L 182.101562 87.011719 C 174.234375 78.46875 169.964844 67.453125 169.964844 55.988281 C 170.1875 30.585938 190.871094 9.679688 216.5 9.679688 Z M 175.132812 26.988281 C 169.289062 35.308594 165.917969 45.199219 165.917969 55.988281 C 165.917969 67.453125 169.738281 78.246094 176.707031 87.011719 L 151.082031 87.011719 C 154.902344 80.71875 156.925781 73.523438 156.925781 66.105469 C 156.925781 52.617188 150.179688 40.476562 139.839844 33.285156 C 151.304688 29.910156 163.21875 27.886719 175.132812 26.988281 Z M 116.460938 30.136719 C 136.46875 30.136719 152.652344 46.324219 152.652344 66.328125 C 152.652344 73.972656 150.40625 81.167969 145.910156 87.238281 L 88.585938 87.238281 C 88.136719 87.238281 87.460938 87.238281 87.011719 87.238281 C 82.515625 81.167969 80.265625 73.75 80.265625 66.105469 C 80.265625 46.324219 96.453125 30.136719 116.460938 30.136719 Z M 18.222656 196.042969 C 18.222656 146.808594 39.128906 100.726562 75.996094 68.351562 C 76.445312 75.546875 78.695312 82.515625 82.738281 88.585938 C 78.917969 90.609375 76.222656 94.65625 76.222656 99.375 L 76.222656 111.964844 L 65.429688 111.964844 C 61.160156 111.964844 57.5625 115.5625 57.5625 119.832031 L 57.5625 171.3125 C 57.5625 175.585938 61.160156 179.179688 65.429688 179.179688 L 76.222656 179.179688 L 76.222656 191.996094 C 76.222656 198.738281 81.617188 204.359375 88.585938 204.359375 L 143.660156 204.359375 C 144.113281 210.203125 146.359375 215.601562 149.730469 219.871094 L 109.265625 309.34375 C 108.144531 311.589844 108.367188 314.289062 109.492188 316.3125 L 68.578125 316.3125 C 37.554688 285.738281 18.222656 243.027344 18.222656 196.042969 Z M 73.074219 320.808594 L 301.699219 320.808594 C 271.574219 348.460938 231.335938 365.320312 187.273438 365.320312 C 143.4375 365.320312 103.195312 348.460938 73.074219 320.808594 Z M 73.074219 320.808594 " fill-opacity="1" fill-rule="nonzero"/></g><path fill="#00f3f7" d="M 182.554688 333.847656 C 182.554688 332.722656 181.652344 331.597656 180.304688 331.597656 L 128.375 331.597656 C 127.25 331.597656 126.128906 332.496094 126.128906 333.847656 C 126.128906 334.972656 127.027344 336.09375 128.375 336.09375 L 180.304688 336.09375 C 181.652344 335.871094 182.554688 334.972656 182.554688 333.847656 Z M 182.554688 333.847656 " fill-opacity="1" fill-rule="nonzero"/><path fill="#00f3f7" d="M 199.414062 333.847656 C 199.414062 332.722656 198.515625 331.597656 197.164062 331.597656 L 188.621094 331.597656 C 187.5 331.597656 186.375 332.496094 186.375 333.847656 C 186.375 334.972656 187.273438 336.09375 188.621094 336.09375 L 197.164062 336.09375 C 198.515625 335.871094 199.414062 334.972656 199.414062 333.847656 Z M 199.414062 333.847656 " fill-opacity="1" fill-rule="nonzero"/><path fill="#00f3f7" d="M 204.582031 335.871094 L 210.203125 335.871094 C 211.328125 335.871094 212.453125 334.972656 212.453125 333.621094 C 212.453125 332.496094 211.554688 331.375 210.203125 331.375 L 204.582031 331.375 C 203.460938 331.375 202.335938 332.273438 202.335938 333.621094 C 202.5625 334.972656 203.460938 335.871094 204.582031 335.871094 Z M 204.582031 335.871094 " fill-opacity="1" fill-rule="nonzero"/><path fill="#00f3f7" d="M 246.621094 342.164062 L 194.691406 342.164062 C 193.570312 342.164062 192.445312 343.0625 192.445312 344.414062 C 192.445312 345.535156 193.34375 346.660156 194.691406 346.660156 L 246.621094 346.660156 C 247.746094 346.660156 248.871094 345.761719 248.871094 344.414062 C 248.644531 343.0625 247.746094 342.164062 246.621094 342.164062 Z M 246.621094 342.164062 " fill-opacity="1" fill-rule="nonzero"/><path fill="#00f3f7" d="M 186.375 342.164062 L 177.832031 342.164062 C 176.707031 342.164062 175.585938 343.0625 175.585938 344.414062 C 175.585938 345.535156 176.484375 346.660156 177.832031 346.660156 L 186.375 346.660156 C 187.5 346.660156 188.621094 345.761719 188.621094 344.414062 C 188.398438 343.0625 187.5 342.164062 186.375 342.164062 Z M 186.375 342.164062 " fill-opacity="1" fill-rule="nonzero"/><path fill="#00f3f7" d="M 170.414062 342.164062 L 164.792969 342.164062 C 163.667969 342.164062 162.546875 343.0625 162.546875 344.414062 C 162.546875 345.535156 163.445312 346.660156 164.792969 346.660156 L 170.414062 346.660156 C 171.539062 346.660156 172.660156 345.761719 172.660156 344.414062 C 172.4375 343.0625 171.539062 342.164062 170.414062 342.164062 Z M 170.414062 342.164062 " fill-opacity="1" fill-rule="nonzero"/><path fill="#00f3f7" d="M 216.5 77.570312 C 228.414062 77.570312 237.855469 67.902344 237.855469 56.214844 C 237.855469 44.300781 228.1875 34.855469 216.5 34.855469 C 204.582031 34.855469 195.140625 44.523438 195.140625 56.214844 C 195.140625 67.902344 204.808594 77.570312 216.5 77.570312 Z M 216.5 38.902344 C 225.941406 38.902344 233.582031 46.546875 233.582031 55.988281 C 233.582031 65.429688 225.941406 73.074219 216.5 73.074219 C 207.058594 73.074219 199.414062 65.429688 199.414062 55.988281 C 199.414062 46.546875 207.058594 38.902344 216.5 38.902344 Z M 216.5 38.902344 " fill-opacity="1" fill-rule="nonzero"/><path fill="#00f3f7" d="M 116.460938 83.640625 C 126.128906 83.640625 133.769531 75.773438 133.769531 66.328125 C 133.769531 56.664062 125.902344 49.019531 116.460938 49.019531 C 106.792969 49.019531 99.152344 56.886719 99.152344 66.328125 C 99.152344 75.773438 106.792969 83.640625 116.460938 83.640625 Z M 116.460938 53.066406 C 123.65625 53.066406 129.5 58.910156 129.5 66.105469 C 129.5 73.296875 123.65625 79.144531 116.460938 79.144531 C 109.265625 79.144531 103.421875 73.296875 103.421875 66.105469 C 103.421875 58.910156 109.265625 53.066406 116.460938 53.066406 Z M 116.460938 53.066406 " fill-opacity="1" fill-rule="nonzero"/><path fill="#00f3f7" d="M 159.847656 185.25 L 244.375 185.25 C 245.5 185.25 246.621094 184.351562 246.621094 183.003906 L 246.621094 132.648438 C 246.621094 131.523438 245.722656 130.398438 244.375 130.398438 L 159.847656 130.398438 C 158.722656 130.398438 157.601562 131.296875 157.601562 132.648438 L 157.601562 183.003906 C 157.824219 184.128906 158.722656 185.25 159.847656 185.25 Z M 162.097656 134.894531 L 242.351562 134.894531 L 242.351562 180.980469 L 162.097656 180.980469 Z M 162.097656 134.894531 " fill-opacity="1" fill-rule="nonzero"/><path fill="#00f3f7" d="M 218.972656 146.136719 C 212.453125 146.136719 207.28125 151.304688 207.28125 157.824219 C 207.28125 164.34375 212.453125 169.515625 218.972656 169.515625 C 225.492188 169.515625 230.660156 164.34375 230.660156 157.824219 C 230.660156 151.304688 225.492188 146.136719 218.972656 146.136719 Z M 218.972656 165.242188 C 214.925781 165.242188 211.554688 161.871094 211.554688 157.824219 C 211.554688 153.777344 214.925781 150.40625 218.972656 150.40625 C 223.019531 150.40625 226.390625 153.777344 226.390625 157.824219 C 226.390625 162.097656 223.019531 165.242188 218.972656 165.242188 Z M 218.972656 165.242188 " fill-opacity="1" fill-rule="nonzero"/><path fill="#00f3f7" d="M 185.476562 146.136719 C 178.957031 146.136719 173.785156 151.304688 173.785156 157.824219 C 173.785156 164.34375 178.957031 169.515625 185.476562 169.515625 C 191.996094 169.515625 197.164062 164.34375 197.164062 157.824219 C 197.164062 151.304688 191.769531 146.136719 185.476562 146.136719 Z M 185.476562 165.242188 C 181.429688 165.242188 178.058594 161.871094 178.058594 157.824219 C 178.058594 153.777344 181.429688 150.40625 185.476562 150.40625 C 189.523438 150.40625 192.894531 153.777344 192.894531 157.824219 C 192.894531 162.097656 189.523438 165.242188 185.476562 165.242188 Z M 185.476562 165.242188 " fill-opacity="1" fill-rule="nonzero"/><path fill="#00f3f7" d="M 102.746094 185.25 L 121.632812 185.25 C 127.25 185.25 131.746094 180.753906 131.746094 175.136719 L 131.746094 156.25 C 131.746094 150.632812 127.25 146.136719 121.632812 146.136719 L 102.746094 146.136719 C 97.128906 146.136719 92.632812 150.632812 92.632812 156.25 L 92.632812 175.136719 C 92.632812 180.753906 97.128906 185.25 102.746094 185.25 Z M 96.902344 156.25 C 96.902344 153.105469 99.601562 150.40625 102.746094 150.40625 L 121.632812 150.40625 C 124.777344 150.40625 127.476562 153.105469 127.476562 156.25 L 127.476562 175.136719 C 127.476562 178.28125 124.777344 180.980469 121.632812 180.980469 L 102.746094 180.980469 C 99.601562 180.980469 96.902344 178.28125 96.902344 175.136719 Z M 96.902344 156.25 " fill-opacity="1" fill-rule="nonzero"/></svg>