<svg xmlns="http://www.w3.org/2000/svg" xmlns:xlink="http://www.w3.org/1999/xlink" width="500" zoomAndPan="magnify" viewBox="0 0 375 374.999991" height="500" preserveAspectRatio="xMidYMid meet" version="1.0"><defs><clipPath id="7c973cc74a"><path d="M 313 4.253906 L 348 4.253906 L 348 268 L 313 268 Z M 313 4.253906 " clip-rule="nonzero"/></clipPath><clipPath id="64abd3c5a7"><path d="M 4.253906 107 L 33 107 L 33 165 L 4.253906 165 Z M 4.253906 107 " clip-rule="nonzero"/></clipPath></defs><path fill="#00f3f7" d="M 191.300781 61.851562 L 317.238281 16.085938 L 321.128906 26.84375 L 195.195312 72.632812 L 191.300781 61.851562 " fill-opacity="1" fill-rule="nonzero"/><path fill="#00f3f7" d="M 191.277344 210.070312 L 195.195312 199.285156 L 321.128906 245.078125 L 317.214844 255.835938 L 191.277344 210.070312 " fill-opacity="1" fill-rule="nonzero"/><path fill="#00f3f7" d="M 342.113281 164.59375 L 342.113281 153.140625 C 351.84375 153.140625 359.292969 145.691406 359.292969 135.960938 C 359.292969 126.230469 351.84375 118.78125 342.113281 118.78125 L 342.113281 107.328125 C 358.152344 107.328125 370.746094 119.921875 370.746094 135.960938 C 370.746094 152 358.152344 164.59375 342.113281 164.59375 " fill-opacity="1" fill-rule="nonzero"/><g clip-path="url(#7c973cc74a)"><path fill="#00f3f7" d="M 324.933594 256.214844 L 336.386719 256.214844 L 336.386719 15.707031 L 324.933594 15.707031 Z M 347.839844 267.667969 L 313.480469 267.667969 L 313.480469 4.253906 L 347.839844 4.253906 L 347.839844 267.667969 " fill-opacity="1" fill-rule="nonzero"/></g><path fill="#00f3f7" d="M 32.886719 107.328125 L 50.0625 107.328125 L 50.0625 118.78125 L 32.886719 118.78125 L 32.886719 107.328125 " fill-opacity="1" fill-rule="nonzero"/><path fill="#00f3f7" d="M 32.886719 130.234375 L 50.0625 130.234375 L 50.0625 141.6875 L 32.886719 141.6875 L 32.886719 130.234375 " fill-opacity="1" fill-rule="nonzero"/><path fill="#00f3f7" d="M 32.886719 153.140625 L 50.0625 153.140625 L 50.0625 164.59375 L 32.886719 164.59375 L 32.886719 153.140625 " fill-opacity="1" fill-rule="nonzero"/><g clip-path="url(#64abd3c5a7)"><path fill="#00f3f7" d="M 32.886719 164.59375 L 4.253906 164.59375 L 4.253906 107.328125 L 32.886719 107.328125 L 32.886719 118.78125 L 15.707031 118.78125 L 15.707031 153.140625 L 32.886719 153.140625 L 32.886719 164.59375 " fill-opacity="1" fill-rule="nonzero"/></g><path fill="#00f3f7" d="M 193.226562 261.941406 L 164.59375 261.941406 L 164.59375 250.488281 L 181.773438 250.488281 L 181.773438 233.308594 L 164.59375 233.308594 L 164.59375 221.855469 L 193.226562 221.855469 L 193.226562 261.941406 " fill-opacity="1" fill-rule="nonzero"/><path fill="#00f3f7" d="M 147.414062 250.488281 L 164.59375 250.488281 L 164.59375 261.941406 L 147.414062 261.941406 L 147.414062 250.488281 " fill-opacity="1" fill-rule="nonzero"/><path fill="#00f3f7" d="M 147.414062 273.394531 L 164.59375 273.394531 L 164.59375 284.847656 L 147.414062 284.847656 L 147.414062 273.394531 " fill-opacity="1" fill-rule="nonzero"/><path fill="#00f3f7" d="M 147.414062 296.300781 L 164.59375 296.300781 L 164.59375 307.753906 L 147.414062 307.753906 L 147.414062 296.300781 " fill-opacity="1" fill-rule="nonzero"/><path fill="#00f3f7" d="M 147.414062 319.207031 L 164.59375 319.207031 L 164.59375 330.660156 L 147.414062 330.660156 L 147.414062 319.207031 " fill-opacity="1" fill-rule="nonzero"/><path fill="#00f3f7" d="M 181.773438 370.746094 L 125.648438 370.746094 L 90.148438 228.722656 L 101.601562 226.441406 L 134.820312 359.292969 L 170.320312 359.292969 L 170.320312 338.667969 L 158.867188 327.214844 L 158.867188 227.582031 L 170.320312 227.582031 L 170.320312 322.652344 L 181.773438 334.105469 L 181.773438 370.746094 " fill-opacity="1" fill-rule="nonzero"/><path fill="#00f3f7" d="M 181.773438 233.308594 L 78.695312 233.308594 L 78.695312 204.679688 L 90.148438 204.679688 L 90.148438 221.855469 L 170.320312 221.855469 L 170.320312 204.679688 L 181.773438 204.679688 L 181.773438 233.308594 " fill-opacity="1" fill-rule="nonzero"/><path fill="#00f3f7" d="M 210.40625 130.234375 L 221.855469 130.234375 L 221.855469 141.6875 L 210.40625 141.6875 L 210.40625 130.234375 " fill-opacity="1" fill-rule="nonzero"/><path fill="#00f3f7" d="M 233.308594 130.234375 L 244.761719 130.234375 L 244.761719 141.6875 L 233.308594 141.6875 L 233.308594 130.234375 " fill-opacity="1" fill-rule="nonzero"/><path fill="#00f3f7" d="M 256.214844 130.234375 L 267.667969 130.234375 L 267.667969 141.6875 L 256.214844 141.6875 L 256.214844 130.234375 " fill-opacity="1" fill-rule="nonzero"/><path fill="#00f3f7" d="M 95.875 176.046875 L 118.78125 176.046875 L 118.78125 95.875 L 95.875 95.875 Z M 130.234375 187.5 L 84.421875 187.5 L 84.421875 84.421875 L 130.234375 84.421875 L 130.234375 187.5 " fill-opacity="1" fill-rule="nonzero"/><path fill="#00f3f7" d="M 67.242188 187.5 L 27.160156 187.5 L 27.160156 84.421875 L 67.242188 84.421875 L 67.242188 95.875 L 38.609375 95.875 L 38.609375 176.046875 L 67.242188 176.046875 L 67.242188 187.5 " fill-opacity="1" fill-rule="nonzero"/><path fill="#00f3f7" d="M 72.96875 198.953125 L 187.5 198.953125 L 187.5 72.96875 L 72.96875 72.96875 Z M 198.953125 210.40625 L 61.515625 210.40625 L 61.515625 61.515625 L 198.953125 61.515625 L 198.953125 210.40625 " fill-opacity="1" fill-rule="nonzero"/></svg>