<svg xmlns="http://www.w3.org/2000/svg" xmlns:xlink="http://www.w3.org/1999/xlink" width="500" zoomAndPan="magnify" viewBox="0 0 375 374.999991" height="500" preserveAspectRatio="xMidYMid meet" version="1.0"><defs><clipPath id="bb2ebe397a"><path d="M 8.117188 8.117188 L 366.617188 8.117188 L 366.617188 343 L 8.117188 343 Z M 8.117188 8.117188 " clip-rule="nonzero"/></clipPath><clipPath id="0f02afcfb3"><path d="M 109 300 L 266 300 L 266 366.617188 L 109 366.617188 Z M 109 300 " clip-rule="nonzero"/></clipPath></defs><g clip-path="url(#bb2ebe397a)"><path fill="#00f3f7" d="M 312.242188 27.777344 C 278.832031 15.070312 234.507812 8.117188 187.496094 8.117188 C 140.484375 8.117188 96.164062 15.070312 62.753906 27.777344 C 27.550781 41.152344 8.117188 59.617188 8.117188 79.871094 L 8.117188 331 C 8.117188 334.289062 10.808594 336.980469 14.097656 336.980469 C 17.386719 336.980469 20.078125 334.289062 20.078125 331 C 20.078125 317.546875 34.128906 304.09375 59.539062 293.105469 C 85.027344 282.121094 119.632812 274.71875 157.601562 272.179688 L 157.601562 336.980469 C 157.601562 340.269531 160.292969 342.960938 163.582031 342.960938 L 211.414062 342.960938 C 214.703125 342.960938 217.394531 340.269531 217.394531 336.980469 L 217.394531 272.179688 C 255.363281 274.71875 289.96875 282.046875 315.453125 293.105469 C 340.867188 304.09375 354.917969 317.546875 354.917969 331 C 354.917969 334.289062 357.609375 336.980469 360.898438 336.980469 C 364.1875 336.980469 366.875 334.289062 366.875 331 L 366.875 79.871094 C 366.875 59.617188 347.445312 41.152344 312.242188 27.777344 Z M 241.3125 23.367188 L 241.3125 95.042969 C 235.109375 94.296875 228.828125 93.695312 222.402344 93.175781 L 218.8125 78.824219 C 217.320312 72.84375 212.910156 68.136719 207.078125 66.191406 L 201.921875 64.472656 L 203.566406 61.183594 C 204.835938 58.71875 205.433594 55.953125 205.433594 53.1875 L 205.433594 38.015625 C 205.433594 34.726562 202.746094 32.035156 199.457031 32.035156 L 187.496094 32.035156 C 177.632812 32.035156 169.558594 40.109375 169.558594 49.972656 L 169.558594 53.113281 C 169.558594 55.878906 170.230469 58.644531 171.429688 61.109375 L 173.074219 64.398438 L 167.914062 66.117188 C 162.085938 68.0625 157.675781 72.769531 156.179688 78.75 L 152.59375 93.097656 C 146.164062 93.621094 139.886719 94.21875 133.683594 94.96875 L 133.683594 23.367188 C 150.800781 21.199219 168.886719 20.078125 187.496094 20.078125 C 206.109375 20.078125 224.195312 21.199219 241.3125 23.367188 Z M 241.3125 108.71875 L 219.5625 168.4375 L 205.433594 164.925781 L 205.433594 159.019531 L 208.875 152.144531 C 210.519531 148.855469 211.414062 145.121094 211.414062 141.457031 L 211.414062 115.746094 C 211.414062 112.457031 208.722656 109.765625 205.433594 109.765625 L 187.496094 109.765625 C 174.34375 109.765625 163.582031 120.53125 163.582031 133.683594 L 163.582031 141.382812 C 163.582031 145.042969 164.476562 148.78125 166.121094 152.070312 L 169.558594 158.945312 L 169.558594 164.851562 L 150.203125 169.710938 C 148.109375 170.230469 146.464844 171.800781 145.867188 173.894531 L 133.683594 216.570312 L 133.683594 107.074219 C 150.800781 104.910156 168.886719 103.789062 187.496094 103.789062 C 206.109375 103.789062 224.195312 104.910156 241.3125 107.074219 Z M 181.519531 253.269531 L 181.519531 308.128906 C 179.648438 307.457031 177.632812 307.082031 175.539062 307.082031 C 173.445312 307.082031 171.429688 307.457031 169.558594 308.128906 L 169.558594 235.332031 L 205.433594 235.332031 L 205.433594 308.128906 C 203.566406 307.457031 201.546875 307.082031 199.457031 307.082031 C 197.363281 307.082031 195.34375 307.457031 193.476562 308.128906 L 193.476562 253.269531 Z M 206.632812 223.375 L 168.363281 223.375 L 158.722656 179.949219 L 173.671875 176.210938 L 174.792969 177.332031 C 178.304688 180.84375 182.863281 182.566406 187.496094 182.566406 C 192.132812 182.566406 196.691406 180.84375 200.203125 177.332031 L 201.324219 176.210938 L 216.273438 179.949219 Z M 199.457031 141.382812 C 199.457031 143.25 199.007812 145.042969 198.183594 146.761719 L 194.074219 154.910156 C 193.625 155.734375 193.476562 156.628906 193.476562 157.601562 L 193.476562 167.09375 L 191.757812 168.8125 C 190.636719 169.933594 189.140625 170.53125 187.496094 170.53125 C 185.851562 170.53125 184.433594 169.933594 183.238281 168.8125 L 181.519531 167.09375 L 181.519531 157.601562 C 181.519531 156.703125 181.292969 155.734375 180.921875 154.910156 L 176.808594 146.761719 C 175.988281 145.121094 175.539062 143.25 175.539062 141.382812 L 175.539062 133.683594 C 175.539062 127.105469 180.921875 121.726562 187.496094 121.726562 L 199.457031 121.726562 Z M 183.386719 73.59375 C 185.03125 73.070312 186.375 71.796875 187.050781 70.226562 C 187.347656 69.480469 187.496094 68.734375 187.496094 67.910156 C 187.496094 68.660156 187.648438 69.480469 187.945312 70.226562 C 188.617188 71.796875 189.964844 73.070312 191.609375 73.59375 L 203.34375 77.476562 C 205.285156 78.152344 206.78125 79.71875 207.230469 81.664062 L 209.917969 92.351562 C 202.519531 91.976562 195.121094 91.828125 187.570312 91.828125 C 180.023438 91.828125 172.550781 91.976562 165.222656 92.351562 L 167.914062 81.664062 C 168.4375 79.644531 169.859375 78.078125 171.800781 77.476562 Z M 181.519531 53.113281 L 181.519531 49.972656 C 181.519531 46.683594 184.207031 43.996094 187.496094 43.996094 L 193.476562 43.996094 L 193.476562 53.113281 C 193.476562 54.007812 193.253906 54.980469 192.878906 55.804688 L 188.171875 65.222656 C 187.722656 66.042969 187.570312 66.941406 187.570312 67.910156 C 187.570312 67.015625 187.347656 66.117188 186.972656 65.222656 L 182.265625 55.804688 C 181.742188 54.980469 181.519531 54.085938 181.519531 53.113281 Z M 20.078125 79.871094 C 20.078125 65.144531 37.191406 50.273438 67.015625 38.988281 C 82.933594 32.933594 101.46875 28.222656 121.726562 25.085938 L 121.726562 96.6875 C 116.042969 97.582031 110.515625 98.554688 105.132812 99.601562 L 104.832031 97.957031 C 103.710938 91.378906 99.152344 86 92.800781 83.90625 L 88.242188 82.410156 L 89.886719 79.121094 C 91.15625 76.65625 91.753906 73.890625 91.753906 71.125 L 91.753906 55.953125 C 91.753906 52.664062 89.0625 49.972656 85.773438 49.972656 L 73.816406 49.972656 C 63.949219 49.972656 55.878906 58.046875 55.878906 67.910156 L 55.878906 71.050781 C 55.878906 73.816406 56.550781 76.582031 57.746094 79.046875 L 59.390625 82.335938 L 54.832031 83.832031 C 48.480469 85.925781 43.917969 91.304688 42.796875 97.882812 L 38.761719 122.773438 C 31.140625 127.257812 24.933594 132.039062 20.078125 137.121094 Z M 69.78125 91.53125 C 71.425781 91.007812 72.769531 89.734375 73.441406 88.167969 C 73.742188 87.417969 73.890625 86.671875 73.890625 85.925781 C 73.890625 86.671875 74.039062 87.492188 74.339844 88.167969 C 75.011719 89.734375 76.355469 91.007812 78 91.53125 L 89.136719 95.265625 C 91.230469 95.941406 92.800781 97.734375 93.175781 99.976562 L 93.546875 102.21875 C 82.5625 104.832031 72.246094 107.972656 62.828125 111.558594 C 59.09375 112.980469 55.503906 114.476562 52.066406 116.042969 L 54.757812 99.976562 C 55.128906 97.808594 56.625 96.015625 58.792969 95.265625 Z M 67.910156 71.050781 L 67.910156 67.910156 C 67.910156 64.621094 70.601562 61.933594 73.890625 61.933594 L 79.871094 61.933594 L 79.871094 71.050781 C 79.871094 71.949219 79.644531 72.917969 79.273438 73.742188 L 74.5625 83.160156 C 74.113281 83.980469 73.964844 84.878906 73.964844 85.847656 C 73.964844 84.953125 73.742188 84.054688 73.367188 83.160156 L 68.660156 73.742188 C 68.136719 72.917969 67.910156 72.023438 67.910156 71.050781 Z M 20.078125 163.582031 C 20.078125 148.855469 37.191406 133.984375 67.015625 122.695312 C 82.933594 116.644531 101.46875 111.933594 121.726562 108.796875 L 121.726562 180.398438 C 116.042969 181.292969 110.515625 182.265625 105.132812 183.3125 L 104.832031 181.667969 C 103.710938 175.089844 99.152344 169.710938 92.800781 167.617188 L 88.242188 166.121094 L 89.886719 162.832031 C 91.15625 160.367188 91.753906 157.601562 91.753906 154.835938 L 91.753906 139.664062 C 91.753906 136.375 89.0625 133.683594 85.773438 133.683594 L 73.816406 133.683594 C 63.949219 133.683594 55.878906 141.753906 55.878906 151.621094 L 55.878906 154.761719 C 55.878906 157.527344 56.550781 160.292969 57.746094 162.757812 L 59.390625 166.046875 L 54.832031 167.542969 C 48.480469 169.632812 43.917969 175.015625 42.796875 181.59375 L 38.761719 206.480469 C 31.140625 210.964844 24.933594 215.75 20.078125 220.832031 Z M 69.78125 175.238281 C 71.425781 174.714844 72.769531 173.445312 73.441406 171.875 C 73.742188 171.128906 73.890625 170.382812 73.890625 169.632812 C 73.890625 170.382812 74.039062 171.203125 74.339844 171.875 C 75.011719 173.445312 76.355469 174.714844 78 175.238281 L 89.136719 178.976562 C 91.230469 179.648438 92.800781 181.445312 93.175781 183.6875 L 93.546875 185.929688 C 78 189.664062 64.023438 194.300781 52.066406 199.679688 L 54.757812 183.6875 C 55.128906 181.519531 56.625 179.722656 58.792969 178.976562 Z M 67.910156 154.761719 L 67.910156 151.621094 C 67.910156 148.332031 70.601562 145.640625 73.890625 145.640625 L 79.871094 145.640625 L 79.871094 154.761719 C 79.871094 155.65625 79.644531 156.628906 79.273438 157.453125 L 74.5625 166.867188 C 74.113281 167.691406 73.964844 168.589844 73.964844 169.558594 C 73.964844 168.664062 73.742188 167.765625 73.367188 166.867188 L 68.660156 157.453125 C 68.136719 156.628906 67.910156 155.734375 67.910156 154.761719 Z M 20.078125 304.394531 L 20.078125 247.289062 C 20.078125 224.195312 61.558594 201.996094 121.726562 192.503906 L 121.726562 264.105469 C 116.042969 265.003906 110.515625 265.976562 105.132812 267.023438 L 104.832031 265.378906 C 103.710938 258.800781 99.152344 253.417969 92.800781 251.328125 L 88.242188 249.832031 L 89.886719 246.542969 C 91.15625 244.078125 91.753906 241.3125 91.753906 238.546875 L 91.753906 223.375 C 91.753906 220.085938 89.0625 217.394531 85.773438 217.394531 L 73.816406 217.394531 C 63.949219 217.394531 55.878906 225.464844 55.878906 235.332031 L 55.878906 238.472656 C 55.878906 241.238281 56.550781 244 57.746094 246.46875 L 59.390625 249.757812 L 54.832031 251.25 C 48.480469 253.34375 43.917969 258.726562 42.796875 265.304688 L 38.761719 290.191406 C 31.140625 294.601562 24.859375 299.386719 20.078125 304.394531 Z M 79.871094 229.351562 L 79.871094 238.472656 C 79.871094 239.367188 79.644531 240.339844 79.273438 241.160156 L 74.5625 250.578125 C 74.113281 251.402344 73.964844 252.296875 73.964844 253.269531 C 73.964844 252.371094 73.742188 251.476562 73.367188 250.578125 L 68.660156 241.160156 C 68.210938 240.339844 68.0625 239.441406 68.0625 238.472656 L 68.0625 235.332031 C 68.0625 232.042969 70.75 229.351562 74.039062 229.351562 Z M 54.832031 282.121094 C 53.859375 282.492188 52.964844 282.941406 52.066406 283.316406 L 54.757812 267.320312 C 55.128906 265.152344 56.625 263.359375 58.792969 262.613281 L 69.929688 258.875 C 71.574219 258.351562 72.917969 257.082031 73.59375 255.511719 C 73.890625 254.765625 74.039062 254.015625 74.039062 253.269531 C 74.039062 254.015625 74.191406 254.839844 74.488281 255.511719 C 75.160156 257.082031 76.507812 258.351562 78.152344 258.875 L 89.289062 262.613281 C 91.378906 263.285156 92.949219 265.078125 93.324219 267.320312 L 93.695312 269.5625 C 79.199219 273 66.191406 277.1875 54.832031 282.121094 Z M 133.683594 262.460938 L 133.683594 260.070312 L 150.875 199.828125 L 157.601562 230.023438 L 157.601562 260.21875 C 149.453125 260.742188 141.457031 261.492188 133.683594 262.460938 Z M 169.558594 325.019531 C 169.558594 321.734375 172.25 319.042969 175.539062 319.042969 C 178.828125 319.042969 181.519531 321.734375 181.519531 325.019531 L 181.519531 331 L 169.558594 331 Z M 193.476562 325.019531 C 193.476562 321.734375 196.167969 319.042969 199.457031 319.042969 C 202.746094 319.042969 205.433594 321.734375 205.433594 325.019531 L 205.433594 331 L 193.476562 331 Z M 217.394531 230.023438 L 229.128906 177.257812 L 241.3125 143.773438 L 241.3125 262.539062 C 233.539062 261.566406 225.539062 260.820312 217.394531 260.296875 Z M 281.523438 269.5625 L 281.894531 267.320312 C 282.269531 265.152344 283.765625 263.359375 285.929688 262.613281 L 297.066406 258.875 C 298.710938 258.351562 300.058594 257.082031 300.730469 255.511719 C 301.03125 254.765625 301.179688 254.015625 301.179688 253.269531 C 301.179688 254.015625 301.328125 254.839844 301.628906 255.511719 C 302.300781 257.082031 303.644531 258.351562 305.289062 258.875 L 316.425781 262.613281 C 318.519531 263.285156 320.089844 265.078125 320.460938 267.320312 L 323.152344 283.316406 C 322.253906 282.867188 321.285156 282.492188 320.386719 282.121094 C 308.800781 277.1875 295.796875 273 281.523438 269.5625 Z M 295.125 238.472656 L 295.125 235.332031 C 295.125 232.042969 297.816406 229.351562 301.105469 229.351562 L 307.082031 229.351562 L 307.082031 238.472656 C 307.082031 239.367188 306.859375 240.339844 306.484375 241.160156 L 301.777344 250.578125 C 301.328125 251.402344 301.179688 252.296875 301.179688 253.269531 C 301.179688 252.371094 300.953125 251.476562 300.582031 250.578125 L 295.871094 241.160156 C 295.347656 240.339844 295.125 239.441406 295.125 238.472656 Z M 354.917969 304.394531 C 350.132812 299.386719 343.855469 294.601562 336.234375 290.191406 L 332.121094 265.378906 C 331 258.800781 326.441406 253.417969 320.089844 251.328125 L 315.527344 249.832031 L 317.171875 246.542969 C 318.445312 244.078125 319.042969 241.3125 319.042969 238.546875 L 319.042969 223.375 C 319.042969 220.085938 316.351562 217.394531 313.0625 217.394531 L 301.105469 217.394531 C 291.238281 217.394531 283.167969 225.464844 283.167969 235.332031 L 283.167969 238.472656 C 283.167969 241.238281 283.839844 244 285.035156 246.46875 L 286.679688 249.757812 L 282.121094 251.25 C 275.765625 253.34375 271.207031 258.726562 270.085938 265.304688 L 269.789062 266.949219 C 264.40625 265.902344 258.875 264.855469 253.195312 264.03125 L 253.195312 192.429688 C 313.363281 201.996094 354.84375 224.121094 354.84375 247.214844 L 354.84375 304.394531 Z M 296.992188 175.238281 C 298.636719 174.714844 299.984375 173.445312 300.65625 171.875 C 300.953125 171.128906 301.105469 170.382812 301.105469 169.632812 C 301.105469 170.382812 301.253906 171.203125 301.550781 171.875 C 302.226562 173.445312 303.570312 174.714844 305.214844 175.238281 L 316.351562 178.976562 C 318.445312 179.648438 320.011719 181.445312 320.386719 183.6875 L 323.078125 199.679688 C 311.121094 194.222656 297.144531 189.589844 281.597656 185.929688 L 281.96875 183.6875 C 282.34375 181.519531 283.839844 179.722656 286.007812 178.976562 Z M 295.125 154.761719 L 295.125 151.621094 C 295.125 148.332031 297.816406 145.640625 301.105469 145.640625 L 307.082031 145.640625 L 307.082031 154.761719 C 307.082031 155.65625 306.859375 156.628906 306.484375 157.453125 L 301.777344 166.867188 C 301.328125 167.691406 301.179688 168.589844 301.179688 169.558594 C 301.179688 168.664062 300.953125 167.765625 300.582031 166.867188 L 295.871094 157.453125 C 295.347656 156.628906 295.125 155.734375 295.125 154.761719 Z M 354.917969 220.757812 C 350.132812 215.675781 343.855469 210.890625 336.234375 206.40625 L 332.121094 181.59375 C 331 175.015625 326.441406 169.632812 320.089844 167.542969 L 315.527344 166.046875 L 317.171875 162.757812 C 318.445312 160.292969 319.042969 157.527344 319.042969 154.761719 L 319.042969 139.664062 C 319.042969 136.375 316.351562 133.683594 313.0625 133.683594 L 301.105469 133.683594 C 291.238281 133.683594 283.167969 141.753906 283.167969 151.621094 L 283.167969 154.761719 C 283.167969 157.527344 283.839844 160.292969 285.035156 162.757812 L 286.679688 166.046875 L 282.121094 167.542969 C 275.765625 169.632812 271.207031 175.015625 270.085938 181.59375 L 269.789062 183.238281 C 264.40625 182.191406 258.875 181.21875 253.195312 180.324219 L 253.195312 108.71875 C 273.449219 111.933594 291.984375 116.644531 307.90625 122.621094 C 337.726562 133.90625 354.84375 148.855469 354.84375 163.503906 L 354.84375 220.757812 Z M 296.992188 91.53125 C 298.636719 91.007812 299.984375 89.734375 300.65625 88.167969 C 300.953125 87.417969 301.105469 86.671875 301.105469 85.925781 C 301.105469 86.671875 301.253906 87.492188 301.550781 88.167969 C 302.226562 89.734375 303.570312 91.007812 305.214844 91.53125 L 316.351562 95.265625 C 318.445312 95.941406 320.011719 97.734375 320.386719 99.976562 L 323.078125 116.042969 C 319.640625 114.476562 316.128906 112.980469 312.316406 111.558594 C 302.898438 107.972656 292.582031 104.832031 281.597656 102.21875 L 281.96875 99.976562 C 282.34375 97.808594 283.839844 96.015625 286.007812 95.265625 Z M 295.125 71.050781 L 295.125 67.910156 C 295.125 64.621094 297.816406 61.933594 301.105469 61.933594 L 307.082031 61.933594 L 307.082031 71.050781 C 307.082031 71.949219 306.859375 72.917969 306.484375 73.742188 L 301.777344 83.160156 C 301.328125 83.980469 301.179688 84.878906 301.179688 85.847656 C 301.179688 84.953125 300.953125 84.054688 300.582031 83.160156 L 295.871094 73.742188 C 295.347656 72.917969 295.125 72.023438 295.125 71.050781 Z M 336.234375 122.773438 L 332.121094 97.957031 C 331 91.378906 326.441406 86 320.089844 83.90625 L 315.527344 82.410156 L 317.171875 79.121094 C 318.445312 76.65625 319.042969 73.890625 319.042969 71.125 L 319.042969 55.953125 C 319.042969 52.664062 316.351562 49.972656 313.0625 49.972656 L 301.105469 49.972656 C 291.238281 49.972656 283.167969 58.046875 283.167969 67.910156 L 283.167969 71.050781 C 283.167969 73.816406 283.839844 76.582031 285.035156 79.046875 L 286.679688 82.335938 L 282.121094 83.832031 C 275.765625 85.925781 271.207031 91.304688 270.085938 97.882812 L 269.789062 99.527344 C 264.40625 98.40625 258.875 97.433594 253.195312 96.613281 L 253.195312 25.011719 C 273.449219 28.222656 291.984375 32.933594 307.90625 38.910156 C 337.800781 50.273438 354.917969 65.144531 354.917969 79.871094 L 354.917969 137.121094 C 350.058594 132.039062 343.855469 127.257812 336.234375 122.773438 Z M 336.234375 122.773438 " fill-opacity="1" fill-rule="nonzero"/></g><g clip-path="url(#0f02afcfb3)"><path fill="#00f3f7" d="M 231.070312 300.953125 L 227.632812 312.390625 C 243.179688 317.023438 253.269531 324.347656 253.269531 330.925781 C 253.269531 342.210938 225.167969 354.84375 187.496094 354.84375 C 149.828125 354.84375 121.726562 342.210938 121.726562 330.925781 C 121.726562 324.347656 131.816406 317.023438 147.363281 312.390625 L 143.921875 300.953125 C 122.25 307.457031 109.765625 318.371094 109.765625 331 L 109.765625 366.875 L 121.726562 366.875 L 121.726562 350.65625 C 135.253906 360.523438 159.171875 366.875 187.496094 366.875 C 215.824219 366.875 239.742188 360.597656 253.269531 350.65625 L 253.269531 366.875 L 265.226562 366.875 L 265.226562 331 C 265.226562 318.445312 252.746094 307.53125 231.070312 300.953125 Z M 231.070312 300.953125 " fill-opacity="1" fill-rule="nonzero"/></g></svg>