<svg xmlns="http://www.w3.org/2000/svg" xmlns:xlink="http://www.w3.org/1999/xlink" width="500" zoomAndPan="magnify" viewBox="0 0 375 374.999991" height="500" preserveAspectRatio="xMidYMid meet" version="1.0"><defs><clipPath id="5b757661c8"><path d="M 22.8125 8.734375 L 352.0625 8.734375 L 352.0625 366.484375 L 22.8125 366.484375 Z M 22.8125 8.734375 " clip-rule="nonzero"/></clipPath></defs><g clip-path="url(#5b757661c8)"><path fill="#00f3f7" d="M 345.171875 8.796875 L 113.914062 8.796875 C 110.042969 8.796875 106.90625 11.9375 106.90625 15.804688 L 106.90625 36.828125 L 85.882812 36.828125 C 82.011719 36.828125 78.875 39.96875 78.875 43.835938 L 78.875 208.339844 C 63.773438 216.257812 46.898438 220.433594 29.820312 220.433594 C 25.949219 220.433594 22.8125 223.574219 22.8125 227.441406 L 22.8125 249.285156 C 22.8125 287.039062 44.824219 321.085938 78.875 336.695312 L 78.875 359.1875 C 78.875 363.058594 82.011719 366.195312 85.882812 366.195312 L 317.140625 366.195312 C 321.007812 366.195312 324.148438 363.058594 324.148438 359.1875 L 324.148438 338.164062 L 345.171875 338.164062 C 349.039062 338.164062 352.179688 335.027344 352.179688 331.15625 L 352.179688 15.804688 C 352.179688 11.9375 349.039062 8.796875 345.171875 8.796875 Z M 36.828125 249.285156 L 36.828125 234.242188 C 53.949219 233.234375 70.722656 228.539062 85.882812 220.496094 C 101.046875 228.539062 117.816406 233.234375 134.9375 234.242188 L 134.9375 249.285156 C 134.9375 282.140625 115.777344 311.359375 85.882812 324.492188 C 55.984375 311.359375 36.828125 282.140625 36.828125 249.285156 Z M 92.890625 352.179688 L 92.890625 336.691406 C 126.9375 321.085938 148.953125 287.042969 148.953125 249.285156 L 148.953125 227.441406 C 148.953125 223.574219 145.8125 220.433594 141.945312 220.433594 C 124.871094 220.433594 107.996094 216.261719 92.890625 208.339844 L 92.890625 50.84375 L 254.070312 50.84375 L 254.070312 99.898438 C 254.070312 103.769531 257.207031 106.90625 261.078125 106.90625 L 310.132812 106.90625 L 310.132812 352.179688 Z M 300.222656 92.890625 L 268.085938 92.890625 L 268.085938 60.757812 Z M 338.164062 324.148438 L 324.148438 324.148438 L 324.148438 99.898438 C 324.148438 98.019531 323.378906 96.226562 322.09375 94.945312 L 266.03125 38.882812 C 264.769531 37.621094 262.984375 36.828125 261.078125 36.828125 L 120.921875 36.828125 L 120.921875 22.8125 L 338.164062 22.8125 Z M 338.164062 324.148438 " fill-opacity="1" fill-rule="nonzero"/></g><path fill="#00f3f7" d="M 113.5625 250.292969 C 110.824219 247.558594 106.390625 247.558594 103.648438 250.292969 L 74.519531 279.425781 L 68.113281 273.015625 C 65.375 270.28125 60.9375 270.28125 58.203125 273.015625 C 55.464844 275.753906 55.464844 280.191406 58.203125 282.929688 L 69.5625 294.289062 C 72.300781 297.027344 76.738281 297.027344 79.476562 294.289062 L 113.5625 260.203125 C 116.296875 257.46875 116.296875 253.03125 113.5625 250.292969 Z M 113.5625 250.292969 " fill-opacity="1" fill-rule="nonzero"/><path fill="#00f3f7" d="M 289.109375 282.101562 L 266.332031 282.101562 L 266.332031 268.085938 C 266.332031 264.21875 263.195312 261.078125 259.324219 261.078125 L 236.550781 261.078125 L 236.550781 247.0625 C 236.550781 243.195312 233.410156 240.054688 229.542969 240.054688 L 206.765625 240.054688 L 206.765625 226.039062 C 206.765625 222.171875 203.628906 219.03125 199.757812 219.03125 L 169.976562 219.03125 C 166.105469 219.03125 162.96875 222.171875 162.96875 226.039062 L 162.96875 331.15625 C 162.96875 335.027344 166.105469 338.164062 169.976562 338.164062 C 198.042969 338.164062 262.472656 338.164062 289.109375 338.164062 C 292.976562 338.164062 296.117188 335.027344 296.117188 331.15625 L 296.117188 289.109375 C 296.117188 285.242188 292.976562 282.101562 289.109375 282.101562 Z M 176.984375 233.046875 L 192.75 233.046875 L 192.75 324.148438 L 176.984375 324.148438 Z M 206.765625 254.070312 L 222.535156 254.070312 C 222.535156 261.007812 222.535156 316.191406 222.535156 324.148438 L 206.765625 324.148438 Z M 236.550781 275.09375 L 252.316406 275.09375 C 252.316406 288.347656 252.316406 315.421875 252.316406 324.148438 L 236.550781 324.148438 Z M 282.101562 324.148438 L 266.332031 324.148438 L 266.332031 296.117188 L 282.101562 296.117188 Z M 282.101562 324.148438 " fill-opacity="1" fill-rule="nonzero"/><path fill="#00f3f7" d="M 289.109375 120.921875 L 113.914062 120.921875 C 110.042969 120.921875 106.90625 124.0625 106.90625 127.929688 L 106.90625 198.007812 C 106.90625 201.878906 110.042969 205.015625 113.914062 205.015625 L 289.109375 205.015625 C 292.976562 205.015625 296.117188 201.878906 296.117188 198.007812 L 296.117188 127.929688 C 296.117188 124.0625 292.976562 120.921875 289.109375 120.921875 Z M 282.101562 148.953125 L 205.015625 148.953125 L 205.015625 134.9375 L 282.101562 134.9375 Z M 191 191 L 162.96875 191 L 162.96875 134.9375 L 191 134.9375 Z M 120.921875 134.9375 L 148.953125 134.9375 L 148.953125 191 L 120.921875 191 Z M 205.015625 191 L 205.015625 162.96875 L 282.101562 162.96875 L 282.101562 191 Z M 205.015625 191 " fill-opacity="1" fill-rule="nonzero"/><path fill="#00f3f7" d="M 113.914062 106.90625 L 233.046875 106.90625 C 236.914062 106.90625 240.054688 103.769531 240.054688 99.898438 L 240.054688 71.867188 C 240.054688 68 236.914062 64.859375 233.046875 64.859375 L 113.914062 64.859375 C 110.042969 64.859375 106.90625 68 106.90625 71.867188 L 106.90625 99.898438 C 106.90625 103.769531 110.042969 106.90625 113.914062 106.90625 Z M 120.921875 78.875 L 226.039062 78.875 L 226.039062 92.890625 L 120.921875 92.890625 Z M 120.921875 78.875 " fill-opacity="1" fill-rule="nonzero"/></svg>