<svg xmlns="http://www.w3.org/2000/svg" xmlns:xlink="http://www.w3.org/1999/xlink" width="500" zoomAndPan="magnify" viewBox="0 0 375 374.999991" height="500" preserveAspectRatio="xMidYMid meet" version="1.0"><defs><clipPath id="788def89f9"><path d="M 24 74.003906 L 355 74.003906 L 355 276 L 24 276 Z M 24 74.003906 " clip-rule="nonzero"/></clipPath><clipPath id="ea21087dff"><path d="M 3.703125 281 L 371.203125 281 L 371.203125 301 L 3.703125 301 Z M 3.703125 281 " clip-rule="nonzero"/></clipPath></defs><g clip-path="url(#788def89f9)"><path fill="#00f3f7" d="M 31.984375 275.207031 L 347.210938 275.207031 C 351.128906 275.207031 354.300781 272.035156 354.300781 268.117188 L 354.300781 81.105469 C 354.300781 77.1875 351.128906 74.015625 347.210938 74.015625 L 31.984375 74.015625 C 28.066406 74.015625 24.890625 77.1875 24.890625 81.105469 L 24.890625 268.089844 C 24.890625 272.007812 28.066406 275.207031 31.984375 275.207031 Z M 189.582031 76.441406 C 190.714844 76.441406 191.625 77.351562 191.625 78.484375 C 191.625 79.613281 190.714844 80.523438 189.582031 80.523438 C 188.449219 80.523438 187.539062 79.613281 187.539062 78.484375 C 187.539062 77.378906 188.480469 76.441406 189.582031 76.441406 Z M 33.722656 82.84375 L 345.472656 82.84375 L 345.472656 266.351562 L 33.722656 266.351562 Z M 33.722656 82.84375 " fill-opacity="1" fill-rule="nonzero"/></g><g clip-path="url(#ea21087dff)"><path fill="#00f3f7" d="M 371.296875 281.746094 L 217.753906 281.746094 C 217.753906 285.332031 214.855469 288.230469 211.269531 288.230469 L 173.109375 288.230469 C 169.523438 288.230469 166.625 285.332031 166.625 281.746094 L 3.703125 281.746094 L 3.703125 290.1875 L 4.171875 290.1875 C 3.867188 291.042969 3.703125 291.980469 3.703125 292.949219 C 3.703125 297.390625 7.289062 300.976562 11.730469 300.976562 L 363.265625 300.976562 C 367.710938 300.976562 371.296875 297.390625 371.296875 292.949219 C 371.296875 291.980469 371.128906 291.070312 370.828125 290.1875 L 371.296875 290.1875 Z M 371.296875 281.746094 " fill-opacity="1" fill-rule="nonzero"/></g><path fill="#00f3f7" d="M 301.132812 145.003906 L 301.132812 108.476562 C 301.132812 106.101562 299.199219 104.199219 296.855469 104.199219 L 77.34375 104.199219 C 74.96875 104.199219 73.066406 106.128906 73.066406 108.476562 L 73.066406 148.921875 L 73.148438 148.921875 L 73.148438 256.941406 L 301.1875 256.941406 L 301.1875 145.003906 Z M 274.453125 121.027344 L 287.476562 121.027344 L 287.476562 134.050781 L 274.453125 134.050781 Z M 254.53125 121.027344 L 267.554688 121.027344 L 267.554688 134.050781 L 254.53125 134.050781 Z M 234.582031 121.027344 L 247.605469 121.027344 L 247.605469 134.050781 L 234.582031 134.050781 Z M 293.324219 249.078125 L 81.011719 249.078125 L 81.011719 152.867188 L 293.324219 152.867188 Z M 293.324219 249.078125 " fill-opacity="1" fill-rule="nonzero"/><path fill="#00f3f7" d="M 171.925781 182.695312 C 173.191406 182.695312 174.019531 181.785156 174.019531 180.570312 C 173.992188 179.273438 173.164062 178.417969 171.953125 178.417969 C 170.710938 178.417969 169.855469 179.300781 169.855469 180.570312 C 169.882812 181.785156 170.738281 182.695312 171.925781 182.695312 Z M 171.925781 182.695312 " fill-opacity="1" fill-rule="nonzero"/><path fill="#00f3f7" d="M 179.539062 177.726562 C 179.539062 175.191406 179.484375 172.980469 179.375 170.886719 L 179.457031 170.886719 C 180.203125 172.707031 181.25 174.75 182.160156 176.402344 L 185.527344 182.445312 L 189.222656 182.445312 L 189.222656 166.800781 L 185.96875 166.800781 L 185.96875 171.355469 C 185.96875 173.726562 186.050781 175.824219 186.242188 177.894531 L 186.1875 177.894531 C 185.472656 176.128906 184.5625 174.195312 183.648438 172.539062 L 180.394531 166.800781 L 176.253906 166.800781 L 176.253906 182.445312 L 179.511719 182.445312 L 179.511719 177.726562 Z M 179.539062 177.726562 " fill-opacity="1" fill-rule="nonzero"/><path fill="#00f3f7" d="M 202.273438 179.550781 L 195.84375 179.550781 L 195.84375 175.824219 L 201.585938 175.824219 L 201.585938 172.953125 L 195.84375 172.953125 L 195.84375 169.699219 L 201.941406 169.699219 L 201.941406 166.800781 L 192.3125 166.800781 L 192.3125 182.445312 L 202.273438 182.445312 Z M 202.273438 179.550781 " fill-opacity="1" fill-rule="nonzero"/><path fill="#00f3f7" d="M 207.820312 182.445312 L 211.351562 182.445312 L 211.351562 169.78125 L 215.628906 169.78125 L 215.628906 166.800781 L 203.597656 166.800781 L 203.597656 169.78125 L 207.820312 169.78125 Z M 207.820312 182.445312 " fill-opacity="1" fill-rule="nonzero"/><path fill="#00f3f7" d="M 171.980469 204.464844 C 170.738281 204.464844 169.882812 205.347656 169.882812 206.617188 C 169.882812 207.855469 170.738281 208.738281 171.925781 208.738281 C 173.191406 208.738281 174.019531 207.828125 174.019531 206.617188 C 174.019531 205.320312 173.191406 204.464844 171.980469 204.464844 Z M 171.980469 204.464844 " fill-opacity="1" fill-rule="nonzero"/><path fill="#00f3f7" d="M 183.179688 192.597656 C 178.601562 192.597656 175.566406 196.101562 175.566406 200.792969 C 175.566406 205.261719 178.296875 208.769531 182.90625 208.769531 C 187.484375 208.769531 190.574219 205.675781 190.574219 200.546875 C 190.601562 196.1875 187.980469 192.597656 183.179688 192.597656 Z M 183.097656 205.953125 C 180.726562 205.953125 179.289062 203.800781 179.289062 200.710938 C 179.289062 197.675781 180.671875 195.414062 183.097656 195.414062 C 185.527344 195.414062 186.851562 197.8125 186.851562 200.65625 C 186.878906 203.664062 185.5 205.953125 183.097656 205.953125 Z M 183.097656 205.953125 " fill-opacity="1" fill-rule="nonzero"/><path fill="#00f3f7" d="M 201.390625 201.179688 L 201.390625 201.097656 C 202.742188 200.601562 204.148438 199.25 204.148438 197.261719 C 204.148438 195.828125 203.652344 194.722656 202.6875 193.980469 C 201.585938 193.097656 199.957031 192.738281 197.640625 192.738281 C 195.734375 192.738281 194.078125 192.875 192.921875 193.070312 L 192.921875 208.492188 L 196.425781 208.492188 L 196.425781 202.339844 L 197.472656 202.339844 C 198.933594 202.367188 199.597656 202.863281 200.039062 204.851562 C 200.480469 206.78125 200.867188 208.023438 201.113281 208.492188 L 204.730469 208.492188 C 204.425781 207.886719 203.957031 205.84375 203.488281 204.050781 C 203.074219 202.613281 202.46875 201.59375 201.390625 201.179688 Z M 197.804688 199.800781 L 196.425781 199.800781 L 196.425781 195.496094 C 196.671875 195.414062 197.167969 195.386719 198.023438 195.386719 C 199.652344 195.386719 200.617188 196.132812 200.617188 197.539062 C 200.617188 198.917969 199.570312 199.800781 197.804688 199.800781 Z M 197.804688 199.800781 " fill-opacity="1" fill-rule="nonzero"/><path fill="#00f3f7" d="M 214.773438 195.632812 C 216.484375 195.632812 217.53125 195.910156 218.386719 196.296875 L 219.132812 193.453125 C 218.359375 193.097656 216.8125 192.710938 214.800781 192.710938 C 209.667969 192.710938 205.886719 195.691406 205.859375 200.875 C 205.859375 203.167969 206.660156 205.207031 208.066406 206.589844 C 209.503906 207.96875 211.570312 208.683594 214.414062 208.683594 C 216.484375 208.683594 218.550781 208.1875 219.628906 207.800781 L 219.628906 199.550781 L 213.808594 199.550781 L 213.808594 202.3125 L 216.207031 202.3125 L 216.207031 205.59375 C 215.929688 205.707031 215.269531 205.816406 214.496094 205.816406 C 211.601562 205.816406 209.558594 203.9375 209.558594 200.683594 C 209.558594 197.261719 211.820312 195.632812 214.773438 195.632812 Z M 214.773438 195.632812 " fill-opacity="1" fill-rule="nonzero"/><path fill="#00f3f7" d="M 171.980469 230.507812 C 170.738281 230.507812 169.882812 231.390625 169.882812 232.660156 C 169.882812 233.902344 170.738281 234.785156 171.925781 234.785156 C 173.191406 234.785156 174.019531 233.875 174.019531 232.660156 C 174.019531 231.363281 173.191406 230.507812 171.980469 230.507812 Z M 171.980469 230.507812 " fill-opacity="1" fill-rule="nonzero"/><path fill="#00f3f7" d="M 184.257812 221.597656 C 185.527344 221.597656 186.519531 221.875 187.238281 222.175781 L 187.980469 219.390625 C 187.347656 219.03125 185.96875 218.699219 184.121094 218.699219 C 179.402344 218.699219 175.59375 221.652344 175.59375 226.976562 C 175.59375 231.417969 178.378906 234.8125 183.789062 234.8125 C 185.664062 234.8125 187.152344 234.453125 187.789062 234.152344 L 187.292969 231.363281 C 186.574219 231.667969 185.414062 231.859375 184.3125 231.859375 C 181.195312 231.859375 179.320312 229.902344 179.320312 226.757812 C 179.289062 223.28125 181.46875 221.597656 184.257812 221.597656 Z M 184.257812 221.597656 " fill-opacity="1" fill-rule="nonzero"/><path fill="#00f3f7" d="M 196.285156 218.644531 C 191.707031 218.644531 188.671875 222.148438 188.671875 226.839844 C 188.671875 231.308594 191.402344 234.8125 196.011719 234.8125 C 200.589844 234.8125 203.679688 231.722656 203.679688 226.589844 C 203.707031 222.230469 201.085938 218.644531 196.285156 218.644531 Z M 196.203125 232 C 193.832031 232 192.394531 229.847656 192.394531 226.757812 C 192.394531 223.722656 193.777344 221.460938 196.203125 221.460938 C 198.632812 221.460938 199.957031 223.859375 199.957031 226.703125 C 199.957031 229.738281 198.605469 232 196.203125 232 Z M 196.203125 232 " fill-opacity="1" fill-rule="nonzero"/><path fill="#00f3f7" d="M 222.085938 218.921875 L 217.449219 218.921875 L 215.792969 224.109375 C 215.269531 225.847656 214.71875 227.914062 214.304688 229.710938 L 214.222656 229.710938 C 213.863281 227.886719 213.421875 225.929688 212.898438 224.109375 L 211.378906 218.894531 L 206.660156 218.894531 L 205.667969 234.539062 L 208.949219 234.539062 L 209.253906 228.605469 C 209.335938 226.648438 209.449219 224.246094 209.503906 222.121094 L 209.558594 222.121094 C 209.945312 224.164062 210.46875 226.398438 210.964844 228.246094 L 212.648438 234.289062 L 215.40625 234.289062 L 217.3125 228.191406 C 217.917969 226.371094 218.550781 224.136719 219.078125 222.148438 L 219.132812 222.148438 C 219.132812 224.410156 219.214844 226.703125 219.269531 228.578125 L 219.519531 234.566406 L 222.941406 234.566406 Z M 222.085938 218.921875 " fill-opacity="1" fill-rule="nonzero"/><path fill="#00f3f7" d="M 153.90625 182.5 L 142.675781 182.5 C 140.855469 182.5 139.394531 181.039062 139.394531 179.21875 L 139.394531 170.222656 C 139.394531 168.402344 140.855469 166.941406 142.675781 166.941406 L 153.90625 166.941406 C 155.726562 166.941406 157.191406 168.402344 157.191406 170.222656 L 157.191406 179.21875 C 157.191406 181.011719 155.726562 182.5 153.90625 182.5 Z M 142.675781 168.484375 C 141.710938 168.484375 140.9375 169.257812 140.9375 170.222656 L 140.9375 179.21875 C 140.9375 180.183594 141.710938 180.957031 142.675781 180.957031 L 153.90625 180.957031 C 154.871094 180.957031 155.644531 180.183594 155.644531 179.21875 L 155.644531 170.222656 C 155.644531 169.257812 154.871094 168.484375 153.90625 168.484375 Z M 142.675781 168.484375 " fill-opacity="1" fill-rule="nonzero"/><path fill="#00f3f7" d="M 153.90625 208.242188 L 142.675781 208.242188 C 140.855469 208.242188 139.394531 206.78125 139.394531 204.960938 L 139.394531 195.964844 C 139.394531 194.144531 140.855469 192.683594 142.675781 192.683594 L 153.90625 192.683594 C 155.726562 192.683594 157.191406 194.144531 157.191406 195.964844 L 157.191406 204.960938 C 157.191406 206.753906 155.726562 208.242188 153.90625 208.242188 Z M 142.675781 194.226562 C 141.710938 194.226562 140.9375 195 140.9375 195.964844 L 140.9375 204.960938 C 140.9375 205.925781 141.710938 206.699219 142.675781 206.699219 L 153.90625 206.699219 C 154.871094 206.699219 155.644531 205.925781 155.644531 204.960938 L 155.644531 195.964844 C 155.644531 195 154.871094 194.226562 153.90625 194.226562 Z M 142.675781 194.226562 " fill-opacity="1" fill-rule="nonzero"/><path fill="#00f3f7" d="M 153.90625 233.984375 L 142.675781 233.984375 C 140.855469 233.984375 139.394531 232.523438 139.394531 230.703125 L 139.394531 221.707031 C 139.394531 219.886719 140.855469 218.425781 142.675781 218.425781 L 153.90625 218.425781 C 155.726562 218.425781 157.191406 219.886719 157.191406 221.707031 L 157.191406 230.703125 C 157.191406 232.496094 155.726562 233.984375 153.90625 233.984375 Z M 142.675781 219.96875 C 141.710938 219.96875 140.9375 220.742188 140.9375 221.707031 L 140.9375 230.703125 C 140.9375 231.667969 141.710938 232.441406 142.675781 232.441406 L 153.90625 232.441406 C 154.871094 232.441406 155.644531 231.667969 155.644531 230.703125 L 155.644531 221.707031 C 155.644531 220.742188 154.871094 219.96875 153.90625 219.96875 Z M 142.675781 219.96875 " fill-opacity="1" fill-rule="nonzero"/><path fill="#00f3f7" d="M 247.769531 205.261719 C 247.964844 205.484375 247.9375 205.789062 247.714844 205.980469 L 246.199219 207.277344 C 245.976562 207.472656 245.675781 207.441406 245.480469 207.222656 C 245.289062 207 245.316406 206.699219 245.535156 206.503906 L 247.054688 205.207031 C 247.273438 205.015625 247.578125 205.042969 247.769531 205.261719 Z M 247.769531 205.261719 " fill-opacity="1" fill-rule="nonzero"/><path fill="#00f3f7" d="M 240.652344 207.113281 C 240.433594 207.304688 240.128906 207.277344 239.9375 207.058594 L 238.640625 205.539062 C 238.445312 205.320312 238.472656 205.015625 238.695312 204.820312 C 238.914062 204.628906 239.21875 204.65625 239.410156 204.878906 L 240.707031 206.394531 C 240.902344 206.644531 240.875 206.945312 240.652344 207.113281 Z M 240.652344 207.113281 " fill-opacity="1" fill-rule="nonzero"/><path fill="#00f3f7" d="M 240.019531 211.914062 C 240.210938 212.132812 240.183594 212.4375 239.964844 212.628906 L 238.445312 213.925781 C 238.226562 214.121094 237.921875 214.09375 237.726562 213.871094 C 237.535156 213.652344 237.5625 213.347656 237.785156 213.15625 L 239.300781 211.859375 C 239.523438 211.691406 239.824219 211.691406 240.019531 211.914062 Z M 240.019531 211.914062 " fill-opacity="1" fill-rule="nonzero"/><path fill="#00f3f7" d="M 243.191406 203.167969 C 243.46875 203.195312 243.660156 203.414062 243.660156 203.691406 L 243.523438 205.675781 C 243.496094 205.953125 243.273438 206.148438 243 206.148438 C 242.722656 206.117188 242.527344 205.898438 242.527344 205.621094 L 242.667969 203.636719 C 242.695312 203.359375 242.914062 203.140625 243.191406 203.167969 Z M 243.191406 203.167969 " fill-opacity="1" fill-rule="nonzero"/><path fill="#00f3f7" d="M 236.320312 209.238281 C 236.292969 209.511719 236.515625 209.761719 236.789062 209.761719 L 238.777344 209.898438 C 239.050781 209.925781 239.300781 209.707031 239.300781 209.429688 C 239.328125 209.152344 239.109375 208.90625 238.832031 208.90625 L 236.84375 208.769531 C 236.597656 208.769531 236.347656 208.960938 236.320312 209.238281 Z M 236.320312 209.238281 " fill-opacity="1" fill-rule="nonzero"/><path fill="#00f3f7" d="M 260.90625 218.839844 L 251.6875 214.09375 L 242.5 209.347656 L 245.976562 219.085938 L 249.425781 228.828125 L 253.425781 224.136719 L 257.785156 229.128906 L 260.078125 227.199219 L 255.691406 222.175781 Z M 260.90625 218.839844 " fill-opacity="1" fill-rule="nonzero"/><path fill="#00f3f7" d="M 257.730469 229.738281 L 253.425781 224.796875 L 249.261719 229.710938 L 241.730469 208.4375 L 261.789062 218.78125 L 256.378906 222.257812 L 260.738281 227.253906 Z M 253.425781 223.445312 L 257.84375 228.496094 L 259.441406 227.144531 L 255 222.066406 L 260.023438 218.867188 L 243.300781 210.230469 L 249.59375 227.972656 Z M 253.425781 223.445312 " fill-opacity="1" fill-rule="nonzero"/></svg>