<svg xmlns="http://www.w3.org/2000/svg" xmlns:xlink="http://www.w3.org/1999/xlink" width="500" zoomAndPan="magnify" viewBox="0 0 375 374.999991" height="500" preserveAspectRatio="xMidYMid meet" version="1.0"><defs><clipPath id="4a8e1622f9"><path d="M 3.0625 24.042969 L 372.0625 24.042969 L 372.0625 351 L 3.0625 351 Z M 3.0625 24.042969 " clip-rule="nonzero"/></clipPath></defs><path fill="#00f3f7" d="M 48.980469 107.957031 L 110.183594 107.957031 C 110.582031 107.914062 110.972656 107.835938 111.355469 107.726562 C 111.738281 107.613281 112.109375 107.464844 112.46875 107.28125 C 112.824219 107.101562 113.160156 106.890625 113.480469 106.644531 C 113.796875 106.402344 114.089844 106.132812 114.359375 105.835938 C 114.625 105.535156 114.867188 105.21875 115.074219 104.875 C 115.285156 104.535156 115.460938 104.175781 115.605469 103.804688 C 115.75 103.429688 115.855469 103.046875 115.929688 102.652344 C 116.003906 102.257812 116.039062 101.863281 116.039062 101.460938 C 116.039062 101.0625 116.003906 100.664062 115.929688 100.269531 C 115.855469 99.875 115.75 99.492188 115.605469 99.117188 C 115.460938 98.746094 115.285156 98.386719 115.074219 98.046875 C 114.867188 97.703125 114.625 97.386719 114.359375 97.089844 C 114.089844 96.789062 113.796875 96.519531 113.480469 96.277344 C 113.160156 96.035156 112.824219 95.820312 112.46875 95.640625 C 112.109375 95.457031 111.738281 95.3125 111.355469 95.199219 C 110.972656 95.085938 110.582031 95.007812 110.183594 94.964844 L 48.980469 94.964844 C 48.527344 94.917969 48.070312 94.917969 47.617188 94.96875 C 47.164062 95.015625 46.71875 95.113281 46.285156 95.253906 C 45.847656 95.394531 45.433594 95.582031 45.039062 95.808594 C 44.644531 96.039062 44.273438 96.304688 43.9375 96.613281 C 43.597656 96.917969 43.292969 97.257812 43.023438 97.625 C 42.753906 97.996094 42.527344 98.390625 42.34375 98.808594 C 42.15625 99.226562 42.015625 99.65625 41.921875 100.105469 C 41.828125 100.550781 41.777344 101.003906 41.777344 101.460938 C 41.777344 101.917969 41.828125 102.371094 41.921875 102.816406 C 42.015625 103.265625 42.15625 103.695312 42.34375 104.113281 C 42.527344 104.53125 42.753906 104.925781 43.023438 105.296875 C 43.292969 105.667969 43.597656 106.003906 43.9375 106.308594 C 44.273438 106.617188 44.644531 106.882812 45.039062 107.113281 C 45.433594 107.34375 45.847656 107.527344 46.285156 107.667969 C 46.71875 107.8125 47.164062 107.90625 47.617188 107.953125 C 48.070312 108.003906 48.527344 108.003906 48.980469 107.957031 Z M 48.980469 107.957031 " fill-opacity="1" fill-rule="nonzero"/><path fill="#00f3f7" d="M 48.980469 75.238281 L 119.628906 75.238281 C 120.085938 75.285156 120.539062 75.285156 120.992188 75.234375 C 121.449219 75.1875 121.894531 75.09375 122.328125 74.949219 C 122.761719 74.808594 123.175781 74.621094 123.574219 74.394531 C 123.96875 74.164062 124.335938 73.898438 124.675781 73.589844 C 125.015625 73.285156 125.320312 72.945312 125.585938 72.578125 C 125.855469 72.207031 126.082031 71.8125 126.269531 71.394531 C 126.453125 70.976562 126.59375 70.546875 126.691406 70.097656 C 126.785156 69.652344 126.832031 69.199219 126.832031 68.742188 C 126.832031 68.285156 126.785156 67.832031 126.691406 67.386719 C 126.59375 66.9375 126.453125 66.507812 126.269531 66.089844 C 126.082031 65.671875 125.855469 65.277344 125.585938 64.90625 C 125.320312 64.535156 125.015625 64.199219 124.675781 63.894531 C 124.335938 63.585938 123.96875 63.320312 123.574219 63.089844 C 123.175781 62.859375 122.761719 62.675781 122.328125 62.535156 C 121.894531 62.390625 121.449219 62.296875 120.992188 62.25 C 120.539062 62.199219 120.085938 62.199219 119.628906 62.246094 L 48.980469 62.246094 C 48.527344 62.199219 48.070312 62.199219 47.617188 62.25 C 47.164062 62.296875 46.71875 62.390625 46.285156 62.535156 C 45.847656 62.675781 45.433594 62.859375 45.039062 63.089844 C 44.644531 63.320312 44.273438 63.585938 43.9375 63.894531 C 43.597656 64.199219 43.292969 64.535156 43.023438 64.90625 C 42.753906 65.277344 42.527344 65.671875 42.34375 66.089844 C 42.15625 66.507812 42.015625 66.9375 41.921875 67.386719 C 41.828125 67.832031 41.777344 68.285156 41.777344 68.742188 C 41.777344 69.199219 41.828125 69.652344 41.921875 70.097656 C 42.015625 70.546875 42.15625 70.976562 42.34375 71.394531 C 42.527344 71.8125 42.753906 72.207031 43.023438 72.578125 C 43.292969 72.945312 43.597656 73.285156 43.9375 73.589844 C 44.273438 73.898438 44.644531 74.164062 45.039062 74.394531 C 45.433594 74.621094 45.847656 74.808594 46.285156 74.949219 C 46.71875 75.09375 47.164062 75.1875 47.617188 75.234375 C 48.070312 75.285156 48.527344 75.285156 48.980469 75.238281 Z M 48.980469 75.238281 " fill-opacity="1" fill-rule="nonzero"/><path fill="#00f3f7" d="M 330.394531 111.847656 C 330.390625 110.847656 330.316406 109.851562 330.171875 108.863281 C 330.027344 107.875 329.8125 106.902344 329.527344 105.941406 C 329.242188 104.984375 328.890625 104.050781 328.46875 103.144531 C 328.050781 102.238281 327.566406 101.363281 327.023438 100.527344 C 326.476562 99.6875 325.875 98.894531 325.214844 98.140625 C 324.558594 97.390625 323.847656 96.691406 323.085938 96.042969 C 322.328125 95.390625 321.523438 94.800781 320.679688 94.265625 C 319.832031 93.734375 318.953125 93.261719 318.042969 92.855469 C 317.128906 92.449219 316.191406 92.109375 315.230469 91.835938 C 314.269531 91.5625 313.292969 91.363281 312.300781 91.230469 C 311.308594 91.097656 310.3125 91.039062 309.316406 91.050781 C 308.316406 91.0625 307.320312 91.144531 306.332031 91.296875 C 305.347656 91.453125 304.375 91.675781 303.417969 91.972656 C 302.464844 92.265625 301.535156 92.628906 300.632812 93.054688 C 299.726562 93.484375 298.859375 93.972656 298.027344 94.527344 C 297.195312 95.078125 296.40625 95.6875 295.660156 96.355469 L 267.386719 80.167969 C 267.605469 79.023438 267.722656 77.863281 267.734375 76.695312 C 267.734375 76.011719 267.699219 75.332031 267.632812 74.652344 C 267.566406 73.972656 267.464844 73.300781 267.332031 72.628906 C 267.199219 71.960938 267.035156 71.300781 266.835938 70.648438 C 266.636719 69.992188 266.410156 69.351562 266.148438 68.722656 C 265.886719 68.089844 265.59375 67.472656 265.273438 66.871094 C 264.953125 66.269531 264.601562 65.683594 264.222656 65.117188 C 263.84375 64.550781 263.4375 64.003906 263.003906 63.476562 C 262.570312 62.949219 262.113281 62.441406 261.628906 61.960938 C 261.148438 61.476562 260.640625 61.019531 260.113281 60.585938 C 259.585938 60.152344 259.039062 59.746094 258.472656 59.367188 C 257.902344 58.988281 257.320312 58.636719 256.71875 58.316406 C 256.117188 57.996094 255.5 57.703125 254.867188 57.441406 C 254.238281 57.179688 253.597656 56.953125 252.941406 56.753906 C 252.289062 56.554688 251.628906 56.390625 250.960938 56.257812 C 250.289062 56.125 249.617188 56.023438 248.9375 55.957031 C 248.257812 55.890625 247.574219 55.855469 246.894531 55.855469 C 246.210938 55.855469 245.53125 55.890625 244.851562 55.957031 C 244.171875 56.023438 243.496094 56.125 242.828125 56.257812 C 242.160156 56.390625 241.496094 56.554688 240.84375 56.753906 C 240.191406 56.953125 239.550781 57.179688 238.917969 57.441406 C 238.289062 57.703125 237.671875 57.996094 237.070312 58.316406 C 236.46875 58.636719 235.882812 58.988281 235.316406 59.367188 C 234.746094 59.746094 234.199219 60.152344 233.671875 60.585938 C 233.144531 61.019531 232.640625 61.476562 232.15625 61.960938 C 231.675781 62.441406 231.21875 62.949219 230.785156 63.476562 C 230.351562 64.003906 229.945312 64.550781 229.566406 65.117188 C 229.1875 65.683594 228.835938 66.269531 228.515625 66.871094 C 228.191406 67.472656 227.902344 68.089844 227.640625 68.722656 C 227.378906 69.351562 227.148438 69.992188 226.949219 70.648438 C 226.753906 71.300781 226.585938 71.960938 226.453125 72.628906 C 226.320312 73.300781 226.21875 73.972656 226.152344 74.652344 C 226.085938 75.332031 226.054688 76.011719 226.054688 76.695312 C 225.949219 77.855469 225.949219 79.011719 226.054688 80.167969 L 197.570312 96.5625 C 197.003906 96.023438 196.40625 95.515625 195.777344 95.042969 C 195.152344 94.566406 194.5 94.128906 193.824219 93.730469 C 193.148438 93.332031 192.453125 92.96875 191.738281 92.648438 C 191.019531 92.328125 190.289062 92.046875 189.539062 91.808594 C 188.792969 91.570312 188.03125 91.375 187.261719 91.222656 C 186.492188 91.066406 185.714844 90.960938 184.933594 90.894531 C 184.148438 90.828125 183.367188 90.808594 182.582031 90.832031 C 181.796875 90.855469 181.015625 90.925781 180.238281 91.035156 C 179.460938 91.148438 178.691406 91.304688 177.929688 91.503906 C 177.171875 91.699219 176.425781 91.941406 175.691406 92.226562 C 174.960938 92.507812 174.246094 92.832031 173.550781 93.195312 C 172.855469 93.558594 172.179688 93.960938 171.53125 94.402344 C 170.878906 94.84375 170.257812 95.316406 169.660156 95.828125 C 169.0625 96.339844 168.496094 96.882812 167.960938 97.457031 C 167.425781 98.03125 166.925781 98.632812 166.457031 99.265625 C 165.988281 99.894531 165.558594 100.550781 165.167969 101.230469 C 164.773438 101.910156 164.421875 102.609375 164.105469 103.332031 C 163.792969 104.050781 163.519531 104.785156 163.289062 105.535156 C 163.058594 106.289062 162.871094 107.050781 162.726562 107.820312 C 162.582031 108.59375 162.480469 109.371094 162.421875 110.152344 C 162.367188 110.9375 162.351562 111.722656 162.386719 112.503906 C 162.417969 113.289062 162.492188 114.070312 162.613281 114.847656 C 162.734375 115.625 162.894531 116.390625 163.101562 117.148438 C 163.308594 117.90625 163.558594 118.648438 163.847656 119.378906 C 164.140625 120.109375 164.46875 120.820312 164.839844 121.511719 C 165.210938 122.203125 165.621094 122.871094 166.066406 123.519531 C 166.515625 124.164062 166.996094 124.78125 167.511719 125.375 C 168.03125 125.964844 168.578125 126.527344 169.160156 127.054688 C 169.738281 127.585938 170.347656 128.082031 170.984375 128.539062 C 171.617188 129 172.277344 129.425781 172.960938 129.8125 C 173.648438 130.195312 174.351562 130.542969 175.074219 130.851562 C 175.796875 131.15625 176.535156 131.421875 177.289062 131.644531 L 177.289062 164.710938 C 176.535156 164.933594 175.796875 165.199219 175.074219 165.503906 C 174.351562 165.8125 173.648438 166.160156 172.960938 166.542969 C 172.277344 166.929688 171.617188 167.355469 170.984375 167.816406 C 170.347656 168.277344 169.738281 168.769531 169.160156 169.300781 C 168.578125 169.828125 168.03125 170.390625 167.511719 170.980469 C 166.996094 171.574219 166.515625 172.191406 166.066406 172.835938 C 165.621094 173.484375 165.210938 174.152344 164.839844 174.84375 C 164.46875 175.535156 164.140625 176.246094 163.847656 176.976562 C 163.558594 177.707031 163.308594 178.449219 163.101562 179.207031 C 162.894531 179.964844 162.734375 180.734375 162.613281 181.507812 C 162.492188 182.285156 162.417969 183.066406 162.386719 183.851562 C 162.351562 184.636719 162.367188 185.417969 162.421875 186.203125 C 162.480469 186.984375 162.582031 187.761719 162.726562 188.535156 C 162.871094 189.308594 163.058594 190.066406 163.289062 190.820312 C 163.519531 191.570312 163.792969 192.304688 164.105469 193.023438 C 164.421875 193.746094 164.773438 194.445312 165.167969 195.125 C 165.558594 195.804688 165.988281 196.460938 166.457031 197.089844 C 166.925781 197.722656 167.425781 198.324219 167.960938 198.898438 C 168.496094 199.472656 169.0625 200.015625 169.660156 200.527344 C 170.257812 201.039062 170.878906 201.511719 171.53125 201.953125 C 172.179688 202.394531 172.855469 202.796875 173.550781 203.160156 C 174.246094 203.523438 174.960938 203.847656 175.691406 204.128906 C 176.425781 204.414062 177.171875 204.65625 177.929688 204.855469 C 178.691406 205.050781 179.460938 205.207031 180.238281 205.320312 C 181.015625 205.433594 181.796875 205.5 182.582031 205.523438 C 183.367188 205.546875 184.148438 205.527344 184.933594 205.460938 C 185.714844 205.394531 186.492188 205.289062 187.261719 205.132812 C 188.03125 204.980469 188.792969 204.785156 189.539062 204.546875 C 190.289062 204.308594 191.019531 204.027344 191.738281 203.707031 C 192.453125 203.386719 193.148438 203.027344 193.824219 202.625 C 194.5 202.226562 195.152344 201.789062 195.777344 201.316406 C 196.40625 200.839844 197.003906 200.332031 197.570312 199.792969 L 243.769531 226.050781 C 244.253906 226.34375 244.773438 226.566406 245.320312 226.722656 C 245.871094 226.875 246.429688 226.949219 246.996094 226.949219 C 247.566406 226.949219 248.125 226.875 248.675781 226.722656 C 249.222656 226.566406 249.742188 226.34375 250.226562 226.050781 L 295.867188 199.722656 C 296.4375 200.265625 297.035156 200.769531 297.660156 201.246094 C 298.289062 201.71875 298.9375 202.15625 299.613281 202.554688 C 300.289062 202.957031 300.988281 203.316406 301.703125 203.636719 C 302.417969 203.960938 303.152344 204.238281 303.898438 204.476562 C 304.648438 204.714844 305.40625 204.914062 306.179688 205.066406 C 306.949219 205.21875 307.726562 205.328125 308.507812 205.390625 C 309.289062 205.457031 310.074219 205.476562 310.859375 205.453125 C 311.644531 205.429688 312.425781 205.363281 313.203125 205.25 C 313.980469 205.136719 314.75 204.984375 315.507812 204.785156 C 316.269531 204.585938 317.015625 204.34375 317.746094 204.0625 C 318.480469 203.777344 319.195312 203.453125 319.890625 203.089844 C 320.585938 202.726562 321.257812 202.324219 321.910156 201.882812 C 322.558594 201.445312 323.183594 200.96875 323.78125 200.457031 C 324.378906 199.949219 324.941406 199.40625 325.480469 198.832031 C 326.015625 198.253906 326.515625 197.652344 326.984375 197.023438 C 327.449219 196.390625 327.878906 195.734375 328.273438 195.054688 C 328.667969 194.375 329.019531 193.675781 329.332031 192.957031 C 329.648438 192.234375 329.921875 191.5 330.152344 190.75 C 330.382812 190 330.570312 189.238281 330.714844 188.464844 C 330.859375 187.695312 330.960938 186.917969 331.015625 186.132812 C 331.074219 185.347656 331.085938 184.566406 331.054688 183.78125 C 331.023438 182.996094 330.949219 182.214844 330.828125 181.4375 C 330.707031 180.664062 330.542969 179.894531 330.335938 179.136719 C 330.128906 178.382812 329.882812 177.636719 329.589844 176.90625 C 329.300781 176.179688 328.96875 175.46875 328.597656 174.773438 C 328.226562 174.082031 327.816406 173.414062 327.371094 172.769531 C 326.925781 172.121094 326.441406 171.503906 325.925781 170.910156 C 325.410156 170.320312 324.859375 169.761719 324.28125 169.230469 C 323.699219 168.699219 323.09375 168.207031 322.457031 167.746094 C 321.820312 167.285156 321.160156 166.859375 320.476562 166.476562 C 319.792969 166.089844 319.089844 165.742188 318.367188 165.4375 C 317.644531 165.128906 316.90625 164.863281 316.152344 164.640625 L 316.152344 131.4375 C 317.175781 131.09375 318.167969 130.675781 319.125 130.179688 C 320.082031 129.683594 321 129.117188 321.867188 128.480469 C 322.738281 127.84375 323.554688 127.140625 324.316406 126.378906 C 325.078125 125.613281 325.777344 124.796875 326.410156 123.921875 C 327.046875 123.050781 327.609375 122.132812 328.101562 121.171875 C 328.59375 120.210938 329.007812 119.21875 329.34375 118.195312 C 329.683594 117.171875 329.941406 116.125 330.117188 115.0625 C 330.292969 113.996094 330.382812 112.925781 330.394531 111.847656 Z M 297.8125 167.421875 C 296.800781 168.109375 295.851562 168.871094 294.964844 169.710938 C 294.164062 170.589844 293.421875 171.519531 292.742188 172.492188 L 292.117188 173.464844 L 290.867188 175.6875 C 290.867188 176.105469 290.519531 176.449219 290.378906 176.867188 C 290.242188 177.285156 289.824219 178.535156 289.617188 179.367188 C 289.40625 180.203125 289.617188 180.132812 289.617188 180.480469 C 289.371094 181.765625 289.230469 183.0625 289.199219 184.371094 C 289.21875 185.777344 289.382812 187.164062 289.683594 188.539062 L 247.378906 212.992188 L 204.519531 188.328125 C 204.820312 186.957031 204.984375 185.566406 205.003906 184.160156 C 205.007812 182.851562 204.867188 181.554688 204.589844 180.273438 C 204.589844 179.925781 204.589844 179.578125 204.589844 179.160156 C 204.589844 178.742188 204.101562 177.492188 203.824219 176.660156 C 203.546875 175.824219 203.476562 175.894531 203.335938 175.476562 C 202.960938 174.714844 202.546875 173.972656 202.085938 173.253906 C 201.917969 172.90625 201.710938 172.582031 201.460938 172.28125 C 200.820312 171.277344 200.078125 170.351562 199.238281 169.503906 C 198.363281 168.648438 197.414062 167.882812 196.390625 167.210938 L 195.488281 166.65625 C 194.761719 166.171875 193.996094 165.753906 193.195312 165.40625 L 192.015625 164.917969 C 191.703125 164.75 191.378906 164.613281 191.042969 164.503906 L 191.042969 131.503906 L 192.015625 131.160156 L 193.195312 130.601562 C 193.980469 130.25 194.746094 129.855469 195.488281 129.421875 L 196.183594 128.796875 C 197.207031 128.125 198.15625 127.363281 199.03125 126.503906 C 199.871094 125.65625 200.609375 124.730469 201.253906 123.726562 C 201.484375 123.441406 201.695312 123.140625 201.878906 122.824219 C 202.363281 122.058594 202.710938 121.292969 203.128906 120.53125 C 203.546875 119.765625 203.476562 119.765625 203.617188 119.347656 C 203.753906 118.933594 204.171875 117.683594 204.378906 116.847656 L 204.378906 115.738281 C 204.65625 114.476562 204.796875 113.203125 204.796875 111.914062 C 204.832031 110.585938 204.738281 109.265625 204.519531 107.957031 L 232.304688 91.769531 L 232.722656 91.769531 C 233.53125 92.523438 234.386719 93.21875 235.292969 93.855469 L 236.542969 94.550781 L 238.765625 95.730469 L 240.78125 96.355469 C 241.375 96.550781 241.976562 96.710938 242.585938 96.839844 C 243.9375 97.121094 245.304688 97.261719 246.683594 97.257812 C 248.042969 97.261719 249.386719 97.121094 250.714844 96.839844 C 251.328125 96.71875 251.929688 96.558594 252.519531 96.355469 L 254.535156 95.730469 L 256.757812 94.550781 L 258.007812 93.855469 C 258.914062 93.21875 259.769531 92.523438 260.578125 91.769531 L 260.996094 91.769531 L 288.78125 107.957031 C 288.476562 109.351562 288.3125 110.765625 288.296875 112.195312 C 288.332031 113.480469 288.472656 114.753906 288.714844 116.015625 C 288.714844 116.363281 288.714844 116.777344 288.714844 117.125 C 288.714844 117.472656 289.199219 118.792969 289.476562 119.625 C 289.753906 120.460938 289.476562 120.390625 289.964844 120.808594 L 291.214844 123.101562 L 291.839844 124.003906 C 292.503906 124.992188 293.246094 125.917969 294.0625 126.78125 C 294.949219 127.621094 295.898438 128.386719 296.910156 129.074219 L 297.8125 129.699219 L 300.105469 130.878906 L 301.285156 131.4375 L 302.257812 131.785156 L 302.257812 164.710938 C 301.921875 164.820312 301.597656 164.960938 301.285156 165.128906 L 300.105469 165.613281 C 299.3125 165.976562 298.546875 166.394531 297.8125 166.863281 Z M 317.402344 111.847656 C 317.402344 112.355469 317.351562 112.863281 317.253906 113.363281 C 317.152344 113.867188 317.007812 114.351562 316.8125 114.824219 C 316.613281 115.296875 316.375 115.746094 316.089844 116.167969 C 315.808594 116.59375 315.484375 116.988281 315.125 117.347656 C 314.761719 117.710938 314.371094 118.03125 313.945312 118.316406 C 313.519531 118.597656 313.070312 118.839844 312.601562 119.035156 C 312.128906 119.230469 311.640625 119.378906 311.140625 119.476562 C 310.640625 119.578125 310.132812 119.625 309.621094 119.625 C 309.113281 119.625 308.605469 119.578125 308.105469 119.476562 C 307.605469 119.378906 307.117188 119.230469 306.644531 119.035156 C 306.171875 118.839844 305.726562 118.597656 305.300781 118.316406 C 304.875 118.03125 304.480469 117.710938 304.121094 117.347656 C 303.757812 116.988281 303.4375 116.59375 303.152344 116.167969 C 302.871094 115.746094 302.628906 115.296875 302.433594 114.824219 C 302.238281 114.351562 302.089844 113.867188 301.992188 113.363281 C 301.890625 112.863281 301.84375 112.355469 301.84375 111.847656 C 301.878906 110.980469 302.0625 110.144531 302.398438 109.347656 C 302.476562 108.972656 302.613281 108.625 302.816406 108.304688 C 303.207031 107.527344 303.71875 106.839844 304.34375 106.238281 C 304.96875 105.632812 305.675781 105.152344 306.464844 104.785156 C 307.253906 104.421875 308.082031 104.199219 308.949219 104.117188 C 309.8125 104.03125 310.667969 104.09375 311.511719 104.296875 C 312.355469 104.503906 313.144531 104.839844 313.875 105.3125 C 314.605469 105.785156 315.238281 106.363281 315.769531 107.046875 C 316.304688 107.730469 316.714844 108.484375 316.992188 109.308594 C 317.273438 110.132812 317.410156 110.976562 317.402344 111.847656 Z M 247.03125 68.707031 C 247.792969 68.660156 248.542969 68.726562 249.28125 68.902344 C 250.023438 69.078125 250.722656 69.359375 251.378906 69.746094 C 252.035156 70.132812 252.617188 70.605469 253.132812 71.167969 C 253.648438 71.726562 254.070312 72.351562 254.398438 73.039062 C 254.726562 73.722656 254.949219 74.445312 255.0625 75.195312 C 255.175781 75.949219 255.175781 76.703125 255.0625 77.453125 C 254.953125 78.207031 254.734375 78.929688 254.40625 79.617188 C 254.078125 80.304688 253.660156 80.925781 253.144531 81.488281 L 252.242188 82.390625 C 251.789062 82.742188 251.300781 83.042969 250.785156 83.296875 L 249.949219 83.710938 C 249.113281 84.050781 248.246094 84.21875 247.34375 84.21875 C 246.445312 84.21875 245.574219 84.050781 244.738281 83.710938 L 243.90625 83.296875 C 243.015625 82.832031 242.226562 82.226562 241.542969 81.488281 C 241.042969 80.9375 240.628906 80.320312 240.304688 79.648438 C 239.980469 78.972656 239.761719 78.265625 239.648438 77.527344 C 239.53125 76.785156 239.523438 76.046875 239.625 75.304688 C 239.726562 74.566406 239.933594 73.855469 240.246094 73.171875 C 240.554688 72.492188 240.957031 71.871094 241.449219 71.308594 C 241.945312 70.746094 242.507812 70.265625 243.140625 69.871094 C 243.777344 69.472656 244.453125 69.175781 245.175781 68.976562 C 245.898438 68.78125 246.632812 68.6875 247.378906 68.707031 Z M 184.511719 119.558594 C 184.050781 119.558594 183.59375 119.519531 183.140625 119.4375 C 182.6875 119.359375 182.242188 119.238281 181.8125 119.078125 C 181.378906 118.921875 180.964844 118.726562 180.566406 118.492188 C 180.167969 118.257812 179.796875 117.992188 179.445312 117.695312 C 179.09375 117.394531 178.773438 117.066406 178.480469 116.710938 C 178.1875 116.355469 177.929688 115.976562 177.707031 115.574219 C 177.480469 115.171875 177.292969 114.753906 177.144531 114.316406 C 176.992188 113.882812 176.882812 113.4375 176.808594 112.984375 C 176.738281 112.527344 176.707031 112.070312 176.71875 111.609375 C 176.726562 111.148438 176.777344 110.691406 176.871094 110.242188 C 176.960938 109.789062 177.089844 109.347656 177.257812 108.921875 C 177.429688 108.492188 177.632812 108.082031 177.875 107.691406 C 178.117188 107.296875 178.394531 106.929688 178.699219 106.585938 C 179.007812 106.246094 179.34375 105.929688 179.707031 105.648438 C 180.066406 105.363281 180.453125 105.113281 180.859375 104.898438 C 181.269531 104.683594 181.691406 104.503906 182.128906 104.367188 C 182.566406 104.226562 183.015625 104.125 183.472656 104.066406 C 183.929688 104.003906 184.386719 103.984375 184.847656 104.003906 C 185.308594 104.027344 185.761719 104.085938 186.210938 104.1875 C 186.660156 104.289062 187.097656 104.429688 187.523438 104.609375 C 187.945312 104.789062 188.351562 105.003906 188.738281 105.253906 C 189.125 105.503906 189.484375 105.789062 189.820312 106.105469 C 190.15625 106.417969 190.460938 106.761719 190.738281 107.132812 C 191.011719 107.5 191.253906 107.890625 191.457031 108.304688 C 191.648438 108.636719 191.8125 108.984375 191.945312 109.34375 C 192.222656 110.15625 192.382812 110.992188 192.429688 111.847656 C 192.425781 112.367188 192.371094 112.878906 192.265625 113.390625 C 192.15625 113.898438 192 114.390625 191.792969 114.867188 C 191.585938 115.34375 191.335938 115.796875 191.039062 116.222656 C 190.742188 116.652344 190.40625 117.042969 190.03125 117.402344 C 189.65625 117.761719 189.246094 118.082031 188.808594 118.359375 C 188.367188 118.636719 187.90625 118.867188 187.417969 119.054688 C 186.933594 119.238281 186.433594 119.371094 185.921875 119.457031 C 185.410156 119.542969 184.894531 119.574219 184.375 119.558594 Z M 191.457031 186.59375 C 191.324219 186.953125 191.164062 187.300781 190.972656 187.636719 C 190.652344 188.28125 190.25 188.867188 189.761719 189.398438 C 189.273438 189.929688 188.722656 190.378906 188.109375 190.753906 C 187.496094 191.128906 186.839844 191.414062 186.148438 191.601562 C 185.453125 191.792969 184.746094 191.882812 184.027344 191.871094 C 183.515625 191.851562 183.015625 191.777344 182.519531 191.65625 C 182.023438 191.535156 181.546875 191.363281 181.085938 191.148438 C 180.621094 190.933594 180.1875 190.675781 179.773438 190.375 C 179.363281 190.070312 178.988281 189.734375 178.640625 189.359375 C 178.296875 188.980469 177.992188 188.574219 177.730469 188.140625 C 177.464844 187.703125 177.246094 187.246094 177.070312 186.769531 C 176.894531 186.289062 176.769531 185.800781 176.691406 185.296875 C 176.613281 184.792969 176.582031 184.285156 176.605469 183.777344 C 176.625 183.265625 176.695312 182.765625 176.816406 182.269531 C 176.9375 181.773438 177.101562 181.292969 177.316406 180.832031 C 177.53125 180.371094 177.789062 179.933594 178.089844 179.519531 C 178.390625 179.109375 178.726562 178.730469 179.101562 178.382812 C 179.476562 178.039062 179.878906 177.730469 180.3125 177.464844 C 180.75 177.199219 181.207031 176.976562 181.683594 176.800781 C 182.160156 176.625 182.652344 176.496094 183.15625 176.417969 C 183.660156 176.335938 184.164062 176.304688 184.675781 176.324219 C 185.183594 176.34375 185.6875 176.414062 186.183594 176.53125 C 186.679688 176.652344 187.15625 176.816406 187.621094 177.027344 C 188.085938 177.242188 188.523438 177.496094 188.9375 177.796875 C 189.347656 178.09375 189.730469 178.429688 190.074219 178.804688 C 190.421875 179.175781 190.730469 179.578125 191 180.011719 C 191.265625 180.449219 191.488281 180.902344 191.667969 181.378906 C 191.84375 181.859375 191.976562 182.347656 192.058594 182.851562 C 192.140625 183.355469 192.171875 183.859375 192.152344 184.371094 C 192.082031 185.132812 191.917969 185.871094 191.667969 186.59375 Z M 302.191406 186.59375 C 301.933594 185.875 301.796875 185.132812 301.773438 184.371094 C 301.769531 183.859375 301.8125 183.351562 301.910156 182.847656 C 302.003906 182.34375 302.148438 181.855469 302.339844 181.382812 C 302.53125 180.90625 302.769531 180.457031 303.050781 180.027344 C 303.332031 179.601562 303.652344 179.203125 304.011719 178.839844 C 304.371094 178.476562 304.761719 178.148438 305.183594 177.863281 C 305.609375 177.574219 306.054688 177.332031 306.527344 177.132812 C 307 176.933594 307.484375 176.78125 307.988281 176.679688 C 308.488281 176.578125 308.996094 176.523438 309.507812 176.519531 C 310.019531 176.519531 310.523438 176.566406 311.027344 176.660156 C 311.53125 176.757812 312.019531 176.902344 312.492188 177.097656 C 312.964844 177.289062 313.417969 177.527344 313.84375 177.8125 C 314.269531 178.09375 314.664062 178.414062 315.03125 178.773438 C 315.394531 179.136719 315.71875 179.527344 316.003906 179.953125 C 316.289062 180.375 316.53125 180.824219 316.730469 181.296875 C 316.925781 181.769531 317.078125 182.253906 317.179688 182.757812 C 317.28125 183.257812 317.332031 183.765625 317.332031 184.277344 C 317.335938 184.789062 317.285156 185.296875 317.1875 185.796875 C 317.089844 186.300781 316.941406 186.789062 316.746094 187.261719 C 316.554688 187.734375 316.3125 188.183594 316.03125 188.609375 C 315.746094 189.039062 315.425781 189.429688 315.0625 189.792969 C 314.703125 190.15625 314.308594 190.480469 313.882812 190.765625 C 313.457031 191.050781 313.007812 191.289062 312.535156 191.488281 C 312.0625 191.683594 311.574219 191.832031 311.074219 191.929688 C 310.570312 192.03125 310.066406 192.082031 309.554688 192.082031 C 308.835938 192.085938 308.128906 191.992188 307.433594 191.800781 C 306.742188 191.609375 306.089844 191.328125 305.476562 190.953125 C 304.863281 190.578125 304.3125 190.128906 303.824219 189.597656 C 303.335938 189.070312 302.929688 188.484375 302.605469 187.84375 C 302.453125 187.441406 302.386719 187.023438 302.398438 186.59375 Z M 302.191406 186.59375 " fill-opacity="1" fill-rule="nonzero"/><g clip-path="url(#4a8e1622f9)"><path fill="#00f3f7" d="M 372.144531 254.460938 L 372.144531 53.007812 C 372.148438 52.078125 372.105469 51.152344 372.019531 50.226562 C 371.933594 49.300781 371.800781 48.382812 371.625 47.472656 C 371.445312 46.558594 371.226562 45.660156 370.957031 44.769531 C 370.691406 43.878906 370.382812 43.003906 370.03125 42.144531 C 369.679688 41.285156 369.285156 40.445312 368.851562 39.625 C 368.414062 38.804688 367.941406 38.007812 367.425781 37.234375 C 366.914062 36.460938 366.363281 35.710938 365.773438 34.992188 C 365.1875 34.273438 364.566406 33.585938 363.910156 32.925781 C 363.257812 32.265625 362.570312 31.644531 361.851562 31.050781 C 361.136719 30.460938 360.394531 29.90625 359.621094 29.390625 C 358.851562 28.871094 358.054688 28.394531 357.238281 27.953125 C 356.417969 27.515625 355.578125 27.117188 354.722656 26.761719 C 353.863281 26.40625 352.992188 26.089844 352.101562 25.820312 C 351.214844 25.550781 350.3125 25.324219 349.402344 25.140625 C 348.492188 24.960938 347.574219 24.824219 346.648438 24.734375 C 345.726562 24.640625 344.796875 24.59375 343.871094 24.59375 L 31.265625 24.59375 C 30.34375 24.601562 29.421875 24.648438 28.503906 24.746094 C 27.582031 24.839844 26.671875 24.976562 25.765625 25.164062 C 24.859375 25.347656 23.964844 25.574219 23.082031 25.84375 C 22.199219 26.117188 21.332031 26.429688 20.480469 26.785156 C 19.628906 27.140625 18.792969 27.539062 17.980469 27.976562 C 17.167969 28.414062 16.375 28.890625 15.609375 29.40625 C 14.84375 29.921875 14.101562 30.472656 13.390625 31.058594 C 12.675781 31.648438 11.992188 32.265625 11.339844 32.921875 C 10.6875 33.574219 10.070312 34.261719 9.484375 34.972656 C 8.898438 35.6875 8.347656 36.429688 7.835938 37.199219 C 7.320312 37.96875 6.847656 38.757812 6.410156 39.574219 C 5.976562 40.386719 5.582031 41.222656 5.226562 42.074219 C 4.875 42.929688 4.5625 43.796875 4.292969 44.683594 C 4.023438 45.566406 3.796875 46.460938 3.617188 47.367188 C 3.433594 48.273438 3.296875 49.183594 3.207031 50.105469 C 3.113281 51.023438 3.066406 51.945312 3.0625 52.867188 L 3.0625 262.453125 C 3.066406 263.375 3.113281 264.300781 3.207031 265.21875 C 3.296875 266.140625 3.4375 267.054688 3.617188 267.960938 C 3.800781 268.871094 4.027344 269.765625 4.296875 270.652344 C 4.566406 271.535156 4.878906 272.40625 5.234375 273.261719 C 5.589844 274.113281 5.984375 274.949219 6.421875 275.765625 C 6.859375 276.582031 7.335938 277.375 7.851562 278.144531 C 8.363281 278.910156 8.914062 279.652344 9.503906 280.371094 C 10.089844 281.085938 10.710938 281.769531 11.363281 282.421875 C 12.019531 283.078125 12.703125 283.699219 13.417969 284.285156 C 14.132812 284.875 14.875 285.425781 15.644531 285.9375 C 16.414062 286.453125 17.207031 286.929688 18.023438 287.367188 C 18.839844 287.804688 19.671875 288.199219 20.527344 288.554688 C 21.382812 288.910156 22.253906 289.222656 23.136719 289.492188 C 24.023438 289.761719 24.917969 289.988281 25.824219 290.171875 C 26.734375 290.351562 27.648438 290.488281 28.566406 290.582031 C 29.488281 290.675781 30.410156 290.722656 31.335938 290.726562 L 124.351562 290.726562 L 124.351562 317.054688 L 114.558594 317.054688 C 114.132812 317.054688 113.707031 317.09375 113.289062 317.179688 C 112.871094 317.261719 112.464844 317.386719 112.070312 317.550781 C 111.675781 317.714844 111.300781 317.917969 110.949219 318.15625 C 110.59375 318.394531 110.265625 318.664062 109.964844 318.96875 C 109.664062 319.273438 109.398438 319.601562 109.164062 319.960938 C 108.925781 320.316406 108.730469 320.691406 108.570312 321.089844 C 108.410156 321.484375 108.289062 321.894531 108.210938 322.3125 C 108.128906 322.730469 108.09375 323.15625 108.097656 323.582031 L 108.097656 337.476562 L 89.757812 337.476562 C 89.304688 337.429688 88.847656 337.429688 88.394531 337.476562 C 87.941406 337.527344 87.496094 337.621094 87.0625 337.761719 C 86.625 337.90625 86.210938 338.089844 85.816406 338.320312 C 85.421875 338.546875 85.050781 338.816406 84.714844 339.121094 C 84.375 339.429688 84.070312 339.765625 83.800781 340.136719 C 83.53125 340.507812 83.304688 340.898438 83.121094 341.316406 C 82.933594 341.734375 82.792969 342.167969 82.699219 342.613281 C 82.605469 343.0625 82.554688 343.515625 82.554688 343.972656 C 82.554688 344.429688 82.605469 344.878906 82.699219 345.328125 C 82.792969 345.773438 82.933594 346.207031 83.121094 346.625 C 83.304688 347.042969 83.53125 347.4375 83.800781 347.804688 C 84.070312 348.175781 84.375 348.515625 84.714844 348.820312 C 85.050781 349.125 85.421875 349.394531 85.816406 349.625 C 86.210938 349.851562 86.625 350.039062 87.0625 350.179688 C 87.496094 350.320312 87.941406 350.417969 88.394531 350.464844 C 88.847656 350.511719 89.304688 350.511719 89.757812 350.464844 L 285.515625 350.464844 C 285.914062 350.425781 286.308594 350.347656 286.691406 350.234375 C 287.074219 350.121094 287.445312 349.972656 287.800781 349.792969 C 288.160156 349.613281 288.496094 349.398438 288.816406 349.15625 C 289.132812 348.914062 289.425781 348.640625 289.695312 348.34375 C 289.960938 348.046875 290.199219 347.726562 290.410156 347.386719 C 290.621094 347.046875 290.796875 346.6875 290.941406 346.3125 C 291.082031 345.941406 291.191406 345.554688 291.265625 345.164062 C 291.339844 344.769531 291.375 344.371094 291.375 343.972656 C 291.375 343.570312 291.339844 343.171875 291.265625 342.78125 C 291.191406 342.386719 291.082031 342.003906 290.941406 341.628906 C 290.796875 341.253906 290.621094 340.898438 290.410156 340.554688 C 290.199219 340.214844 289.960938 339.894531 289.695312 339.597656 C 289.425781 339.300781 289.132812 339.03125 288.816406 338.785156 C 288.496094 338.542969 288.160156 338.332031 287.800781 338.148438 C 287.445312 337.96875 287.074219 337.820312 286.691406 337.707031 C 286.308594 337.59375 285.914062 337.515625 285.515625 337.476562 L 267.039062 337.476562 L 267.039062 323.304688 C 267.039062 322.875 266.996094 322.453125 266.914062 322.03125 C 266.828125 321.609375 266.707031 321.203125 266.542969 320.804688 C 266.378906 320.410156 266.175781 320.035156 265.9375 319.675781 C 265.699219 319.320312 265.429688 318.992188 265.125 318.6875 C 264.824219 318.382812 264.492188 318.113281 264.136719 317.875 C 263.78125 317.636719 263.402344 317.4375 263.007812 317.273438 C 262.613281 317.109375 262.203125 316.984375 261.78125 316.898438 C 261.363281 316.816406 260.9375 316.773438 260.507812 316.773438 L 250.785156 316.773438 L 250.785156 290.863281 L 343.871094 290.863281 C 344.796875 290.863281 345.71875 290.816406 346.640625 290.726562 C 347.5625 290.636719 348.476562 290.5 349.386719 290.320312 C 350.292969 290.140625 351.191406 289.914062 352.078125 289.644531 C 352.964844 289.378906 353.835938 289.066406 354.691406 288.710938 C 355.546875 288.355469 356.382812 287.960938 357.199219 287.523438 C 358.015625 287.089844 358.808594 286.613281 359.578125 286.097656 C 360.347656 285.585938 361.089844 285.035156 361.804688 284.445312 C 362.523438 283.859375 363.207031 283.238281 363.863281 282.582031 C 364.515625 281.929688 365.136719 281.242188 365.726562 280.527344 C 366.3125 279.8125 366.863281 279.066406 367.378906 278.296875 C 367.894531 277.527344 368.367188 276.734375 368.804688 275.917969 C 369.242188 275.101562 369.636719 274.265625 369.992188 273.410156 C 370.34375 272.554688 370.65625 271.683594 370.925781 270.796875 C 371.195312 269.910156 371.417969 269.015625 371.601562 268.105469 C 371.78125 267.199219 371.917969 266.285156 372.007812 265.363281 C 372.097656 264.441406 372.144531 263.515625 372.144531 262.589844 Z M 237.933594 316.984375 L 137.34375 316.984375 L 137.34375 290.863281 L 237.933594 290.863281 Z M 359.152344 260.785156 L 359.152344 262.453125 C 359.148438 263.453125 359.046875 264.445312 358.847656 265.429688 C 358.648438 266.410156 358.355469 267.363281 357.972656 268.289062 C 357.585938 269.214844 357.113281 270.09375 356.554688 270.925781 C 356 271.757812 355.363281 272.527344 354.65625 273.238281 C 353.949219 273.945312 353.175781 274.578125 352.34375 275.136719 C 351.511719 275.695312 350.632812 276.167969 349.707031 276.550781 C 348.78125 276.9375 347.828125 277.230469 346.847656 277.429688 C 345.863281 277.628906 344.871094 277.730469 343.871094 277.734375 L 31.265625 277.734375 C 30.265625 277.730469 29.273438 277.628906 28.289062 277.429688 C 27.308594 277.230469 26.355469 276.9375 25.429688 276.550781 C 24.503906 276.167969 23.625 275.695312 22.792969 275.136719 C 21.960938 274.578125 21.191406 273.945312 20.480469 273.238281 C 19.773438 272.527344 19.140625 271.757812 18.582031 270.925781 C 18.023438 270.09375 17.550781 269.214844 17.167969 268.289062 C 16.78125 267.363281 16.488281 266.410156 16.289062 265.429688 C 16.089844 264.445312 15.988281 263.453125 15.984375 262.453125 L 15.984375 260.785156 Z M 16.054688 52.867188 C 16.058594 51.867188 16.160156 50.875 16.359375 49.890625 C 16.558594 48.910156 16.851562 47.957031 17.234375 47.03125 C 17.621094 46.105469 18.09375 45.226562 18.652344 44.394531 C 19.207031 43.5625 19.839844 42.792969 20.550781 42.082031 C 21.257812 41.375 22.03125 40.742188 22.863281 40.183594 C 23.695312 39.625 24.574219 39.152344 25.5 38.769531 C 26.425781 38.382812 27.378906 38.089844 28.359375 37.890625 C 29.34375 37.691406 30.335938 37.589844 31.335938 37.585938 L 343.9375 37.585938 C 344.941406 37.589844 345.933594 37.691406 346.917969 37.890625 C 347.898438 38.089844 348.851562 38.382812 349.777344 38.769531 C 350.703125 39.152344 351.582031 39.625 352.414062 40.183594 C 353.246094 40.742188 354.015625 41.375 354.726562 42.082031 C 355.433594 42.792969 356.066406 43.5625 356.625 44.394531 C 357.183594 45.226562 357.65625 46.105469 358.039062 47.03125 C 358.425781 47.957031 358.71875 48.910156 358.917969 49.890625 C 359.117188 50.875 359.21875 51.867188 359.222656 52.867188 L 359.222656 247.933594 L 16.054688 247.933594 Z M 121.15625 337.683594 L 121.15625 330.25 L 254.1875 330.25 L 254.1875 337.894531 Z M 121.15625 337.683594 " fill-opacity="1" fill-rule="nonzero"/></g><path fill="#00f3f7" d="M 142.902344 177.421875 L 106.847656 177.421875 C 106.449219 177.464844 106.058594 177.542969 105.675781 177.65625 C 105.289062 177.769531 104.917969 177.914062 104.5625 178.097656 C 104.207031 178.277344 103.867188 178.492188 103.550781 178.734375 C 103.230469 178.976562 102.9375 179.25 102.671875 179.546875 C 102.402344 179.84375 102.164062 180.164062 101.953125 180.503906 C 101.746094 180.84375 101.570312 181.203125 101.425781 181.578125 C 101.28125 181.949219 101.171875 182.332031 101.101562 182.726562 C 101.027344 183.121094 100.992188 183.519531 100.992188 183.917969 C 100.992188 184.320312 101.027344 184.714844 101.101562 185.109375 C 101.171875 185.503906 101.28125 185.886719 101.425781 186.261719 C 101.570312 186.636719 101.746094 186.992188 101.953125 187.332031 C 102.164062 187.675781 102.402344 187.996094 102.671875 188.292969 C 102.9375 188.589844 103.230469 188.859375 103.550781 189.101562 C 103.867188 189.347656 104.207031 189.558594 104.5625 189.742188 C 104.917969 189.921875 105.289062 190.070312 105.675781 190.183594 C 106.058594 190.296875 106.449219 190.371094 106.847656 190.414062 L 142.902344 190.414062 C 143.300781 190.371094 143.691406 190.296875 144.074219 190.183594 C 144.457031 190.070312 144.828125 189.921875 145.1875 189.742188 C 145.542969 189.558594 145.878906 189.347656 146.199219 189.101562 C 146.515625 188.859375 146.808594 188.589844 147.078125 188.292969 C 147.347656 187.996094 147.585938 187.675781 147.792969 187.332031 C 148.003906 186.992188 148.179688 186.636719 148.324219 186.261719 C 148.46875 185.886719 148.574219 185.503906 148.648438 185.109375 C 148.722656 184.714844 148.757812 184.320312 148.757812 183.917969 C 148.757812 183.519531 148.722656 183.121094 148.648438 182.726562 C 148.574219 182.332031 148.46875 181.949219 148.324219 181.578125 C 148.179688 181.203125 148.003906 180.84375 147.792969 180.503906 C 147.585938 180.164062 147.347656 179.84375 147.078125 179.546875 C 146.808594 179.25 146.515625 178.976562 146.199219 178.734375 C 145.878906 178.492188 145.542969 178.277344 145.1875 178.097656 C 144.828125 177.914062 144.457031 177.769531 144.074219 177.65625 C 143.691406 177.542969 143.300781 177.464844 142.902344 177.421875 Z M 142.902344 177.421875 " fill-opacity="1" fill-rule="nonzero"/><path fill="#00f3f7" d="M 77.601562 161.03125 L 44.328125 161.03125 C 43.902344 161.03125 43.484375 161.070312 43.066406 161.152344 C 42.652344 161.234375 42.246094 161.359375 41.855469 161.519531 C 41.460938 161.683594 41.089844 161.882812 40.738281 162.117188 C 40.386719 162.355469 40.058594 162.621094 39.757812 162.921875 C 39.457031 163.222656 39.191406 163.546875 38.957031 163.902344 C 38.71875 164.253906 38.519531 164.625 38.359375 165.015625 C 38.195312 165.410156 38.074219 165.8125 37.992188 166.230469 C 37.90625 166.644531 37.867188 167.066406 37.867188 167.488281 L 37.867188 200.765625 C 37.867188 201.1875 37.90625 201.609375 37.992188 202.023438 C 38.074219 202.441406 38.195312 202.84375 38.359375 203.238281 C 38.519531 203.628906 38.71875 204 38.957031 204.355469 C 39.191406 204.707031 39.457031 205.03125 39.757812 205.332031 C 40.058594 205.632812 40.386719 205.902344 40.738281 206.136719 C 41.089844 206.371094 41.460938 206.570312 41.855469 206.734375 C 42.246094 206.894531 42.652344 207.019531 43.066406 207.101562 C 43.484375 207.183594 43.902344 207.226562 44.328125 207.226562 L 77.601562 207.226562 C 78.027344 207.230469 78.453125 207.191406 78.871094 207.113281 C 79.292969 207.035156 79.699219 206.914062 80.09375 206.753906 C 80.492188 206.59375 80.867188 206.394531 81.222656 206.160156 C 81.582031 205.925781 81.910156 205.65625 82.214844 205.359375 C 82.519531 205.058594 82.789062 204.730469 83.027344 204.375 C 83.265625 204.019531 83.46875 203.648438 83.632812 203.253906 C 83.796875 202.859375 83.921875 202.453125 84.007812 202.035156 C 84.089844 201.613281 84.132812 201.191406 84.132812 200.765625 L 84.132812 167.488281 C 84.128906 167.0625 84.082031 166.644531 83.996094 166.226562 C 83.90625 165.808594 83.78125 165.40625 83.613281 165.011719 C 83.449219 164.621094 83.246094 164.246094 83.007812 163.894531 C 82.769531 163.542969 82.496094 163.214844 82.195312 162.917969 C 81.890625 162.617188 81.5625 162.351562 81.207031 162.117188 C 80.851562 161.878906 80.480469 161.679688 80.085938 161.519531 C 79.691406 161.359375 79.285156 161.234375 78.867188 161.152344 C 78.449219 161.070312 78.027344 161.03125 77.601562 161.03125 Z M 71.140625 194.234375 L 50.855469 194.234375 L 50.855469 174.019531 L 71.140625 174.019531 Z M 71.140625 194.234375 " fill-opacity="1" fill-rule="nonzero"/></svg>