<svg xmlns="http://www.w3.org/2000/svg" xmlns:xlink="http://www.w3.org/1999/xlink" width="500" zoomAndPan="magnify" viewBox="0 0 375 374.999991" height="500" preserveAspectRatio="xMidYMid meet" version="1.0"><defs><clipPath id="aec2158a8e"><path d="M 55 9 L 178 9 L 178 365.875 L 55 365.875 Z M 55 9 " clip-rule="nonzero"/></clipPath><clipPath id="ce2ac96b53"><path d="M 147 59 L 325.816406 59 L 325.816406 316 L 147 316 Z M 147 59 " clip-rule="nonzero"/></clipPath></defs><g clip-path="url(#aec2158a8e)"><path fill="#00f3f7" d="M 99.679688 255.976562 L 99.792969 255.976562 Z M 88.621094 24.9375 C 85.96875 26.71875 83.484375 28.753906 81.210938 31.035156 C 71.847656 40.398438 66.6875 52.867188 66.703125 66.140625 C 66.703125 79.425781 71.882812 91.910156 81.265625 101.296875 C 86.972656 106.996094 93.929688 111.222656 101.386719 113.503906 C 103.835938 114.257812 105.507812 116.515625 105.507812 119.078125 L 105.507812 255.976562 C 105.507812 258.539062 103.835938 260.800781 101.386719 261.550781 C 93.929688 263.835938 86.972656 268.058594 81.265625 273.761719 C 61.882812 293.144531 61.851562 324.671875 81.210938 344.03125 C 83.484375 346.304688 85.96875 348.34375 88.621094 350.125 L 88.621094 304.367188 C 88.621094 301.148438 91.230469 298.542969 94.441406 298.539062 L 138.339844 298.480469 C 138.351562 298.480469 138.351562 298.480469 138.351562 298.480469 C 139.898438 298.480469 141.378906 299.09375 142.472656 300.183594 C 143.566406 301.28125 144.179688 302.761719 144.179688 304.3125 L 144.179688 350.109375 C 146.777344 348.355469 149.234375 346.332031 151.535156 344.03125 C 170.894531 324.671875 170.859375 293.144531 151.480469 273.761719 C 145.957031 268.238281 139.488281 264.230469 132.257812 261.851562 C 129.867188 261.0625 128.25 258.828125 128.25 256.3125 L 128.25 118.742188 C 128.25 116.226562 129.867188 113.988281 132.257812 113.203125 C 139.488281 110.828125 145.957031 106.828125 151.480469 101.296875 C 170.871094 81.910156 170.894531 50.390625 151.535156 31.035156 C 149.234375 28.734375 146.777344 26.707031 144.179688 24.953125 L 144.179688 70.746094 C 144.179688 72.292969 143.566406 73.777344 142.472656 74.875 C 141.378906 75.964844 139.898438 76.578125 138.351562 76.578125 C 138.351562 76.578125 138.351562 76.578125 138.339844 76.578125 L 94.441406 76.519531 C 91.230469 76.511719 88.621094 73.90625 88.621094 70.6875 Z M 94.453125 365.726562 C 93.679688 365.726562 92.890625 365.574219 92.152344 365.253906 C 84.945312 362.164062 78.488281 357.796875 72.964844 352.273438 C 49.0625 328.367188 49.085938 289.445312 73.023438 265.515625 C 79.023438 259.523438 86.148438 254.847656 93.847656 251.835938 L 93.847656 123.21875 C 86.140625 120.207031 79.011719 115.53125 73.023438 109.542969 C 49.085938 85.605469 49.0625 46.691406 72.964844 22.789062 C 78.488281 17.265625 84.945312 12.898438 92.152344 9.808594 C 93.960938 9.023438 96.023438 9.222656 97.664062 10.296875 C 99.304688 11.378906 100.28125 13.207031 100.28125 15.164062 L 100.28125 64.867188 L 132.519531 64.910156 L 132.519531 15.222656 C 132.519531 13.273438 133.488281 11.453125 135.117188 10.371094 C 136.734375 9.289062 138.769531 9.101562 140.59375 9.835938 C 147.6875 12.792969 154.144531 17.148438 159.78125 22.789062 C 171.375 34.382812 177.75 49.789062 177.726562 66.171875 C 177.714844 82.542969 171.316406 97.949219 159.722656 109.542969 C 153.925781 115.339844 147.277344 119.789062 139.910156 122.804688 L 139.910156 252.253906 C 147.289062 255.277344 153.9375 259.722656 159.722656 265.515625 C 183.660156 289.445312 183.683594 328.367188 159.78125 352.273438 C 154.132812 357.914062 147.675781 362.277344 140.59375 365.226562 C 138.785156 365.964844 136.734375 365.777344 135.117188 364.691406 C 133.488281 363.609375 132.519531 361.785156 132.519531 359.839844 L 132.519531 310.144531 L 100.28125 310.191406 L 100.28125 359.894531 C 100.28125 361.855469 99.304688 363.683594 97.664062 364.765625 C 96.695312 365.402344 95.578125 365.726562 94.453125 365.726562 " fill-opacity="1" fill-rule="nonzero"/></g><g clip-path="url(#ce2ac96b53)"><path fill="#00f3f7" d="M 195.628906 151.503906 C 175.253906 151.503906 158.6875 167.691406 158.6875 187.582031 C 158.6875 207.496094 175.253906 223.695312 195.628906 223.695312 C 215.988281 223.695312 232.558594 207.496094 232.558594 187.582031 C 232.558594 167.691406 215.988281 151.503906 195.628906 151.503906 Z M 195.628906 235.355469 C 168.835938 235.355469 147.027344 213.921875 147.027344 187.582031 C 147.027344 161.261719 168.835938 139.84375 195.628906 139.84375 C 222.421875 139.84375 244.214844 161.261719 244.214844 187.582031 C 244.214844 213.921875 222.421875 235.355469 195.628906 235.355469 Z M 209.382812 315.351562 L 190.332031 315.351562 C 187.109375 315.351562 184.503906 312.742188 184.503906 309.519531 C 184.503906 306.296875 187.109375 303.6875 190.332031 303.6875 L 209.382812 303.6875 C 210.179688 302.605469 213.335938 294.25 215.863281 287.535156 C 217.421875 283.382812 219.152344 278.769531 221.179688 273.894531 C 221.785156 272.457031 222.9375 271.308594 224.378906 270.730469 L 235.734375 266.140625 C 237.144531 265.578125 238.671875 265.570312 240.070312 266.125 C 245.011719 268.09375 249.34375 269.867188 253.121094 271.421875 C 261.550781 274.890625 269.566406 277.925781 271.558594 277.898438 L 289.332031 260.097656 C 289.160156 258.523438 284.722656 249.332031 281.773438 243.257812 C 279.882812 239.339844 277.890625 235.203125 276.078125 231.015625 C 275.453125 229.558594 275.441406 227.90625 276.054688 226.445312 L 280.679688 215.464844 C 281.273438 214.066406 282.375 212.953125 283.777344 212.359375 C 290.597656 209.460938 296.1875 207.226562 300.71875 205.417969 C 307.304688 202.785156 313.511719 200.308594 314.589844 199.082031 L 314.285156 174.777344 C 310.078125 172.03125 292.179688 165.644531 285.175781 163.140625 L 283.992188 162.726562 C 282.453125 162.175781 281.203125 160.996094 280.574219 159.488281 L 275.953125 148.449219 C 275.359375 147.035156 275.347656 145.445312 275.921875 144.027344 C 278.6875 137.105469 281.054688 131.570312 282.964844 127.097656 C 285.644531 120.839844 288.160156 114.925781 288.070312 113.339844 C 284.652344 110.414062 281.636719 107.25 279.128906 104.632812 C 270.195312 95.253906 270.179688 95.257812 258.554688 100.664062 C 253.929688 102.824219 247.941406 105.613281 239.855469 108.90625 C 238.457031 109.480469 236.882812 109.480469 235.484375 108.917969 L 224.097656 104.328125 C 222.683594 103.757812 221.558594 102.671875 220.941406 101.28125 C 217.730469 94.042969 215.316406 88.308594 213.414062 83.773438 C 211.070312 78.199219 209.007812 73.296875 207.832031 71.589844 C 198.269531 72.820312 191.972656 72.425781 187.507812 71.929688 C 184.308594 71.570312 182.007812 68.691406 182.359375 65.492188 C 182.714844 62.285156 185.480469 59.972656 188.808594 60.339844 C 192.761719 60.792969 198.507812 61.117188 207.46875 59.871094 C 207.515625 59.871094 207.5625 59.871094 207.609375 59.871094 C 216.011719 59.871094 218.246094 65.183594 224.152344 79.253906 C 225.851562 83.273438 227.945312 88.25 230.644531 94.398438 L 237.632812 97.210938 C 244.398438 94.398438 249.558594 91.992188 253.632812 90.101562 C 271.386719 81.804688 273.949219 82.308594 287.566406 96.578125 C 290.003906 99.136719 292.957031 102.21875 296.65625 105.890625 C 302.3125 111.492188 299.605469 117.820312 293.683594 131.679688 C 292.007812 135.597656 289.984375 140.351562 287.625 146.144531 L 290.335938 152.601562 C 322.242188 164.015625 325.933594 166.316406 325.933594 174.105469 L 325.933594 199.957031 C 325.933594 207.898438 319.382812 210.519531 305.050781 216.246094 C 301.0625 217.835938 296.257812 219.753906 290.507812 222.175781 L 287.773438 228.652344 C 289.242188 231.910156 290.789062 235.117188 292.269531 238.179688 C 298.988281 252.066406 303.839844 262.097656 297.53125 268.394531 L 278.753906 286.757812 C 273.152344 292.300781 265.976562 289.328125 248.683594 282.207031 C 245.503906 280.898438 241.941406 279.429688 237.929688 277.828125 L 231.03125 280.621094 C 229.449219 284.53125 228.046875 288.242188 226.773438 291.648438 C 221.398438 305.921875 217.84375 315.351562 209.382812 315.351562 " fill-opacity="1" fill-rule="nonzero"/></g></svg>