<svg xmlns="http://www.w3.org/2000/svg" xmlns:xlink="http://www.w3.org/1999/xlink" width="500" zoomAndPan="magnify" viewBox="0 0 375 374.999991" height="500" preserveAspectRatio="xMidYMid meet" version="1.0"><defs><clipPath id="7dae281be1"><path d="M 5.636719 35 L 369.386719 35 L 369.386719 340 L 5.636719 340 Z M 5.636719 35 " clip-rule="nonzero"/></clipPath></defs><path fill="#00f3f7" d="M 58.550781 162.0625 L 266.027344 162.0625 C 268.382812 162.0625 270.292969 160.15625 270.292969 157.800781 L 270.292969 114.109375 C 270.292969 111.757812 268.382812 109.847656 266.027344 109.847656 L 58.550781 109.847656 C 56.199219 109.847656 54.289062 111.757812 54.289062 114.109375 L 54.289062 157.800781 C 54.289062 160.15625 56.191406 162.0625 58.550781 162.0625 Z M 62.8125 118.371094 L 261.765625 118.371094 L 261.765625 153.539062 L 62.8125 153.539062 Z M 62.8125 118.371094 " fill-opacity="1" fill-rule="nonzero"/><path fill="#00f3f7" d="M 39.308594 76.203125 C 46.015625 76.203125 51.464844 70.75 51.464844 64.046875 C 51.464844 57.339844 46.007812 51.894531 39.308594 51.894531 C 32.601562 51.894531 27.152344 57.34375 27.152344 64.046875 C 27.152344 70.746094 32.601562 76.203125 39.308594 76.203125 Z M 39.308594 60.417969 C 41.3125 60.417969 42.941406 62.046875 42.941406 64.046875 C 42.941406 66.046875 41.3125 67.675781 39.308594 67.675781 C 37.308594 67.675781 35.675781 66.046875 35.675781 64.046875 C 35.675781 62.046875 37.300781 60.417969 39.308594 60.417969 Z M 39.308594 60.417969 " fill-opacity="1" fill-rule="nonzero"/><path fill="#00f3f7" d="M 68.058594 76.203125 C 74.765625 76.203125 80.214844 70.75 80.214844 64.046875 C 80.214844 57.339844 74.765625 51.894531 68.058594 51.894531 C 61.351562 51.894531 55.902344 57.34375 55.902344 64.046875 C 55.902344 70.746094 61.359375 76.203125 68.058594 76.203125 Z M 68.058594 60.417969 C 70.066406 60.417969 71.691406 62.046875 71.691406 64.046875 C 71.691406 66.046875 70.066406 67.675781 68.058594 67.675781 C 66.058594 67.675781 64.429688 66.046875 64.429688 64.046875 C 64.433594 62.046875 66.058594 60.417969 68.058594 60.417969 Z M 68.058594 60.417969 " fill-opacity="1" fill-rule="nonzero"/><path fill="#00f3f7" d="M 96.816406 76.203125 C 103.523438 76.203125 108.972656 70.75 108.972656 64.046875 C 108.972656 57.339844 103.523438 51.894531 96.816406 51.894531 C 90.109375 51.894531 84.660156 57.34375 84.660156 64.046875 C 84.660156 70.746094 90.109375 76.203125 96.816406 76.203125 Z M 96.816406 60.417969 C 98.816406 60.417969 100.449219 62.046875 100.449219 64.046875 C 100.449219 66.046875 98.824219 67.675781 96.816406 67.675781 C 94.808594 67.675781 93.183594 66.046875 93.183594 64.046875 C 93.183594 62.046875 94.808594 60.417969 96.816406 60.417969 Z M 96.816406 60.417969 " fill-opacity="1" fill-rule="nonzero"/><path fill="#00f3f7" d="M 58.550781 188.84375 L 171.597656 188.84375 C 173.949219 188.84375 175.859375 186.933594 175.859375 184.582031 C 175.859375 182.226562 173.949219 180.320312 171.597656 180.320312 L 58.550781 180.320312 C 56.199219 180.320312 54.289062 182.226562 54.289062 184.582031 C 54.289062 186.933594 56.191406 188.84375 58.550781 188.84375 Z M 58.550781 188.84375 " fill-opacity="1" fill-rule="nonzero"/><path fill="#00f3f7" d="M 58.550781 214.59375 L 171.597656 214.59375 C 173.949219 214.59375 175.859375 212.683594 175.859375 210.332031 C 175.859375 207.980469 173.949219 206.070312 171.597656 206.070312 L 58.550781 206.070312 C 56.199219 206.070312 54.289062 207.980469 54.289062 210.332031 C 54.289062 212.691406 56.191406 214.59375 58.550781 214.59375 Z M 58.550781 214.59375 " fill-opacity="1" fill-rule="nonzero"/><path fill="#00f3f7" d="M 191.460938 180.320312 C 189.105469 180.320312 187.195312 182.226562 187.195312 184.582031 L 187.195312 210.332031 C 187.195312 212.683594 189.105469 214.59375 191.460938 214.59375 L 267.945312 214.59375 C 270.296875 214.59375 272.207031 212.683594 272.207031 210.332031 L 272.207031 184.582031 C 272.207031 182.226562 270.296875 180.320312 267.945312 180.320312 Z M 263.683594 206.070312 L 195.722656 206.070312 L 195.722656 188.84375 L 263.683594 188.84375 Z M 263.683594 206.070312 " fill-opacity="1" fill-rule="nonzero"/><g clip-path="url(#7dae281be1)"><path fill="#00f3f7" d="M 318.941406 213.820312 L 318.941406 53.816406 C 318.941406 43.570312 310.601562 35.230469 300.355469 35.230469 L 24.207031 35.230469 C 13.960938 35.230469 5.625 43.570312 5.625 53.816406 L 5.625 250.910156 C 5.625 261.128906 13.960938 269.4375 24.207031 269.4375 L 242.382812 269.4375 C 242.152344 271.625 242.027344 273.84375 242.027344 276.09375 C 242.027344 311.199219 270.585938 339.761719 305.699219 339.761719 C 340.808594 339.761719 369.371094 311.199219 369.371094 276.09375 C 369.371094 245.523438 347.714844 219.9375 318.941406 213.820312 Z M 243.933594 260.914062 L 24.207031 260.914062 C 18.660156 260.914062 14.148438 256.421875 14.148438 250.910156 L 14.148438 53.816406 C 14.148438 48.269531 18.660156 43.757812 24.207031 43.757812 L 300.363281 43.757812 C 305.910156 43.757812 310.421875 48.269531 310.421875 53.816406 L 310.421875 212.65625 C 308.859375 212.542969 307.296875 212.417969 305.703125 212.417969 C 301.914062 212.417969 298.21875 212.808594 294.609375 213.453125 L 294.609375 89.796875 C 294.609375 87.445312 292.699219 85.535156 290.347656 85.535156 L 34.191406 85.535156 C 31.839844 85.535156 29.929688 87.445312 29.929688 89.796875 L 29.929688 240.855469 C 29.929688 243.210938 31.839844 245.117188 34.191406 245.117188 L 250.117188 245.117188 C 247.375 250.019531 245.308594 255.324219 243.933594 260.914062 Z M 286.078125 94.058594 L 286.078125 215.542969 C 273.992188 219.480469 263.433594 227.050781 255.851562 236.59375 L 38.457031 236.59375 L 38.457031 94.058594 Z M 305.699219 331.238281 C 275.285156 331.238281 250.554688 306.496094 250.554688 276.09375 C 250.554688 245.972656 275.144531 220.941406 305.699219 220.941406 C 336.109375 220.941406 360.847656 245.679688 360.847656 276.09375 C 360.847656 306.496094 336.101562 331.238281 305.699219 331.238281 Z M 305.699219 331.238281 " fill-opacity="1" fill-rule="nonzero"/></g><path fill="#00f3f7" d="M 305.699219 239.316406 C 308.050781 239.316406 309.960938 237.40625 309.960938 235.054688 L 309.960938 227.398438 C 309.960938 225.046875 308.050781 223.136719 305.699219 223.136719 C 303.34375 223.136719 301.4375 225.046875 301.4375 227.398438 L 301.4375 235.054688 C 301.4375 237.40625 303.34375 239.316406 305.699219 239.316406 Z M 305.699219 239.316406 " fill-opacity="1" fill-rule="nonzero"/><path fill="#00f3f7" d="M 305.699219 312.863281 C 303.34375 312.863281 301.4375 314.773438 301.4375 317.125 L 301.4375 324.78125 C 301.4375 327.132812 303.34375 329.042969 305.699219 329.042969 C 308.050781 329.042969 309.960938 327.132812 309.960938 324.78125 L 309.960938 317.125 C 309.960938 314.773438 308.050781 312.863281 305.699219 312.863281 Z M 305.699219 312.863281 " fill-opacity="1" fill-rule="nonzero"/><path fill="#00f3f7" d="M 285.046875 231.792969 C 283.875 229.757812 281.265625 229.050781 279.226562 230.234375 C 277.191406 231.410156 276.492188 234.019531 277.667969 236.054688 L 281.492188 242.679688 C 282.667969 244.714844 285.277344 245.414062 287.3125 244.238281 C 289.347656 243.0625 290.046875 240.457031 288.871094 238.417969 Z M 285.046875 231.792969 " fill-opacity="1" fill-rule="nonzero"/><path fill="#00f3f7" d="M 329.910156 309.5 C 328.738281 307.46875 326.128906 306.765625 324.089844 307.941406 C 322.046875 309.125 321.355469 311.726562 322.53125 313.765625 L 326.363281 320.394531 C 327.542969 322.4375 330.160156 323.121094 332.183594 321.949219 C 334.222656 320.769531 334.914062 318.164062 333.738281 316.125 Z M 329.910156 309.5 " fill-opacity="1" fill-rule="nonzero"/><path fill="#00f3f7" d="M 272.292969 251.882812 L 265.664062 248.058594 C 263.621094 246.875 261.023438 247.585938 259.847656 249.613281 C 258.667969 251.65625 259.367188 254.257812 261.402344 255.441406 L 268.03125 259.265625 C 270.0625 260.441406 272.679688 259.742188 273.847656 257.707031 C 275.027344 255.660156 274.328125 253.058594 272.292969 251.882812 Z M 272.292969 251.882812 " fill-opacity="1" fill-rule="nonzero"/><path fill="#00f3f7" d="M 350 296.746094 L 343.371094 292.921875 C 341.332031 291.738281 338.722656 292.441406 337.550781 294.476562 C 336.375 296.519531 337.074219 299.121094 339.109375 300.296875 L 345.738281 304.121094 C 347.769531 305.296875 350.386719 304.597656 351.554688 302.566406 C 352.734375 300.53125 352.035156 297.921875 350 296.746094 Z M 350 296.746094 " fill-opacity="1" fill-rule="nonzero"/><path fill="#00f3f7" d="M 268.921875 276.09375 C 268.921875 273.738281 267.011719 271.832031 264.660156 271.832031 L 257.003906 271.832031 C 254.652344 271.832031 252.742188 273.738281 252.742188 276.09375 C 252.742188 278.445312 254.652344 280.355469 257.003906 280.355469 L 264.660156 280.355469 C 267.011719 280.355469 268.921875 278.445312 268.921875 276.09375 Z M 268.921875 276.09375 " fill-opacity="1" fill-rule="nonzero"/><path fill="#00f3f7" d="M 354.386719 271.832031 L 346.730469 271.832031 C 344.378906 271.832031 342.46875 273.738281 342.46875 276.09375 C 342.46875 278.445312 344.378906 280.355469 346.730469 280.355469 L 354.386719 280.355469 C 356.738281 280.355469 358.648438 278.445312 358.648438 276.09375 C 358.648438 273.738281 356.738281 271.832031 354.386719 271.832031 Z M 354.386719 271.832031 " fill-opacity="1" fill-rule="nonzero"/><path fill="#00f3f7" d="M 268.03125 292.921875 L 261.402344 296.746094 C 259.367188 297.921875 258.667969 300.53125 259.847656 302.566406 C 261.023438 304.601562 263.628906 305.296875 265.664062 304.121094 L 272.292969 300.296875 C 274.328125 299.121094 275.027344 296.519531 273.847656 294.476562 C 272.671875 292.441406 270.074219 291.738281 268.03125 292.921875 Z M 268.03125 292.921875 " fill-opacity="1" fill-rule="nonzero"/><path fill="#00f3f7" d="M 343.371094 259.257812 L 350 255.433594 C 352.035156 254.257812 352.734375 251.648438 351.554688 249.609375 C 350.386719 247.574219 347.777344 246.863281 345.738281 248.050781 L 339.109375 251.875 C 337.074219 253.054688 336.375 255.65625 337.550781 257.695312 C 338.722656 259.734375 341.335938 260.433594 343.371094 259.257812 Z M 343.371094 259.257812 " fill-opacity="1" fill-rule="nonzero"/><path fill="#00f3f7" d="M 287.308594 307.941406 C 285.265625 306.765625 282.660156 307.464844 281.488281 309.503906 L 277.664062 316.132812 C 276.484375 318.171875 277.183594 320.773438 279.21875 321.949219 C 281.253906 323.128906 283.867188 322.429688 285.039062 320.394531 L 288.863281 313.765625 C 290.046875 311.722656 289.347656 309.117188 287.308594 307.941406 Z M 287.308594 307.941406 " fill-opacity="1" fill-rule="nonzero"/><path fill="#00f3f7" d="M 332.175781 230.230469 C 330.128906 229.046875 327.53125 229.75 326.355469 231.785156 L 322.527344 238.414062 C 321.351562 240.453125 322.042969 243.054688 324.082031 244.238281 C 326.113281 245.410156 328.726562 244.726562 329.902344 242.679688 L 333.734375 236.054688 C 334.910156 234.015625 334.214844 231.410156 332.175781 230.230469 Z M 332.175781 230.230469 " fill-opacity="1" fill-rule="nonzero"/><path fill="#00f3f7" d="M 324.289062 256.070312 C 325.617188 254.125 325.125 251.472656 323.183594 250.144531 C 321.253906 248.808594 318.59375 249.3125 317.261719 251.246094 L 308.101562 264.601562 C 307.324219 264.4375 306.523438 264.34375 305.699219 264.34375 C 299.226562 264.34375 293.960938 269.613281 293.960938 276.085938 C 293.960938 282.558594 299.230469 287.828125 305.699219 287.828125 C 312.171875 287.828125 317.433594 282.558594 317.433594 276.085938 C 317.433594 273.546875 316.605469 271.203125 315.222656 269.285156 Z M 305.699219 279.304688 C 303.925781 279.304688 302.488281 277.867188 302.488281 276.085938 C 302.488281 274.3125 303.929688 272.871094 305.699219 272.871094 C 307.464844 272.871094 308.910156 274.3125 308.910156 276.085938 C 308.910156 277.867188 307.464844 279.304688 305.699219 279.304688 Z M 305.699219 279.304688 " fill-opacity="1" fill-rule="nonzero"/></svg>