<svg xmlns="http://www.w3.org/2000/svg" xmlns:xlink="http://www.w3.org/1999/xlink" width="500" zoomAndPan="magnify" viewBox="0 0 375 374.999991" height="500" preserveAspectRatio="xMidYMid meet" version="1.0"><defs><filter x="0%" y="0%" width="100%" height="100%" id="0d0cb90cd8"><feColorMatrix values="0 0 0 0 1 0 0 0 0 1 0 0 0 0 1 0 0 0 1 0" color-interpolation-filters="sRGB"/></filter><mask id="c42bab0d27"><g filter="url(#0d0cb90cd8)"><rect x="-37.5" width="450" fill="#000000" y="-37.499999" height="449.999989" fill-opacity="0.9"/></g></mask><clipPath id="a5ffb1c7d1"><path d="M 1 1 L 96.238281 1 L 96.238281 92 L 1 92 Z M 1 1 " clip-rule="nonzero"/></clipPath><mask id="83bf0c0785"><g filter="url(#0d0cb90cd8)"><rect x="-106.5" width="540" fill="#000000" y="-262.499998" height="539.999987" fill-opacity="0.7"/></g></mask><clipPath id="0a497ef80f"><path d="M 0.398438 0.078125 L 9 0.078125 L 9 4 L 0.398438 4 Z M 0.398438 0.078125 " clip-rule="nonzero"/></clipPath><clipPath id="c199cf5be7"><path d="M 12 0.078125 L 69 0.078125 L 69 4 L 12 4 Z M 12 0.078125 " clip-rule="nonzero"/></clipPath><clipPath id="1adf1486b1"><rect x="0" width="70" y="0" height="5"/></clipPath><clipPath id="0f2ec4cb73"><rect x="0" width="97" y="0" height="93"/></clipPath><clipPath id="f1c9eb1ab3"><path d="M 330 114 L 365.90625 114 L 365.90625 159 L 330 159 Z M 330 114 " clip-rule="nonzero"/></clipPath><clipPath id="851eb452be"><path d="M 355 114 L 365.90625 114 L 365.90625 126 L 355 126 Z M 355 114 " clip-rule="nonzero"/></clipPath><clipPath id="d9c3457114"><path d="M 187 303 L 365.90625 303 L 365.90625 334 L 187 334 Z M 187 303 " clip-rule="nonzero"/></clipPath></defs><path fill="#e8ebf7" d="M 323.480469 234.710938 C 305.117188 263.546875 272.894531 264.398438 243.902344 254.703125 C 240.671875 253.59375 237.527344 252.40625 234.378906 251.128906 C 204.539062 238.027344 175.714844 257.679688 149.953125 270.863281 C 146.894531 272.648438 143.664062 274.4375 140.433594 276.136719 C 117.5625 288.046875 90.78125 294.085938 72.925781 272.480469 C 62.042969 259.292969 64.679688 241.769531 64.59375 225.949219 C 64.507812 208.339844 58.304688 193.027344 48.867188 178.398438 C 36.367188 158.917969 19.617188 140.460938 15.199219 117.066406 C 8.90625 83.464844 21.402344 47.566406 56.6875 37.359375 C 79.046875 30.894531 101.832031 38.976562 124.023438 42.292969 C 142.132812 45.015625 160.582031 41.273438 177.417969 34.894531 C 180.476562 33.703125 183.539062 32.511719 186.683594 31.234375 C 207.089844 22.8125 227.410156 12.945312 248.917969 9.542969 C 268.132812 6.566406 285.648438 11.671875 292.957031 31.234375 C 299.421875 48.417969 294.828125 67.644531 297.71875 85.421875 C 299.335938 95.203125 303.078125 104.136719 307.496094 112.8125 C 315.148438 127.871094 324.925781 142.074219 329.347656 158.492188 C 330.621094 163.171875 331.726562 168.019531 332.578125 172.953125 C 336.0625 194.050781 334.957031 216.675781 323.480469 234.710938 Z M 323.480469 234.710938 " fill-opacity="1" fill-rule="nonzero"/><path fill="#ffffff" d="M 77.007812 46.800781 L 67.824219 46.800781 L 69.269531 57.691406 L 83.214844 56.925781 Z M 77.007812 46.800781 " fill-opacity="1" fill-rule="nonzero"/><path fill="#c7cefd" d="M 58.644531 80.0625 L 77.007812 80.0625 L 77.007812 55.90625 C 77.007812 50.886719 72.925781 46.71875 67.824219 46.71875 C 62.808594 46.71875 58.644531 50.800781 58.644531 55.90625 Z M 58.644531 80.0625 " fill-opacity="1" fill-rule="nonzero"/><path fill="#c7cefd" d="M 320.761719 88.65625 L 320.761719 239.390625 C 320.761719 245.941406 316.339844 251.296875 310.984375 251.296875 L 58.644531 251.296875 C 53.285156 251.296875 48.867188 246.023438 48.867188 239.390625 L 48.867188 88.65625 C 48.867188 82.105469 53.285156 76.832031 58.644531 76.832031 L 310.984375 76.832031 C 316.339844 76.832031 320.761719 82.105469 320.761719 88.65625 Z M 320.761719 88.65625 " fill-opacity="1" fill-rule="nonzero"/><path fill="#c7cefd" d="M 310.898438 251.640625 L 58.644531 251.640625 C 53.03125 251.640625 48.441406 246.109375 48.441406 239.390625 L 48.441406 88.65625 C 48.441406 81.933594 53.03125 76.40625 58.644531 76.40625 L 310.984375 76.40625 C 316.59375 76.40625 321.1875 81.847656 321.1875 88.65625 L 321.1875 239.390625 C 321.101562 246.109375 316.507812 251.640625 310.898438 251.640625 Z M 58.644531 77.171875 C 53.457031 77.171875 49.207031 82.273438 49.207031 88.570312 L 49.207031 239.304688 C 49.207031 245.597656 53.457031 250.789062 58.644531 250.789062 L 310.984375 250.789062 C 316.167969 250.789062 320.421875 245.597656 320.421875 239.304688 L 320.421875 88.65625 C 320.421875 82.359375 316.167969 77.257812 310.984375 77.257812 C 310.898438 77.171875 58.644531 77.171875 58.644531 77.171875 Z M 58.644531 77.171875 " fill-opacity="1" fill-rule="nonzero"/><path fill="#2e344d" d="M 320.84375 88.570312 L 320.84375 110.175781 L 48.867188 110.175781 L 48.867188 88.570312 C 48.867188 82.019531 53.285156 76.746094 58.726562 76.746094 L 311.066406 76.746094 C 316.425781 76.746094 320.84375 82.105469 320.84375 88.570312 Z M 320.84375 88.570312 " fill-opacity="1" fill-rule="nonzero"/><path fill="#2e344d" d="M 321.1875 110.601562 L 48.441406 110.601562 L 48.441406 88.570312 C 48.441406 81.847656 53.03125 76.320312 58.644531 76.320312 L 310.984375 76.320312 C 316.59375 76.320312 321.1875 81.847656 321.1875 88.570312 Z M 49.289062 109.835938 L 320.503906 109.835938 L 320.503906 88.65625 C 320.503906 82.359375 316.253906 77.171875 311.066406 77.171875 L 58.726562 77.171875 C 53.542969 77.171875 49.289062 82.273438 49.289062 88.65625 Z M 49.289062 109.835938 " fill-opacity="1" fill-rule="nonzero"/><path fill="#ffffff" d="M 276.804688 94.015625 C 276.804688 94.363281 276.738281 94.699219 276.605469 95.023438 C 276.46875 95.347656 276.28125 95.632812 276.03125 95.878906 C 275.785156 96.125 275.5 96.316406 275.179688 96.449219 C 274.855469 96.582031 274.519531 96.652344 274.167969 96.652344 C 273.820312 96.652344 273.484375 96.582031 273.160156 96.449219 C 272.835938 96.316406 272.554688 96.125 272.304688 95.878906 C 272.058594 95.632812 271.867188 95.347656 271.734375 95.023438 C 271.601562 94.699219 271.535156 94.363281 271.535156 94.015625 C 271.535156 93.664062 271.601562 93.328125 271.734375 93.003906 C 271.867188 92.679688 272.058594 92.394531 272.304688 92.148438 C 272.554688 91.902344 272.835938 91.710938 273.160156 91.578125 C 273.484375 91.445312 273.820312 91.375 274.167969 91.375 C 274.519531 91.375 274.855469 91.445312 275.179688 91.578125 C 275.5 91.710938 275.785156 91.902344 276.03125 92.148438 C 276.28125 92.394531 276.46875 92.679688 276.605469 93.003906 C 276.738281 93.328125 276.804688 93.664062 276.804688 94.015625 Z M 276.804688 94.015625 " fill-opacity="1" fill-rule="nonzero"/><path fill="#ffffff" d="M 288.199219 94.015625 C 288.199219 94.363281 288.128906 94.699219 287.996094 95.023438 C 287.863281 95.347656 287.671875 95.632812 287.425781 95.878906 C 287.179688 96.125 286.894531 96.316406 286.570312 96.449219 C 286.246094 96.582031 285.910156 96.652344 285.5625 96.652344 C 285.210938 96.652344 284.875 96.582031 284.554688 96.449219 C 284.230469 96.316406 283.945312 96.125 283.699219 95.878906 C 283.453125 95.632812 283.261719 95.347656 283.128906 95.023438 C 282.992188 94.699219 282.925781 94.363281 282.925781 94.015625 C 282.925781 93.664062 282.992188 93.328125 283.128906 93.003906 C 283.261719 92.679688 283.453125 92.394531 283.699219 92.148438 C 283.945312 91.902344 284.230469 91.710938 284.554688 91.578125 C 284.875 91.445312 285.210938 91.375 285.5625 91.375 C 285.910156 91.375 286.246094 91.445312 286.570312 91.578125 C 286.894531 91.710938 287.179688 91.902344 287.425781 92.148438 C 287.671875 92.394531 287.863281 92.679688 287.996094 93.003906 C 288.128906 93.328125 288.199219 93.664062 288.199219 94.015625 Z M 288.199219 94.015625 " fill-opacity="1" fill-rule="nonzero"/><path fill="#ffffff" d="M 299.589844 94.015625 C 299.589844 94.363281 299.523438 94.699219 299.390625 95.023438 C 299.257812 95.347656 299.066406 95.632812 298.820312 95.878906 C 298.570312 96.125 298.285156 96.316406 297.964844 96.449219 C 297.640625 96.582031 297.304688 96.652344 296.953125 96.652344 C 296.605469 96.652344 296.269531 96.582031 295.945312 96.449219 C 295.625 96.316406 295.339844 96.125 295.089844 95.878906 C 294.84375 95.632812 294.652344 95.347656 294.519531 95.023438 C 294.386719 94.699219 294.320312 94.363281 294.320312 94.015625 C 294.320312 93.664062 294.386719 93.328125 294.519531 93.003906 C 294.652344 92.679688 294.84375 92.394531 295.089844 92.148438 C 295.339844 91.902344 295.625 91.710938 295.945312 91.578125 C 296.269531 91.445312 296.605469 91.375 296.953125 91.375 C 297.304688 91.375 297.640625 91.445312 297.964844 91.578125 C 298.285156 91.710938 298.570312 91.902344 298.820312 92.148438 C 299.066406 92.394531 299.257812 92.679688 299.390625 93.003906 C 299.523438 93.328125 299.589844 93.664062 299.589844 94.015625 Z M 299.589844 94.015625 " fill-opacity="1" fill-rule="nonzero"/><path fill="#ffffff" d="M 77.007812 46.800781 L 218.140625 46.800781 L 218.140625 226.203125 L 77.007812 226.203125 Z M 77.007812 46.800781 " fill-opacity="1" fill-rule="nonzero"/><path fill="#c7cefd" d="M 90.695312 63.816406 L 136.863281 63.816406 L 136.863281 110.007812 L 90.695312 110.007812 Z M 90.695312 63.816406 " fill-opacity="1" fill-rule="nonzero"/><path fill="#c7cefd" d="M 170.53125 176.1875 L 204.707031 176.1875 L 204.707031 210.382812 L 170.53125 210.382812 Z M 170.53125 176.1875 " fill-opacity="1" fill-rule="nonzero"/><path fill="#c7cefd" d="M 143.75 63.816406 L 204.621094 63.816406 L 204.621094 65.433594 L 143.75 65.433594 Z M 143.75 63.816406 " fill-opacity="1" fill-rule="nonzero"/><path fill="#c7cefd" d="M 143.75 74.535156 L 204.621094 74.535156 L 204.621094 76.148438 L 143.75 76.148438 Z M 143.75 74.535156 " fill-opacity="1" fill-rule="nonzero"/><path fill="#c7cefd" d="M 143.75 85.253906 L 204.621094 85.253906 L 204.621094 86.867188 L 143.75 86.867188 Z M 143.75 85.253906 " fill-opacity="1" fill-rule="nonzero"/><path fill="#c7cefd" d="M 143.75 97.417969 L 204.621094 97.417969 L 204.621094 99.03125 L 143.75 99.03125 Z M 143.75 97.417969 " fill-opacity="1" fill-rule="nonzero"/><path fill="#c7cefd" d="M 143.75 109.496094 L 204.621094 109.496094 L 204.621094 111.113281 L 143.75 111.113281 Z M 143.75 109.496094 " fill-opacity="1" fill-rule="nonzero"/><path fill="#c7cefd" d="M 90.695312 121.0625 L 204.621094 121.0625 L 204.621094 122.679688 L 90.695312 122.679688 Z M 90.695312 121.0625 " fill-opacity="1" fill-rule="nonzero"/><path fill="#c7cefd" d="M 90.695312 131.78125 L 204.621094 131.78125 L 204.621094 133.398438 L 90.695312 133.398438 Z M 90.695312 131.78125 " fill-opacity="1" fill-rule="nonzero"/><path fill="#c7cefd" d="M 90.695312 142.5 L 204.621094 142.5 L 204.621094 144.117188 L 90.695312 144.117188 Z M 90.695312 142.5 " fill-opacity="1" fill-rule="nonzero"/><path fill="#c7cefd" d="M 90.695312 154.578125 L 204.621094 154.578125 L 204.621094 156.195312 L 90.695312 156.195312 Z M 90.695312 154.578125 " fill-opacity="1" fill-rule="nonzero"/><path fill="#c7cefd" d="M 90.695312 166.746094 L 204.621094 166.746094 L 204.621094 168.359375 L 90.695312 168.359375 Z M 90.695312 166.746094 " fill-opacity="1" fill-rule="nonzero"/><path fill="#c7cefd" d="M 90.695312 174.996094 L 162.027344 174.996094 L 162.027344 176.527344 L 90.695312 176.527344 Z M 90.695312 174.996094 " fill-opacity="1" fill-rule="nonzero"/><path fill="#c7cefd" d="M 90.695312 185.289062 L 162.027344 185.289062 L 162.027344 186.820312 L 90.695312 186.820312 Z M 90.695312 185.289062 " fill-opacity="1" fill-rule="nonzero"/><path fill="#c7cefd" d="M 90.695312 196.773438 L 162.027344 196.773438 L 162.027344 198.304688 L 90.695312 198.304688 Z M 90.695312 196.773438 " fill-opacity="1" fill-rule="nonzero"/><path fill="#e8ebf7" d="M 81.257812 213.53125 L 152.589844 213.53125 L 152.589844 215.0625 L 81.257812 215.0625 Z M 81.257812 213.53125 " fill-opacity="1" fill-rule="nonzero"/><path fill="#2e344d" d="M 249.34375 70.789062 L 252.660156 72.746094 C 253.253906 73.085938 254.019531 72.917969 254.359375 72.320312 L 260.140625 62.964844 L 254.699219 59.734375 L 248.917969 69.089844 C 248.578125 69.683594 248.75 70.449219 249.34375 70.789062 Z M 249.34375 70.789062 " fill-opacity="1" fill-rule="nonzero"/><path fill="#eeba38" d="M 267.113281 46.121094 L 260.734375 62.453125 C 260.734375 62.539062 260.652344 62.625 260.652344 62.625 C 260.3125 63.136719 259.714844 63.390625 259.121094 63.136719 C 255.125 61.519531 241.691406 56.5 233.445312 55.648438 C 225.027344 54.796875 214.570312 56.671875 206.664062 59.816406 L 202.414062 60.667969 L 213.890625 31.152344 L 222.902344 8.097656 L 226.984375 10.140625 C 230.382812 17.878906 236.589844 26.558594 243.136719 31.832031 C 249.597656 37.019531 262.523438 42.71875 266.433594 44.421875 C 267.113281 44.761719 267.367188 45.527344 267.113281 46.121094 Z M 267.113281 46.121094 " fill-opacity="1" fill-rule="nonzero"/><path fill="#df5849" d="M 260.652344 62.710938 C 260.3125 63.21875 259.714844 63.476562 259.121094 63.21875 C 255.125 61.605469 241.691406 56.585938 233.445312 55.734375 C 225.027344 54.882812 214.570312 56.753906 206.664062 59.902344 L 202.414062 60.753906 L 213.890625 31.234375 C 218.480469 31.320312 222.136719 31.40625 222.136719 31.40625 C 222.136719 31.40625 230.46875 52.84375 260.652344 62.710938 Z M 260.652344 62.710938 " fill-opacity="0.4" fill-rule="nonzero"/><path fill="#2e344d" d="M 203.347656 60.667969 C 203.007812 60.667969 202.753906 60.582031 202.496094 60.5 C 200.117188 59.5625 199.179688 55.90625 199.777344 49.949219 C 200.285156 44.335938 202.15625 37.359375 204.878906 30.300781 C 207.511719 23.578125 210.660156 17.457031 213.890625 13.03125 C 216.269531 9.800781 219.671875 5.972656 222.648438 6.226562 C 222.988281 6.226562 223.242188 6.3125 223.496094 6.398438 C 228.171875 8.269531 226.558594 20.433594 222.902344 31.574219 C 222.390625 33.191406 221.796875 34.894531 221.117188 36.59375 C 220.351562 38.550781 219.5 40.507812 218.652344 42.378906 C 214.65625 51.140625 208.195312 61.179688 203.347656 60.667969 Z M 203.347656 60.667969 " fill-opacity="1" fill-rule="nonzero"/><path fill="#df5849" d="M 222.648438 7.078125 C 222.816406 7.078125 223.070312 7.164062 223.242188 7.246094 C 226.8125 8.609375 226.21875 18.988281 222.136719 31.40625 C 221.625 33.023438 221.03125 34.636719 220.351562 36.339844 C 219.585938 38.296875 218.734375 40.253906 217.886719 42.125 C 212.871094 52.925781 207.003906 60.242188 203.433594 59.902344 C 203.261719 59.902344 203.007812 59.816406 202.835938 59.734375 C 198.757812 58.117188 200.117188 45.101562 205.726562 30.640625 C 211.085938 16.773438 218.480469 6.652344 222.648438 7.078125 M 222.816406 5.375 C 220.097656 5.121094 216.867188 7.503906 213.292969 12.523438 C 210.0625 17.03125 206.832031 23.238281 204.199219 29.960938 C 201.390625 37.105469 199.605469 44.164062 199.011719 49.78125 C 198.332031 56.246094 199.4375 60.15625 202.242188 61.179688 C 202.582031 61.347656 202.921875 61.433594 203.347656 61.433594 C 205.726562 61.6875 208.449219 59.902344 211.507812 56.074219 C 214.230469 52.757812 216.949219 48.078125 219.5 42.632812 C 220.351562 40.761719 221.203125 38.722656 221.96875 36.765625 C 222.648438 35.0625 223.242188 33.363281 223.753906 31.746094 C 225.792969 25.535156 227.066406 19.667969 227.238281 15.074219 C 227.492188 9.714844 226.386719 6.480469 223.835938 5.460938 C 223.582031 5.460938 223.15625 5.375 222.816406 5.375 Z M 222.816406 5.375 " fill-opacity="1" fill-rule="nonzero"/><path fill="#df5849" d="M 214.144531 29.363281 L 209.980469 40.082031 L 217.546875 43.058594 C 218.394531 41.1875 219.246094 39.316406 220.011719 37.277344 C 220.691406 35.574219 221.285156 33.957031 221.796875 32.339844 Z M 214.144531 29.363281 " fill-opacity="1" fill-rule="nonzero"/><path fill="#eeba38" d="M 214.167969 29.332031 C 214.316406 29.390625 214.453125 29.484375 214.574219 29.609375 C 214.695312 29.734375 214.800781 29.894531 214.886719 30.082031 C 214.972656 30.273438 215.039062 30.492188 215.089844 30.738281 C 215.136719 30.980469 215.167969 31.25 215.175781 31.542969 C 215.183594 31.835938 215.175781 32.144531 215.144531 32.472656 C 215.113281 32.796875 215.0625 33.136719 214.992188 33.484375 C 214.921875 33.835938 214.835938 34.1875 214.730469 34.546875 C 214.625 34.90625 214.503906 35.261719 214.363281 35.617188 C 214.226562 35.96875 214.074219 36.316406 213.910156 36.652344 C 213.746094 36.984375 213.570312 37.304688 213.386719 37.609375 C 213.203125 37.914062 213.011719 38.199219 212.8125 38.460938 C 212.613281 38.722656 212.414062 38.957031 212.207031 39.164062 C 212.003906 39.375 211.800781 39.550781 211.597656 39.699219 C 211.398438 39.847656 211.199219 39.960938 211.007812 40.042969 C 210.816406 40.125 210.632812 40.171875 210.457031 40.183594 C 210.28125 40.191406 210.121094 40.167969 209.96875 40.109375 C 209.816406 40.050781 209.683594 39.960938 209.5625 39.832031 C 209.441406 39.707031 209.335938 39.546875 209.25 39.359375 C 209.164062 39.167969 209.09375 38.949219 209.046875 38.703125 C 208.996094 38.460938 208.96875 38.191406 208.960938 37.898438 C 208.949219 37.605469 208.960938 37.296875 208.992188 36.96875 C 209.023438 36.644531 209.074219 36.304688 209.140625 35.957031 C 209.210938 35.605469 209.300781 35.253906 209.40625 34.894531 C 209.511719 34.535156 209.632812 34.179688 209.769531 33.824219 C 209.90625 33.472656 210.058594 33.125 210.222656 32.789062 C 210.386719 32.457031 210.5625 32.136719 210.75 31.832031 C 210.933594 31.527344 211.125 31.242188 211.324219 30.980469 C 211.523438 30.71875 211.722656 30.484375 211.925781 30.277344 C 212.132812 30.066406 212.335938 29.890625 212.535156 29.742188 C 212.738281 29.59375 212.933594 29.480469 213.128906 29.398438 C 213.320312 29.316406 213.503906 29.269531 213.679688 29.261719 C 213.851562 29.25 214.015625 29.273438 214.167969 29.332031 Z M 214.167969 29.332031 " fill-opacity="1" fill-rule="nonzero"/><path fill="#2e344d" d="M 267.28125 45.867188 L 260.652344 62.792969 L 263.625 63.902344 C 267.453125 65.433594 271.703125 64.070312 274.167969 60.921875 C 274.679688 60.242188 275.105469 59.476562 275.445312 58.710938 C 276.378906 56.328125 276.210938 53.863281 275.273438 51.738281 C 274.339844 49.609375 272.640625 47.824219 270.257812 46.886719 Z M 267.28125 45.867188 " fill-opacity="1" fill-rule="nonzero"/><path fill="#c7cefd" d="M 194.589844 30.808594 L 179.710938 40.761719 L 176.734375 33.277344 Z M 194.589844 30.808594 " fill-opacity="1" fill-rule="nonzero"/><path fill="#c7cefd" d="M 201.222656 16.691406 L 184.21875 4.441406 L 192.125 0.015625 Z M 201.222656 16.691406 " fill-opacity="1" fill-rule="nonzero"/><path fill="#c7cefd" d="M 197.734375 24.515625 L 173.929688 22.730469 L 176.226562 14.988281 Z M 197.734375 24.515625 " fill-opacity="1" fill-rule="nonzero"/><g mask="url(#c42bab0d27)"><g transform="matrix(1, 0, 0, 1, 24, 180)"><g clip-path="url(#0f2ec4cb73)"><g clip-path="url(#a5ffb1c7d1)"><path fill="#eeba38" d="M 91.265625 91.375 L 6.332031 91.375 C 3.695312 91.375 1.570312 89.246094 1.570312 86.609375 L 1.570312 6.308594 C 1.570312 3.671875 3.695312 1.546875 6.332031 1.546875 L 91.265625 1.546875 C 93.902344 1.546875 96.027344 3.671875 96.027344 6.308594 L 96.027344 86.609375 C 96.027344 89.246094 93.902344 91.375 91.265625 91.375 Z M 91.265625 91.375 " fill-opacity="1" fill-rule="nonzero"/></g><path fill="#ffffff" d="M 14.664062 13.710938 L 57.171875 13.710938 L 57.171875 16.773438 L 14.664062 16.773438 Z M 14.664062 13.710938 " fill-opacity="1" fill-rule="nonzero"/><path fill="#ffffff" d="M 62.105469 13.710938 L 83.019531 13.710938 L 83.019531 16.773438 L 62.105469 16.773438 Z M 62.105469 13.710938 " fill-opacity="1" fill-rule="nonzero"/><path fill="#ffffff" d="M 14.664062 24.171875 L 41.445312 24.171875 L 41.445312 27.234375 L 14.664062 27.234375 Z M 14.664062 24.171875 " fill-opacity="1" fill-rule="nonzero"/><path fill="#ffffff" d="M 46.121094 24.171875 L 82.933594 24.171875 L 82.933594 27.234375 L 46.121094 27.234375 Z M 46.121094 24.171875 " fill-opacity="1" fill-rule="nonzero"/><g mask="url(#83bf0c0785)"><g transform="matrix(1, 0, 0, 1, 14, 34)"><g clip-path="url(#1adf1486b1)"><g clip-path="url(#0a497ef80f)"><path fill="#ffffff" d="M 0.664062 0.550781 L 8.316406 0.550781 L 8.316406 3.613281 L 0.664062 3.613281 Z M 0.664062 0.550781 " fill-opacity="1" fill-rule="nonzero"/></g><g clip-path="url(#c199cf5be7)"><path fill="#ffffff" d="M 12.652344 0.722656 L 68.679688 0.722656 L 68.679688 3.78125 L 12.652344 3.78125 Z M 12.652344 0.722656 " fill-opacity="1" fill-rule="nonzero"/></g></g></g></g><path fill="#2e344d" d="M 43.058594 67.046875 L 52.242188 67.046875 L 52.242188 79.210938 L 43.058594 79.210938 Z M 43.058594 67.046875 " fill-opacity="1" fill-rule="nonzero"/><path fill="#df5849" d="M 57.171875 61.769531 L 66.355469 61.769531 L 66.355469 79.210938 L 57.171875 79.210938 Z M 57.171875 61.769531 " fill-opacity="1" fill-rule="nonzero"/><path fill="#2e344d" d="M 15.003906 67.046875 L 24.1875 67.046875 L 24.1875 79.210938 L 15.003906 79.210938 Z M 15.003906 67.046875 " fill-opacity="1" fill-rule="nonzero"/><path fill="#df5849" d="M 29.03125 61.769531 L 38.214844 61.769531 L 38.214844 79.210938 L 29.03125 79.210938 Z M 29.03125 61.769531 " fill-opacity="1" fill-rule="nonzero"/><path fill="#2e344d" d="M 71.203125 51.054688 L 80.382812 51.054688 L 80.382812 79.210938 L 71.203125 79.210938 Z M 71.203125 51.054688 " fill-opacity="1" fill-rule="nonzero"/></g></g></g><g clip-path="url(#f1c9eb1ab3)"><path fill="#536ec1" d="M 365.652344 125.148438 L 365.652344 158.492188 L 330.367188 158.492188 L 330.367188 114.515625 L 355.023438 114.515625 Z M 365.652344 125.148438 " fill-opacity="1" fill-rule="nonzero"/></g><g clip-path="url(#851eb452be)"><path fill="#c7cefd" d="M 355.023438 125.148438 L 365.652344 125.148438 L 355.023438 114.515625 Z M 355.023438 125.148438 " fill-opacity="1" fill-rule="nonzero"/></g><path fill="#ffffff" d="M 335.699219 146.917969 L 335.753906 130.585938 L 360.324219 130.667969 L 360.269531 147 Z M 335.699219 146.917969 " fill-opacity="1" fill-rule="nonzero"/><path fill="#ffffff" d="M 336.722656 145.910156 L 336.773438 131.617188 L 359.300781 131.695312 L 359.253906 145.984375 Z M 336.722656 145.910156 " fill-opacity="1" fill-rule="nonzero"/><path fill="#eeba38" d="M 338.359375 141.648438 L 340.058594 139.949219 C 341.164062 138.84375 342.949219 138.84375 343.972656 139.949219 L 345.246094 141.226562 C 345.332031 141.308594 345.417969 141.308594 345.5 141.226562 L 350.09375 136.632812 C 350.859375 135.867188 352.046875 135.867188 352.8125 136.632812 L 357.660156 141.566406 C 357.660156 141.566406 357.746094 141.648438 357.746094 141.648438 L 357.746094 144.542969 C 357.746094 144.628906 357.660156 144.710938 357.574219 144.710938 L 338.445312 144.628906 C 338.359375 144.628906 338.273438 144.542969 338.273438 144.457031 L 338.273438 141.734375 C 338.273438 141.734375 338.359375 141.734375 338.359375 141.648438 Z M 338.359375 141.648438 " fill-opacity="1" fill-rule="nonzero"/><path fill="#eeba38" d="M 343.207031 137.054688 C 343.207031 137.214844 343.175781 137.367188 343.113281 137.511719 C 343.054688 137.65625 342.96875 137.785156 342.855469 137.898438 C 342.746094 138.011719 342.617188 138.097656 342.472656 138.15625 C 342.324219 138.21875 342.171875 138.246094 342.015625 138.246094 C 341.859375 138.246094 341.707031 138.21875 341.558594 138.15625 C 341.414062 138.097656 341.285156 138.011719 341.175781 137.898438 C 341.0625 137.785156 340.976562 137.65625 340.914062 137.511719 C 340.855469 137.367188 340.824219 137.214844 340.824219 137.054688 C 340.824219 136.898438 340.855469 136.746094 340.914062 136.601562 C 340.976562 136.453125 341.0625 136.324219 341.171875 136.214844 C 341.285156 136.101562 341.414062 136.015625 341.558594 135.957031 C 341.707031 135.894531 341.859375 135.867188 342.015625 135.867188 C 342.171875 135.867188 342.324219 135.894531 342.472656 135.957031 C 342.617188 136.015625 342.746094 136.101562 342.855469 136.214844 C 342.96875 136.324219 343.054688 136.453125 343.113281 136.601562 C 343.175781 136.746094 343.207031 136.898438 343.207031 137.054688 Z M 343.207031 137.054688 " fill-opacity="1" fill-rule="nonzero"/><path fill="#df5849" d="M 128.953125 19.753906 C 128.953125 20.761719 128.855469 21.765625 128.660156 22.753906 C 128.460938 23.746094 128.171875 24.710938 127.785156 25.644531 C 127.398438 26.578125 126.921875 27.464844 126.363281 28.304688 C 125.800781 29.148438 125.160156 29.925781 124.449219 30.640625 C 123.734375 31.355469 122.957031 31.992188 122.117188 32.554688 C 121.277344 33.117188 120.386719 33.589844 119.457031 33.976562 C 118.523438 34.363281 117.558594 34.65625 116.566406 34.851562 C 115.578125 35.050781 114.578125 35.148438 113.566406 35.148438 C 112.554688 35.148438 111.554688 35.050781 110.5625 34.851562 C 109.574219 34.65625 108.609375 34.363281 107.675781 33.976562 C 106.742188 33.589844 105.855469 33.117188 105.015625 32.554688 C 104.175781 31.992188 103.398438 31.355469 102.683594 30.640625 C 101.96875 29.925781 101.332031 29.148438 100.769531 28.304688 C 100.210938 27.464844 99.734375 26.578125 99.347656 25.644531 C 98.960938 24.710938 98.671875 23.746094 98.472656 22.753906 C 98.277344 21.765625 98.175781 20.761719 98.175781 19.753906 C 98.175781 18.742188 98.277344 17.738281 98.472656 16.75 C 98.671875 15.757812 98.960938 14.792969 99.347656 13.859375 C 99.734375 12.925781 100.210938 12.039062 100.769531 11.199219 C 101.332031 10.359375 101.96875 9.578125 102.683594 8.863281 C 103.398438 8.148438 104.175781 7.511719 105.015625 6.949219 C 105.855469 6.386719 106.742188 5.914062 107.675781 5.527344 C 108.609375 5.140625 109.574219 4.847656 110.5625 4.652344 C 111.554688 4.453125 112.554688 4.355469 113.566406 4.355469 C 114.578125 4.355469 115.578125 4.453125 116.566406 4.652344 C 117.558594 4.847656 118.523438 5.140625 119.457031 5.527344 C 120.386719 5.914062 121.277344 6.386719 122.117188 6.949219 C 122.957031 7.511719 123.734375 8.148438 124.449219 8.863281 C 125.160156 9.578125 125.800781 10.359375 126.363281 11.199219 C 126.921875 12.039062 127.398438 12.925781 127.785156 13.859375 C 128.171875 14.792969 128.460938 15.757812 128.660156 16.75 C 128.855469 17.738281 128.953125 18.742188 128.953125 19.753906 Z M 128.953125 19.753906 " fill-opacity="1" fill-rule="nonzero"/><path fill="#ffffff" d="M 120.199219 19.753906 L 109.484375 13.542969 L 109.484375 25.960938 Z M 120.199219 19.753906 " fill-opacity="1" fill-rule="nonzero"/><g clip-path="url(#d9c3457114)"><path fill="#e8ebf7" d="M 365.90625 318.414062 C 365.90625 318.664062 365.871094 318.914062 365.800781 319.160156 C 365.726562 319.410156 365.621094 319.660156 365.476562 319.90625 C 365.335938 320.15625 365.15625 320.402344 364.941406 320.648438 C 364.726562 320.894531 364.480469 321.140625 364.195312 321.386719 C 363.910156 321.628906 363.589844 321.871094 363.234375 322.113281 C 362.882812 322.355469 362.492188 322.597656 362.070312 322.835938 C 361.644531 323.074219 361.1875 323.308594 360.699219 323.542969 C 360.207031 323.777344 359.683594 324.011719 359.125 324.242188 C 358.566406 324.472656 357.976562 324.699219 357.351562 324.925781 C 356.726562 325.148438 356.074219 325.371094 355.386719 325.59375 C 354.699219 325.8125 353.980469 326.027344 353.230469 326.242188 C 352.480469 326.457031 351.699219 326.667969 350.890625 326.875 C 350.078125 327.082031 349.242188 327.285156 348.371094 327.484375 C 347.503906 327.683594 346.605469 327.882812 345.679688 328.074219 C 344.757812 328.265625 343.804688 328.457031 342.824219 328.640625 C 341.84375 328.824219 340.839844 329.003906 339.808594 329.183594 C 338.777344 329.359375 337.722656 329.53125 336.640625 329.695312 C 335.5625 329.863281 334.457031 330.027344 333.332031 330.183594 C 332.203125 330.34375 331.054688 330.496094 329.882812 330.644531 C 328.710938 330.792969 327.519531 330.9375 326.308594 331.074219 C 325.09375 331.214844 323.863281 331.347656 322.613281 331.476562 C 321.363281 331.601562 320.09375 331.726562 318.808594 331.84375 C 317.519531 331.960938 316.21875 332.074219 314.902344 332.179688 C 313.582031 332.285156 312.25 332.386719 310.902344 332.480469 C 309.554688 332.578125 308.195312 332.667969 306.824219 332.75 C 305.449219 332.835938 304.066406 332.914062 302.667969 332.984375 C 301.273438 333.058594 299.871094 333.125 298.453125 333.183594 C 297.039062 333.246094 295.617188 333.300781 294.1875 333.347656 C 292.757812 333.398438 291.320312 333.441406 289.878906 333.476562 C 288.4375 333.511719 286.988281 333.542969 285.539062 333.566406 C 284.085938 333.59375 282.632812 333.609375 281.175781 333.625 C 279.71875 333.636719 278.261719 333.640625 276.804688 333.640625 C 275.347656 333.640625 273.890625 333.636719 272.433594 333.625 C 270.976562 333.609375 269.523438 333.59375 268.070312 333.566406 C 266.621094 333.542969 265.171875 333.511719 263.730469 333.476562 C 262.289062 333.441406 260.851562 333.398438 259.421875 333.347656 C 257.992188 333.300781 256.570312 333.246094 255.15625 333.183594 C 253.742188 333.125 252.335938 333.058594 250.941406 332.984375 C 249.542969 332.914062 248.160156 332.835938 246.789062 332.75 C 245.414062 332.667969 244.054688 332.578125 242.707031 332.480469 C 241.359375 332.386719 240.027344 332.285156 238.710938 332.179688 C 237.390625 332.074219 236.089844 331.960938 234.804688 331.84375 C 233.515625 331.726562 232.25 331.601562 230.996094 331.476562 C 229.746094 331.347656 228.515625 331.214844 227.304688 331.074219 C 226.089844 330.9375 224.898438 330.792969 223.726562 330.644531 C 222.554688 330.496094 221.40625 330.34375 220.28125 330.183594 C 219.152344 330.027344 218.046875 329.863281 216.96875 329.695312 C 215.886719 329.53125 214.832031 329.359375 213.800781 329.183594 C 212.769531 329.003906 211.765625 328.824219 210.785156 328.640625 C 209.804688 328.457031 208.855469 328.265625 207.929688 328.074219 C 207.003906 327.882812 206.105469 327.683594 205.238281 327.484375 C 204.371094 327.285156 203.53125 327.082031 202.71875 326.875 C 201.910156 326.667969 201.128906 326.457031 200.378906 326.242188 C 199.628906 326.027344 198.914062 325.8125 198.226562 325.59375 C 197.539062 325.371094 196.882812 325.148438 196.257812 324.925781 C 195.636719 324.699219 195.042969 324.472656 194.484375 324.242188 C 193.929688 324.011719 193.402344 323.777344 192.914062 323.542969 C 192.421875 323.308594 191.964844 323.074219 191.539062 322.835938 C 191.117188 322.597656 190.726562 322.355469 190.375 322.113281 C 190.019531 321.871094 189.699219 321.628906 189.414062 321.386719 C 189.132812 321.140625 188.882812 320.894531 188.667969 320.648438 C 188.453125 320.402344 188.277344 320.15625 188.132812 319.90625 C 187.988281 319.660156 187.882812 319.410156 187.8125 319.160156 C 187.738281 318.914062 187.703125 318.664062 187.703125 318.414062 C 187.703125 318.164062 187.738281 317.917969 187.8125 317.667969 C 187.882812 317.417969 187.988281 317.171875 188.132812 316.921875 C 188.277344 316.675781 188.453125 316.425781 188.667969 316.179688 C 188.882812 315.933594 189.132812 315.6875 189.414062 315.445312 C 189.699219 315.199219 190.019531 314.957031 190.375 314.714844 C 190.726562 314.472656 191.117188 314.234375 191.539062 313.996094 C 191.964844 313.757812 192.421875 313.519531 192.914062 313.285156 C 193.402344 313.050781 193.929688 312.816406 194.484375 312.585938 C 195.042969 312.359375 195.636719 312.128906 196.257812 311.90625 C 196.882812 311.679688 197.539062 311.457031 198.226562 311.238281 C 198.914062 311.015625 199.628906 310.800781 200.378906 310.585938 C 201.128906 310.375 201.910156 310.164062 202.71875 309.957031 C 203.53125 309.75 204.371094 309.542969 205.238281 309.34375 C 206.105469 309.144531 207.003906 308.949219 207.929688 308.753906 C 208.855469 308.5625 209.804688 308.375 210.785156 308.1875 C 211.765625 308.003906 212.769531 307.824219 213.800781 307.648438 C 214.832031 307.472656 215.886719 307.300781 216.96875 307.132812 C 218.046875 306.964844 219.152344 306.800781 220.28125 306.644531 C 221.40625 306.488281 222.554688 306.332031 223.726562 306.183594 C 224.898438 306.035156 226.089844 305.894531 227.304688 305.753906 C 228.515625 305.617188 229.746094 305.484375 230.996094 305.355469 C 232.25 305.226562 233.515625 305.105469 234.804688 304.984375 C 236.089844 304.867188 237.390625 304.757812 238.710938 304.648438 C 240.027344 304.542969 241.359375 304.441406 242.707031 304.347656 C 244.054688 304.253906 245.414062 304.164062 246.789062 304.078125 C 248.160156 303.996094 249.542969 303.917969 250.941406 303.84375 C 252.335938 303.773438 253.742188 303.707031 255.15625 303.644531 C 256.570312 303.585938 257.992188 303.53125 259.421875 303.480469 C 260.851562 303.433594 262.289062 303.390625 263.730469 303.351562 C 265.171875 303.316406 266.621094 303.285156 268.070312 303.261719 C 269.523438 303.238281 270.976562 303.21875 272.433594 303.207031 C 273.890625 303.195312 275.347656 303.1875 276.804688 303.1875 C 278.261719 303.1875 279.71875 303.195312 281.175781 303.207031 C 282.632812 303.21875 284.085938 303.238281 285.539062 303.261719 C 286.988281 303.285156 288.4375 303.316406 289.878906 303.351562 C 291.320312 303.390625 292.757812 303.433594 294.1875 303.480469 C 295.617188 303.53125 297.039062 303.585938 298.453125 303.644531 C 299.871094 303.707031 301.273438 303.773438 302.667969 303.84375 C 304.066406 303.917969 305.449219 303.996094 306.824219 304.078125 C 308.195312 304.164062 309.554688 304.25 310.902344 304.347656 C 312.25 304.441406 313.582031 304.542969 314.902344 304.648438 C 316.21875 304.757812 317.519531 304.867188 318.808594 304.984375 C 320.09375 305.105469 321.363281 305.226562 322.613281 305.355469 C 323.863281 305.484375 325.09375 305.617188 326.308594 305.753906 C 327.519531 305.894531 328.710938 306.035156 329.882812 306.183594 C 331.054688 306.332031 332.203125 306.488281 333.332031 306.644531 C 334.457031 306.800781 335.5625 306.964844 336.640625 307.132812 C 337.722656 307.300781 338.777344 307.472656 339.808594 307.648438 C 340.839844 307.824219 341.84375 308.003906 342.824219 308.1875 C 343.804688 308.375 344.757812 308.5625 345.679688 308.753906 C 346.605469 308.949219 347.503906 309.144531 348.371094 309.34375 C 349.242188 309.542969 350.078125 309.75 350.890625 309.957031 C 351.699219 310.164062 352.480469 310.375 353.230469 310.585938 C 353.980469 310.800781 354.699219 311.015625 355.386719 311.238281 C 356.074219 311.457031 356.726562 311.679688 357.351562 311.90625 C 357.976562 312.128906 358.566406 312.359375 359.125 312.585938 C 359.683594 312.816406 360.207031 313.050781 360.699219 313.285156 C 361.1875 313.519531 361.644531 313.757812 362.070312 313.996094 C 362.492188 314.234375 362.882812 314.472656 363.234375 314.714844 C 363.589844 314.957031 363.910156 315.199219 364.195312 315.445312 C 364.480469 315.6875 364.726562 315.933594 364.941406 316.179688 C 365.15625 316.425781 365.335938 316.675781 365.476562 316.921875 C 365.621094 317.171875 365.726562 317.417969 365.800781 317.667969 C 365.871094 317.917969 365.90625 318.164062 365.90625 318.414062 Z M 365.90625 318.414062 " fill-opacity="1" fill-rule="nonzero"/></g><path fill="#efc0c1" d="M 243.050781 216.421875 C 243.050781 216.421875 235.824219 247.214844 235.230469 250.023438 C 234.125 255.042969 229.957031 266.523438 229.957031 266.523438 C 229.957031 266.523438 247.386719 276.308594 252.320312 273.246094 C 256.058594 270.949219 255.804688 257.933594 256.144531 253.085938 C 256.484375 248.492188 269.410156 204.171875 269.410156 204.171875 Z M 243.050781 216.421875 " fill-opacity="1" fill-rule="nonzero"/><path fill="#df5849" d="M 270.429688 182.652344 C 270.429688 182.652344 253.847656 174.996094 246.453125 197.199219 C 240.417969 215.316406 236.503906 235.648438 236.503906 235.648438 L 265.070312 244.152344 Z M 270.429688 182.652344 " fill-opacity="1" fill-rule="nonzero"/><path fill="#efc0c1" d="M 257.164062 196.433594 C 257.164062 196.261719 273.148438 208 281.3125 203.664062 C 290.492188 198.730469 291.257812 178.058594 291.257812 178.058594 L 286.15625 158.40625 L 286.070312 158.066406 L 285.816406 156.875 L 284.03125 157.898438 L 276.890625 162.066406 L 274 163.765625 L 266.6875 168.019531 C 266.6875 168.019531 267.453125 173.210938 267.28125 177.546875 C 267.28125 177.972656 267.28125 178.484375 267.199219 178.824219 C 267.113281 179.589844 266.859375 180.269531 266.601562 180.863281 C 266.007812 182.3125 265.070312 183.332031 265.070312 183.417969 C 263.882812 187.925781 257.25 196.433594 257.164062 196.433594 Z M 257.164062 196.433594 " fill-opacity="1" fill-rule="nonzero"/><path fill="#e0adb0" d="M 266.601562 180.863281 C 284.203125 182.140625 286.242188 161.042969 286.15625 158.324219 L 286.070312 157.984375 L 285.816406 156.792969 L 284.03125 157.8125 C 282.160156 159.597656 279.441406 161.808594 276.890625 161.980469 L 274 163.683594 L 266.6875 167.933594 C 266.6875 167.933594 267.453125 173.125 267.28125 177.460938 C 267.28125 177.886719 267.28125 178.398438 267.199219 178.738281 C 267.027344 179.589844 266.859375 180.269531 266.601562 180.863281 Z M 266.601562 180.863281 " fill-opacity="1" fill-rule="nonzero"/><path fill="#efc0c1" d="M 254.953125 157.726562 C 257.84375 167.679688 262.523438 177.632812 272.214844 175.503906 C 279.015625 174.058594 285.050781 164.191406 285.988281 155.34375 C 286.496094 150.835938 287.007812 146.839844 286.753906 143.863281 C 286.582031 141.480469 286.414062 140.035156 286.414062 140.035156 L 284.457031 135.015625 L 283.265625 132.121094 C 283.265625 132.121094 280.972656 130.507812 278.421875 128.636719 C 275.191406 126.253906 270.683594 130.25 270.597656 130.082031 C 270.429688 129.824219 256.570312 128.71875 252.574219 134.417969 C 252.234375 134.929688 251.894531 135.441406 251.808594 136.035156 C 251.640625 136.460938 251.640625 136.886719 251.640625 137.398438 C 251.722656 138.246094 251.808594 139.523438 251.980469 141.140625 C 252.0625 141.820312 252.148438 142.5 252.234375 143.351562 C 252.402344 144.628906 252.574219 146.074219 252.828125 147.605469 C 253.253906 150.753906 253.933594 154.238281 254.953125 157.726562 Z M 254.953125 157.726562 " fill-opacity="1" fill-rule="nonzero"/><path fill="#2e344d" d="M 287.261719 143.777344 C 287.261719 143.777344 291.683594 119.957031 272.640625 121.574219 C 272.640625 121.574219 257.761719 115.960938 248.75 124.125 C 240.757812 131.441406 245.175781 140.289062 251.640625 141.820312 C 255.890625 142.839844 274.253906 135.78125 277.316406 137.3125 C 280.375 138.84375 285.988281 156.535156 285.988281 156.535156 C 285.988281 156.535156 285.902344 148.457031 287.261719 143.777344 Z M 287.261719 143.777344 " fill-opacity="1" fill-rule="nonzero"/><path fill="#2e344d" d="M 276.0625 121.835938 C 276.132812 122.355469 276.152344 122.875 276.125 123.398438 C 276.09375 123.921875 276.019531 124.4375 275.890625 124.945312 C 275.765625 125.449219 275.59375 125.9375 275.375 126.410156 C 275.15625 126.878906 274.894531 127.320312 274.589844 127.734375 C 274.289062 128.152344 273.949219 128.53125 273.574219 128.875 C 273.199219 129.21875 272.792969 129.523438 272.359375 129.78125 C 271.925781 130.042969 271.472656 130.257812 270.996094 130.421875 C 270.523438 130.589844 270.035156 130.707031 269.539062 130.773438 C 269.039062 130.839844 268.539062 130.855469 268.039062 130.820312 C 267.535156 130.78125 267.042969 130.695312 266.554688 130.558594 C 266.066406 130.421875 265.597656 130.234375 265.144531 130 C 264.691406 129.765625 264.265625 129.488281 263.863281 129.167969 C 263.464844 128.847656 263.09375 128.488281 262.761719 128.09375 C 262.425781 127.699219 262.132812 127.273438 261.878906 126.816406 C 261.621094 126.363281 261.414062 125.886719 261.246094 125.386719 C 261.082031 124.890625 260.964844 124.382812 260.894531 123.863281 C 260.824219 123.339844 260.804688 122.820312 260.835938 122.296875 C 260.863281 121.773438 260.941406 121.257812 261.066406 120.75 C 261.195312 120.246094 261.367188 119.757812 261.585938 119.289062 C 261.804688 118.816406 262.066406 118.375 262.367188 117.960938 C 262.671875 117.546875 263.011719 117.164062 263.386719 116.820312 C 263.761719 116.476562 264.167969 116.175781 264.597656 115.914062 C 265.03125 115.652344 265.488281 115.4375 265.960938 115.273438 C 266.4375 115.105469 266.921875 114.988281 267.421875 114.921875 C 267.917969 114.855469 268.417969 114.839844 268.921875 114.875 C 269.421875 114.914062 269.917969 115 270.40625 115.136719 C 270.890625 115.277344 271.359375 115.460938 271.8125 115.695312 C 272.265625 115.929688 272.691406 116.207031 273.09375 116.527344 C 273.496094 116.847656 273.863281 117.207031 274.199219 117.601562 C 274.53125 117.996094 274.828125 118.421875 275.082031 118.878906 C 275.335938 119.332031 275.546875 119.808594 275.710938 120.308594 C 275.878906 120.804688 275.996094 121.3125 276.0625 121.835938 Z M 276.0625 121.835938 " fill-opacity="1" fill-rule="nonzero"/><path fill="#2e344d" d="M 267.03125 125.273438 C 267.121094 125.949219 267.148438 126.628906 267.109375 127.304688 C 267.074219 127.984375 266.972656 128.652344 266.808594 129.3125 C 266.644531 129.96875 266.417969 130.601562 266.132812 131.210938 C 265.847656 131.820312 265.507812 132.394531 265.117188 132.933594 C 264.722656 133.472656 264.28125 133.964844 263.792969 134.414062 C 263.304688 134.859375 262.777344 135.253906 262.214844 135.589844 C 261.652344 135.929688 261.058594 136.207031 260.441406 136.421875 C 259.824219 136.640625 259.191406 136.792969 258.546875 136.878906 C 257.898438 136.964844 257.25 136.984375 256.597656 136.9375 C 255.945312 136.890625 255.300781 136.777344 254.667969 136.601562 C 254.035156 136.421875 253.425781 136.179688 252.835938 135.875 C 252.25 135.574219 251.691406 135.214844 251.171875 134.796875 C 250.648438 134.378906 250.171875 133.914062 249.738281 133.402344 C 249.304688 132.890625 248.921875 132.335938 248.589844 131.746094 C 248.257812 131.15625 247.984375 130.535156 247.769531 129.890625 C 247.554688 129.246094 247.402344 128.585938 247.3125 127.910156 C 247.222656 127.234375 247.195312 126.554688 247.234375 125.878906 C 247.273438 125.199219 247.375 124.53125 247.539062 123.871094 C 247.703125 123.214844 247.925781 122.582031 248.210938 121.972656 C 248.496094 121.363281 248.835938 120.789062 249.230469 120.25 C 249.625 119.710938 250.066406 119.21875 250.554688 118.769531 C 251.042969 118.324219 251.566406 117.929688 252.132812 117.59375 C 252.695312 117.253906 253.285156 116.976562 253.902344 116.761719 C 254.519531 116.542969 255.152344 116.390625 255.800781 116.304688 C 256.445312 116.21875 257.097656 116.199219 257.75 116.246094 C 258.402344 116.292969 259.042969 116.40625 259.675781 116.585938 C 260.308594 116.761719 260.921875 117.003906 261.507812 117.308594 C 262.097656 117.609375 262.652344 117.96875 263.171875 118.386719 C 263.695312 118.804688 264.171875 119.269531 264.609375 119.78125 C 265.042969 120.296875 265.425781 120.847656 265.757812 121.4375 C 266.085938 122.027344 266.359375 122.648438 266.574219 123.292969 C 266.789062 123.9375 266.941406 124.597656 267.03125 125.273438 Z M 267.03125 125.273438 " fill-opacity="1" fill-rule="nonzero"/><path fill="#2e344d" d="M 254.722656 132.390625 C 254.789062 132.910156 254.808594 133.433594 254.78125 133.957031 C 254.753906 134.480469 254.675781 134.996094 254.546875 135.5 C 254.421875 136.007812 254.25 136.496094 254.03125 136.964844 C 253.8125 137.433594 253.550781 137.875 253.246094 138.292969 C 252.945312 138.707031 252.605469 139.085938 252.230469 139.429688 C 251.855469 139.777344 251.449219 140.078125 251.015625 140.339844 C 250.582031 140.597656 250.128906 140.8125 249.652344 140.980469 C 249.179688 141.148438 248.691406 141.261719 248.195312 141.328125 C 247.695312 141.394531 247.195312 141.410156 246.695312 141.375 C 246.191406 141.339844 245.699219 141.253906 245.210938 141.113281 C 244.722656 140.976562 244.253906 140.789062 243.800781 140.558594 C 243.347656 140.324219 242.921875 140.046875 242.519531 139.726562 C 242.121094 139.402344 241.753906 139.046875 241.417969 138.648438 C 241.082031 138.253906 240.789062 137.828125 240.535156 137.375 C 240.277344 136.917969 240.070312 136.441406 239.902344 135.945312 C 239.738281 135.445312 239.621094 134.9375 239.550781 134.417969 C 239.480469 133.898438 239.460938 133.375 239.492188 132.851562 C 239.519531 132.328125 239.597656 131.8125 239.722656 131.308594 C 239.851562 130.800781 240.023438 130.3125 240.242188 129.84375 C 240.460938 129.375 240.722656 128.929688 241.023438 128.515625 C 241.328125 128.101562 241.667969 127.722656 242.042969 127.378906 C 242.417969 127.03125 242.824219 126.730469 243.257812 126.46875 C 243.691406 126.207031 244.144531 125.996094 244.617188 125.828125 C 245.09375 125.660156 245.582031 125.546875 246.078125 125.476562 C 246.578125 125.410156 247.078125 125.398438 247.578125 125.433594 C 248.082031 125.46875 248.574219 125.554688 249.0625 125.695312 C 249.546875 125.832031 250.019531 126.015625 250.46875 126.25 C 250.921875 126.484375 251.351562 126.761719 251.75 127.082031 C 252.152344 127.402344 252.519531 127.761719 252.855469 128.15625 C 253.1875 128.554688 253.484375 128.980469 253.738281 129.433594 C 253.992188 129.890625 254.203125 130.367188 254.367188 130.863281 C 254.535156 131.363281 254.652344 131.871094 254.722656 132.390625 Z M 254.722656 132.390625 " fill-opacity="1" fill-rule="nonzero"/><path fill="#2e344d" d="M 278.890625 134.964844 C 278.941406 135.339844 278.953125 135.71875 278.933594 136.097656 C 278.914062 136.472656 278.855469 136.847656 278.765625 137.214844 C 278.675781 137.578125 278.550781 137.933594 278.390625 138.273438 C 278.234375 138.613281 278.046875 138.933594 277.828125 139.230469 C 277.609375 139.53125 277.363281 139.808594 277.089844 140.054688 C 276.820312 140.304688 276.527344 140.523438 276.214844 140.710938 C 275.902344 140.902344 275.574219 141.054688 275.230469 141.175781 C 274.886719 141.296875 274.535156 141.378906 274.175781 141.429688 C 273.816406 141.476562 273.457031 141.488281 273.09375 141.460938 C 272.730469 141.433594 272.375 141.371094 272.023438 141.273438 C 271.671875 141.171875 271.332031 141.039062 271.003906 140.867188 C 270.679688 140.699219 270.371094 140.5 270.078125 140.265625 C 269.789062 140.035156 269.523438 139.777344 269.28125 139.488281 C 269.039062 139.203125 268.828125 138.894531 268.644531 138.566406 C 268.460938 138.234375 268.308594 137.890625 268.1875 137.53125 C 268.070312 137.171875 267.984375 136.804688 267.933594 136.425781 C 267.882812 136.050781 267.871094 135.671875 267.890625 135.292969 C 267.910156 134.914062 267.96875 134.542969 268.058594 134.175781 C 268.148438 133.8125 268.273438 133.457031 268.433594 133.117188 C 268.589844 132.777344 268.777344 132.457031 268.996094 132.160156 C 269.214844 131.859375 269.460938 131.582031 269.730469 131.335938 C 270.003906 131.085938 270.296875 130.867188 270.609375 130.679688 C 270.921875 130.488281 271.25 130.335938 271.59375 130.214844 C 271.9375 130.09375 272.285156 130.007812 272.648438 129.960938 C 273.007812 129.914062 273.367188 129.902344 273.730469 129.929688 C 274.09375 129.957031 274.449219 130.019531 274.800781 130.117188 C 275.152344 130.21875 275.492188 130.351562 275.820312 130.519531 C 276.144531 130.691406 276.453125 130.890625 276.742188 131.125 C 277.035156 131.355469 277.300781 131.613281 277.542969 131.902344 C 277.78125 132.1875 277.996094 132.496094 278.179688 132.824219 C 278.363281 133.152344 278.515625 133.5 278.636719 133.859375 C 278.753906 134.21875 278.839844 134.585938 278.890625 134.964844 Z M 278.890625 134.964844 " fill-opacity="1" fill-rule="nonzero"/><path fill="#2e344d" d="M 286.027344 124.761719 C 286.078125 125.136719 286.09375 125.515625 286.074219 125.894531 C 286.050781 126.273438 285.996094 126.644531 285.90625 127.011719 C 285.8125 127.378906 285.6875 127.730469 285.53125 128.070312 C 285.371094 128.410156 285.183594 128.730469 284.964844 129.03125 C 284.746094 129.328125 284.5 129.605469 284.230469 129.855469 C 283.960938 130.101562 283.667969 130.320312 283.355469 130.511719 C 283.039062 130.699219 282.714844 130.851562 282.371094 130.972656 C 282.027344 131.09375 281.675781 131.179688 281.316406 131.226562 C 280.957031 131.273438 280.59375 131.285156 280.234375 131.257812 C 279.871094 131.234375 279.511719 131.167969 279.160156 131.070312 C 278.808594 130.96875 278.472656 130.835938 278.144531 130.667969 C 277.816406 130.496094 277.507812 130.296875 277.21875 130.066406 C 276.929688 129.832031 276.664062 129.574219 276.421875 129.285156 C 276.179688 129 275.96875 128.691406 275.78125 128.363281 C 275.597656 128.035156 275.445312 127.6875 275.328125 127.328125 C 275.207031 126.96875 275.125 126.601562 275.074219 126.226562 C 275.023438 125.847656 275.007812 125.472656 275.027344 125.09375 C 275.050781 124.714844 275.105469 124.339844 275.195312 123.976562 C 275.289062 123.609375 275.414062 123.257812 275.570312 122.917969 C 275.730469 122.578125 275.917969 122.257812 276.136719 121.957031 C 276.355469 121.65625 276.601562 121.382812 276.871094 121.132812 C 277.140625 120.882812 277.433594 120.664062 277.746094 120.476562 C 278.0625 120.289062 278.386719 120.132812 278.730469 120.011719 C 279.074219 119.890625 279.425781 119.808594 279.785156 119.757812 C 280.144531 119.710938 280.507812 119.699219 280.867188 119.726562 C 281.230469 119.753906 281.589844 119.816406 281.941406 119.914062 C 282.292969 120.015625 282.628906 120.148438 282.957031 120.320312 C 283.285156 120.488281 283.59375 120.6875 283.882812 120.921875 C 284.171875 121.152344 284.4375 121.414062 284.679688 121.699219 C 284.921875 121.984375 285.132812 122.292969 285.320312 122.621094 C 285.503906 122.953125 285.65625 123.296875 285.773438 123.65625 C 285.894531 124.015625 285.976562 124.382812 286.027344 124.761719 Z M 286.027344 124.761719 " fill-opacity="1" fill-rule="nonzero"/><path fill="#2e344d" d="M 289.261719 131.652344 C 289.3125 132.027344 289.328125 132.40625 289.308594 132.785156 C 289.285156 133.164062 289.230469 133.535156 289.136719 133.902344 C 289.046875 134.265625 288.921875 134.621094 288.765625 134.960938 C 288.605469 135.300781 288.417969 135.621094 288.199219 135.917969 C 287.980469 136.21875 287.734375 136.496094 287.464844 136.742188 C 287.191406 136.992188 286.902344 137.210938 286.589844 137.398438 C 286.273438 137.589844 285.945312 137.742188 285.605469 137.863281 C 285.261719 137.984375 284.910156 138.070312 284.550781 138.117188 C 284.191406 138.164062 283.828125 138.175781 283.46875 138.148438 C 283.105469 138.121094 282.746094 138.058594 282.394531 137.960938 C 282.042969 137.859375 281.703125 137.726562 281.378906 137.558594 C 281.050781 137.386719 280.742188 137.1875 280.453125 136.953125 C 280.164062 136.722656 279.898438 136.464844 279.65625 136.175781 C 279.414062 135.890625 279.199219 135.582031 279.015625 135.253906 C 278.832031 134.925781 278.679688 134.578125 278.5625 134.21875 C 278.441406 133.859375 278.359375 133.492188 278.308594 133.113281 C 278.257812 132.738281 278.242188 132.359375 278.261719 131.984375 C 278.285156 131.605469 278.339844 131.230469 278.429688 130.867188 C 278.523438 130.5 278.648438 130.144531 278.804688 129.804688 C 278.964844 129.464844 279.152344 129.148438 279.371094 128.847656 C 279.589844 128.546875 279.835938 128.273438 280.105469 128.023438 C 280.375 127.773438 280.667969 127.554688 280.980469 127.367188 C 281.292969 127.175781 281.621094 127.023438 281.964844 126.902344 C 282.308594 126.78125 282.660156 126.699219 283.019531 126.648438 C 283.378906 126.601562 283.742188 126.589844 284.101562 126.617188 C 284.464844 126.644531 284.824219 126.707031 285.175781 126.804688 C 285.527344 126.90625 285.863281 127.039062 286.191406 127.210938 C 286.519531 127.378906 286.828125 127.578125 287.117188 127.8125 C 287.40625 128.042969 287.671875 128.304688 287.914062 128.589844 C 288.15625 128.875 288.367188 129.183594 288.550781 129.511719 C 288.738281 129.84375 288.886719 130.1875 289.007812 130.546875 C 289.128906 130.90625 289.210938 131.273438 289.261719 131.652344 Z M 289.261719 131.652344 " fill-opacity="1" fill-rule="nonzero"/><path fill="#2e344d" d="M 288.84375 138.308594 C 288.886719 138.628906 288.898438 138.953125 288.882812 139.277344 C 288.867188 139.597656 288.820312 139.914062 288.742188 140.226562 C 288.664062 140.539062 288.558594 140.839844 288.425781 141.132812 C 288.292969 141.421875 288.132812 141.691406 287.949219 141.949219 C 287.765625 142.203125 287.558594 142.4375 287.328125 142.652344 C 287.097656 142.863281 286.851562 143.050781 286.585938 143.210938 C 286.320312 143.371094 286.042969 143.5 285.753906 143.605469 C 285.464844 143.707031 285.167969 143.777344 284.863281 143.820312 C 284.558594 143.859375 284.253906 143.867188 283.945312 143.847656 C 283.640625 143.824219 283.335938 143.769531 283.039062 143.683594 C 282.742188 143.597656 282.453125 143.484375 282.175781 143.339844 C 281.902344 143.195312 281.640625 143.023438 281.394531 142.824219 C 281.148438 142.625 280.921875 142.40625 280.71875 142.160156 C 280.515625 141.917969 280.332031 141.652344 280.175781 141.371094 C 280.019531 141.089844 279.894531 140.796875 279.792969 140.492188 C 279.691406 140.183594 279.617188 139.871094 279.574219 139.546875 C 279.53125 139.226562 279.519531 138.90625 279.535156 138.582031 C 279.554688 138.257812 279.601562 137.941406 279.679688 137.628906 C 279.753906 137.316406 279.859375 137.015625 279.992188 136.726562 C 280.125 136.4375 280.285156 136.164062 280.472656 135.910156 C 280.65625 135.652344 280.863281 135.417969 281.09375 135.207031 C 281.320312 134.996094 281.566406 134.808594 281.832031 134.648438 C 282.097656 134.488281 282.375 134.355469 282.664062 134.253906 C 282.957031 134.152344 283.253906 134.078125 283.558594 134.039062 C 283.859375 133.996094 284.167969 133.988281 284.472656 134.011719 C 284.78125 134.035156 285.082031 134.089844 285.378906 134.171875 C 285.679688 134.257812 285.964844 134.375 286.242188 134.519531 C 286.519531 134.664062 286.78125 134.835938 287.027344 135.03125 C 287.269531 135.230469 287.496094 135.453125 287.699219 135.695312 C 287.90625 135.941406 288.085938 136.203125 288.242188 136.484375 C 288.398438 136.765625 288.527344 137.058594 288.628906 137.367188 C 288.730469 137.675781 288.800781 137.988281 288.84375 138.308594 Z M 288.84375 138.308594 " fill-opacity="1" fill-rule="nonzero"/><path fill="#2e344d" d="M 268.34375 138.457031 C 268.394531 138.832031 268.40625 139.210938 268.386719 139.589844 C 268.367188 139.96875 268.308594 140.339844 268.21875 140.707031 C 268.128906 141.070312 268.003906 141.425781 267.84375 141.765625 C 267.6875 142.105469 267.5 142.425781 267.28125 142.722656 C 267.0625 143.023438 266.816406 143.300781 266.542969 143.546875 C 266.273438 143.796875 265.980469 144.015625 265.667969 144.203125 C 265.355469 144.394531 265.027344 144.546875 264.683594 144.667969 C 264.339844 144.789062 263.988281 144.875 263.628906 144.921875 C 263.269531 144.96875 262.910156 144.980469 262.546875 144.953125 C 262.183594 144.925781 261.828125 144.863281 261.476562 144.765625 C 261.125 144.664062 260.785156 144.53125 260.457031 144.363281 C 260.132812 144.191406 259.824219 143.992188 259.53125 143.757812 C 259.242188 143.527344 258.976562 143.269531 258.734375 142.980469 C 258.496094 142.695312 258.28125 142.386719 258.097656 142.058594 C 257.914062 141.730469 257.761719 141.382812 257.640625 141.023438 C 257.523438 140.664062 257.4375 140.296875 257.386719 139.917969 C 257.335938 139.542969 257.324219 139.164062 257.34375 138.785156 C 257.363281 138.410156 257.421875 138.035156 257.511719 137.667969 C 257.601562 137.304688 257.726562 136.949219 257.886719 136.609375 C 258.042969 136.269531 258.230469 135.953125 258.449219 135.652344 C 258.667969 135.351562 258.914062 135.078125 259.183594 134.828125 C 259.457031 134.578125 259.75 134.359375 260.0625 134.171875 C 260.375 133.980469 260.703125 133.828125 261.046875 133.707031 C 261.390625 133.585938 261.738281 133.503906 262.101562 133.453125 C 262.460938 133.40625 262.820312 133.394531 263.183594 133.421875 C 263.546875 133.449219 263.902344 133.511719 264.253906 133.609375 C 264.605469 133.710938 264.945312 133.84375 265.273438 134.015625 C 265.597656 134.183594 265.90625 134.382812 266.199219 134.617188 C 266.488281 134.847656 266.753906 135.105469 266.996094 135.394531 C 267.234375 135.679688 267.449219 135.988281 267.632812 136.316406 C 267.816406 136.648438 267.96875 136.992188 268.089844 137.351562 C 268.207031 137.710938 268.292969 138.078125 268.34375 138.457031 Z M 268.34375 138.457031 " fill-opacity="1" fill-rule="nonzero"/><path fill="#2e344d" d="M 279.820312 119.570312 C 279.871094 119.949219 279.886719 120.324219 279.867188 120.703125 C 279.84375 121.082031 279.789062 121.457031 279.699219 121.820312 C 279.605469 122.1875 279.480469 122.542969 279.324219 122.878906 C 279.164062 123.21875 278.976562 123.539062 278.757812 123.839844 C 278.539062 124.140625 278.296875 124.414062 278.023438 124.664062 C 277.753906 124.914062 277.460938 125.132812 277.148438 125.320312 C 276.835938 125.507812 276.507812 125.664062 276.164062 125.785156 C 275.820312 125.90625 275.46875 125.988281 275.109375 126.039062 C 274.75 126.085938 274.390625 126.097656 274.027344 126.070312 C 273.664062 126.042969 273.304688 125.980469 272.957031 125.882812 C 272.605469 125.78125 272.265625 125.648438 271.9375 125.476562 C 271.609375 125.308594 271.300781 125.109375 271.011719 124.875 C 270.722656 124.644531 270.457031 124.382812 270.214844 124.097656 C 269.972656 123.8125 269.761719 123.503906 269.578125 123.175781 C 269.390625 122.84375 269.242188 122.5 269.121094 122.140625 C 269 121.78125 268.917969 121.414062 268.867188 121.035156 C 268.816406 120.660156 268.800781 120.28125 268.824219 119.902344 C 268.84375 119.523438 268.898438 119.152344 268.992188 118.785156 C 269.082031 118.421875 269.207031 118.066406 269.363281 117.726562 C 269.523438 117.386719 269.710938 117.066406 269.929688 116.765625 C 270.148438 116.46875 270.394531 116.191406 270.664062 115.945312 C 270.9375 115.695312 271.226562 115.476562 271.539062 115.285156 C 271.855469 115.097656 272.183594 114.945312 272.523438 114.824219 C 272.867188 114.703125 273.21875 114.617188 273.578125 114.570312 C 273.9375 114.523438 274.300781 114.511719 274.664062 114.539062 C 275.023438 114.5625 275.382812 114.628906 275.734375 114.726562 C 276.085938 114.828125 276.425781 114.960938 276.75 115.128906 C 277.078125 115.300781 277.386719 115.5 277.675781 115.730469 C 277.964844 115.964844 278.230469 116.222656 278.472656 116.511719 C 278.714844 116.796875 278.929688 117.105469 279.113281 117.433594 C 279.296875 117.761719 279.449219 118.109375 279.566406 118.46875 C 279.6875 118.828125 279.773438 119.195312 279.820312 119.570312 Z M 279.820312 119.570312 " fill-opacity="1" fill-rule="nonzero"/><path fill="#efc0c1" d="M 284.203125 145.988281 C 284.203125 145.988281 289.8125 141.480469 290.152344 147.519531 C 290.578125 153.558594 285.136719 156.792969 285.136719 156.792969 Z M 284.203125 145.988281 " fill-opacity="1" fill-rule="nonzero"/><path fill="#e0adb0" d="M 285.816406 147.773438 C 285.816406 147.773438 290.324219 145.902344 286.328125 152.792969 Z M 285.816406 147.773438 " fill-opacity="1" fill-rule="nonzero"/><path fill="#2e344d" d="M 261.28125 155.554688 C 261.351562 155.757812 261.398438 155.960938 261.417969 156.160156 C 261.441406 156.363281 261.433594 156.550781 261.402344 156.722656 C 261.367188 156.894531 261.3125 157.039062 261.230469 157.15625 C 261.148438 157.269531 261.050781 157.347656 260.933594 157.390625 C 260.816406 157.429688 260.691406 157.429688 260.554688 157.390625 C 260.417969 157.351562 260.285156 157.273438 260.152344 157.160156 C 260.019531 157.046875 259.898438 156.90625 259.789062 156.734375 C 259.679688 156.5625 259.585938 156.375 259.515625 156.171875 C 259.445312 155.972656 259.398438 155.769531 259.378906 155.566406 C 259.359375 155.363281 259.363281 155.175781 259.398438 155.003906 C 259.429688 154.832031 259.488281 154.6875 259.566406 154.574219 C 259.648438 154.457031 259.75 154.378906 259.863281 154.339844 C 259.980469 154.296875 260.109375 154.296875 260.242188 154.335938 C 260.378906 154.375 260.511719 154.453125 260.644531 154.566406 C 260.777344 154.679688 260.898438 154.824219 261.011719 154.996094 C 261.121094 155.164062 261.210938 155.351562 261.28125 155.554688 Z M 261.28125 155.554688 " fill-opacity="1" fill-rule="nonzero"/><path fill="#2e344d" d="M 272.335938 153.085938 C 272.40625 153.289062 272.453125 153.492188 272.472656 153.695312 C 272.496094 153.898438 272.488281 154.085938 272.457031 154.257812 C 272.421875 154.429688 272.367188 154.570312 272.285156 154.6875 C 272.203125 154.804688 272.105469 154.882812 271.988281 154.921875 C 271.871094 154.964844 271.746094 154.964844 271.609375 154.925781 C 271.476562 154.882812 271.339844 154.808594 271.207031 154.695312 C 271.074219 154.578125 270.953125 154.4375 270.84375 154.265625 C 270.734375 154.09375 270.644531 153.910156 270.570312 153.707031 C 270.5 153.503906 270.457031 153.300781 270.433594 153.097656 C 270.414062 152.894531 270.421875 152.707031 270.453125 152.535156 C 270.484375 152.363281 270.542969 152.222656 270.625 152.105469 C 270.703125 151.992188 270.804688 151.914062 270.921875 151.871094 C 271.039062 151.832031 271.164062 151.828125 271.300781 151.867188 C 271.433594 151.910156 271.566406 151.984375 271.699219 152.097656 C 271.832031 152.214844 271.957031 152.355469 272.066406 152.527344 C 272.175781 152.699219 272.265625 152.886719 272.335938 153.085938 Z M 272.335938 153.085938 " fill-opacity="1" fill-rule="nonzero"/><path fill="#2e344d" d="M 261.585938 151.175781 C 261.585938 151.175781 258.609375 149.476562 256.398438 151.007812 Z M 261.585938 151.175781 " fill-opacity="1" fill-rule="nonzero"/><path fill="#2e344d" d="M 274.253906 147.433594 C 274 147.433594 270.429688 147.265625 268.644531 149.816406 Z M 274.253906 147.433594 " fill-opacity="1" fill-rule="nonzero"/><path stroke-linecap="round" transform="matrix(0.850202, 0, 0, 0.850649, -22.806296, -25.75769)" fill="none" stroke-linejoin="round" d="M 339.801517 214.298559 C 339.801517 214.298559 340.899601 217.301781 339.700438 218.399288 C 338.400196 219.501388 338.198039 222.702069 341.901201 221.099433 " stroke="#e0adb0" stroke-width="0.364" stroke-opacity="1" stroke-miterlimit="10"/><path fill="#ffffff" d="M 264.816406 167.765625 C 264.816406 167.765625 264.988281 168.019531 265.328125 168.273438 C 265.921875 168.785156 267.113281 169.464844 268.8125 169.210938 C 270.511719 168.871094 271.449219 167.765625 271.957031 167 C 272.214844 166.574219 272.382812 166.234375 272.382812 166.234375 " fill-opacity="1" fill-rule="nonzero"/><path fill="#df5849" d="M 249.257812 199.75 C 250.449219 217.1875 253.765625 234.117188 255.039062 251.296875 C 257.164062 269.671875 258.441406 286.175781 258.441406 286.34375 C 258.355469 285.835938 265.582031 290.597656 282.5 293.40625 C 298.65625 296.042969 325.605469 298.507812 332.75 295.191406 C 333.003906 295.105469 330.367188 252.320312 330.113281 251.296875 C 323.566406 187.753906 324.160156 183.246094 315.746094 179.078125 C 311.832031 176.695312 308.859375 176.867188 304.265625 176.015625 C 301.121094 175.335938 292.109375 174.484375 290.324219 174.398438 C 286.070312 180.695312 277.996094 191.5 271.617188 192.773438 C 268.386719 192.261719 267.792969 180.523438 267.113281 178.652344 C 256.058594 181.375 247.726562 187.753906 249.257812 199.75 Z M 249.257812 199.75 " fill-opacity="1" fill-rule="nonzero"/><path fill="#efc0c1" d="M 335.980469 234.199219 C 335.980469 234.199219 341.421875 264.484375 338.105469 271.628906 C 335.214844 277.925781 335.214844 276.648438 312.34375 276.308594 C 302.3125 276.136719 286.921875 276.308594 286.921875 276.308594 L 286.328125 263.546875 L 312.089844 255.125 L 309.621094 240.324219 Z M 335.980469 234.199219 " fill-opacity="1" fill-rule="nonzero"/><path fill="#efc0c1" d="M 288.707031 263.632812 C 288.707031 263.632812 283.945312 261.589844 280.886719 259.71875 C 277.824219 257.847656 274.253906 256.0625 271.957031 256.488281 C 269.664062 256.914062 255.125 261.847656 257.335938 264.996094 C 257.335938 264.996094 254.273438 267.207031 255.976562 269.164062 C 255.976562 269.164062 255.210938 270.269531 256.316406 271.628906 C 257.421875 272.988281 263.285156 267.972656 266.09375 267.886719 C 268.898438 267.800781 273.0625 268.054688 273.0625 268.054688 C 273.0625 268.054688 267.113281 270.269531 265.921875 270.695312 C 264.648438 271.117188 261.246094 273.246094 261.671875 274.265625 C 262.097656 275.285156 267.027344 272.480469 269.578125 272.054688 C 272.128906 271.628906 274.847656 270.863281 276.210938 272.226562 C 277.570312 273.5 279.609375 276.308594 282.585938 276.308594 C 285.5625 276.308594 288.113281 275.882812 288.113281 275.882812 Z M 288.707031 263.632812 " fill-opacity="1" fill-rule="nonzero"/><path fill="#e0adb0" d="M 257.25 265.078125 C 257.25 265.078125 257.421875 264.910156 257.761719 264.652344 C 258.101562 264.398438 258.527344 263.972656 259.121094 263.632812 C 259.714844 263.292969 260.394531 262.78125 261.246094 262.273438 C 262.011719 261.847656 262.945312 261.421875 263.882812 261.082031 C 264.816406 260.742188 265.753906 260.484375 266.6875 260.316406 C 267.621094 260.144531 268.472656 260.144531 269.152344 260.058594 C 269.917969 260.058594 270.511719 260.144531 270.9375 260.144531 C 271.363281 260.230469 271.617188 260.230469 271.617188 260.230469 C 271.617188 260.230469 271.363281 260.230469 270.9375 260.230469 C 270.511719 260.230469 269.917969 260.316406 269.238281 260.402344 C 268.558594 260.484375 267.707031 260.65625 266.859375 260.824219 C 266.007812 260.996094 265.070312 261.25 264.222656 261.589844 C 263.371094 261.933594 262.4375 262.355469 261.671875 262.699219 C 260.820312 263.121094 260.140625 263.464844 259.460938 263.804688 C 258.867188 264.144531 258.269531 264.484375 257.929688 264.652344 C 257.421875 264.992188 257.25 265.078125 257.25 265.078125 Z M 257.25 265.078125 " fill-opacity="1" fill-rule="nonzero"/><path fill="#e0adb0" d="M 255.890625 269.246094 C 255.890625 269.246094 256.058594 269.078125 256.484375 268.820312 C 256.824219 268.566406 257.335938 268.140625 258.015625 267.714844 C 258.695312 267.289062 259.460938 266.78125 260.3125 266.269531 C 261.160156 265.757812 262.097656 265.25 263.117188 264.824219 C 264.136719 264.398438 265.15625 264.144531 266.175781 264.058594 C 267.199219 263.972656 268.132812 263.972656 268.898438 263.972656 C 269.664062 263.972656 270.34375 264.058594 270.855469 264.058594 C 271.277344 264.144531 271.617188 264.144531 271.617188 264.144531 C 271.617188 264.144531 271.363281 264.144531 270.855469 264.144531 C 270.429688 264.144531 269.75 264.230469 268.984375 264.230469 C 268.21875 264.3125 267.28125 264.398438 266.347656 264.570312 C 265.414062 264.738281 264.390625 264.992188 263.457031 265.417969 C 262.523438 265.84375 261.585938 266.269531 260.734375 266.695312 C 259.886719 267.121094 259.035156 267.546875 258.355469 267.972656 C 257.675781 268.3125 257.082031 268.652344 256.65625 268.90625 C 256.058594 269.164062 255.890625 269.246094 255.890625 269.246094 Z M 255.890625 269.246094 " fill-opacity="1" fill-rule="nonzero"/><path stroke-linecap="butt" transform="matrix(0.850202, 0, 0, 0.850649, -22.806296, -25.75769)" fill="none" stroke-linejoin="miter" d="M 393.90169 330.101689 L 404.799831 330.101689 " stroke="#313131" stroke-width="0.327" stroke-opacity="1" stroke-miterlimit="10"/><path fill="#df5849" d="M 314.554688 178.484375 C 314.554688 178.484375 327.308594 183.160156 330.027344 194.558594 C 332.75 205.960938 338.019531 236.667969 338.019531 236.667969 L 309.199219 241.175781 C 309.199219 241.175781 303.417969 213.359375 302.054688 198.8125 C 300.609375 184.265625 314.554688 178.484375 314.554688 178.484375 Z M 314.554688 178.484375 " fill-opacity="1" fill-rule="nonzero"/><path stroke-linecap="butt" transform="matrix(0.850202, 0, 0, 0.850649, -22.806296, -25.75769)" fill="none" stroke-linejoin="miter" d="M 391.301206 315.599893 C 391.301206 315.599893 383.701912 281.099579 382.098434 263.998665 " stroke="#313131" stroke-width="0.327" stroke-opacity="1" stroke-miterlimit="10"/><path stroke-linecap="butt" transform="matrix(0.850202, 0, 0, 0.850649, -22.806296, -25.75769)" fill="none" stroke-linejoin="miter" d="M 320.899767 271.998072 C 321.997851 281.999628 324.001051 293.498201 325.498856 313.698771 " stroke="#313131" stroke-width="0.327" stroke-opacity="1" stroke-miterlimit="10"/><path fill="#2e344d" d="M 302.226562 289.152344 C 302.226562 289.152344 232.59375 268.992188 217.121094 268.398438 C 201.5625 267.800781 188.980469 276.050781 199.097656 293.320312 C 209.300781 310.589844 261.417969 336.023438 261.417969 336.023438 L 276.210938 325.304688 L 262.863281 311.183594 Z M 302.226562 289.152344 " fill-opacity="1" fill-rule="nonzero"/><path fill="#efc0c1" d="M 288.113281 329.898438 L 272.042969 317.90625 L 261.332031 335.429688 L 277.910156 348.1875 L 286.496094 347.933594 Z M 288.113281 329.898438 " fill-opacity="1" fill-rule="nonzero"/><path fill="#df5849" d="M 297.550781 333.554688 C 297.550781 333.554688 304.691406 337.382812 304.691406 338.574219 C 304.777344 341.722656 303.839844 343.253906 303.417969 346.742188 C 302.992188 350.058594 302.652344 352.78125 300.101562 357.714844 C 298.398438 361.03125 293.640625 371.070312 290.578125 369.539062 C 290.324219 369.453125 287.515625 368.6875 287.515625 368.179688 C 286.835938 362.5625 297.550781 333.554688 297.550781 333.554688 Z M 297.550781 333.554688 " fill-opacity="1" fill-rule="nonzero"/><path fill="#2e344d" d="M 288.027344 368.519531 C 292.109375 367.15625 306.476562 342.742188 300.269531 335.9375 C 296.871094 332.109375 287.515625 328.539062 287.515625 328.539062 C 287.515625 328.539062 285.5625 335.597656 279.949219 344.613281 C 278.164062 347.507812 276.71875 347.082031 276.636719 347.335938 C 276.550781 348.527344 277.738281 351.929688 277.910156 352.441406 C 278.082031 353.375 283.945312 369.792969 288.027344 368.519531 Z M 288.027344 368.519531 " fill-opacity="1" fill-rule="nonzero"/><path fill="#ffffff" d="M 280.035156 355.332031 C 280.289062 355.671875 280.800781 355.671875 281.054688 355.332031 L 287.09375 349.632812 C 287.433594 349.378906 287.433594 348.867188 287.09375 348.613281 C 286.835938 348.273438 286.328125 348.273438 286.070312 348.613281 L 280.035156 354.3125 C 279.78125 354.566406 279.78125 355.078125 280.035156 355.332031 Z M 280.035156 355.332031 " fill-opacity="1" fill-rule="nonzero"/><path fill="#ffffff" d="M 281.3125 358.054688 C 281.566406 358.394531 282.078125 358.394531 282.332031 358.054688 L 288.367188 352.355469 C 288.707031 352.101562 288.707031 351.589844 288.367188 351.335938 C 288.113281 350.996094 287.601562 350.996094 287.347656 351.335938 L 281.3125 357.035156 C 280.972656 357.289062 280.972656 357.800781 281.3125 358.054688 Z M 281.3125 358.054688 " fill-opacity="1" fill-rule="nonzero"/><path fill="#ffffff" d="M 282.671875 361.03125 C 282.925781 361.371094 283.4375 361.371094 283.691406 361.03125 L 289.726562 355.332031 C 290.066406 355.078125 290.066406 354.566406 289.726562 354.3125 C 289.472656 353.972656 288.964844 353.972656 288.707031 354.3125 L 282.671875 360.011719 C 282.417969 360.265625 282.417969 360.777344 282.671875 361.03125 Z M 282.671875 361.03125 " fill-opacity="1" fill-rule="nonzero"/><path fill="#ffffff" d="M 278.84375 352.78125 C 279.101562 353.121094 279.609375 353.121094 279.867188 352.78125 L 285.902344 347.082031 C 286.242188 346.828125 286.242188 346.316406 285.902344 346.0625 C 285.648438 345.71875 285.136719 345.71875 284.882812 346.0625 L 278.84375 351.761719 C 278.589844 352.015625 278.503906 352.441406 278.84375 352.78125 Z M 278.84375 352.78125 " fill-opacity="1" fill-rule="nonzero"/><path stroke-linecap="round" transform="matrix(0.850202, 0, 0, 0.850649, -22.806296, -25.75769)" fill="none" stroke-linejoin="round" d="M 336.00187 396.099095 L 293.59928 355.100985 " stroke="#000000" stroke-width="0.651" stroke-opacity="1" stroke-miterlimit="10"/><path fill="#efc0c1" d="M 216.609375 334.238281 L 233.445312 323.347656 L 242.96875 341.550781 L 225.707031 353.207031 L 217.121094 352.355469 Z M 216.609375 334.238281 " fill-opacity="1" fill-rule="nonzero"/><path fill="#df5849" d="M 206.917969 337.382812 C 206.917969 337.382812 199.605469 340.785156 199.4375 341.894531 C 199.179688 344.957031 200.03125 346.65625 200.203125 350.144531 C 200.371094 353.460938 200.625 356.183594 202.835938 361.289062 C 204.28125 364.691406 208.449219 374.984375 211.679688 373.707031 C 211.933594 373.621094 214.742188 373.027344 214.824219 372.515625 C 215.84375 366.902344 206.917969 337.382812 206.917969 337.382812 Z M 206.917969 337.382812 " fill-opacity="1" fill-rule="nonzero"/><path fill="#2e344d" d="M 214.316406 372.855469 C 210.320312 371.238281 198.925781 347.167969 204.113281 339.511719 C 205.984375 336.703125 216.101562 333.554688 217.289062 332.960938 C 217.289062 332.960938 218.820312 340.105469 223.835938 349.464844 C 225.453125 352.441406 226.898438 352.101562 226.898438 352.441406 C 226.898438 353.632812 225.453125 357.035156 225.367188 357.460938 C 225.199219 358.308594 218.3125 374.386719 214.316406 372.855469 Z M 214.316406 372.855469 " fill-opacity="1" fill-rule="nonzero"/><path fill="#ffffff" d="M 223.070312 360.183594 C 222.730469 360.4375 222.308594 360.4375 222.050781 360.183594 L 216.355469 354.140625 C 216.101562 353.800781 216.101562 353.375 216.355469 353.121094 C 216.695312 352.867188 217.121094 352.867188 217.375 353.121094 L 223.070312 359.160156 C 223.414062 359.417969 223.414062 359.925781 223.070312 360.183594 Z M 223.070312 360.183594 " fill-opacity="1" fill-rule="nonzero"/><path fill="#ffffff" d="M 221.710938 362.820312 C 221.371094 363.074219 220.945312 363.074219 220.691406 362.820312 L 214.996094 356.777344 C 214.738281 356.4375 214.738281 356.011719 214.996094 355.757812 C 215.335938 355.503906 215.761719 355.503906 216.015625 355.757812 L 221.710938 361.796875 C 221.96875 362.054688 221.96875 362.5625 221.710938 362.820312 Z M 221.710938 362.820312 " fill-opacity="1" fill-rule="nonzero"/><path fill="#ffffff" d="M 220.097656 365.710938 C 219.757812 365.964844 219.332031 365.964844 219.078125 365.710938 L 213.378906 359.671875 C 213.125 359.332031 213.125 358.90625 213.378906 358.652344 C 213.71875 358.394531 214.144531 358.394531 214.398438 358.652344 L 220.097656 364.691406 C 220.351562 364.945312 220.351562 365.457031 220.097656 365.710938 Z M 220.097656 365.710938 " fill-opacity="1" fill-rule="nonzero"/><path fill="#ffffff" d="M 224.433594 357.714844 C 224.09375 357.96875 223.667969 357.96875 223.414062 357.714844 L 217.714844 351.675781 C 217.460938 351.335938 217.460938 350.910156 217.714844 350.65625 C 218.054688 350.398438 218.480469 350.398438 218.734375 350.65625 L 224.433594 356.695312 C 224.773438 356.949219 224.773438 357.375 224.433594 357.714844 Z M 224.433594 357.714844 " fill-opacity="1" fill-rule="nonzero"/><path fill="#2e344d" d="M 287.433594 328.027344 C 287.433594 328.027344 292.023438 332.449219 292.363281 332.707031 C 296.613281 335.9375 301.632812 337.980469 306.902344 338.660156 C 314.128906 339.597656 321.609375 337.980469 328.15625 335.003906 C 333.003906 332.789062 337.933594 330.152344 341.589844 326.15625 C 351.027344 316.117188 348.730469 298.425781 342.441406 287.367188 C 337.679688 278.859375 328.835938 272.648438 318.804688 276.308594 C 293.808594 285.410156 228.089844 323.347656 228.089844 323.347656 L 242.457031 348.1875 C 242.625 348.1875 287.433594 328.027344 287.433594 328.027344 Z M 287.433594 328.027344 " fill-opacity="1" fill-rule="nonzero"/><path stroke-linecap="round" transform="matrix(0.850202, 0, 0, 0.850649, -22.806296, -25.75769)" fill="none" stroke-linejoin="round" d="M 373.299977 368.000144 C 339.098559 385.101058 295.299243 410.39884 295.299243 410.39884 " stroke="#000000" stroke-width="0.651" stroke-opacity="1" stroke-miterlimit="10"/><path stroke-linecap="round" transform="matrix(0.850202, 0, 0, 0.850649, -22.806296, -25.75769)" fill="none" stroke-linejoin="round" d="M 364.901241 415.900154 L 406.600873 398.79924 " stroke="#000000" stroke-width="0.651" stroke-opacity="1" stroke-miterlimit="10"/><path fill="#383334" d="M 198.925781 282.007812 L 268.386719 282.007812 L 249.34375 226.460938 L 179.796875 226.460938 Z M 198.925781 282.007812 " fill-opacity="1" fill-rule="nonzero"/><path fill="#536ec1" d="M 196.375 282.007812 L 265.921875 282.007812 L 246.878906 226.460938 L 177.332031 226.460938 Z M 196.375 282.007812 " fill-opacity="1" fill-rule="nonzero"/><path fill="#231f20" d="M 223.386719 252.449219 C 223.484375 252.878906 223.550781 253.3125 223.589844 253.746094 C 223.625 254.179688 223.632812 254.609375 223.613281 255.03125 C 223.589844 255.453125 223.539062 255.863281 223.457031 256.257812 C 223.378906 256.652344 223.269531 257.023438 223.132812 257.375 C 222.996094 257.722656 222.835938 258.042969 222.648438 258.335938 C 222.460938 258.628906 222.253906 258.890625 222.023438 259.113281 C 221.792969 259.335938 221.546875 259.523438 221.28125 259.671875 C 221.015625 259.816406 220.742188 259.925781 220.453125 259.988281 C 220.164062 260.054688 219.867188 260.074219 219.566406 260.054688 C 219.265625 260.03125 218.960938 259.96875 218.65625 259.863281 C 218.355469 259.757812 218.054688 259.613281 217.761719 259.429688 C 217.46875 259.242188 217.1875 259.019531 216.914062 258.761719 C 216.640625 258.503906 216.386719 258.210938 216.144531 257.890625 C 215.90625 257.566406 215.683594 257.21875 215.484375 256.847656 C 215.285156 256.472656 215.113281 256.082031 214.960938 255.671875 C 214.8125 255.261719 214.6875 254.84375 214.589844 254.410156 C 214.496094 253.980469 214.429688 253.546875 214.390625 253.113281 C 214.351562 252.679688 214.34375 252.25 214.367188 251.828125 C 214.386719 251.402344 214.4375 250.996094 214.519531 250.601562 C 214.601562 250.207031 214.707031 249.835938 214.84375 249.484375 C 214.980469 249.136719 215.144531 248.816406 215.328125 248.523438 C 215.515625 248.230469 215.726562 247.96875 215.953125 247.746094 C 216.183594 247.519531 216.433594 247.335938 216.695312 247.1875 C 216.960938 247.042969 217.238281 246.933594 217.527344 246.871094 C 217.816406 246.804688 218.109375 246.785156 218.414062 246.804688 C 218.714844 246.824219 219.015625 246.890625 219.320312 246.996094 C 219.625 247.097656 219.921875 247.246094 220.214844 247.429688 C 220.511719 247.617188 220.792969 247.839844 221.066406 248.097656 C 221.335938 248.355469 221.59375 248.648438 221.832031 248.96875 C 222.074219 249.292969 222.292969 249.640625 222.492188 250.011719 C 222.691406 250.386719 222.867188 250.777344 223.015625 251.1875 C 223.167969 251.597656 223.292969 252.015625 223.386719 252.449219 Z M 223.386719 252.449219 " fill-opacity="1" fill-rule="nonzero"/><path fill="#536ec1" d="M 196.375 276.394531 L 297.292969 276.394531 L 297.292969 282.007812 L 196.375 282.007812 Z M 196.375 276.394531 " fill-opacity="1" fill-rule="nonzero"/><path fill="#2e344d" d="M 68.421875 148.457031 C 68.421875 149.25 68.382812 150.042969 68.304688 150.832031 C 68.226562 151.621094 68.109375 152.40625 67.953125 153.183594 C 67.800781 153.964844 67.605469 154.734375 67.378906 155.492188 C 67.148438 156.253906 66.878906 157 66.574219 157.734375 C 66.273438 158.464844 65.933594 159.183594 65.558594 159.882812 C 65.183594 160.582031 64.777344 161.265625 64.335938 161.925781 C 63.894531 162.585938 63.421875 163.222656 62.921875 163.835938 C 62.417969 164.449219 61.882812 165.035156 61.324219 165.597656 C 60.761719 166.160156 60.175781 166.691406 59.5625 167.195312 C 58.949219 167.699219 58.3125 168.171875 57.652344 168.613281 C 56.992188 169.054688 56.3125 169.460938 55.613281 169.835938 C 54.910156 170.210938 54.195312 170.550781 53.460938 170.851562 C 52.730469 171.15625 51.984375 171.425781 51.222656 171.65625 C 50.464844 171.886719 49.695312 172.078125 48.917969 172.234375 C 48.136719 172.386719 47.355469 172.503906 46.566406 172.582031 C 45.773438 172.660156 44.984375 172.699219 44.191406 172.699219 C 43.394531 172.699219 42.605469 172.660156 41.816406 172.582031 C 41.023438 172.503906 40.242188 172.386719 39.460938 172.234375 C 38.683594 172.078125 37.914062 171.886719 37.15625 171.65625 C 36.394531 171.425781 35.648438 171.15625 34.917969 170.851562 C 34.183594 170.550781 33.46875 170.210938 32.765625 169.835938 C 32.066406 169.460938 31.386719 169.054688 30.726562 168.613281 C 30.066406 168.171875 29.429688 167.699219 28.816406 167.195312 C 28.203125 166.691406 27.617188 166.160156 27.054688 165.597656 C 26.496094 165.035156 25.960938 164.449219 25.460938 163.835938 C 24.957031 163.222656 24.484375 162.585938 24.042969 161.925781 C 23.601562 161.265625 23.195312 160.582031 22.820312 159.882812 C 22.445312 159.183594 22.105469 158.464844 21.804688 157.734375 C 21.5 157 21.234375 156.253906 21.003906 155.492188 C 20.773438 154.734375 20.578125 153.964844 20.425781 153.183594 C 20.269531 152.40625 20.152344 151.621094 20.074219 150.832031 C 19.996094 150.042969 19.957031 149.25 19.957031 148.457031 C 19.957031 147.660156 19.996094 146.867188 20.074219 146.078125 C 20.152344 145.289062 20.269531 144.503906 20.425781 143.726562 C 20.578125 142.945312 20.773438 142.175781 21.003906 141.417969 C 21.234375 140.65625 21.5 139.910156 21.804688 139.175781 C 22.105469 138.445312 22.445312 137.726562 22.820312 137.027344 C 23.195312 136.328125 23.601562 135.644531 24.042969 134.984375 C 24.484375 134.324219 24.957031 133.6875 25.460938 133.074219 C 25.960938 132.460938 26.496094 131.875 27.054688 131.3125 C 27.617188 130.75 28.203125 130.21875 28.816406 129.714844 C 29.429688 129.210938 30.066406 128.738281 30.726562 128.296875 C 31.386719 127.855469 32.066406 127.449219 32.765625 127.074219 C 33.46875 126.699219 34.183594 126.359375 34.917969 126.058594 C 35.648438 125.753906 36.394531 125.484375 37.15625 125.253906 C 37.914062 125.023438 38.683594 124.832031 39.460938 124.675781 C 40.242188 124.523438 41.023438 124.40625 41.816406 124.328125 C 42.605469 124.25 43.394531 124.210938 44.191406 124.210938 C 44.984375 124.210938 45.773438 124.25 46.566406 124.328125 C 47.355469 124.40625 48.136719 124.523438 48.917969 124.675781 C 49.695312 124.832031 50.464844 125.023438 51.222656 125.253906 C 51.984375 125.484375 52.730469 125.753906 53.460938 126.058594 C 54.195312 126.359375 54.910156 126.699219 55.613281 127.074219 C 56.3125 127.449219 56.992188 127.855469 57.652344 128.296875 C 58.3125 128.738281 58.949219 129.210938 59.5625 129.714844 C 60.175781 130.21875 60.761719 130.75 61.324219 131.3125 C 61.882812 131.875 62.417969 132.460938 62.921875 133.074219 C 63.421875 133.6875 63.894531 134.324219 64.335938 134.984375 C 64.777344 135.644531 65.183594 136.328125 65.558594 137.027344 C 65.933594 137.726562 66.273438 138.445312 66.574219 139.175781 C 66.878906 139.910156 67.148438 140.65625 67.378906 141.417969 C 67.605469 142.175781 67.800781 142.945312 67.953125 143.726562 C 68.109375 144.503906 68.226562 145.289062 68.304688 146.078125 C 68.382812 146.867188 68.421875 147.660156 68.421875 148.457031 Z M 68.421875 148.457031 " fill-opacity="1" fill-rule="nonzero"/><path fill="#ffffff" d="M 58.472656 145.5625 L 56.773438 145.5625 C 56.515625 144.285156 56.007812 143.011719 55.328125 141.90625 L 56.601562 140.628906 C 57.027344 140.203125 57.027344 139.4375 56.601562 139.011719 L 53.882812 136.289062 C 53.457031 135.867188 52.777344 135.867188 52.265625 136.289062 L 51.078125 137.480469 C 49.972656 136.800781 48.695312 136.289062 47.421875 135.949219 L 47.421875 134.164062 C 47.421875 133.570312 46.910156 133.058594 46.316406 133.058594 L 42.488281 133.058594 C 41.894531 133.058594 41.382812 133.570312 41.382812 134.164062 L 41.382812 135.867188 C 40.023438 136.207031 38.832031 136.632812 37.726562 137.3125 L 36.453125 136.035156 C 36.027344 135.609375 35.347656 135.609375 34.835938 136.035156 L 32.117188 138.757812 C 31.691406 139.183594 31.691406 139.949219 32.117188 140.375 L 33.308594 141.566406 C 32.625 142.671875 32.117188 143.945312 31.777344 145.222656 L 29.992188 145.222656 C 29.394531 145.222656 28.886719 145.734375 28.886719 146.328125 L 28.886719 150.15625 C 28.886719 150.75 29.394531 151.261719 29.992188 151.261719 L 31.691406 151.261719 C 31.945312 152.539062 32.457031 153.8125 33.136719 154.921875 L 31.863281 156.195312 C 31.4375 156.621094 31.4375 157.386719 31.863281 157.8125 L 34.582031 160.535156 C 35.007812 160.960938 35.6875 160.960938 36.199219 160.535156 L 37.386719 159.34375 C 38.492188 160.023438 39.769531 160.535156 41.042969 160.875 L 41.042969 162.660156 C 41.042969 163.257812 41.554688 163.765625 42.148438 163.765625 L 45.976562 163.765625 C 46.570312 163.765625 47.082031 163.257812 47.082031 162.660156 L 47.082031 160.960938 C 48.441406 160.621094 49.632812 160.195312 50.734375 159.511719 L 52.011719 160.789062 C 52.4375 161.214844 53.117188 161.214844 53.625 160.789062 L 56.347656 158.066406 C 56.773438 157.640625 56.773438 156.875 56.347656 156.453125 L 55.15625 155.261719 C 55.835938 154.15625 56.347656 152.878906 56.6875 151.601562 L 58.472656 151.601562 C 59.066406 151.601562 59.578125 151.09375 59.578125 150.496094 L 59.578125 146.667969 C 59.578125 146.074219 59.066406 145.5625 58.472656 145.5625 Z M 44.191406 155.601562 C 40.195312 155.601562 37.046875 152.367188 37.046875 148.457031 C 37.046875 144.542969 40.277344 141.308594 44.191406 141.308594 C 48.101562 141.308594 51.332031 144.542969 51.332031 148.457031 C 51.332031 152.367188 48.1875 155.601562 44.191406 155.601562 Z M 44.191406 155.601562 " fill-opacity="1" fill-rule="nonzero"/><path fill="#e8ebf7" d="M 326.96875 61.773438 C 326.96875 62.230469 326.921875 62.6875 326.832031 63.136719 C 326.742188 63.585938 326.613281 64.019531 326.4375 64.445312 C 326.261719 64.867188 326.046875 65.269531 325.792969 65.648438 C 325.539062 66.03125 325.25 66.382812 324.925781 66.707031 C 324.601562 67.03125 324.25 67.320312 323.867188 67.574219 C 323.488281 67.828125 323.085938 68.042969 322.664062 68.21875 C 322.242188 68.394531 321.804688 68.527344 321.355469 68.617188 C 320.90625 68.703125 320.453125 68.75 319.996094 68.75 C 319.539062 68.75 319.085938 68.703125 318.636719 68.617188 C 318.1875 68.527344 317.75 68.394531 317.328125 68.21875 C 316.90625 68.042969 316.503906 67.828125 316.121094 67.574219 C 315.742188 67.320312 315.390625 67.03125 315.066406 66.707031 C 314.742188 66.382812 314.453125 66.03125 314.199219 65.648438 C 313.945312 65.269531 313.730469 64.867188 313.554688 64.445312 C 313.378906 64.019531 313.246094 63.585938 313.15625 63.136719 C 313.066406 62.6875 313.023438 62.230469 313.023438 61.773438 C 313.023438 61.316406 313.066406 60.863281 313.15625 60.414062 C 313.246094 59.964844 313.378906 59.527344 313.554688 59.105469 C 313.730469 58.679688 313.945312 58.28125 314.199219 57.898438 C 314.453125 57.519531 314.742188 57.164062 315.066406 56.839844 C 315.390625 56.519531 315.742188 56.230469 316.121094 55.972656 C 316.503906 55.71875 316.90625 55.503906 317.328125 55.328125 C 317.75 55.15625 318.1875 55.023438 318.636719 54.933594 C 319.085938 54.84375 319.539062 54.796875 319.996094 54.796875 C 320.453125 54.796875 320.90625 54.84375 321.355469 54.933594 C 321.804688 55.023438 322.242188 55.15625 322.664062 55.328125 C 323.085938 55.503906 323.488281 55.71875 323.867188 55.972656 C 324.25 56.230469 324.601562 56.519531 324.925781 56.839844 C 325.25 57.164062 325.539062 57.519531 325.792969 57.898438 C 326.046875 58.28125 326.261719 58.679688 326.4375 59.105469 C 326.613281 59.527344 326.742188 59.964844 326.832031 60.414062 C 326.921875 60.863281 326.96875 61.316406 326.96875 61.773438 Z M 326.96875 61.773438 " fill-opacity="1" fill-rule="nonzero"/><path fill="#e8ebf7" d="M 54.902344 27.75 C 54.902344 28.210938 54.8125 28.65625 54.636719 29.082031 C 54.460938 29.511719 54.207031 29.886719 53.882812 30.214844 C 53.554688 30.542969 53.175781 30.792969 52.75 30.96875 C 52.324219 31.148438 51.878906 31.234375 51.417969 31.234375 C 50.953125 31.234375 50.507812 31.148438 50.082031 30.96875 C 49.65625 30.792969 49.277344 30.542969 48.953125 30.214844 C 48.625 29.886719 48.371094 29.511719 48.195312 29.082031 C 48.019531 28.65625 47.929688 28.210938 47.929688 27.75 C 47.929688 27.285156 48.019531 26.839844 48.195312 26.414062 C 48.371094 25.984375 48.625 25.609375 48.953125 25.28125 C 49.277344 24.953125 49.65625 24.703125 50.082031 24.527344 C 50.507812 24.347656 50.953125 24.261719 51.417969 24.261719 C 51.878906 24.261719 52.324219 24.347656 52.75 24.527344 C 53.175781 24.703125 53.554688 24.953125 53.882812 25.28125 C 54.207031 25.609375 54.460938 25.984375 54.636719 26.414062 C 54.8125 26.839844 54.902344 27.285156 54.902344 27.75 Z M 54.902344 27.75 " fill-opacity="1" fill-rule="nonzero"/><path fill="#e8ebf7" d="M 315.574219 34.128906 C 315.574219 34.589844 315.484375 35.035156 315.308594 35.460938 C 315.132812 35.890625 314.878906 36.265625 314.554688 36.59375 C 314.226562 36.921875 313.847656 37.171875 313.421875 37.351562 C 312.996094 37.527344 312.550781 37.617188 312.089844 37.617188 C 311.625 37.617188 311.179688 37.527344 310.753906 37.351562 C 310.328125 37.171875 309.949219 36.921875 309.625 36.59375 C 309.296875 36.265625 309.042969 35.890625 308.867188 35.460938 C 308.691406 35.035156 308.601562 34.589844 308.601562 34.128906 C 308.601562 33.664062 308.691406 33.21875 308.867188 32.792969 C 309.042969 32.367188 309.296875 31.988281 309.625 31.660156 C 309.949219 31.335938 310.328125 31.082031 310.753906 30.90625 C 311.179688 30.730469 311.625 30.640625 312.089844 30.640625 C 312.550781 30.640625 312.996094 30.730469 313.421875 30.90625 C 313.847656 31.082031 314.226562 31.335938 314.554688 31.660156 C 314.878906 31.988281 315.132812 32.367188 315.308594 32.792969 C 315.484375 33.21875 315.574219 33.664062 315.574219 34.128906 Z M 315.574219 34.128906 " fill-opacity="1" fill-rule="nonzero"/><path fill="#e8ebf7" d="M 143.832031 294.511719 C 143.832031 294.972656 143.746094 295.417969 143.566406 295.847656 C 143.390625 296.273438 143.140625 296.652344 142.8125 296.976562 C 142.484375 297.304688 142.109375 297.558594 141.679688 297.734375 C 141.253906 297.910156 140.808594 298 140.347656 298 C 139.886719 298 139.441406 297.910156 139.011719 297.734375 C 138.585938 297.558594 138.210938 297.304688 137.882812 296.976562 C 137.554688 296.652344 137.304688 296.273438 137.128906 295.847656 C 136.949219 295.417969 136.863281 294.972656 136.863281 294.511719 C 136.863281 294.050781 136.949219 293.605469 137.128906 293.175781 C 137.304688 292.75 137.554688 292.371094 137.882812 292.046875 C 138.210938 291.71875 138.585938 291.464844 139.011719 291.289062 C 139.441406 291.113281 139.886719 291.023438 140.347656 291.023438 C 140.808594 291.023438 141.253906 291.113281 141.679688 291.289062 C 142.109375 291.464844 142.484375 291.71875 142.8125 292.046875 C 143.140625 292.371094 143.390625 292.75 143.566406 293.175781 C 143.746094 293.605469 143.832031 294.050781 143.832031 294.511719 Z M 143.832031 294.511719 " fill-opacity="1" fill-rule="nonzero"/><path fill="#e8ebf7" d="M 177.5 282.007812 C 177.5 282.464844 177.457031 282.917969 177.367188 283.367188 C 177.277344 283.816406 177.144531 284.253906 176.96875 284.675781 C 176.796875 285.097656 176.582031 285.5 176.328125 285.882812 C 176.070312 286.261719 175.78125 286.617188 175.460938 286.9375 C 175.136719 287.261719 174.785156 287.550781 174.402344 287.808594 C 174.023438 288.0625 173.621094 288.277344 173.199219 288.453125 C 172.773438 288.625 172.339844 288.757812 171.890625 288.847656 C 171.441406 288.9375 170.988281 288.980469 170.53125 288.980469 C 170.070312 288.980469 169.617188 288.9375 169.167969 288.847656 C 168.71875 288.757812 168.285156 288.625 167.863281 288.453125 C 167.4375 288.277344 167.035156 288.0625 166.65625 287.808594 C 166.277344 287.550781 165.921875 287.261719 165.601562 286.9375 C 165.277344 286.617188 164.988281 286.261719 164.734375 285.882812 C 164.480469 285.5 164.265625 285.097656 164.089844 284.675781 C 163.914062 284.253906 163.78125 283.816406 163.691406 283.367188 C 163.601562 282.917969 163.558594 282.464844 163.558594 282.007812 C 163.558594 281.550781 163.601562 281.09375 163.691406 280.644531 C 163.78125 280.195312 163.914062 279.761719 164.089844 279.335938 C 164.265625 278.914062 164.480469 278.511719 164.734375 278.132812 C 164.988281 277.75 165.277344 277.398438 165.601562 277.074219 C 165.921875 276.75 166.277344 276.460938 166.65625 276.207031 C 167.035156 275.953125 167.4375 275.738281 167.863281 275.5625 C 168.285156 275.386719 168.71875 275.253906 169.167969 275.164062 C 169.617188 275.078125 170.070312 275.03125 170.53125 275.03125 C 170.988281 275.03125 171.441406 275.078125 171.890625 275.164062 C 172.339844 275.253906 172.773438 275.386719 173.199219 275.5625 C 173.621094 275.738281 174.023438 275.953125 174.402344 276.207031 C 174.785156 276.460938 175.136719 276.75 175.460938 277.074219 C 175.78125 277.398438 176.070312 277.75 176.328125 278.132812 C 176.582031 278.511719 176.796875 278.914062 176.96875 279.335938 C 177.144531 279.761719 177.277344 280.195312 177.367188 280.644531 C 177.457031 281.09375 177.5 281.550781 177.5 282.007812 Z M 177.5 282.007812 " fill-opacity="1" fill-rule="nonzero"/><path fill="#ffffff" d="M 38.410156 87.71875 C 38.410156 88.179688 38.320312 88.625 38.144531 89.054688 C 37.964844 89.480469 37.714844 89.859375 37.386719 90.183594 C 37.058594 90.511719 36.683594 90.765625 36.257812 90.941406 C 35.828125 91.117188 35.382812 91.207031 34.921875 91.207031 C 34.460938 91.207031 34.015625 91.117188 33.589844 90.941406 C 33.160156 90.765625 32.785156 90.511719 32.457031 90.183594 C 32.128906 89.859375 31.878906 89.480469 31.703125 89.054688 C 31.523438 88.625 31.4375 88.179688 31.4375 87.71875 C 31.4375 87.257812 31.523438 86.8125 31.703125 86.382812 C 31.878906 85.957031 32.128906 85.578125 32.457031 85.253906 C 32.785156 84.925781 33.160156 84.671875 33.589844 84.496094 C 34.015625 84.320312 34.460938 84.230469 34.921875 84.230469 C 35.382812 84.230469 35.828125 84.320312 36.257812 84.496094 C 36.683594 84.671875 37.058594 84.925781 37.386719 85.253906 C 37.714844 85.578125 37.964844 85.957031 38.144531 86.382812 C 38.320312 86.8125 38.410156 87.257812 38.410156 87.71875 Z M 38.410156 87.71875 " fill-opacity="1" fill-rule="nonzero"/><path fill="#ffffff" d="M 272.128906 30.640625 C 272.128906 31.101562 272.039062 31.546875 271.863281 31.976562 C 271.6875 32.402344 271.433594 32.78125 271.109375 33.105469 C 270.78125 33.433594 270.402344 33.683594 269.976562 33.863281 C 269.550781 34.039062 269.105469 34.128906 268.644531 34.128906 C 268.179688 34.128906 267.734375 34.039062 267.308594 33.863281 C 266.882812 33.683594 266.503906 33.433594 266.179688 33.105469 C 265.851562 32.78125 265.597656 32.402344 265.421875 31.976562 C 265.246094 31.546875 265.15625 31.101562 265.15625 30.640625 C 265.15625 30.179688 265.246094 29.734375 265.421875 29.304688 C 265.597656 28.878906 265.851562 28.5 266.179688 28.175781 C 266.503906 27.847656 266.882812 27.59375 267.308594 27.417969 C 267.734375 27.242188 268.179688 27.152344 268.644531 27.152344 C 269.105469 27.152344 269.550781 27.242188 269.976562 27.417969 C 270.402344 27.59375 270.78125 27.847656 271.109375 28.175781 C 271.433594 28.5 271.6875 28.878906 271.863281 29.304688 C 272.039062 29.734375 272.128906 30.179688 272.128906 30.640625 Z M 272.128906 30.640625 " fill-opacity="1" fill-rule="nonzero"/></svg>