<svg xmlns="http://www.w3.org/2000/svg" xmlns:xlink="http://www.w3.org/1999/xlink" width="500" zoomAndPan="magnify" viewBox="0 0 375 374.999991" height="500" preserveAspectRatio="xMidYMid meet" version="1.0"><defs><clipPath id="f4134bf104"><path d="M 28 83 L 310 83 L 310 355.96875 L 28 355.96875 Z M 28 83 " clip-rule="nonzero"/></clipPath><clipPath id="330f9de2c6"><path d="M 233 19.21875 L 322 19.21875 L 322 52 L 233 52 Z M 233 19.21875 " clip-rule="nonzero"/></clipPath></defs><g clip-path="url(#f4134bf104)"><path fill="#ffffff" d="M 305.660156 227.710938 L 305.644531 227.957031 C 305.570312 229.070312 306.414062 230.03125 307.523438 230.101562 C 308.632812 230.175781 309.59375 229.332031 309.664062 228.222656 L 309.679688 227.964844 C 309.75 226.855469 308.90625 225.894531 307.796875 225.824219 C 306.6875 225.753906 305.730469 226.597656 305.660156 227.710938 M 304.882812 235.878906 L 304.851562 236.125 C 304.707031 237.226562 305.484375 238.238281 306.589844 238.382812 C 307.695312 238.523438 308.703125 237.746094 308.847656 236.640625 L 308.882812 236.390625 C 309.019531 235.28125 308.242188 234.273438 307.132812 234.132812 C 306.03125 233.992188 305.023438 234.773438 304.882812 235.878906 M 303.585938 243.976562 L 303.539062 244.222656 C 303.324219 245.316406 304.039062 246.371094 305.132812 246.589844 C 306.222656 246.800781 307.28125 246.085938 307.492188 244.992188 L 307.542969 244.742188 C 307.753906 243.648438 307.039062 242.589844 305.945312 242.378906 C 304.851562 242.167969 303.796875 242.882812 303.585938 243.976562 M 301.773438 251.980469 L 301.710938 252.21875 C 301.429688 253.296875 302.070312 254.402344 303.148438 254.683594 C 304.222656 254.964844 305.324219 254.320312 305.609375 253.242188 L 305.675781 252.996094 C 305.953125 251.914062 305.308594 250.816406 304.230469 250.535156 C 303.15625 250.253906 302.054688 250.898438 301.773438 251.980469 M 299.449219 259.863281 L 299.371094 260.097656 C 299.015625 261.152344 299.589844 262.296875 300.644531 262.644531 C 301.699219 263 302.839844 262.429688 303.191406 261.371094 L 303.273438 261.125 C 303.625 260.066406 303.050781 258.929688 301.996094 258.578125 C 300.9375 258.230469 299.792969 258.804688 299.449219 259.863281 M 296.621094 267.578125 L 296.527344 267.808594 C 296.109375 268.839844 296.605469 270.015625 297.636719 270.429688 C 298.667969 270.851562 299.847656 270.351562 300.261719 269.320312 L 300.363281 269.085938 C 300.773438 268.050781 300.273438 266.875 299.242188 266.460938 C 298.210938 266.042969 297.039062 266.542969 296.621094 267.578125 M 293.3125 275.09375 L 293.207031 275.316406 C 292.722656 276.324219 293.144531 277.527344 294.148438 278.007812 C 295.152344 278.492188 296.355469 278.070312 296.835938 277.066406 L 296.945312 276.835938 C 297.429688 275.832031 297.003906 274.628906 296 274.144531 C 294.996094 273.664062 293.792969 274.089844 293.3125 275.09375 M 289.535156 282.386719 L 289.414062 282.601562 C 288.871094 283.570312 289.210938 284.800781 290.183594 285.347656 C 291.15625 285.890625 292.382812 285.546875 292.925781 284.578125 L 293.054688 284.351562 C 293.597656 283.378906 293.25 282.152344 292.277344 281.605469 C 291.304688 281.0625 290.078125 281.414062 289.535156 282.386719 M 285.308594 289.421875 L 285.171875 289.632812 C 284.566406 290.566406 284.835938 291.8125 285.773438 292.421875 C 286.703125 293.023438 287.953125 292.757812 288.558594 291.820312 L 288.695312 291.605469 C 289.296875 290.671875 289.03125 289.421875 288.09375 288.820312 C 287.15625 288.214844 285.914062 288.488281 285.308594 289.421875 M 280.652344 296.183594 L 280.507812 296.382812 C 279.84375 297.28125 280.035156 298.539062 280.925781 299.203125 C 281.824219 299.863281 283.085938 299.671875 283.746094 298.78125 L 283.898438 298.570312 C 284.558594 297.675781 284.367188 296.414062 283.46875 295.753906 C 282.574219 295.09375 281.3125 295.285156 280.652344 296.183594 M 275.589844 302.644531 L 275.429688 302.832031 C 274.71875 303.6875 274.828125 304.957031 275.679688 305.675781 C 276.53125 306.386719 277.800781 306.277344 278.519531 305.421875 L 278.683594 305.226562 C 279.394531 304.371094 279.28125 303.101562 278.429688 302.386719 C 277.574219 301.675781 276.304688 301.789062 275.589844 302.644531 M 270.140625 308.777344 L 269.96875 308.960938 C 269.203125 309.765625 269.238281 311.042969 270.046875 311.808594 C 270.855469 312.578125 272.132812 312.542969 272.894531 311.730469 L 273.070312 311.546875 C 273.835938 310.738281 273.800781 309.464844 272.988281 308.695312 C 272.179688 307.929688 270.902344 307.972656 270.140625 308.777344 M 264.332031 314.570312 L 264.148438 314.738281 C 263.335938 315.5 263.292969 316.777344 264.050781 317.589844 C 264.8125 318.40625 266.085938 318.449219 266.902344 317.6875 L 267.085938 317.511719 C 267.894531 316.753906 267.941406 315.476562 267.179688 314.664062 C 266.417969 313.851562 265.140625 313.8125 264.332031 314.570312 M 258.183594 320 L 257.992188 320.160156 C 257.132812 320.871094 257.015625 322.140625 257.722656 322.996094 C 258.429688 323.855469 259.703125 323.976562 260.558594 323.265625 L 260.757812 323.105469 C 261.609375 322.390625 261.730469 321.125 261.019531 320.265625 C 260.308594 319.40625 259.039062 319.289062 258.179688 320 L 258.183594 320 M 251.71875 325.054688 L 251.515625 325.199219 C 250.617188 325.855469 250.421875 327.117188 251.078125 328.015625 C 251.738281 328.917969 252.996094 329.109375 253.898438 328.457031 L 254.101562 328.300781 C 255 327.644531 255.191406 326.382812 254.535156 325.484375 C 253.878906 324.589844 252.613281 324.390625 251.71875 325.054688 M 244.96875 329.703125 L 244.757812 329.839844 C 243.820312 330.445312 243.550781 331.6875 244.152344 332.625 C 244.753906 333.5625 246.003906 333.835938 246.9375 333.230469 L 247.152344 333.09375 C 248.089844 332.488281 248.355469 331.242188 247.753906 330.304688 C 247.148438 329.367188 245.898438 329.101562 244.96875 329.703125 M 237.949219 333.945312 L 237.734375 334.066406 C 236.765625 334.613281 236.417969 335.84375 236.964844 336.8125 C 237.507812 337.785156 238.738281 338.128906 239.710938 337.582031 L 239.929688 337.457031 C 240.902344 336.910156 241.242188 335.679688 240.695312 334.710938 C 240.148438 333.738281 238.917969 333.402344 237.949219 333.949219 L 237.949219 333.945312 M 230.695312 337.765625 L 230.472656 337.871094 C 229.472656 338.359375 229.054688 339.5625 229.542969 340.566406 C 230.027344 341.570312 231.234375 341.984375 232.234375 341.496094 L 232.464844 341.386719 C 233.464844 340.894531 233.878906 339.691406 233.394531 338.691406 C 232.90625 337.691406 231.695312 337.277344 230.695312 337.765625 M 223.214844 341.148438 L 222.988281 341.242188 C 221.960938 341.671875 221.472656 342.847656 221.898438 343.878906 C 222.324219 344.90625 223.503906 345.394531 224.53125 344.964844 L 224.765625 344.867188 C 225.792969 344.4375 226.28125 343.261719 225.851562 342.234375 C 225.421875 341.207031 224.242188 340.71875 223.214844 341.148438 M 215.546875 344.085938 L 215.3125 344.164062 C 214.261719 344.53125 213.707031 345.679688 214.070312 346.730469 C 214.433594 347.78125 215.582031 348.335938 216.632812 347.976562 L 216.875 347.886719 C 217.925781 347.523438 218.480469 346.371094 218.113281 345.320312 C 217.75 344.269531 216.597656 343.714844 215.546875 344.085938 M 207.71875 346.558594 L 207.480469 346.628906 C 206.410156 346.929688 205.789062 348.042969 206.085938 349.113281 C 206.390625 350.1875 207.503906 350.808594 208.574219 350.507812 L 208.824219 350.441406 C 209.894531 350.132812 210.515625 349.019531 210.207031 347.949219 C 209.90625 346.875 208.789062 346.253906 207.71875 346.558594 M 199.757812 348.570312 L 199.519531 348.625 C 198.429688 348.859375 197.742188 349.9375 197.980469 351.027344 C 198.21875 352.113281 199.292969 352.800781 200.378906 352.5625 L 200.632812 352.507812 C 201.71875 352.265625 202.402344 351.1875 202.164062 350.101562 C 201.921875 349.015625 200.84375 348.328125 199.757812 348.570312 M 191.695312 350.109375 L 191.449219 350.148438 C 190.347656 350.320312 189.601562 351.359375 189.773438 352.457031 C 189.949219 353.554688 190.980469 354.308594 192.082031 354.128906 L 192.332031 354.089844 C 193.433594 353.914062 194.183594 352.882812 194.003906 351.777344 C 193.828125 350.679688 192.792969 349.933594 191.695312 350.109375 M 183.550781 351.175781 L 183.304688 351.199219 C 182.199219 351.316406 181.390625 352.300781 181.5 353.410156 C 181.613281 354.515625 182.597656 355.324219 183.707031 355.214844 L 183.960938 355.1875 C 185.066406 355.074219 185.875 354.085938 185.757812 352.980469 C 185.648438 351.871094 184.660156 351.066406 183.550781 351.175781 M 175.363281 351.769531 L 175.113281 351.777344 C 174 351.828125 173.136719 352.765625 173.183594 353.878906 C 173.234375 354.992188 174.167969 355.855469 175.28125 355.8125 L 175.539062 355.800781 C 176.648438 355.75 177.511719 354.8125 177.464844 353.695312 C 177.417969 352.582031 176.476562 351.71875 175.363281 351.769531 M 167.148438 351.894531 L 166.898438 351.890625 C 165.785156 351.875 164.871094 352.757812 164.855469 353.875 C 164.832031 354.988281 165.722656 355.902344 166.835938 355.921875 L 167.09375 355.925781 C 168.207031 355.941406 169.121094 355.050781 169.136719 353.9375 C 169.152344 352.824219 168.261719 351.910156 167.148438 351.894531 M 158.941406 351.546875 L 158.695312 351.527344 C 157.585938 351.449219 156.617188 352.28125 156.539062 353.394531 C 156.453125 354.503906 157.289062 355.46875 158.398438 355.550781 L 158.65625 355.566406 C 159.765625 355.644531 160.730469 354.8125 160.808594 353.699219 C 160.886719 352.589844 160.050781 351.625 158.941406 351.546875 M 150.773438 350.726562 L 150.523438 350.695312 C 149.421875 350.550781 148.40625 351.328125 148.265625 352.433594 C 148.121094 353.535156 148.894531 354.546875 150 354.691406 L 150.253906 354.730469 C 151.359375 354.871094 152.367188 354.089844 152.511719 352.984375 C 152.652344 351.882812 151.875 350.871094 150.773438 350.726562 M 142.660156 349.4375 L 142.417969 349.390625 C 141.324219 349.179688 140.269531 349.898438 140.058594 350.992188 C 139.851562 352.082031 140.566406 353.140625 141.660156 353.351562 L 141.914062 353.398438 C 143.003906 353.601562 144.058594 352.886719 144.265625 351.789062 C 144.476562 350.695312 143.753906 349.640625 142.660156 349.4375 M 134.644531 347.671875 L 134.398438 347.609375 C 133.320312 347.335938 132.226562 347.992188 131.953125 349.070312 C 131.679688 350.148438 132.332031 351.246094 133.410156 351.519531 L 133.660156 351.582031 C 134.742188 351.855469 135.835938 351.195312 136.105469 350.117188 C 136.378906 349.039062 135.722656 347.941406 134.644531 347.671875 M 126.742188 345.4375 L 126.503906 345.359375 C 125.441406 345.027344 124.308594 345.613281 123.972656 346.675781 C 123.636719 347.738281 124.226562 348.867188 125.285156 349.207031 L 125.53125 349.28125 C 126.589844 349.617188 127.726562 349.027344 128.058594 347.96875 C 128.394531 346.902344 127.804688 345.769531 126.742188 345.4375 M 118.984375 342.742188 L 118.75 342.652344 C 117.710938 342.253906 116.546875 342.773438 116.148438 343.8125 C 115.75 344.851562 116.273438 346.019531 117.3125 346.414062 L 117.550781 346.511719 C 118.589844 346.902344 119.753906 346.382812 120.152344 345.34375 C 120.546875 344.300781 120.027344 343.136719 118.984375 342.742188 M 111.386719 339.582031 L 111.160156 339.480469 C 110.144531 339.019531 108.953125 339.46875 108.492188 340.484375 C 108.035156 341.5 108.484375 342.695312 109.5 343.152344 L 109.730469 343.257812 C 110.746094 343.71875 111.9375 343.265625 112.394531 342.25 C 112.851562 341.234375 112.402344 340.039062 111.386719 339.582031 M 103.992188 335.980469 L 103.773438 335.863281 C 102.789062 335.34375 101.570312 335.71875 101.050781 336.710938 C 100.53125 337.695312 100.90625 338.914062 101.894531 339.429688 L 102.125 339.550781 C 103.105469 340.066406 104.324219 339.691406 104.84375 338.703125 C 105.359375 337.71875 104.976562 336.496094 103.992188 335.980469 M 96.824219 331.945312 L 96.613281 331.8125 C 95.660156 331.238281 94.421875 331.542969 93.847656 332.496094 C 93.273438 333.449219 93.574219 334.6875 94.527344 335.265625 L 94.75 335.398438 C 95.699219 335.972656 96.9375 335.664062 97.515625 334.710938 C 98.085938 333.757812 97.78125 332.519531 96.824219 331.945312 M 89.917969 327.488281 L 89.714844 327.34375 C 88.796875 326.714844 87.542969 326.941406 86.910156 327.859375 C 86.277344 328.777344 86.507812 330.035156 87.425781 330.664062 L 87.636719 330.808594 C 88.550781 331.441406 89.804688 331.207031 90.4375 330.289062 C 91.066406 329.371094 90.835938 328.121094 89.917969 327.488281 M 83.292969 322.628906 L 83.09375 322.472656 C 82.21875 321.789062 80.949219 321.941406 80.265625 322.820312 C 79.582031 323.695312 79.734375 324.960938 80.605469 325.648438 L 80.8125 325.808594 C 81.691406 326.496094 82.953125 326.335938 83.636719 325.457031 C 84.324219 324.582031 84.164062 323.3125 83.292969 322.628906 M 76.96875 317.382812 L 76.777344 317.21875 C 75.945312 316.476562 74.671875 316.554688 73.933594 317.390625 C 73.195312 318.222656 73.273438 319.496094 74.109375 320.238281 L 74.300781 320.40625 C 75.136719 321.144531 76.40625 321.058594 77.144531 320.226562 C 77.878906 319.390625 77.800781 318.113281 76.96875 317.382812 M 70.972656 311.761719 L 70.796875 311.585938 C 70.007812 310.796875 68.734375 310.796875 67.945312 311.585938 C 67.160156 312.378906 67.160156 313.652344 67.945312 314.441406 L 68.128906 314.617188 C 68.917969 315.40625 70.195312 315.402344 70.976562 314.613281 C 71.765625 313.824219 71.761719 312.546875 70.972656 311.761719 M 65.332031 305.792969 L 65.167969 305.605469 C 64.429688 304.773438 63.15625 304.695312 62.324219 305.433594 C 61.488281 306.171875 61.414062 307.445312 62.148438 308.277344 L 62.320312 308.472656 C 63.058594 309.300781 64.332031 309.375 65.164062 308.636719 C 66 307.898438 66.074219 306.625 65.332031 305.792969 M 60.066406 299.488281 L 59.914062 299.296875 C 59.230469 298.417969 57.960938 298.265625 57.089844 298.949219 C 56.210938 299.632812 56.054688 300.902344 56.742188 301.777344 L 56.898438 301.980469 C 57.582031 302.855469 58.851562 303.007812 59.730469 302.320312 C 60.601562 301.636719 60.757812 300.367188 60.066406 299.488281 M 55.203125 292.882812 L 55.066406 292.675781 C 54.429688 291.757812 53.179688 291.523438 52.261719 292.15625 C 51.347656 292.785156 51.109375 294.039062 51.738281 294.957031 L 51.886719 295.167969 C 52.519531 296.085938 53.773438 296.316406 54.691406 295.683594 C 55.605469 295.050781 55.835938 293.792969 55.203125 292.882812 M 50.757812 285.980469 L 50.632812 285.769531 C 50.058594 284.816406 48.824219 284.503906 47.867188 285.078125 C 46.914062 285.648438 46.601562 286.886719 47.175781 287.84375 L 47.308594 288.0625 C 47.878906 289.019531 49.117188 289.324219 50.070312 288.75 C 51.027344 288.175781 51.335938 286.9375 50.757812 285.980469 M 46.757812 278.828125 L 46.644531 278.605469 C 46.132812 277.617188 44.917969 277.226562 43.925781 277.738281 C 42.9375 278.253906 42.554688 279.46875 43.066406 280.457031 L 43.179688 280.6875 C 43.695312 281.675781 44.910156 282.058594 45.894531 281.542969 C 46.886719 281.03125 47.273438 279.816406 46.757812 278.828125 M 43.214844 271.4375 L 43.117188 271.207031 C 42.667969 270.1875 41.480469 269.726562 40.460938 270.171875 C 39.441406 270.621094 38.976562 271.808594 39.425781 272.828125 L 39.527344 273.0625 C 39.976562 274.082031 41.167969 274.542969 42.183594 274.09375 C 43.203125 273.644531 43.664062 272.457031 43.214844 271.4375 M 40.148438 263.839844 L 40.0625 263.605469 C 39.679688 262.558594 38.523438 262.019531 37.480469 262.402344 C 36.433594 262.785156 35.894531 263.941406 36.277344 264.988281 L 36.367188 265.230469 C 36.75 266.273438 37.90625 266.8125 38.953125 266.425781 C 39.996094 266.042969 40.53125 264.882812 40.148438 263.839844 M 37.574219 256.066406 L 37.503906 255.828125 C 37.1875 254.757812 36.066406 254.148438 35 254.464844 C 33.933594 254.777344 33.324219 255.902344 33.636719 256.96875 L 33.710938 257.210938 C 34.023438 258.285156 35.148438 258.890625 36.214844 258.574219 C 37.28125 258.253906 37.890625 257.136719 37.574219 256.066406 M 35.496094 248.132812 L 35.441406 247.886719 C 35.199219 246.804688 34.121094 246.121094 33.035156 246.367188 C 31.945312 246.613281 31.265625 247.691406 31.511719 248.777344 L 31.570312 249.027344 C 31.8125 250.113281 32.894531 250.792969 33.976562 250.546875 C 35.0625 250.296875 35.746094 249.21875 35.496094 248.132812 M 33.933594 240.078125 L 33.894531 239.835938 C 33.71875 238.734375 32.683594 237.984375 31.585938 238.160156 C 30.488281 238.335938 29.738281 239.371094 29.914062 240.46875 L 29.957031 240.71875 C 30.132812 241.820312 31.164062 242.566406 32.265625 242.390625 C 33.363281 242.214844 34.113281 241.179688 33.933594 240.078125 M 32.886719 231.941406 L 32.863281 231.695312 C 32.757812 230.589844 31.777344 229.773438 30.667969 229.878906 C 29.5625 229.980469 28.746094 230.964844 28.851562 232.074219 L 28.878906 232.328125 C 28.984375 233.441406 29.96875 234.25 31.074219 234.144531 C 32.183594 234.039062 32.992188 233.054688 32.886719 231.941406 M 32.359375 223.757812 L 32.351562 223.507812 C 32.320312 222.394531 31.386719 221.519531 30.277344 221.554688 C 29.164062 221.589844 28.289062 222.519531 28.328125 223.628906 L 28.335938 223.886719 C 28.371094 225 29.300781 225.871094 30.414062 225.835938 C 31.527344 225.800781 32.394531 224.871094 32.359375 223.757812 M 32.351562 215.550781 L 32.359375 215.300781 C 32.394531 214.1875 31.523438 213.257812 30.414062 213.21875 C 29.296875 213.183594 28.367188 214.058594 28.332031 215.171875 L 28.324219 215.429688 C 28.289062 216.539062 29.164062 217.46875 30.273438 217.503906 C 31.386719 217.539062 32.316406 216.660156 32.351562 215.550781 M 32.859375 207.363281 L 32.882812 207.113281 C 32.988281 206.003906 32.179688 205.019531 31.070312 204.914062 C 29.964844 204.808594 28.980469 205.617188 28.875 206.730469 L 28.847656 206.984375 C 28.742188 208.089844 29.558594 209.078125 30.664062 209.179688 C 31.773438 209.285156 32.753906 208.46875 32.859375 207.363281 M 33.886719 199.222656 L 33.925781 198.976562 C 34.105469 197.878906 33.355469 196.839844 32.257812 196.664062 C 31.160156 196.492188 30.125 197.234375 29.949219 198.335938 L 29.910156 198.589844 C 29.730469 199.6875 30.484375 200.71875 31.582031 200.898438 C 32.679688 201.070312 33.714844 200.324219 33.886719 199.222656 M 35.433594 191.167969 L 35.488281 190.921875 C 35.738281 189.835938 35.054688 188.757812 33.96875 188.507812 C 32.882812 188.265625 31.804688 188.941406 31.5625 190.027344 L 31.503906 190.28125 C 31.257812 191.363281 31.9375 192.441406 33.027344 192.691406 C 34.113281 192.933594 35.191406 192.253906 35.433594 191.167969 M 37.492188 183.222656 L 37.5625 182.984375 C 37.878906 181.917969 37.273438 180.792969 36.203125 180.480469 C 35.136719 180.164062 34.011719 180.773438 33.699219 181.84375 L 33.628906 182.085938 C 33.3125 183.15625 33.921875 184.277344 34.988281 184.589844 C 36.058594 184.90625 37.175781 184.292969 37.492188 183.222656 M 40.0625 175.417969 L 40.148438 175.183594 C 40.53125 174.140625 39.996094 172.980469 38.953125 172.597656 C 37.90625 172.214844 36.75 172.75 36.363281 173.792969 L 36.277344 174.039062 C 35.894531 175.082031 36.433594 176.238281 37.476562 176.621094 C 38.523438 177.003906 39.679688 176.46875 40.0625 175.417969 M 43.121094 167.796875 L 43.222656 167.566406 C 43.671875 166.546875 43.210938 165.359375 42.191406 164.910156 C 41.175781 164.460938 39.984375 164.921875 39.535156 165.9375 L 39.433594 166.171875 C 38.984375 167.195312 39.449219 168.382812 40.46875 168.832031 C 41.488281 169.28125 42.675781 168.816406 43.121094 167.796875 M 46.660156 160.386719 L 46.773438 160.164062 C 47.285156 159.175781 46.902344 157.960938 45.914062 157.445312 C 44.925781 156.929688 43.710938 157.316406 43.199219 158.304688 L 43.078125 158.535156 C 42.570312 159.523438 42.957031 160.738281 43.941406 161.25 C 44.929688 161.757812 46.148438 161.375 46.660156 160.386719 M 50.65625 153.210938 L 50.78125 152.996094 C 51.359375 152.042969 51.050781 150.804688 50.09375 150.230469 C 49.140625 149.660156 47.902344 149.964844 47.332031 150.917969 L 47.199219 151.140625 C 46.628906 152.097656 46.9375 153.332031 47.890625 153.902344 C 48.847656 154.476562 50.082031 154.167969 50.65625 153.210938 M 55.09375 146.304688 L 55.234375 146.097656 C 55.863281 145.179688 55.636719 143.929688 54.71875 143.292969 C 53.800781 142.660156 52.546875 142.894531 51.917969 143.808594 L 51.769531 144.019531 C 51.136719 144.9375 51.375 146.191406 52.289062 146.824219 C 53.207031 147.453125 54.457031 147.222656 55.09375 146.304688 M 59.945312 139.6875 L 60.097656 139.492188 C 60.789062 138.617188 60.632812 137.347656 59.761719 136.660156 C 58.882812 135.96875 57.617188 136.125 56.929688 137 L 56.773438 137.203125 C 56.085938 138.078125 56.242188 139.34375 57.117188 140.03125 C 57.992188 140.71875 59.261719 140.5625 59.945312 139.6875 M 65.199219 133.378906 L 65.363281 133.195312 C 66.105469 132.363281 66.03125 131.085938 65.195312 130.347656 C 64.363281 129.605469 63.089844 129.683594 62.351562 130.511719 L 62.179688 130.707031 C 61.445312 131.535156 61.519531 132.8125 62.355469 133.550781 C 63.183594 134.289062 64.460938 134.214844 65.199219 133.378906 M 70.824219 127.40625 L 71 127.230469 C 71.789062 126.445312 71.792969 125.167969 71.003906 124.382812 C 70.222656 123.589844 68.945312 123.585938 68.15625 124.375 L 67.972656 124.554688 C 67.1875 125.34375 67.1875 126.617188 67.972656 127.40625 C 68.761719 128.191406 70.035156 128.191406 70.824219 127.40625 M 76.800781 121.785156 L 76.988281 121.621094 C 77.820312 120.882812 77.902344 119.613281 77.164062 118.777344 C 76.429688 117.941406 75.15625 117.859375 74.320312 118.597656 L 74.128906 118.765625 C 73.296875 119.503906 73.21875 120.777344 73.957031 121.613281 C 74.691406 122.449219 75.96875 122.523438 76.800781 121.785156 M 83.101562 116.539062 L 83.300781 116.382812 C 84.175781 115.699219 84.335938 114.429688 83.648438 113.550781 C 82.964844 112.675781 81.699219 112.519531 80.820312 113.207031 L 80.621094 113.363281 C 79.742188 114.046875 79.589844 115.316406 80.273438 116.191406 C 80.960938 117.070312 82.230469 117.222656 83.101562 116.539062 M 89.710938 111.675781 L 89.914062 111.535156 C 90.832031 110.90625 91.058594 109.648438 90.429688 108.734375 C 89.800781 107.816406 88.546875 107.582031 87.628906 108.210938 L 87.421875 108.359375 C 86.503906 108.992188 86.273438 110.246094 86.90625 111.160156 C 87.539062 112.078125 88.792969 112.308594 89.710938 111.675781 M 96.589844 107.21875 L 96.800781 107.089844 C 97.757812 106.515625 98.0625 105.273438 97.488281 104.320312 C 96.914062 103.367188 95.675781 103.0625 94.71875 103.636719 L 94.503906 103.769531 C 93.550781 104.34375 93.25 105.585938 93.824219 106.539062 C 94.402344 107.492188 95.636719 107.796875 96.589844 107.21875 M 103.726562 103.179688 L 103.945312 103.066406 C 104.929688 102.550781 105.308594 101.328125 104.792969 100.34375 C 104.277344 99.355469 103.054688 98.976562 102.074219 99.496094 L 101.847656 99.613281 C 100.859375 100.132812 100.480469 101.351562 101 102.335938 C 101.519531 103.320312 102.742188 103.699219 103.726562 103.179688 M 111.085938 99.574219 L 111.308594 99.46875 C 112.324219 99.015625 112.777344 97.820312 112.316406 96.804688 C 111.859375 95.789062 110.667969 95.339844 109.652344 95.796875 L 109.421875 95.902344 C 108.40625 96.363281 107.957031 97.558594 108.417969 98.574219 C 108.878906 99.585938 110.070312 100.035156 111.085938 99.574219 M 118.65625 96.40625 L 118.890625 96.316406 C 119.929688 95.917969 120.453125 94.753906 120.054688 93.714844 C 119.65625 92.675781 118.492188 92.152344 117.453125 92.546875 L 117.210938 92.636719 C 116.171875 93.039062 115.652344 94.207031 116.054688 95.246094 C 116.453125 96.285156 117.617188 96.804688 118.65625 96.40625 M 126.40625 93.691406 L 126.640625 93.613281 C 127.707031 93.28125 128.292969 92.144531 127.960938 91.082031 C 127.621094 90.023438 126.492188 89.433594 125.429688 89.769531 L 125.1875 89.847656 C 124.128906 90.179688 123.542969 91.316406 123.875 92.378906 C 124.214844 93.4375 125.34375 94.023438 126.40625 93.691406 M 134.300781 91.4375 L 134.542969 91.375 C 135.625 91.101562 136.277344 90.007812 136.003906 88.929688 C 135.734375 87.847656 134.636719 87.191406 133.558594 87.464844 L 133.308594 87.527344 C 132.230469 87.804688 131.578125 88.898438 131.851562 89.976562 C 132.125 91.054688 133.222656 91.710938 134.300781 91.4375 M 142.3125 89.648438 L 142.5625 89.605469 C 143.652344 89.398438 144.371094 88.34375 144.164062 87.246094 C 143.957031 86.152344 142.902344 85.4375 141.804688 85.644531 L 141.554688 85.691406 C 140.464844 85.902344 139.75 86.957031 139.957031 88.050781 C 140.164062 89.144531 141.222656 89.863281 142.3125 89.648438 M 150.421875 88.339844 L 150.667969 88.308594 C 151.773438 88.160156 152.550781 87.152344 152.40625 86.046875 C 152.261719 84.945312 151.253906 84.164062 150.144531 84.308594 L 149.894531 84.339844 C 148.789062 84.488281 148.011719 85.5 148.160156 86.605469 C 148.304688 87.707031 149.320312 88.484375 150.421875 88.339844 M 158.59375 87.5 L 158.839844 87.480469 C 159.949219 87.402344 160.785156 86.4375 160.707031 85.324219 C 160.621094 84.214844 159.660156 83.378906 158.546875 83.460938 L 158.296875 83.480469 C 157.183594 83.558594 156.351562 84.527344 156.429688 85.636719 C 156.515625 86.746094 157.476562 87.582031 158.59375 87.5 M 166.792969 87.132812 L 167.046875 87.128906 C 168.15625 87.113281 169.046875 86.199219 169.027344 85.085938 C 169.011719 83.972656 168.101562 83.082031 166.988281 83.097656 L 166.730469 83.101562 C 165.617188 83.121094 164.730469 84.035156 164.746094 85.148438 C 164.765625 86.261719 165.683594 87.152344 166.796875 87.132812 L 166.792969 87.132812 M 175.011719 87.234375 L 175.257812 87.246094 C 176.371094 87.292969 177.308594 86.429688 177.355469 85.316406 C 177.40625 84.203125 176.542969 83.265625 175.433594 83.21875 L 175.175781 83.207031 C 174.0625 83.160156 173.125 84.027344 173.078125 85.136719 C 173.03125 86.25 173.898438 87.1875 175.011719 87.234375 M 183.203125 87.808594 L 183.449219 87.835938 C 184.554688 87.945312 185.542969 87.136719 185.65625 86.03125 C 185.765625 84.925781 184.960938 83.933594 183.855469 83.820312 L 183.597656 83.796875 C 182.492188 83.6875 181.503906 84.496094 181.394531 85.605469 C 181.285156 86.710938 182.09375 87.699219 183.203125 87.808594 M 191.347656 88.855469 L 191.59375 88.894531 C 192.691406 89.070312 193.726562 88.320312 193.898438 87.21875 C 194.074219 86.121094 193.328125 85.085938 192.230469 84.914062 L 191.976562 84.875 C 190.875 84.699219 189.84375 85.449219 189.671875 86.546875 C 189.5 87.648438 190.246094 88.679688 191.347656 88.855469 M 199.417969 90.375 L 199.660156 90.429688 C 200.746094 90.667969 201.820312 89.980469 202.0625 88.894531 C 202.300781 87.808594 201.613281 86.730469 200.527344 86.492188 L 200.277344 86.4375 C 199.191406 86.195312 198.113281 86.886719 197.878906 87.976562 C 197.640625 89.0625 198.332031 90.136719 199.417969 90.375 M 207.382812 92.367188 L 207.621094 92.433594 C 208.691406 92.738281 209.804688 92.113281 210.109375 91.042969 C 210.414062 89.972656 209.789062 88.859375 208.71875 88.554688 L 208.472656 88.484375 C 207.402344 88.179688 206.289062 88.808594 205.988281 89.878906 C 205.6875 90.949219 206.3125 92.0625 207.382812 92.367188 M 215.21875 94.824219 L 215.449219 94.902344 C 216.5 95.269531 217.648438 94.714844 218.015625 93.664062 C 218.382812 92.609375 217.828125 91.460938 216.777344 91.09375 L 216.535156 91.011719 C 215.484375 90.648438 214.335938 91.207031 213.96875 92.257812 C 213.609375 93.308594 214.164062 94.457031 215.21875 94.824219 M 222.890625 97.738281 L 223.125 97.835938 C 224.152344 98.261719 225.328125 97.777344 225.757812 96.75 C 226.1875 95.722656 225.699219 94.539062 224.671875 94.109375 L 224.433594 94.011719 C 223.402344 93.585938 222.226562 94.074219 221.800781 95.105469 C 221.378906 96.132812 221.863281 97.3125 222.890625 97.738281 M 230.398438 101.113281 L 230.621094 101.222656 C 231.621094 101.707031 232.824219 101.292969 233.3125 100.292969 C 233.800781 99.292969 233.390625 98.085938 232.390625 97.597656 L 232.15625 97.484375 C 231.152344 96.996094 229.949219 97.414062 229.464844 98.414062 C 228.976562 99.417969 229.394531 100.625 230.398438 101.113281 M 237.683594 104.925781 L 237.902344 105.046875 C 238.871094 105.59375 240.097656 105.25 240.644531 104.277344 C 241.191406 103.308594 240.851562 102.082031 239.882812 101.535156 L 239.65625 101.40625 C 238.6875 100.859375 237.457031 101.207031 236.910156 102.179688 C 236.367188 103.148438 236.714844 104.378906 237.683594 104.925781 M 244.730469 109.160156 L 244.941406 109.300781 C 245.871094 109.902344 247.121094 109.632812 247.726562 108.695312 C 248.328125 107.761719 248.0625 106.515625 247.125 105.910156 L 246.90625 105.769531 C 245.972656 105.167969 244.722656 105.441406 244.125 106.378906 C 243.523438 107.316406 243.792969 108.558594 244.730469 109.160156 M 251.507812 113.8125 L 251.710938 113.960938 C 252.605469 114.621094 253.867188 114.425781 254.527344 113.527344 C 255.183594 112.632812 254.992188 111.371094 254.09375 110.710938 L 253.886719 110.558594 C 252.988281 109.902344 251.726562 110.097656 251.070312 110.996094 C 250.414062 111.894531 250.605469 113.160156 251.507812 113.8125 M 257.996094 118.863281 L 258.183594 119.023438 C 259.042969 119.730469 260.3125 119.617188 261.023438 118.757812 C 261.734375 117.902344 261.613281 116.632812 260.761719 115.917969 L 260.5625 115.757812 C 259.707031 115.042969 258.433594 115.167969 257.726562 116.023438 C 257.015625 116.878906 257.136719 118.152344 257.996094 118.863281 M 264.160156 124.289062 L 264.34375 124.460938 C 265.152344 125.222656 266.429688 125.179688 267.191406 124.371094 C 267.953125 123.558594 267.914062 122.28125 267.101562 121.519531 L 266.914062 121.34375 C 266.101562 120.585938 264.824219 120.628906 264.0625 121.441406 C 263.304688 122.253906 263.347656 123.53125 264.160156 124.289062 M 269.988281 130.078125 L 270.160156 130.261719 C 270.921875 131.070312 272.199219 131.105469 273.007812 130.34375 C 273.816406 129.578125 273.855469 128.304688 273.089844 127.492188 L 272.914062 127.308594 C 272.148438 126.5 270.871094 126.464844 270.066406 127.226562 C 269.257812 127.996094 269.222656 129.273438 269.988281 130.078125 M 275.449219 136.210938 L 275.609375 136.402344 C 276.324219 137.257812 277.59375 137.371094 278.449219 136.660156 C 279.300781 135.941406 279.414062 134.675781 278.703125 133.820312 L 278.539062 133.625 C 277.824219 132.769531 276.554688 132.65625 275.699219 133.371094 C 274.847656 134.089844 274.738281 135.359375 275.453125 136.210938 L 275.449219 136.210938 M 280.527344 142.664062 L 280.675781 142.867188 C 281.332031 143.757812 282.597656 143.953125 283.488281 143.292969 C 284.386719 142.636719 284.578125 141.375 283.917969 140.476562 L 283.769531 140.269531 C 283.109375 139.371094 281.84375 139.183594 280.949219 139.84375 C 280.054688 140.507812 279.863281 141.765625 280.527344 142.664062 M 285.191406 149.414062 L 285.328125 149.621094 C 285.929688 150.558594 287.175781 150.832031 288.109375 150.226562 C 289.046875 149.625 289.316406 148.378906 288.714844 147.441406 L 288.574219 147.226562 C 287.972656 146.292969 286.722656 146.023438 285.789062 146.625 C 284.855469 147.234375 284.585938 148.480469 285.191406 149.414062 M 289.425781 156.4375 L 289.546875 156.65625 C 290.089844 157.628906 291.316406 157.976562 292.289062 157.429688 C 293.261719 156.886719 293.609375 155.664062 293.066406 154.691406 L 292.9375 154.464844 C 292.394531 153.492188 291.167969 153.152344 290.195312 153.695312 C 289.222656 154.238281 288.882812 155.464844 289.425781 156.4375 M 293.210938 163.710938 L 293.316406 163.9375 C 293.796875 164.941406 295 165.367188 296.003906 164.882812 C 297.007812 164.402344 297.433594 163.199219 296.953125 162.191406 L 296.84375 161.964844 C 296.359375 160.960938 295.15625 160.539062 294.152344 161.023438 C 293.148438 161.503906 292.726562 162.707031 293.210938 163.710938 M 296.523438 171.207031 L 296.617188 171.433594 C 297.035156 172.464844 298.207031 172.964844 299.238281 172.554688 C 300.273438 172.136719 300.769531 170.960938 300.359375 169.925781 L 300.257812 169.691406 C 299.84375 168.660156 298.667969 168.164062 297.636719 168.578125 C 296.601562 168.996094 296.105469 170.175781 296.523438 171.207031 M 299.359375 178.890625 L 299.4375 179.125 C 299.785156 180.183594 300.925781 180.753906 301.984375 180.410156 C 303.039062 180.058594 303.613281 178.917969 303.261719 177.859375 L 303.183594 177.617188 C 302.828125 176.558594 301.6875 175.992188 300.632812 176.339844 C 299.578125 176.691406 299.007812 177.832031 299.359375 178.890625 M 301.699219 186.753906 L 301.757812 186.992188 C 302.042969 188.070312 303.144531 188.71875 304.21875 188.433594 C 305.296875 188.15625 305.941406 187.050781 305.660156 185.972656 L 305.597656 185.726562 C 305.3125 184.648438 304.210938 184.003906 303.132812 184.289062 C 302.058594 184.570312 301.417969 185.671875 301.699219 186.753906 M 303.53125 194.746094 L 303.578125 194.992188 C 303.785156 196.085938 304.84375 196.796875 305.9375 196.589844 C 307.027344 196.375 307.746094 195.316406 307.53125 194.226562 L 307.484375 193.976562 C 307.269531 192.878906 306.210938 192.167969 305.121094 192.382812 C 304.027344 192.597656 303.3125 193.65625 303.53125 194.746094 M 304.84375 202.84375 L 304.875 203.089844 C 305.015625 204.195312 306.023438 204.976562 307.128906 204.835938 C 308.234375 204.695312 309.015625 203.683594 308.875 202.578125 L 308.84375 202.328125 C 308.695312 201.21875 307.6875 200.441406 306.582031 200.585938 C 305.476562 200.726562 304.699219 201.738281 304.84375 202.84375 M 305.640625 211.007812 L 305.65625 211.257812 C 305.726562 212.367188 306.683594 213.210938 307.796875 213.140625 C 308.90625 213.070312 309.746094 212.113281 309.675781 211 L 309.660156 210.746094 C 309.589844 209.636719 308.628906 208.792969 307.519531 208.863281 C 306.410156 208.9375 305.566406 209.898438 305.640625 211.007812 M 305.917969 219.210938 L 305.917969 219.460938 C 305.917969 220.574219 306.820312 221.476562 307.933594 221.476562 C 309.046875 221.476562 309.949219 220.570312 309.949219 219.460938 L 309.949219 219.199219 C 309.945312 218.089844 309.039062 217.1875 307.925781 217.191406 C 306.816406 217.191406 305.914062 218.097656 305.917969 219.210938 M 305.917969 219.511719 L 305.917969 219.757812 C 305.914062 220.875 306.816406 221.777344 307.929688 221.78125 C 309.042969 221.78125 309.945312 220.878906 309.949219 219.765625 L 309.949219 219.511719 C 309.949219 218.398438 309.042969 217.496094 307.933594 217.496094 C 306.820312 217.496094 305.917969 218.398438 305.917969 219.511719 " fill-opacity="1" fill-rule="nonzero"/></g><path fill="#15b3e1" d="M 344.394531 301.550781 C 344.394531 305.125 341.5 308.019531 337.933594 308.019531 L 109.671875 308.019531 C 106.105469 308.019531 103.214844 305.125 103.214844 301.550781 L 103.214844 137.464844 C 103.214844 133.898438 106.105469 131.003906 109.671875 131.003906 L 337.933594 131.003906 C 341.5 131.003906 344.394531 133.898438 344.394531 137.464844 L 344.394531 301.550781 " fill-opacity="1" fill-rule="nonzero"/><path fill="#222248" d="M 108.640625 294.214844 L 338.964844 294.214844 L 338.964844 141.238281 L 108.640625 141.238281 Z M 108.640625 294.214844 " fill-opacity="1" fill-rule="nonzero"/><path fill="#b2e5fa" d="M 243.980469 301.21875 C 243.980469 302.105469 243.253906 302.832031 242.367188 302.832031 L 205.242188 302.832031 C 204.347656 302.832031 203.625 302.105469 203.625 301.21875 C 203.625 300.324219 204.347656 299.601562 205.242188 299.601562 L 242.367188 299.601562 C 243.253906 299.601562 243.980469 300.324219 243.980469 301.21875 " fill-opacity="1" fill-rule="nonzero"/><path fill="#b2e5fa" d="M 236.1875 136.570312 C 236.1875 137.410156 235.503906 138.09375 234.660156 138.09375 L 212.941406 138.09375 C 212.105469 138.09375 211.425781 137.410156 211.425781 136.570312 C 211.425781 135.726562 212.105469 135.046875 212.941406 135.046875 L 234.660156 135.046875 C 235.503906 135.046875 236.1875 135.726562 236.1875 136.570312 " fill-opacity="1" fill-rule="nonzero"/><path fill="#3d436c" d="M 175.71875 294.214844 L 144.789062 294.214844 L 308.867188 141.238281 L 336.796875 141.238281 L 175.71875 294.214844 " fill-opacity="1" fill-rule="nonzero"/><path fill="#3d436c" d="M 130.378906 294.214844 L 108.640625 294.214844 L 108.640625 276.433594 C 108.78125 276.433594 259.292969 141.238281 259.292969 141.238281 L 297.316406 141.238281 L 130.378906 294.214844 " fill-opacity="1" fill-rule="nonzero"/><path fill="#b2e5fa" d="M 195.699219 195.816406 L 65.773438 195.816406 L 65.773438 161.800781 L 195.699219 161.800781 L 195.699219 195.816406 " fill-opacity="1" fill-rule="nonzero"/><path fill="#15b3e1" d="M 157.296875 161.800781 L 157.296875 195.816406 L 195.699219 195.816406 L 195.699219 161.800781 L 157.296875 161.800781 " fill-opacity="1" fill-rule="nonzero"/><path fill="#ffffff" d="M 176.578125 176.597656 C 174.710938 175.007812 174.488281 172.199219 176.085938 170.332031 C 177.675781 168.464844 180.480469 168.246094 182.347656 169.839844 C 184.21875 171.429688 184.433594 174.238281 182.839844 176.105469 C 181.25 177.972656 178.441406 178.195312 176.578125 176.597656 Z M 184.832031 177.804688 C 187.328125 174.871094 186.988281 170.464844 184.054688 167.960938 C 181.125 165.457031 176.71875 165.804688 174.214844 168.738281 C 172.082031 171.234375 172.027344 174.804688 173.871094 177.351562 L 164.832031 187.941406 L 167.371094 190.117188 L 176.417969 179.515625 C 179.21875 180.914062 182.707031 180.292969 184.832031 177.804688 " fill-opacity="1" fill-rule="nonzero"/><path fill="#2a2b59" d="M 78.863281 188.972656 L 78.863281 184.597656 C 79.390625 185.0625 79.910156 185.410156 80.421875 185.636719 C 80.929688 185.871094 81.445312 185.984375 81.960938 185.984375 C 82.671875 185.984375 83.238281 185.796875 83.640625 185.421875 C 84.050781 185.046875 84.253906 184.535156 84.253906 183.894531 C 84.253906 183.09375 83.703125 182.226562 82.597656 181.292969 C 82.289062 181.035156 82.058594 180.835938 81.90625 180.6875 C 80.613281 179.535156 79.734375 178.5 79.253906 177.582031 C 78.769531 176.660156 78.535156 175.621094 78.535156 174.453125 C 78.535156 172.640625 79.042969 171.171875 80.066406 170.046875 C 81.089844 168.925781 82.429688 168.367188 84.082031 168.367188 C 84.667969 168.367188 85.25 168.449219 85.820312 168.617188 C 86.394531 168.789062 86.996094 169.046875 87.632812 169.40625 L 87.632812 173.128906 C 86.890625 172.773438 86.3125 172.527344 85.910156 172.390625 C 85.5 172.257812 85.136719 172.191406 84.820312 172.191406 C 84.210938 172.191406 83.714844 172.378906 83.335938 172.761719 C 82.949219 173.140625 82.757812 173.640625 82.757812 174.253906 C 82.757812 174.792969 82.902344 175.292969 83.1875 175.761719 C 83.476562 176.226562 84.148438 176.917969 85.207031 177.832031 C 86.621094 179.046875 87.53125 180.050781 87.933594 180.855469 C 88.335938 181.660156 88.542969 182.628906 88.542969 183.765625 C 88.542969 185.675781 88 187.191406 86.917969 188.300781 C 85.835938 189.410156 84.363281 189.964844 82.496094 189.964844 C 81.785156 189.964844 81.125 189.886719 80.527344 189.722656 C 79.925781 189.558594 79.371094 189.308594 78.863281 188.972656 " fill-opacity="1" fill-rule="nonzero"/><path fill="#2a2b59" d="M 97.839844 181.425781 C 97.8125 180.398438 97.628906 179.632812 97.285156 179.136719 C 96.945312 178.644531 96.433594 178.398438 95.75 178.398438 C 95.078125 178.398438 94.5625 178.65625 94.207031 179.175781 C 93.851562 179.695312 93.671875 180.449219 93.671875 181.441406 Z M 93.671875 183.675781 L 93.671875 183.792969 C 93.671875 184.851562 93.863281 185.660156 94.238281 186.230469 C 94.609375 186.800781 95.144531 187.082031 95.839844 187.082031 C 96.277344 187.082031 96.65625 186.945312 96.972656 186.679688 C 97.28125 186.410156 97.535156 186 97.726562 185.453125 L 101.089844 185.453125 C 100.777344 186.867188 100.140625 187.972656 99.175781 188.769531 C 98.207031 189.566406 97.023438 189.964844 95.621094 189.964844 C 93.863281 189.964844 92.460938 189.308594 91.425781 187.988281 C 90.386719 186.675781 89.867188 184.894531 89.867188 182.652344 C 89.867188 180.382812 90.386719 178.589844 91.425781 177.269531 C 92.460938 175.949219 93.863281 175.292969 95.621094 175.292969 C 97.488281 175.292969 98.894531 175.941406 99.84375 177.238281 C 100.796875 178.539062 101.273438 180.460938 101.273438 183 L 101.273438 183.675781 L 93.671875 183.675781 " fill-opacity="1" fill-rule="nonzero"/><path fill="#2a2b59" d="M 110.070312 182.40625 C 110.070312 181.117188 109.921875 180.160156 109.617188 179.535156 C 109.3125 178.910156 108.84375 178.597656 108.210938 178.597656 C 107.640625 178.597656 107.230469 178.898438 106.976562 179.5 C 106.71875 180.101562 106.59375 181.078125 106.59375 182.4375 C 106.59375 183.785156 106.734375 184.792969 107.019531 185.457031 C 107.304688 186.125 107.734375 186.460938 108.308594 186.460938 C 108.929688 186.460938 109.371094 186.136719 109.652344 185.496094 C 109.933594 184.851562 110.070312 183.820312 110.070312 182.40625 Z M 113.734375 189.707031 L 110.070312 189.707031 L 110.070312 187.613281 C 109.65625 188.394531 109.183594 188.980469 108.648438 189.375 C 108.117188 189.769531 107.527344 189.964844 106.886719 189.964844 C 105.539062 189.964844 104.503906 189.34375 103.789062 188.089844 C 103.070312 186.84375 102.71875 185.027344 102.71875 182.652344 C 102.71875 180.34375 103.082031 178.558594 103.820312 177.296875 C 104.554688 176.039062 105.585938 175.40625 106.914062 175.40625 C 107.539062 175.40625 108.105469 175.597656 108.621094 175.972656 C 109.136719 176.34375 109.617188 176.929688 110.070312 177.71875 L 110.070312 175.554688 L 113.734375 175.554688 L 113.734375 189.707031 " fill-opacity="1" fill-rule="nonzero"/><path fill="#2a2b59" d="M 116.660156 189.707031 L 116.660156 175.554688 L 120.292969 175.554688 L 120.292969 178.0625 C 120.613281 177.140625 121.035156 176.453125 121.566406 175.996094 C 122.09375 175.539062 122.730469 175.300781 123.480469 175.292969 L 123.480469 179.015625 L 123.222656 179.015625 C 122.195312 179.015625 121.496094 179.257812 121.125 179.742188 C 120.753906 180.230469 120.570312 181.335938 120.570312 183.054688 L 120.570312 189.707031 L 116.660156 189.707031 " fill-opacity="1" fill-rule="nonzero"/><path fill="#2a2b59" d="M 132.554688 179.578125 C 132.246094 179.347656 131.949219 179.179688 131.660156 179.074219 C 131.371094 178.96875 131.082031 178.917969 130.792969 178.917969 C 130.042969 178.917969 129.449219 179.238281 129.007812 179.890625 C 128.5625 180.539062 128.34375 181.417969 128.34375 182.523438 C 128.34375 183.683594 128.566406 184.582031 129.011719 185.214844 C 129.460938 185.84375 130.09375 186.15625 130.910156 186.15625 C 131.214844 186.15625 131.503906 186.097656 131.773438 185.976562 C 132.042969 185.859375 132.300781 185.671875 132.554688 185.421875 L 132.554688 189.148438 C 132.148438 189.421875 131.722656 189.632812 131.273438 189.765625 C 130.828125 189.898438 130.363281 189.964844 129.871094 189.964844 C 128.214844 189.964844 126.902344 189.308594 125.925781 187.988281 C 124.949219 186.675781 124.460938 184.878906 124.460938 182.609375 C 124.460938 180.371094 124.953125 178.589844 125.933594 177.269531 C 126.914062 175.949219 128.222656 175.292969 129.871094 175.292969 C 130.34375 175.292969 130.796875 175.335938 131.238281 175.429688 C 131.683594 175.523438 132.121094 175.660156 132.554688 175.839844 L 132.554688 179.578125 " fill-opacity="1" fill-rule="nonzero"/><path fill="#2a2b59" d="M 141.0625 189.707031 L 141.0625 181.136719 C 141.0625 180.328125 140.96875 179.773438 140.769531 179.472656 C 140.582031 179.167969 140.253906 179.015625 139.796875 179.015625 C 139.292969 179.015625 138.933594 179.195312 138.710938 179.550781 C 138.488281 179.90625 138.378906 180.492188 138.378906 181.3125 L 138.378906 189.707031 L 134.46875 189.707031 L 134.46875 167.34375 L 138.378906 167.34375 L 138.378906 177.269531 C 138.910156 176.636719 139.46875 176.167969 140.058594 175.863281 C 140.648438 175.5625 141.296875 175.40625 142 175.40625 C 143.105469 175.40625 143.871094 175.714844 144.304688 176.332031 C 144.738281 176.949219 144.953125 178.183594 144.953125 180.039062 L 144.953125 189.707031 L 141.0625 189.707031 " fill-opacity="1" fill-rule="nonzero"/><path fill="#fcce2c" d="M 173.492188 279.960938 L 156.835938 279.960938 L 156.835938 216.738281 L 173.492188 216.738281 L 173.492188 279.960938 " fill-opacity="1" fill-rule="nonzero"/><path fill="#fcce2c" d="M 233.824219 279.960938 L 217.167969 279.960938 L 217.167969 255.019531 L 233.824219 255.019531 L 233.824219 279.960938 " fill-opacity="1" fill-rule="nonzero"/><path fill="#fcce2c" d="M 294.15625 279.960938 L 277.5 279.960938 L 277.5 255.019531 L 294.15625 255.019531 L 294.15625 279.960938 " fill-opacity="1" fill-rule="nonzero"/><path fill="#15b3e1" d="M 193.601562 279.960938 L 176.953125 279.960938 L 176.953125 238.113281 L 193.601562 238.113281 L 193.601562 279.960938 " fill-opacity="1" fill-rule="nonzero"/><path fill="#15b3e1" d="M 254.300781 279.960938 L 237.648438 279.960938 L 237.648438 196.152344 L 254.300781 196.152344 L 254.300781 279.960938 " fill-opacity="1" fill-rule="nonzero"/><path fill="#f46c4f" d="M 213.714844 279.960938 L 197.058594 279.960938 L 197.058594 230.382812 L 213.714844 230.382812 L 213.714844 279.960938 " fill-opacity="1" fill-rule="nonzero"/><path fill="#f46c4f" d="M 274.042969 279.960938 L 257.386719 279.960938 L 257.386719 222.289062 L 274.042969 222.289062 L 274.042969 279.960938 " fill-opacity="1" fill-rule="nonzero"/><path fill="#ffffff" d="M 163.320312 198.273438 L 186.378906 226.984375 C 186.558594 227.214844 186.84375 227.339844 187.132812 227.328125 C 187.429688 227.3125 187.695312 227.164062 187.855469 226.914062 L 206.015625 199.425781 L 223.3125 231.386719 C 223.492188 231.714844 223.839844 231.898438 224.210938 231.863281 C 224.582031 231.824219 224.886719 231.574219 224.996094 231.21875 L 245.347656 164.636719 L 262.621094 211.941406 C 262.710938 212.183594 262.898438 212.378906 263.132812 212.472656 L 283.984375 221.105469 L 287.769531 248.007812 C 287.824219 248.371094 288.089844 248.675781 288.449219 248.769531 C 288.800781 248.863281 289.183594 248.730469 289.410156 248.4375 L 311.847656 219.175781 C 312.160156 218.773438 312.082031 218.199219 311.679688 217.890625 C 311.277344 217.582031 310.703125 217.65625 310.394531 218.058594 L 289.285156 245.582031 L 285.730469 220.332031 C 285.679688 220.007812 285.46875 219.734375 285.167969 219.609375 L 264.207031 210.933594 L 246.132812 161.4375 C 246 161.066406 245.640625 160.824219 245.246094 160.832031 C 244.851562 160.84375 244.507812 161.109375 244.394531 161.484375 L 223.882812 228.585938 L 206.902344 197.203125 C 206.75 196.921875 206.457031 196.738281 206.132812 196.722656 C 205.816406 196.707031 205.507812 196.863281 205.332031 197.132812 L 187.019531 224.855469 L 164.75 197.125 C 164.433594 196.730469 163.855469 196.667969 163.460938 196.988281 C 163.066406 197.300781 163.003906 197.882812 163.320312 198.273438 " fill-opacity="1" fill-rule="nonzero"/><path fill="#fffeff" d="M 168.9375 199.113281 C 168.9375 201.550781 166.964844 203.527344 164.527344 203.527344 C 162.089844 203.527344 160.109375 201.550781 160.109375 199.113281 C 160.109375 196.671875 162.089844 194.695312 164.527344 194.695312 C 166.964844 194.695312 168.9375 196.671875 168.9375 199.113281 " fill-opacity="1" fill-rule="nonzero"/><path fill="#fffeff" d="M 191.128906 225.007812 C 191.128906 227.445312 189.152344 229.425781 186.710938 229.425781 C 184.273438 229.425781 182.296875 227.445312 182.296875 225.007812 C 182.296875 222.570312 184.273438 220.589844 186.710938 220.589844 C 189.152344 220.589844 191.128906 222.570312 191.128906 225.007812 " fill-opacity="1" fill-rule="nonzero"/><path fill="#fffeff" d="M 210.328125 199.113281 C 210.328125 201.550781 208.355469 203.527344 205.917969 203.527344 C 203.480469 203.527344 201.503906 201.550781 201.503906 199.113281 C 201.503906 196.671875 203.480469 194.695312 205.917969 194.695312 C 208.355469 194.695312 210.328125 196.671875 210.328125 199.113281 " fill-opacity="1" fill-rule="nonzero"/><path fill="#fffeff" d="M 228.015625 229.421875 C 228.015625 231.863281 226.039062 233.835938 223.601562 233.835938 C 221.164062 233.835938 219.183594 231.863281 219.183594 229.421875 C 219.183594 226.984375 221.164062 225.007812 223.601562 225.007812 C 226.039062 225.007812 228.015625 226.984375 228.015625 229.421875 " fill-opacity="1" fill-rule="nonzero"/><path fill="#fffeff" d="M 249.394531 163.476562 C 249.394531 165.914062 247.417969 167.890625 244.984375 167.890625 C 242.542969 167.890625 240.566406 165.914062 240.566406 163.476562 C 240.566406 161.039062 242.542969 159.058594 244.984375 159.058594 C 247.417969 159.058594 249.394531 161.039062 249.394531 163.476562 " fill-opacity="1" fill-rule="nonzero"/><path fill="#fffeff" d="M 268.363281 211.628906 C 268.363281 214.066406 266.390625 216.042969 263.949219 216.042969 C 261.511719 216.042969 259.535156 214.066406 259.535156 211.628906 C 259.535156 209.1875 261.511719 207.210938 263.949219 207.210938 C 266.390625 207.210938 268.363281 209.1875 268.363281 211.628906 " fill-opacity="1" fill-rule="nonzero"/><path fill="#fffeff" d="M 288.945312 220.457031 C 288.945312 222.898438 286.96875 224.875 284.527344 224.875 C 282.09375 224.875 280.113281 222.898438 280.113281 220.457031 C 280.113281 218.019531 282.09375 216.039062 284.527344 216.039062 C 286.96875 216.039062 288.945312 218.019531 288.945312 220.457031 " fill-opacity="1" fill-rule="nonzero"/><path fill="#fffeff" d="M 293.355469 245.714844 C 293.355469 248.152344 291.378906 250.128906 288.945312 250.128906 C 286.507812 250.128906 284.527344 248.152344 284.527344 245.714844 C 284.527344 243.273438 286.507812 241.292969 288.945312 241.292969 C 291.378906 241.292969 293.355469 243.273438 293.355469 245.714844 " fill-opacity="1" fill-rule="nonzero"/><path fill="#fffeff" d="M 315.535156 219.011719 C 315.535156 221.449219 313.558594 223.425781 311.121094 223.425781 C 308.683594 223.425781 306.707031 221.449219 306.707031 219.011719 C 306.707031 216.570312 308.683594 214.59375 311.121094 214.59375 C 313.558594 214.59375 315.535156 216.570312 315.535156 219.011719 " fill-opacity="1" fill-rule="nonzero"/><path fill="#b2e5fa" d="M 348.378906 264.980469 L 339.410156 267.3125 L 332.167969 239.417969 L 341.144531 237.085938 L 348.378906 264.980469 " fill-opacity="1" fill-rule="nonzero"/><path fill="#fcce2c" d="M 368.984375 190.195312 C 374.9375 213.144531 361.167969 236.578125 338.230469 242.535156 C 315.289062 248.492188 291.867188 234.714844 285.914062 211.765625 C 279.964844 188.816406 293.730469 165.382812 316.667969 159.425781 C 339.609375 153.464844 363.027344 167.246094 368.984375 190.195312 " fill-opacity="1" fill-rule="nonzero"/><path fill="#f46c4f" d="M 331.683594 254.429688 L 348.261719 318.34375 C 349.410156 322.773438 353.933594 325.433594 358.363281 324.28125 L 359.507812 323.984375 C 363.9375 322.835938 366.597656 318.3125 365.449219 313.878906 L 348.867188 249.964844 L 331.683594 254.429688 " fill-opacity="1" fill-rule="nonzero"/><path fill="#ffffff" d="M 359.816406 192.574219 C 364.457031 210.457031 353.730469 228.71875 335.847656 233.363281 C 317.96875 238.003906 299.722656 227.269531 295.082031 209.382812 C 290.445312 191.496094 301.171875 173.234375 319.046875 168.59375 C 336.925781 163.953125 355.175781 174.6875 359.816406 192.574219 " fill-opacity="1" fill-rule="nonzero"/><path fill="#f46c4f" d="M 22.308594 253.300781 C 22.308594 253.300781 13.492188 269.378906 18.382812 282.636719 C 18.382812 282.636719 19.777344 278.746094 21.347656 274.328125 C 21.347656 274.328125 34.625 288.996094 28.507812 305.957031 C 28.507812 305.957031 43.007812 289.527344 42.132812 272.5625 C 42.132812 272.5625 46.496094 277.332031 45.273438 282.28125 C 45.273438 282.28125 50.542969 273.035156 44.257812 253.359375 L 22.308594 253.300781 " fill-opacity="1" fill-rule="nonzero"/><path fill="#fcce2c" d="M 26.46875 253.300781 C 26.46875 253.300781 21.148438 261.921875 24.097656 269.027344 C 24.097656 269.027344 24.941406 266.941406 25.890625 264.574219 C 25.890625 264.574219 31.3125 273.101562 31.558594 283.453125 C 31.558594 283.453125 38.960938 272.722656 38.429688 263.625 C 38.429688 263.625 41.914062 265.363281 42.742188 268.394531 C 42.742188 268.394531 43.847656 259.679688 39.714844 253.332031 L 26.46875 253.300781 " fill-opacity="1" fill-rule="nonzero"/><path fill="#ffffff" d="M 47.308594 208.070312 C 47.308594 208.070312 48.675781 211.164062 50.746094 211.320312 C 52.816406 211.480469 64.695312 212.5 64.601562 230.277344 C 64.539062 241.035156 63.484375 250.515625 63.484375 250.515625 C 63.484375 250.515625 56 235.535156 46.339844 234.171875 L 47.308594 208.070312 " fill-opacity="1" fill-rule="nonzero"/><path fill="#ffffff" d="M 17.355469 208.070312 C 17.355469 208.070312 15.984375 211.164062 13.914062 211.320312 C 11.84375 211.480469 -0.0390625 212.5 0.0625 230.277344 C 0.121094 241.035156 1.175781 250.515625 1.175781 250.515625 C 1.175781 250.515625 8.660156 235.535156 18.316406 234.171875 L 17.355469 208.070312 " fill-opacity="1" fill-rule="nonzero"/><path fill="#15b3e1" d="M 44.425781 254.621094 C 42.375 260.976562 22.039062 260.605469 19.605469 254.621094 C 14.367188 241.707031 13.152344 167.636719 13.152344 167.636719 L 50.589844 167.679688 C 50.589844 167.679688 50.851562 234.71875 44.425781 254.621094 " fill-opacity="1" fill-rule="nonzero"/><path fill="#b2e5fa" d="M 14.605469 210.199219 C 15.585938 229.160156 17.15625 248.585938 19.605469 254.621094 C 22.039062 260.605469 42.375 260.976562 44.425781 254.621094 C 47.28125 245.78125 48.816406 227.636719 49.636719 210.199219 L 14.605469 210.199219 " fill-opacity="1" fill-rule="nonzero"/><path fill="#ffffff" d="M 31.886719 138.621094 C 23.992188 138.621094 14.984375 152.320312 13.09375 167.636719 L 50.539062 167.636719 C 48.710938 153.097656 39.632812 138.621094 31.886719 138.621094 " fill-opacity="1" fill-rule="nonzero"/><path fill="#2a2b59" d="M 44.933594 189.261719 C 44.933594 196.511719 39.0625 202.386719 31.820312 202.386719 C 24.570312 202.386719 18.699219 196.511719 18.699219 189.261719 C 18.699219 182.011719 24.570312 176.136719 31.820312 176.136719 C 39.0625 176.136719 44.933594 182.011719 44.933594 189.261719 " fill-opacity="1" fill-rule="nonzero"/><path fill="#b2e5fa" d="M 41.164062 189.261719 C 41.164062 194.425781 36.980469 198.613281 31.820312 198.613281 C 26.65625 198.613281 22.46875 194.425781 22.46875 189.261719 C 22.46875 184.09375 26.65625 179.910156 31.820312 179.910156 C 36.980469 179.910156 41.164062 184.09375 41.164062 189.261719 " fill-opacity="1" fill-rule="nonzero"/><path fill="#ffffff" d="M 18.152344 249.054688 C 18.601562 251.429688 19.082031 253.332031 19.605469 254.621094 C 22.039062 260.605469 42.375 260.976562 44.425781 254.621094 C 44.933594 253.046875 45.402344 251.167969 45.832031 249.054688 L 18.152344 249.054688 " fill-opacity="1" fill-rule="nonzero"/><path fill="#23244b" d="M 25.835938 235.6875 C 25.835938 231.871094 27.898438 229.695312 31.734375 229.695312 C 36.792969 229.695312 38.296875 231.871094 38.296875 235.6875 C 38.296875 246.035156 31.953125 275.804688 31.953125 275.804688 C 31.953125 275.804688 25.835938 246.101562 25.835938 235.6875 " fill-opacity="1" fill-rule="nonzero"/><path fill="#b2e5fa" d="M 164.199219 349.699219 C 164.199219 350.371094 163.65625 350.914062 162.988281 350.914062 L 65.460938 350.914062 C 64.789062 350.914062 64.246094 350.371094 64.246094 349.699219 L 64.246094 278.4375 C 64.246094 277.769531 64.789062 277.222656 65.460938 277.222656 L 162.988281 277.222656 C 163.65625 277.222656 164.199219 277.769531 164.199219 278.4375 L 164.199219 349.699219 " fill-opacity="1" fill-rule="nonzero"/><path fill="#2a2b59" d="M 164.199219 289.367188 L 164.199219 278.4375 C 164.199219 277.769531 163.65625 277.222656 162.988281 277.222656 L 65.460938 277.222656 C 64.789062 277.222656 64.246094 277.769531 64.246094 278.4375 L 64.246094 289.367188 L 164.199219 289.367188 " fill-opacity="1" fill-rule="nonzero"/><path fill="#15b3e1" d="M 122.519531 283.703125 C 122.519531 284.371094 121.976562 284.914062 121.304688 284.914062 L 71.328125 284.914062 C 70.65625 284.914062 70.113281 284.371094 70.113281 283.703125 L 70.113281 282.890625 C 70.113281 282.222656 70.65625 281.675781 71.328125 281.675781 L 121.304688 281.675781 C 121.976562 281.675781 122.519531 282.222656 122.519531 282.890625 L 122.519531 283.703125 " fill-opacity="1" fill-rule="nonzero"/><path fill="#15b3e1" d="M 146.496094 283.296875 C 146.496094 284.523438 145.503906 285.519531 144.269531 285.519531 C 143.042969 285.519531 142.046875 284.523438 142.046875 283.296875 C 142.046875 282.0625 143.042969 281.066406 144.269531 281.066406 C 145.503906 281.066406 146.496094 282.0625 146.496094 283.296875 " fill-opacity="1" fill-rule="nonzero"/><path fill="#15b3e1" d="M 152.011719 283.296875 C 152.011719 284.523438 151.011719 285.519531 149.785156 285.519531 C 148.554688 285.519531 147.558594 284.523438 147.558594 283.296875 C 147.558594 282.0625 148.554688 281.066406 149.785156 281.066406 C 151.011719 281.066406 152.011719 282.0625 152.011719 283.296875 " fill-opacity="1" fill-rule="nonzero"/><path fill="#15b3e1" d="M 157.519531 283.296875 C 157.519531 284.523438 156.53125 285.519531 155.296875 285.519531 C 154.070312 285.519531 153.074219 284.523438 153.074219 283.296875 C 153.074219 282.0625 154.070312 281.066406 155.296875 281.066406 C 156.53125 281.066406 157.519531 282.0625 157.519531 283.296875 " fill-opacity="1" fill-rule="nonzero"/><path fill="#313d9c" d="M 78.878906 324.414062 L 74.433594 324.414062 L 74.433594 292.625 L 78.878906 292.625 L 78.878906 324.414062 " fill-opacity="1" fill-rule="nonzero"/><path fill="#fcce2c" d="M 101.300781 324.414062 L 96.855469 324.414062 L 96.855469 292.625 L 101.300781 292.625 L 101.300781 324.414062 " fill-opacity="1" fill-rule="nonzero"/><path fill="#15b3e1" d="M 86.351562 324.414062 L 81.90625 324.414062 L 81.90625 299.878906 L 86.351562 299.878906 L 86.351562 324.414062 " fill-opacity="1" fill-rule="nonzero"/><path fill="#f46c4f" d="M 93.832031 324.414062 L 89.378906 324.414062 L 89.378906 303.375 L 93.832031 303.375 L 93.832031 324.414062 " fill-opacity="1" fill-rule="nonzero"/><path fill="#2a2b59" d="M 108.777344 324.414062 L 104.328125 324.414062 L 104.328125 303.375 L 108.777344 303.375 L 108.777344 324.414062 " fill-opacity="1" fill-rule="nonzero"/><path fill="#1e85d0" d="M 116.253906 324.414062 L 111.800781 324.414062 L 111.800781 306.753906 L 116.253906 306.753906 L 116.253906 324.414062 " fill-opacity="1" fill-rule="nonzero"/><path fill="#2a2b59" d="M 154.023438 299.910156 L 123.28125 299.910156 L 123.28125 297.984375 L 154.023438 297.984375 L 154.023438 299.910156 " fill-opacity="1" fill-rule="nonzero"/><path fill="#2a2b59" d="M 154.023438 304.722656 L 123.28125 304.722656 L 123.28125 302.800781 L 154.023438 302.800781 L 154.023438 304.722656 " fill-opacity="1" fill-rule="nonzero"/><path fill="#2a2b59" d="M 154.023438 309.535156 L 123.28125 309.535156 L 123.28125 307.613281 L 154.023438 307.613281 L 154.023438 309.535156 " fill-opacity="1" fill-rule="nonzero"/><path fill="#2a2b59" d="M 154.023438 314.351562 L 123.28125 314.351562 L 123.28125 312.429688 L 154.023438 312.429688 L 154.023438 314.351562 " fill-opacity="1" fill-rule="nonzero"/><path fill="#2a2b59" d="M 154.023438 319.164062 L 123.28125 319.164062 L 123.28125 317.242188 L 154.023438 317.242188 L 154.023438 319.164062 " fill-opacity="1" fill-rule="nonzero"/><path fill="#2a2b59" d="M 154.023438 323.976562 L 123.28125 323.976562 L 123.28125 322.054688 L 154.023438 322.054688 L 154.023438 323.976562 " fill-opacity="1" fill-rule="nonzero"/><path fill="#2a2b59" d="M 154.023438 345.863281 L 74.433594 345.863281 L 74.433594 329.3125 L 154.023438 329.3125 L 154.023438 345.863281 " fill-opacity="1" fill-rule="nonzero"/><path fill="#b2e5fa" d="M 115.949219 79.5 C 116.113281 78.558594 116.203125 77.582031 116.203125 76.585938 C 116.203125 68.308594 110.261719 61.53125 102.726562 60.925781 C 101.222656 56.148438 97.027344 52.703125 92.082031 52.703125 C 90.894531 52.703125 89.75 52.90625 88.671875 53.277344 C 86.644531 47.234375 81.277344 42.917969 74.972656 42.917969 C 69.363281 42.917969 64.503906 46.332031 62.066406 51.34375 C 60.570312 50.546875 58.890625 50.101562 57.109375 50.101562 C 53.105469 50.101562 49.589844 52.359375 47.597656 55.761719 C 45.46875 54.421875 42.996094 53.648438 40.351562 53.648438 C 33.03125 53.648438 26.984375 59.539062 26.054688 67.15625 C 20.121094 67.679688 15.441406 72.988281 15.347656 79.5 L 115.949219 79.5 " fill-opacity="1" fill-rule="nonzero"/><g clip-path="url(#330f9de2c6)"><path fill="#b2e5fa" d="M 321.359375 51.269531 C 321.503906 50.445312 321.578125 49.589844 321.578125 48.71875 C 321.578125 41.480469 316.386719 35.558594 309.804688 35.03125 C 308.484375 30.855469 304.820312 27.84375 300.5 27.84375 C 299.460938 27.84375 298.457031 28.019531 297.515625 28.34375 C 295.746094 23.066406 291.054688 19.289062 285.539062 19.289062 C 280.640625 19.289062 276.390625 22.277344 274.257812 26.652344 C 272.949219 25.960938 271.480469 25.566406 269.921875 25.566406 C 266.425781 25.566406 263.355469 27.542969 261.613281 30.515625 C 259.753906 29.347656 257.589844 28.671875 255.273438 28.671875 C 248.875 28.671875 243.59375 33.816406 242.777344 40.476562 C 237.59375 40.933594 233.5 45.578125 233.421875 51.269531 L 321.359375 51.269531 " fill-opacity="1" fill-rule="nonzero"/></g><path fill="#b2e5fa" d="M 165.164062 122.601562 C 157.140625 122.601562 150.632812 116.09375 150.632812 108.066406 C 150.632812 100.039062 157.140625 93.527344 165.164062 93.527344 C 173.1875 93.527344 179.691406 100.039062 179.691406 108.066406 C 179.691406 116.09375 173.1875 122.601562 165.164062 122.601562 Z M 201.214844 97.96875 L 188.488281 97.96875 L 197.199219 88.6875 L 182.496094 74.863281 L 175.253906 82.578125 L 175.253906 71.992188 L 155.078125 71.992188 L 155.078125 84.730469 L 145.800781 76.007812 L 131.984375 90.726562 L 139.6875 97.96875 L 129.109375 97.96875 L 129.109375 118.160156 L 141.84375 118.160156 L 133.125 127.441406 L 147.832031 141.265625 L 155.078125 133.550781 L 155.078125 144.136719 L 175.253906 144.136719 L 175.253906 131.402344 L 184.53125 140.121094 L 198.347656 125.410156 L 190.636719 118.160156 L 201.214844 118.160156 L 201.214844 97.96875 " fill-opacity="1" fill-rule="nonzero"/></svg>