<svg xmlns="http://www.w3.org/2000/svg" xmlns:xlink="http://www.w3.org/1999/xlink" width="500" zoomAndPan="magnify" viewBox="0 0 375 374.999991" height="500" preserveAspectRatio="xMidYMid meet" version="1.0"><defs><clipPath id="cce8b71822"><path d="M 64 0 L 368.578125 0 L 368.578125 375 L 64 375 Z M 64 0 " clip-rule="nonzero"/></clipPath><clipPath id="9af7dc94a9"><path d="M 6.328125 62 L 66 62 L 66 102 L 6.328125 102 Z M 6.328125 62 " clip-rule="nonzero"/></clipPath><clipPath id="6235c35eb5"><path d="M 6.328125 133 L 85 133 L 85 173 L 6.328125 173 Z M 6.328125 133 " clip-rule="nonzero"/></clipPath><clipPath id="8b1aaa9d52"><path d="M 6.328125 203 L 85 203 L 85 244 L 6.328125 244 Z M 6.328125 203 " clip-rule="nonzero"/></clipPath></defs><path fill="#00f3f7" d="M 274.65625 96.871094 C 274.65625 97.652344 274.578125 98.425781 274.425781 99.191406 C 274.273438 99.960938 274.046875 100.703125 273.75 101.425781 C 273.449219 102.148438 273.082031 102.832031 272.648438 103.484375 C 272.214844 104.132812 271.722656 104.734375 271.167969 105.289062 C 270.617188 105.839844 270.015625 106.335938 269.363281 106.769531 C 268.714844 107.203125 268.027344 107.570312 267.304688 107.867188 C 266.585938 108.167969 265.839844 108.394531 265.074219 108.546875 C 264.308594 108.699219 263.53125 108.773438 262.75 108.773438 C 261.96875 108.773438 261.195312 108.699219 260.429688 108.546875 C 259.660156 108.394531 258.917969 108.167969 258.195312 107.867188 C 257.472656 107.570312 256.789062 107.203125 256.136719 106.769531 C 255.488281 106.335938 254.886719 105.839844 254.332031 105.289062 C 253.78125 104.734375 253.285156 104.132812 252.851562 103.484375 C 252.417969 102.832031 252.050781 102.148438 251.753906 101.425781 C 251.453125 100.703125 251.226562 99.960938 251.074219 99.191406 C 250.921875 98.425781 250.847656 97.652344 250.847656 96.871094 C 250.847656 96.089844 250.921875 95.3125 251.074219 94.546875 C 251.226562 93.78125 251.453125 93.035156 251.753906 92.316406 C 252.050781 91.59375 252.417969 90.90625 252.851562 90.257812 C 253.285156 89.605469 253.78125 89.003906 254.332031 88.453125 C 254.886719 87.898438 255.488281 87.40625 256.136719 86.972656 C 256.789062 86.539062 257.472656 86.171875 258.195312 85.871094 C 258.917969 85.574219 259.660156 85.347656 260.429688 85.195312 C 261.195312 85.042969 261.96875 84.964844 262.75 84.964844 C 263.53125 84.964844 264.308594 85.042969 265.074219 85.195312 C 265.839844 85.347656 266.585938 85.574219 267.304688 85.871094 C 268.027344 86.171875 268.714844 86.539062 269.363281 86.972656 C 270.015625 87.40625 270.617188 87.898438 271.167969 88.453125 C 271.722656 89.003906 272.214844 89.605469 272.648438 90.257812 C 273.082031 90.90625 273.449219 91.59375 273.75 92.316406 C 274.046875 93.035156 274.273438 93.78125 274.425781 94.546875 C 274.578125 95.3125 274.65625 96.089844 274.65625 96.871094 Z M 274.65625 96.871094 " fill-opacity="1" fill-rule="nonzero"/><path fill="#00f3f7" d="M 262.773438 145.988281 C 264.441406 145.988281 265.796875 144.632812 265.796875 142.964844 C 265.796875 142.917969 265.785156 142.875 265.78125 142.828125 C 268.582031 142.601562 271.289062 142.066406 273.875 141.253906 C 273.894531 141.308594 273.902344 141.363281 273.925781 141.421875 C 274.394531 142.605469 275.535156 143.328125 276.738281 143.328125 C 277.109375 143.328125 277.488281 143.257812 277.855469 143.113281 C 282.964844 141.082031 287.539062 138.085938 291.441406 134.203125 C 292.628906 133.027344 292.632812 131.109375 291.457031 129.925781 C 290.921875 129.386719 290.230469 129.101562 289.523438 129.054688 C 284.492188 119.394531 274.394531 112.796875 262.75 112.796875 C 251.550781 112.796875 241.777344 118.898438 236.578125 127.960938 C 231.445312 122.011719 228.335938 114.308594 228.335938 105.898438 C 228.335938 87.128906 243.78125 71.855469 262.769531 71.855469 C 281.757812 71.855469 297.207031 87.128906 297.207031 105.898438 C 297.207031 110.566406 296.265625 115.089844 294.417969 119.339844 C 293.75 120.871094 294.453125 122.65625 295.984375 123.320312 C 297.515625 123.988281 299.296875 123.289062 299.964844 121.753906 C 302.148438 116.738281 303.257812 111.402344 303.257812 105.898438 C 303.257812 83.792969 285.09375 65.804688 262.769531 65.804688 C 240.445312 65.804688 222.285156 83.792969 222.285156 105.898438 C 222.285156 128.007812 240.449219 145.988281 262.773438 145.988281 Z M 262.773438 145.988281 " fill-opacity="1" fill-rule="nonzero"/><g clip-path="url(#cce8b71822)"><path fill="#00f3f7" d="M 354.460938 0.0546875 L 171.113281 0.0546875 C 167.660156 0.0546875 164.480469 1.285156 162.019531 3.34375 C 160.152344 4.898438 158.691406 6.925781 157.820312 9.242188 C 157.222656 10.804688 156.902344 12.496094 156.902344 14.269531 L 156.902344 137.945312 C 156.308594 137.925781 155.71875 137.898438 155.117188 137.898438 C 124.59375 137.898438 99.847656 162.644531 99.847656 193.171875 C 99.847656 206.792969 104.78125 219.253906 112.949219 228.886719 L 108.667969 233.167969 L 66.867188 274.960938 C 63.917969 277.921875 63.917969 282.707031 66.867188 285.667969 C 68.351562 287.140625 70.277344 287.875 72.214844 287.875 C 74.152344 287.875 76.089844 287.140625 77.570312 285.667969 L 119.894531 243.335938 L 124.222656 239.007812 C 133.042969 244.964844 143.675781 248.445312 155.117188 248.445312 C 155.71875 248.445312 156.308594 248.417969 156.902344 248.398438 L 156.902344 360.65625 C 156.902344 368.5 163.269531 374.867188 171.113281 374.867188 L 354.460938 374.867188 C 362.304688 374.867188 368.671875 368.5 368.671875 360.65625 L 368.671875 14.265625 C 368.671875 6.421875 362.304688 0.0546875 354.460938 0.0546875 Z M 280.925781 12.152344 L 293.027344 12.152344 C 294.699219 12.152344 296.054688 13.507812 296.054688 15.175781 C 296.054688 16.847656 294.699219 18.203125 293.027344 18.203125 L 280.925781 18.203125 C 279.253906 18.203125 277.898438 16.847656 277.898438 15.175781 C 277.898438 13.507812 279.253906 12.152344 280.925781 12.152344 Z M 232.511719 12.152344 L 262.769531 12.152344 C 264.441406 12.152344 265.796875 13.507812 265.796875 15.175781 C 265.796875 16.847656 264.441406 18.203125 262.769531 18.203125 L 232.511719 18.203125 C 230.839844 18.203125 229.488281 16.847656 229.488281 15.175781 C 229.488281 13.507812 230.839844 12.152344 232.511719 12.152344 Z M 168.972656 41.25 C 168.972656 38.550781 171.167969 36.355469 173.867188 36.355469 L 351.679688 36.355469 C 354.382812 36.355469 356.574219 38.550781 356.574219 41.25 L 356.574219 302.644531 L 334.917969 302.644531 L 334.917969 171.839844 C 334.917969 170.585938 333.898438 169.570312 332.648438 169.570312 L 300.800781 169.570312 C 299.546875 169.570312 298.53125 170.585938 298.53125 171.839844 L 298.53125 302.644531 L 280.597656 302.644531 L 280.597656 238.40625 C 280.597656 237.152344 279.582031 236.136719 278.328125 236.136719 L 246.488281 236.136719 C 245.234375 236.136719 244.222656 237.152344 244.222656 238.40625 L 244.222656 302.644531 L 226.289062 302.644531 L 226.289062 201.867188 C 226.289062 200.609375 225.269531 199.597656 224.019531 199.597656 L 216.867188 199.597656 C 214.9375 218.277344 204.691406 234.523438 189.90625 244.5625 L 189.90625 302.644531 L 168.972656 302.644531 L 168.972656 246.691406 C 184.632812 242.648438 197.59375 231.910156 204.644531 217.714844 C 204.648438 217.707031 204.652344 217.699219 204.65625 217.6875 C 205.046875 216.902344 205.417969 216.105469 205.769531 215.300781 C 205.773438 215.289062 205.78125 215.28125 205.785156 215.269531 C 206.136719 214.460938 206.472656 213.644531 206.785156 212.816406 C 206.789062 212.808594 206.792969 212.800781 206.796875 212.792969 C 207.113281 211.960938 207.410156 211.117188 207.6875 210.261719 C 209.4375 204.878906 210.394531 199.136719 210.394531 193.171875 C 210.394531 167.429688 192.796875 145.796875 168.976562 139.648438 L 168.976562 41.25 Z M 155.117188 233.316406 C 132.984375 233.316406 114.976562 215.304688 114.976562 193.171875 C 114.976562 171.035156 132.984375 153.027344 155.117188 153.027344 C 177.253906 153.027344 195.261719 171.035156 195.261719 193.171875 C 195.261719 215.304688 177.253906 233.316406 155.117188 233.316406 Z M 262.785156 360.171875 C 258.726562 360.171875 255.4375 356.878906 255.4375 352.820312 C 255.4375 348.761719 258.726562 345.472656 262.785156 345.472656 C 266.84375 345.472656 270.136719 348.761719 270.136719 352.820312 C 270.136719 356.878906 266.84375 360.171875 262.785156 360.171875 Z M 351.679688 332.886719 L 173.867188 332.886719 C 171.167969 332.886719 168.972656 330.703125 168.972656 327.992188 L 168.972656 311.226562 L 356.574219 311.226562 L 356.574219 327.992188 C 356.574219 330.703125 354.382812 332.886719 351.679688 332.886719 Z M 351.679688 332.886719 " fill-opacity="1" fill-rule="nonzero"/></g><path fill="#00f3f7" d="M 81.597656 84.742188 L 130.066406 84.742188 C 131.734375 84.742188 133.09375 86.097656 133.09375 87.765625 L 133.09375 124.089844 C 133.09375 125.761719 134.449219 127.117188 136.117188 127.117188 C 137.789062 127.117188 139.144531 125.761719 139.144531 124.089844 L 139.144531 87.765625 C 139.144531 82.761719 135.070312 78.6875 130.066406 78.6875 L 81.597656 78.6875 C 79.929688 78.6875 78.574219 80.042969 78.574219 81.714844 C 78.574219 83.386719 79.929688 84.742188 81.597656 84.742188 Z M 81.597656 84.742188 " fill-opacity="1" fill-rule="nonzero"/><g clip-path="url(#9af7dc94a9)"><path fill="#00f3f7" d="M 25.921875 101.308594 C 35.695312 101.308594 43.820312 94.113281 45.28125 84.742188 L 62.269531 84.742188 C 63.941406 84.742188 65.296875 83.386719 65.296875 81.714844 C 65.296875 80.042969 63.941406 78.6875 62.269531 78.6875 L 45.28125 78.6875 C 43.820312 69.316406 35.695312 62.121094 25.921875 62.121094 C 15.117188 62.121094 6.328125 70.910156 6.328125 81.714844 C 6.328125 92.519531 15.117188 101.308594 25.921875 101.308594 Z M 25.921875 68.171875 C 33.386719 68.171875 39.460938 74.246094 39.460938 81.714844 C 39.460938 89.179688 33.386719 95.257812 25.921875 95.257812 C 18.453125 95.257812 12.378906 89.179688 12.378906 81.714844 C 12.378906 74.246094 18.453125 68.171875 25.921875 68.171875 Z M 25.921875 68.171875 " fill-opacity="1" fill-rule="nonzero"/></g><g clip-path="url(#6235c35eb5)"><path fill="#00f3f7" d="M 25.921875 172.203125 C 35.695312 172.203125 43.820312 165.007812 45.28125 155.636719 L 81.597656 155.636719 C 83.269531 155.636719 84.625 154.28125 84.625 152.609375 C 84.625 150.9375 83.269531 149.582031 81.597656 149.582031 L 45.28125 149.582031 C 43.820312 140.210938 35.695312 133.015625 25.921875 133.015625 C 15.117188 133.015625 6.328125 141.804688 6.328125 152.609375 C 6.328125 163.414062 15.117188 172.203125 25.921875 172.203125 Z M 25.921875 139.066406 C 33.386719 139.066406 39.460938 145.140625 39.460938 152.609375 C 39.460938 160.074219 33.386719 166.148438 25.921875 166.148438 C 18.453125 166.148438 12.378906 160.074219 12.378906 152.609375 C 12.378906 145.140625 18.453125 139.066406 25.921875 139.066406 Z M 25.921875 139.066406 " fill-opacity="1" fill-rule="nonzero"/></g><g clip-path="url(#8b1aaa9d52)"><path fill="#00f3f7" d="M 84.625 223.503906 C 84.625 221.832031 83.269531 220.476562 81.597656 220.476562 L 45.28125 220.476562 C 43.820312 211.105469 35.695312 203.910156 25.921875 203.910156 C 15.117188 203.910156 6.328125 212.699219 6.328125 223.503906 C 6.328125 234.308594 15.117188 243.097656 25.921875 243.097656 C 35.695312 243.097656 43.820312 235.902344 45.28125 226.53125 L 81.597656 226.53125 C 83.269531 226.53125 84.625 225.175781 84.625 223.503906 Z M 25.921875 237.046875 C 18.453125 237.046875 12.378906 230.96875 12.378906 223.503906 C 12.378906 216.035156 18.453125 209.960938 25.921875 209.960938 C 33.386719 209.960938 39.460938 216.035156 39.460938 223.503906 C 39.460938 230.96875 33.386719 237.046875 25.921875 237.046875 Z M 25.921875 237.046875 " fill-opacity="1" fill-rule="nonzero"/></g><path fill="#00f3f7" d="M 139.777344 194.683594 C 139.777344 195.050781 139.742188 195.414062 139.671875 195.773438 C 139.597656 196.132812 139.492188 196.480469 139.351562 196.820312 C 139.214844 197.15625 139.042969 197.480469 138.835938 197.785156 C 138.632812 198.089844 138.402344 198.371094 138.144531 198.628906 C 137.886719 198.886719 137.601562 199.121094 137.296875 199.324219 C 136.992188 199.527344 136.671875 199.699219 136.335938 199.839844 C 135.996094 199.976562 135.648438 200.085938 135.289062 200.15625 C 134.929688 200.226562 134.566406 200.261719 134.199219 200.261719 C 133.832031 200.261719 133.46875 200.226562 133.109375 200.15625 C 132.75 200.085938 132.402344 199.976562 132.0625 199.839844 C 131.726562 199.699219 131.402344 199.527344 131.101562 199.324219 C 130.796875 199.121094 130.511719 198.886719 130.253906 198.628906 C 129.996094 198.371094 129.765625 198.089844 129.558594 197.785156 C 129.355469 197.480469 129.183594 197.15625 129.042969 196.820312 C 128.90625 196.480469 128.800781 196.132812 128.726562 195.773438 C 128.65625 195.414062 128.621094 195.050781 128.621094 194.683594 C 128.621094 194.316406 128.65625 193.953125 128.726562 193.59375 C 128.800781 193.238281 128.90625 192.886719 129.042969 192.550781 C 129.183594 192.210938 129.355469 191.890625 129.558594 191.585938 C 129.765625 191.28125 129.996094 191 130.253906 190.738281 C 130.511719 190.480469 130.796875 190.25 131.101562 190.046875 C 131.402344 189.84375 131.726562 189.671875 132.0625 189.53125 C 132.402344 189.390625 132.75 189.285156 133.109375 189.210938 C 133.46875 189.140625 133.832031 189.105469 134.199219 189.105469 C 134.566406 189.105469 134.929688 189.140625 135.289062 189.210938 C 135.648438 189.285156 135.996094 189.390625 136.335938 189.53125 C 136.671875 189.671875 136.992188 189.84375 137.296875 190.046875 C 137.601562 190.25 137.886719 190.480469 138.144531 190.738281 C 138.402344 191 138.632812 191.28125 138.835938 191.585938 C 139.042969 191.890625 139.214844 192.210938 139.351562 192.550781 C 139.492188 192.886719 139.597656 193.238281 139.671875 193.59375 C 139.742188 193.953125 139.777344 194.316406 139.777344 194.683594 Z M 139.777344 194.683594 " fill-opacity="1" fill-rule="nonzero"/><path fill="#00f3f7" d="M 160.414062 194.683594 C 160.414062 195.050781 160.378906 195.414062 160.304688 195.773438 C 160.234375 196.132812 160.128906 196.480469 159.988281 196.820312 C 159.847656 197.15625 159.675781 197.480469 159.472656 197.785156 C 159.269531 198.089844 159.039062 198.371094 158.78125 198.628906 C 158.519531 198.886719 158.238281 199.121094 157.933594 199.324219 C 157.628906 199.527344 157.308594 199.699219 156.96875 199.839844 C 156.632812 199.976562 156.28125 200.085938 155.921875 200.15625 C 155.5625 200.226562 155.199219 200.261719 154.835938 200.261719 C 154.46875 200.261719 154.105469 200.226562 153.746094 200.15625 C 153.386719 200.085938 153.039062 199.976562 152.699219 199.839844 C 152.359375 199.699219 152.039062 199.527344 151.734375 199.324219 C 151.429688 199.121094 151.148438 198.886719 150.890625 198.628906 C 150.628906 198.371094 150.398438 198.089844 150.195312 197.785156 C 149.992188 197.480469 149.820312 197.15625 149.679688 196.820312 C 149.539062 196.480469 149.433594 196.132812 149.363281 195.773438 C 149.292969 195.414062 149.253906 195.050781 149.253906 194.683594 C 149.253906 194.316406 149.292969 193.953125 149.363281 193.59375 C 149.433594 193.238281 149.539062 192.886719 149.679688 192.550781 C 149.820312 192.210938 149.992188 191.890625 150.195312 191.585938 C 150.398438 191.28125 150.628906 191 150.890625 190.738281 C 151.148438 190.480469 151.429688 190.25 151.734375 190.046875 C 152.039062 189.84375 152.359375 189.671875 152.699219 189.53125 C 153.039062 189.390625 153.386719 189.285156 153.746094 189.210938 C 154.105469 189.140625 154.46875 189.105469 154.835938 189.105469 C 155.199219 189.105469 155.5625 189.140625 155.921875 189.210938 C 156.28125 189.285156 156.632812 189.390625 156.96875 189.53125 C 157.308594 189.671875 157.628906 189.84375 157.933594 190.046875 C 158.238281 190.25 158.519531 190.480469 158.78125 190.738281 C 159.039062 191 159.269531 191.28125 159.472656 191.585938 C 159.675781 191.890625 159.847656 192.210938 159.988281 192.550781 C 160.128906 192.886719 160.234375 193.238281 160.304688 193.59375 C 160.378906 193.953125 160.414062 194.316406 160.414062 194.683594 Z M 160.414062 194.683594 " fill-opacity="1" fill-rule="nonzero"/><path fill="#00f3f7" d="M 181.050781 194.683594 C 181.050781 195.050781 181.011719 195.414062 180.941406 195.773438 C 180.871094 196.132812 180.765625 196.480469 180.625 196.820312 C 180.484375 197.15625 180.3125 197.480469 180.109375 197.785156 C 179.90625 198.089844 179.675781 198.371094 179.414062 198.628906 C 179.15625 198.886719 178.875 199.121094 178.570312 199.324219 C 178.265625 199.527344 177.945312 199.699219 177.605469 199.839844 C 177.265625 199.976562 176.917969 200.085938 176.558594 200.15625 C 176.199219 200.226562 175.835938 200.261719 175.46875 200.261719 C 175.105469 200.261719 174.742188 200.226562 174.382812 200.15625 C 174.023438 200.085938 173.671875 199.976562 173.335938 199.839844 C 172.996094 199.699219 172.675781 199.527344 172.371094 199.324219 C 172.066406 199.121094 171.785156 198.886719 171.523438 198.628906 C 171.265625 198.371094 171.035156 198.089844 170.832031 197.785156 C 170.628906 197.480469 170.457031 197.15625 170.316406 196.820312 C 170.175781 196.480469 170.070312 196.132812 170 195.773438 C 169.925781 195.414062 169.890625 195.050781 169.890625 194.683594 C 169.890625 194.316406 169.925781 193.953125 170 193.59375 C 170.070312 193.238281 170.175781 192.886719 170.316406 192.550781 C 170.457031 192.210938 170.628906 191.890625 170.832031 191.585938 C 171.035156 191.28125 171.265625 191 171.523438 190.738281 C 171.785156 190.480469 172.066406 190.25 172.371094 190.046875 C 172.675781 189.84375 172.996094 189.671875 173.335938 189.53125 C 173.671875 189.390625 174.023438 189.285156 174.382812 189.210938 C 174.742188 189.140625 175.105469 189.105469 175.46875 189.105469 C 175.835938 189.105469 176.199219 189.140625 176.558594 189.210938 C 176.917969 189.285156 177.265625 189.390625 177.605469 189.53125 C 177.945312 189.671875 178.265625 189.84375 178.570312 190.046875 C 178.875 190.25 179.15625 190.480469 179.414062 190.738281 C 179.675781 191 179.90625 191.28125 180.109375 191.585938 C 180.3125 191.890625 180.484375 192.210938 180.625 192.550781 C 180.765625 192.886719 180.871094 193.238281 180.941406 193.59375 C 181.011719 193.953125 181.050781 194.316406 181.050781 194.683594 Z M 181.050781 194.683594 " fill-opacity="1" fill-rule="nonzero"/></svg>