<svg xmlns="http://www.w3.org/2000/svg" xmlns:xlink="http://www.w3.org/1999/xlink" width="500" zoomAndPan="magnify" viewBox="0 0 375 374.999991" height="500" preserveAspectRatio="xMidYMid meet" version="1.0"><defs><clipPath id="405e199d09"><path d="M 7.769531 8.445312 L 367 8.445312 L 367 366.195312 L 7.769531 366.195312 Z M 7.769531 8.445312 " clip-rule="nonzero"/></clipPath></defs><g clip-path="url(#405e199d09)"><path fill="#00f3f7" d="M 296.160156 215.890625 L 261.160156 215.890625 C 257.960938 215.890625 255.371094 218.480469 255.371094 221.679688 L 255.371094 360.75 C 255.371094 363.945312 257.960938 366.539062 261.160156 366.539062 L 296.160156 366.539062 C 299.359375 366.539062 301.949219 363.945312 301.949219 360.75 L 301.949219 221.679688 C 301.949219 218.480469 299.359375 215.890625 296.160156 215.890625 Z M 290.371094 354.957031 L 266.949219 354.957031 L 266.949219 227.46875 L 290.371094 227.46875 Z M 361.152344 182.839844 L 326.152344 182.839844 C 322.953125 182.839844 320.363281 185.433594 320.363281 188.628906 L 320.363281 360.746094 C 320.363281 363.945312 322.953125 366.535156 326.152344 366.535156 L 361.152344 366.535156 C 364.351562 366.535156 366.941406 363.945312 366.941406 360.746094 L 366.941406 188.628906 C 366.941406 185.433594 364.351562 182.839844 361.152344 182.839844 Z M 355.363281 354.957031 L 331.941406 354.957031 L 331.941406 194.421875 L 355.363281 194.421875 Z M 166.175781 287.808594 L 131.171875 287.808594 C 127.976562 287.808594 125.382812 290.398438 125.382812 293.597656 L 125.382812 360.746094 C 125.382812 363.945312 127.976562 366.535156 131.171875 366.535156 L 166.175781 366.535156 C 169.371094 366.535156 171.964844 363.945312 171.964844 360.746094 L 171.964844 293.597656 C 171.964844 290.398438 169.371094 287.808594 166.175781 287.808594 Z M 160.382812 354.957031 L 136.960938 354.957031 L 136.960938 299.386719 L 160.382812 299.386719 Z M 353.105469 137.230469 L 351.382812 149.0625 C 350.921875 152.226562 353.117188 155.164062 356.28125 155.625 C 356.5625 155.664062 356.84375 155.683594 357.121094 155.683594 C 359.949219 155.683594 362.425781 153.609375 362.84375 150.726562 L 366.882812 122.988281 C 367.132812 121.269531 366.597656 119.53125 365.429688 118.25 C 364.257812 116.964844 362.570312 116.28125 360.839844 116.371094 L 332.847656 117.890625 C 329.65625 118.0625 327.207031 120.792969 327.378906 123.988281 C 327.554688 127.179688 330.285156 129.613281 333.476562 129.453125 L 345.136719 128.820312 C 315.828125 154.640625 283.75 177.863281 249.53125 198.011719 C 249.074219 197.648438 248.558594 197.347656 247.992188 197.128906 L 240.097656 194.089844 C 238.871094 189.894531 237.195312 185.847656 235.09375 182.011719 L 238.527344 174.273438 C 239.5 172.085938 239.023438 169.523438 237.332031 167.832031 L 225.027344 155.523438 C 223.332031 153.832031 220.769531 153.359375 218.582031 154.328125 L 210.84375 157.765625 C 207.003906 155.664062 202.960938 153.988281 198.765625 152.757812 L 197.515625 149.503906 L 213.320312 133.890625 L 217.824219 133.890625 C 222.710938 133.890625 226.691406 129.914062 226.691406 125.023438 L 226.691406 108.660156 C 226.691406 103.773438 222.710938 99.796875 217.824219 99.796875 L 16.839844 99.796875 C 11.949219 99.792969 7.972656 103.773438 7.972656 108.660156 L 7.972656 125.023438 C 7.972656 129.914062 11.949219 133.890625 16.839844 133.890625 L 21.34375 133.890625 L 91.121094 202.816406 L 91.121094 250.65625 C 91.121094 252.597656 92.09375 254.410156 93.710938 255.480469 C 94.675781 256.121094 95.789062 256.449219 96.914062 256.449219 C 97.671875 256.449219 98.4375 256.296875 99.160156 255.992188 L 126.335938 244.539062 L 124.714844 248.191406 C 123.742188 250.378906 124.21875 252.941406 125.914062 254.636719 L 138.21875 266.941406 C 139.910156 268.636719 142.472656 269.109375 144.664062 268.136719 L 152.402344 264.699219 C 156.242188 266.800781 160.285156 268.480469 164.476562 269.707031 L 167.515625 277.605469 C 168.378906 279.839844 170.523438 281.3125 172.921875 281.3125 L 190.320312 281.3125 C 190.339844 281.3125 190.355469 281.308594 190.375 281.308594 L 190.375 360.746094 C 190.375 363.945312 192.96875 366.535156 196.164062 366.535156 L 231.167969 366.535156 C 234.363281 366.535156 236.957031 363.945312 236.957031 360.746094 L 236.957031 255.007812 L 237.328125 254.636719 C 239.023438 252.941406 239.496094 250.382812 238.527344 248.191406 L 235.089844 240.453125 C 237.191406 236.613281 238.867188 232.570312 240.09375 228.378906 L 247.992188 225.335938 C 250.226562 224.476562 251.703125 222.328125 251.703125 219.933594 L 251.703125 210.148438 C 288.066406 189.058594 322.105469 164.574219 353.105469 137.230469 Z M 19.554688 111.375 L 215.109375 111.375 L 215.109375 122.3125 L 19.554688 122.3125 Z M 37.820312 133.890625 L 196.839844 133.890625 L 189.488281 141.152344 L 172.921875 141.152344 C 170.527344 141.152344 168.378906 142.625 167.519531 144.863281 L 164.476562 152.757812 C 160.285156 153.988281 156.242188 155.664062 152.402344 157.765625 L 144.664062 154.328125 C 142.476562 153.359375 139.914062 153.832031 138.21875 155.523438 L 125.914062 167.832031 C 124.222656 169.523438 123.746094 172.085938 124.714844 174.273438 L 128.152344 182.011719 C 126.050781 185.851562 124.375 189.894531 123.148438 194.089844 L 121.804688 194.605469 L 99.289062 194.605469 Z M 102.703125 206.1875 L 111.539062 206.1875 L 111.539062 219.933594 C 111.539062 222.328125 113.015625 224.476562 115.25 225.335938 L 123.144531 228.375 C 123.574219 229.839844 124.058594 231.285156 124.597656 232.707031 L 102.703125 241.9375 Z M 225.378906 354.960938 L 201.957031 354.960938 L 201.957031 268.679688 C 205.015625 267.59375 207.988281 266.265625 210.84375 264.703125 L 218.582031 268.140625 C 220.769531 269.113281 223.332031 268.636719 225.023438 266.941406 L 225.378906 266.589844 Z M 240.125 215.957031 L 233.179688 218.632812 C 231.398438 219.316406 230.070312 220.835938 229.628906 222.695312 C 228.417969 227.773438 226.414062 232.605469 223.667969 237.066406 C 222.667969 238.691406 222.53125 240.707031 223.308594 242.449219 L 226.332031 249.257812 L 219.648438 255.941406 L 212.84375 252.917969 C 211.097656 252.144531 209.085938 252.277344 207.457031 253.28125 C 203 256.027344 198.164062 258.03125 193.082031 259.238281 C 191.226562 259.679688 189.707031 261.007812 189.019531 262.792969 L 186.347656 269.734375 L 176.898438 269.734375 L 174.226562 262.789062 C 173.539062 261.007812 172.019531 259.679688 170.160156 259.238281 C 165.085938 258.027344 160.25 256.023438 155.789062 253.277344 C 154.164062 252.277344 152.148438 252.140625 150.40625 252.917969 L 143.597656 255.941406 L 136.914062 249.257812 L 139.9375 242.453125 C 140.710938 240.710938 140.578125 238.695312 139.574219 237.066406 C 136.828125 232.609375 134.824219 227.773438 133.617188 222.695312 C 133.171875 220.835938 131.84375 219.316406 130.0625 218.632812 L 123.121094 215.957031 L 123.121094 206.507812 L 130.0625 203.835938 C 131.847656 203.148438 133.175781 201.628906 133.617188 199.773438 C 134.824219 194.695312 136.832031 189.859375 139.574219 185.402344 C 140.578125 183.773438 140.710938 181.761719 139.9375 180.015625 L 136.914062 173.207031 L 143.597656 166.527344 L 150.40625 169.550781 C 152.148438 170.324219 154.164062 170.191406 155.789062 169.1875 C 160.25 166.441406 165.085938 164.4375 170.160156 163.230469 C 172.019531 162.789062 173.539062 161.460938 174.222656 159.675781 L 176.898438 152.734375 L 186.347656 152.734375 L 189.023438 159.675781 C 189.707031 161.457031 191.226562 162.789062 193.082031 163.230469 C 198.164062 164.4375 202.996094 166.445312 207.453125 169.1875 C 209.082031 170.191406 211.097656 170.324219 212.839844 169.550781 L 219.648438 166.527344 L 226.332031 173.207031 L 223.308594 180.011719 C 222.535156 181.757812 222.667969 183.773438 223.671875 185.398438 C 226.417969 189.855469 228.421875 194.691406 229.628906 199.773438 C 230.070312 201.628906 231.402344 203.148438 233.183594 203.835938 L 240.125 206.507812 Z M 13.761719 86.128906 L 220.898438 86.128906 C 222.542969 86.128906 224.105469 85.429688 225.207031 84.210938 C 226.304688 82.988281 226.832031 81.355469 226.65625 79.722656 C 225.105469 65.25 216.101562 53.285156 203.695312 47.433594 C 207.4375 43.292969 209.722656 37.804688 209.722656 31.796875 C 209.722656 18.925781 199.25 8.449219 186.375 8.449219 C 173.503906 8.449219 163.03125 18.925781 163.03125 31.796875 C 163.03125 37.804688 165.3125 43.292969 169.058594 47.433594 C 161.949219 50.785156 155.964844 56.140625 151.855469 62.828125 C 147.742188 56.140625 141.757812 50.785156 134.652344 47.433594 C 138.394531 43.292969 140.675781 37.804688 140.675781 31.796875 C 140.675781 18.925781 130.203125 8.449219 117.332031 8.449219 C 104.457031 8.449219 93.984375 18.925781 93.984375 31.796875 C 93.984375 37.804688 96.269531 43.292969 100.011719 47.433594 C 92.90625 50.785156 86.917969 56.140625 82.808594 62.828125 C 78.699219 56.140625 72.710938 50.785156 65.605469 47.433594 C 69.347656 43.292969 71.632812 37.804688 71.632812 31.796875 C 71.632812 18.925781 61.160156 8.449219 48.285156 8.449219 C 35.414062 8.449219 24.941406 18.921875 24.941406 31.796875 C 24.941406 37.804688 27.222656 43.289062 30.964844 47.433594 C 18.558594 53.28125 9.554688 65.25 8.003906 79.722656 C 7.832031 81.355469 8.359375 82.988281 9.457031 84.207031 C 10.554688 85.429688 12.121094 86.128906 13.761719 86.128906 Z M 186.375 20.03125 C 192.863281 20.03125 198.144531 25.308594 198.144531 31.796875 C 198.144531 38.285156 192.863281 43.5625 186.375 43.5625 C 179.886719 43.5625 174.609375 38.285156 174.609375 31.796875 C 174.609375 25.308594 179.886719 20.03125 186.375 20.03125 Z M 186.375 55.140625 C 198.957031 55.140625 209.765625 63.136719 213.714844 74.550781 L 159.039062 74.550781 C 162.984375 63.136719 173.796875 55.140625 186.375 55.140625 Z M 117.332031 20.03125 C 123.820312 20.03125 129.097656 25.308594 129.097656 31.796875 C 129.097656 38.285156 123.820312 43.5625 117.332031 43.5625 C 110.84375 43.5625 105.5625 38.285156 105.5625 31.796875 C 105.5625 25.308594 110.84375 20.03125 117.332031 20.03125 Z M 117.332031 55.140625 C 129.914062 55.140625 140.722656 63.136719 144.667969 74.550781 L 89.992188 74.550781 C 93.9375 63.136719 104.75 55.140625 117.332031 55.140625 Z M 48.285156 20.03125 C 54.773438 20.03125 60.050781 25.308594 60.050781 31.796875 C 60.050781 38.285156 54.773438 43.5625 48.285156 43.5625 C 41.796875 43.5625 36.519531 38.285156 36.519531 31.796875 C 36.519531 25.308594 41.796875 20.03125 48.285156 20.03125 Z M 48.285156 55.140625 C 60.867188 55.140625 71.675781 63.136719 75.625 74.550781 L 20.945312 74.550781 C 24.894531 63.136719 35.703125 55.140625 48.285156 55.140625 Z M 181.621094 175.09375 C 161.695312 175.09375 145.484375 191.304688 145.484375 211.234375 C 145.484375 231.160156 161.695312 247.371094 181.621094 247.371094 C 201.550781 247.371094 217.761719 231.160156 217.761719 211.234375 C 217.761719 191.304688 201.546875 175.09375 181.621094 175.09375 Z M 181.621094 235.792969 C 168.082031 235.792969 157.0625 224.773438 157.0625 211.234375 C 157.0625 197.691406 168.082031 186.675781 181.621094 186.675781 C 195.164062 186.675781 206.179688 197.691406 206.179688 211.234375 C 206.179688 224.773438 195.164062 235.792969 181.621094 235.792969 Z M 326.695312 74.347656 C 327.070312 73.917969 327.292969 73.429688 327.175781 72.460938 C 327.046875 71.402344 326.746094 68.925781 318.796875 67.621094 C 304.699219 65.304688 302.21875 57.207031 301.996094 52.585938 C 301.636719 45.226562 306.375 39.019531 313.90625 36.761719 L 313.90625 35.824219 C 313.90625 32.625 316.5 30.035156 319.695312 30.035156 C 322.894531 30.035156 325.484375 32.625 325.484375 35.824219 L 325.484375 36.707031 C 330.320312 38.109375 334.804688 41.421875 337.238281 47.222656 C 338.476562 50.171875 337.089844 53.5625 334.144531 54.800781 C 331.195312 56.039062 327.800781 54.652344 326.5625 51.707031 C 324.75 47.386719 320.222656 47.152344 317.832031 47.695312 C 316.792969 47.929688 313.410156 48.941406 313.5625 52.027344 C 313.597656 52.773438 313.710938 55.050781 320.671875 56.195312 C 331.636719 57.996094 337.691406 63 338.671875 71.066406 C 339.167969 75.160156 338.054688 78.914062 335.453125 81.921875 C 333.109375 84.632812 329.566406 86.609375 325.484375 87.570312 L 325.484375 88.292969 C 325.484375 91.492188 322.894531 94.082031 319.695312 94.082031 C 316.5 94.082031 313.90625 91.492188 313.90625 88.292969 L 313.90625 87.464844 C 307.347656 85.707031 302.371094 81.007812 300.777344 74.609375 C 300.003906 71.507812 301.894531 68.367188 304.996094 67.59375 C 308.101562 66.820312 311.238281 68.707031 312.011719 71.808594 C 312.933594 75.496094 316.925781 76.699219 320.097656 76.640625 C 322.871094 76.574219 325.585938 75.632812 326.695312 74.347656 Z M 319.695312 109.304688 C 345.75 109.304688 366.941406 88.109375 366.941406 62.058594 C 366.941406 36.003906 345.746094 14.808594 319.695312 14.808594 C 293.644531 14.808594 272.449219 36.003906 272.449219 62.058594 C 272.449219 88.109375 293.644531 109.304688 319.695312 109.304688 Z M 319.695312 26.390625 C 339.363281 26.390625 355.363281 42.390625 355.363281 62.058594 C 355.363281 81.726562 339.363281 97.726562 319.695312 97.726562 C 300.027344 97.726562 284.027344 81.726562 284.027344 62.058594 C 284.027344 42.390625 300.027344 26.390625 319.695312 26.390625 Z M 319.695312 26.390625 " fill-opacity="1" fill-rule="nonzero"/></g></svg>