<svg xmlns="http://www.w3.org/2000/svg" xmlns:xlink="http://www.w3.org/1999/xlink" width="500" zoomAndPan="magnify" viewBox="0 0 375 374.999991" height="500" preserveAspectRatio="xMidYMid meet" version="1.0"><defs><clipPath id="30a296700f"><path d="M 8.632812 250 L 130 250 L 130 371.074219 L 8.632812 371.074219 Z M 8.632812 250 " clip-rule="nonzero"/></clipPath><clipPath id="c55bfa7bef"><path d="M 121 3.574219 L 366 3.574219 L 366 271 L 121 271 Z M 121 3.574219 " clip-rule="nonzero"/></clipPath></defs><path fill="#00f3f7" d="M 257.121094 101.054688 C 254.824219 101.054688 252.957031 99.1875 252.957031 96.890625 C 252.957031 94.59375 254.824219 92.730469 257.121094 92.730469 C 258.351562 92.730469 259.390625 91.691406 259.390625 90.457031 L 259.390625 74.628906 C 259.390625 73.398438 258.351562 72.359375 257.121094 72.359375 L 203.699219 72.359375 C 202.46875 72.359375 201.429688 73.398438 201.429688 74.628906 L 201.429688 90.457031 C 201.429688 91.691406 202.46875 92.730469 203.699219 92.730469 C 205.996094 92.730469 207.859375 94.59375 207.859375 96.890625 C 207.859375 99.1875 205.996094 101.054688 203.699219 101.054688 C 197.859375 101.054688 193.105469 96.300781 193.105469 90.457031 L 193.105469 74.628906 C 193.105469 68.789062 197.859375 64.035156 203.699219 64.035156 L 257.121094 64.035156 C 262.960938 64.035156 267.714844 68.789062 267.714844 74.628906 L 267.714844 90.457031 C 267.714844 96.300781 262.960938 101.054688 257.121094 101.054688 Z M 257.121094 101.054688 " fill-opacity="1" fill-rule="nonzero"/><path fill="#00f3f7" d="M 257.121094 129.738281 C 254.824219 129.738281 252.957031 127.875 252.957031 125.578125 C 252.957031 123.28125 254.824219 121.417969 257.121094 121.417969 C 258.351562 121.417969 259.390625 120.375 259.390625 119.144531 L 259.390625 103.316406 C 259.390625 102.085938 258.351562 101.042969 257.121094 101.042969 L 203.699219 101.042969 C 202.46875 101.042969 201.429688 102.085938 201.429688 103.316406 L 201.429688 119.144531 C 201.429688 120.375 202.46875 121.417969 203.699219 121.417969 C 205.996094 121.417969 207.859375 123.28125 207.859375 125.578125 C 207.859375 127.875 205.996094 129.738281 203.699219 129.738281 C 197.859375 129.738281 193.105469 124.988281 193.105469 119.144531 L 193.105469 103.316406 C 193.105469 97.472656 197.859375 92.722656 203.699219 92.722656 L 257.121094 92.722656 C 262.960938 92.722656 267.714844 97.472656 267.714844 103.316406 L 267.714844 119.144531 C 267.714844 124.988281 262.960938 129.738281 257.121094 129.738281 Z M 257.121094 129.738281 " fill-opacity="1" fill-rule="nonzero"/><path fill="#00f3f7" d="M 257.121094 158.425781 L 203.699219 158.425781 C 197.859375 158.425781 193.105469 153.675781 193.105469 147.832031 L 193.105469 132.003906 C 193.105469 126.160156 197.859375 121.410156 203.699219 121.410156 L 257.121094 121.410156 C 262.960938 121.410156 267.714844 126.160156 267.714844 132.003906 L 267.714844 147.832031 C 267.714844 153.675781 262.960938 158.425781 257.121094 158.425781 Z M 203.699219 129.738281 C 202.46875 129.738281 201.429688 130.78125 201.429688 132.011719 L 201.429688 147.839844 C 201.429688 149.070312 202.46875 150.113281 203.699219 150.113281 L 257.121094 150.113281 C 258.351562 150.113281 259.390625 149.070312 259.390625 147.839844 L 259.390625 132.011719 C 259.390625 130.78125 258.351562 129.738281 257.121094 129.738281 Z M 203.699219 129.738281 " fill-opacity="1" fill-rule="nonzero"/><path fill="#00f3f7" d="M 214.816406 86.707031 L 208.894531 86.707031 C 206.597656 86.707031 204.730469 84.839844 204.730469 82.542969 C 204.730469 80.246094 206.597656 78.382812 208.894531 78.382812 L 214.816406 78.382812 C 217.113281 78.382812 218.980469 80.246094 218.980469 82.542969 C 218.980469 84.839844 217.113281 86.707031 214.816406 86.707031 Z M 214.816406 86.707031 " fill-opacity="1" fill-rule="nonzero"/><path fill="#00f3f7" d="M 251.925781 86.707031 L 226.203125 86.707031 C 223.90625 86.707031 222.042969 84.839844 222.042969 82.542969 C 222.042969 80.246094 223.90625 78.382812 226.203125 78.382812 L 251.925781 78.382812 C 254.222656 78.382812 256.085938 80.246094 256.085938 82.542969 C 256.085938 84.839844 254.222656 86.707031 251.925781 86.707031 Z M 251.925781 86.707031 " fill-opacity="1" fill-rule="nonzero"/><path fill="#00f3f7" d="M 214.816406 115.390625 L 208.894531 115.390625 C 206.597656 115.390625 204.730469 113.527344 204.730469 111.230469 C 204.730469 108.933594 206.597656 107.070312 208.894531 107.070312 L 214.816406 107.070312 C 217.113281 107.070312 218.980469 108.933594 218.980469 111.230469 C 218.980469 113.527344 217.113281 115.390625 214.816406 115.390625 Z M 214.816406 115.390625 " fill-opacity="1" fill-rule="nonzero"/><path fill="#00f3f7" d="M 251.925781 115.390625 L 226.203125 115.390625 C 223.90625 115.390625 222.042969 113.527344 222.042969 111.230469 C 222.042969 108.933594 223.90625 107.070312 226.203125 107.070312 L 251.925781 107.070312 C 254.222656 107.070312 256.085938 108.933594 256.085938 111.230469 C 256.085938 113.527344 254.222656 115.390625 251.925781 115.390625 Z M 251.925781 115.390625 " fill-opacity="1" fill-rule="nonzero"/><path fill="#00f3f7" d="M 214.816406 144.085938 L 208.894531 144.085938 C 206.597656 144.085938 204.730469 142.222656 204.730469 139.925781 C 204.730469 137.628906 206.597656 135.765625 208.894531 135.765625 L 214.816406 135.765625 C 217.113281 135.765625 218.980469 137.628906 218.980469 139.925781 C 218.980469 142.222656 217.113281 144.085938 214.816406 144.085938 Z M 214.816406 144.085938 " fill-opacity="1" fill-rule="nonzero"/><path fill="#00f3f7" d="M 251.925781 144.085938 L 226.203125 144.085938 C 223.90625 144.085938 222.042969 142.222656 222.042969 139.925781 C 222.042969 137.628906 223.90625 135.765625 226.203125 135.765625 L 251.925781 135.765625 C 254.222656 135.765625 256.085938 137.628906 256.085938 139.925781 C 256.085938 142.222656 254.222656 144.085938 251.925781 144.085938 Z M 251.925781 144.085938 " fill-opacity="1" fill-rule="nonzero"/><path fill="#00f3f7" d="M 110.75 352.699219 C 109.742188 352.699219 108.734375 352.339844 107.9375 351.609375 C 106.238281 350.050781 106.121094 347.421875 107.679688 345.734375 L 277.949219 159.832031 C 279.507812 158.132812 282.136719 158.027344 283.824219 159.574219 C 285.523438 161.128906 285.640625 163.761719 284.082031 165.449219 L 113.8125 351.351562 C 112.996094 352.25 111.871094 352.699219 110.75 352.699219 Z M 55.839844 260.648438 C 55.074219 260.648438 54.300781 260.4375 53.609375 259.996094 C 51.671875 258.765625 51.105469 256.1875 52.335938 254.253906 L 157.503906 89.242188 C 158.734375 87.304688 161.304688 86.738281 163.246094 87.96875 C 165.183594 89.203125 165.75 91.773438 164.519531 93.710938 L 59.359375 258.714844 C 58.5625 259.964844 57.222656 260.648438 55.839844 260.648438 Z M 55.839844 260.648438 " fill-opacity="1" fill-rule="nonzero"/><g clip-path="url(#30a296700f)"><path fill="#00f3f7" d="M 68.957031 371.363281 C 35.707031 371.363281 8.660156 344.316406 8.660156 311.070312 C 8.660156 277.824219 35.707031 250.777344 68.957031 250.777344 C 102.203125 250.777344 129.25 277.824219 129.25 311.070312 C 129.25 344.316406 102.195312 371.363281 68.957031 371.363281 Z M 68.957031 259.105469 C 40.300781 259.105469 16.984375 282.417969 16.984375 311.078125 C 16.984375 339.742188 40.292969 363.050781 68.957031 363.050781 C 97.617188 363.050781 120.925781 339.742188 120.925781 311.078125 C 120.925781 282.417969 97.609375 259.105469 68.957031 259.105469 Z M 68.957031 259.105469 " fill-opacity="1" fill-rule="nonzero"/></g><g clip-path="url(#c55bfa7bef)"><path fill="#00f3f7" d="M 293.023438 270.757812 L 187.636719 270.757812 C 185.339844 270.757812 183.476562 268.894531 183.476562 266.597656 C 183.476562 264.300781 185.339844 262.4375 187.636719 262.4375 L 288.859375 262.4375 L 288.859375 216.230469 C 288.859375 213.933594 290.726562 212.070312 293.023438 212.070312 L 336.148438 212.070312 C 337.785156 212.070312 339.625 211.203125 340.617188 209.972656 C 341.429688 208.957031 341.265625 208.226562 341.214844 207.992188 L 328.289062 149.445312 C 328.015625 148.214844 328.324219 146.925781 329.113281 145.941406 C 329.90625 144.960938 331.09375 144.386719 332.359375 144.386719 L 350.1875 144.386719 C 352.757812 144.386719 356.21875 142.582031 357.308594 140.667969 C 357.609375 140.132812 357.527344 140 357.433594 139.835938 L 330.222656 93.769531 C 329.988281 93.371094 329.820312 92.9375 329.722656 92.480469 C 320.234375 45.761719 278.691406 11.855469 230.945312 11.855469 C 175.371094 11.855469 130.148438 57.070312 130.148438 112.652344 C 130.148438 121.742188 131.363281 130.753906 133.75 139.441406 C 134.359375 141.65625 133.0625 143.945312 130.847656 144.5625 C 128.632812 145.167969 126.34375 143.871094 125.730469 141.65625 C 123.140625 132.253906 121.835938 122.5 121.835938 112.664062 C 121.835938 52.492188 170.785156 3.542969 230.953125 3.542969 C 282.410156 3.542969 327.199219 39.917969 337.746094 90.140625 L 364.609375 135.613281 C 366.28125 138.453125 366.265625 141.796875 364.550781 144.800781 C 361.96875 149.320312 355.804688 152.726562 350.195312 152.726562 L 337.546875 152.726562 L 349.347656 206.210938 C 350.035156 209.347656 349.246094 212.542969 347.105469 215.199219 C 344.527344 218.410156 340.324219 220.402344 336.148438 220.402344 L 297.183594 220.402344 L 297.183594 266.605469 C 297.183594 268.894531 295.320312 270.757812 293.023438 270.757812 Z M 293.023438 270.757812 " fill-opacity="1" fill-rule="nonzero"/></g><path fill="#00f3f7" d="M 230.414062 187.527344 C 188.34375 187.527344 154.117188 153.300781 154.117188 111.230469 C 154.117188 69.164062 188.34375 34.933594 230.414062 34.933594 C 272.484375 34.933594 306.710938 69.164062 306.710938 111.230469 C 306.710938 153.300781 272.484375 187.527344 230.414062 187.527344 Z M 230.414062 43.253906 C 192.929688 43.253906 162.4375 73.746094 162.4375 111.230469 C 162.4375 148.714844 192.929688 179.207031 230.414062 179.207031 C 267.898438 179.207031 298.390625 148.714844 298.390625 111.230469 C 298.390625 73.746094 267.898438 43.253906 230.414062 43.253906 Z M 230.414062 43.253906 " fill-opacity="1" fill-rule="nonzero"/><path fill="#00f3f7" d="M 293.023438 235.148438 L 219.628906 235.148438 C 217.332031 235.148438 215.46875 233.285156 215.46875 230.988281 C 215.46875 228.691406 217.332031 226.824219 219.628906 226.824219 L 293.023438 226.824219 C 295.320312 226.824219 297.183594 228.691406 297.183594 230.988281 C 297.183594 233.285156 295.320312 235.148438 293.023438 235.148438 Z M 293.023438 235.148438 " fill-opacity="1" fill-rule="nonzero"/><path fill="#00f3f7" d="M 68.957031 337.734375 C 54.25 337.734375 42.292969 325.777344 42.292969 311.070312 C 42.292969 296.367188 54.25 284.40625 68.957031 284.40625 C 83.660156 284.40625 95.621094 296.367188 95.621094 311.070312 C 95.621094 325.777344 83.652344 337.734375 68.957031 337.734375 Z M 68.957031 292.738281 C 58.84375 292.738281 50.613281 300.96875 50.613281 311.078125 C 50.613281 321.191406 58.84375 329.421875 68.957031 329.421875 C 79.066406 329.421875 87.296875 321.191406 87.296875 311.078125 C 87.296875 300.96875 79.066406 292.738281 68.957031 292.738281 Z M 68.957031 292.738281 " fill-opacity="1" fill-rule="nonzero"/></svg>