<svg xmlns="http://www.w3.org/2000/svg" xmlns:xlink="http://www.w3.org/1999/xlink" width="500" zoomAndPan="magnify" viewBox="0 0 375 374.999991" height="500" preserveAspectRatio="xMidYMid meet" version="1.0"><defs><clipPath id="f0601a4e10"><path d="M 1 103 L 374 103 L 374 315.515625 L 1 315.515625 Z M 1 103 " clip-rule="nonzero"/></clipPath><clipPath id="566807f028"><path d="M 71 59.765625 L 342 59.765625 L 342 252 L 71 252 Z M 71 59.765625 " clip-rule="nonzero"/></clipPath></defs><g clip-path="url(#f0601a4e10)"><path fill="#00f3f7" d="M 369.148438 294.890625 L 333.980469 265.828125 C 333.398438 265.535156 333.109375 265.246094 332.527344 264.953125 C 332.527344 264.375 332.816406 263.792969 332.816406 263.210938 L 332.816406 114.988281 C 332.816406 108.882812 328.167969 104.234375 322.355469 103.359375 L 310.730469 114.988281 L 320.902344 114.988281 L 320.902344 263.210938 L 53.808594 263.210938 L 53.808594 194.621094 C 51.484375 193.75 49.449219 192.585938 47.121094 191.421875 L 42.183594 196.363281 L 42.183594 263.210938 C 42.183594 263.792969 42.183594 264.375 42.472656 264.953125 C 41.890625 265.246094 41.601562 265.535156 41.019531 265.828125 L 5.851562 294.890625 C 2.074219 298.085938 0.621094 303.027344 2.363281 307.679688 C 4.109375 312.328125 8.46875 315.234375 13.410156 315.234375 L 362.171875 315.234375 C 367.113281 315.234375 371.472656 312.039062 373.214844 307.679688 C 374.378906 303.316406 372.925781 298.085938 369.148438 294.890625 Z M 13.117188 303.898438 L 48.285156 274.835938 L 326.714844 274.835938 L 361.882812 303.898438 Z M 13.117188 303.898438 " fill-opacity="1" fill-rule="nonzero"/></g><path fill="#00f3f7" d="M 7.304688 212.347656 C 8.757812 212.347656 10.210938 211.769531 11.375 210.605469 L 45.667969 176.308594 C 56.421875 184.449219 69.210938 189.097656 82.871094 189.097656 C 99.148438 189.097656 114.550781 182.703125 125.886719 171.078125 C 149.71875 147.246094 149.71875 108.59375 125.886719 84.761719 C 114.261719 73.136719 99.148438 66.742188 82.871094 66.742188 C 66.59375 66.742188 51.191406 73.136719 39.855469 84.761719 C 16.898438 107.71875 16.023438 144.632812 37.242188 168.464844 L 3.238281 202.46875 C 0.910156 204.792969 0.910156 208.28125 3.238281 210.605469 C 4.398438 211.769531 5.851562 212.347656 7.304688 212.347656 Z M 47.996094 93.1875 C 57.585938 83.597656 70.375 78.65625 82.871094 78.65625 C 95.660156 78.65625 108.15625 83.597656 117.746094 93.1875 C 136.929688 112.371094 136.929688 143.757812 117.746094 162.941406 C 108.15625 172.53125 95.367188 177.472656 82.871094 177.472656 C 70.082031 177.472656 57.585938 172.53125 47.996094 162.941406 C 28.523438 143.757812 28.523438 112.371094 47.996094 93.1875 Z M 47.996094 93.1875 " fill-opacity="1" fill-rule="nonzero"/><g clip-path="url(#566807f028)"><path fill="#00f3f7" d="M 111.933594 202.175781 C 110.480469 202.175781 109.027344 202.757812 107.867188 203.921875 L 82.871094 231.820312 L 82.871094 200.722656 C 78.800781 200.722656 75.023438 200.433594 71.246094 199.851562 L 71.246094 245.773438 C 71.246094 248.96875 73.863281 251.585938 77.058594 251.585938 L 303.753906 251.585938 C 306.953125 251.585938 309.566406 248.96875 309.566406 245.773438 C 309.566406 242.574219 306.953125 239.960938 303.753906 239.960938 L 300.847656 239.960938 L 300.847656 167.300781 C 300.847656 160.90625 295.617188 155.675781 289.222656 155.675781 L 277.597656 155.675781 C 271.203125 155.675781 265.972656 160.90625 265.972656 167.300781 L 265.972656 239.960938 L 254.347656 239.960938 L 254.347656 190.550781 C 254.347656 184.15625 249.113281 178.925781 242.722656 178.925781 L 231.09375 178.925781 C 224.703125 178.925781 219.46875 184.15625 219.46875 190.550781 L 219.46875 239.960938 L 207.84375 239.960938 L 207.84375 213.800781 C 207.84375 207.410156 202.613281 202.175781 196.21875 202.175781 L 184.59375 202.175781 C 178.199219 202.175781 172.96875 207.410156 172.96875 213.800781 L 172.96875 239.960938 L 91.007812 239.960938 L 114.261719 213.800781 L 152.625 213.800781 C 154.078125 213.800781 155.53125 213.222656 156.691406 212.058594 L 215.980469 152.769531 L 254.347656 152.769531 C 255.800781 152.769531 257.253906 152.1875 258.414062 151.023438 L 329.910156 79.527344 L 329.910156 85.921875 C 329.910156 89.121094 332.527344 91.734375 335.722656 91.734375 C 338.921875 91.734375 341.535156 89.121094 341.535156 85.921875 L 341.535156 65.578125 C 341.535156 65.578125 341.535156 65.289062 341.535156 65.289062 C 341.535156 65.289062 341.535156 64.996094 341.535156 64.996094 C 341.535156 64.414062 341.246094 64.125 341.246094 63.542969 C 340.957031 62.960938 340.664062 62.671875 340.375 62.089844 C 340.375 62.089844 340.082031 61.800781 340.082031 61.800781 C 339.792969 61.507812 339.503906 61.21875 338.921875 60.636719 C 338.628906 60.347656 338.050781 60.054688 337.46875 60.054688 C 337.46875 60.054688 337.175781 60.054688 337.175781 60.054688 C 336.597656 60.054688 336.304688 59.765625 335.722656 59.765625 L 312.472656 59.765625 C 309.277344 59.765625 306.660156 62.382812 306.660156 65.578125 C 306.660156 68.773438 309.277344 71.390625 312.472656 71.390625 L 321.773438 71.390625 L 252.019531 141.144531 L 213.65625 141.144531 C 212.203125 141.144531 210.75 141.726562 209.589844 142.886719 L 150.296875 202.175781 Z M 277.597656 167.300781 L 289.222656 167.300781 L 289.222656 239.960938 L 277.597656 239.960938 Z M 231.09375 190.550781 L 242.722656 190.550781 L 242.722656 239.960938 L 231.09375 239.960938 Z M 184.59375 213.800781 L 196.21875 213.800781 L 196.21875 239.960938 L 184.59375 239.960938 Z M 184.59375 213.800781 " fill-opacity="1" fill-rule="nonzero"/></g><path fill="#00f3f7" d="M 273.238281 103.359375 L 151.171875 103.359375 C 152.625 107.140625 153.496094 110.917969 154.367188 114.988281 L 261.613281 114.988281 Z M 273.238281 103.359375 " fill-opacity="1" fill-rule="nonzero"/></svg>