<svg xmlns="http://www.w3.org/2000/svg" xmlns:xlink="http://www.w3.org/1999/xlink" width="500" zoomAndPan="magnify" viewBox="0 0 375 374.999991" height="500" preserveAspectRatio="xMidYMid meet" version="1.0"><defs><clipPath id="d4312ac81b"><path d="M 36 40.546875 L 375 40.546875 L 375 334.546875 L 36 334.546875 Z M 36 40.546875 " clip-rule="nonzero"/></clipPath></defs><g clip-path="url(#d4312ac81b)"><path fill="#00f3f7" d="M 264.039062 77.800781 C 240.644531 60.632812 212.734375 51.550781 183.703125 51.550781 C 77.15625 51.550781 13.578125 168.160156 67.066406 257.300781 C 68.601562 259.875 67.765625 263.207031 65.191406 264.746094 C 62.621094 266.285156 59.289062 265.445312 57.75 262.875 C -0.0273438 166.578125 68.605469 40.660156 183.703125 40.660156 C 214.226562 40.660156 243.84375 50.097656 268.699219 67.78125 L 266.230469 59.117188 C 265.40625 56.230469 267.082031 53.21875 269.972656 52.398438 C 272.859375 51.574219 275.867188 53.25 276.691406 56.140625 L 283.847656 81.21875 C 284.863281 84.792969 282.074219 88.273438 278.421875 88.144531 L 252.746094 89.066406 C 249.75 89.171875 247.234375 86.828125 247.128906 83.835938 C 247.023438 80.839844 249.367188 78.328125 252.363281 78.222656 Z M 346.996094 72.679688 C 346.21875 75.578125 343.238281 77.300781 340.339844 76.527344 C 337.4375 75.75 335.714844 72.773438 336.488281 69.871094 L 338.648438 61.820312 C 339.421875 58.917969 342.402344 57.195312 345.304688 57.972656 C 348.203125 58.746094 349.925781 61.726562 349.152344 64.625 Z M 361.5 89.417969 C 358.90625 90.921875 355.582031 90.035156 354.078125 87.441406 C 352.574219 84.84375 353.460938 81.523438 356.054688 80.019531 L 363.273438 75.851562 C 365.871094 74.347656 369.191406 75.234375 370.695312 77.828125 C 372.199219 80.425781 371.3125 83.746094 368.71875 85.25 Z M 370.367188 103.230469 C 373.265625 104.003906 374.988281 106.984375 374.214844 109.886719 C 373.441406 112.785156 370.460938 114.507812 367.558594 113.734375 L 359.507812 111.578125 C 356.605469 110.800781 354.882812 107.820312 355.660156 104.921875 C 356.433594 102.019531 359.414062 100.296875 362.3125 101.074219 Z M 273.609375 110.507812 L 255.417969 121.007812 C 245.894531 126.507812 242.601562 138.792969 248.097656 148.316406 C 253.597656 157.839844 265.886719 161.132812 275.40625 155.636719 L 293.597656 145.132812 Z M 281.484375 102.371094 L 304.332031 141.941406 C 313.59375 139.832031 322.976562 139.21875 332.25 139.207031 L 297.441406 78.917969 C 292.761719 86.886719 287.609375 95.140625 281.484375 102.371094 Z M 303.726562 68.082031 L 344.949219 139.484375 C 345.570312 139.507812 346.191406 139.53125 346.808594 139.558594 C 351.605469 139.753906 354.714844 134.613281 352.316406 130.457031 L 340.03125 109.179688 L 340.53125 108.894531 C 346.183594 105.632812 348.117188 98.40625 344.855469 92.757812 C 341.59375 87.109375 334.371094 85.171875 328.71875 88.433594 L 328.222656 88.722656 L 315.28125 66.3125 C 312.96875 62.300781 307.164062 62.269531 304.804688 66.253906 C 304.445312 66.855469 304.089844 67.464844 303.726562 68.082031 Z M 311.839844 176.726562 L 308.511719 178.648438 C 303.269531 181.671875 296.527344 179.867188 293.503906 174.628906 L 286.199219 161.976562 L 298.226562 155.03125 C 298.527344 154.921875 298.828125 154.820312 299.132812 154.714844 Z M 139.945312 183.777344 L 168.046875 161.898438 L 195.703125 170.863281 C 197.710938 171.507812 199.820312 170.921875 201.210938 169.523438 L 222.324219 148.230469 C 223.195312 149.363281 224.507812 150.15625 226.042969 150.324219 C 229.027344 150.65625 231.710938 148.503906 232.039062 145.519531 L 233.105469 135.984375 C 233.703125 132.515625 230.824219 129.332031 227.273438 129.636719 L 217.382812 130.503906 C 214.390625 130.761719 212.171875 133.398438 212.429688 136.394531 C 212.578125 138.085938 213.480469 139.53125 214.78125 140.421875 L 195.859375 159.503906 L 168.644531 150.6875 C 166.992188 150.160156 165.117188 150.429688 163.648438 151.578125 L 133.269531 175.230469 C 130.910156 177.074219 130.492188 180.484375 132.335938 182.84375 C 134.175781 185.203125 137.585938 185.621094 139.945312 183.777344 Z M 131.832031 199.039062 C 129.957031 199.039062 128.429688 200.566406 128.429688 202.441406 L 128.429688 227.601562 C 128.429688 229.472656 129.957031 231.003906 131.832031 231.003906 L 141.386719 231.003906 C 143.261719 231.003906 144.789062 229.472656 144.789062 227.601562 L 144.789062 202.441406 C 144.789062 200.566406 143.261719 199.039062 141.386719 199.039062 Z M 222.960938 164.128906 C 221.089844 164.128906 219.558594 165.65625 219.558594 167.53125 L 219.558594 227.601562 C 219.558594 229.472656 221.089844 231.003906 222.960938 231.003906 L 232.519531 231.003906 C 234.390625 231.003906 235.921875 229.472656 235.921875 227.601562 L 235.921875 167.53125 C 235.921875 165.65625 234.390625 164.128906 232.519531 164.128906 Z M 192.585938 185.601562 C 190.710938 185.601562 189.183594 187.132812 189.183594 189.003906 C 189.183594 204.441406 189.183594 212.164062 189.183594 227.597656 C 189.183594 229.472656 190.710938 231 192.585938 231 C 195.769531 231 198.957031 231 202.140625 231 C 204.015625 231 205.542969 229.472656 205.542969 227.597656 C 205.542969 212.164062 205.542969 204.441406 205.542969 189.003906 C 205.542969 187.132812 204.015625 185.601562 202.140625 185.601562 C 198.957031 185.601562 195.769531 185.601562 192.585938 185.601562 Z M 162.207031 178.785156 C 160.335938 178.785156 158.804688 180.3125 158.804688 182.1875 L 158.804688 227.601562 C 158.804688 229.476562 160.335938 231.003906 162.207031 231.003906 L 171.765625 231.003906 C 173.636719 231.003906 175.167969 229.476562 175.167969 227.601562 L 175.167969 182.1875 C 175.167969 180.3125 173.636719 178.785156 171.765625 178.785156 Z M 206.574219 91.644531 L 199.246094 72.613281 L 168.160156 72.613281 L 160.832031 91.644531 C 150.691406 94.058594 141.007812 98.078125 132.128906 103.542969 L 113.480469 95.261719 L 91.496094 117.242188 L 99.78125 135.890625 C 94.316406 144.769531 90.292969 154.453125 87.878906 164.597656 L 68.847656 171.921875 L 68.847656 203.007812 L 87.878906 210.332031 C 90.292969 220.476562 94.3125 230.164062 99.777344 239.042969 L 91.496094 257.6875 L 113.480469 279.671875 L 132.132812 271.386719 C 141.007812 276.851562 150.695312 280.871094 160.835938 283.285156 L 168.160156 302.320312 L 199.246094 302.320312 L 206.570312 283.289062 C 216.714844 280.878906 226.40625 276.855469 235.28125 271.390625 L 253.925781 279.671875 L 275.910156 257.6875 L 267.625 239.035156 C 273.089844 230.160156 277.113281 220.472656 279.523438 210.332031 L 298.558594 203.007812 L 298.558594 190.523438 C 292.667969 189.292969 287.304688 185.664062 284.074219 180.070312 L 276.589844 167.101562 C 272.542969 168.671875 268.292969 169.328125 264.117188 169.140625 C 265.453125 175.035156 266.164062 181.167969 266.164062 187.464844 C 266.164062 233.007812 229.25 269.925781 183.703125 269.925781 C 138.15625 269.925781 101.242188 233.007812 101.242188 187.464844 C 101.242188 141.917969 138.15625 105.003906 183.703125 105.003906 C 204.296875 105.003906 223.128906 112.550781 237.578125 125.035156 C 240.167969 119.570312 244.371094 114.8125 249.972656 111.578125 L 262.828125 104.160156 L 253.925781 95.257812 L 235.273438 103.542969 C 226.398438 98.078125 216.710938 94.058594 206.574219 91.644531 Z M 101.175781 315.8125 L 98.707031 307.152344 C 123.570312 324.839844 153.175781 334.269531 183.703125 334.269531 C 280.464844 334.269531 349.894531 242.578125 325.730469 150.21875 C 322.042969 150.367188 318.363281 150.652344 314.71875 151.140625 C 338.457031 236.980469 274.066406 323.382812 183.703125 323.382812 C 154.6875 323.382812 126.773438 314.292969 103.390625 297.128906 L 115.042969 296.710938 C 118.039062 296.605469 120.382812 294.089844 120.277344 291.097656 C 120.171875 288.101562 117.65625 285.757812 114.664062 285.863281 L 88.984375 286.789062 C 85.332031 286.660156 82.542969 290.136719 83.5625 293.710938 L 90.714844 318.789062 C 91.539062 321.679688 94.546875 323.355469 97.433594 322.535156 C 100.324219 321.710938 102 318.703125 101.175781 315.8125 Z M 101.175781 315.8125 " fill-opacity="1" fill-rule="evenodd"/></g></svg>