<svg xmlns="http://www.w3.org/2000/svg" xmlns:xlink="http://www.w3.org/1999/xlink" width="500" zoomAndPan="magnify" viewBox="0 0 375 374.999991" height="500" preserveAspectRatio="xMidYMid meet" version="1.0"><defs><clipPath id="cae0ae3dcf"><path d="M 8.582031 8.582031 L 294 8.582031 L 294 255 L 8.582031 255 Z M 8.582031 8.582031 " clip-rule="nonzero"/></clipPath><clipPath id="4958c063b2"><path d="M 321 8.582031 L 366.332031 8.582031 L 366.332031 255 L 321 255 Z M 321 8.582031 " clip-rule="nonzero"/></clipPath><clipPath id="cb36a5e9b8"><path d="M 8.582031 254 L 182 254 L 182 366.332031 L 8.582031 366.332031 Z M 8.582031 254 " clip-rule="nonzero"/></clipPath><clipPath id="e29542d4c6"><path d="M 221 276 L 356 276 L 356 366.332031 L 221 366.332031 Z M 221 276 " clip-rule="nonzero"/></clipPath></defs><path fill="#00f3f7" d="M 58.902344 53.308594 L 42.128906 53.308594 L 42.128906 109.222656 L 58.902344 109.222656 C 59.710938 109.230469 60.515625 109.179688 61.316406 109.070312 C 62.117188 108.960938 62.90625 108.792969 63.683594 108.570312 C 64.460938 108.34375 65.214844 108.066406 65.953125 107.730469 C 66.6875 107.398438 67.398438 107.011719 68.078125 106.574219 C 68.757812 106.136719 69.402344 105.652344 70.011719 105.121094 C 70.621094 104.589844 71.1875 104.015625 71.714844 103.402344 C 72.242188 102.789062 72.71875 102.140625 73.152344 101.457031 C 73.585938 100.773438 73.964844 100.058594 74.292969 99.320312 C 74.621094 98.582031 74.894531 97.824219 75.109375 97.042969 C 75.328125 96.265625 75.488281 95.476562 75.589844 94.671875 C 75.695312 93.871094 75.738281 93.066406 75.722656 92.257812 C 75.707031 91.449219 75.636719 90.644531 75.503906 89.847656 C 75.371094 89.050781 75.183594 88.265625 74.9375 87.496094 C 74.691406 86.726562 74.390625 85.976562 74.035156 85.25 C 73.679688 84.523438 73.277344 83.824219 72.820312 83.160156 C 72.363281 82.492188 71.859375 81.859375 71.3125 81.265625 C 71.859375 80.671875 72.363281 80.039062 72.820312 79.371094 C 73.277344 78.703125 73.679688 78.007812 74.035156 77.28125 C 74.390625 76.554688 74.691406 75.804688 74.9375 75.035156 C 75.183594 74.265625 75.371094 73.480469 75.503906 72.683594 C 75.636719 71.886719 75.707031 71.082031 75.722656 70.273438 C 75.738281 69.464844 75.695312 68.660156 75.589844 67.855469 C 75.488281 67.054688 75.328125 66.265625 75.109375 65.484375 C 74.894531 64.707031 74.621094 63.949219 74.292969 63.210938 C 73.964844 62.46875 73.585938 61.757812 73.152344 61.074219 C 72.71875 60.390625 72.242188 59.742188 71.714844 59.128906 C 71.1875 58.515625 70.621094 57.941406 70.011719 57.410156 C 69.402344 56.878906 68.757812 56.394531 68.078125 55.957031 C 67.398438 55.519531 66.6875 55.132812 65.953125 54.800781 C 65.214844 54.464844 64.460938 54.1875 63.683594 53.960938 C 62.90625 53.738281 62.117188 53.570312 61.316406 53.460938 C 60.515625 53.351562 59.710938 53.300781 58.902344 53.308594 Z M 58.902344 64.492188 C 59.269531 64.492188 59.632812 64.527344 59.992188 64.597656 C 60.351562 64.671875 60.699219 64.777344 61.039062 64.917969 C 61.378906 65.058594 61.703125 65.230469 62.007812 65.433594 C 62.3125 65.636719 62.59375 65.871094 62.855469 66.128906 C 63.113281 66.390625 63.34375 66.671875 63.550781 66.976562 C 63.753906 67.28125 63.925781 67.605469 64.066406 67.941406 C 64.207031 68.28125 64.3125 68.632812 64.382812 68.992188 C 64.457031 69.351562 64.492188 69.714844 64.492188 70.082031 C 64.492188 70.449219 64.457031 70.8125 64.382812 71.171875 C 64.3125 71.535156 64.207031 71.882812 64.066406 72.222656 C 63.925781 72.5625 63.753906 72.882812 63.550781 73.1875 C 63.34375 73.496094 63.113281 73.777344 62.855469 74.035156 C 62.59375 74.296875 62.3125 74.527344 62.007812 74.730469 C 61.703125 74.9375 61.378906 75.109375 61.039062 75.25 C 60.699219 75.390625 60.351562 75.496094 59.992188 75.566406 C 59.632812 75.636719 59.269531 75.675781 58.902344 75.675781 L 53.308594 75.675781 L 53.308594 64.492188 Z M 58.902344 98.039062 L 53.308594 98.039062 L 53.308594 86.855469 L 58.902344 86.855469 C 59.269531 86.855469 59.632812 86.890625 59.992188 86.964844 C 60.351562 87.035156 60.699219 87.140625 61.039062 87.28125 C 61.378906 87.421875 61.703125 87.59375 62.007812 87.796875 C 62.3125 88.003906 62.59375 88.234375 62.855469 88.492188 C 63.113281 88.753906 63.34375 89.035156 63.550781 89.339844 C 63.753906 89.644531 63.925781 89.96875 64.066406 90.308594 C 64.207031 90.648438 64.3125 90.996094 64.382812 91.355469 C 64.457031 91.714844 64.492188 92.082031 64.492188 92.449219 C 64.492188 92.816406 64.457031 93.179688 64.382812 93.539062 C 64.3125 93.898438 64.207031 94.246094 64.066406 94.585938 C 63.925781 94.925781 63.753906 95.25 63.550781 95.554688 C 63.34375 95.859375 63.113281 96.140625 62.855469 96.402344 C 62.59375 96.660156 62.3125 96.890625 62.007812 97.097656 C 61.703125 97.300781 61.378906 97.472656 61.039062 97.613281 C 60.699219 97.753906 60.351562 97.859375 59.992188 97.929688 C 59.632812 98.003906 59.269531 98.039062 58.902344 98.039062 Z M 58.902344 98.039062 " fill-opacity="1" fill-rule="nonzero"/><path fill="#00f3f7" d="M 120.402344 70.082031 C 120.402344 69.535156 120.375 68.984375 120.320312 68.4375 C 120.269531 67.890625 120.1875 67.347656 120.082031 66.808594 C 119.972656 66.273438 119.839844 65.738281 119.679688 65.214844 C 119.519531 64.6875 119.335938 64.171875 119.125 63.664062 C 118.914062 63.15625 118.679688 62.660156 118.421875 62.175781 C 118.164062 61.691406 117.882812 61.222656 117.578125 60.765625 C 117.269531 60.308594 116.945312 59.867188 116.59375 59.441406 C 116.246094 59.015625 115.878906 58.609375 115.488281 58.222656 C 115.101562 57.832031 114.695312 57.464844 114.269531 57.117188 C 113.847656 56.769531 113.40625 56.441406 112.949219 56.136719 C 112.492188 55.832031 112.019531 55.550781 111.535156 55.289062 C 111.050781 55.03125 110.554688 54.796875 110.046875 54.585938 C 109.539062 54.375 109.023438 54.191406 108.5 54.03125 C 107.972656 53.871094 107.441406 53.738281 106.902344 53.632812 C 106.363281 53.523438 105.820312 53.445312 105.273438 53.390625 C 104.726562 53.335938 104.179688 53.308594 103.628906 53.308594 L 86.855469 53.308594 L 86.855469 109.222656 L 98.039062 109.222656 L 98.039062 94.796875 L 113.695312 110.339844 L 121.519531 102.511719 L 105.753906 86.855469 C 106.765625 86.734375 107.757812 86.519531 108.730469 86.214844 C 109.703125 85.910156 110.640625 85.519531 111.539062 85.042969 C 112.441406 84.566406 113.289062 84.007812 114.089844 83.375 C 114.886719 82.742188 115.621094 82.042969 116.292969 81.277344 C 116.964844 80.507812 117.558594 79.6875 118.078125 78.808594 C 118.597656 77.933594 119.03125 77.015625 119.382812 76.058594 C 119.734375 75.101562 119.996094 74.121094 120.167969 73.117188 C 120.339844 72.113281 120.417969 71.101562 120.402344 70.082031 Z M 103.628906 75.675781 L 98.039062 75.675781 L 98.039062 64.492188 L 103.628906 64.492188 C 103.996094 64.492188 104.359375 64.527344 104.71875 64.597656 C 105.082031 64.671875 105.429688 64.777344 105.769531 64.917969 C 106.109375 65.058594 106.429688 65.230469 106.734375 65.433594 C 107.042969 65.636719 107.324219 65.871094 107.582031 66.128906 C 107.84375 66.390625 108.074219 66.671875 108.277344 66.976562 C 108.484375 67.28125 108.65625 67.605469 108.796875 67.941406 C 108.9375 68.28125 109.042969 68.632812 109.113281 68.992188 C 109.183594 69.351562 109.222656 69.714844 109.222656 70.082031 C 109.222656 70.449219 109.183594 70.8125 109.113281 71.171875 C 109.042969 71.535156 108.9375 71.882812 108.796875 72.222656 C 108.65625 72.5625 108.484375 72.882812 108.277344 73.1875 C 108.074219 73.496094 107.84375 73.777344 107.582031 74.035156 C 107.324219 74.296875 107.042969 74.527344 106.734375 74.730469 C 106.429688 74.9375 106.109375 75.109375 105.769531 75.25 C 105.429688 75.390625 105.082031 75.496094 104.71875 75.566406 C 104.359375 75.636719 103.996094 75.675781 103.628906 75.675781 Z M 103.628906 75.675781 " fill-opacity="1" fill-rule="nonzero"/><path fill="#00f3f7" d="M 165.132812 109.222656 L 165.132812 70.082031 C 165.132812 69.535156 165.105469 68.984375 165.050781 68.4375 C 164.996094 67.890625 164.917969 67.347656 164.808594 66.808594 C 164.703125 66.273438 164.570312 65.738281 164.410156 65.214844 C 164.25 64.6875 164.066406 64.171875 163.855469 63.664062 C 163.644531 63.15625 163.410156 62.660156 163.152344 62.175781 C 162.890625 61.691406 162.609375 61.222656 162.304688 60.765625 C 162 60.308594 161.671875 59.867188 161.324219 59.441406 C 160.976562 59.015625 160.609375 58.609375 160.21875 58.222656 C 159.832031 57.832031 159.425781 57.464844 159 57.117188 C 158.574219 56.769531 158.132812 56.441406 157.675781 56.136719 C 157.21875 55.832031 156.75 55.550781 156.265625 55.289062 C 155.78125 55.03125 155.285156 54.796875 154.777344 54.585938 C 154.269531 54.375 153.753906 54.191406 153.226562 54.03125 C 152.703125 53.871094 152.167969 53.738281 151.632812 53.632812 C 151.09375 53.523438 150.550781 53.445312 150.003906 53.390625 C 149.457031 53.335938 148.90625 53.308594 148.359375 53.308594 C 147.808594 53.308594 147.261719 53.335938 146.714844 53.390625 C 146.167969 53.445312 145.625 53.523438 145.085938 53.632812 C 144.546875 53.738281 144.015625 53.871094 143.488281 54.03125 C 142.964844 54.191406 142.449219 54.375 141.941406 54.585938 C 141.433594 54.796875 140.9375 55.03125 140.453125 55.289062 C 139.96875 55.550781 139.496094 55.832031 139.039062 56.136719 C 138.582031 56.441406 138.140625 56.769531 137.71875 57.117188 C 137.292969 57.464844 136.886719 57.832031 136.5 58.222656 C 136.109375 58.609375 135.742188 59.015625 135.394531 59.441406 C 135.042969 59.867188 134.71875 60.308594 134.410156 60.765625 C 134.105469 61.222656 133.824219 61.691406 133.566406 62.175781 C 133.308594 62.660156 133.074219 63.15625 132.863281 63.664062 C 132.652344 64.171875 132.46875 64.6875 132.308594 65.214844 C 132.148438 65.738281 132.015625 66.273438 131.90625 66.808594 C 131.800781 67.347656 131.71875 67.890625 131.667969 68.4375 C 131.613281 68.984375 131.585938 69.535156 131.585938 70.082031 L 131.585938 109.222656 L 142.765625 109.222656 L 142.765625 92.449219 L 153.949219 92.449219 L 153.949219 109.222656 Z M 142.765625 81.265625 L 142.765625 70.082031 C 142.765625 69.714844 142.804688 69.351562 142.875 68.992188 C 142.945312 68.632812 143.050781 68.28125 143.191406 67.941406 C 143.332031 67.605469 143.503906 67.28125 143.710938 66.976562 C 143.914062 66.671875 144.144531 66.390625 144.40625 66.128906 C 144.664062 65.871094 144.945312 65.636719 145.253906 65.433594 C 145.558594 65.230469 145.878906 65.058594 146.21875 64.917969 C 146.558594 64.777344 146.90625 64.671875 147.269531 64.597656 C 147.628906 64.527344 147.992188 64.492188 148.359375 64.492188 C 148.726562 64.492188 149.089844 64.527344 149.449219 64.597656 C 149.808594 64.671875 150.160156 64.777344 150.5 64.917969 C 150.835938 65.058594 151.160156 65.230469 151.464844 65.433594 C 151.769531 65.636719 152.050781 65.871094 152.3125 66.128906 C 152.570312 66.390625 152.804688 66.671875 153.007812 66.976562 C 153.210938 67.28125 153.382812 67.605469 153.523438 67.941406 C 153.664062 68.28125 153.769531 68.632812 153.84375 68.992188 C 153.914062 69.351562 153.949219 69.714844 153.949219 70.082031 L 153.949219 81.265625 Z M 142.765625 81.265625 " fill-opacity="1" fill-rule="nonzero"/><path fill="#00f3f7" d="M 205.164062 106.535156 C 205.65625 107.367188 206.320312 108.019531 207.160156 108.5 C 207.996094 108.976562 208.898438 109.21875 209.859375 109.222656 L 211.425781 109.222656 C 212.007812 109.050781 212.546875 108.792969 213.042969 108.449219 C 213.539062 108.105469 213.972656 107.691406 214.332031 107.207031 C 214.695312 106.722656 214.972656 106.195312 215.164062 105.621094 C 215.355469 105.046875 215.453125 104.457031 215.453125 103.851562 L 215.453125 53.308594 L 204.269531 53.308594 L 204.269531 84.171875 L 186.601562 55.992188 C 186.308594 55.449219 185.933594 54.96875 185.476562 54.550781 C 185.019531 54.132812 184.507812 53.804688 183.9375 53.558594 C 183.371094 53.316406 182.777344 53.171875 182.160156 53.128906 C 181.542969 53.085938 180.9375 53.148438 180.339844 53.308594 C 179.742188 53.484375 179.1875 53.75 178.675781 54.109375 C 178.164062 54.472656 177.726562 54.90625 177.363281 55.410156 C 177 55.917969 176.726562 56.46875 176.546875 57.066406 C 176.367188 57.664062 176.289062 58.277344 176.3125 58.902344 L 176.3125 109.222656 L 187.496094 109.222656 L 187.496094 78.359375 Z M 205.164062 106.535156 " fill-opacity="1" fill-rule="nonzero"/><path fill="#00f3f7" d="M 260.179688 92.449219 L 260.179688 70.082031 C 260.179688 69.535156 260.152344 68.984375 260.101562 68.4375 C 260.046875 67.890625 259.964844 67.347656 259.859375 66.808594 C 259.75 66.273438 259.617188 65.738281 259.457031 65.214844 C 259.300781 64.6875 259.113281 64.171875 258.90625 63.664062 C 258.695312 63.15625 258.460938 62.660156 258.199219 62.175781 C 257.941406 61.691406 257.660156 61.222656 257.355469 60.765625 C 257.050781 60.308594 256.722656 59.867188 256.375 59.441406 C 256.023438 59.015625 255.65625 58.609375 255.269531 58.222656 C 254.878906 57.832031 254.472656 57.464844 254.046875 57.117188 C 253.625 56.769531 253.183594 56.441406 252.726562 56.136719 C 252.269531 55.832031 251.800781 55.550781 251.316406 55.289062 C 250.832031 55.03125 250.335938 54.796875 249.828125 54.585938 C 249.320312 54.375 248.800781 54.191406 248.277344 54.03125 C 247.75 53.871094 247.21875 53.738281 246.679688 53.632812 C 246.140625 53.523438 245.597656 53.445312 245.050781 53.390625 C 244.503906 53.335938 243.957031 53.308594 243.40625 53.308594 L 226.632812 53.308594 L 226.632812 109.222656 L 243.40625 109.222656 C 243.957031 109.222656 244.503906 109.195312 245.050781 109.140625 C 245.597656 109.085938 246.140625 109.003906 246.679688 108.898438 C 247.21875 108.792969 247.75 108.65625 248.277344 108.5 C 248.800781 108.339844 249.320312 108.152344 249.828125 107.945312 C 250.335938 107.734375 250.832031 107.5 251.316406 107.238281 C 251.800781 106.980469 252.269531 106.699219 252.726562 106.394531 C 253.183594 106.089844 253.625 105.761719 254.046875 105.414062 C 254.472656 105.066406 254.878906 104.695312 255.269531 104.308594 C 255.65625 103.917969 256.023438 103.511719 256.375 103.089844 C 256.722656 102.664062 257.050781 102.222656 257.355469 101.765625 C 257.660156 101.308594 257.941406 100.839844 258.199219 100.355469 C 258.460938 99.871094 258.695312 99.375 258.90625 98.867188 C 259.113281 98.359375 259.300781 97.84375 259.457031 97.316406 C 259.617188 96.789062 259.75 96.257812 259.859375 95.71875 C 259.964844 95.179688 260.046875 94.636719 260.101562 94.089844 C 260.152344 93.542969 260.179688 92.996094 260.179688 92.449219 Z M 249 92.449219 C 249 92.816406 248.964844 93.179688 248.890625 93.539062 C 248.820312 93.898438 248.714844 94.246094 248.574219 94.585938 C 248.433594 94.925781 248.261719 95.25 248.054688 95.554688 C 247.851562 95.859375 247.621094 96.140625 247.359375 96.402344 C 247.101562 96.660156 246.820312 96.890625 246.515625 97.097656 C 246.207031 97.300781 245.886719 97.472656 245.546875 97.613281 C 245.207031 97.753906 244.859375 97.859375 244.5 97.929688 C 244.136719 98.003906 243.773438 98.039062 243.40625 98.039062 L 237.816406 98.039062 L 237.816406 64.492188 L 243.40625 64.492188 C 243.773438 64.492188 244.136719 64.527344 244.5 64.597656 C 244.859375 64.671875 245.207031 64.777344 245.546875 64.917969 C 245.886719 65.058594 246.207031 65.230469 246.515625 65.433594 C 246.820312 65.636719 247.101562 65.871094 247.359375 66.128906 C 247.621094 66.390625 247.851562 66.671875 248.054688 66.976562 C 248.261719 67.28125 248.433594 67.605469 248.574219 67.941406 C 248.714844 68.28125 248.820312 68.632812 248.890625 68.992188 C 248.964844 69.351562 249 69.714844 249 70.082031 Z M 249 92.449219 " fill-opacity="1" fill-rule="nonzero"/><g clip-path="url(#cae0ae3dcf)"><path fill="#00f3f7" d="M 19.761719 47.71875 C 19.761719 46.804688 19.808594 45.890625 19.898438 44.976562 C 19.988281 44.066406 20.121094 43.164062 20.300781 42.265625 C 20.480469 41.367188 20.699219 40.480469 20.964844 39.601562 C 21.230469 38.726562 21.539062 37.867188 21.890625 37.019531 C 22.242188 36.175781 22.632812 35.347656 23.0625 34.539062 C 23.496094 33.734375 23.964844 32.949219 24.472656 32.1875 C 24.984375 31.425781 25.527344 30.691406 26.109375 29.984375 C 26.6875 29.277344 27.304688 28.597656 27.949219 27.949219 C 28.597656 27.304688 29.277344 26.6875 29.984375 26.109375 C 30.691406 25.527344 31.425781 24.984375 32.1875 24.472656 C 32.949219 23.964844 33.734375 23.496094 34.539062 23.0625 C 35.347656 22.632812 36.175781 22.242188 37.019531 21.890625 C 37.867188 21.539062 38.726562 21.230469 39.601562 20.964844 C 40.480469 20.699219 41.367188 20.480469 42.265625 20.300781 C 43.164062 20.121094 44.066406 19.988281 44.976562 19.898438 C 45.890625 19.808594 46.804688 19.761719 47.71875 19.761719 L 254.589844 19.761719 C 255.503906 19.761719 256.417969 19.808594 257.332031 19.898438 C 258.242188 19.988281 259.144531 20.121094 260.042969 20.300781 C 260.941406 20.480469 261.828125 20.699219 262.703125 20.964844 C 263.582031 21.230469 264.441406 21.539062 265.289062 21.890625 C 266.132812 22.242188 266.960938 22.632812 267.769531 23.0625 C 268.574219 23.496094 269.359375 23.964844 270.121094 24.472656 C 270.882812 24.984375 271.617188 25.527344 272.324219 26.109375 C 273.03125 26.6875 273.710938 27.304688 274.359375 27.949219 C 275.003906 28.597656 275.621094 29.277344 276.199219 29.984375 C 276.78125 30.691406 277.324219 31.425781 277.835938 32.1875 C 278.34375 32.949219 278.8125 33.734375 279.246094 34.539062 C 279.675781 35.347656 280.066406 36.175781 280.417969 37.019531 C 280.769531 37.867188 281.074219 38.726562 281.34375 39.601562 C 281.609375 40.480469 281.828125 41.367188 282.007812 42.265625 C 282.1875 43.164062 282.320312 44.066406 282.410156 44.976562 C 282.5 45.890625 282.546875 46.804688 282.546875 47.71875 L 282.546875 254.589844 L 293.726562 254.589844 L 293.726562 47.71875 C 293.726562 46.4375 293.664062 45.15625 293.539062 43.882812 C 293.414062 42.605469 293.226562 41.339844 292.976562 40.082031 C 292.726562 38.824219 292.414062 37.582031 292.042969 36.355469 C 291.671875 35.128906 291.238281 33.925781 290.75 32.742188 C 290.257812 31.558594 289.710938 30.398438 289.105469 29.269531 C 288.503906 28.136719 287.84375 27.039062 287.132812 25.972656 C 286.417969 24.910156 285.65625 23.878906 284.84375 22.890625 C 284.03125 21.898438 283.171875 20.949219 282.265625 20.042969 C 281.359375 19.136719 280.410156 18.277344 279.417969 17.464844 C 278.429688 16.652344 277.398438 15.886719 276.332031 15.175781 C 275.269531 14.464844 274.167969 13.804688 273.039062 13.203125 C 271.910156 12.597656 270.75 12.050781 269.566406 11.558594 C 268.382812 11.070312 267.179688 10.636719 265.949219 10.265625 C 264.722656 9.894531 263.484375 9.582031 262.226562 9.332031 C 260.96875 9.082031 259.703125 8.894531 258.425781 8.769531 C 257.152344 8.644531 255.871094 8.582031 254.589844 8.582031 L 47.71875 8.582031 C 46.4375 8.582031 45.15625 8.644531 43.882812 8.769531 C 42.605469 8.894531 41.339844 9.082031 40.082031 9.332031 C 38.824219 9.582031 37.582031 9.894531 36.355469 10.265625 C 35.128906 10.636719 33.925781 11.070312 32.742188 11.558594 C 31.558594 12.050781 30.398438 12.597656 29.269531 13.203125 C 28.136719 13.804688 27.039062 14.464844 25.972656 15.175781 C 24.910156 15.886719 23.878906 16.652344 22.890625 17.464844 C 21.898438 18.277344 20.949219 19.136719 20.042969 20.042969 C 19.136719 20.949219 18.277344 21.898438 17.464844 22.890625 C 16.652344 23.878906 15.886719 24.910156 15.175781 25.972656 C 14.464844 27.039062 13.804688 28.136719 13.203125 29.269531 C 12.597656 30.398438 12.050781 31.558594 11.558594 32.742188 C 11.070312 33.925781 10.636719 35.128906 10.265625 36.355469 C 9.894531 37.582031 9.582031 38.824219 9.332031 40.082031 C 9.082031 41.339844 8.894531 42.605469 8.769531 43.882812 C 8.644531 45.15625 8.582031 46.4375 8.582031 47.71875 L 8.582031 237.816406 L 19.761719 237.816406 Z M 19.761719 47.71875 " fill-opacity="1" fill-rule="nonzero"/></g><path fill="#00f3f7" d="M 53.308594 142.765625 L 254.589844 142.765625 L 254.589844 153.949219 L 53.308594 153.949219 Z M 53.308594 142.765625 " fill-opacity="1" fill-rule="nonzero"/><path fill="#00f3f7" d="M 53.308594 193.085938 L 254.589844 193.085938 L 254.589844 204.269531 L 53.308594 204.269531 Z M 53.308594 193.085938 " fill-opacity="1" fill-rule="nonzero"/><path fill="#00f3f7" d="M 187.496094 237.816406 L 254.589844 237.816406 L 254.589844 249 L 187.496094 249 Z M 187.496094 237.816406 " fill-opacity="1" fill-rule="nonzero"/><g clip-path="url(#4958c063b2)"><path fill="#00f3f7" d="M 366.414062 30.945312 C 366.414062 30.210938 366.375 29.480469 366.304688 28.753906 C 366.234375 28.023438 366.125 27.300781 365.984375 26.582031 C 365.839844 25.863281 365.660156 25.152344 365.449219 24.453125 C 365.238281 23.753906 364.992188 23.0625 364.710938 22.386719 C 364.429688 21.710938 364.117188 21.046875 363.773438 20.402344 C 363.425781 19.757812 363.050781 19.128906 362.644531 18.519531 C 362.238281 17.910156 361.800781 17.324219 361.335938 16.757812 C 360.871094 16.191406 360.378906 15.648438 359.863281 15.132812 C 359.34375 14.613281 358.800781 14.121094 358.234375 13.65625 C 357.667969 13.191406 357.082031 12.757812 356.472656 12.347656 C 355.863281 11.941406 355.238281 11.566406 354.589844 11.222656 C 353.945312 10.875 353.285156 10.5625 352.605469 10.28125 C 351.929688 10.003906 351.242188 9.757812 350.539062 9.542969 C 349.839844 9.332031 349.128906 9.152344 348.410156 9.011719 C 347.691406 8.867188 346.96875 8.761719 346.238281 8.6875 C 345.511719 8.617188 344.78125 8.582031 344.046875 8.582031 C 343.316406 8.582031 342.585938 8.617188 341.855469 8.6875 C 341.128906 8.761719 340.402344 8.867188 339.683594 9.011719 C 338.964844 9.152344 338.257812 9.332031 337.554688 9.542969 C 336.855469 9.757812 336.167969 10.003906 335.488281 10.28125 C 334.8125 10.5625 334.152344 10.875 333.503906 11.222656 C 332.859375 11.566406 332.230469 11.941406 331.621094 12.347656 C 331.015625 12.757812 330.425781 13.191406 329.859375 13.65625 C 329.292969 14.121094 328.75 14.613281 328.234375 15.132812 C 327.714844 15.648438 327.226562 16.191406 326.761719 16.757812 C 326.296875 17.324219 325.859375 17.910156 325.453125 18.519531 C 325.046875 19.128906 324.667969 19.757812 324.324219 20.402344 C 323.980469 21.046875 323.667969 21.710938 323.386719 22.386719 C 323.105469 23.0625 322.859375 23.753906 322.648438 24.453125 C 322.433594 25.152344 322.257812 25.863281 322.113281 26.582031 C 321.96875 27.300781 321.863281 28.023438 321.792969 28.753906 C 321.71875 29.480469 321.683594 30.210938 321.683594 30.945312 L 321.683594 209.859375 C 321.511719 210.605469 321.511719 211.351562 321.683594 212.097656 L 338.457031 251.234375 C 338.671875 251.738281 338.953125 252.203125 339.304688 252.625 C 339.65625 253.042969 340.058594 253.40625 340.519531 253.707031 C 340.976562 254.011719 341.464844 254.242188 341.992188 254.398438 C 342.515625 254.554688 343.050781 254.636719 343.601562 254.636719 C 344.148438 254.636719 344.683594 254.554688 345.210938 254.398438 C 345.734375 254.242188 346.226562 254.011719 346.683594 253.707031 C 347.140625 253.40625 347.546875 253.042969 347.894531 252.625 C 348.246094 252.203125 348.53125 251.738281 348.746094 251.234375 L 366.414062 212.097656 C 366.582031 211.351562 366.582031 210.605469 366.414062 209.859375 Z M 332.867188 42.128906 L 355.230469 42.128906 L 355.230469 204.269531 L 332.867188 204.269531 Z M 344.046875 19.761719 C 344.78125 19.761719 345.507812 19.835938 346.230469 19.976562 C 346.949219 20.121094 347.648438 20.332031 348.328125 20.613281 C 349.003906 20.894531 349.648438 21.238281 350.261719 21.648438 C 350.871094 22.054688 351.4375 22.519531 351.953125 23.039062 C 352.472656 23.558594 352.9375 24.121094 353.34375 24.734375 C 353.753906 25.34375 354.097656 25.988281 354.378906 26.664062 C 354.660156 27.34375 354.871094 28.042969 355.015625 28.761719 C 355.160156 29.484375 355.230469 30.210938 355.230469 30.945312 L 332.867188 30.945312 C 332.867188 30.210938 332.9375 29.484375 333.082031 28.761719 C 333.222656 28.042969 333.4375 27.34375 333.71875 26.664062 C 333.996094 25.988281 334.34375 25.34375 334.75 24.734375 C 335.160156 24.121094 335.621094 23.558594 336.140625 23.039062 C 336.660156 22.519531 337.226562 22.054688 337.835938 21.648438 C 338.445312 21.238281 339.089844 20.894531 339.769531 20.613281 C 340.445312 20.332031 341.144531 20.121094 341.867188 19.976562 C 342.585938 19.835938 343.3125 19.761719 344.046875 19.761719 Z M 344.046875 234.796875 L 335.773438 215.453125 L 352.324219 215.453125 Z M 344.046875 234.796875 " fill-opacity="1" fill-rule="nonzero"/></g><g clip-path="url(#cb36a5e9b8)"><path fill="#00f3f7" d="M 153.949219 254.589844 L 36.535156 254.589844 C 35.621094 254.589844 34.707031 254.636719 33.796875 254.726562 C 32.886719 254.8125 31.980469 254.949219 31.082031 255.128906 C 30.183594 255.304688 29.296875 255.527344 28.421875 255.792969 C 27.542969 256.058594 26.683594 256.367188 25.839844 256.71875 C 24.992188 257.070312 24.164062 257.460938 23.359375 257.890625 C 22.550781 258.324219 21.765625 258.792969 21.003906 259.300781 C 20.242188 259.808594 19.507812 260.355469 18.800781 260.9375 C 18.09375 261.515625 17.414062 262.128906 16.769531 262.777344 C 16.121094 263.425781 15.507812 264.101562 14.925781 264.8125 C 14.34375 265.519531 13.800781 266.253906 13.292969 267.015625 C 12.785156 267.777344 12.3125 268.558594 11.882812 269.367188 C 11.449219 270.175781 11.058594 271 10.707031 271.847656 C 10.359375 272.695312 10.050781 273.554688 9.785156 274.429688 C 9.519531 275.308594 9.296875 276.195312 9.117188 277.089844 C 8.9375 277.988281 8.804688 278.894531 8.714844 279.804688 C 8.625 280.714844 8.582031 281.628906 8.582031 282.546875 L 8.582031 338.457031 C 8.582031 339.371094 8.625 340.285156 8.714844 341.195312 C 8.804688 342.109375 8.9375 343.011719 9.117188 343.910156 C 9.296875 344.808594 9.519531 345.695312 9.785156 346.570312 C 10.050781 347.449219 10.359375 348.308594 10.707031 349.15625 C 11.058594 350 11.449219 350.828125 11.882812 351.636719 C 12.3125 352.441406 12.785156 353.226562 13.292969 353.988281 C 13.800781 354.75 14.34375 355.484375 14.925781 356.191406 C 15.507812 356.898438 16.121094 357.578125 16.769531 358.222656 C 17.414062 358.871094 18.09375 359.484375 18.800781 360.066406 C 19.507812 360.648438 20.242188 361.191406 21.003906 361.699219 C 21.765625 362.210938 22.550781 362.679688 23.359375 363.113281 C 24.164062 363.542969 24.992188 363.933594 25.839844 364.285156 C 26.683594 364.636719 27.542969 364.941406 28.421875 365.207031 C 29.296875 365.472656 30.183594 365.695312 31.082031 365.875 C 31.980469 366.054688 32.886719 366.1875 33.796875 366.277344 C 34.707031 366.367188 35.621094 366.414062 36.535156 366.414062 L 153.949219 366.414062 C 154.867188 366.414062 155.777344 366.367188 156.691406 366.277344 C 157.601562 366.1875 158.503906 366.054688 159.402344 365.875 C 160.300781 365.695312 161.1875 365.472656 162.066406 365.207031 C 162.941406 364.941406 163.800781 364.636719 164.648438 364.285156 C 165.492188 363.933594 166.320312 363.542969 167.128906 363.113281 C 167.933594 362.679688 168.71875 362.210938 169.480469 361.699219 C 170.242188 361.191406 170.976562 360.648438 171.683594 360.066406 C 172.390625 359.484375 173.070312 358.871094 173.71875 358.222656 C 174.363281 357.578125 174.980469 356.898438 175.558594 356.191406 C 176.140625 355.484375 176.683594 354.75 177.195312 353.988281 C 177.703125 353.226562 178.171875 352.441406 178.605469 351.636719 C 179.035156 350.828125 179.425781 350 179.777344 349.15625 C 180.128906 348.308594 180.4375 347.449219 180.703125 346.570312 C 180.96875 345.695312 181.191406 344.808594 181.367188 343.910156 C 181.546875 343.011719 181.679688 342.109375 181.769531 341.195312 C 181.859375 340.285156 181.90625 339.371094 181.90625 338.457031 L 181.90625 282.546875 C 181.90625 281.628906 181.859375 280.714844 181.769531 279.804688 C 181.679688 278.894531 181.546875 277.988281 181.367188 277.089844 C 181.191406 276.195312 180.96875 275.308594 180.703125 274.429688 C 180.4375 273.554688 180.128906 272.691406 179.777344 271.847656 C 179.425781 271 179.035156 270.175781 178.605469 269.367188 C 178.171875 268.558594 177.703125 267.777344 177.195312 267.015625 C 176.683594 266.253906 176.140625 265.519531 175.558594 264.8125 C 174.980469 264.101562 174.363281 263.425781 173.71875 262.777344 C 173.070312 262.128906 172.390625 261.515625 171.683594 260.9375 C 170.976562 260.355469 170.242188 259.808594 169.480469 259.300781 C 168.71875 258.792969 167.933594 258.324219 167.128906 257.890625 C 166.320312 257.460938 165.492188 257.070312 164.648438 256.71875 C 163.800781 256.367188 162.941406 256.058594 162.066406 255.792969 C 161.1875 255.527344 160.300781 255.304688 159.402344 255.128906 C 158.503906 254.949219 157.601562 254.8125 156.691406 254.726562 C 155.777344 254.636719 154.867188 254.589844 153.949219 254.589844 Z M 170.722656 338.457031 C 170.722656 339.007812 170.695312 339.554688 170.640625 340.101562 C 170.589844 340.648438 170.507812 341.191406 170.402344 341.730469 C 170.292969 342.269531 170.160156 342.800781 170 343.324219 C 169.839844 343.851562 169.65625 344.367188 169.445312 344.875 C 169.234375 345.382812 169 345.878906 168.742188 346.363281 C 168.484375 346.847656 168.203125 347.320312 167.894531 347.777344 C 167.589844 348.230469 167.265625 348.671875 166.914062 349.097656 C 166.566406 349.523438 166.199219 349.929688 165.808594 350.316406 C 165.421875 350.707031 165.015625 351.074219 164.589844 351.421875 C 164.167969 351.769531 163.726562 352.097656 163.269531 352.402344 C 162.8125 352.707031 162.339844 352.992188 161.855469 353.25 C 161.371094 353.507812 160.875 353.742188 160.367188 353.953125 C 159.859375 354.164062 159.34375 354.347656 158.820312 354.507812 C 158.292969 354.667969 157.761719 354.800781 157.222656 354.90625 C 156.683594 355.015625 156.140625 355.09375 155.59375 355.148438 C 155.046875 355.203125 154.5 355.230469 153.949219 355.230469 L 36.535156 355.230469 C 35.988281 355.230469 35.4375 355.203125 34.890625 355.148438 C 34.34375 355.09375 33.800781 355.015625 33.265625 354.90625 C 32.726562 354.800781 32.191406 354.667969 31.667969 354.507812 C 31.140625 354.347656 30.625 354.164062 30.117188 353.953125 C 29.609375 353.742188 29.113281 353.507812 28.628906 353.25 C 28.144531 352.992188 27.675781 352.707031 27.21875 352.402344 C 26.761719 352.097656 26.320312 351.769531 25.894531 351.421875 C 25.46875 351.074219 25.0625 350.707031 24.675781 350.316406 C 24.289062 349.929688 23.917969 349.523438 23.570312 349.097656 C 23.222656 348.671875 22.894531 348.230469 22.589844 347.777344 C 22.285156 347.320312 22.003906 346.847656 21.742188 346.363281 C 21.484375 345.878906 21.25 345.382812 21.039062 344.875 C 20.828125 344.367188 20.644531 343.851562 20.484375 343.324219 C 20.324219 342.800781 20.191406 342.269531 20.085938 341.730469 C 19.976562 341.191406 19.898438 340.648438 19.84375 340.101562 C 19.789062 339.554688 19.761719 339.007812 19.761719 338.457031 L 19.761719 282.546875 C 19.761719 281.996094 19.789062 281.449219 19.84375 280.902344 C 19.898438 280.355469 19.976562 279.8125 20.085938 279.273438 C 20.191406 278.734375 20.324219 278.203125 20.484375 277.675781 C 20.644531 277.152344 20.828125 276.632812 21.039062 276.125 C 21.25 275.621094 21.484375 275.125 21.742188 274.640625 C 22.003906 274.152344 22.285156 273.683594 22.589844 273.226562 C 22.894531 272.769531 23.222656 272.328125 23.570312 271.90625 C 23.917969 271.480469 24.289062 271.074219 24.675781 270.683594 C 25.0625 270.296875 25.46875 269.929688 25.894531 269.578125 C 26.320312 269.230469 26.761719 268.902344 27.21875 268.597656 C 27.675781 268.292969 28.144531 268.011719 28.628906 267.753906 C 29.113281 267.492188 29.609375 267.257812 30.117188 267.050781 C 30.625 266.839844 31.140625 266.652344 31.667969 266.496094 C 32.191406 266.335938 32.726562 266.203125 33.265625 266.09375 C 33.800781 265.988281 34.34375 265.90625 34.890625 265.851562 C 35.4375 265.800781 35.988281 265.773438 36.535156 265.773438 L 153.949219 265.773438 C 154.5 265.773438 155.046875 265.800781 155.59375 265.851562 C 156.140625 265.90625 156.683594 265.988281 157.222656 266.09375 C 157.761719 266.203125 158.292969 266.335938 158.820312 266.496094 C 159.34375 266.652344 159.859375 266.839844 160.367188 267.050781 C 160.875 267.257812 161.371094 267.492188 161.855469 267.753906 C 162.339844 268.011719 162.8125 268.292969 163.269531 268.597656 C 163.726562 268.902344 164.167969 269.230469 164.589844 269.578125 C 165.015625 269.929688 165.421875 270.296875 165.808594 270.683594 C 166.199219 271.074219 166.566406 271.480469 166.914062 271.90625 C 167.265625 272.328125 167.589844 272.769531 167.894531 273.226562 C 168.203125 273.683594 168.484375 274.152344 168.742188 274.640625 C 169 275.125 169.234375 275.621094 169.445312 276.125 C 169.65625 276.632812 169.839844 277.152344 170 277.675781 C 170.160156 278.203125 170.292969 278.734375 170.402344 279.273438 C 170.507812 279.8125 170.589844 280.355469 170.640625 280.902344 C 170.695312 281.449219 170.722656 281.996094 170.722656 282.546875 Z M 170.722656 338.457031 " fill-opacity="1" fill-rule="nonzero"/></g><path fill="#00f3f7" d="M 70.082031 288.136719 L 47.71875 288.136719 C 47.351562 288.136719 46.988281 288.171875 46.628906 288.246094 C 46.265625 288.316406 45.917969 288.421875 45.578125 288.5625 C 45.238281 288.703125 44.917969 288.875 44.613281 289.078125 C 44.308594 289.28125 44.023438 289.515625 43.765625 289.773438 C 43.503906 290.035156 43.273438 290.316406 43.070312 290.621094 C 42.867188 290.925781 42.691406 291.25 42.554688 291.589844 C 42.414062 291.925781 42.304688 292.277344 42.234375 292.636719 C 42.164062 292.996094 42.128906 293.359375 42.128906 293.726562 L 42.128906 327.273438 C 42.128906 327.640625 42.164062 328.003906 42.234375 328.367188 C 42.304688 328.726562 42.414062 329.074219 42.554688 329.414062 C 42.691406 329.753906 42.867188 330.074219 43.070312 330.378906 C 43.273438 330.6875 43.503906 330.96875 43.765625 331.226562 C 44.023438 331.488281 44.308594 331.71875 44.613281 331.921875 C 44.917969 332.128906 45.238281 332.300781 45.578125 332.441406 C 45.917969 332.582031 46.265625 332.6875 46.628906 332.757812 C 46.988281 332.828125 47.351562 332.867188 47.71875 332.867188 L 70.082031 332.867188 C 70.449219 332.867188 70.8125 332.828125 71.171875 332.757812 C 71.535156 332.6875 71.882812 332.582031 72.222656 332.441406 C 72.5625 332.300781 72.882812 332.128906 73.1875 331.921875 C 73.496094 331.71875 73.777344 331.488281 74.035156 331.226562 C 74.296875 330.96875 74.527344 330.6875 74.730469 330.378906 C 74.9375 330.074219 75.109375 329.753906 75.25 329.414062 C 75.390625 329.074219 75.496094 328.726562 75.566406 328.367188 C 75.636719 328.003906 75.675781 327.640625 75.675781 327.273438 L 75.675781 293.726562 C 75.675781 293.359375 75.636719 292.996094 75.566406 292.636719 C 75.496094 292.277344 75.390625 291.925781 75.25 291.589844 C 75.109375 291.25 74.9375 290.925781 74.730469 290.621094 C 74.527344 290.316406 74.296875 290.035156 74.035156 289.773438 C 73.777344 289.515625 73.496094 289.28125 73.1875 289.078125 C 72.882812 288.875 72.5625 288.703125 72.222656 288.5625 C 71.882812 288.421875 71.535156 288.316406 71.171875 288.246094 C 70.8125 288.171875 70.449219 288.136719 70.082031 288.136719 Z M 64.492188 321.683594 L 53.308594 321.683594 L 53.308594 299.320312 L 64.492188 299.320312 Z M 64.492188 321.683594 " fill-opacity="1" fill-rule="nonzero"/><path fill="#00f3f7" d="M 98.039062 288.136719 L 142.765625 288.136719 L 142.765625 299.320312 L 98.039062 299.320312 Z M 98.039062 288.136719 " fill-opacity="1" fill-rule="nonzero"/><path fill="#00f3f7" d="M 92.449219 316.09375 L 148.359375 316.09375 L 148.359375 327.273438 L 92.449219 327.273438 Z M 92.449219 316.09375 " fill-opacity="1" fill-rule="nonzero"/><g clip-path="url(#e29542d4c6)"><path fill="#00f3f7" d="M 327.273438 276.953125 L 249 276.953125 C 248.082031 276.953125 247.171875 277 246.257812 277.089844 C 245.347656 277.179688 244.441406 277.3125 243.546875 277.492188 C 242.648438 277.671875 241.761719 277.890625 240.882812 278.160156 C 240.007812 278.425781 239.148438 278.730469 238.300781 279.082031 C 237.453125 279.433594 236.628906 279.824219 235.820312 280.253906 C 235.011719 280.6875 234.230469 281.15625 233.46875 281.664062 C 232.707031 282.175781 231.972656 282.71875 231.265625 283.300781 C 230.554688 283.882812 229.878906 284.496094 229.230469 285.140625 C 228.582031 285.789062 227.96875 286.46875 227.390625 287.175781 C 226.808594 287.882812 226.261719 288.617188 225.753906 289.378906 C 225.246094 290.140625 224.777344 290.925781 224.34375 291.730469 C 223.914062 292.539062 223.523438 293.367188 223.171875 294.210938 C 222.820312 295.058594 222.511719 295.917969 222.246094 296.796875 C 221.980469 297.671875 221.757812 298.558594 221.582031 299.457031 C 221.402344 300.355469 221.269531 301.257812 221.179688 302.171875 C 221.089844 303.082031 221.042969 303.996094 221.042969 304.910156 L 221.042969 338.457031 C 221.042969 339.371094 221.089844 340.285156 221.179688 341.195312 C 221.269531 342.109375 221.402344 343.011719 221.582031 343.910156 C 221.757812 344.808594 221.980469 345.695312 222.246094 346.570312 C 222.511719 347.449219 222.820312 348.308594 223.171875 349.15625 C 223.523438 350 223.914062 350.828125 224.34375 351.636719 C 224.777344 352.441406 225.246094 353.226562 225.753906 353.988281 C 226.261719 354.75 226.808594 355.484375 227.390625 356.191406 C 227.96875 356.898438 228.582031 357.578125 229.230469 358.222656 C 229.878906 358.871094 230.554688 359.484375 231.265625 360.066406 C 231.972656 360.648438 232.707031 361.191406 233.46875 361.699219 C 234.230469 362.210938 235.011719 362.679688 235.820312 363.113281 C 236.628906 363.542969 237.453125 363.933594 238.300781 364.285156 C 239.148438 364.636719 240.007812 364.941406 240.882812 365.207031 C 241.761719 365.472656 242.648438 365.695312 243.546875 365.875 C 244.441406 366.054688 245.347656 366.1875 246.257812 366.277344 C 247.171875 366.367188 248.082031 366.414062 249 366.414062 L 327.273438 366.414062 C 328.191406 366.414062 329.105469 366.367188 330.015625 366.277344 C 330.925781 366.1875 331.832031 366.054688 332.726562 365.875 C 333.625 365.695312 334.511719 365.472656 335.390625 365.207031 C 336.265625 364.941406 337.125 364.636719 337.972656 364.285156 C 338.820312 363.933594 339.644531 363.542969 340.453125 363.113281 C 341.261719 362.679688 342.042969 362.210938 342.804688 361.699219 C 343.566406 361.191406 344.300781 360.648438 345.007812 360.066406 C 345.71875 359.484375 346.394531 358.871094 347.042969 358.222656 C 347.691406 357.578125 348.304688 356.898438 348.882812 356.191406 C 349.464844 355.484375 350.011719 354.75 350.519531 353.988281 C 351.027344 353.226562 351.496094 352.441406 351.929688 351.636719 C 352.359375 350.828125 352.75 350 353.101562 349.15625 C 353.453125 348.308594 353.761719 347.449219 354.027344 346.570312 C 354.292969 345.695312 354.515625 344.808594 354.691406 343.910156 C 354.871094 343.011719 355.007812 342.109375 355.09375 341.195312 C 355.183594 340.285156 355.230469 339.371094 355.230469 338.457031 L 355.230469 304.910156 C 355.230469 303.996094 355.183594 303.082031 355.09375 302.171875 C 355.007812 301.257812 354.871094 300.355469 354.691406 299.457031 C 354.515625 298.558594 354.292969 297.671875 354.027344 296.796875 C 353.761719 295.917969 353.453125 295.058594 353.101562 294.210938 C 352.75 293.367188 352.359375 292.539062 351.929688 291.730469 C 351.496094 290.925781 351.027344 290.140625 350.519531 289.378906 C 350.011719 288.617188 349.464844 287.882812 348.882812 287.175781 C 348.304688 286.46875 347.691406 285.789062 347.042969 285.140625 C 346.394531 284.496094 345.71875 283.882812 345.007812 283.300781 C 344.300781 282.71875 343.566406 282.175781 342.804688 281.664062 C 342.042969 281.15625 341.261719 280.6875 340.453125 280.253906 C 339.644531 279.824219 338.820312 279.433594 337.972656 279.082031 C 337.125 278.730469 336.265625 278.425781 335.390625 278.160156 C 334.511719 277.890625 333.625 277.671875 332.726562 277.492188 C 331.832031 277.3125 330.925781 277.179688 330.015625 277.089844 C 329.105469 277 328.191406 276.953125 327.273438 276.953125 Z M 327.273438 288.136719 L 329.957031 288.136719 L 288.136719 315.085938 L 246.316406 288.136719 Z M 344.046875 338.457031 C 344.046875 339.007812 344.019531 339.554688 343.96875 340.101562 C 343.914062 340.648438 343.832031 341.191406 343.726562 341.730469 C 343.617188 342.269531 343.484375 342.800781 343.324219 343.324219 C 343.167969 343.851562 342.980469 344.367188 342.769531 344.875 C 342.5625 345.382812 342.328125 345.878906 342.066406 346.363281 C 341.808594 346.847656 341.527344 347.320312 341.222656 347.777344 C 340.914062 348.230469 340.589844 348.671875 340.242188 349.097656 C 339.890625 349.523438 339.523438 349.929688 339.136719 350.316406 C 338.746094 350.707031 338.339844 351.074219 337.914062 351.421875 C 337.492188 351.769531 337.050781 352.097656 336.59375 352.402344 C 336.136719 352.707031 335.667969 352.992188 335.179688 353.25 C 334.695312 353.507812 334.199219 353.742188 333.695312 353.953125 C 333.1875 354.164062 332.667969 354.347656 332.144531 354.507812 C 331.617188 354.667969 331.085938 354.800781 330.546875 354.90625 C 330.007812 355.015625 329.464844 355.09375 328.917969 355.148438 C 328.371094 355.203125 327.824219 355.230469 327.273438 355.230469 L 249 355.230469 C 248.449219 355.230469 247.902344 355.203125 247.355469 355.148438 C 246.808594 355.09375 246.265625 355.015625 245.726562 354.90625 C 245.1875 354.800781 244.65625 354.667969 244.128906 354.507812 C 243.605469 354.347656 243.085938 354.164062 242.578125 353.953125 C 242.074219 353.742188 241.578125 353.507812 241.09375 353.25 C 240.609375 352.992188 240.136719 352.707031 239.679688 352.402344 C 239.222656 352.097656 238.78125 351.769531 238.359375 351.421875 C 237.933594 351.074219 237.527344 350.707031 237.136719 350.316406 C 236.75 349.929688 236.382812 349.523438 236.03125 349.097656 C 235.683594 348.671875 235.359375 348.230469 235.050781 347.777344 C 234.746094 347.320312 234.464844 346.847656 234.207031 346.363281 C 233.945312 345.878906 233.710938 345.382812 233.503906 344.875 C 233.292969 344.367188 233.105469 343.851562 232.949219 343.324219 C 232.789062 342.800781 232.65625 342.269531 232.546875 341.730469 C 232.441406 341.191406 232.359375 340.648438 232.304688 340.101562 C 232.253906 339.554688 232.226562 339.007812 232.226562 338.457031 L 232.226562 304.910156 C 232.234375 303.085938 232.535156 301.316406 233.128906 299.59375 C 233.722656 297.867188 234.574219 296.285156 235.691406 294.847656 L 285.117188 326.378906 C 285.566406 326.667969 286.050781 326.890625 286.5625 327.039062 C 287.078125 327.191406 287.601562 327.265625 288.136719 327.265625 C 288.671875 327.265625 289.195312 327.191406 289.710938 327.039062 C 290.222656 326.890625 290.707031 326.667969 291.15625 326.378906 L 340.582031 294.847656 C 341.699219 296.285156 342.550781 297.867188 343.144531 299.59375 C 343.738281 301.316406 344.039062 303.085938 344.046875 304.910156 Z M 344.046875 338.457031 " fill-opacity="1" fill-rule="nonzero"/></g></svg>