<svg xmlns="http://www.w3.org/2000/svg" xmlns:xlink="http://www.w3.org/1999/xlink" width="500" zoomAndPan="magnify" viewBox="0 0 375 374.999991" height="500" preserveAspectRatio="xMidYMid meet" version="1.0"><defs><clipPath id="a7cd0745c9"><path d="M 9.535156 190 L 121 190 L 121 302 L 9.535156 302 Z M 9.535156 190 " clip-rule="nonzero"/></clipPath><clipPath id="5797598631"><path d="M 254 215 L 365.785156 215 L 365.785156 327 L 254 327 Z M 254 215 " clip-rule="nonzero"/></clipPath><clipPath id="555c8941e1"><path d="M 87 309 L 283 309 L 283 365.785156 L 87 365.785156 Z M 87 309 " clip-rule="nonzero"/></clipPath><clipPath id="c9562dcfc4"><path d="M 87 9.535156 L 283 9.535156 L 283 180 L 87 180 Z M 87 9.535156 " clip-rule="nonzero"/></clipPath></defs><path fill="#00f3f7" d="M 193.195312 40.121094 C 193.195312 40.667969 193.140625 41.210938 193.035156 41.75 C 192.929688 42.285156 192.769531 42.808594 192.558594 43.3125 C 192.351562 43.820312 192.09375 44.300781 191.789062 44.753906 C 191.484375 45.210938 191.140625 45.632812 190.75 46.019531 C 190.363281 46.40625 189.941406 46.753906 189.488281 47.058594 C 189.03125 47.359375 188.550781 47.617188 188.046875 47.828125 C 187.539062 48.039062 187.019531 48.195312 186.480469 48.300781 C 185.945312 48.410156 185.402344 48.460938 184.851562 48.460938 C 184.304688 48.460938 183.761719 48.410156 183.226562 48.300781 C 182.6875 48.195312 182.167969 48.039062 181.660156 47.828125 C 181.15625 47.617188 180.675781 47.359375 180.21875 47.058594 C 179.761719 46.753906 179.34375 46.40625 178.953125 46.019531 C 178.566406 45.632812 178.222656 45.210938 177.917969 44.753906 C 177.613281 44.300781 177.355469 43.820312 177.144531 43.3125 C 176.9375 42.808594 176.777344 42.285156 176.671875 41.75 C 176.566406 41.210938 176.511719 40.667969 176.511719 40.121094 C 176.511719 39.574219 176.566406 39.03125 176.671875 38.492188 C 176.777344 37.957031 176.9375 37.433594 177.144531 36.929688 C 177.355469 36.421875 177.613281 35.941406 177.917969 35.488281 C 178.222656 35.03125 178.566406 34.609375 178.953125 34.222656 C 179.34375 33.835938 179.761719 33.488281 180.21875 33.183594 C 180.675781 32.878906 181.15625 32.625 181.660156 32.414062 C 182.167969 32.203125 182.6875 32.046875 183.226562 31.9375 C 183.761719 31.832031 184.304688 31.777344 184.851562 31.777344 C 185.402344 31.777344 185.945312 31.832031 186.480469 31.9375 C 187.019531 32.046875 187.539062 32.203125 188.046875 32.414062 C 188.550781 32.625 189.03125 32.878906 189.488281 33.183594 C 189.941406 33.488281 190.363281 33.835938 190.75 34.222656 C 191.140625 34.609375 191.484375 35.03125 191.789062 35.488281 C 192.09375 35.941406 192.351562 36.421875 192.558594 36.929688 C 192.769531 37.433594 192.929688 37.957031 193.035156 38.492188 C 193.140625 39.03125 193.195312 39.574219 193.195312 40.121094 Z M 193.195312 40.121094 " fill-opacity="1" fill-rule="nonzero"/><path fill="#00f3f7" d="M 159.828125 337.648438 C 159.828125 340.707031 162.328125 343.210938 165.390625 343.210938 L 204.316406 343.210938 C 207.375 343.210938 209.878906 340.707031 209.878906 337.648438 C 209.878906 334.589844 207.375 332.089844 204.316406 332.089844 L 165.390625 332.089844 C 162.328125 332.089844 159.828125 334.589844 159.828125 337.648438 Z M 159.828125 337.648438 " fill-opacity="1" fill-rule="nonzero"/><path fill="#00f3f7" d="M 212.101562 205.011719 C 223.226562 196.394531 229.34375 183.324219 229.34375 169.144531 C 229.34375 156.351562 224.058594 144.117188 214.882812 135.496094 C 205.707031 127.15625 194.03125 122.984375 181.792969 123.816406 C 159.828125 125.488281 142.03125 143.5625 140.640625 166.082031 C 139.808594 181.378906 146.203125 195.835938 157.882812 205.011719 C 161.21875 207.792969 163.164062 211.410156 163.164062 215.578125 L 163.164062 223.921875 C 163.164062 228.925781 167.058594 234.765625 172.894531 234.765625 L 197.089844 234.765625 C 202.925781 234.765625 206.542969 229.203125 206.542969 223.921875 L 206.542969 215.855469 C 206.542969 211.964844 208.488281 207.792969 212.101562 205.011719 Z M 205.152344 196.113281 C 199.035156 200.84375 195.417969 208.351562 195.417969 215.855469 L 195.417969 223.644531 L 174.285156 223.644531 L 174.285156 215.578125 C 174.285156 208.070312 170.949219 201.121094 164.832031 196.113281 C 155.933594 189.164062 151.207031 178.039062 151.761719 166.640625 C 152.875 149.679688 166.222656 135.773438 182.628906 134.664062 C 191.804688 134.105469 200.703125 137.164062 207.375 143.5625 C 214.328125 149.957031 218.222656 159.410156 218.222656 169.144531 C 218.222656 179.710938 213.492188 189.71875 205.152344 196.113281 Z M 205.152344 196.113281 " fill-opacity="1" fill-rule="nonzero"/><path fill="#00f3f7" d="M 201.535156 248.667969 C 201.535156 245.609375 199.035156 243.109375 195.976562 243.109375 L 173.730469 243.109375 C 170.671875 243.109375 168.167969 245.609375 168.167969 248.667969 C 168.167969 251.726562 170.671875 254.230469 173.730469 254.230469 L 195.976562 254.230469 C 199.035156 254.230469 201.535156 251.726562 201.535156 248.667969 Z M 201.535156 248.667969 " fill-opacity="1" fill-rule="nonzero"/><path fill="#00f3f7" d="M 176.511719 262.570312 C 173.453125 262.570312 170.949219 265.074219 170.949219 268.132812 C 170.949219 271.191406 173.453125 273.695312 176.511719 273.695312 L 193.195312 273.695312 C 196.253906 273.695312 198.757812 271.191406 198.757812 268.132812 C 198.757812 265.074219 196.253906 262.570312 193.195312 262.570312 Z M 176.511719 262.570312 " fill-opacity="1" fill-rule="nonzero"/><path fill="#00f3f7" d="M 179.292969 95.734375 L 179.292969 109.359375 C 179.292969 112.417969 181.792969 114.921875 184.851562 114.921875 C 187.910156 114.921875 190.414062 112.417969 190.414062 109.359375 L 190.414062 95.734375 C 190.414062 92.675781 187.910156 90.171875 184.851562 90.171875 C 181.792969 90.171875 179.292969 92.675781 179.292969 95.734375 Z M 179.292969 95.734375 " fill-opacity="1" fill-rule="nonzero"/><path fill="#00f3f7" d="M 251.589844 159.6875 L 241.023438 159.6875 C 237.964844 159.6875 235.460938 162.191406 235.460938 165.25 C 235.460938 168.308594 237.964844 170.8125 241.023438 170.8125 L 251.589844 170.8125 C 254.648438 170.8125 257.148438 168.308594 257.148438 165.25 C 257.148438 162.191406 254.648438 159.6875 251.589844 159.6875 Z M 251.589844 159.6875 " fill-opacity="1" fill-rule="nonzero"/><path fill="#00f3f7" d="M 118.117188 170.8125 L 128.683594 170.8125 C 131.742188 170.8125 134.246094 168.308594 134.246094 165.25 C 134.246094 162.191406 131.742188 159.6875 128.683594 159.6875 L 118.117188 159.6875 C 115.058594 159.6875 112.554688 162.191406 112.554688 165.25 C 112.554688 168.308594 115.058594 170.8125 118.117188 170.8125 Z M 118.117188 170.8125 " fill-opacity="1" fill-rule="nonzero"/><path fill="#00f3f7" d="M 148.148438 128.546875 C 150.375 126.320312 150.375 122.984375 148.148438 120.757812 L 140.640625 112.972656 C 138.417969 110.75 135.078125 110.75 132.855469 112.972656 C 130.628906 115.199219 130.628906 118.535156 132.855469 120.757812 L 140.363281 128.546875 C 141.476562 129.65625 142.867188 130.214844 144.257812 130.214844 C 145.644531 129.9375 147.035156 129.378906 148.148438 128.546875 Z M 148.148438 128.546875 " fill-opacity="1" fill-rule="nonzero"/><path fill="#00f3f7" d="M 232.125 124.652344 L 232.125 112.140625 C 230.734375 112.140625 229.34375 112.695312 228.507812 113.808594 L 221 121.59375 C 218.777344 123.816406 218.777344 127.433594 221 129.378906 C 222.113281 130.492188 223.503906 131.046875 224.894531 131.046875 C 226.285156 131.046875 227.675781 130.492188 228.789062 129.378906 L 231.847656 126.042969 C 232.125 125.488281 232.125 125.207031 232.125 124.652344 Z M 232.125 124.652344 " fill-opacity="1" fill-rule="nonzero"/><path fill="#00f3f7" d="M 243.246094 65.425781 L 243.246094 124.652344 C 243.246094 131.882812 248.808594 137.441406 256.039062 137.441406 L 275.78125 137.441406 L 269.105469 154.960938 C 268.273438 157.1875 268.828125 159.6875 270.773438 161.355469 C 271.886719 162.191406 273 162.46875 274.113281 162.46875 C 275.222656 162.46875 276.335938 162.191406 277.171875 161.636719 L 313.039062 137.441406 L 341.125 137.441406 C 348.355469 137.441406 353.917969 131.605469 353.917969 124.375 L 353.917969 65.425781 C 353.917969 57.917969 348.078125 51.242188 340.847656 51.242188 L 256.316406 51.242188 C 249.085938 51.242188 243.246094 57.640625 243.246094 65.425781 Z M 343.351562 65.425781 L 343.351562 124.375 C 343.351562 125.488281 342.515625 126.320312 341.679688 126.320312 L 311.929688 126.320312 C 310.816406 126.320312 309.703125 126.597656 308.871094 127.15625 L 285.789062 142.449219 L 289.128906 133.550781 C 289.683594 131.882812 289.40625 129.9375 288.570312 128.546875 C 287.457031 127.15625 285.789062 126.042969 284.121094 126.042969 L 256.316406 126.042969 C 254.371094 126.320312 254.371094 124.929688 254.371094 124.652344 L 254.371094 65.425781 C 254.371094 63.757812 255.480469 62.367188 256.316406 62.367188 L 341.679688 62.367188 C 342.238281 62.367188 343.351562 63.757812 343.351562 65.425781 Z M 343.351562 65.425781 " fill-opacity="1" fill-rule="nonzero"/><g clip-path="url(#a7cd0745c9)"><path fill="#00f3f7" d="M 22.464844 276.476562 L 50.546875 276.476562 L 86.417969 300.667969 C 87.253906 301.222656 88.363281 301.5 89.476562 301.5 C 90.589844 301.5 91.980469 301.222656 92.8125 300.390625 C 94.761719 299 95.316406 296.21875 94.484375 293.992188 L 88.363281 276.476562 L 108.109375 276.476562 C 115.335938 276.476562 120.898438 270.914062 120.898438 263.683594 L 120.898438 204.457031 C 120.898438 196.949219 115.058594 190.277344 107.828125 190.277344 L 22.742188 190.277344 C 15.511719 190.277344 9.671875 196.671875 9.671875 204.457031 L 9.671875 263.40625 C 9.671875 270.636719 15.234375 276.476562 22.464844 276.476562 Z M 20.796875 204.457031 C 20.796875 202.789062 21.90625 201.398438 22.742188 201.398438 L 108.109375 201.398438 C 108.664062 201.398438 110.054688 202.789062 110.054688 204.457031 L 110.054688 263.683594 C 110.054688 263.960938 110.054688 265.351562 108.386719 265.351562 L 80.578125 265.351562 C 78.632812 265.351562 76.964844 266.1875 76.128906 267.855469 C 75.019531 269.246094 74.738281 271.191406 75.574219 272.859375 L 78.910156 281.757812 L 55.832031 266.464844 C 54.996094 265.910156 53.886719 265.628906 52.773438 265.628906 L 22.464844 265.628906 C 21.628906 265.351562 20.796875 264.519531 20.796875 263.40625 Z M 20.796875 204.457031 " fill-opacity="1" fill-rule="nonzero"/></g><path fill="#00f3f7" d="M 271.054688 173.3125 L 271.054688 204.179688 L 282.175781 204.179688 L 282.175781 171.644531 C 279.671875 173.035156 277.171875 173.589844 274.390625 173.589844 C 273.277344 173.589844 272.164062 173.3125 271.054688 173.3125 Z M 271.054688 173.3125 " fill-opacity="1" fill-rule="nonzero"/><g clip-path="url(#5797598631)"><path fill="#00f3f7" d="M 285.511719 326.527344 C 286.625 326.527344 287.738281 326.25 288.570312 325.691406 L 324.441406 301.5 L 352.527344 301.5 C 359.753906 301.5 365.316406 295.660156 365.316406 288.433594 L 365.316406 229.484375 C 365.316406 221.976562 359.476562 215.300781 352.246094 215.300781 L 267.4375 215.300781 C 260.488281 215.300781 254.371094 221.695312 254.371094 229.484375 L 254.371094 288.710938 C 254.371094 295.941406 259.929688 301.5 267.160156 301.5 L 286.902344 301.5 L 280.230469 319.019531 C 279.394531 321.242188 279.949219 323.746094 281.898438 325.414062 C 283.289062 326.25 284.398438 326.527344 285.511719 326.527344 Z M 352.804688 290.378906 L 339.734375 290.378906 C 339.457031 289.824219 338.902344 288.988281 338.34375 288.710938 L 321.660156 275.917969 L 336.121094 261.460938 L 354.75 273.972656 L 354.75 288.433594 C 354.472656 289.542969 353.636719 290.378906 352.804688 290.378906 Z M 267.4375 226.421875 L 352.804688 226.421875 C 353.359375 226.421875 354.75 227.8125 354.75 229.484375 L 354.75 260.625 L 338.34375 249.78125 C 338.066406 249.503906 337.789062 249.503906 337.511719 249.226562 C 336.398438 248.667969 335.285156 248.667969 334.171875 248.667969 C 333.894531 248.667969 333.617188 248.945312 333.339844 248.945312 C 332.785156 249.226562 331.949219 249.503906 331.394531 250.058594 L 312.761719 268.691406 L 296.914062 256.453125 C 295.800781 255.621094 294.6875 255.34375 293.296875 255.34375 C 292.1875 255.34375 290.796875 255.621094 289.960938 256.453125 L 265.492188 273.695312 L 265.492188 229.484375 C 265.492188 227.8125 266.605469 226.421875 267.4375 226.421875 Z M 267.160156 290.378906 C 265.492188 290.378906 265.492188 288.988281 265.492188 288.710938 L 265.492188 287.320312 L 293.019531 267.855469 L 322.21875 290.378906 C 321.382812 290.378906 320.546875 290.65625 319.992188 291.210938 L 296.914062 306.507812 L 300.25 297.609375 C 300.804688 295.941406 300.527344 293.992188 299.695312 292.601562 C 298.582031 291.210938 296.914062 290.101562 295.246094 290.101562 L 267.160156 290.101562 Z M 267.160156 290.378906 " fill-opacity="1" fill-rule="nonzero"/></g><path fill="#00f3f7" d="M 287.457031 106.023438 C 288.292969 106.578125 289.40625 106.855469 290.515625 106.855469 C 291.351562 106.855469 292.1875 106.578125 293.019531 106.300781 L 309.703125 97.957031 C 311.648438 97.125 312.761719 95.175781 312.761719 92.953125 C 312.761719 90.730469 311.648438 88.78125 309.703125 87.949219 L 293.019531 79.605469 C 291.351562 78.773438 289.128906 78.773438 287.738281 79.882812 C 286.070312 80.996094 285.234375 82.664062 285.234375 84.609375 L 285.234375 101.296875 C 284.957031 103.242188 286.070312 104.910156 287.457031 106.023438 Z M 287.457031 106.023438 " fill-opacity="1" fill-rule="nonzero"/><path fill="#00f3f7" d="M 287.738281 240.328125 C 287.738281 240.691406 287.703125 241.054688 287.628906 241.410156 C 287.558594 241.769531 287.453125 242.117188 287.3125 242.457031 C 287.171875 242.792969 287.003906 243.113281 286.800781 243.417969 C 286.597656 243.71875 286.367188 244 286.109375 244.257812 C 285.851562 244.519531 285.570312 244.75 285.265625 244.949219 C 284.960938 245.152344 284.640625 245.324219 284.304688 245.464844 C 283.964844 245.605469 283.617188 245.710938 283.261719 245.78125 C 282.902344 245.851562 282.539062 245.886719 282.175781 245.886719 C 281.808594 245.886719 281.449219 245.851562 281.089844 245.78125 C 280.734375 245.710938 280.382812 245.605469 280.046875 245.464844 C 279.710938 245.324219 279.390625 245.152344 279.085938 244.949219 C 278.78125 244.75 278.5 244.519531 278.242188 244.257812 C 277.984375 244 277.753906 243.71875 277.550781 243.417969 C 277.347656 243.113281 277.175781 242.792969 277.039062 242.457031 C 276.898438 242.117188 276.792969 241.769531 276.722656 241.410156 C 276.648438 241.054688 276.613281 240.691406 276.613281 240.328125 C 276.613281 239.960938 276.648438 239.601562 276.722656 239.242188 C 276.792969 238.882812 276.898438 238.535156 277.039062 238.199219 C 277.175781 237.863281 277.347656 237.539062 277.550781 237.238281 C 277.753906 236.933594 277.984375 236.652344 278.242188 236.394531 C 278.5 236.136719 278.78125 235.90625 279.085938 235.703125 C 279.390625 235.5 279.710938 235.328125 280.046875 235.1875 C 280.382812 235.050781 280.734375 234.945312 281.089844 234.871094 C 281.449219 234.800781 281.808594 234.765625 282.175781 234.765625 C 282.539062 234.765625 282.902344 234.800781 283.261719 234.871094 C 283.617188 234.945312 283.964844 235.050781 284.304688 235.1875 C 284.640625 235.328125 284.960938 235.5 285.265625 235.703125 C 285.570312 235.90625 285.851562 236.136719 286.109375 236.394531 C 286.367188 236.652344 286.597656 236.933594 286.800781 237.238281 C 287.003906 237.539062 287.171875 237.863281 287.3125 238.199219 C 287.453125 238.535156 287.558594 238.882812 287.628906 239.242188 C 287.703125 239.601562 287.738281 239.960938 287.738281 240.328125 Z M 287.738281 240.328125 " fill-opacity="1" fill-rule="nonzero"/><path fill="#00f3f7" d="M 44.429688 251.449219 C 44.988281 251.449219 45.542969 251.449219 46.097656 251.171875 C 58.335938 247.835938 59.722656 236.710938 59.722656 223.644531 L 70.847656 223.644531 C 70.847656 238.101562 70.011719 241.996094 65.285156 243.386719 C 62.226562 244.21875 60.558594 247.277344 61.394531 250.335938 C 62.226562 252.839844 64.453125 254.507812 66.675781 254.507812 C 67.230469 254.507812 67.789062 254.507812 68.34375 254.230469 C 82.246094 250.335938 82.246094 236.710938 82.246094 221.140625 C 82.246094 220.585938 82.246094 220.304688 81.96875 219.75 C 81.96875 219.195312 82.246094 218.917969 82.246094 218.359375 C 82.246094 215.300781 79.746094 212.796875 76.6875 212.796875 L 54.441406 212.796875 C 51.382812 212.796875 48.878906 215.300781 48.878906 218.359375 C 48.878906 235.042969 48.324219 239.492188 43.320312 240.882812 C 40.261719 241.71875 38.589844 244.777344 39.425781 247.835938 C 39.703125 249.78125 41.929688 251.449219 44.429688 251.449219 Z M 44.429688 251.449219 " fill-opacity="1" fill-rule="nonzero"/><g clip-path="url(#555c8941e1)"><path fill="#00f3f7" d="M 89.753906 312.625 C 88.921875 312.625 88.363281 312.625 87.53125 312.34375 L 87.53125 348.773438 C 87.53125 357.949219 95.039062 365.457031 104.214844 365.457031 L 265.492188 365.457031 C 274.667969 365.457031 282.175781 357.949219 282.175781 348.773438 L 282.175781 337.371094 C 279.671875 336.816406 277.449219 335.703125 275.222656 334.035156 C 273.554688 332.644531 272.164062 330.976562 271.054688 329.03125 L 271.054688 348.773438 C 271.054688 351.832031 268.550781 354.332031 265.492188 354.332031 L 104.214844 354.332031 C 101.15625 354.332031 98.652344 351.832031 98.652344 348.773438 L 98.652344 309.84375 C 95.871094 311.789062 92.8125 312.625 89.753906 312.625 Z M 89.753906 312.625 " fill-opacity="1" fill-rule="nonzero"/></g><g clip-path="url(#c9562dcfc4)"><path fill="#00f3f7" d="M 265.492188 9.535156 L 104.214844 9.535156 C 95.039062 9.535156 87.53125 17.042969 87.53125 26.21875 L 87.53125 179.152344 L 98.652344 179.152344 L 98.652344 26.21875 C 98.652344 23.160156 101.15625 20.65625 104.214844 20.65625 L 265.492188 20.65625 C 268.550781 20.65625 271.054688 23.160156 271.054688 26.21875 L 271.054688 40.121094 L 282.175781 40.121094 L 282.175781 26.21875 C 282.175781 17.042969 274.667969 9.535156 265.492188 9.535156 Z M 265.492188 9.535156 " fill-opacity="1" fill-rule="nonzero"/></g></svg>