<svg xmlns="http://www.w3.org/2000/svg" xmlns:xlink="http://www.w3.org/1999/xlink" width="500" zoomAndPan="magnify" viewBox="0 0 375 374.999991" height="500" preserveAspectRatio="xMidYMid meet" version="1.0"><defs><clipPath id="4be1585c82"><path d="M 297 141 L 368.75 141 L 368.75 220 L 297 220 Z M 297 141 " clip-rule="nonzero"/></clipPath><clipPath id="93b32b666f"><path d="M 228 281 L 340 281 L 340 361.09375 L 228 361.09375 Z M 228 281 " clip-rule="nonzero"/></clipPath><clipPath id="f46d98a2d9"><path d="M 6.5 142 L 81 142 L 81 222 L 6.5 222 Z M 6.5 142 " clip-rule="nonzero"/></clipPath><clipPath id="48b1ca9714"><path d="M 78 288 L 140 288 L 140 361.09375 L 78 361.09375 Z M 78 288 " clip-rule="nonzero"/></clipPath></defs><path fill="#00f3f7" d="M 245.777344 48.675781 C 245.777344 50.679688 247.398438 52.300781 249.402344 52.300781 L 261.359375 52.300781 C 263.359375 52.300781 264.980469 50.679688 264.980469 48.675781 C 264.980469 46.675781 263.359375 45.050781 261.359375 45.050781 L 249.402344 45.050781 C 247.398438 45.050781 245.777344 46.675781 245.777344 48.675781 Z M 245.777344 48.675781 " fill-opacity="1" fill-rule="nonzero"/><path fill="#00f3f7" d="M 248.203125 44.011719 C 248.964844 44.011719 249.734375 43.773438 250.390625 43.277344 L 259.921875 36.054688 C 261.515625 34.847656 261.828125 32.574219 260.621094 30.976562 C 259.410156 29.382812 257.136719 29.070312 255.542969 30.277344 L 246.011719 37.5 C 244.417969 38.707031 244.101562 40.980469 245.3125 42.578125 C 246.023438 43.515625 247.109375 44.011719 248.203125 44.011719 Z M 248.203125 44.011719 " fill-opacity="1" fill-rule="nonzero"/><path fill="#00f3f7" d="M 259.921875 61.296875 L 250.390625 54.078125 C 248.796875 52.867188 246.519531 53.179688 245.3125 54.777344 C 244.105469 56.371094 244.417969 58.644531 246.011719 59.855469 L 255.542969 67.074219 C 256.199219 67.570312 256.964844 67.8125 257.730469 67.8125 C 258.824219 67.8125 259.910156 67.316406 260.621094 66.375 C 261.828125 64.78125 261.515625 62.507812 259.921875 61.296875 Z M 259.921875 61.296875 " fill-opacity="1" fill-rule="nonzero"/><g clip-path="url(#4be1585c82)"><path fill="#00f3f7" d="M 364.859375 143.464844 L 327.839844 143.464844 C 327.625 142.890625 327.410156 142.3125 327.191406 141.738281 L 322.691406 143.464844 L 301.316406 143.464844 C 299.3125 143.464844 297.691406 145.089844 297.691406 147.089844 L 297.691406 195.882812 C 297.691406 197.882812 299.3125 199.507812 301.316406 199.507812 L 315.964844 199.507812 L 315.964844 216.097656 C 315.964844 217.589844 316.882812 218.933594 318.273438 219.476562 C 318.703125 219.640625 319.148438 219.722656 319.589844 219.722656 C 320.582031 219.722656 321.558594 219.3125 322.257812 218.550781 L 328.851562 211.382812 C 328.679688 212.90625 328.476562 214.429688 328.257812 215.933594 L 335.425781 216.992188 C 335.746094 214.847656 336.019531 212.667969 336.242188 210.507812 L 330.230469 209.886719 L 334.414062 205.339844 L 336.671875 205.496094 C 336.738281 204.570312 336.792969 203.632812 336.839844 202.703125 L 339.78125 199.503906 L 364.859375 199.503906 C 366.863281 199.503906 368.484375 197.882812 368.484375 195.878906 L 368.484375 147.089844 C 368.484375 145.089844 366.859375 143.464844 364.859375 143.464844 Z M 361.234375 192.257812 L 338.191406 192.257812 C 337.179688 192.257812 336.210938 192.679688 335.523438 193.425781 L 323.214844 206.804688 L 323.214844 195.882812 C 323.214844 193.878906 321.589844 192.257812 319.589844 192.257812 L 304.941406 192.257812 L 304.941406 150.714844 L 361.234375 150.714844 Z M 361.234375 192.257812 " fill-opacity="1" fill-rule="nonzero"/></g><path fill="#00f3f7" d="M 312.375 188.808594 C 314.257812 189.492188 316.335938 188.523438 317.019531 186.640625 L 318.542969 182.449219 L 327.261719 182.449219 L 328.785156 186.640625 C 329.320312 188.113281 330.710938 189.03125 332.191406 189.03125 C 332.601562 189.03125 333.019531 188.960938 333.429688 188.8125 C 335.3125 188.128906 336.28125 186.050781 335.597656 184.167969 L 335.390625 183.597656 C 337.035156 187 340.523438 189.355469 344.550781 189.355469 C 346.207031 189.355469 347.773438 188.957031 349.15625 188.25 C 349.773438 188.738281 350.550781 189.027344 351.398438 189.027344 C 353.398438 189.027344 355.023438 187.40625 355.023438 185.402344 L 355.023438 159.828125 C 355.023438 157.824219 353.398438 156.203125 351.398438 156.203125 C 349.394531 156.203125 347.773438 157.824219 347.773438 159.828125 L 347.773438 169.546875 C 346.761719 169.207031 345.675781 169.023438 344.550781 169.023438 C 338.945312 169.023438 334.386719 173.585938 334.386719 179.191406 C 334.386719 180.046875 334.492188 180.878906 334.691406 181.671875 L 326.308594 158.589844 C 325.789062 157.15625 324.429688 156.203125 322.902344 156.203125 C 321.378906 156.203125 320.015625 157.15625 319.496094 158.589844 L 310.207031 184.167969 C 309.523438 186.046875 310.492188 188.125 312.375 188.808594 Z M 344.550781 176.273438 C 346.160156 176.273438 347.46875 177.582031 347.46875 179.1875 C 347.46875 180.796875 346.160156 182.105469 344.550781 182.105469 C 342.941406 182.105469 341.632812 180.796875 341.632812 179.1875 C 341.632812 177.582031 342.941406 176.273438 344.550781 176.273438 Z M 322.902344 170.445312 L 324.628906 175.199219 L 321.175781 175.199219 Z M 322.902344 170.445312 " fill-opacity="1" fill-rule="nonzero"/><path fill="#00f3f7" d="M 57.09375 178.453125 L 37.097656 166.90625 C 35.972656 166.257812 34.59375 166.257812 33.472656 166.90625 C 32.351562 167.554688 31.660156 168.75 31.660156 170.042969 L 31.660156 193.136719 C 31.660156 194.429688 32.351562 195.625 33.472656 196.273438 C 34.03125 196.597656 34.65625 196.761719 35.285156 196.761719 C 35.910156 196.761719 36.535156 196.597656 37.097656 196.273438 L 57.09375 184.726562 C 58.214844 184.082031 58.90625 182.882812 58.90625 181.589844 C 58.90625 180.296875 58.214844 179.097656 57.09375 178.453125 Z M 38.90625 186.859375 L 38.90625 176.324219 L 48.03125 181.589844 Z M 38.90625 186.859375 " fill-opacity="1" fill-rule="nonzero"/><path fill="#00f3f7" d="M 62.09375 156.601562 L 68.398438 156.601562 L 68.398438 162.25 L 62.09375 162.25 Z M 62.09375 156.601562 " fill-opacity="1" fill-rule="nonzero"/><path fill="#00f3f7" d="M 17.460938 156.601562 L 23.765625 156.601562 L 23.765625 162.25 L 17.460938 162.25 Z M 17.460938 156.601562 " fill-opacity="1" fill-rule="nonzero"/><path fill="#00f3f7" d="M 28.617188 156.601562 L 34.925781 156.601562 L 34.925781 162.25 L 28.617188 162.25 Z M 28.617188 156.601562 " fill-opacity="1" fill-rule="nonzero"/><path fill="#00f3f7" d="M 50.933594 156.601562 L 57.242188 156.601562 L 57.242188 162.25 L 50.933594 162.25 Z M 50.933594 156.601562 " fill-opacity="1" fill-rule="nonzero"/><path fill="#00f3f7" d="M 39.777344 156.601562 L 46.082031 156.601562 L 46.082031 162.25 L 39.777344 162.25 Z M 39.777344 156.601562 " fill-opacity="1" fill-rule="nonzero"/><path fill="#00f3f7" d="M 39.777344 201.320312 L 46.082031 201.320312 L 46.082031 206.96875 L 39.777344 206.96875 Z M 39.777344 201.320312 " fill-opacity="1" fill-rule="nonzero"/><path fill="#00f3f7" d="M 62.09375 201.320312 L 68.398438 201.320312 L 68.398438 206.96875 L 62.09375 206.96875 Z M 62.09375 201.320312 " fill-opacity="1" fill-rule="nonzero"/><path fill="#00f3f7" d="M 28.617188 201.320312 L 34.925781 201.320312 L 34.925781 206.96875 L 28.617188 206.96875 Z M 28.617188 201.320312 " fill-opacity="1" fill-rule="nonzero"/><path fill="#00f3f7" d="M 50.933594 201.320312 L 57.242188 201.320312 L 57.242188 206.96875 L 50.933594 206.96875 Z M 50.933594 201.320312 " fill-opacity="1" fill-rule="nonzero"/><path fill="#00f3f7" d="M 17.460938 201.320312 L 23.765625 201.320312 L 23.765625 206.96875 L 17.460938 206.96875 Z M 17.460938 201.320312 " fill-opacity="1" fill-rule="nonzero"/><path fill="#00f3f7" d="M 89.394531 314.785156 C 89.394531 316.554688 90.828125 317.988281 92.597656 317.988281 L 123.222656 317.988281 C 124.992188 317.988281 126.425781 316.554688 126.425781 314.785156 C 126.425781 313.019531 124.992188 311.585938 123.222656 311.585938 L 92.597656 311.585938 C 90.828125 311.585938 89.394531 313.019531 89.394531 314.785156 Z M 89.394531 314.785156 " fill-opacity="1" fill-rule="nonzero"/><path fill="#00f3f7" d="M 123.222656 322.441406 L 92.597656 322.441406 C 90.828125 322.441406 89.394531 323.875 89.394531 325.644531 C 89.394531 327.410156 90.828125 328.84375 92.597656 328.84375 L 123.222656 328.84375 C 124.992188 328.84375 126.425781 327.410156 126.425781 325.644531 C 126.425781 323.875 124.992188 322.441406 123.222656 322.441406 Z M 123.222656 322.441406 " fill-opacity="1" fill-rule="nonzero"/><path fill="#00f3f7" d="M 123.222656 333.296875 L 92.597656 333.296875 C 90.828125 333.296875 89.394531 334.730469 89.394531 336.5 C 89.394531 338.265625 90.828125 339.699219 92.597656 339.699219 L 123.222656 339.699219 C 124.992188 339.699219 126.425781 338.265625 126.425781 336.5 C 126.425781 334.730469 124.992188 333.296875 123.222656 333.296875 Z M 123.222656 333.296875 " fill-opacity="1" fill-rule="nonzero"/><path fill="#00f3f7" d="M 123.222656 344.152344 L 92.597656 344.152344 C 90.828125 344.152344 89.394531 345.585938 89.394531 347.355469 C 89.394531 349.125 90.828125 350.554688 92.597656 350.554688 L 123.222656 350.554688 C 124.992188 350.554688 126.425781 349.125 126.425781 347.355469 C 126.425781 345.585938 124.992188 344.152344 123.222656 344.152344 Z M 123.222656 344.152344 " fill-opacity="1" fill-rule="nonzero"/><g clip-path="url(#93b32b666f)"><path fill="#00f3f7" d="M 337.199219 303.460938 L 325.335938 298.347656 L 329.007812 285.960938 C 329.363281 284.753906 328.980469 283.445312 328.027344 282.625 C 327.070312 281.804688 325.722656 281.617188 324.582031 282.152344 L 305.628906 291.023438 C 304.800781 291.410156 304.175781 292.136719 303.917969 293.011719 L 299.84375 306.746094 L 294.503906 309.246094 C 293.28125 307.152344 291.839844 305.195312 290.195312 303.390625 C 290.628906 302.980469 291.0625 302.570312 291.492188 302.15625 L 286.464844 296.933594 C 285.902344 297.476562 285.328125 298.019531 284.753906 298.554688 C 282.695312 297.082031 280.480469 295.839844 278.128906 294.84375 C 273.871094 293.042969 269.351562 292.128906 264.695312 292.128906 C 260.039062 292.128906 255.519531 293.042969 251.265625 294.84375 C 247.15625 296.582031 243.464844 299.070312 240.296875 302.238281 C 237.128906 305.40625 234.640625 309.09375 232.90625 313.203125 C 231.105469 317.460938 230.191406 321.980469 230.191406 326.636719 C 230.191406 327.816406 230.25 328.992188 230.367188 330.15625 C 229.644531 330.382812 228.917969 330.601562 228.199219 330.8125 L 230.242188 337.769531 C 230.777344 337.609375 231.320312 337.449219 231.863281 337.28125 C 232.171875 338.222656 232.515625 339.152344 232.90625 340.066406 C 234.640625 344.175781 237.128906 347.867188 240.296875 351.035156 C 243.464844 354.199219 247.15625 356.6875 251.265625 358.425781 C 255.519531 360.226562 260.039062 361.140625 264.695312 361.140625 C 269.351562 361.140625 273.871094 360.226562 278.128906 358.425781 C 282.238281 356.6875 285.925781 354.203125 289.09375 351.035156 C 292.261719 347.867188 294.75 344.175781 296.488281 340.066406 C 298.289062 335.808594 299.199219 331.292969 299.199219 326.636719 C 299.199219 322.644531 298.53125 318.757812 297.207031 315.046875 L 302.558594 312.542969 L 315.710938 318.210938 C 316.117188 318.386719 316.546875 318.472656 316.980469 318.472656 C 317.441406 318.472656 317.90625 318.371094 318.335938 318.171875 L 337.289062 309.296875 C 338.429688 308.765625 339.152344 307.609375 339.132812 306.351562 C 339.113281 305.089844 338.355469 303.960938 337.199219 303.460938 Z M 284.566406 346.507812 C 279.257812 351.816406 272.203125 354.738281 264.695312 354.738281 C 257.1875 354.738281 250.132812 351.816406 244.824219 346.507812 C 239.515625 341.199219 236.59375 334.140625 236.59375 326.636719 C 236.59375 319.128906 239.515625 312.070312 244.824219 306.761719 C 250.132812 301.457031 257.1875 298.53125 264.695312 298.53125 C 272.203125 298.53125 279.257812 301.457031 284.566406 306.761719 C 286.15625 308.351562 287.53125 310.101562 288.679688 311.96875 L 284.0625 314.132812 C 283.183594 312.777344 282.160156 311.507812 280.992188 310.339844 C 276.640625 305.988281 270.851562 303.589844 264.695312 303.589844 C 258.539062 303.589844 252.753906 305.988281 248.402344 310.339844 C 244.046875 314.691406 241.652344 320.480469 241.652344 326.636719 C 241.652344 332.789062 244.046875 338.578125 248.402344 342.929688 C 252.753906 347.285156 258.539062 349.679688 264.695312 349.679688 C 270.851562 349.679688 276.640625 347.285156 280.992188 342.929688 C 285.34375 338.578125 287.742188 332.789062 287.742188 326.636719 C 287.742188 324.332031 287.40625 322.082031 286.757812 319.9375 L 291.378906 317.773438 C 292.3125 320.59375 292.796875 323.578125 292.796875 326.636719 C 292.796875 334.140625 289.875 341.199219 284.566406 346.507812 Z M 262.039062 327.976562 C 262.585938 329.136719 263.738281 329.820312 264.941406 329.820312 C 265.394531 329.820312 265.859375 329.722656 266.296875 329.515625 L 269.722656 327.914062 C 269.152344 330.15625 267.113281 331.820312 264.695312 331.820312 C 261.835938 331.820312 259.511719 329.496094 259.511719 326.636719 C 259.511719 323.777344 261.835938 321.449219 264.695312 321.449219 C 265.574219 321.449219 266.402344 321.671875 267.128906 322.058594 L 263.582031 323.71875 C 261.980469 324.46875 261.289062 326.375 262.039062 327.976562 Z M 264.695312 315.046875 C 258.304688 315.046875 253.109375 320.246094 253.109375 326.636719 C 253.109375 333.023438 258.304688 338.222656 264.695312 338.222656 C 271.085938 338.222656 276.28125 333.027344 276.28125 326.636719 C 276.28125 326.046875 276.238281 325.46875 276.152344 324.902344 L 280.867188 322.695312 C 281.175781 323.960938 281.339844 325.277344 281.339844 326.636719 C 281.339844 335.8125 273.875 343.28125 264.695312 343.28125 C 255.519531 343.28125 248.054688 335.8125 248.054688 326.636719 C 248.054688 317.457031 255.519531 309.992188 264.695312 309.992188 C 270.234375 309.992188 275.152344 312.714844 278.179688 316.886719 L 273.480469 319.085938 C 271.351562 316.617188 268.203125 315.046875 264.695312 315.046875 Z M 309.644531 296.210938 L 320.847656 290.96875 L 318.800781 297.871094 L 307.597656 303.113281 Z M 316.925781 311.765625 L 310.3125 308.914062 L 321.511719 303.671875 L 328.125 306.519531 Z M 316.925781 311.765625 " fill-opacity="1" fill-rule="nonzero"/></g><path fill="#00f3f7" d="M 231.351562 278.042969 C 231.351562 275.933594 229.640625 274.222656 227.53125 274.222656 L 210.542969 274.222656 L 210.542969 258.503906 L 270.511719 258.503906 C 272.621094 258.503906 274.332031 256.789062 274.332031 254.679688 L 274.332031 134.144531 C 274.332031 132.035156 272.621094 130.324219 270.511719 130.324219 L 108.605469 130.324219 C 106.496094 130.324219 104.785156 132.035156 104.785156 134.144531 L 104.785156 254.679688 C 104.785156 256.792969 106.496094 258.503906 108.605469 258.503906 L 168.574219 258.503906 L 168.574219 274.222656 L 151.585938 274.222656 C 149.476562 274.222656 147.765625 275.933594 147.765625 278.042969 C 147.765625 280.15625 149.476562 281.867188 151.585938 281.867188 L 227.53125 281.867188 C 229.640625 281.867188 231.351562 280.15625 231.351562 278.042969 Z M 112.429688 137.96875 L 266.6875 137.96875 L 266.6875 228.488281 L 112.429688 228.488281 Z M 202.898438 274.222656 L 176.21875 274.222656 L 176.21875 258.503906 L 202.898438 258.503906 Z M 206.722656 250.710938 L 172.394531 250.710938 C 172.03125 250.710938 171.675781 250.761719 171.339844 250.859375 L 112.429688 250.859375 L 112.429688 236.132812 L 266.6875 236.132812 L 266.6875 250.859375 L 207.777344 250.859375 C 207.441406 250.761719 207.085938 250.710938 206.722656 250.710938 Z M 206.722656 250.710938 " fill-opacity="1" fill-rule="nonzero"/><path fill="#00f3f7" d="M 70.398438 116.925781 L 64.359375 112.917969 C 63.210938 114.648438 62.085938 116.425781 61.007812 118.203125 L 67.210938 121.957031 C 68.234375 120.265625 69.308594 118.574219 70.398438 116.925781 Z M 70.398438 116.925781 " fill-opacity="1" fill-rule="nonzero"/><path fill="#00f3f7" d="M 90.652344 92.75 L 85.644531 87.507812 C 84.144531 88.941406 82.652344 90.425781 81.210938 91.921875 L 86.433594 96.949219 C 87.804688 95.527344 89.222656 94.113281 90.652344 92.75 Z M 90.652344 92.75 " fill-opacity="1" fill-rule="nonzero"/><path fill="#00f3f7" d="M 98.53125 85.765625 L 93.925781 80.167969 C 92.324219 81.484375 90.726562 82.855469 89.179688 84.242188 L 94.011719 89.640625 C 95.484375 88.324219 97.003906 87.019531 98.53125 85.765625 Z M 98.53125 85.765625 " fill-opacity="1" fill-rule="nonzero"/><path fill="#00f3f7" d="M 60.09375 135.285156 L 53.523438 132.21875 C 52.644531 134.101562 51.792969 136.03125 50.996094 137.949219 L 57.6875 140.734375 C 58.449219 138.910156 59.257812 137.078125 60.09375 135.285156 Z M 60.09375 135.285156 " fill-opacity="1" fill-rule="nonzero"/><path fill="#00f3f7" d="M 83.3125 100.300781 L 77.929688 95.441406 C 76.539062 96.984375 75.160156 98.574219 73.835938 100.171875 L 79.414062 104.800781 C 80.675781 103.28125 81.988281 101.765625 83.3125 100.300781 Z M 83.3125 100.300781 " fill-opacity="1" fill-rule="nonzero"/><path fill="#00f3f7" d="M 64.902344 125.914062 L 58.582031 122.367188 C 57.566406 124.179688 56.574219 126.035156 55.632812 127.886719 L 62.097656 131.167969 C 62.992188 129.40625 63.9375 127.636719 64.902344 125.914062 Z M 64.902344 125.914062 " fill-opacity="1" fill-rule="nonzero"/><path fill="#00f3f7" d="M 134.511719 64.203125 L 131.75 57.5 C 129.832031 58.292969 127.90625 59.132812 126.019531 60.003906 L 129.0625 66.585938 C 130.855469 65.757812 132.6875 64.957031 134.511719 64.203125 Z M 134.511719 64.203125 " fill-opacity="1" fill-rule="nonzero"/><path fill="#00f3f7" d="M 154.484375 57.679688 L 152.757812 50.640625 C 150.742188 51.136719 148.710938 51.679688 146.71875 52.257812 L 148.742188 59.21875 C 150.636719 58.667969 152.570312 58.152344 154.484375 57.679688 Z M 154.484375 57.679688 " fill-opacity="1" fill-rule="nonzero"/><path fill="#00f3f7" d="M 124.941406 68.570312 L 121.6875 62.09375 C 119.835938 63.023438 117.976562 64.007812 116.160156 65.015625 L 119.683594 71.351562 C 121.410156 70.390625 123.179688 69.457031 124.941406 68.570312 Z M 124.941406 68.570312 " fill-opacity="1" fill-rule="nonzero"/><path fill="#00f3f7" d="M 76.546875 108.375 L 70.820312 103.925781 C 69.546875 105.566406 68.289062 107.257812 67.085938 108.949219 L 72.992188 113.152344 C 74.140625 111.542969 75.335938 109.933594 76.546875 108.375 Z M 76.546875 108.375 " fill-opacity="1" fill-rule="nonzero"/><path fill="#00f3f7" d="M 144.375 60.566406 L 142.125 53.675781 C 140.152344 54.320312 138.167969 55.015625 136.222656 55.742188 L 138.765625 62.535156 C 140.613281 61.839844 142.503906 61.179688 144.375 60.566406 Z M 144.375 60.566406 " fill-opacity="1" fill-rule="nonzero"/><path fill="#00f3f7" d="M 106.902344 79.382812 L 102.722656 73.457031 C 101.027344 74.65625 99.335938 75.902344 97.691406 77.171875 L 102.113281 82.914062 C 103.675781 81.707031 105.289062 80.519531 106.902344 79.382812 Z M 106.902344 79.382812 " fill-opacity="1" fill-rule="nonzero"/><path fill="#00f3f7" d="M 115.722656 73.640625 L 111.996094 67.421875 C 110.214844 68.488281 108.433594 69.609375 106.699219 70.75 L 110.683594 76.804688 C 112.332031 75.71875 114.027344 74.65625 115.722656 73.640625 Z M 115.722656 73.640625 " fill-opacity="1" fill-rule="nonzero"/><path fill="#00f3f7" d="M 159.820312 56.480469 C 162.242188 61.789062 167.40625 65.597656 173.492188 66.078125 L 173.492188 87.617188 C 173.492188 92.480469 177.449219 96.441406 182.316406 96.441406 L 183.171875 96.441406 C 188.039062 96.441406 191.996094 92.480469 191.996094 87.617188 L 191.996094 66.128906 L 198.566406 66.128906 C 198.695312 66.171875 198.832031 66.207031 198.96875 66.234375 C 209.449219 68.292969 219.167969 73.167969 227.082031 80.339844 L 231.300781 84.164062 C 231.980469 84.78125 232.851562 85.105469 233.734375 85.105469 C 234.230469 85.105469 234.730469 85.003906 235.203125 84.792969 C 236.511719 84.214844 237.359375 82.914062 237.359375 81.480469 L 237.367188 60.074219 C 241.65625 58.5625 244.742188 54.46875 244.742188 49.667969 C 244.742188 44.867188 241.65625 40.773438 237.367188 39.265625 L 237.359375 17.75 C 237.359375 16.316406 236.511719 15.015625 235.203125 14.4375 C 233.890625 13.855469 232.363281 14.101562 231.300781 15.0625 L 227.082031 18.890625 C 219.167969 26.058594 209.449219 30.9375 198.96875 32.996094 C 198.703125 33.046875 198.449219 33.128906 198.207031 33.234375 L 174.800781 33.234375 C 165.828125 33.234375 158.515625 40.449219 158.355469 49.382812 C 158.070312 49.441406 157.78125 49.5 157.5 49.558594 L 158.996094 56.652344 C 159.269531 56.59375 159.542969 56.535156 159.820312 56.480469 Z M 237.34375 49.144531 C 237.359375 49 237.371094 48.851562 237.371094 48.703125 L 237.367188 45.726562 C 238.429688 46.707031 239.09375 48.113281 239.09375 49.667969 C 239.09375 51.226562 238.429688 52.628906 237.367188 53.613281 L 237.367188 50.527344 C 237.367188 50.378906 237.359375 50.230469 237.339844 50.085938 L 237.339844 49.144531 Z M 203.308594 50.527344 L 203.308594 39.460938 C 213.167969 37.050781 222.339844 32.398438 230.113281 25.863281 L 230.121094 48.261719 C 230.101562 48.40625 230.09375 48.554688 230.09375 48.703125 L 230.09375 50.527344 C 230.09375 50.675781 230.101562 50.824219 230.121094 50.96875 L 230.113281 73.367188 C 222.339844 66.832031 213.167969 62.179688 203.308594 59.769531 Z M 184.75 87.617188 C 184.75 88.484375 184.042969 89.191406 183.171875 89.191406 L 182.316406 89.191406 C 181.449219 89.191406 180.742188 88.484375 180.742188 87.617188 L 180.742188 66.15625 L 184.75 66.15625 Z M 174.796875 40.484375 L 196.042969 40.484375 L 196.042969 48.703125 C 196.042969 48.816406 196.046875 48.929688 196.054688 49.039062 L 196.054688 50.1875 C 196.046875 50.300781 196.042969 50.414062 196.042969 50.527344 L 196.042969 58.882812 L 174.796875 58.882812 C 169.726562 58.882812 165.597656 54.753906 165.597656 49.683594 C 165.597656 44.609375 169.726562 40.484375 174.796875 40.484375 Z M 174.796875 40.484375 " fill-opacity="1" fill-rule="nonzero"/><path fill="#00f3f7" d="M 49.996094 224.699219 L 42.90625 226.210938 C 43.34375 228.269531 43.832031 230.34375 44.359375 232.375 L 51.375 230.5625 C 50.875 228.628906 50.410156 226.65625 49.996094 224.699219 Z M 49.996094 224.699219 " fill-opacity="1" fill-rule="nonzero"/><path fill="#00f3f7" d="M 60.148438 254.945312 L 53.585938 258.019531 C 54.476562 259.921875 55.421875 261.832031 56.390625 263.695312 L 62.820312 260.34375 C 61.894531 258.574219 60.996094 256.757812 60.148438 254.945312 Z M 60.148438 254.945312 " fill-opacity="1" fill-rule="nonzero"/><path fill="#00f3f7" d="M 52.609375 235.03125 L 45.65625 237.074219 C 46.25 239.089844 46.894531 241.121094 47.570312 243.109375 L 54.433594 240.769531 C 53.785156 238.878906 53.171875 236.945312 52.609375 235.03125 Z M 52.609375 235.03125 " fill-opacity="1" fill-rule="nonzero"/><path fill="#00f3f7" d="M 56 245.128906 L 49.222656 247.695312 C 49.964844 249.660156 50.761719 251.636719 51.59375 253.570312 L 58.253906 250.714844 C 57.464844 248.878906 56.707031 247 56 245.128906 Z M 56 245.128906 " fill-opacity="1" fill-rule="nonzero"/><path fill="#00f3f7" d="M 70.609375 273.5 L 64.582031 277.527344 C 65.75 279.273438 66.96875 281.019531 68.210938 282.71875 L 74.0625 278.441406 C 72.882812 276.824219 71.71875 275.164062 70.609375 273.5 Z M 70.609375 273.5 " fill-opacity="1" fill-rule="nonzero"/><path fill="#00f3f7" d="M 76.859375 282.136719 L 71.148438 286.601562 C 72.441406 288.257812 73.789062 289.910156 75.15625 291.507812 L 80.671875 286.804688 C 79.371094 285.28125 78.089844 283.710938 76.859375 282.136719 Z M 76.859375 282.136719 " fill-opacity="1" fill-rule="nonzero"/><path fill="#00f3f7" d="M 65.027344 264.421875 L 58.714844 267.980469 C 59.746094 269.808594 60.832031 271.644531 61.941406 273.429688 L 68.097656 269.605469 C 67.042969 267.90625 66.011719 266.160156 65.027344 264.421875 Z M 65.027344 264.421875 " fill-opacity="1" fill-rule="nonzero"/><g clip-path="url(#f46d98a2d9)"><path fill="#00f3f7" d="M 48.847656 218.683594 L 68.675781 218.683594 C 75.292969 218.683594 80.679688 213.296875 80.679688 206.675781 L 80.679688 156.503906 C 80.679688 149.882812 75.292969 144.496094 68.675781 144.496094 L 54.699219 144.496094 L 49.21875 142.425781 C 48.957031 143.109375 48.703125 143.804688 48.453125 144.496094 L 18.5 144.496094 C 11.882812 144.496094 6.496094 149.882812 6.496094 156.503906 L 6.496094 206.675781 C 6.496094 213.296875 11.882812 218.683594 18.5 218.683594 L 41.503906 218.683594 C 41.648438 219.59375 41.804688 220.511719 41.964844 221.417969 L 49.101562 220.140625 C 49.015625 219.65625 48.929688 219.171875 48.847656 218.683594 Z M 18.5 211.433594 C 15.878906 211.433594 13.746094 209.300781 13.746094 206.675781 L 13.746094 156.503906 C 13.746094 153.882812 15.878906 151.746094 18.5 151.746094 L 68.675781 151.746094 C 71.296875 151.746094 73.429688 153.882812 73.429688 156.503906 L 73.429688 156.601562 L 73.25 156.601562 L 73.25 162.25 L 73.429688 162.25 L 73.429688 201.316406 L 73.25 201.316406 L 73.25 206.96875 L 73.421875 206.96875 C 73.269531 209.457031 71.199219 211.433594 68.671875 211.433594 Z M 18.5 211.433594 " fill-opacity="1" fill-rule="nonzero"/></g><path fill="#00f3f7" d="M 188.335938 336.507812 C 187.464844 336.507812 186.585938 336.5 185.71875 336.484375 L 185.585938 343.730469 C 186.496094 343.75 187.421875 343.757812 188.335938 343.757812 C 189.542969 343.757812 190.769531 343.742188 191.976562 343.714844 L 191.800781 336.464844 C 190.652344 336.492188 189.488281 336.507812 188.335938 336.507812 Z M 188.335938 336.507812 " fill-opacity="1" fill-rule="nonzero"/><path fill="#00f3f7" d="M 217.777344 333.441406 L 219.277344 340.53125 C 221.351562 340.09375 223.445312 339.601562 225.5 339.074219 L 223.695312 332.054688 C 221.738281 332.554688 219.75 333.023438 217.777344 333.441406 Z M 217.777344 333.441406 " fill-opacity="1" fill-rule="nonzero"/><path fill="#00f3f7" d="M 207.179688 335.261719 L 208.136719 342.449219 C 210.242188 342.167969 212.363281 341.839844 214.453125 341.46875 L 213.1875 334.332031 C 211.203125 334.683594 209.179688 334.996094 207.179688 335.261719 Z M 207.179688 335.261719 " fill-opacity="1" fill-rule="nonzero"/><path fill="#00f3f7" d="M 163.09375 341.621094 C 165.179688 341.980469 167.308594 342.296875 169.414062 342.5625 L 170.328125 335.371094 C 168.324219 335.117188 166.300781 334.816406 164.316406 334.476562 Z M 163.09375 341.621094 " fill-opacity="1" fill-rule="nonzero"/><path fill="#00f3f7" d="M 174.300781 343.101562 C 176.410156 343.300781 178.554688 343.453125 180.675781 343.5625 L 181.042969 336.324219 C 179.023438 336.21875 176.984375 336.074219 174.976562 335.882812 Z M 174.300781 343.101562 " fill-opacity="1" fill-rule="nonzero"/><path fill="#00f3f7" d="M 152.03125 339.292969 C 154.085938 339.808594 156.183594 340.285156 158.261719 340.710938 L 159.71875 333.609375 C 157.742188 333.207031 155.75 332.75 153.792969 332.261719 Z M 152.03125 339.292969 " fill-opacity="1" fill-rule="nonzero"/><path fill="#00f3f7" d="M 196.476562 336.277344 L 196.886719 343.515625 C 199.003906 343.394531 201.144531 343.226562 203.253906 343.015625 L 202.535156 335.804688 C 200.53125 336.003906 198.492188 336.164062 196.476562 336.277344 Z M 196.476562 336.277344 " fill-opacity="1" fill-rule="nonzero"/><path fill="#00f3f7" d="M 141.175781 336.121094 C 143.1875 336.792969 145.242188 337.429688 147.28125 338.015625 L 149.277344 331.046875 C 147.339844 330.492188 145.386719 329.886719 143.472656 329.246094 Z M 141.175781 336.121094 " fill-opacity="1" fill-rule="nonzero"/><g clip-path="url(#48b1ca9714)"><path fill="#00f3f7" d="M 137.351562 306.847656 C 137.351562 306 137.011719 305.183594 136.414062 304.585938 L 121.65625 289.828125 C 121.605469 289.777344 121.558594 289.734375 121.507812 289.6875 C 121.492188 289.675781 121.480469 289.664062 121.464844 289.65625 C 121.417969 289.613281 121.367188 289.574219 121.316406 289.535156 C 121.3125 289.53125 121.304688 289.523438 121.300781 289.519531 C 121.246094 289.480469 121.1875 289.441406 121.128906 289.402344 C 121.113281 289.394531 121.097656 289.382812 121.082031 289.371094 C 121.027344 289.339844 120.976562 289.308594 120.921875 289.277344 C 120.914062 289.273438 120.90625 289.269531 120.902344 289.265625 C 120.839844 289.234375 120.78125 289.207031 120.71875 289.179688 C 120.703125 289.171875 120.683594 289.160156 120.667969 289.15625 C 120.609375 289.128906 120.550781 289.105469 120.492188 289.082031 C 120.484375 289.082031 120.480469 289.078125 120.472656 289.078125 C 120.410156 289.054688 120.34375 289.035156 120.28125 289.015625 C 120.261719 289.011719 120.246094 289.003906 120.230469 289 C 120.167969 288.984375 120.105469 288.96875 120.042969 288.957031 C 120.035156 288.953125 120.03125 288.953125 120.027344 288.953125 C 119.960938 288.9375 119.890625 288.925781 119.824219 288.917969 C 119.804688 288.914062 119.789062 288.914062 119.769531 288.910156 C 119.710938 288.902344 119.652344 288.898438 119.589844 288.894531 C 119.578125 288.894531 119.570312 288.894531 119.558594 288.894531 C 119.503906 288.890625 119.449219 288.890625 119.394531 288.890625 L 81.671875 288.890625 C 79.902344 288.890625 78.46875 290.320312 78.46875 292.089844 L 78.46875 295.078125 L 78.378906 295.164062 C 78.40625 295.195312 78.4375 295.230469 78.46875 295.261719 L 78.46875 357.910156 C 78.46875 359.679688 79.902344 361.113281 81.671875 361.113281 L 134.152344 361.113281 C 135.917969 361.113281 137.351562 359.679688 137.351562 357.910156 L 137.351562 332.304688 L 139.066406 327.691406 C 138.496094 327.480469 137.921875 327.261719 137.351562 327.039062 Z M 122.59375 299.871094 L 125.699219 303.003906 L 122.59375 303.003906 Z M 130.949219 354.710938 L 84.871094 354.710938 L 84.871094 295.292969 L 116.191406 295.292969 L 116.191406 306.207031 C 116.191406 307.976562 117.625 309.410156 119.390625 309.410156 L 130.949219 309.410156 Z M 130.949219 354.710938 " fill-opacity="1" fill-rule="nonzero"/></g><path fill="#00f3f7" d="M 319.65625 247.726562 L 326.382812 250.429688 C 327.191406 248.414062 327.964844 246.355469 328.683594 244.308594 L 321.84375 241.90625 C 321.160156 243.851562 320.425781 245.8125 319.65625 247.726562 Z M 319.65625 247.726562 " fill-opacity="1" fill-rule="nonzero"/><path fill="#00f3f7" d="M 309.894531 267.429688 L 316.121094 271.144531 C 317.234375 269.277344 318.316406 267.363281 319.34375 265.457031 L 312.960938 262.019531 C 311.984375 263.835938 310.953125 265.652344 309.894531 267.429688 Z M 309.894531 267.429688 " fill-opacity="1" fill-rule="nonzero"/><path fill="#00f3f7" d="M 315.160156 257.769531 L 321.65625 260.988281 C 322.621094 259.042969 323.554688 257.050781 324.429688 255.066406 L 317.796875 252.136719 C 316.964844 254.023438 316.078125 255.917969 315.160156 257.769531 Z M 315.160156 257.769531 " fill-opacity="1" fill-rule="nonzero"/><path fill="#00f3f7" d="M 323.351562 237.367188 L 330.269531 239.53125 C 330.917969 237.460938 331.527344 235.347656 332.082031 233.25 L 325.074219 231.390625 C 324.546875 233.386719 323.96875 235.398438 323.351562 237.367188 Z M 323.351562 237.367188 " fill-opacity="1" fill-rule="nonzero"/><path fill="#00f3f7" d="M 334.605469 221.960938 L 327.476562 220.65625 C 327.105469 222.6875 326.683594 224.734375 326.222656 226.746094 L 333.289062 228.363281 C 333.773438 226.25 334.214844 224.09375 334.605469 221.960938 Z M 334.605469 221.960938 " fill-opacity="1" fill-rule="nonzero"/><path fill="#00f3f7" d="M 303.894531 276.648438 L 309.8125 280.835938 C 311.066406 279.066406 312.296875 277.242188 313.472656 275.417969 L 307.375 271.496094 C 306.257812 273.230469 305.085938 274.964844 303.894531 276.648438 Z M 303.894531 276.648438 " fill-opacity="1" fill-rule="nonzero"/><path fill="#00f3f7" d="M 297.199219 285.378906 L 302.773438 290.011719 C 304.160156 288.339844 305.527344 286.617188 306.839844 284.890625 L 301.066406 280.507812 C 299.820312 282.152344 298.519531 283.792969 297.199219 285.378906 Z M 297.199219 285.378906 " fill-opacity="1" fill-rule="nonzero"/><path fill="#00f3f7" d="M 289.84375 293.566406 L 295.046875 298.613281 C 296.558594 297.058594 298.054688 295.445312 299.496094 293.824219 L 294.078125 289.007812 C 292.707031 290.550781 291.28125 292.085938 289.84375 293.566406 Z M 289.84375 293.566406 " fill-opacity="1" fill-rule="nonzero"/><path fill="#00f3f7" d="M 264.878906 67.542969 C 263.984375 67.007812 263.074219 66.472656 262.171875 65.957031 L 258.570312 72.246094 C 259.425781 72.738281 260.292969 73.246094 261.140625 73.757812 Z M 264.878906 67.542969 " fill-opacity="1" fill-rule="nonzero"/><path fill="#00f3f7" d="M 308.335938 120.132812 L 314.480469 116.285156 C 313.316406 114.425781 312.09375 112.566406 310.851562 110.761719 L 304.882812 114.875 C 306.066406 116.59375 307.226562 118.363281 308.335938 120.132812 Z M 308.335938 120.132812 " fill-opacity="1" fill-rule="nonzero"/><path fill="#00f3f7" d="M 313.859375 129.785156 L 320.289062 126.4375 C 319.277344 124.492188 318.207031 122.542969 317.105469 120.644531 L 310.832031 124.277344 C 311.878906 126.082031 312.898438 127.9375 313.859375 129.785156 Z M 313.859375 129.785156 " fill-opacity="1" fill-rule="nonzero"/><path fill="#00f3f7" d="M 302.066406 110.9375 L 307.894531 106.625 C 306.585938 104.863281 305.222656 103.105469 303.839844 101.402344 L 298.214844 105.96875 C 299.527344 107.589844 300.828125 109.261719 302.066406 110.9375 Z M 302.066406 110.9375 " fill-opacity="1" fill-rule="nonzero"/><path fill="#00f3f7" d="M 318.605469 139.847656 L 325.28125 137.015625 C 324.421875 134.996094 323.507812 132.96875 322.558594 130.988281 L 316.019531 134.113281 C 316.921875 135.996094 317.792969 137.925781 318.605469 139.847656 Z M 318.605469 139.847656 " fill-opacity="1" fill-rule="nonzero"/><path fill="#00f3f7" d="M 279.238281 86.679688 L 283.898438 81.125 C 282.21875 79.714844 280.484375 78.324219 278.742188 76.988281 L 274.332031 82.742188 C 275.988281 84.011719 277.640625 85.335938 279.238281 86.679688 Z M 279.238281 86.679688 " fill-opacity="1" fill-rule="nonzero"/><path fill="#00f3f7" d="M 287.472656 94.160156 L 292.554688 88.992188 C 290.992188 87.453125 289.371094 85.929688 287.738281 84.464844 L 282.890625 89.851562 C 284.445312 91.25 285.984375 92.699219 287.472656 94.160156 Z M 287.472656 94.160156 " fill-opacity="1" fill-rule="nonzero"/><path fill="#00f3f7" d="M 274.65625 73.960938 C 272.871094 72.6875 271.03125 71.433594 269.191406 70.238281 L 265.246094 76.320312 C 266.996094 77.457031 268.742188 78.648438 270.445312 79.863281 Z M 274.65625 73.960938 " fill-opacity="1" fill-rule="nonzero"/><path fill="#00f3f7" d="M 295.101562 102.265625 L 300.570312 97.507812 C 299.128906 95.851562 297.632812 94.207031 296.121094 92.617188 L 290.867188 97.609375 C 292.304688 99.125 293.730469 100.691406 295.101562 102.265625 Z M 295.101562 102.265625 " fill-opacity="1" fill-rule="nonzero"/><path fill="#00f3f7" d="M 227.082031 175.316406 C 228.117188 174.382812 228.453125 172.898438 227.917969 171.609375 L 224.59375 163.589844 C 224.0625 162.300781 222.777344 161.488281 221.382812 161.558594 L 212.503906 162.011719 L 209.742188 159.25 L 210.195312 150.371094 C 210.265625 148.976562 209.453125 147.691406 208.164062 147.160156 L 200.144531 143.835938 C 198.855469 143.300781 197.371094 143.636719 196.4375 144.671875 L 190.480469 151.269531 L 186.570312 151.269531 L 180.613281 144.671875 C 179.679688 143.636719 178.195312 143.300781 176.90625 143.835938 L 168.886719 147.160156 C 167.597656 147.691406 166.785156 148.976562 166.855469 150.371094 L 167.308594 159.25 L 164.542969 162.011719 L 155.667969 161.558594 C 154.273438 161.488281 152.988281 162.300781 152.453125 163.589844 L 149.132812 171.609375 C 148.597656 172.898438 148.933594 174.382812 149.96875 175.316406 L 156.566406 181.273438 L 156.566406 185.183594 L 149.96875 191.140625 C 148.933594 192.074219 148.597656 193.558594 149.132812 194.847656 L 152.453125 202.867188 C 152.988281 204.15625 154.273438 204.96875 155.667969 204.898438 L 164.542969 204.445312 L 167.308594 207.207031 L 166.855469 216.085938 C 166.785156 217.480469 167.597656 218.765625 168.886719 219.300781 L 176.90625 222.621094 C 178.195312 223.15625 179.679688 222.820312 180.613281 221.785156 L 186.570312 215.1875 L 190.480469 215.1875 L 196.4375 221.785156 C 197.074219 222.492188 197.96875 222.871094 198.882812 222.871094 C 199.308594 222.871094 199.734375 222.789062 200.144531 222.621094 L 208.164062 219.300781 C 209.453125 218.765625 210.265625 217.480469 210.195312 216.085938 L 209.742188 207.207031 L 212.503906 204.445312 L 221.382812 204.898438 C 222.777344 204.96875 224.0625 204.15625 224.59375 202.867188 L 227.917969 194.847656 C 228.453125 193.558594 228.117188 192.074219 227.082031 191.140625 L 220.484375 185.183594 L 220.484375 181.273438 Z M 214.980469 189.09375 L 220.941406 194.476562 L 219.398438 198.199219 L 211.378906 197.789062 C 210.449219 197.742188 209.539062 198.089844 208.882812 198.75 L 204.042969 203.585938 C 203.386719 204.246094 203.035156 205.152344 203.082031 206.085938 L 203.492188 214.101562 L 199.769531 215.644531 L 194.386719 209.6875 C 193.761719 208.996094 192.875 208.597656 191.941406 208.597656 L 185.101562 208.597656 C 184.171875 208.597656 183.28125 208.996094 182.65625 209.6875 L 177.277344 215.644531 L 173.550781 214.101562 L 173.960938 206.085938 C 174.007812 205.152344 173.660156 204.246094 173 203.585938 L 168.164062 198.75 C 167.503906 198.09375 166.597656 197.742188 165.667969 197.789062 L 157.648438 198.199219 L 156.105469 194.476562 L 162.066406 189.09375 C 162.757812 188.46875 163.152344 187.582031 163.152344 186.648438 L 163.152344 179.808594 C 163.152344 178.878906 162.757812 177.988281 162.066406 177.363281 L 156.105469 171.984375 L 157.648438 168.257812 L 165.667969 168.667969 C 166.597656 168.714844 167.503906 168.367188 168.164062 167.707031 L 173 162.871094 C 173.660156 162.210938 174.007812 161.304688 173.960938 160.375 L 173.550781 152.355469 L 177.277344 150.8125 L 182.65625 156.773438 C 183.28125 157.464844 184.171875 157.859375 185.101562 157.859375 L 191.941406 157.859375 C 192.875 157.859375 193.761719 157.464844 194.386719 156.773438 L 199.769531 150.8125 L 203.492188 152.355469 L 203.082031 160.375 C 203.035156 161.304688 203.382812 162.210938 204.042969 162.871094 L 208.878906 167.707031 C 209.539062 168.367188 210.445312 168.714844 211.378906 168.667969 L 219.394531 168.257812 L 220.9375 171.984375 L 214.980469 177.363281 C 214.289062 177.988281 213.890625 178.878906 213.890625 179.808594 L 213.890625 186.648438 C 213.894531 187.582031 214.289062 188.46875 214.980469 189.09375 Z M 214.980469 189.09375 " fill-opacity="1" fill-rule="nonzero"/><path fill="#00f3f7" d="M 188.523438 165.09375 C 178.523438 165.09375 170.386719 173.230469 170.386719 183.230469 C 170.386719 193.230469 178.523438 201.363281 188.523438 201.363281 C 198.523438 201.363281 206.660156 193.230469 206.660156 183.230469 C 206.660156 173.230469 198.523438 165.09375 188.523438 165.09375 Z M 188.523438 194.773438 C 182.15625 194.773438 176.976562 189.59375 176.976562 183.230469 C 176.976562 176.863281 182.15625 171.683594 188.523438 171.683594 C 194.890625 171.683594 200.070312 176.863281 200.070312 183.230469 C 200.070312 189.597656 194.890625 194.773438 188.523438 194.773438 Z M 188.523438 194.773438 " fill-opacity="1" fill-rule="nonzero"/></svg>