<svg xmlns="http://www.w3.org/2000/svg" xmlns:xlink="http://www.w3.org/1999/xlink" width="500" zoomAndPan="magnify" viewBox="0 0 375 374.999991" height="500" preserveAspectRatio="xMidYMid meet" version="1.0"><defs><clipPath id="5370e04b25"><path d="M 13 9 L 362 9 L 362 366.207031 L 13 366.207031 Z M 13 9 " clip-rule="nonzero"/></clipPath></defs><g clip-path="url(#5370e04b25)"><path fill="#00f3f7" d="M 333.824219 117.980469 C 332.996094 121.101562 330.167969 123.152344 327.089844 123.152344 C 326.492188 123.152344 325.882812 123.078125 325.28125 122.917969 L 303.347656 117.039062 C 299.621094 116.042969 297.417969 112.21875 298.417969 108.492188 C 299.40625 104.769531 303.238281 102.558594 306.957031 103.554688 L 328.890625 109.433594 C 332.617188 110.429688 334.824219 114.261719 333.824219 117.980469 Z M 283.328125 52.203125 C 280.605469 49.480469 280.605469 45.0625 283.328125 42.332031 L 299.386719 26.273438 C 302.109375 23.550781 306.53125 23.550781 309.253906 26.273438 C 311.984375 29.003906 311.984375 33.421875 309.253906 36.148438 L 293.195312 52.203125 C 291.835938 53.570312 290.050781 54.246094 288.261719 54.246094 C 286.476562 54.246094 284.695312 53.570312 283.328125 52.203125 Z M 308.667969 68.355469 L 329.457031 62.777344 C 333.183594 61.78125 337.007812 63.992188 338.007812 67.714844 C 339.003906 71.441406 336.796875 75.265625 333.070312 76.261719 L 312.285156 81.832031 C 311.675781 82 311.070312 82.074219 310.46875 82.074219 C 307.390625 82.074219 304.570312 80.019531 303.734375 76.898438 C 302.738281 73.179688 304.941406 69.355469 308.667969 68.355469 Z M 40.941406 352.578125 C 40.929688 352.578125 40.921875 352.578125 40.910156 352.578125 L 147.011719 259.441406 L 183.300781 291.117188 C 184.613281 292.269531 186.25 292.839844 187.886719 292.839844 C 189.511719 292.839844 191.128906 292.277344 192.441406 291.15625 L 229.28125 259.402344 L 336.535156 352.34375 C 335.730469 352.488281 334.898438 352.578125 334.046875 352.578125 Z M 28.492188 344.902344 L 136.40625 250.1875 L 28.480469 155.96875 C 27.53125 157.855469 26.984375 159.964844 26.984375 162.214844 L 26.984375 338.621094 C 26.984375 340.882812 27.539062 343.011719 28.492188 344.902344 Z M 89.179688 148.253906 L 40.941406 148.253906 C 40.914062 148.253906 40.890625 148.253906 40.867188 148.253906 L 187.914062 276.625 L 336.574219 148.496094 C 335.75 148.347656 334.914062 148.253906 334.050781 148.253906 L 290.082031 148.253906 C 291.003906 158.691406 284.332031 168.621094 273.871094 171.425781 C 271.972656 171.925781 270.0625 172.175781 268.183594 172.175781 C 260.164062 172.175781 252.707031 167.742188 248.867188 160.671875 C 227.132812 151.507812 197.558594 148.472656 166.449219 152.09375 L 181.675781 189.261719 C 184.324219 195.726562 181.632812 203.011719 175.425781 206.199219 L 166.214844 210.941406 C 164.289062 211.929688 162.214844 212.433594 160.125 212.433594 C 158.574219 212.433594 157.019531 212.152344 155.503906 211.601562 C 151.957031 210.296875 149.210938 207.660156 147.765625 204.164062 L 131.058594 163.726562 C 127.828125 164.566406 124.546875 164.984375 121.289062 164.984375 C 114.496094 164.984375 107.777344 163.191406 101.714844 159.6875 C 96.667969 156.777344 92.425781 152.875 89.179688 148.253906 Z M 114.757812 101.414062 L 136.175781 95.679688 L 149.238281 144.417969 L 127.8125 150.152344 C 114.382812 153.753906 100.519531 145.75 96.917969 132.320312 C 93.316406 118.882812 101.324219 105.015625 114.757812 101.414062 Z M 153.65625 157.683594 L 168.550781 194.042969 L 160.414062 198.234375 L 144.660156 160.09375 Z M 218.257812 48.84375 L 243.738281 143.9375 C 220.539062 136.574219 192.210938 134.683594 162.113281 138.558594 L 150.257812 94.308594 C 178.269531 82.621094 201.851562 66.820312 218.257812 48.84375 Z M 229.363281 27.210938 C 230.441406 25.339844 232.167969 24.007812 234.226562 23.453125 C 234.902344 23.273438 235.59375 23.183594 236.28125 23.183594 C 237.679688 23.183594 239.058594 23.550781 240.3125 24.273438 C 242.179688 25.351562 243.515625 27.078125 244.0625 29.136719 L 275.9375 148.101562 C 277.089844 152.378906 274.535156 156.789062 270.253906 157.941406 C 265.980469 159.082031 261.566406 156.539062 260.425781 152.265625 L 228.546875 33.296875 C 227.992188 31.234375 228.28125 29.074219 229.363281 27.210938 Z M 275.605469 76.824219 C 274.152344 75.976562 272.550781 75.515625 270.921875 75.441406 L 276.046875 94.578125 C 277.417969 93.691406 278.574219 92.488281 279.414062 91.039062 C 280.804688 88.632812 281.171875 85.824219 280.453125 83.136719 C 279.734375 80.449219 278.011719 78.210938 275.605469 76.824219 Z M 348.007812 162.214844 C 348.007812 160.636719 347.734375 159.128906 347.253906 157.71875 L 239.96875 250.1875 L 347.238281 343.152344 C 347.726562 341.726562 348.007812 340.207031 348.007812 338.621094 Z M 334.050781 134.296875 L 286.691406 134.296875 L 279.734375 108.339844 C 284.675781 106.300781 288.785156 102.722656 291.5 98.015625 C 294.75 92.378906 295.617188 85.808594 293.933594 79.527344 C 290.742188 67.597656 279.160156 60.105469 267.238281 61.675781 L 257.546875 25.519531 C 256.027344 19.867188 252.382812 15.128906 247.289062 12.183594 C 242.195312 9.246094 236.269531 8.457031 230.609375 9.972656 C 224.953125 11.488281 220.21875 15.128906 217.273438 20.230469 C 215.207031 23.804688 214.210938 27.789062 214.320312 31.792969 C 199.714844 51.074219 174.753906 68.898438 145.035156 81.363281 C 143.421875 80.261719 141.347656 79.84375 139.308594 80.386719 L 111.140625 87.9375 C 90.820312 93.382812 78.503906 113.949219 83.046875 134.296875 L 40.941406 134.296875 C 25.550781 134.296875 13.03125 146.816406 13.03125 162.214844 L 13.03125 338.621094 C 13.03125 354.015625 25.550781 366.535156 40.941406 366.535156 L 334.050781 366.535156 C 349.441406 366.535156 361.964844 354.015625 361.964844 338.621094 L 361.964844 162.214844 C 361.964844 146.820312 349.441406 134.296875 334.050781 134.296875 Z M 334.050781 134.296875 " fill-opacity="1" fill-rule="evenodd"/></g></svg>