<svg xmlns="http://www.w3.org/2000/svg" xmlns:xlink="http://www.w3.org/1999/xlink" width="500" zoomAndPan="magnify" viewBox="0 0 375 374.999991" height="500" preserveAspectRatio="xMidYMid meet" version="1.0"><defs><clipPath id="81e4bb363e"><path d="M 11.613281 12.050781 L 363 12.050781 L 363 363 L 11.613281 363 Z M 11.613281 12.050781 " clip-rule="nonzero"/></clipPath></defs><g clip-path="url(#81e4bb363e)"><path fill="#00f3f7" d="M 101.140625 139.304688 L 125.695312 139.304688 C 128.441406 139.304688 130.667969 137.078125 130.667969 134.332031 L 130.667969 109.78125 C 130.667969 107.035156 128.441406 104.808594 125.695312 104.808594 L 101.140625 104.808594 C 98.394531 104.808594 96.167969 107.035156 96.167969 109.78125 L 96.167969 134.332031 C 96.167969 137.078125 98.394531 139.304688 101.140625 139.304688 Z M 106.113281 114.75 L 120.722656 114.75 L 120.722656 129.359375 L 106.113281 129.359375 Z M 149.390625 139.304688 L 173.941406 139.304688 C 176.6875 139.304688 178.914062 137.078125 178.914062 134.332031 L 178.914062 109.78125 C 178.914062 107.035156 176.6875 104.808594 173.941406 104.808594 L 149.390625 104.808594 C 146.644531 104.808594 144.417969 107.035156 144.417969 109.78125 L 144.417969 134.332031 C 144.417969 137.078125 146.644531 139.304688 149.390625 139.304688 Z M 154.363281 114.75 L 168.972656 114.75 L 168.972656 129.359375 L 154.363281 129.359375 Z M 197.636719 139.304688 L 222.191406 139.304688 C 224.9375 139.304688 227.164062 137.078125 227.164062 134.332031 L 227.164062 109.78125 C 227.164062 107.035156 224.9375 104.808594 222.191406 104.808594 L 197.636719 104.808594 C 194.890625 104.808594 192.664062 107.035156 192.664062 109.78125 L 192.664062 134.332031 C 192.664062 137.078125 194.890625 139.304688 197.636719 139.304688 Z M 202.609375 114.75 L 217.21875 114.75 L 217.21875 129.359375 L 202.609375 129.359375 Z M 77.449219 153.054688 L 52.894531 153.054688 C 50.148438 153.054688 47.921875 155.28125 47.921875 158.027344 L 47.921875 182.582031 C 47.921875 185.328125 50.148438 187.550781 52.894531 187.550781 L 77.449219 187.550781 C 80.195312 187.550781 82.421875 185.328125 82.421875 182.582031 L 82.421875 158.027344 C 82.421875 155.28125 80.195312 153.054688 77.449219 153.054688 Z M 72.476562 177.609375 L 57.867188 177.609375 L 57.867188 163 L 72.476562 163 Z M 101.140625 187.554688 L 125.695312 187.554688 C 128.441406 187.554688 130.667969 185.328125 130.667969 182.582031 L 130.667969 158.027344 C 130.667969 155.28125 128.441406 153.054688 125.695312 153.054688 L 101.140625 153.054688 C 98.394531 153.054688 96.167969 155.28125 96.167969 158.027344 L 96.167969 182.582031 C 96.167969 185.328125 98.394531 187.554688 101.140625 187.554688 Z M 106.113281 163 L 120.722656 163 L 120.722656 177.609375 L 106.113281 177.609375 Z M 77.449219 201.300781 L 52.894531 201.300781 C 50.148438 201.300781 47.921875 203.527344 47.921875 206.273438 L 47.921875 230.828125 C 47.921875 233.574219 50.148438 235.800781 52.894531 235.800781 L 77.449219 235.800781 C 80.195312 235.800781 82.421875 233.574219 82.421875 230.828125 L 82.421875 206.273438 C 82.421875 203.527344 80.195312 201.300781 77.449219 201.300781 Z M 72.476562 225.855469 L 57.867188 225.855469 L 57.867188 211.246094 L 72.476562 211.246094 Z M 77.449219 104.808594 L 52.894531 104.808594 C 50.148438 104.808594 47.921875 107.03125 47.921875 109.777344 L 47.921875 134.332031 C 47.921875 137.078125 50.148438 139.304688 52.894531 139.304688 L 77.449219 139.304688 C 80.195312 139.304688 82.421875 137.078125 82.421875 134.332031 L 82.421875 109.777344 C 82.421875 107.03125 80.195312 104.808594 77.449219 104.808594 Z M 72.476562 129.359375 L 57.867188 129.359375 L 57.867188 114.75 L 72.476562 114.75 Z M 149.390625 187.554688 L 173.941406 187.554688 C 176.6875 187.554688 178.914062 185.328125 178.914062 182.582031 L 178.914062 158.027344 C 178.914062 155.28125 176.6875 153.054688 173.941406 153.054688 L 149.390625 153.054688 C 146.644531 153.054688 144.417969 155.28125 144.417969 158.027344 L 144.417969 182.582031 C 144.417969 185.328125 146.644531 187.554688 149.390625 187.554688 Z M 154.363281 163 L 168.972656 163 L 168.972656 177.609375 L 154.363281 177.609375 Z M 302.636719 189.199219 C 297.28125 186.105469 291.082031 185.199219 285.085938 186.597656 L 273.753906 144.304688 C 272.269531 138.765625 268.703125 134.128906 263.710938 131.25 C 263.582031 131.171875 263.449219 131.105469 263.320312 131.03125 L 263.320312 60.585938 C 263.320312 46.675781 252.003906 35.363281 238.09375 35.363281 L 222.3125 35.363281 L 222.3125 17.03125 C 222.3125 14.285156 220.085938 12.058594 217.339844 12.058594 L 191.316406 12.058594 C 188.570312 12.058594 186.34375 14.285156 186.34375 17.03125 L 186.34375 35.363281 L 155.527344 35.363281 L 155.527344 17.03125 C 155.527344 14.285156 153.300781 12.058594 150.554688 12.058594 L 124.53125 12.058594 C 121.785156 12.058594 119.558594 14.285156 119.558594 17.03125 L 119.558594 35.363281 L 88.742188 35.363281 L 88.742188 17.03125 C 88.742188 14.285156 86.515625 12.058594 83.769531 12.058594 L 57.742188 12.058594 C 54.996094 12.058594 52.773438 14.285156 52.773438 17.03125 L 52.773438 35.363281 L 36.992188 35.363281 C 23.082031 35.363281 11.765625 46.675781 11.765625 60.585938 L 11.765625 235.148438 C 11.765625 249.058594 23.082031 260.371094 36.992188 260.371094 L 86.101562 260.371094 C 86.324219 261.804688 86.621094 263.234375 87 264.652344 C 91.84375 282.722656 108.246094 294.671875 126.121094 294.671875 C 129.582031 294.671875 133.097656 294.222656 136.59375 293.289062 L 138.460938 292.789062 L 163.492188 355.460938 C 164.726562 358.554688 167.238281 361.007812 170.375 362.179688 C 171.734375 362.6875 173.160156 362.9375 174.582031 362.9375 C 176.484375 362.9375 178.378906 362.492188 180.101562 361.605469 L 190.253906 356.382812 C 195.769531 353.542969 198.195312 347.023438 195.890625 341.210938 L 171.992188 280.871094 C 207.328125 275.847656 240.757812 277.46875 267.015625 285.515625 L 267.320312 286.648438 C 268.804688 292.1875 272.367188 296.824219 277.359375 299.703125 C 280.691406 301.628906 284.378906 302.609375 288.113281 302.609375 C 289.972656 302.609375 291.84375 302.367188 293.6875 301.871094 C 299.222656 300.386719 303.859375 296.824219 306.742188 291.832031 C 309.621094 286.839844 310.390625 281.042969 308.910156 275.503906 L 297.574219 233.210938 C 303.464844 231.425781 308.378906 227.539062 311.472656 222.183594 C 314.699219 216.601562 315.554688 210.09375 313.882812 203.859375 C 312.214844 197.628906 308.222656 192.421875 302.636719 189.199219 Z M 196.285156 22.003906 L 212.367188 22.003906 L 212.367188 58.222656 L 196.285156 58.222656 Z M 129.5 22.003906 L 145.585938 22.003906 L 145.585938 58.222656 L 129.5 58.222656 Z M 62.714844 22.003906 L 78.796875 22.003906 L 78.796875 58.222656 L 62.714844 58.222656 Z M 36.992188 45.304688 L 52.773438 45.304688 L 52.773438 63.195312 C 52.773438 65.941406 54.996094 68.164062 57.742188 68.164062 L 83.769531 68.164062 C 86.515625 68.164062 88.742188 65.941406 88.742188 63.195312 L 88.742188 45.304688 L 119.558594 45.304688 L 119.558594 63.195312 C 119.558594 65.941406 121.785156 68.164062 124.53125 68.164062 L 150.554688 68.164062 C 153.300781 68.164062 155.527344 65.941406 155.527344 63.195312 L 155.527344 45.304688 L 186.34375 45.304688 L 186.34375 63.195312 C 186.34375 65.941406 188.570312 68.164062 191.316406 68.164062 L 217.34375 68.164062 C 220.089844 68.164062 222.3125 65.941406 222.3125 63.195312 L 222.3125 45.304688 L 238.09375 45.304688 C 246.519531 45.304688 253.375 52.160156 253.375 60.585938 L 253.375 80.234375 L 21.710938 80.234375 L 21.710938 60.585938 C 21.710938 52.160156 28.566406 45.304688 36.992188 45.304688 Z M 85.800781 250.429688 L 36.992188 250.429688 C 28.566406 250.429688 21.710938 243.574219 21.710938 235.148438 L 21.710938 90.179688 L 253.375 90.179688 L 253.375 128.351562 C 251.378906 128.3125 249.367188 128.550781 247.386719 129.082031 C 241.851562 130.5625 237.214844 134.128906 234.332031 139.121094 C 231.449219 144.113281 230.679688 149.910156 232.164062 155.445312 L 232.46875 156.582031 C 213.625 176.816406 185.222656 195.046875 151.8125 208.386719 C 151.4375 207.929688 150.984375 207.539062 150.460938 207.234375 C 149.320312 206.578125 147.964844 206.398438 146.6875 206.738281 L 115.632812 215.0625 C 105.222656 217.851562 96.503906 224.558594 91.082031 233.949219 C 88.109375 239.097656 86.339844 244.703125 85.800781 250.429688 Z M 134.019531 283.683594 C 131.378906 284.390625 128.730469 284.726562 126.121094 284.726562 C 112.632812 284.726562 100.257812 275.714844 96.605469 262.082031 C 94.503906 254.238281 95.601562 246.011719 99.695312 238.921875 C 103.789062 231.832031 110.363281 226.769531 118.207031 224.667969 L 144.460938 217.632812 L 160.273438 276.648438 Z M 185.703125 347.539062 L 175.550781 352.761719 C 174.828125 353.132812 174.179688 352.984375 173.859375 352.863281 C 173.554688 352.75 173 352.457031 172.726562 351.769531 L 148.132812 290.195312 L 163.371094 286.113281 L 186.648438 344.871094 C 187.0625 345.921875 186.667969 347.042969 185.703125 347.539062 Z M 169.117188 271.238281 L 154.824219 217.894531 C 187.445312 204.957031 215.625 187.417969 235.464844 167.769531 L 264.019531 274.328125 C 237.007812 267.230469 203.835938 266.132812 169.117188 271.238281 Z M 298.128906 286.859375 C 296.574219 289.550781 294.082031 291.46875 291.113281 292.265625 C 288.140625 293.0625 285.023438 292.644531 282.332031 291.089844 C 279.640625 289.539062 277.722656 287.046875 276.925781 284.074219 L 241.769531 152.871094 C 240.972656 149.902344 241.390625 146.785156 242.945312 144.09375 C 244.496094 141.402344 246.988281 139.480469 249.960938 138.6875 C 250.945312 138.421875 251.949219 138.292969 252.945312 138.292969 C 254.953125 138.292969 256.941406 138.820312 258.742188 139.859375 C 261.433594 141.414062 263.351562 143.90625 264.148438 146.875 L 299.304688 278.078125 C 300.101562 281.050781 299.683594 284.167969 298.128906 286.859375 Z M 302.863281 217.210938 C 301.097656 220.265625 298.320312 222.496094 294.996094 223.585938 L 287.664062 196.222656 C 291.089844 195.503906 294.609375 196.046875 297.664062 197.808594 C 300.949219 199.707031 303.296875 202.769531 304.28125 206.433594 C 305.261719 210.097656 304.757812 213.925781 302.863281 217.210938 Z M 358.976562 196.925781 L 336.042969 203.070312 C 335.613281 203.1875 335.179688 203.242188 334.753906 203.242188 C 332.558594 203.242188 330.550781 201.777344 329.953125 199.554688 C 329.246094 196.902344 330.820312 194.175781 333.472656 193.464844 L 356.402344 187.320312 C 359.054688 186.609375 361.78125 188.183594 362.492188 190.835938 C 363.203125 193.488281 361.628906 196.214844 358.976562 196.925781 Z M 306.75 171.09375 C 304.804688 169.152344 304.804688 166.003906 306.75 164.0625 L 324.457031 146.355469 C 326.398438 144.414062 329.546875 144.414062 331.488281 146.355469 C 333.429688 148.296875 333.429688 151.445312 331.488281 153.386719 L 313.78125 171.09375 C 312.808594 172.066406 311.535156 172.550781 310.265625 172.550781 C 308.992188 172.550781 307.71875 172.066406 306.75 171.09375 Z M 357.882812 244.859375 C 357.289062 247.082031 355.277344 248.546875 353.082031 248.546875 C 352.65625 248.546875 352.222656 248.492188 351.792969 248.375 L 327.601562 241.894531 C 324.949219 241.183594 323.375 238.457031 324.085938 235.804688 C 324.796875 233.152344 327.523438 231.582031 330.175781 232.289062 L 354.367188 238.769531 C 357.019531 239.480469 358.59375 242.207031 357.882812 244.859375 Z M 357.882812 244.859375 " fill-opacity="1" fill-rule="nonzero"/></g></svg>