<svg xmlns="http://www.w3.org/2000/svg" xmlns:xlink="http://www.w3.org/1999/xlink" width="500" zoomAndPan="magnify" viewBox="0 0 375 374.999991" height="500" preserveAspectRatio="xMidYMid meet" version="1.0"><defs><clipPath id="e48bab9d06"><path d="M 7.042969 11.328125 L 367.792969 11.328125 L 367.792969 363.828125 L 7.042969 363.828125 Z M 7.042969 11.328125 " clip-rule="nonzero"/></clipPath></defs><g clip-path="url(#e48bab9d06)"><path fill="#00f3f7" d="M 246.125 197.128906 C 246.109375 197.050781 246.082031 196.972656 246.058594 196.894531 C 259.328125 190.476562 256.414062 171.792969 249.449219 161.503906 C 245.636719 156.199219 239.917969 152.503906 236.613281 146.792969 C 232.367188 139.460938 233.9375 131.035156 231.550781 123.25 C 229.550781 116.71875 225.925781 110.730469 221.164062 105.855469 C 206.671875 90.367188 180.714844 88.347656 164.835938 102.871094 C 155.8125 110.710938 151.675781 121.128906 150.65625 132.847656 C 150.28125 137.183594 150.144531 141.675781 148.269531 145.605469 C 145.382812 151.664062 139.207031 155.074219 135.261719 160.300781 C 127.796875 170.71875 124.074219 190.128906 137.890625 196.921875 C 137.753906 196.945312 123.332031 263.578125 123.234375 263.632812 C 120.917969 272.875 128.683594 282.582031 138.214844 282.328125 C 138.214844 282.328125 245.710938 282.328125 245.710938 282.328125 C 250.40625 282.328125 254.777344 280.226562 257.722656 276.5625 C 260.652344 272.902344 261.753906 268.191406 260.734375 263.648438 Z M 229.863281 150.269531 C 233.71875 157.558594 241.90625 161.484375 245.054688 169.339844 C 247.820312 175.714844 250.515625 186.03125 242.988281 190.117188 C 238.671875 183.378906 226.175781 180.917969 219.324219 178.050781 C 218.015625 177.511719 215.828125 176.75 214.5 176.230469 C 212.765625 175.941406 211.039062 175.636719 209.261719 175.835938 L 208.441406 171.792969 C 217.578125 164.414062 222.53125 152.949219 221.972656 141.183594 C 223.554688 141.605469 225.132812 142.082031 226.734375 142.46875 C 227.398438 145.195312 228.445312 147.804688 229.863281 150.269531 Z M 187.609375 190.835938 C 187.445312 191.285156 186.214844 196.074219 185.917969 196.308594 C 185.160156 197.328125 183.558594 197.523438 182.71875 196.320312 C 182.71875 196.320312 172.882812 183.285156 172.882812 183.285156 C 173.867188 183.222656 174.878906 183.449219 175.742188 183.929688 C 175.734375 183.929688 187.609375 190.835938 187.609375 190.835938 Z M 169.484375 143.425781 L 169.484375 136.476562 C 179.492188 134.183594 189.066406 130.261719 197.820312 124.90625 C 202.410156 130.40625 208.050781 134.988281 214.476562 138.183594 L 214.476562 143.433594 C 214.980469 156.644531 201.519531 175.433594 186.898438 170.125 C 176.433594 165.6875 169.414062 154.769531 169.484375 143.425781 Z M 181.828125 178.800781 L 182.320312 176.296875 C 188.324219 179.453125 195.71875 179.480469 201.695312 176.253906 L 202.214844 178.800781 L 192.023438 184.738281 Z M 208.304688 183.929688 C 209.164062 183.429688 210.1875 183.230469 211.164062 183.265625 L 201.308594 196.328125 C 200.367188 197.53125 198.910156 197.296875 198.136719 196.320312 C 197.847656 196.128906 196.589844 191.246094 196.433594 190.84375 Z M 213.472656 108.105469 C 220.960938 114.539062 225.828125 124.53125 225.828125 134.460938 C 217.621094 132.1875 209.164062 127.148438 203.761719 120.277344 C 204.882812 119.152344 214.238281 108.722656 213.472656 108.105469 Z M 169.761719 108.53125 C 179.921875 99.539062 195.25 97.585938 207.257812 103.890625 C 197.226562 120.949219 177.09375 128.507812 158.261719 130.714844 C 159.125 122.167969 163.207031 114.226562 169.761719 108.53125 Z M 136.085938 182.042969 C 136.105469 172.921875 140.074219 164.589844 147.257812 158.640625 C 153.34375 153.496094 157.042969 146.304688 157.90625 138.316406 C 159.265625 138.167969 160.632812 137.996094 161.992188 137.84375 C 161.015625 150.671875 165.273438 163.769531 175.570312 171.84375 L 174.765625 175.898438 C 172.78125 175.644531 170.757812 175.8125 168.882812 176.5 L 149.65625 183.484375 C 146.167969 184.808594 143.1875 187.1875 140.953125 190.136719 C 138.023438 188.542969 136.085938 185.453125 136.085938 182.042969 Z M 251.871094 271.875 C 250.363281 273.757812 248.117188 274.84375 245.710938 274.84375 L 228.46875 274.84375 L 228.46875 253.449219 C 228.46875 251.375 226.789062 249.699219 224.71875 249.699219 C 222.644531 249.699219 220.964844 251.375 220.964844 253.449219 L 220.964844 274.84375 L 163.074219 274.84375 L 163.074219 253.449219 C 163.074219 251.375 161.398438 249.699219 159.324219 249.699219 C 157.25 249.699219 155.574219 251.375 155.574219 253.449219 L 155.574219 274.84375 L 138.214844 274.84375 C 133.339844 274.960938 129.367188 270 130.558594 265.261719 C 130.558594 265.261719 145.183594 198.628906 145.183594 198.628906 C 145.347656 197.851562 145.617188 197.070312 146.003906 196.292969 C 147.25 193.605469 149.480469 191.550781 152.246094 190.519531 L 165.351562 185.757812 L 176.722656 200.824219 C 180.328125 205.96875 188.535156 205.796875 192.023438 200.652344 C 195.476562 205.789062 203.734375 205.96875 207.316406 200.835938 C 207.316406 200.835938 218.667969 185.792969 218.667969 185.792969 L 231.652344 190.503906 C 235.183594 191.800781 237.941406 194.933594 238.785156 198.671875 C 238.785156 198.671875 253.410156 265.273438 253.410156 265.273438 C 253.929688 267.59375 253.371094 270.007812 251.871094 271.875 Z M 348.496094 65.40625 L 303.507812 65.40625 L 303.507812 27.074219 C 303.507812 18.414062 296.457031 11.363281 287.796875 11.363281 L 96.207031 11.363281 C 87.527344 11.363281 80.464844 18.414062 80.464844 27.074219 L 80.464844 75.851562 L 29.132812 75.851562 C 16.953125 75.859375 7.046875 85.757812 7.046875 97.9375 L 7.046875 155.152344 C 7.046875 167.328125 16.953125 177.238281 29.132812 177.238281 L 78.558594 177.238281 L 80.464844 178.785156 L 80.464844 347.941406 C 80.464844 356.625 87.527344 363.6875 96.207031 363.6875 L 287.804688 363.6875 C 296.464844 363.6875 303.511719 356.625 303.511719 347.941406 L 303.511719 155.582031 L 306.378906 153.242188 L 348.503906 153.242188 C 359.226562 153.242188 367.949219 144.515625 367.949219 133.792969 L 367.949219 84.847656 C 367.945312 74.125 359.21875 65.40625 348.496094 65.40625 Z M 87.957031 27.074219 C 87.957031 22.546875 91.660156 18.867188 96.207031 18.867188 L 287.804688 18.867188 C 292.332031 18.867188 296.011719 22.550781 296.011719 27.074219 L 296.011719 65.394531 L 286.828125 65.394531 L 286.828125 31.800781 C 286.828125 29.726562 285.148438 28.050781 283.078125 28.050781 L 231.671875 28.050781 C 226.953125 28.257812 228.015625 33.332031 227.921875 36.527344 C 227.921875 38.59375 226.222656 40.277344 224.128906 40.277344 L 159.824219 40.277344 C 157.757812 40.277344 156.074219 38.59375 156.074219 36.527344 L 156.074219 31.800781 C 156.074219 29.726562 154.398438 28.050781 152.324219 28.050781 L 100.886719 28.050781 C 98.8125 28.050781 97.136719 29.726562 97.136719 31.800781 C 97.136719 31.800781 97.136719 75.859375 97.136719 75.859375 L 87.949219 75.859375 L 87.949219 27.074219 Z M 263.800781 122.035156 C 262.761719 135.246094 264.152344 149.144531 279.324219 152.835938 L 279.324219 158.972656 L 277.117188 165.257812 L 275.675781 169.367188 C 274.753906 171.738281 276.800781 174.554688 279.324219 174.34375 L 279.324219 325.3125 L 104.644531 325.3125 L 104.644531 198.53125 C 105.421875 199.074219 107.898438 201.417969 108.804688 201.644531 C 111.648438 202.71875 114.734375 199.78125 113.617188 196.875 C 113.617188 196.875 106.703125 177.195312 106.703125 177.195312 C 118.25 176.5 127.445312 166.875 127.445312 155.152344 L 127.445312 97.9375 C 127.464844 85.496094 117.070312 75.46875 104.652344 75.851562 L 104.652344 35.550781 L 148.59375 35.550781 C 148.128906 42.078125 153.246094 47.808594 159.847656 47.773438 C 159.847656 47.773438 224.144531 47.773438 224.144531 47.773438 C 230.761719 47.800781 235.90625 42.078125 235.429688 35.550781 L 279.332031 35.550781 L 279.332031 65.804688 C 269.574219 67.75 263.871094 76.820312 263.808594 86.28125 C 263.496094 98.179688 263.800781 110.128906 263.800781 122.035156 Z M 82.269531 170.585938 C 81.597656 170.039062 80.761719 169.734375 79.898438 169.734375 L 29.132812 169.734375 C 21.09375 169.734375 14.546875 163.191406 14.546875 155.152344 L 14.546875 97.9375 C 14.546875 89.890625 21.09375 83.351562 29.132812 83.351562 L 105.359375 83.351562 C 113.398438 83.351562 119.941406 89.898438 119.941406 97.9375 L 119.941406 155.152344 C 119.941406 163.195312 113.398438 169.734375 105.359375 169.734375 C 105.359375 169.734375 101.425781 169.734375 101.425781 169.734375 C 98.910156 169.664062 96.996094 172.390625 97.886719 174.730469 C 97.886719 174.730469 102.117188 186.777344 102.117188 186.777344 Z M 296.011719 347.949219 C 296.011719 352.5 292.324219 356.199219 287.804688 356.199219 L 96.207031 356.199219 C 91.660156 356.199219 87.957031 352.5 87.957031 347.949219 L 87.957031 184.914062 L 97.144531 192.414062 L 97.144531 329.0625 C 97.144531 331.136719 98.820312 332.8125 100.894531 332.8125 L 283.078125 332.8125 C 285.148438 332.8125 286.828125 331.136719 286.828125 329.0625 L 286.828125 169.234375 L 296.011719 161.71875 Z M 360.441406 133.800781 C 360.441406 140.390625 355.085938 145.746094 348.496094 145.746094 L 305.035156 145.746094 C 304.171875 145.746094 303.328125 146.042969 302.664062 146.59375 C 298.367188 150.097656 291.503906 155.722656 287.179688 159.253906 L 290.175781 150.734375 C 290.9375 148.71875 289.621094 146.304688 287.527344 145.851562 C 286.898438 145.65625 283.945312 145.773438 283.253906 145.746094 C 276.820312 145.746094 271.273438 140.460938 271.308594 133.800781 C 271.308594 133.800781 271.308594 84.855469 271.308594 84.855469 C 271.210938 78.386719 276.878906 72.875 283.253906 72.910156 C 283.253906 72.910156 348.503906 72.910156 348.503906 72.910156 C 355.09375 72.910156 360.449219 78.265625 360.449219 84.855469 L 360.449219 133.800781 Z M 328.097656 82.710938 C 323.453125 82.710938 319.101562 84.554688 315.875 87.882812 C 299.707031 72.03125 276 95.417969 291.601562 111.816406 C 291.601562 111.816406 313.234375 133.449219 313.234375 133.449219 C 314.628906 134.898438 317.140625 134.898438 318.535156 133.449219 C 318.535156 133.449219 340.15625 111.816406 340.15625 111.816406 C 350.917969 101.675781 342.835938 82.265625 328.097656 82.710938 Z M 334.855469 106.507812 L 315.890625 125.488281 L 296.910156 106.507812 C 295.105469 104.703125 294.117188 102.3125 294.117188 99.765625 C 293.824219 91.535156 304.800781 86.941406 310.417969 93.019531 C 310.417969 93.019531 313.242188 95.84375 313.242188 95.84375 C 314.636719 97.300781 317.164062 97.292969 318.550781 95.835938 C 318.550781 95.835938 321.359375 93.011719 321.359375 93.011719 C 330.507812 84.515625 343.515625 97.316406 334.855469 106.507812 Z M 133.777344 73.515625 C 135.269531 74.351562 138.914062 75.429688 139.574219 77.210938 C 140.710938 79.3125 141.746094 83.578125 144.867188 83.359375 C 149.226562 83.496094 148.746094 76.949219 151.949219 75.433594 C 151.949219 75.433594 155.960938 73.523438 155.960938 73.523438 C 158.765625 72.300781 158.765625 67.984375 155.960938 66.753906 C 154.46875 65.910156 150.824219 64.839844 150.167969 63.058594 C 149.027344 60.957031 147.992188 56.6875 144.875 56.910156 C 141.753906 56.6875 140.71875 60.941406 139.582031 63.050781 C 138.9375 64.828125 135.257812 65.902344 133.785156 66.746094 C 130.96875 67.96875 130.96875 72.285156 133.777344 73.515625 Z M 144.859375 68.59375 C 145.328125 69.152344 145.835938 69.667969 146.394531 70.128906 C 145.835938 70.585938 145.320312 71.105469 144.859375 71.664062 C 144.398438 71.105469 143.882812 70.585938 143.324219 70.128906 C 143.882812 69.667969 144.398438 69.152344 144.859375 68.59375 Z M 190.4375 302.519531 C 188.945312 301.683594 185.300781 300.605469 184.644531 298.824219 C 183.503906 296.722656 182.46875 292.457031 179.351562 292.675781 C 174.992188 292.539062 175.472656 299.09375 172.265625 300.605469 C 172.265625 300.605469 168.253906 302.519531 168.253906 302.519531 C 165.453125 303.742188 165.453125 308.058594 168.253906 309.28125 C 169.753906 310.125 173.390625 311.195312 174.050781 312.984375 C 175.1875 315.085938 176.222656 319.351562 179.34375 319.125 C 182.464844 319.34375 183.496094 315.09375 184.636719 312.984375 C 185.28125 311.199219 188.960938 310.125 190.429688 309.28125 C 193.242188 308.066406 193.246094 303.742188 190.4375 302.519531 Z M 179.351562 307.441406 C 178.882812 306.882812 178.375 306.367188 177.808594 305.90625 C 178.367188 305.449219 178.882812 304.929688 179.351562 304.371094 C 179.808594 304.929688 180.328125 305.449219 180.886719 305.90625 C 180.328125 306.367188 179.808594 306.882812 179.351562 307.441406 Z M 231.035156 99.855469 C 232.527344 100.691406 236.179688 101.757812 236.824219 103.550781 C 237.964844 105.652344 238.996094 109.917969 242.125 109.699219 C 246.484375 109.832031 246.003906 103.292969 249.203125 101.765625 C 249.203125 101.765625 253.214844 99.855469 253.214844 99.855469 C 256.015625 98.632812 256.023438 94.308594 253.214844 93.082031 C 251.714844 92.242188 248.074219 91.179688 247.417969 89.390625 C 246.277344 87.289062 245.246094 83.019531 242.125 83.238281 C 239.003906 83.019531 237.972656 87.289062 236.824219 89.398438 C 236.1875 91.171875 232.5 92.25 231.035156 93.082031 C 228.234375 94.316406 228.226562 98.632812 231.035156 99.855469 Z M 242.125 94.9375 C 242.585938 95.496094 243.101562 96.011719 243.660156 96.472656 C 243.101562 96.933594 242.585938 97.449219 242.125 98.007812 C 241.664062 97.449219 241.148438 96.933594 240.589844 96.472656 C 241.148438 96.011719 241.664062 95.496094 242.125 94.9375 Z M 101.574219 139.71875 C 103.859375 135.890625 100.679688 130.597656 99.421875 126.972656 C 110.023438 116.625 102.789062 98.109375 88.050781 97.621094 L 85.609375 91.320312 C 82.199219 82.425781 68.199219 85.894531 69.132812 95.269531 L 47.125 111.546875 L 41.183594 113.847656 C 20.902344 122.257812 30.714844 152.25 51.855469 147.105469 L 65.6875 165.984375 C 66.402344 166.960938 67.535156 167.519531 68.710938 167.519531 C 69.019531 167.519531 69.347656 167.476562 69.652344 167.398438 L 82.578125 164.03125 C 84.695312 163.53125 85.960938 161.058594 85.132812 159.050781 C 85.132812 159.050781 81.539062 149.78125 81.539062 149.78125 C 80.144531 146 75.398438 147.910156 72.566406 148.230469 L 67.472656 143.453125 L 87.015625 141.4375 C 90.648438 146.425781 99.109375 145.335938 101.574219 139.71875 Z M 51.9375 139.234375 C 39.320312 144.792969 31.210938 126.273438 43.894531 120.84375 C 43.894531 120.84375 46.808594 119.710938 46.808594 119.710938 C 48.613281 124.375 52.25 133.75 54.054688 138.414062 Z M 68.78125 154.953125 C 70.378906 156.742188 73.664062 155.539062 75.636719 155.3125 L 76.613281 157.824219 L 70.222656 159.488281 L 62.75 149.296875 Z M 61.371094 136.53125 L 53.480469 116.175781 L 71.632812 102.75 L 83.824219 134.21875 Z M 94.816406 136.484375 C 94.539062 137.234375 93.066406 137.417969 92.855469 136.730469 C 92.855469 136.730469 76.613281 94.808594 76.613281 94.808594 C 76.535156 94.613281 76.59375 94.40625 76.65625 94.28125 C 76.847656 93.691406 78.261719 93.226562 78.625 94.03125 C 80.335938 98.449219 83.789062 107.355469 85.503906 111.785156 C 85.503906 111.785156 94.863281 135.953125 94.863281 135.953125 C 94.933594 136.152344 94.871094 136.347656 94.816406 136.484375 Z M 96.171875 118.585938 L 95.820312 117.679688 L 91.296875 106.003906 C 93.660156 107.058594 95.457031 108.914062 96.371094 111.269531 C 97.304688 113.667969 97.183594 116.265625 96.171875 118.585938 Z M 96.171875 118.585938 " fill-opacity="1" fill-rule="nonzero"/></g></svg>