<svg xmlns="http://www.w3.org/2000/svg" xmlns:xlink="http://www.w3.org/1999/xlink" width="500" zoomAndPan="magnify" viewBox="0 0 375 374.999991" height="500" preserveAspectRatio="xMidYMid meet" version="1.0"><defs><clipPath id="1847164490"><path d="M 19 76 L 300 76 L 300 352.007812 L 19 352.007812 Z M 19 76 " clip-rule="nonzero"/></clipPath></defs><path fill="#00f3f7" d="M 115.171875 216.339844 L 114.539062 216.703125 L 126.714844 226.601562 L 126.851562 226.523438 C 125.988281 225.996094 125.171875 225.386719 124.410156 224.699219 Z M 115.171875 216.339844 " fill-opacity="1" fill-rule="nonzero"/><g clip-path="url(#1847164490)"><path fill="#00f3f7" d="M 298.621094 127.894531 C 298.601562 124.085938 297.730469 120.515625 295.914062 117.335938 C 286.3125 100.542969 254.027344 100.933594 223.804688 118.210938 C 195.566406 134.359375 179.121094 159.53125 184.921875 176.464844 L 159.027344 191.269531 L 121.375 154.851562 L 111.359375 94.648438 C 111.191406 93.632812 110.886719 92.671875 110.496094 91.765625 C 109.179688 87.378906 106.707031 83.632812 102.917969 81.203125 C 91.417969 73.84375 70.921875 74.519531 56.253906 93.554688 C 36.238281 119.847656 27.574219 138.433594 20.359375 172.382812 C 19.347656 179.925781 20.023438 185.90625 21.816406 190.722656 C 22.765625 194.746094 24.984375 198.507812 28.441406 201.316406 L 35.585938 207.125 L 98.609375 258.355469 L 124.054688 338.695312 C 126.671875 346.960938 134.3125 352.242188 142.546875 352.242188 C 144.484375 352.242188 146.460938 351.949219 148.40625 351.332031 C 158.621094 348.097656 164.277344 337.195312 161.042969 326.980469 L 133.84375 241.105469 C 132.699219 237.492188 130.523438 234.296875 127.585938 231.90625 L 73.109375 187.625 L 73.117188 187.625 C 73.765625 185.152344 74.496094 182.683594 75.3125 180.222656 C 72.941406 177.816406 71.347656 174.707031 70.8125 171.359375 L 61.753906 114.632812 C 61.070312 110.335938 62.097656 106.027344 64.652344 102.5 C 67.207031 98.976562 70.980469 96.660156 75.28125 95.972656 C 76.132812 95.835938 77.003906 95.765625 77.863281 95.765625 C 85.910156 95.765625 92.671875 101.539062 93.941406 109.496094 L 102.09375 160.554688 L 146.277344 200.53125 C 150.101562 203.996094 151.890625 208.875 151.585938 213.664062 C 154.800781 213.636719 158.003906 212.375 160.414062 209.886719 C 161.574219 208.683594 162.441406 207.308594 163.023438 205.84375 L 189.933594 190.460938 C 201.585938 204.046875 231.621094 202.652344 259.859375 186.503906 C 288.300781 170.246094 304.777344 144.832031 298.621094 127.894531 Z M 255.753906 174.097656 C 230.476562 188.546875 203.375 188.878906 195.34375 174.828125 C 187.3125 160.78125 201.347656 137.597656 226.625 123.144531 C 251.90625 108.691406 279.007812 108.363281 287.035156 122.410156 C 295.066406 136.457031 281.035156 159.644531 255.753906 174.097656 Z M 255.753906 174.097656 " fill-opacity="1" fill-rule="nonzero"/></g><path fill="#00f3f7" d="M 259.003906 118 C 249.597656 118.113281 238.894531 121.332031 228.867188 127.066406 L 230.023438 129.085938 C 239.714844 123.546875 250.015625 120.4375 259.035156 120.328125 C 267.824219 120.230469 274.238281 122.96875 277.148438 128.0625 L 279.171875 126.90625 C 275.820312 121.042969 268.613281 117.867188 259.003906 118 Z M 259.003906 118 " fill-opacity="1" fill-rule="nonzero"/><path fill="#00f3f7" d="M 27.945312 321.554688 C 22.03125 330.488281 24.476562 342.523438 33.410156 348.4375 C 36.707031 350.621094 40.421875 351.664062 44.101562 351.664062 C 50.390625 351.664062 56.5625 348.613281 60.292969 342.976562 C 82.042969 310.132812 88.910156 280.003906 89.015625 255.171875 L 43.132812 217.964844 C 52.078125 240.242188 57.421875 277.042969 27.945312 321.554688 Z M 27.945312 321.554688 " fill-opacity="1" fill-rule="nonzero"/><path fill="#00f3f7" d="M 112.972656 46.535156 C 104.070312 63.648438 110.730469 84.730469 127.835938 93.628906 C 144.949219 102.53125 166.027344 95.875 174.929688 78.765625 C 183.828125 61.65625 177.175781 40.570312 160.066406 31.671875 C 142.957031 22.773438 121.871094 29.429688 112.972656 46.535156 Z M 112.972656 46.535156 " fill-opacity="1" fill-rule="nonzero"/><path fill="#00f3f7" d="M 143.671875 203.410156 L 98.476562 162.515625 L 90.109375 110.105469 C 89.027344 103.335938 82.65625 98.722656 75.890625 99.804688 C 69.121094 100.882812 64.507812 107.25 65.585938 114.023438 L 74.644531 170.746094 C 75.089844 173.539062 76.476562 176.097656 78.574219 177.996094 L 127.011719 221.820312 C 129.390625 223.972656 132.371094 225.03125 135.339844 225.03125 C 138.726562 225.03125 142.097656 223.65625 144.550781 220.945312 C 149.148438 215.859375 148.757812 208.007812 143.671875 203.410156 Z M 143.671875 203.410156 " fill-opacity="1" fill-rule="nonzero"/><path fill="#00f3f7" d="M 193.339844 310.25 C 193.453125 311.933594 194.855469 313.230469 196.519531 313.230469 C 196.589844 313.230469 196.660156 313.226562 196.730469 313.222656 C 197.367188 313.183594 197.945312 312.957031 198.421875 312.601562 L 200.59375 346.105469 C 200.769531 348.820312 203.113281 350.878906 205.828125 350.703125 C 206.910156 350.632812 207.882812 350.21875 208.65625 349.574219 C 209.429688 350.21875 210.402344 350.632812 211.480469 350.703125 C 214.199219 350.878906 216.542969 348.820312 216.71875 346.105469 L 218.890625 312.601562 C 219.367188 312.957031 219.945312 313.183594 220.578125 313.222656 C 220.648438 313.226562 220.71875 313.230469 220.789062 313.230469 C 222.457031 313.230469 223.859375 311.9375 223.96875 310.25 C 225.664062 284.308594 219.796875 278.121094 218.605469 277.144531 C 218.039062 276.679688 217.363281 276.449219 216.683594 276.429688 C 216.578125 276.417969 216.46875 276.410156 216.359375 276.410156 L 200.953125 276.410156 C 200.84375 276.410156 200.734375 276.417969 200.628906 276.429688 C 199.949219 276.449219 199.269531 276.679688 198.707031 277.144531 C 197.511719 278.121094 191.644531 284.308594 193.339844 310.25 Z M 193.339844 310.25 " fill-opacity="1" fill-rule="nonzero"/><path fill="#00f3f7" d="M 217.394531 263.09375 C 217.53125 263.667969 217.609375 264.246094 217.628906 264.835938 C 217.648438 265.425781 217.613281 266.007812 217.519531 266.589844 C 217.425781 267.171875 217.273438 267.738281 217.066406 268.289062 C 216.863281 268.84375 216.605469 269.371094 216.296875 269.871094 C 215.984375 270.371094 215.628906 270.835938 215.226562 271.269531 C 214.828125 271.699219 214.386719 272.085938 213.910156 272.429688 C 213.433594 272.777344 212.925781 273.070312 212.390625 273.316406 C 211.851562 273.558594 211.296875 273.75 210.726562 273.886719 C 210.152344 274.019531 209.570312 274.097656 208.984375 274.121094 C 208.394531 274.140625 207.808594 274.105469 207.226562 274.007812 C 206.644531 273.914062 206.078125 273.765625 205.527344 273.558594 C 204.976562 273.351562 204.449219 273.09375 203.949219 272.785156 C 203.449219 272.476562 202.980469 272.121094 202.550781 271.71875 C 202.121094 271.316406 201.730469 270.878906 201.386719 270.398438 C 201.042969 269.921875 200.75 269.414062 200.503906 268.878906 C 200.257812 268.34375 200.070312 267.789062 199.933594 267.214844 C 199.796875 266.644531 199.71875 266.0625 199.699219 265.472656 C 199.679688 264.886719 199.714844 264.300781 199.808594 263.71875 C 199.902344 263.136719 200.054688 262.570312 200.257812 262.019531 C 200.464844 261.464844 200.722656 260.941406 201.03125 260.4375 C 201.34375 259.9375 201.699219 259.472656 202.097656 259.042969 C 202.5 258.609375 202.941406 258.222656 203.417969 257.878906 C 203.894531 257.535156 204.402344 257.238281 204.9375 256.996094 C 205.476562 256.75 206.027344 256.558594 206.601562 256.425781 C 207.175781 256.289062 207.757812 256.210938 208.34375 256.191406 C 208.933594 256.167969 209.519531 256.207031 210.101562 256.300781 C 210.683594 256.394531 211.25 256.542969 211.800781 256.75 C 212.351562 256.957031 212.878906 257.214844 213.378906 257.523438 C 213.878906 257.832031 214.347656 258.1875 214.777344 258.589844 C 215.207031 258.992188 215.597656 259.429688 215.941406 259.910156 C 216.285156 260.386719 216.578125 260.894531 216.824219 261.429688 C 217.070312 261.964844 217.257812 262.519531 217.394531 263.09375 Z M 217.394531 263.09375 " fill-opacity="1" fill-rule="nonzero"/><path fill="#00f3f7" d="M 243.875 346.105469 C 244.050781 348.820312 246.398438 350.878906 249.113281 350.703125 C 250.195312 350.632812 251.167969 350.21875 251.941406 349.574219 C 252.714844 350.21875 253.6875 350.632812 254.765625 350.703125 C 257.480469 350.878906 259.828125 348.820312 260.003906 346.105469 L 262.175781 312.601562 C 262.648438 312.957031 263.226562 313.183594 263.863281 313.222656 C 263.933594 313.226562 264.003906 313.230469 264.074219 313.230469 C 265.742188 313.230469 267.144531 311.933594 267.253906 310.25 C 268.949219 284.308594 263.082031 278.121094 261.890625 277.144531 C 261.324219 276.679688 260.648438 276.449219 259.96875 276.429688 C 259.859375 276.417969 259.753906 276.410156 259.640625 276.410156 L 244.238281 276.410156 C 244.128906 276.410156 244.019531 276.417969 243.910156 276.429688 C 243.234375 276.449219 242.554688 276.679688 241.988281 277.144531 C 240.796875 278.121094 234.929688 284.308594 236.625 310.25 C 236.734375 311.933594 238.136719 313.230469 239.804688 313.230469 C 239.875 313.230469 239.945312 313.226562 240.015625 313.222656 C 240.652344 313.183594 241.230469 312.957031 241.707031 312.601562 Z M 243.875 346.105469 " fill-opacity="1" fill-rule="nonzero"/><path fill="#00f3f7" d="M 260.679688 263.089844 C 260.8125 263.664062 260.890625 264.246094 260.914062 264.835938 C 260.933594 265.421875 260.898438 266.007812 260.800781 266.589844 C 260.707031 267.171875 260.558594 267.738281 260.351562 268.289062 C 260.144531 268.839844 259.886719 269.367188 259.578125 269.867188 C 259.269531 270.371094 258.914062 270.835938 258.511719 271.265625 C 258.109375 271.699219 257.671875 272.085938 257.195312 272.429688 C 256.714844 272.773438 256.207031 273.070312 255.671875 273.3125 C 255.136719 273.558594 254.582031 273.746094 254.007812 273.882812 C 253.4375 274.019531 252.855469 274.097656 252.265625 274.117188 C 251.679688 274.136719 251.09375 274.101562 250.511719 274.007812 C 249.929688 273.914062 249.363281 273.761719 248.8125 273.558594 C 248.261719 273.351562 247.734375 273.09375 247.234375 272.785156 C 246.730469 272.472656 246.265625 272.117188 245.835938 271.71875 C 245.402344 271.316406 245.015625 270.875 244.671875 270.398438 C 244.328125 269.921875 244.03125 269.414062 243.789062 268.878906 C 243.542969 268.34375 243.351562 267.789062 243.21875 267.214844 C 243.082031 266.640625 243.003906 266.058594 242.984375 265.472656 C 242.960938 264.882812 243 264.296875 243.09375 263.714844 C 243.1875 263.136719 243.335938 262.570312 243.542969 262.015625 C 243.75 261.464844 244.007812 260.9375 244.316406 260.4375 C 244.625 259.9375 244.980469 259.46875 245.382812 259.039062 C 245.785156 258.609375 246.226562 258.21875 246.703125 257.875 C 247.179688 257.53125 247.6875 257.238281 248.222656 256.992188 C 248.757812 256.746094 249.3125 256.558594 249.886719 256.421875 C 250.460938 256.289062 251.039062 256.210938 251.628906 256.1875 C 252.21875 256.167969 252.804688 256.203125 253.382812 256.296875 C 253.964844 256.394531 254.53125 256.542969 255.085938 256.75 C 255.636719 256.953125 256.164062 257.210938 256.664062 257.523438 C 257.164062 257.832031 257.628906 258.1875 258.0625 258.589844 C 258.492188 258.988281 258.878906 259.429688 259.226562 259.90625 C 259.570312 260.386719 259.863281 260.890625 260.109375 261.429688 C 260.351562 261.964844 260.542969 262.519531 260.679688 263.089844 Z M 260.679688 263.089844 " fill-opacity="1" fill-rule="nonzero"/><path fill="#00f3f7" d="M 283.089844 313.230469 C 283.160156 313.230469 283.230469 313.226562 283.300781 313.222656 C 283.9375 313.183594 284.515625 312.957031 284.988281 312.601562 L 287.160156 346.105469 C 287.335938 348.820312 289.683594 350.878906 292.398438 350.703125 C 293.476562 350.632812 294.449219 350.21875 295.222656 349.574219 C 295.996094 350.21875 296.96875 350.632812 298.050781 350.703125 C 300.765625 350.878906 303.113281 348.820312 303.289062 346.105469 L 305.457031 312.601562 C 305.933594 312.957031 306.511719 313.183594 307.148438 313.222656 C 307.21875 313.226562 307.289062 313.230469 307.359375 313.230469 C 309.023438 313.230469 310.429688 311.9375 310.539062 310.25 C 312.234375 284.308594 306.367188 278.121094 305.175781 277.144531 C 304.609375 276.679688 303.929688 276.449219 303.253906 276.429688 C 303.144531 276.417969 303.035156 276.410156 302.925781 276.410156 L 287.523438 276.410156 C 287.410156 276.410156 287.304688 276.417969 287.195312 276.429688 C 286.515625 276.449219 285.839844 276.679688 285.273438 277.144531 C 284.082031 278.121094 278.214844 284.308594 279.910156 310.25 C 280.019531 311.933594 281.421875 313.230469 283.089844 313.230469 Z M 283.089844 313.230469 " fill-opacity="1" fill-rule="nonzero"/><path fill="#00f3f7" d="M 301.5625 258.824219 C 301.980469 259.242188 302.351562 259.695312 302.679688 260.183594 C 303.007812 260.671875 303.28125 261.191406 303.507812 261.734375 C 303.734375 262.277344 303.902344 262.839844 304.019531 263.417969 C 304.132812 263.996094 304.191406 264.578125 304.191406 265.167969 C 304.191406 265.757812 304.132812 266.339844 304.019531 266.917969 C 303.902344 267.496094 303.734375 268.054688 303.507812 268.601562 C 303.28125 269.144531 303.007812 269.660156 302.679688 270.152344 C 302.351562 270.640625 301.980469 271.09375 301.5625 271.511719 C 301.148438 271.925781 300.695312 272.296875 300.203125 272.625 C 299.714844 272.953125 299.199219 273.230469 298.652344 273.453125 C 298.109375 273.679688 297.546875 273.851562 296.96875 273.964844 C 296.394531 274.082031 295.808594 274.136719 295.21875 274.136719 C 294.632812 274.136719 294.046875 274.082031 293.46875 273.964844 C 292.894531 273.851562 292.332031 273.679688 291.789062 273.453125 C 291.242188 273.230469 290.726562 272.953125 290.238281 272.625 C 289.746094 272.296875 289.292969 271.925781 288.878906 271.511719 C 288.460938 271.09375 288.089844 270.640625 287.761719 270.152344 C 287.433594 269.660156 287.160156 269.144531 286.933594 268.601562 C 286.707031 268.054688 286.539062 267.496094 286.421875 266.917969 C 286.308594 266.339844 286.25 265.757812 286.25 265.167969 C 286.25 264.578125 286.308594 263.996094 286.421875 263.417969 C 286.539062 262.839844 286.707031 262.277344 286.933594 261.734375 C 287.15625 261.191406 287.433594 260.671875 287.761719 260.183594 C 288.089844 259.695312 288.460938 259.242188 288.878906 258.824219 C 289.292969 258.40625 289.746094 258.035156 290.238281 257.707031 C 290.726562 257.382812 291.242188 257.105469 291.789062 256.878906 C 292.332031 256.65625 292.890625 256.484375 293.46875 256.371094 C 294.046875 256.253906 294.632812 256.195312 295.21875 256.195312 C 295.808594 256.195312 296.390625 256.253906 296.96875 256.371094 C 297.546875 256.484375 298.109375 256.652344 298.652344 256.878906 C 299.195312 257.105469 299.714844 257.382812 300.203125 257.707031 C 300.695312 258.035156 301.148438 258.40625 301.5625 258.824219 Z M 301.5625 258.824219 " fill-opacity="1" fill-rule="nonzero"/><path fill="#00f3f7" d="M 338.507812 349.574219 C 339.28125 350.21875 340.253906 350.632812 341.335938 350.703125 C 344.050781 350.878906 346.394531 348.820312 346.570312 346.105469 L 348.742188 312.601562 C 349.21875 312.957031 349.796875 313.183594 350.433594 313.222656 C 350.503906 313.226562 350.574219 313.230469 350.644531 313.230469 C 352.308594 313.230469 353.710938 311.933594 353.824219 310.25 C 355.519531 284.308594 349.652344 278.121094 348.460938 277.144531 C 347.894531 276.679688 347.214844 276.449219 346.539062 276.429688 C 346.429688 276.417969 346.320312 276.410156 346.210938 276.410156 L 330.808594 276.410156 C 330.695312 276.410156 330.585938 276.417969 330.480469 276.429688 C 329.800781 276.449219 329.125 276.679688 328.558594 277.144531 C 327.363281 278.121094 321.5 284.308594 323.195312 310.25 C 323.304688 311.933594 324.707031 313.230469 326.375 313.230469 C 326.445312 313.230469 326.515625 313.226562 326.585938 313.222656 C 327.21875 313.183594 327.796875 312.957031 328.273438 312.601562 L 330.445312 346.105469 C 330.621094 348.820312 332.96875 350.878906 335.683594 350.703125 C 336.761719 350.632812 337.734375 350.21875 338.507812 349.574219 Z M 338.507812 349.574219 " fill-opacity="1" fill-rule="nonzero"/><path fill="#00f3f7" d="M 347.246094 263.085938 C 347.382812 263.660156 347.460938 264.242188 347.480469 264.832031 C 347.5 265.417969 347.464844 266.003906 347.371094 266.585938 C 347.277344 267.167969 347.125 267.734375 346.921875 268.285156 C 346.714844 268.835938 346.457031 269.363281 346.148438 269.863281 C 345.835938 270.367188 345.480469 270.832031 345.082031 271.261719 C 344.679688 271.695312 344.238281 272.082031 343.761719 272.425781 C 343.285156 272.769531 342.777344 273.066406 342.242188 273.308594 C 341.707031 273.554688 341.152344 273.742188 340.578125 273.878906 C 340.003906 274.015625 339.421875 274.09375 338.835938 274.113281 C 338.246094 274.132812 337.660156 274.097656 337.078125 274.003906 C 336.5 273.910156 335.929688 273.757812 335.378906 273.554688 C 334.828125 273.347656 334.300781 273.089844 333.800781 272.78125 C 333.300781 272.46875 332.832031 272.113281 332.402344 271.714844 C 331.972656 271.3125 331.582031 270.871094 331.238281 270.394531 C 330.894531 269.917969 330.601562 269.410156 330.355469 268.875 C 330.109375 268.339844 329.921875 267.785156 329.785156 267.210938 C 329.648438 266.636719 329.570312 266.054688 329.550781 265.46875 C 329.53125 264.878906 329.566406 264.292969 329.660156 263.710938 C 329.753906 263.132812 329.90625 262.5625 330.113281 262.011719 C 330.316406 261.460938 330.574219 260.933594 330.886719 260.433594 C 331.195312 259.933594 331.550781 259.464844 331.953125 259.035156 C 332.351562 258.605469 332.792969 258.214844 333.269531 257.871094 C 333.75 257.527344 334.253906 257.234375 334.789062 256.988281 C 335.328125 256.742188 335.882812 256.554688 336.453125 256.417969 C 337.027344 256.28125 337.609375 256.203125 338.195312 256.183594 C 338.785156 256.164062 339.371094 256.199219 339.953125 256.292969 C 340.535156 256.386719 341.101562 256.539062 341.652344 256.746094 C 342.203125 256.949219 342.730469 257.207031 343.230469 257.519531 C 343.734375 257.828125 344.199219 258.183594 344.628906 258.585938 C 345.0625 258.984375 345.449219 259.425781 345.792969 259.902344 C 346.136719 260.382812 346.433594 260.886719 346.675781 261.421875 C 346.921875 261.960938 347.109375 262.515625 347.246094 263.085938 Z M 347.246094 263.085938 " fill-opacity="1" fill-rule="nonzero"/></svg>