<svg xmlns="http://www.w3.org/2000/svg" xmlns:xlink="http://www.w3.org/1999/xlink" width="500" zoomAndPan="magnify" viewBox="0 0 375 374.999991" height="500" preserveAspectRatio="xMidYMid meet" version="1.0"><defs><clipPath id="490d342664"><path d="M 18.75 18.75 L 356.25 18.75 L 356.25 356.25 L 18.75 356.25 Z M 18.75 18.75 " clip-rule="nonzero"/></clipPath></defs><g clip-path="url(#490d342664)"><path fill="#00f3f7" d="M 340.328125 324.625 L 301.339844 285.625 C 299.867188 284.15625 299.179688 282.074219 299.480469 280.015625 C 299.785156 277.953125 301.042969 276.152344 302.867188 275.164062 L 320.800781 265.480469 L 235.828125 235.832031 L 265.480469 320.816406 L 275.164062 302.871094 C 276.152344 301.046875 277.953125 299.785156 280.015625 299.480469 C 280.332031 299.4375 280.648438 299.414062 280.964844 299.414062 C 282.703125 299.414062 284.386719 300.101562 285.625 301.339844 L 324.625 340.339844 Z M 220.445312 220.445312 C 218.660156 222.238281 218.054688 224.890625 218.882812 227.285156 L 230.070312 259.332031 C 213.667969 270.082031 194.710938 275.746094 174.921875 275.746094 C 119.328125 275.746094 74.101562 230.515625 74.101562 174.921875 C 74.101562 119.332031 119.328125 74.105469 174.921875 74.105469 C 230.511719 74.105469 275.742188 119.332031 275.742188 174.921875 C 275.742188 194.710938 270.082031 213.671875 259.332031 230.070312 L 227.28125 218.886719 C 224.886719 218.054688 222.238281 218.660156 220.445312 220.445312 Z M 244.257812 299.996094 C 223.121094 311.730469 199.265625 317.914062 174.921875 317.914062 C 96.082031 317.914062 31.933594 253.765625 31.933594 174.921875 C 31.933594 96.078125 96.082031 31.933594 174.921875 31.933594 C 253.765625 31.933594 317.910156 96.078125 317.910156 174.921875 C 317.910156 199.269531 311.726562 223.125 299.996094 244.253906 L 272.117188 234.527344 C 283.140625 216.628906 288.925781 196.195312 288.925781 174.921875 C 288.925781 112.0625 237.785156 60.917969 174.921875 60.917969 C 112.058594 60.917969 60.917969 112.0625 60.917969 174.921875 C 60.917969 237.785156 112.058594 288.929688 174.921875 288.929688 C 196.195312 288.929688 216.628906 283.140625 234.527344 272.117188 Z M 356.25 324.625 C 356.25 326.371094 355.566406 328.042969 354.320312 329.285156 L 329.289062 354.320312 C 327.984375 355.605469 326.304688 356.25 324.625 356.25 C 322.945312 356.25 321.238281 355.605469 319.960938 354.320312 L 282.5625 316.925781 L 269.984375 340.234375 C 268.738281 342.535156 266.253906 343.882812 263.65625 343.675781 C 261.050781 343.464844 258.820312 341.734375 257.953125 339.273438 L 248.660156 312.617188 C 226.070312 324.730469 200.75 331.097656 174.921875 331.097656 C 133.210938 331.097656 93.988281 314.847656 64.492188 285.355469 C 34.992188 255.859375 18.75 216.636719 18.75 174.921875 C 18.75 133.207031 34.992188 93.988281 64.492188 64.492188 C 93.988281 34.996094 133.210938 18.75 174.921875 18.75 C 216.636719 18.75 255.859375 34.996094 285.355469 64.492188 C 314.832031 93.988281 331.09375 133.207031 331.09375 174.921875 C 331.09375 200.746094 324.71875 226.070312 312.625 248.660156 L 339.273438 257.960938 C 341.726562 258.816406 343.46875 261.050781 343.6875 263.65625 C 343.875 266.261719 342.535156 268.738281 340.234375 269.984375 L 316.914062 282.570312 L 354.320312 319.960938 C 355.566406 321.199219 356.25 322.875 356.25 324.625 Z M 210.191406 200.996094 C 210.191406 183.246094 194.371094 168.800781 174.921875 168.800781 C 162.75 168.800781 152.839844 160.273438 152.839844 149.789062 C 152.839844 139.304688 162.75 130.777344 174.921875 130.777344 C 181.25 130.777344 192.238281 135.660156 194.847656 139.640625 C 196.847656 142.679688 200.933594 143.527344 203.980469 141.527344 C 207.023438 139.527344 207.871094 135.4375 205.867188 132.398438 C 201.210938 125.3125 190.144531 120.238281 181.414062 118.375 L 181.171875 108.242188 C 181.085938 104.605469 178.046875 101.71875 174.421875 101.8125 C 170.785156 101.898438 167.902344 104.921875 167.996094 108.5625 L 168.21875 118.179688 C 151.972656 121.042969 139.65625 134.128906 139.65625 149.792969 C 139.65625 167.542969 155.476562 181.988281 174.921875 181.988281 C 187.097656 181.988281 197.007812 190.515625 197.007812 200.996094 C 197.007812 211.480469 187.097656 220.011719 174.921875 220.011719 C 166.566406 220.011719 162.339844 217.296875 155.457031 210.804688 C 152.808594 208.304688 148.636719 208.425781 146.136719 211.074219 C 143.640625 213.722656 143.765625 217.898438 146.40625 220.394531 C 152.359375 226.007812 158.589844 231.140625 168.457031 232.707031 L 168.671875 241.605469 C 168.761719 245.195312 171.691406 248.03125 175.257812 248.03125 C 175.3125 248.03125 175.363281 248.03125 175.421875 248.03125 C 179.0625 247.949219 181.945312 244.921875 181.851562 241.28125 L 181.640625 232.605469 C 197.882812 229.734375 210.191406 216.648438 210.191406 200.996094 Z M 210.191406 200.996094 " fill-opacity="1" fill-rule="evenodd"/></g></svg>