<svg xmlns="http://www.w3.org/2000/svg" xmlns:xlink="http://www.w3.org/1999/xlink" width="500" zoomAndPan="magnify" viewBox="0 0 375 374.999991" height="500" preserveAspectRatio="xMidYMid meet" version="1.0"><defs><clipPath id="e372471ce8"><path d="M 5.210938 138 L 102 138 L 102 282 L 5.210938 282 Z M 5.210938 138 " clip-rule="nonzero"/></clipPath><clipPath id="dc14e27738"><path d="M 273 138 L 369.710938 138 L 369.710938 282 L 273 282 Z M 273 138 " clip-rule="nonzero"/></clipPath><clipPath id="dadae7bbbf"><path d="M 139 305 L 224 305 L 224 350.894531 L 139 350.894531 Z M 139 305 " clip-rule="nonzero"/></clipPath></defs><g clip-path="url(#e372471ce8)"><path fill="#00f3f7" d="M 58.023438 281.160156 C 56.890625 281.160156 55.75 281.011719 54.609375 280.6875 L 15.011719 269.664062 C 11.6875 268.738281 8.9375 266.570312 7.257812 263.5625 C 5.582031 260.554688 5.175781 257.074219 6.136719 253.761719 L 36.742188 147.621094 C 38.683594 140.894531 45.742188 136.949219 52.492188 138.828125 L 92.089844 149.851562 C 95.414062 150.777344 98.167969 152.945312 99.84375 155.953125 C 101.523438 158.960938 101.925781 162.441406 100.96875 165.753906 L 70.363281 271.894531 C 68.742188 277.488281 63.585938 281.160156 58.023438 281.160156 Z M 56.824219 272.730469 C 59.222656 273.390625 61.726562 271.992188 62.421875 269.605469 L 93.027344 163.464844 C 93.363281 162.292969 93.222656 161.050781 92.628906 159.984375 C 92.035156 158.917969 91.058594 158.152344 89.875 157.820312 L 50.269531 146.792969 C 47.875 146.125 45.371094 147.53125 44.675781 149.917969 L 14.070312 256.058594 C 13.730469 257.230469 13.871094 258.472656 14.464844 259.539062 C 15.0625 260.605469 16.035156 261.371094 17.21875 261.703125 Z M 56.824219 272.730469 " fill-opacity="1" fill-rule="nonzero"/></g><path fill="#00f3f7" d="M 63.246094 189.855469 C 62.015625 189.855469 60.777344 189.691406 59.535156 189.34375 C 55.964844 188.351562 52.996094 186.027344 51.179688 182.804688 C 49.363281 179.582031 48.90625 175.839844 49.898438 172.277344 C 50.890625 168.707031 53.214844 165.738281 56.4375 163.917969 C 59.660156 162.101562 63.402344 161.648438 66.964844 162.636719 C 74.328125 164.6875 78.652344 172.351562 76.601562 179.714844 C 74.898438 185.839844 69.3125 189.855469 63.246094 189.855469 Z M 63.238281 170.390625 C 62.289062 170.390625 61.347656 170.640625 60.496094 171.117188 C 59.1875 171.855469 58.253906 173.050781 57.847656 174.492188 C 57.445312 175.929688 57.632812 177.441406 58.371094 178.746094 C 59.105469 180.054688 60.304688 180.988281 61.742188 181.390625 C 64.71875 182.21875 67.808594 180.472656 68.636719 177.5 C 69.460938 174.523438 67.71875 171.433594 64.742188 170.605469 C 64.246094 170.457031 63.742188 170.390625 63.238281 170.390625 Z M 72.621094 178.597656 Z M 72.621094 178.597656 " fill-opacity="1" fill-rule="nonzero"/><g clip-path="url(#dc14e27738)"><path fill="#00f3f7" d="M 316.890625 281.160156 C 311.320312 281.160156 306.164062 277.488281 304.550781 271.894531 L 273.945312 165.753906 C 272.996094 162.441406 273.394531 158.960938 275.070312 155.953125 C 276.75 152.945312 279.5 150.777344 282.824219 149.851562 L 322.429688 138.828125 C 329.175781 136.949219 336.242188 140.894531 338.183594 147.621094 L 368.789062 253.761719 C 369.738281 257.074219 369.34375 260.554688 367.664062 263.5625 C 365.984375 266.570312 363.234375 268.738281 359.910156 269.664062 L 320.3125 280.6875 C 319.164062 281.011719 318.015625 281.160156 316.890625 281.160156 Z M 325.851562 146.628906 C 325.445312 146.628906 325.042969 146.679688 324.636719 146.792969 L 285.03125 157.820312 C 283.847656 158.152344 282.875 158.917969 282.277344 159.984375 C 281.683594 161.050781 281.542969 162.292969 281.882812 163.464844 L 312.488281 269.605469 C 313.171875 271.992188 315.683594 273.390625 318.082031 272.730469 L 357.679688 261.703125 C 358.863281 261.371094 359.835938 260.605469 360.433594 259.539062 C 361.027344 258.472656 361.167969 257.230469 360.828125 256.058594 L 330.222656 149.917969 C 329.660156 147.933594 327.828125 146.628906 325.851562 146.628906 Z M 323.527344 142.820312 Z M 323.527344 142.820312 " fill-opacity="1" fill-rule="nonzero"/></g><path fill="#00f3f7" d="M 311.355469 189.855469 C 305.289062 189.855469 299.699219 185.832031 298 179.707031 C 295.949219 172.34375 300.269531 164.679688 307.636719 162.628906 C 311.207031 161.636719 314.941406 162.09375 318.164062 163.910156 C 321.386719 165.730469 323.710938 168.695312 324.703125 172.265625 C 325.695312 175.839844 325.238281 179.574219 323.421875 182.796875 C 321.601562 186.019531 318.636719 188.34375 315.066406 189.335938 C 313.824219 189.691406 312.578125 189.855469 311.355469 189.855469 Z M 311.355469 170.390625 C 310.851562 170.390625 310.347656 170.457031 309.84375 170.597656 C 306.867188 171.425781 305.121094 174.515625 305.949219 177.492188 C 306.777344 180.464844 309.867188 182.210938 312.84375 181.382812 C 314.28125 180.980469 315.480469 180.042969 316.214844 178.738281 C 316.949219 177.433594 317.132812 175.929688 316.734375 174.484375 C 316.328125 173.042969 315.394531 171.847656 314.089844 171.109375 C 313.246094 170.640625 312.304688 170.390625 311.355469 170.390625 Z M 311.355469 170.390625 " fill-opacity="1" fill-rule="nonzero"/><path fill="#00f3f7" d="M 268.046875 281.695312 C 265.832031 281.695312 263.996094 279.945312 263.921875 277.710938 C 263.839844 275.429688 265.617188 273.523438 267.898438 273.429688 C 268.105469 273.421875 288.527344 272.523438 304.476562 261.480469 C 306.355469 260.183594 308.933594 260.652344 310.230469 262.53125 C 311.527344 264.40625 311.058594 266.976562 309.179688 268.28125 C 291.195312 280.730469 269.128906 281.664062 268.203125 281.695312 C 268.144531 281.695312 268.09375 281.695312 268.046875 281.695312 Z M 268.046875 281.695312 " fill-opacity="1" fill-rule="nonzero"/><path fill="#00f3f7" d="M 81.585938 276.902344 C 80.527344 276.902344 79.472656 276.496094 78.660156 275.695312 L 66.414062 263.445312 C 64.800781 261.835938 64.800781 259.214844 66.414062 257.605469 C 68.023438 255.992188 70.644531 255.992188 72.253906 257.605469 L 84.503906 269.851562 C 86.117188 271.464844 86.117188 274.085938 84.503906 275.695312 C 83.703125 276.496094 82.644531 276.902344 81.585938 276.902344 Z M 81.585938 276.902344 " fill-opacity="1" fill-rule="nonzero"/><g clip-path="url(#dadae7bbbf)"><path fill="#00f3f7" d="M 162.699219 350.980469 C 157.300781 350.980469 151.914062 348.933594 147.804688 344.824219 L 140.757812 337.773438 C 139.144531 336.164062 139.144531 333.542969 140.757812 331.929688 C 142.367188 330.320312 144.988281 330.320312 146.597656 331.929688 L 153.648438 338.980469 C 158.640625 343.972656 166.757812 343.972656 171.75 338.980469 C 174.171875 336.574219 175.503906 333.359375 175.503906 329.9375 C 175.503906 328.277344 175.1875 326.65625 174.566406 325.121094 C 173.933594 323.542969 172.988281 322.121094 171.757812 320.890625 C 170.148438 319.277344 170.148438 316.65625 171.757812 315.046875 C 173.371094 313.433594 175.988281 313.433594 177.601562 315.046875 L 193.296875 330.734375 C 198.289062 335.726562 206.40625 335.726562 211.398438 330.734375 C 213.8125 328.320312 215.148438 325.097656 215.148438 321.675781 C 215.148438 318.261719 213.820312 315.046875 211.398438 312.625 C 209.785156 311.011719 209.785156 308.390625 211.398438 306.78125 C 213.007812 305.167969 215.628906 305.167969 217.242188 306.78125 C 221.214844 310.757812 223.40625 316.046875 223.40625 321.675781 C 223.40625 327.304688 221.214844 332.59375 217.242188 336.574219 C 209.023438 344.792969 195.660156 344.792969 187.453125 336.574219 L 183.59375 332.714844 C 183 337.304688 180.914062 341.535156 177.59375 344.839844 C 173.476562 348.933594 168.089844 350.980469 162.699219 350.980469 Z M 162.699219 350.980469 " fill-opacity="1" fill-rule="nonzero"/></g><path fill="#00f3f7" d="M 233.175781 325.691406 C 227.546875 325.691406 222.257812 323.5 218.28125 319.515625 L 179.734375 280.96875 C 178.121094 279.355469 178.121094 276.738281 179.734375 275.125 C 181.34375 273.515625 183.964844 273.515625 185.578125 275.125 L 224.125 313.671875 C 226.546875 316.085938 229.753906 317.425781 233.175781 317.425781 C 236.597656 317.425781 239.8125 316.09375 242.226562 313.671875 C 247.21875 308.683594 247.21875 300.566406 242.226562 295.574219 L 203.679688 257.023438 C 202.066406 255.414062 202.066406 252.792969 203.679688 251.183594 C 205.289062 249.570312 207.910156 249.570312 209.519531 251.183594 L 248.078125 289.730469 C 256.292969 297.945312 256.292969 311.308594 248.078125 319.515625 C 244.09375 323.5 238.796875 325.691406 233.175781 325.691406 Z M 233.175781 325.691406 " fill-opacity="1" fill-rule="nonzero"/><path fill="#00f3f7" d="M 251.332031 295.960938 C 245.707031 295.960938 240.414062 293.773438 236.441406 289.789062 C 234.828125 288.175781 234.828125 285.554688 236.441406 283.945312 C 238.050781 282.332031 240.671875 282.332031 242.285156 283.945312 C 244.707031 286.367188 247.914062 287.695312 251.332031 287.695312 C 254.753906 287.695312 257.960938 286.367188 260.382812 283.945312 C 262.300781 282.019531 263.542969 279.589844 263.960938 276.925781 C 264.078125 276.242188 264.136719 275.570312 264.136719 274.894531 C 264.136719 271.480469 262.804688 268.265625 260.382812 265.835938 L 199.171875 204.625 C 194.71875 200.171875 188.1875 198.46875 182.121094 200.171875 C 179.015625 201.046875 176.214844 202.765625 174.023438 205.144531 L 154.945312 225.859375 C 154.90625 225.898438 154.871094 225.941406 154.832031 225.980469 C 150.484375 230.328125 144.707031 232.726562 138.558594 232.726562 C 132.410156 232.726562 126.632812 230.328125 122.285156 225.980469 C 115.078125 218.773438 113.449219 207.898438 118.226562 198.914062 C 124.359375 187.390625 134.945312 171.589844 150.625 161.722656 C 150.683594 161.6875 150.738281 161.648438 150.796875 161.613281 C 163.683594 153.546875 177.808594 150.835938 192.769531 153.546875 C 195.015625 153.878906 226.160156 158.664062 250.589844 175.40625 L 277.0625 163.96875 C 279.152344 163.070312 281.59375 164.027344 282.492188 166.125 C 283.402344 168.226562 282.433594 170.65625 280.335938 171.554688 L 251.738281 183.914062 C 250.398438 184.492188 248.855469 184.316406 247.679688 183.464844 C 224.265625 166.53125 191.84375 161.761719 191.519531 161.722656 C 191.460938 161.714844 191.414062 161.703125 191.363281 161.695312 C 178.402344 159.332031 166.179688 161.6875 155.039062 168.714844 C 154.980469 168.746094 154.929688 168.78125 154.871094 168.8125 C 140.820312 177.730469 131.160156 192.203125 125.523438 202.796875 C 122.464844 208.550781 123.507812 215.519531 128.128906 220.136719 C 130.914062 222.921875 134.613281 224.460938 138.558594 224.460938 C 142.46875 224.460938 146.152344 222.949219 148.929688 220.195312 L 167.949219 199.550781 C 171.171875 196.046875 175.304688 193.507812 179.890625 192.21875 C 188.824219 189.707031 198.460938 192.21875 205.023438 198.78125 L 266.234375 259.992188 C 270.210938 263.976562 272.402344 269.265625 272.402344 274.886719 C 272.402344 276.027344 272.308594 277.160156 272.128906 278.25 C 271.441406 282.605469 269.410156 286.605469 266.242188 289.78125 C 262.253906 293.761719 256.960938 295.960938 251.332031 295.960938 Z M 251.332031 295.960938 " fill-opacity="1" fill-rule="nonzero"/><path fill="#00f3f7" d="M 95.457031 174.558594 C 93.570312 174.558594 91.867188 173.257812 91.429688 171.339844 C 90.925781 169.117188 92.316406 166.902344 94.539062 166.390625 C 121.414062 160.265625 151.527344 161.050781 152.929688 161.085938 C 155.160156 161.144531 156.964844 162.96875 156.964844 165.21875 C 156.964844 167.539062 155.011719 169.40625 152.707031 169.351562 C 151.476562 169.308594 122.308594 168.539062 96.371094 174.449219 C 96.066406 174.515625 95.761719 174.558594 95.457031 174.558594 Z M 95.457031 174.558594 " fill-opacity="1" fill-rule="nonzero"/><path fill="#00f3f7" d="M 91.199219 293.324219 C 87.148438 293.324219 83.339844 291.746094 80.480469 288.886719 C 77.621094 286.027344 76.039062 282.21875 76.039062 278.167969 C 76.039062 274.117188 77.621094 270.308594 80.480469 267.449219 L 93.519531 254.40625 C 96.382812 251.546875 100.191406 249.96875 104.242188 249.96875 C 108.292969 249.96875 112.101562 251.546875 114.960938 254.40625 C 117.820312 257.265625 119.398438 261.074219 119.398438 265.125 C 119.398438 269.175781 117.820312 272.984375 114.960938 275.84375 C 113.347656 277.457031 110.730469 277.457031 109.117188 275.84375 C 107.507812 274.234375 107.507812 271.613281 109.117188 270 C 110.421875 268.695312 111.132812 266.96875 111.132812 265.125 C 111.132812 263.28125 110.414062 261.554688 109.117188 260.25 C 107.8125 258.941406 106.085938 258.230469 104.242188 258.230469 C 102.398438 258.230469 100.671875 258.949219 99.363281 260.25 L 86.324219 273.289062 C 85.015625 274.597656 84.304688 276.324219 84.304688 278.167969 C 84.304688 280.011719 85.023438 281.738281 86.324219 283.042969 C 87.628906 284.347656 89.355469 285.058594 91.199219 285.058594 C 93.042969 285.058594 94.769531 284.339844 96.074219 283.042969 C 97.6875 281.433594 100.308594 281.433594 101.917969 283.042969 C 103.53125 284.65625 103.53125 287.273438 101.917969 288.886719 C 99.050781 291.753906 95.25 293.324219 91.199219 293.324219 Z M 91.199219 293.324219 " fill-opacity="1" fill-rule="nonzero"/><path fill="#00f3f7" d="M 102.140625 313.574219 C 98.09375 313.574219 94.28125 311.996094 91.421875 309.136719 C 88.5625 306.277344 86.984375 302.464844 86.984375 298.417969 C 86.984375 294.367188 88.5625 290.554688 91.421875 287.695312 L 109.109375 270.007812 C 111.96875 267.148438 115.777344 265.570312 119.828125 265.570312 C 123.878906 265.570312 127.6875 267.148438 130.546875 270.007812 C 133.410156 272.871094 134.988281 276.679688 134.988281 280.730469 C 134.988281 284.777344 133.410156 288.582031 130.546875 291.449219 C 128.9375 293.0625 126.316406 293.0625 124.707031 291.449219 C 123.09375 289.835938 123.09375 287.21875 124.707031 285.605469 C 126.011719 284.300781 126.722656 282.574219 126.722656 280.730469 C 126.722656 278.886719 126.003906 277.160156 124.707031 275.851562 C 123.398438 274.546875 121.671875 273.835938 119.828125 273.835938 C 117.984375 273.835938 116.257812 274.554688 114.953125 275.851562 L 97.265625 293.539062 C 94.578125 296.226562 94.578125 300.605469 97.265625 303.292969 C 98.570312 304.597656 100.296875 305.308594 102.140625 305.308594 C 103.984375 305.308594 105.710938 304.589844 107.019531 303.292969 C 108.628906 301.679688 111.25 301.679688 112.863281 303.292969 C 114.472656 304.90625 114.472656 307.523438 112.863281 309.136719 C 110 311.996094 106.191406 313.574219 102.140625 313.574219 Z M 102.140625 313.574219 " fill-opacity="1" fill-rule="nonzero"/><path fill="#00f3f7" d="M 112.605469 334.296875 C 108.722656 334.296875 104.84375 332.816406 101.886719 329.863281 C 99.027344 327.003906 97.449219 323.195312 97.449219 319.144531 C 97.449219 315.09375 99.027344 311.285156 101.886719 308.425781 L 124.714844 285.597656 C 127.574219 282.738281 131.382812 281.160156 135.433594 281.160156 C 139.484375 281.160156 143.292969 282.738281 146.152344 285.597656 C 149.011719 288.457031 150.589844 292.265625 150.589844 296.316406 C 150.589844 300.367188 149.011719 304.167969 146.152344 307.035156 L 123.324219 329.863281 C 120.367188 332.816406 116.480469 334.296875 112.605469 334.296875 Z M 107.730469 324.023438 C 110.414062 326.707031 114.796875 326.707031 117.480469 324.023438 L 140.308594 301.195312 C 141.617188 299.886719 142.328125 298.160156 142.328125 296.316406 C 142.328125 294.472656 141.605469 292.746094 140.308594 291.441406 C 139.003906 290.136719 137.277344 289.425781 135.433594 289.425781 C 133.589844 289.425781 131.863281 290.144531 130.558594 291.441406 L 107.730469 314.269531 C 106.421875 315.574219 105.710938 317.300781 105.710938 319.144531 C 105.703125 320.988281 106.421875 322.714844 107.730469 324.023438 Z M 107.730469 324.023438 " fill-opacity="1" fill-rule="nonzero"/><path fill="#00f3f7" d="M 134.820312 343.269531 C 130.9375 343.269531 127.0625 341.792969 124.101562 338.839844 C 121.242188 335.972656 119.664062 332.171875 119.664062 328.121094 C 119.664062 324.070312 121.242188 320.261719 124.101562 317.402344 C 125.714844 315.789062 128.332031 315.789062 129.945312 317.402344 C 131.558594 319.011719 131.558594 321.632812 129.945312 323.246094 C 128.640625 324.550781 127.929688 326.277344 127.929688 328.121094 C 127.929688 329.964844 128.648438 331.691406 129.945312 332.996094 C 132.632812 335.683594 137.003906 335.683594 139.699219 332.996094 L 155.898438 316.796875 C 157.203125 315.492188 157.914062 313.765625 157.914062 311.921875 C 157.914062 310.078125 157.195312 308.351562 155.898438 307.046875 C 153.210938 304.359375 148.839844 304.359375 146.144531 307.046875 C 144.535156 308.65625 141.914062 308.65625 140.300781 307.046875 C 138.691406 305.433594 138.691406 302.8125 140.300781 301.203125 C 146.210938 295.292969 155.832031 295.292969 161.742188 301.203125 C 164.601562 304.070312 166.179688 307.871094 166.179688 311.921875 C 166.179688 315.972656 164.601562 319.78125 161.742188 322.640625 L 145.542969 338.839844 C 142.582031 341.792969 138.707031 343.269531 134.820312 343.269531 Z M 134.820312 343.269531 " fill-opacity="1" fill-rule="nonzero"/><path fill="#00f3f7" d="M 187.453125 89.898438 C 171.699219 89.898438 158.882812 77.078125 158.882812 61.324219 C 158.882812 45.574219 171.699219 32.761719 187.453125 32.761719 C 203.207031 32.761719 216.027344 45.582031 216.027344 61.335938 C 216.027344 77.085938 203.207031 89.898438 187.453125 89.898438 Z M 187.453125 41.027344 C 176.253906 41.027344 167.144531 50.136719 167.144531 61.335938 C 167.144531 72.535156 176.253906 81.640625 187.453125 81.640625 C 198.652344 81.640625 207.761719 72.535156 207.761719 61.335938 C 207.761719 50.136719 198.652344 41.027344 187.453125 41.027344 Z M 187.453125 41.027344 " fill-opacity="1" fill-rule="nonzero"/><path fill="#00f3f7" d="M 229.175781 133.183594 L 145.730469 133.183594 C 143.449219 133.183594 141.597656 131.332031 141.597656 129.050781 L 141.597656 111.121094 C 141.597656 94.867188 154.824219 81.640625 171.082031 81.640625 L 203.828125 81.640625 C 220.082031 81.640625 233.308594 94.867188 233.308594 111.121094 L 233.308594 129.050781 C 233.308594 131.332031 231.457031 133.183594 229.175781 133.183594 Z M 149.863281 124.917969 L 225.042969 124.917969 L 225.042969 111.121094 C 225.042969 99.417969 215.523438 89.90625 203.828125 89.90625 L 171.082031 89.90625 C 159.378906 89.90625 149.863281 99.429688 149.863281 111.121094 Z M 149.863281 124.917969 " fill-opacity="1" fill-rule="nonzero"/><path fill="#00f3f7" d="M 209.015625 133.183594 C 206.734375 133.183594 204.882812 131.332031 204.882812 129.050781 L 204.882812 115.832031 C 204.882812 113.550781 206.734375 111.703125 209.015625 111.703125 C 211.296875 111.703125 213.148438 113.550781 213.148438 115.832031 L 213.148438 129.050781 C 213.148438 131.332031 211.296875 133.183594 209.015625 133.183594 Z M 209.015625 133.183594 " fill-opacity="1" fill-rule="nonzero"/><path fill="#00f3f7" d="M 165.890625 133.183594 C 163.609375 133.183594 161.757812 131.332031 161.757812 129.050781 L 161.757812 115.832031 C 161.757812 113.550781 163.609375 111.703125 165.890625 111.703125 C 168.171875 111.703125 170.023438 113.550781 170.023438 115.832031 L 170.023438 129.050781 C 170.023438 131.332031 168.171875 133.183594 165.890625 133.183594 Z M 165.890625 133.183594 " fill-opacity="1" fill-rule="nonzero"/><path fill="#00f3f7" d="M 108.441406 81.226562 C 92.6875 81.226562 79.867188 68.410156 79.867188 52.65625 C 79.867188 36.902344 92.6875 24.082031 108.441406 24.082031 C 124.191406 24.082031 137.011719 36.902344 137.011719 52.65625 C 137.011719 68.410156 124.191406 81.226562 108.441406 81.226562 Z M 108.441406 32.347656 C 97.242188 32.347656 88.132812 41.457031 88.132812 52.65625 C 88.132812 63.855469 97.242188 72.964844 108.441406 72.964844 C 119.640625 72.964844 128.746094 63.855469 128.746094 52.65625 C 128.746094 41.457031 119.640625 32.347656 108.441406 32.347656 Z M 108.441406 32.347656 " fill-opacity="1" fill-rule="nonzero"/><path fill="#00f3f7" d="M 145.730469 124.503906 L 66.71875 124.503906 C 64.4375 124.503906 62.585938 122.652344 62.585938 120.371094 L 62.585938 105.046875 C 62.585938 87.351562 76.976562 72.964844 94.671875 72.964844 L 122.21875 72.964844 C 136.914062 72.964844 149.691406 82.898438 153.300781 97.128906 C 153.863281 99.34375 152.527344 101.59375 150.308594 102.148438 C 148.09375 102.707031 145.847656 101.371094 145.292969 99.15625 C 142.617188 88.59375 133.128906 81.21875 122.226562 81.21875 L 94.679688 81.21875 C 81.546875 81.21875 70.859375 91.90625 70.859375 105.039062 L 70.859375 116.230469 L 145.738281 116.230469 C 148.019531 116.230469 149.871094 118.082031 149.871094 120.363281 C 149.871094 122.644531 148.011719 124.503906 145.730469 124.503906 Z M 145.730469 124.503906 " fill-opacity="1" fill-rule="nonzero"/><path fill="#00f3f7" d="M 130.003906 124.503906 C 127.722656 124.503906 125.871094 122.652344 125.871094 120.371094 L 125.871094 107.15625 C 125.871094 104.875 127.722656 103.023438 130.003906 103.023438 C 132.285156 103.023438 134.136719 104.875 134.136719 107.15625 L 134.136719 120.371094 C 134.136719 122.652344 132.285156 124.503906 130.003906 124.503906 Z M 130.003906 124.503906 " fill-opacity="1" fill-rule="nonzero"/><path fill="#00f3f7" d="M 86.882812 124.503906 C 84.601562 124.503906 82.753906 122.652344 82.753906 120.371094 L 82.753906 107.15625 C 82.753906 104.875 84.601562 103.023438 86.882812 103.023438 C 89.164062 103.023438 91.015625 104.875 91.015625 107.15625 L 91.015625 120.371094 C 91.015625 122.652344 89.164062 124.503906 86.882812 124.503906 Z M 86.882812 124.503906 " fill-opacity="1" fill-rule="nonzero"/><path fill="#00f3f7" d="M 266.46875 81.226562 C 250.714844 81.226562 237.894531 68.410156 237.894531 52.65625 C 237.894531 36.902344 250.714844 24.082031 266.46875 24.082031 C 282.21875 24.082031 295.039062 36.902344 295.039062 52.65625 C 295.039062 68.410156 282.21875 81.226562 266.46875 81.226562 Z M 266.46875 32.347656 C 255.269531 32.347656 246.160156 41.457031 246.160156 52.65625 C 246.160156 63.855469 255.269531 72.964844 266.46875 72.964844 C 277.667969 72.964844 286.773438 63.855469 286.773438 52.65625 C 286.765625 41.457031 277.65625 32.347656 266.46875 32.347656 Z M 266.46875 32.347656 " fill-opacity="1" fill-rule="nonzero"/><path fill="#00f3f7" d="M 308.1875 124.503906 L 229.175781 124.503906 C 226.894531 124.503906 225.042969 122.652344 225.042969 120.371094 C 225.042969 118.089844 226.894531 116.238281 229.175781 116.238281 L 304.054688 116.238281 L 304.054688 105.046875 C 304.054688 91.914062 293.371094 81.226562 280.238281 81.226562 L 252.6875 81.226562 C 241.78125 81.226562 232.292969 88.601562 229.621094 99.164062 C 229.058594 101.378906 226.8125 102.71875 224.597656 102.15625 C 222.382812 101.59375 221.042969 99.34375 221.605469 97.136719 C 225.207031 82.90625 237.992188 72.972656 252.6875 72.972656 L 280.238281 72.972656 C 297.933594 72.972656 312.320312 87.359375 312.320312 105.054688 L 312.320312 120.378906 C 312.320312 122.652344 310.46875 124.503906 308.1875 124.503906 Z M 308.1875 124.503906 " fill-opacity="1" fill-rule="nonzero"/><path fill="#00f3f7" d="M 288.023438 124.503906 C 285.742188 124.503906 283.890625 122.652344 283.890625 120.371094 L 283.890625 107.15625 C 283.890625 104.875 285.742188 103.023438 288.023438 103.023438 C 290.304688 103.023438 292.15625 104.875 292.15625 107.15625 L 292.15625 120.371094 C 292.15625 122.652344 290.304688 124.503906 288.023438 124.503906 Z M 288.023438 124.503906 " fill-opacity="1" fill-rule="nonzero"/><path fill="#00f3f7" d="M 244.902344 124.503906 C 242.621094 124.503906 240.769531 122.652344 240.769531 120.371094 L 240.769531 107.15625 C 240.769531 104.875 242.621094 103.023438 244.902344 103.023438 C 247.183594 103.023438 249.035156 104.875 249.035156 107.15625 L 249.035156 120.371094 C 249.035156 122.652344 247.183594 124.503906 244.902344 124.503906 Z M 244.902344 124.503906 " fill-opacity="1" fill-rule="nonzero"/></svg>