<svg xmlns="http://www.w3.org/2000/svg" xmlns:xlink="http://www.w3.org/1999/xlink" width="500" zoomAndPan="magnify" viewBox="0 0 375 374.999991" height="500" preserveAspectRatio="xMidYMid meet" version="1.0"><defs><clipPath id="8e36693551"><path d="M 2.257812 136.03125 L 228.347656 136.03125 L 228.347656 362.125 L 2.257812 362.125 Z M 2.257812 136.03125 " clip-rule="nonzero"/></clipPath><clipPath id="0b81d09d8d"><path d="M 159 12.890625 L 308 12.890625 L 308 161 L 159 161 Z M 159 12.890625 " clip-rule="nonzero"/></clipPath><clipPath id="1f69082a1c"><path d="M 270 123 L 366 123 L 366 218.597656 L 270 218.597656 Z M 270 123 " clip-rule="nonzero"/></clipPath></defs><path fill="#00f3f7" d="M 159.195312 230.242188 L 146.648438 230.242188 L 146.648438 267.882812 L 159.195312 267.882812 L 159.195312 230.242188 " fill-opacity="1" fill-rule="nonzero"/><path fill="#00f3f7" d="M 171.742188 280.425781 L 134.109375 280.425781 L 134.109375 217.703125 L 171.742188 217.703125 Z M 121.5625 230.242188 L 109.015625 230.242188 L 109.015625 242.789062 L 121.5625 242.789062 L 121.5625 255.335938 L 109.015625 255.335938 L 109.015625 267.882812 L 121.5625 267.882812 L 121.5625 280.425781 L 96.46875 280.425781 L 96.46875 217.703125 L 121.5625 217.703125 Z M 83.925781 230.242188 L 71.378906 230.242188 L 71.378906 242.789062 L 83.925781 242.789062 L 83.925781 280.425781 L 58.835938 280.425781 L 58.835938 267.882812 L 71.378906 267.882812 L 71.378906 255.335938 L 58.835938 255.335938 L 58.835938 217.703125 L 83.925781 217.703125 Z M 194.949219 231.585938 C 192.890625 222.148438 189.195312 213.234375 183.976562 205.097656 L 181.246094 200.84375 L 190.691406 191.402344 L 172.949219 173.664062 L 163.507812 183.105469 L 159.253906 180.375 C 151.121094 175.15625 142.203125 171.46875 132.765625 169.40625 L 127.835938 168.324219 L 127.835938 154.976562 L 102.742188 154.976562 L 102.742188 168.324219 L 97.808594 169.40625 C 88.367188 171.460938 79.457031 175.15625 71.324219 180.375 L 67.070312 183.105469 L 57.628906 173.664062 L 39.890625 191.402344 L 49.328125 200.84375 L 46.601562 205.097656 C 41.382812 213.234375 37.691406 222.148438 35.628906 231.585938 L 34.550781 236.515625 L 21.199219 236.515625 L 21.199219 261.609375 L 34.550781 261.609375 L 35.628906 266.542969 C 37.6875 275.984375 41.382812 284.894531 46.601562 293.03125 L 49.328125 297.28125 L 39.886719 306.722656 L 57.628906 324.464844 L 67.070312 315.023438 L 71.324219 317.75 C 79.457031 322.972656 88.367188 326.664062 97.808594 328.722656 L 102.742188 329.800781 L 102.742188 343.152344 L 127.835938 343.152344 L 127.835938 329.800781 L 132.765625 328.722656 C 142.203125 326.664062 151.121094 322.972656 159.253906 317.75 L 163.507812 315.023438 L 172.949219 324.464844 L 190.691406 306.722656 L 181.246094 297.28125 L 183.976562 293.03125 C 189.195312 284.894531 192.890625 275.984375 194.949219 266.542969 L 196.027344 261.609375 L 209.378906 261.609375 L 209.378906 236.523438 L 196.027344 236.523438 L 194.949219 231.585938 " fill-opacity="1" fill-rule="nonzero"/><g clip-path="url(#8e36693551)"><path fill="#00f3f7" d="M 221.921875 274.152344 L 205.984375 274.152344 C 203.933594 281.601562 200.980469 288.734375 197.164062 295.457031 L 208.429688 306.722656 L 172.949219 342.207031 L 161.679688 330.941406 C 154.960938 334.757812 147.828125 337.710938 140.375 339.761719 L 140.375 355.695312 L 90.199219 355.695312 L 90.199219 339.761719 C 82.75 337.710938 75.617188 334.757812 68.894531 330.941406 L 57.628906 342.207031 L 22.144531 306.722656 L 33.414062 295.457031 C 29.597656 288.734375 26.640625 281.601562 24.589844 274.152344 L 8.65625 274.152344 L 8.65625 223.976562 L 24.589844 223.976562 C 26.640625 216.527344 29.597656 209.394531 33.414062 202.671875 L 22.144531 191.402344 L 57.628906 155.921875 L 68.894531 167.1875 C 75.617188 163.375 82.75 160.417969 90.199219 158.367188 L 90.199219 142.429688 L 140.375 142.429688 L 140.375 158.367188 C 147.824219 160.417969 154.960938 163.375 161.679688 167.1875 L 172.949219 155.921875 L 208.429688 191.402344 L 197.164062 202.671875 C 200.980469 209.394531 203.933594 216.527344 205.984375 223.976562 L 221.921875 223.976562 Z M 221.921875 217.574219 L 210.738281 217.574219 C 209.183594 212.867188 207.28125 208.273438 205.042969 203.835938 L 212.957031 195.929688 C 215.453125 193.429688 215.453125 189.382812 212.957031 186.882812 L 177.472656 151.394531 C 176.273438 150.195312 174.644531 149.519531 172.949219 149.519531 C 171.253906 149.519531 169.625 150.195312 168.425781 151.394531 L 160.511719 159.308594 C 156.085938 157.074219 151.492188 155.171875 146.773438 153.617188 L 146.773438 142.429688 C 146.773438 138.898438 143.910156 136.03125 140.375 136.03125 L 90.199219 136.03125 C 86.664062 136.03125 83.800781 138.898438 83.800781 142.429688 L 83.800781 153.617188 C 79.085938 155.167969 74.492188 157.074219 70.0625 159.308594 L 62.152344 151.398438 C 60.953125 150.199219 59.328125 149.523438 57.628906 149.523438 C 55.933594 149.523438 54.304688 150.199219 53.105469 151.398438 L 17.621094 186.882812 C 16.421875 188.082031 15.746094 189.707031 15.746094 191.40625 C 15.746094 193.101562 16.421875 194.730469 17.621094 195.929688 L 25.53125 203.835938 C 23.296875 208.269531 21.394531 212.859375 19.84375 217.574219 L 8.65625 217.574219 C 5.121094 217.574219 2.257812 220.4375 2.257812 223.972656 L 2.257812 274.152344 C 2.257812 277.683594 5.121094 280.550781 8.65625 280.550781 L 19.84375 280.550781 C 21.394531 285.265625 23.300781 289.863281 25.53125 294.289062 L 17.621094 302.203125 C 15.121094 304.699219 15.121094 308.75 17.621094 311.25 L 53.105469 346.730469 C 54.355469 347.980469 55.992188 348.605469 57.628906 348.605469 C 59.265625 348.605469 60.902344 347.980469 62.152344 346.730469 L 70.0625 338.820312 C 74.496094 341.054688 79.089844 342.960938 83.800781 344.515625 L 83.800781 355.695312 C 83.800781 359.230469 86.664062 362.097656 90.199219 362.097656 L 140.375 362.097656 C 143.910156 362.097656 146.773438 359.230469 146.773438 355.695312 L 146.773438 344.515625 C 151.484375 342.960938 156.082031 341.054688 160.511719 338.820312 L 168.425781 346.730469 C 169.675781 347.980469 171.3125 348.605469 172.949219 348.605469 C 174.585938 348.605469 176.222656 347.980469 177.472656 346.730469 L 212.957031 311.25 C 215.453125 308.75 215.453125 304.699219 212.957031 302.203125 L 205.042969 294.289062 C 207.28125 289.855469 209.183594 285.261719 210.738281 280.550781 L 221.921875 280.550781 C 225.453125 280.550781 228.320312 277.683594 228.320312 274.152344 L 228.320312 223.972656 C 228.320312 220.4375 225.453125 217.574219 221.921875 217.574219 " fill-opacity="1" fill-rule="nonzero"/></g><g clip-path="url(#0b81d09d8d)"><path fill="#00f3f7" d="M 233.464844 160.421875 C 192.714844 160.421875 159.71875 127.425781 159.71875 86.675781 C 159.71875 45.921875 192.714844 12.925781 233.464844 12.925781 C 274.21875 12.925781 307.214844 45.921875 307.214844 86.675781 C 307.214844 127.425781 274.214844 160.421875 233.464844 160.421875 Z M 233.464844 21.667969 C 175.65625 21.667969 146.664062 91.808594 187.496094 132.640625 C 228.339844 173.484375 298.472656 144.464844 298.472656 86.675781 C 298.472656 50.75 269.390625 21.664062 233.464844 21.664062 Z M 233.464844 21.667969 " fill-opacity="1" fill-rule="evenodd"/></g><g clip-path="url(#1f69082a1c)"><path fill="#00f3f7" d="M 341.855469 218.289062 C 335.714844 218.289062 330.144531 215.839844 326.332031 211.351562 L 270.519531 145.691406 C 268.492188 143.304688 292.316406 123.585938 292.484375 123.730469 L 358.144531 179.539062 C 372.726562 191.9375 363.058594 218.289062 341.859375 218.289062 Z M 341.855469 218.289062 " fill-opacity="1" fill-rule="evenodd"/></g><path fill="#00f3f7" d="M 229 82.304688 L 236.367188 82.304688 C 242.121094 82.304688 242.121094 91.046875 236.367188 91.046875 L 229 91.046875 L 229 95.429688 L 237.835938 95.429688 C 243.589844 95.429688 243.589844 104.167969 237.835938 104.167969 L 224.628906 104.167969 C 222.21875 104.167969 220.261719 102.210938 220.261719 99.800781 L 220.261719 73.550781 C 220.261719 71.140625 222.21875 69.179688 224.628906 69.179688 L 237.835938 69.183594 C 243.589844 69.183594 243.589844 77.921875 237.835938 77.921875 L 229 77.921875 L 229 82.308594 Z M 233.464844 143.773438 C 201.980469 143.773438 176.367188 118.160156 176.367188 86.675781 C 176.367188 80.921875 185.109375 80.921875 185.109375 86.675781 C 185.109375 113.335938 206.800781 135.03125 233.464844 135.03125 C 239.21875 135.03125 239.21875 143.773438 233.464844 143.773438 Z M 286.191406 91.042969 C 283.78125 91.042969 281.820312 89.085938 281.820312 86.675781 C 281.820312 60.011719 260.128906 38.316406 233.464844 38.316406 C 227.710938 38.316406 227.710938 29.578125 233.464844 29.578125 C 264.953125 29.578125 290.539062 55.195312 290.5625 86.671875 C 290.5625 89.085938 288.605469 91.042969 286.191406 91.042969 Z M 265.035156 85.492188 C 261.621094 89.292969 259.585938 89.265625 256.183594 85.492188 L 256.183594 99.710938 C 256.183594 105.46875 247.445312 105.46875 247.445312 99.710938 L 247.441406 73.636719 C 247.441406 69.613281 252.511719 67.738281 255.128906 70.792969 L 260.609375 77.179688 L 266.085938 70.792969 C 268.703125 67.738281 273.773438 69.613281 273.773438 73.636719 L 273.773438 99.710938 C 273.773438 105.464844 265.035156 105.460938 265.035156 99.710938 Z M 193.160156 80.117188 C 193.160156 68 210.078125 64.992188 214.320312 76.265625 C 216.347656 81.648438 208.167969 84.722656 206.144531 79.339844 C 204.851562 75.902344 200.378906 79.34375 202.269531 81.359375 C 204.355469 83.582031 215.019531 81.757812 215.019531 93.234375 C 215.019531 102.503906 204.089844 107.722656 196.75 101.351562 C 190.636719 96.042969 196.023438 90.714844 199.769531 92.226562 C 201.714844 93.015625 202.296875 95.429688 204.089844 95.429688 C 206.164062 95.429688 206.78125 92.921875 205.910156 91.992188 C 203.824219 89.769531 193.160156 91.59375 193.160156 80.117188 Z M 193.160156 80.117188 " fill-opacity="1" fill-rule="evenodd"/></svg>