<svg xmlns="http://www.w3.org/2000/svg" xmlns:xlink="http://www.w3.org/1999/xlink" width="500" zoomAndPan="magnify" viewBox="0 0 375 374.999991" height="500" preserveAspectRatio="xMidYMid meet" version="1.0"><path fill="#00f3f7" d="M 310.121094 250.859375 C 306.675781 250.855469 303.257812 251.15625 299.863281 251.757812 C 296.472656 252.363281 293.160156 253.257812 289.925781 254.445312 C 286.691406 255.636719 283.585938 257.101562 280.613281 258.839844 C 277.636719 260.578125 274.839844 262.5625 272.214844 264.796875 L 260.636719 253.21875 C 261.65625 252.097656 262.652344 250.957031 263.621094 249.792969 C 264.585938 248.625 265.527344 247.441406 266.441406 246.230469 C 267.355469 245.023438 268.238281 243.792969 269.09375 242.542969 C 269.949219 241.292969 270.777344 240.027344 271.574219 238.738281 C 272.371094 237.449219 273.140625 236.144531 273.878906 234.820312 C 274.613281 233.5 275.320312 232.160156 275.996094 230.804688 C 276.671875 229.449219 277.316406 228.078125 277.925781 226.691406 C 278.539062 225.304688 279.117188 223.90625 279.664062 222.496094 C 280.214844 221.082031 280.726562 219.660156 281.207031 218.222656 C 281.691406 216.785156 282.136719 215.339844 282.554688 213.882812 C 282.96875 212.425781 283.347656 210.960938 283.695312 209.484375 C 284.042969 208.011719 284.355469 206.53125 284.632812 205.042969 C 284.910156 203.550781 285.15625 202.058594 285.363281 200.558594 C 285.574219 199.058594 285.75 197.554688 285.886719 196.046875 C 286.027344 194.539062 286.132812 193.027344 286.203125 191.515625 C 286.273438 190 286.308594 188.488281 286.308594 186.972656 C 286.308594 185.457031 286.273438 183.945312 286.203125 182.429688 C 286.132812 180.917969 286.027344 179.40625 285.886719 177.898438 C 285.75 176.390625 285.574219 174.886719 285.363281 173.386719 C 285.15625 171.886719 284.910156 170.390625 284.632812 168.902344 C 284.355469 167.414062 284.042969 165.933594 283.695312 164.457031 C 283.347656 162.984375 282.96875 161.519531 282.554688 160.0625 C 282.136719 158.605469 281.691406 157.15625 281.207031 155.722656 C 280.726562 154.285156 280.214844 152.863281 279.664062 151.449219 C 279.117188 150.039062 278.539062 148.636719 277.925781 147.253906 C 277.316406 145.867188 276.671875 144.496094 275.996094 143.140625 C 275.320312 141.785156 274.613281 140.445312 273.878906 139.121094 C 273.140625 137.800781 272.371094 136.492188 271.574219 135.207031 C 270.777344 133.917969 269.949219 132.648438 269.09375 131.398438 C 268.238281 130.152344 267.355469 128.921875 266.441406 127.714844 C 265.527344 126.503906 264.585938 125.316406 263.621094 124.152344 C 262.652344 122.988281 261.65625 121.84375 260.636719 120.726562 L 272.0625 109.300781 C 273.019531 110.105469 274 110.878906 275.007812 111.621094 C 276.011719 112.363281 277.042969 113.070312 278.09375 113.746094 C 279.144531 114.421875 280.214844 115.066406 281.308594 115.671875 C 282.402344 116.28125 283.511719 116.851562 284.640625 117.390625 C 285.769531 117.925781 286.914062 118.425781 288.074219 118.890625 C 289.238281 119.351562 290.410156 119.777344 291.601562 120.167969 C 292.789062 120.554688 293.988281 120.90625 295.199219 121.21875 C 296.40625 121.53125 297.628906 121.804688 298.855469 122.039062 C 300.082031 122.273438 301.316406 122.46875 302.558594 122.621094 C 303.796875 122.777344 305.042969 122.894531 306.289062 122.96875 C 307.539062 123.046875 308.785156 123.082031 310.035156 123.078125 C 311.285156 123.074219 312.535156 123.03125 313.78125 122.949219 C 315.027344 122.863281 316.273438 122.742188 317.511719 122.578125 C 318.75 122.417969 319.984375 122.214844 321.210938 121.972656 C 322.4375 121.734375 323.65625 121.453125 324.863281 121.132812 C 326.074219 120.8125 327.269531 120.457031 328.457031 120.0625 C 329.640625 119.667969 330.8125 119.234375 331.972656 118.761719 C 333.128906 118.292969 334.273438 117.785156 335.398438 117.242188 C 336.523438 116.699219 337.632812 116.121094 338.71875 115.507812 C 339.808594 114.894531 340.878906 114.246094 341.925781 113.566406 C 342.972656 112.882812 343.996094 112.167969 345 111.421875 C 346 110.671875 346.980469 109.894531 347.929688 109.085938 C 348.882812 108.277344 349.808594 107.4375 350.707031 106.566406 C 351.605469 105.699219 352.476562 104.800781 353.320312 103.878906 C 354.160156 102.953125 354.972656 102.003906 355.753906 101.027344 C 356.535156 100.050781 357.28125 99.050781 358 98.027344 C 358.71875 97.003906 359.402344 95.957031 360.050781 94.890625 C 360.703125 93.824219 361.316406 92.734375 361.898438 91.628906 C 362.480469 90.523438 363.023438 89.398438 363.535156 88.257812 C 364.042969 87.113281 364.515625 85.957031 364.949219 84.785156 C 365.386719 83.613281 365.785156 82.429688 366.144531 81.234375 C 366.503906 80.035156 366.824219 78.828125 367.109375 77.613281 C 367.390625 76.394531 367.632812 75.167969 367.839844 73.933594 C 368.042969 72.703125 368.210938 71.464844 368.335938 70.21875 C 368.460938 68.976562 368.546875 67.730469 368.59375 66.480469 C 368.636719 65.230469 368.644531 63.980469 368.609375 62.730469 C 368.578125 61.484375 368.503906 60.234375 368.390625 58.992188 C 368.277344 57.746094 368.125 56.503906 367.933594 55.269531 C 367.738281 54.035156 367.507812 52.808594 367.238281 51.585938 C 366.96875 50.367188 366.65625 49.15625 366.308594 47.957031 C 365.960938 46.753906 365.574219 45.566406 365.152344 44.390625 C 364.726562 43.214844 364.265625 42.054688 363.769531 40.90625 C 363.269531 39.761719 362.738281 38.632812 362.167969 37.519531 C 361.597656 36.40625 360.992188 35.3125 360.351562 34.238281 C 359.710938 33.164062 359.039062 32.113281 358.332031 31.082031 C 357.625 30.050781 356.886719 29.042969 356.117188 28.058594 C 355.34375 27.074219 354.542969 26.117188 353.710938 25.183594 C 352.878906 24.253906 352.015625 23.347656 351.125 22.46875 C 350.234375 21.589844 349.320312 20.742188 348.375 19.925781 C 347.429688 19.105469 346.460938 18.316406 345.464844 17.558594 C 344.472656 16.800781 343.453125 16.078125 342.414062 15.386719 C 341.371094 14.691406 340.3125 14.035156 339.226562 13.410156 C 338.144531 12.785156 337.042969 12.195312 335.921875 11.640625 C 334.800781 11.085938 333.664062 10.570312 332.511719 10.089844 C 331.359375 9.605469 330.191406 9.160156 329.007812 8.753906 C 327.828125 8.347656 326.632812 7.976562 325.429688 7.648438 C 324.222656 7.316406 323.007812 7.023438 321.785156 6.769531 C 320.558594 6.515625 319.328125 6.304688 318.089844 6.128906 C 316.851562 5.953125 315.609375 5.816406 314.363281 5.722656 C 313.117188 5.625 311.871094 5.570312 310.621094 5.554688 C 309.371094 5.539062 308.121094 5.5625 306.871094 5.625 C 305.625 5.691406 304.378906 5.792969 303.136719 5.9375 C 301.894531 6.078125 300.660156 6.261719 299.429688 6.484375 C 298.199219 6.707031 296.976562 6.96875 295.765625 7.269531 C 294.550781 7.566406 293.347656 7.90625 292.15625 8.28125 C 290.964844 8.660156 289.785156 9.074219 288.621094 9.527344 C 287.453125 9.976562 286.304688 10.464844 285.171875 10.992188 C 284.035156 11.515625 282.917969 12.078125 281.820312 12.675781 C 280.722656 13.273438 279.644531 13.902344 278.585938 14.566406 C 277.527344 15.234375 276.492188 15.933594 275.476562 16.664062 C 274.464844 17.394531 273.476562 18.15625 272.511719 18.953125 C 271.546875 19.746094 270.605469 20.570312 269.695312 21.425781 C 268.78125 22.28125 267.898438 23.164062 267.042969 24.074219 C 266.1875 24.984375 265.359375 25.921875 264.5625 26.886719 C 263.769531 27.851562 263.003906 28.839844 262.269531 29.851562 C 261.535156 30.863281 260.835938 31.898438 260.167969 32.957031 C 259.503906 34.011719 258.871094 35.089844 258.273438 36.1875 C 257.671875 37.285156 257.109375 38.402344 256.582031 39.535156 C 256.054688 40.667969 255.566406 41.816406 255.113281 42.980469 C 254.660156 44.144531 254.242188 45.324219 253.863281 46.515625 C 253.484375 47.707031 253.144531 48.910156 252.84375 50.121094 C 252.539062 51.335938 252.277344 52.558594 252.054688 53.785156 C 251.832031 55.015625 251.644531 56.253906 251.5 57.492188 C 251.355469 58.734375 251.25 59.980469 251.183594 61.230469 C 251.117188 62.476562 251.09375 63.726562 251.105469 64.976562 C 251.121094 66.226562 251.175781 67.472656 251.269531 68.722656 C 251.363281 69.96875 251.496094 71.210938 251.667969 72.449219 C 251.84375 73.683594 252.054688 74.917969 252.304688 76.140625 C 252.558594 77.367188 252.847656 78.582031 253.175781 79.785156 C 253.507812 80.992188 253.875 82.1875 254.277344 83.371094 C 254.683594 84.550781 255.125 85.71875 255.605469 86.875 C 256.085938 88.027344 256.601562 89.167969 257.15625 90.289062 C 257.707031 91.410156 258.296875 92.511719 258.917969 93.59375 C 259.539062 94.679688 260.199219 95.742188 260.886719 96.785156 C 261.578125 97.824219 262.300781 98.84375 263.058594 99.839844 C 263.8125 100.835938 264.601562 101.808594 265.417969 102.753906 L 253.964844 114.207031 C 252.84375 113.1875 251.703125 112.191406 250.535156 111.226562 C 249.371094 110.257812 248.183594 109.316406 246.976562 108.402344 C 245.769531 107.492188 244.539062 106.605469 243.289062 105.75 C 242.039062 104.894531 240.769531 104.066406 239.484375 103.269531 C 238.195312 102.472656 236.890625 101.703125 235.566406 100.96875 C 234.242188 100.230469 232.90625 99.523438 231.550781 98.847656 C 230.191406 98.171875 228.824219 97.53125 227.4375 96.917969 C 226.050781 96.304688 224.652344 95.726562 223.238281 95.179688 C 221.828125 94.632812 220.402344 94.117188 218.96875 93.636719 C 217.53125 93.15625 216.085938 92.707031 214.628906 92.292969 C 213.171875 91.878906 211.707031 91.496094 210.230469 91.148438 C 208.757812 90.800781 207.273438 90.488281 205.785156 90.210938 C 204.296875 89.933594 202.804688 89.691406 201.304688 89.480469 C 199.804688 89.269531 198.296875 89.097656 196.789062 88.957031 C 195.28125 88.816406 193.773438 88.710938 192.257812 88.640625 C 190.746094 88.570312 189.230469 88.535156 187.71875 88.535156 C 186.203125 88.535156 184.6875 88.570312 183.175781 88.640625 C 181.664062 88.710938 180.152344 88.816406 178.644531 88.957031 C 177.136719 89.097656 175.632812 89.269531 174.132812 89.480469 C 172.632812 89.691406 171.136719 89.933594 169.648438 90.210938 C 168.160156 90.488281 166.675781 90.800781 165.203125 91.148438 C 163.730469 91.496094 162.261719 91.878906 160.804688 92.292969 C 159.351562 92.707031 157.902344 93.15625 156.46875 93.636719 C 155.03125 94.117188 153.605469 94.632812 152.195312 95.179688 C 150.78125 95.726562 149.382812 96.304688 147.996094 96.917969 C 146.613281 97.53125 145.242188 98.171875 143.886719 98.847656 C 142.53125 99.523438 141.191406 100.230469 139.867188 100.96875 C 138.542969 101.703125 137.238281 102.472656 135.949219 103.269531 C 134.664062 104.066406 133.394531 104.894531 132.144531 105.75 C 130.894531 106.605469 129.667969 107.492188 128.457031 108.402344 C 127.25 109.316406 126.0625 110.257812 124.898438 111.226562 C 123.734375 112.191406 122.589844 113.1875 121.472656 114.207031 L 110.203125 102.84375 C 111.003906 101.882812 111.777344 100.890625 112.515625 99.878906 C 113.253906 98.863281 113.960938 97.828125 114.632812 96.769531 C 115.304688 95.710938 115.945312 94.632812 116.546875 93.53125 C 117.152344 92.433594 117.722656 91.316406 118.253906 90.179688 C 118.785156 89.042969 119.28125 87.894531 119.742188 86.726562 C 120.203125 85.558594 120.625 84.378906 121.007812 83.183594 C 121.390625 81.988281 121.738281 80.785156 122.042969 79.566406 C 122.351562 78.351562 122.621094 77.125 122.847656 75.894531 C 123.078125 74.660156 123.265625 73.421875 123.417969 72.175781 C 123.566406 70.929688 123.675781 69.679688 123.746094 68.425781 C 123.816406 67.175781 123.847656 65.921875 123.835938 64.667969 C 123.828125 63.414062 123.777344 62.160156 123.6875 60.910156 C 123.597656 59.65625 123.46875 58.410156 123.300781 57.167969 C 123.128906 55.925781 122.921875 54.6875 122.671875 53.457031 C 122.425781 52.230469 122.136719 51.007812 121.8125 49.796875 C 121.484375 48.585938 121.121094 47.386719 120.71875 46.199219 C 120.316406 45.007812 119.875 43.835938 119.398438 42.675781 C 118.921875 41.515625 118.40625 40.371094 117.855469 39.246094 C 117.304688 38.117188 116.71875 37.007812 116.097656 35.917969 C 115.476562 34.828125 114.820312 33.761719 114.132812 32.710938 C 113.441406 31.664062 112.722656 30.640625 111.964844 29.636719 C 111.210938 28.636719 110.425781 27.660156 109.609375 26.707031 C 108.792969 25.753906 107.945312 24.828125 107.066406 23.933594 C 106.191406 23.035156 105.289062 22.164062 104.355469 21.324219 C 103.425781 20.484375 102.46875 19.675781 101.484375 18.898438 C 100.5 18.117188 99.492188 17.371094 98.460938 16.65625 C 97.433594 15.941406 96.378906 15.261719 95.304688 14.613281 C 94.230469 13.964844 93.136719 13.351562 92.023438 12.773438 C 90.910156 12.195312 89.777344 11.65625 88.628906 11.148438 C 87.484375 10.644531 86.320312 10.175781 85.140625 9.742188 C 83.964844 9.3125 82.773438 8.917969 81.570312 8.5625 C 80.367188 8.207031 79.152344 7.890625 77.929688 7.613281 C 76.707031 7.335938 75.476562 7.097656 74.238281 6.898438 C 73 6.695312 71.753906 6.539062 70.507812 6.417969 C 69.257812 6.296875 68.007812 6.21875 66.753906 6.175781 C 65.5 6.136719 64.246094 6.136719 62.992188 6.175781 C 61.738281 6.214844 60.488281 6.292969 59.238281 6.414062 C 57.988281 6.535156 56.746094 6.691406 55.507812 6.890625 C 54.269531 7.089844 53.039062 7.328125 51.8125 7.605469 C 50.589844 7.882812 49.378906 8.199219 48.171875 8.554688 C 46.96875 8.910156 45.78125 9.300781 44.601562 9.734375 C 43.421875 10.164062 42.261719 10.632812 41.113281 11.136719 C 39.964844 11.640625 38.832031 12.183594 37.71875 12.761719 C 36.605469 13.335938 35.511719 13.949219 34.4375 14.597656 C 33.359375 15.242188 32.308594 15.925781 31.277344 16.636719 C 30.246094 17.351562 29.238281 18.097656 28.253906 18.878906 C 27.269531 19.65625 26.3125 20.464844 25.378906 21.304688 C 24.449219 22.144531 23.542969 23.011719 22.667969 23.910156 C 21.789062 24.808594 20.945312 25.730469 20.125 26.683594 C 19.308594 27.632812 18.523438 28.609375 17.765625 29.613281 C 17.011719 30.613281 16.289062 31.640625 15.597656 32.6875 C 14.910156 33.734375 14.253906 34.804688 13.632812 35.890625 C 13.007812 36.980469 12.421875 38.089844 11.871094 39.21875 C 11.320312 40.34375 10.804688 41.488281 10.328125 42.648438 C 9.847656 43.808594 9.410156 44.980469 9.003906 46.167969 C 8.601562 47.355469 8.238281 48.554688 7.910156 49.765625 C 7.585938 50.976562 7.296875 52.199219 7.046875 53.429688 C 6.796875 54.65625 6.589844 55.894531 6.417969 57.136719 C 6.25 58.378906 6.121094 59.628906 6.027344 60.878906 C 5.9375 62.128906 5.886719 63.382812 5.878906 64.636719 C 5.867188 65.890625 5.898438 67.144531 5.964844 68.398438 C 6.035156 69.648438 6.144531 70.898438 6.292969 72.144531 C 6.445312 73.390625 6.632812 74.628906 6.859375 75.863281 C 7.089844 77.097656 7.355469 78.320312 7.664062 79.539062 C 7.96875 80.753906 8.3125 81.960938 8.699219 83.15625 C 9.082031 84.347656 9.503906 85.53125 9.960938 86.699219 C 10.417969 87.863281 10.914062 89.015625 11.449219 90.152344 C 11.980469 91.289062 12.546875 92.40625 13.152344 93.507812 C 13.753906 94.605469 14.394531 95.683594 15.066406 96.746094 C 15.738281 97.804688 16.441406 98.839844 17.183594 99.855469 C 17.921875 100.867188 18.691406 101.855469 19.492188 102.820312 C 20.292969 103.785156 21.125 104.726562 21.988281 105.636719 C 22.847656 106.550781 23.738281 107.433594 24.65625 108.289062 C 25.574219 109.140625 26.519531 109.96875 27.488281 110.761719 C 28.460938 111.558594 29.453125 112.320312 30.472656 113.050781 C 31.492188 113.78125 32.535156 114.480469 33.597656 115.144531 C 34.664062 115.808594 35.746094 116.441406 36.851562 117.035156 C 37.953125 117.632812 39.078125 118.191406 40.214844 118.714844 C 41.355469 119.238281 42.511719 119.726562 43.683594 120.175781 C 44.851562 120.628906 46.035156 121.039062 47.234375 121.414062 C 48.429688 121.789062 49.640625 122.125 50.859375 122.425781 C 52.078125 122.722656 53.304688 122.980469 54.539062 123.199219 C 55.773438 123.417969 57.015625 123.597656 58.261719 123.738281 C 59.507812 123.878906 60.757812 123.980469 62.011719 124.039062 C 63.261719 124.101562 64.515625 124.121094 65.769531 124.101562 C 67.027344 124.082031 68.277344 124.023438 69.527344 123.925781 C 70.777344 123.824219 72.023438 123.6875 73.265625 123.507812 C 74.507812 123.328125 75.742188 123.109375 76.972656 122.851562 C 78.199219 122.59375 79.417969 122.296875 80.625 121.960938 C 81.835938 121.628906 83.03125 121.253906 84.214844 120.84375 C 85.402344 120.429688 86.570312 119.980469 87.730469 119.496094 C 88.886719 119.007812 90.023438 118.484375 91.148438 117.925781 C 92.269531 117.367188 93.375 116.773438 94.460938 116.144531 C 95.542969 115.511719 96.609375 114.851562 97.652344 114.152344 C 98.695312 113.453125 99.714844 112.726562 100.710938 111.960938 C 101.707031 111.199219 102.675781 110.40625 103.621094 109.582031 L 114.984375 120.945312 C 113.960938 122.0625 112.96875 123.203125 112 124.371094 C 111.03125 125.535156 110.09375 126.722656 109.179688 127.929688 C 108.265625 129.140625 107.382812 130.367188 106.527344 131.617188 C 105.667969 132.867188 104.84375 134.136719 104.046875 135.421875 C 103.246094 136.710938 102.480469 138.015625 101.742188 139.339844 C 101.007812 140.664062 100.300781 142.003906 99.625 143.359375 C 98.949219 144.714844 98.304688 146.085938 97.695312 147.46875 C 97.082031 148.855469 96.503906 150.253906 95.953125 151.667969 C 95.40625 153.078125 94.894531 154.503906 94.410156 155.9375 C 93.929688 157.375 93.484375 158.820312 93.066406 160.277344 C 92.652344 161.734375 92.273438 163.199219 91.925781 164.675781 C 91.578125 166.148438 91.265625 167.632812 90.988281 169.121094 C 90.710938 170.609375 90.464844 172.105469 90.257812 173.605469 C 90.046875 175.105469 89.871094 176.609375 89.734375 178.117188 C 89.59375 179.625 89.488281 181.136719 89.417969 182.648438 C 89.347656 184.160156 89.3125 185.675781 89.3125 187.191406 C 89.3125 188.703125 89.347656 190.21875 89.417969 191.730469 C 89.488281 193.242188 89.59375 194.753906 89.734375 196.261719 C 89.871094 197.769531 90.046875 199.273438 90.257812 200.773438 C 90.464844 202.277344 90.710938 203.769531 90.988281 205.257812 C 91.265625 206.746094 91.578125 208.230469 91.925781 209.703125 C 92.273438 211.179688 92.652344 212.644531 93.066406 214.101562 C 93.484375 215.558594 93.929688 217.003906 94.410156 218.441406 C 94.894531 219.875 95.40625 221.300781 95.953125 222.710938 C 96.503906 224.125 97.082031 225.523438 97.695312 226.910156 C 98.304688 228.292969 98.949219 229.664062 99.625 231.019531 C 100.300781 232.375 101.007812 233.714844 101.742188 235.039062 C 102.480469 236.363281 103.246094 237.667969 104.046875 238.957031 C 104.84375 240.242188 105.667969 241.511719 106.527344 242.761719 C 107.382812 244.011719 108.265625 245.238281 109.179688 246.449219 C 110.09375 247.65625 111.03125 248.84375 112 250.007812 C 112.96875 251.175781 113.960938 252.316406 114.984375 253.433594 L 103.464844 264.796875 C 102.503906 263.996094 101.511719 263.222656 100.5 262.484375 C 99.484375 261.746094 98.449219 261.039062 97.390625 260.367188 C 96.332031 259.695312 95.253906 259.054688 94.152344 258.453125 C 93.054688 257.847656 91.9375 257.277344 90.800781 256.746094 C 89.664062 256.214844 88.515625 255.71875 87.347656 255.257812 C 86.179688 254.796875 85 254.375 83.804688 253.992188 C 82.609375 253.609375 81.40625 253.261719 80.1875 252.957031 C 78.972656 252.648438 77.746094 252.378906 76.515625 252.152344 C 75.28125 251.921875 74.039062 251.734375 72.796875 251.582031 C 71.550781 251.433594 70.300781 251.324219 69.046875 251.253906 C 67.796875 251.183594 66.542969 251.152344 65.289062 251.164062 C 64.035156 251.171875 62.78125 251.222656 61.53125 251.3125 C 60.277344 251.402344 59.03125 251.53125 57.789062 251.699219 C 56.546875 251.871094 55.308594 252.078125 54.078125 252.328125 C 52.847656 252.574219 51.628906 252.863281 50.417969 253.1875 C 49.207031 253.515625 48.007812 253.878906 46.820312 254.28125 C 45.628906 254.683594 44.457031 255.125 43.296875 255.601562 C 42.136719 256.078125 40.992188 256.59375 39.867188 257.144531 C 38.738281 257.695312 37.628906 258.28125 36.539062 258.902344 C 35.449219 259.523438 34.382812 260.179688 33.332031 260.867188 C 32.285156 261.558594 31.261719 262.277344 30.257812 263.035156 C 29.257812 263.789062 28.277344 264.574219 27.328125 265.390625 C 26.375 266.207031 25.449219 267.054688 24.554688 267.933594 C 23.65625 268.808594 22.785156 269.710938 21.945312 270.644531 C 21.105469 271.574219 20.296875 272.53125 19.515625 273.515625 C 18.738281 274.5 17.992188 275.507812 17.277344 276.539062 C 16.5625 277.566406 15.882812 278.621094 15.234375 279.695312 C 14.585938 280.769531 13.972656 281.863281 13.394531 282.976562 C 12.816406 284.089844 12.277344 285.222656 11.769531 286.371094 C 11.265625 287.515625 10.796875 288.679688 10.363281 289.859375 C 9.933594 291.035156 9.539062 292.226562 9.183594 293.429688 C 8.828125 294.632812 8.511719 295.847656 8.234375 297.070312 C 7.957031 298.292969 7.71875 299.523438 7.519531 300.761719 C 7.316406 302 7.160156 303.246094 7.039062 304.492188 C 6.917969 305.742188 6.835938 306.992188 6.796875 308.246094 C 6.757812 309.5 6.757812 310.753906 6.796875 312.007812 C 6.835938 313.261719 6.914062 314.511719 7.035156 315.761719 C 7.15625 317.011719 7.3125 318.253906 7.511719 319.492188 C 7.710938 320.730469 7.949219 321.960938 8.226562 323.1875 C 8.503906 324.410156 8.820312 325.621094 9.175781 326.828125 C 9.53125 328.03125 9.921875 329.21875 10.355469 330.398438 C 10.785156 331.578125 11.253906 332.738281 11.757812 333.886719 C 12.261719 335.035156 12.804688 336.167969 13.382812 337.28125 C 13.957031 338.394531 14.570312 339.488281 15.21875 340.5625 C 15.863281 341.640625 16.546875 342.691406 17.257812 343.722656 C 17.972656 344.753906 18.71875 345.761719 19.5 346.746094 C 20.277344 347.730469 21.085938 348.6875 21.925781 349.621094 C 22.765625 350.550781 23.632812 351.457031 24.53125 352.332031 C 25.429688 353.210938 26.351562 354.054688 27.304688 354.875 C 28.253906 355.691406 29.230469 356.476562 30.234375 357.234375 C 31.234375 357.988281 32.261719 358.710938 33.308594 359.402344 C 34.355469 360.089844 35.421875 360.746094 36.511719 361.367188 C 37.601562 361.992188 38.710938 362.578125 39.839844 363.128906 C 40.964844 363.679688 42.109375 364.195312 43.269531 364.671875 C 44.429688 365.148438 45.601562 365.589844 46.789062 365.996094 C 47.976562 366.398438 49.175781 366.761719 50.386719 367.089844 C 51.597656 367.414062 52.820312 367.703125 54.050781 367.953125 C 55.277344 368.203125 56.515625 368.410156 57.757812 368.582031 C 59 368.75 60.246094 368.878906 61.5 368.972656 C 62.75 369.0625 64.003906 369.113281 65.257812 369.121094 C 66.511719 369.132812 67.765625 369.101562 69.019531 369.035156 C 70.269531 368.964844 71.519531 368.855469 72.765625 368.707031 C 74.011719 368.554688 75.25 368.367188 76.484375 368.140625 C 77.71875 367.910156 78.941406 367.644531 80.160156 367.335938 C 81.375 367.03125 82.582031 366.6875 83.773438 366.300781 C 84.96875 365.917969 86.152344 365.496094 87.316406 365.039062 C 88.484375 364.582031 89.636719 364.085938 90.773438 363.550781 C 91.910156 363.019531 93.027344 362.453125 94.128906 361.847656 C 95.226562 361.246094 96.304688 360.605469 97.363281 359.933594 C 98.425781 359.261719 99.460938 358.558594 100.476562 357.816406 C 101.488281 357.078125 102.476562 356.308594 103.441406 355.507812 C 104.40625 354.707031 105.347656 353.875 106.257812 353.011719 C 107.167969 352.152344 108.054688 351.261719 108.910156 350.34375 C 109.761719 349.425781 110.589844 348.480469 111.382812 347.511719 C 112.175781 346.539062 112.941406 345.546875 113.671875 344.527344 C 114.402344 343.507812 115.101562 342.464844 115.765625 341.402344 C 116.429688 340.335938 117.0625 339.253906 117.65625 338.148438 C 118.253906 337.046875 118.8125 335.921875 119.335938 334.785156 C 119.859375 333.644531 120.347656 332.488281 120.796875 331.316406 C 121.25 330.148438 121.660156 328.964844 122.035156 327.765625 C 122.410156 326.570312 122.746094 325.359375 123.046875 324.140625 C 123.34375 322.921875 123.601562 321.695312 123.820312 320.460938 C 124.039062 319.226562 124.21875 317.984375 124.359375 316.738281 C 124.5 315.492188 124.601562 314.242188 124.660156 312.988281 C 124.722656 311.738281 124.742188 310.484375 124.722656 309.230469 C 124.703125 307.972656 124.644531 306.722656 124.546875 305.472656 C 124.445312 304.222656 124.308594 302.976562 124.128906 301.734375 C 123.949219 300.492188 123.730469 299.257812 123.472656 298.027344 C 123.214844 296.800781 122.917969 295.582031 122.582031 294.375 C 122.25 293.164062 121.875 291.96875 121.460938 290.785156 C 121.050781 289.597656 120.601562 288.429688 120.117188 287.269531 C 119.628906 286.113281 119.105469 284.976562 118.546875 283.851562 C 117.988281 282.730469 117.394531 281.625 116.765625 280.539062 C 116.132812 279.457031 115.472656 278.390625 114.773438 277.347656 C 114.074219 276.304688 113.347656 275.285156 112.582031 274.289062 C 111.820312 273.292969 111.027344 272.324219 110.203125 271.378906 L 121.71875 259.863281 C 122.839844 260.882812 123.980469 261.875 125.144531 262.84375 C 126.3125 263.8125 127.5 264.753906 128.707031 265.664062 C 129.914062 266.578125 131.144531 267.460938 132.394531 268.320312 C 133.644531 269.175781 134.910156 270 136.199219 270.800781 C 137.488281 271.597656 138.792969 272.363281 140.117188 273.101562 C 141.4375 273.839844 142.777344 274.542969 144.132812 275.21875 C 145.488281 275.894531 146.859375 276.539062 148.246094 277.152344 C 149.632812 277.761719 151.03125 278.34375 152.441406 278.890625 C 153.855469 279.4375 155.28125 279.953125 156.714844 280.433594 C 158.152344 280.914062 159.597656 281.363281 161.054688 281.777344 C 162.511719 282.191406 163.976562 282.574219 165.453125 282.917969 C 166.925781 283.265625 168.40625 283.578125 169.894531 283.855469 C 171.386719 284.136719 172.878906 284.378906 174.378906 284.589844 C 175.878906 284.796875 177.382812 284.972656 178.890625 285.113281 C 180.402344 285.253906 181.910156 285.355469 183.425781 285.425781 C 184.9375 285.496094 186.449219 285.53125 187.964844 285.53125 C 189.480469 285.53125 190.992188 285.496094 192.507812 285.425781 C 194.019531 285.355469 195.53125 285.253906 197.039062 285.113281 C 198.546875 284.972656 200.050781 284.796875 201.550781 284.589844 C 203.050781 284.378906 204.546875 284.136719 206.035156 283.855469 C 207.523438 283.578125 209.003906 283.265625 210.480469 282.917969 C 211.953125 282.574219 213.417969 282.191406 214.875 281.777344 C 216.332031 281.363281 217.78125 280.914062 219.214844 280.433594 C 220.652344 279.953125 222.074219 279.4375 223.488281 278.890625 C 224.902344 278.34375 226.300781 277.761719 227.683594 277.152344 C 229.070312 276.539062 230.441406 275.894531 231.796875 275.21875 C 233.152344 274.542969 234.492188 273.839844 235.816406 273.101562 C 237.140625 272.363281 238.445312 271.597656 239.730469 270.800781 C 241.019531 270 242.289062 269.175781 243.539062 268.320312 C 244.785156 267.460938 246.015625 266.578125 247.222656 265.664062 C 248.433594 264.753906 249.621094 263.8125 250.785156 262.84375 C 251.949219 261.875 253.09375 260.882812 254.210938 259.863281 L 265.789062 271.472656 C 265.078125 272.308594 264.390625 273.167969 263.730469 274.042969 C 263.066406 274.921875 262.429688 275.816406 261.816406 276.726562 C 261.203125 277.640625 260.617188 278.570312 260.058594 279.515625 C 259.496094 280.460938 258.964844 281.421875 258.457031 282.398438 C 257.953125 283.375 257.472656 284.363281 257.023438 285.367188 C 256.574219 286.371094 256.152344 287.382812 255.761719 288.410156 C 255.367188 289.4375 255.003906 290.472656 254.671875 291.523438 C 254.335938 292.570312 254.03125 293.625 253.757812 294.6875 C 253.484375 295.753906 253.238281 296.824219 253.023438 297.902344 C 252.808594 298.980469 252.625 300.0625 252.472656 301.152344 C 252.320312 302.242188 252.199219 303.332031 252.105469 304.429688 C 252.015625 305.523438 251.957031 306.621094 251.925781 307.71875 C 251.898438 308.820312 251.898438 309.917969 251.929688 311.015625 C 251.964844 312.113281 252.027344 313.210938 252.121094 314.308594 C 252.214844 315.402344 252.34375 316.492188 252.5 317.582031 C 252.652344 318.671875 252.839844 319.753906 253.058594 320.832031 C 253.277344 321.90625 253.523438 322.976562 253.800781 324.042969 C 254.078125 325.105469 254.386719 326.160156 254.722656 327.207031 C 255.058594 328.253906 255.425781 329.289062 255.824219 330.3125 C 256.21875 331.339844 256.644531 332.351562 257.09375 333.355469 C 257.546875 334.355469 258.027344 335.34375 258.539062 336.320312 C 259.046875 337.292969 259.582031 338.253906 260.144531 339.195312 C 260.707031 340.140625 261.296875 341.066406 261.914062 341.980469 C 262.527344 342.890625 263.167969 343.78125 263.832031 344.65625 C 264.5 345.53125 265.1875 346.386719 265.902344 347.222656 C 266.617188 348.058594 267.351562 348.875 268.113281 349.667969 C 268.875 350.464844 269.65625 351.234375 270.457031 351.984375 C 271.261719 352.734375 272.085938 353.460938 272.929688 354.167969 C 273.773438 354.871094 274.636719 355.550781 275.519531 356.203125 C 276.402344 356.859375 277.304688 357.488281 278.222656 358.09375 C 279.140625 358.695312 280.074219 359.273438 281.027344 359.824219 C 281.976562 360.375 282.945312 360.902344 283.925781 361.398438 C 284.90625 361.894531 285.898438 362.363281 286.90625 362.804688 C 287.914062 363.246094 288.929688 363.65625 289.960938 364.039062 C 290.992188 364.421875 292.03125 364.777344 293.082031 365.101562 C 294.132812 365.425781 295.191406 365.71875 296.257812 365.984375 C 297.324219 366.25 298.398438 366.484375 299.476562 366.6875 C 300.558594 366.890625 301.644531 367.066406 302.734375 367.207031 C 303.824219 367.351562 304.914062 367.464844 306.011719 367.546875 C 307.109375 367.625 308.207031 367.675781 309.304688 367.695312 C 310.402344 367.714844 311.503906 367.703125 312.601562 367.660156 C 313.699219 367.617188 314.796875 367.542969 315.890625 367.441406 C 316.984375 367.335938 318.074219 367.199219 319.160156 367.035156 C 320.246094 366.867188 321.328125 366.671875 322.402344 366.441406 C 323.480469 366.214844 324.546875 365.957031 325.609375 365.671875 C 326.667969 365.382812 327.722656 365.066406 328.765625 364.71875 C 329.808594 364.371094 330.839844 363.996094 331.863281 363.589844 C 332.882812 363.1875 333.894531 362.753906 334.890625 362.289062 C 335.886719 361.828125 336.871094 361.339844 337.839844 360.820312 C 338.8125 360.304688 339.765625 359.757812 340.703125 359.1875 C 341.644531 358.617188 342.566406 358.019531 343.46875 357.394531 C 344.375 356.769531 345.261719 356.121094 346.132812 355.449219 C 347 354.773438 347.847656 354.078125 348.679688 353.355469 C 349.507812 352.632812 350.316406 351.890625 351.101562 351.121094 C 351.890625 350.355469 352.65625 349.566406 353.398438 348.757812 C 354.140625 347.945312 354.859375 347.117188 355.554688 346.265625 C 356.25 345.414062 356.921875 344.542969 357.570312 343.65625 C 358.214844 342.765625 358.835938 341.859375 359.433594 340.9375 C 360.027344 340.011719 360.597656 339.074219 361.140625 338.117188 C 361.683594 337.160156 362.199219 336.191406 362.683594 335.203125 C 363.171875 334.21875 363.632812 333.222656 364.0625 332.210938 C 364.496094 331.199219 364.898438 330.175781 365.273438 329.144531 C 365.644531 328.109375 365.988281 327.066406 366.304688 326.011719 C 366.621094 324.960938 366.902344 323.898438 367.160156 322.828125 C 367.414062 321.761719 367.636719 320.683594 367.832031 319.601562 C 368.027344 318.519531 368.191406 317.433594 368.324219 316.34375 C 368.457031 315.253906 368.558594 314.15625 368.628906 313.0625 C 368.699219 311.964844 368.742188 310.867188 368.75 309.765625 C 368.757812 308.667969 368.738281 307.570312 368.683594 306.472656 C 368.632812 305.375 368.546875 304.277344 368.433594 303.183594 C 368.316406 302.089844 368.171875 301.003906 367.996094 299.917969 C 367.820312 298.832031 367.613281 297.753906 367.375 296.679688 C 367.140625 295.605469 366.871094 294.539062 366.574219 293.484375 C 366.277344 292.425781 365.949219 291.375 365.59375 290.335938 C 365.238281 289.296875 364.851562 288.265625 364.4375 287.25 C 364.023438 286.230469 363.578125 285.226562 363.109375 284.230469 C 362.636719 283.238281 362.136719 282.261719 361.613281 281.296875 C 361.085938 280.332031 360.53125 279.382812 359.953125 278.449219 C 359.371094 277.515625 358.765625 276.597656 358.132812 275.699219 C 357.503906 274.796875 356.84375 273.917969 356.164062 273.054688 C 355.480469 272.191406 354.777344 271.351562 354.046875 270.527344 C 353.320312 269.703125 352.566406 268.902344 351.792969 268.125 C 351.019531 267.34375 350.222656 266.585938 349.40625 265.851562 C 348.585938 265.117188 347.75 264.402344 346.894531 263.714844 C 346.035156 263.027344 345.160156 262.363281 344.265625 261.726562 C 343.371094 261.085938 342.457031 260.476562 341.527344 259.886719 C 340.601562 259.300781 339.65625 258.742188 338.695312 258.207031 C 337.734375 257.671875 336.757812 257.167969 335.769531 256.6875 C 334.777344 256.210938 333.777344 255.757812 332.761719 255.335938 C 331.746094 254.914062 330.71875 254.523438 329.683594 254.15625 C 328.644531 253.792969 327.597656 253.460938 326.542969 253.152344 C 325.488281 252.847656 324.421875 252.574219 323.351562 252.328125 C 322.28125 252.082031 321.203125 251.871094 320.117188 251.683594 C 319.035156 251.5 317.949219 251.347656 316.855469 251.222656 C 315.761719 251.101562 314.667969 251.011719 313.570312 250.949219 C 312.472656 250.886719 311.375 250.859375 310.273438 250.859375 Z M 310.121094 15.832031 C 311.730469 15.832031 313.339844 15.910156 314.945312 16.066406 C 316.546875 16.222656 318.140625 16.457031 319.722656 16.773438 C 321.300781 17.085938 322.863281 17.476562 324.40625 17.941406 C 325.949219 18.410156 327.464844 18.949219 328.953125 19.566406 C 330.445312 20.183594 331.898438 20.871094 333.320312 21.628906 C 334.742188 22.386719 336.125 23.214844 337.464844 24.109375 C 338.804688 25.003906 340.097656 25.960938 341.34375 26.984375 C 342.589844 28.003906 343.785156 29.085938 344.925781 30.226562 C 346.066406 31.363281 347.148438 32.554688 348.167969 33.800781 C 349.191406 35.046875 350.152344 36.339844 351.046875 37.679688 C 351.945312 39.019531 352.773438 40.398438 353.535156 41.820312 C 354.292969 43.242188 354.984375 44.695312 355.601562 46.183594 C 356.21875 47.671875 356.761719 49.1875 357.230469 50.730469 C 357.699219 52.273438 358.089844 53.835938 358.40625 55.414062 C 358.71875 56.996094 358.957031 58.585938 359.117188 60.191406 C 359.273438 61.796875 359.355469 63.402344 359.355469 65.015625 C 359.355469 66.625 359.277344 68.234375 359.121094 69.839844 C 358.960938 71.441406 358.726562 73.035156 358.414062 74.617188 C 358.097656 76.195312 357.707031 77.757812 357.242188 79.300781 C 356.773438 80.84375 356.230469 82.359375 355.617188 83.847656 C 355 85.335938 354.3125 86.792969 353.550781 88.214844 C 352.792969 89.636719 351.964844 91.015625 351.070312 92.355469 C 350.175781 93.699219 349.21875 94.992188 348.195312 96.238281 C 347.175781 97.484375 346.09375 98.675781 344.953125 99.816406 C 343.816406 100.957031 342.621094 102.039062 341.375 103.058594 C 340.132812 104.082031 338.839844 105.042969 337.5 105.9375 C 336.160156 106.835938 334.777344 107.660156 333.355469 108.421875 C 331.9375 109.183594 330.480469 109.871094 328.992188 110.488281 C 327.503906 111.105469 325.988281 111.648438 324.445312 112.117188 C 322.902344 112.585938 321.34375 112.976562 319.761719 113.289062 C 318.179688 113.605469 316.589844 113.84375 314.984375 114 C 313.378906 114.160156 311.773438 114.238281 310.160156 114.238281 C 308.550781 114.238281 306.941406 114.160156 305.339844 114.003906 C 303.734375 113.84375 302.140625 113.609375 300.5625 113.292969 C 298.980469 112.980469 297.417969 112.589844 295.875 112.121094 C 294.332031 111.65625 292.816406 111.113281 291.328125 110.496094 C 289.839844 109.878906 288.382812 109.191406 286.964844 108.433594 C 285.542969 107.671875 284.160156 106.84375 282.820312 105.949219 C 281.480469 105.054688 280.1875 104.097656 278.941406 103.074219 C 277.695312 102.050781 276.503906 100.96875 275.363281 99.832031 C 274.222656 98.691406 273.140625 97.5 272.121094 96.253906 C 271.097656 95.007812 270.136719 93.714844 269.242188 92.375 C 268.347656 91.035156 267.519531 89.652344 266.757812 88.230469 C 266 86.8125 265.3125 85.355469 264.695312 83.867188 C 264.078125 82.378906 263.535156 80.863281 263.066406 79.320312 C 262.597656 77.777344 262.207031 76.214844 261.894531 74.636719 C 261.578125 73.054688 261.34375 71.460938 261.183594 69.859375 C 261.027344 68.253906 260.949219 66.648438 260.949219 65.035156 C 260.949219 63.425781 261.027344 61.816406 261.1875 60.214844 C 261.347656 58.613281 261.582031 57.023438 261.898438 55.441406 C 262.210938 53.863281 262.605469 52.300781 263.070312 50.761719 C 263.539062 49.21875 264.082031 47.707031 264.699219 46.21875 C 265.316406 44.730469 266.003906 43.277344 266.761719 41.855469 C 267.523438 40.433594 268.347656 39.054688 269.242188 37.714844 C 270.136719 36.378906 271.097656 35.085938 272.117188 33.839844 C 273.140625 32.59375 274.21875 31.402344 275.355469 30.261719 C 276.496094 29.125 277.6875 28.042969 278.933594 27.019531 C 280.175781 26 281.46875 25.039062 282.804688 24.144531 C 284.144531 23.25 285.523438 22.421875 286.945312 21.660156 C 288.363281 20.902344 289.816406 20.210938 291.304688 19.59375 C 292.792969 18.976562 294.308594 18.433594 295.847656 17.964844 C 297.386719 17.496094 298.949219 17.105469 300.527344 16.789062 C 302.105469 16.472656 303.699219 16.234375 305.300781 16.074219 C 306.902344 15.914062 308.507812 15.835938 310.121094 15.832031 Z M 16.453125 65.035156 C 16.453125 63.421875 16.53125 61.816406 16.6875 60.210938 C 16.84375 58.609375 17.078125 57.015625 17.390625 55.433594 C 17.707031 53.851562 18.097656 52.292969 18.5625 50.75 C 19.03125 49.207031 19.570312 47.691406 20.1875 46.199219 C 20.804688 44.710938 21.492188 43.257812 22.25 41.835938 C 23.007812 40.414062 23.835938 39.03125 24.730469 37.691406 C 25.625 36.351562 26.582031 35.058594 27.605469 33.808594 C 28.625 32.5625 29.707031 31.371094 30.847656 30.230469 C 31.984375 29.089844 33.175781 28.007812 34.421875 26.984375 C 35.667969 25.960938 36.960938 25.003906 38.300781 24.105469 C 39.640625 23.210938 41.019531 22.382812 42.441406 21.621094 C 43.863281 20.863281 45.316406 20.171875 46.804688 19.554688 C 48.292969 18.9375 49.808594 18.394531 51.351562 17.925781 C 52.894531 17.457031 54.453125 17.066406 56.035156 16.75 C 57.617188 16.433594 59.207031 16.199219 60.8125 16.039062 C 62.414062 15.882812 64.023438 15.800781 65.636719 15.800781 C 67.246094 15.800781 68.855469 15.878906 70.457031 16.035156 C 72.0625 16.191406 73.65625 16.429688 75.234375 16.742188 C 76.816406 17.054688 78.378906 17.445312 79.921875 17.914062 C 81.464844 18.382812 82.980469 18.921875 84.46875 19.539062 C 85.957031 20.15625 87.414062 20.84375 88.835938 21.601562 C 90.257812 22.363281 91.636719 23.1875 92.976562 24.082031 C 94.316406 24.980469 95.613281 25.9375 96.859375 26.960938 C 98.105469 27.980469 99.296875 29.0625 100.4375 30.203125 C 101.578125 31.339844 102.660156 32.53125 103.679688 33.777344 C 104.703125 35.023438 105.664062 36.316406 106.558594 37.65625 C 107.453125 38.996094 108.28125 40.375 109.042969 41.796875 C 109.804688 43.21875 110.492188 44.675781 111.109375 46.164062 C 111.726562 47.652344 112.269531 49.167969 112.738281 50.710938 C 113.207031 52.25 113.597656 53.8125 113.910156 55.394531 C 114.226562 56.972656 114.464844 58.566406 114.621094 60.171875 C 114.78125 61.773438 114.859375 63.382812 114.859375 64.992188 C 114.859375 66.605469 114.78125 68.214844 114.625 69.816406 C 114.464844 71.421875 114.230469 73.011719 113.914062 74.59375 C 113.601562 76.175781 113.210938 77.738281 112.742188 79.277344 C 112.277344 80.820312 111.734375 82.335938 111.117188 83.828125 C 110.5 85.316406 109.8125 86.769531 109.054688 88.191406 C 108.292969 89.613281 107.464844 90.996094 106.570312 92.335938 C 105.675781 93.675781 104.714844 94.96875 103.695312 96.214844 C 102.671875 97.460938 101.589844 98.652344 100.453125 99.792969 C 99.3125 100.933594 98.121094 102.011719 96.875 103.035156 C 95.628906 104.058594 94.335938 105.015625 92.996094 105.914062 C 91.65625 106.808594 90.273438 107.636719 88.851562 108.394531 C 87.433594 109.15625 85.976562 109.84375 84.488281 110.460938 C 83 111.078125 81.484375 111.621094 79.941406 112.089844 C 78.398438 112.554688 76.835938 112.945312 75.257812 113.261719 C 73.675781 113.574219 72.082031 113.8125 70.480469 113.96875 C 68.875 114.128906 67.269531 114.207031 65.65625 114.207031 C 64.046875 114.207031 62.441406 114.125 60.835938 113.964844 C 59.234375 113.804688 57.644531 113.566406 56.066406 113.253906 C 54.484375 112.9375 52.925781 112.546875 51.386719 112.078125 C 49.84375 111.609375 48.332031 111.066406 46.84375 110.449219 C 45.355469 109.832031 43.902344 109.144531 42.484375 108.382812 C 41.0625 107.625 39.683594 106.796875 38.34375 105.902344 C 37.003906 105.007812 35.714844 104.050781 34.46875 103.027344 C 33.222656 102.007812 32.03125 100.925781 30.894531 99.789062 C 29.753906 98.652344 28.671875 97.460938 27.652344 96.214844 C 26.628906 94.972656 25.671875 93.679688 24.773438 92.339844 C 23.878906 91.003906 23.050781 89.625 22.289062 88.203125 C 21.53125 86.785156 20.839844 85.332031 20.222656 83.84375 C 19.605469 82.359375 19.0625 80.84375 18.59375 79.304688 C 18.125 77.765625 17.730469 76.203125 17.414062 74.625 C 17.097656 73.046875 16.859375 71.457031 16.699219 69.855469 C 16.539062 68.25 16.457031 66.644531 16.453125 65.035156 Z M 65.65625 358.546875 C 64.042969 358.546875 62.4375 358.46875 60.832031 358.3125 C 59.226562 358.15625 57.636719 357.921875 56.054688 357.609375 C 54.472656 357.292969 52.914062 356.902344 51.371094 356.4375 C 49.828125 355.96875 48.3125 355.429688 46.820312 354.8125 C 45.332031 354.195312 43.878906 353.507812 42.457031 352.75 C 41.035156 351.992188 39.652344 351.164062 38.3125 350.269531 C 36.972656 349.375 35.675781 348.417969 34.429688 347.394531 C 33.183594 346.375 31.992188 345.292969 30.851562 344.152344 C 29.710938 343.015625 28.628906 341.824219 27.605469 340.578125 C 26.582031 339.332031 25.625 338.039062 24.726562 336.699219 C 23.832031 335.359375 23.003906 333.980469 22.242188 332.558594 C 21.484375 331.136719 20.792969 329.683594 20.175781 328.195312 C 19.558594 326.707031 19.015625 325.191406 18.546875 323.648438 C 18.078125 322.105469 17.6875 320.546875 17.371094 318.964844 C 17.054688 317.382812 16.820312 315.792969 16.660156 314.1875 C 16.503906 312.585938 16.421875 310.976562 16.421875 309.363281 C 16.421875 307.753906 16.5 306.144531 16.65625 304.542969 C 16.8125 302.9375 17.050781 301.34375 17.363281 299.765625 C 17.675781 298.183594 18.066406 296.621094 18.535156 295.078125 C 19.003906 293.535156 19.542969 292.019531 20.160156 290.53125 C 20.777344 289.042969 21.464844 287.585938 22.222656 286.164062 C 22.984375 284.742188 23.808594 283.363281 24.703125 282.023438 C 25.601562 280.683594 26.558594 279.386719 27.582031 278.140625 C 28.601562 276.894531 29.683594 275.703125 30.820312 274.5625 C 31.960938 273.421875 33.152344 272.339844 34.398438 271.320312 C 35.644531 270.296875 36.9375 269.335938 38.277344 268.441406 C 39.617188 267.546875 40.996094 266.71875 42.417969 265.957031 C 43.839844 265.195312 45.296875 264.507812 46.785156 263.890625 C 48.273438 263.273438 49.789062 262.730469 51.332031 262.261719 C 52.871094 261.792969 54.433594 261.402344 56.015625 261.089844 C 57.59375 260.773438 59.1875 260.535156 60.792969 260.378906 C 62.394531 260.21875 64.003906 260.140625 65.613281 260.140625 C 67.226562 260.140625 68.835938 260.21875 70.4375 260.375 C 72.042969 260.535156 73.632812 260.769531 75.214844 261.085938 C 76.796875 261.398438 78.359375 261.789062 79.898438 262.257812 C 81.441406 262.722656 82.957031 263.265625 84.445312 263.882812 C 85.9375 264.5 87.390625 265.1875 88.8125 265.945312 C 90.234375 266.707031 91.617188 267.535156 92.957031 268.429688 C 94.296875 269.324219 95.589844 270.285156 96.835938 271.304688 C 98.082031 272.328125 99.273438 273.410156 100.414062 274.546875 C 101.554688 275.6875 102.632812 276.878906 103.65625 278.125 C 104.679688 279.371094 105.636719 280.664062 106.535156 282.003906 C 107.429688 283.34375 108.257812 284.726562 109.015625 286.148438 C 109.777344 287.566406 110.464844 289.023438 111.082031 290.511719 C 111.699219 292 112.242188 293.515625 112.707031 295.058594 C 113.175781 296.601562 113.566406 298.164062 113.882812 299.742188 C 114.195312 301.324219 114.433594 302.917969 114.589844 304.519531 C 114.75 306.125 114.828125 307.730469 114.828125 309.34375 C 114.828125 310.953125 114.746094 312.558594 114.585938 314.164062 C 114.425781 315.765625 114.1875 317.355469 113.875 318.933594 C 113.558594 320.515625 113.164062 322.074219 112.699219 323.613281 C 112.230469 325.15625 111.6875 326.667969 111.070312 328.15625 C 110.453125 329.644531 109.765625 331.097656 109.003906 332.515625 C 108.246094 333.9375 107.417969 335.316406 106.523438 336.65625 C 105.628906 337.996094 104.671875 339.285156 103.648438 340.53125 C 102.628906 341.777344 101.546875 342.96875 100.410156 344.105469 C 99.273438 345.246094 98.082031 346.328125 96.835938 347.347656 C 95.59375 348.371094 94.300781 349.328125 92.960938 350.226562 C 91.625 351.121094 90.246094 351.949219 88.824219 352.710938 C 87.40625 353.46875 85.953125 354.160156 84.464844 354.777344 C 82.980469 355.394531 81.464844 355.9375 79.925781 356.40625 C 78.386719 356.875 76.824219 357.269531 75.246094 357.585938 C 73.667969 357.902344 72.078125 358.140625 70.476562 358.300781 C 68.871094 358.460938 67.265625 358.542969 65.65625 358.546875 Z M 98.625 187.191406 C 98.621094 185.730469 98.65625 184.269531 98.722656 182.8125 C 98.792969 181.351562 98.898438 179.898438 99.039062 178.445312 C 99.179688 176.992188 99.355469 175.542969 99.566406 174.097656 C 99.777344 172.652344 100.027344 171.214844 100.308594 169.78125 C 100.589844 168.347656 100.910156 166.921875 101.261719 165.507812 C 101.613281 164.089844 102 162.683594 102.421875 161.285156 C 102.84375 159.886719 103.300781 158.5 103.789062 157.125 C 104.277344 155.75 104.800781 154.386719 105.359375 153.035156 C 105.914062 151.6875 106.503906 150.351562 107.125 149.03125 C 107.75 147.707031 108.402344 146.402344 109.089844 145.113281 C 109.777344 143.824219 110.492188 142.554688 111.242188 141.300781 C 111.992188 140.046875 112.769531 138.8125 113.578125 137.597656 C 114.386719 136.382812 115.226562 135.1875 116.09375 134.015625 C 116.964844 132.839844 117.859375 131.6875 118.785156 130.558594 C 119.707031 129.425781 120.660156 128.320312 121.640625 127.238281 C 122.617188 126.152344 123.625 125.09375 124.65625 124.0625 C 125.683594 123.027344 126.742188 122.019531 127.820312 121.039062 C 128.902344 120.054688 130.007812 119.101562 131.132812 118.171875 C 132.261719 117.246094 133.410156 116.34375 134.582031 115.472656 C 135.753906 114.601562 136.945312 113.757812 138.160156 112.945312 C 139.371094 112.132812 140.605469 111.351562 141.855469 110.597656 C 143.105469 109.847656 144.375 109.125 145.664062 108.433594 C 146.949219 107.746094 148.253906 107.085938 149.570312 106.460938 C 150.890625 105.835938 152.222656 105.242188 153.574219 104.679688 C 154.921875 104.121094 156.28125 103.59375 157.65625 103.101562 C 159.03125 102.605469 160.414062 102.148438 161.8125 101.722656 C 163.210938 101.296875 164.617188 100.902344 166.03125 100.546875 C 167.449219 100.191406 168.871094 99.871094 170.304688 99.582031 C 171.734375 99.296875 173.171875 99.046875 174.617188 98.828125 C 176.0625 98.613281 177.507812 98.433594 178.960938 98.289062 C 180.414062 98.144531 181.871094 98.035156 183.328125 97.960938 C 184.789062 97.886719 186.246094 97.847656 187.707031 97.847656 C 189.167969 97.847656 190.625 97.878906 192.085938 97.949219 C 193.542969 98.019531 195 98.125 196.453125 98.265625 C 197.90625 98.410156 199.355469 98.585938 200.800781 98.796875 C 202.242188 99.011719 203.683594 99.257812 205.113281 99.542969 C 206.546875 99.824219 207.972656 100.144531 209.386719 100.496094 C 210.804688 100.851562 212.210938 101.238281 213.609375 101.660156 C 215.007812 102.082031 216.394531 102.539062 217.769531 103.03125 C 219.144531 103.519531 220.507812 104.042969 221.855469 104.601562 C 223.207031 105.160156 224.542969 105.75 225.863281 106.371094 C 227.183594 106.996094 228.488281 107.652344 229.777344 108.335938 C 231.0625 109.023438 232.335938 109.742188 233.585938 110.492188 C 234.839844 111.242188 236.074219 112.023438 237.289062 112.832031 C 238.503906 113.640625 239.699219 114.480469 240.871094 115.351562 C 242.046875 116.21875 243.199219 117.117188 244.328125 118.039062 C 245.457031 118.964844 246.5625 119.917969 247.644531 120.898438 C 248.726562 121.878906 249.785156 122.882812 250.820312 123.914062 C 251.851562 124.945312 252.859375 126.003906 253.84375 127.082031 C 254.824219 128.164062 255.777344 129.269531 256.707031 130.398438 C 257.632812 131.523438 258.53125 132.675781 259.402344 133.847656 C 260.273438 135.019531 261.113281 136.210938 261.925781 137.425781 C 262.738281 138.640625 263.519531 139.871094 264.273438 141.125 C 265.023438 142.375 265.746094 143.644531 266.433594 144.933594 C 267.125 146.21875 267.78125 147.523438 268.40625 148.84375 C 269.03125 150.160156 269.625 151.496094 270.183594 152.84375 C 270.742188 154.191406 271.269531 155.554688 271.761719 156.929688 C 272.253906 158.304688 272.714844 159.6875 273.140625 161.085938 C 273.5625 162.484375 273.953125 163.890625 274.308594 165.304688 C 274.664062 166.722656 274.984375 168.144531 275.273438 169.578125 C 275.558594 171.007812 275.808594 172.449219 276.023438 173.890625 C 276.238281 175.335938 276.417969 176.785156 276.5625 178.238281 C 276.707031 179.691406 276.8125 181.144531 276.886719 182.605469 C 276.960938 184.0625 276.996094 185.523438 276.996094 186.984375 C 276.996094 188.441406 276.960938 189.902344 276.890625 191.359375 C 276.820312 192.820312 276.714844 194.273438 276.570312 195.726562 C 276.429688 197.179688 276.253906 198.628906 276.039062 200.074219 C 275.824219 201.519531 275.578125 202.957031 275.292969 204.390625 C 275.007812 205.820312 274.6875 207.246094 274.335938 208.664062 C 273.980469 210.078125 273.59375 211.484375 273.167969 212.882812 C 272.746094 214.28125 272.289062 215.667969 271.796875 217.042969 C 271.304688 218.417969 270.78125 219.78125 270.222656 221.128906 C 269.664062 222.476562 269.074219 223.8125 268.449219 225.132812 C 267.828125 226.453125 267.171875 227.757812 266.484375 229.046875 C 265.792969 230.332031 265.074219 231.605469 264.324219 232.855469 C 263.574219 234.109375 262.796875 235.34375 261.984375 236.558594 C 261.171875 237.769531 260.332031 238.964844 259.464844 240.136719 C 258.59375 241.3125 257.695312 242.460938 256.769531 243.589844 C 255.84375 244.71875 254.890625 245.824219 253.910156 246.90625 C 252.929688 247.992188 251.925781 249.046875 250.894531 250.082031 C 249.859375 251.113281 248.804688 252.121094 247.722656 253.101562 C 246.640625 254.082031 245.535156 255.035156 244.40625 255.960938 C 243.277344 256.890625 242.128906 257.789062 240.957031 258.65625 C 239.78125 259.527344 238.589844 260.367188 237.375 261.179688 C 236.160156 261.992188 234.929688 262.773438 233.675781 263.523438 C 232.425781 264.273438 231.15625 264.992188 229.867188 265.683594 C 228.578125 266.371094 227.277344 267.027344 225.957031 267.652344 C 224.636719 268.277344 223.300781 268.867188 221.953125 269.425781 C 220.605469 269.984375 219.242188 270.511719 217.867188 271.003906 C 216.492188 271.496094 215.105469 271.953125 213.710938 272.378906 C 212.3125 272.800781 210.90625 273.191406 209.488281 273.546875 C 208.074219 273.902344 206.648438 274.222656 205.214844 274.507812 C 203.785156 274.789062 202.347656 275.039062 200.902344 275.253906 C 199.457031 275.46875 198.007812 275.648438 196.554688 275.792969 C 195.101562 275.933594 193.648438 276.042969 192.1875 276.113281 C 190.730469 276.183594 189.269531 276.222656 187.808594 276.222656 C 186.351562 276.21875 184.894531 276.183594 183.441406 276.109375 C 181.984375 276.035156 180.53125 275.929688 179.082031 275.785156 C 177.628906 275.640625 176.183594 275.460938 174.742188 275.246094 C 173.300781 275.03125 171.867188 274.78125 170.4375 274.496094 C 169.007812 274.210938 167.585938 273.890625 166.171875 273.535156 C 164.757812 273.179688 163.355469 272.792969 161.960938 272.367188 C 160.5625 271.945312 159.179688 271.488281 157.808594 270.996094 C 156.4375 270.503906 155.078125 269.980469 153.730469 269.421875 C 152.382812 268.863281 151.050781 268.273438 149.734375 267.652344 C 148.417969 267.027344 147.113281 266.371094 145.828125 265.683594 C 144.542969 265 143.277344 264.28125 142.023438 263.53125 C 140.773438 262.78125 139.542969 262.003906 138.332031 261.195312 C 137.117188 260.386719 135.925781 259.546875 134.757812 258.679688 C 133.585938 257.8125 132.4375 256.914062 131.308594 255.992188 C 130.179688 255.066406 129.078125 254.117188 127.996094 253.136719 C 126.914062 252.160156 125.859375 251.15625 124.828125 250.125 C 123.796875 249.097656 122.789062 248.042969 121.8125 246.964844 C 120.832031 245.882812 119.878906 244.78125 118.953125 243.65625 C 118.027344 242.53125 117.128906 241.382812 116.257812 240.214844 C 115.390625 239.042969 114.546875 237.851562 113.738281 236.640625 C 112.925781 235.433594 112.144531 234.203125 111.394531 232.953125 C 110.640625 231.703125 109.921875 230.4375 109.230469 229.152344 C 108.542969 227.867188 107.886719 226.566406 107.261719 225.25 C 106.636719 223.933594 106.042969 222.601562 105.480469 221.257812 C 104.921875 219.910156 104.394531 218.554688 103.902344 217.183594 C 103.40625 215.8125 102.949219 214.429688 102.519531 213.035156 C 102.09375 211.640625 101.703125 210.238281 101.347656 208.824219 C 100.988281 207.410156 100.667969 205.988281 100.378906 204.558594 C 100.089844 203.132812 99.839844 201.695312 99.621094 200.253906 C 99.40625 198.8125 99.222656 197.367188 99.074219 195.917969 C 98.929688 194.46875 98.816406 193.015625 98.742188 191.558594 C 98.667969 190.105469 98.628906 188.648438 98.625 187.191406 Z M 310.121094 358.546875 C 308.507812 358.546875 306.902344 358.46875 305.296875 358.3125 C 303.691406 358.15625 302.101562 357.921875 300.519531 357.609375 C 298.9375 357.292969 297.375 356.902344 295.832031 356.4375 C 294.292969 355.96875 292.777344 355.429688 291.285156 354.8125 C 289.796875 354.195312 288.339844 353.507812 286.917969 352.75 C 285.496094 351.992188 284.117188 351.164062 282.777344 350.269531 C 281.433594 349.375 280.140625 348.417969 278.894531 347.394531 C 277.648438 346.375 276.457031 345.292969 275.316406 344.152344 C 274.175781 343.015625 273.09375 341.824219 272.070312 340.578125 C 271.046875 339.332031 270.085938 338.039062 269.191406 336.699219 C 268.296875 335.359375 267.46875 333.980469 266.707031 332.558594 C 265.945312 331.136719 265.257812 329.683594 264.640625 328.195312 C 264.023438 326.707031 263.480469 325.191406 263.011719 323.648438 C 262.542969 322.105469 262.152344 320.546875 261.835938 318.964844 C 261.519531 317.382812 261.285156 315.792969 261.125 314.1875 C 260.964844 312.585938 260.886719 310.976562 260.886719 309.363281 C 260.886719 307.753906 260.964844 306.144531 261.121094 304.542969 C 261.277344 302.9375 261.511719 301.34375 261.828125 299.765625 C 262.140625 298.183594 262.53125 296.621094 263 295.078125 C 263.464844 293.535156 264.007812 292.019531 264.625 290.53125 C 265.242188 289.042969 265.929688 287.585938 266.6875 286.164062 C 267.445312 284.742188 268.273438 283.363281 269.167969 282.023438 C 270.0625 280.683594 271.023438 279.386719 272.042969 278.140625 C 273.066406 276.894531 274.148438 275.703125 275.285156 274.5625 C 276.425781 273.421875 277.617188 272.339844 278.863281 271.320312 C 280.109375 270.296875 281.402344 269.335938 282.742188 268.441406 C 284.082031 267.546875 285.460938 266.71875 286.882812 265.957031 C 288.304688 265.195312 289.757812 264.507812 291.246094 263.890625 C 292.738281 263.273438 294.253906 262.730469 295.792969 262.261719 C 297.335938 261.792969 298.898438 261.402344 300.480469 261.089844 C 302.058594 260.773438 303.652344 260.535156 305.253906 260.378906 C 306.859375 260.21875 308.46875 260.140625 310.078125 260.140625 C 311.691406 260.140625 313.296875 260.21875 314.902344 260.375 C 316.507812 260.535156 318.097656 260.769531 319.679688 261.085938 C 321.261719 261.398438 322.820312 261.789062 324.363281 262.257812 C 325.90625 262.722656 327.421875 263.265625 328.910156 263.882812 C 330.398438 264.5 331.855469 265.1875 333.277344 265.945312 C 334.699219 266.707031 336.078125 267.535156 337.417969 268.429688 C 338.757812 269.324219 340.054688 270.285156 341.296875 271.304688 C 342.542969 272.328125 343.738281 273.410156 344.878906 274.546875 C 346.015625 275.6875 347.097656 276.878906 348.121094 278.125 C 349.144531 279.371094 350.101562 280.664062 350.996094 282.003906 C 351.894531 283.34375 352.722656 284.726562 353.480469 286.148438 C 354.242188 287.566406 354.929688 289.023438 355.546875 290.511719 C 356.164062 292 356.707031 293.515625 357.171875 295.058594 C 357.640625 296.601562 358.03125 298.164062 358.347656 299.742188 C 358.660156 301.324219 358.898438 302.917969 359.054688 304.519531 C 359.214844 306.125 359.292969 307.730469 359.292969 309.34375 C 359.292969 310.953125 359.210938 312.5625 359.050781 314.164062 C 358.894531 315.765625 358.65625 317.359375 358.34375 318.9375 C 358.027344 320.515625 357.636719 322.078125 357.167969 323.617188 C 356.699219 325.160156 356.15625 326.671875 355.542969 328.160156 C 354.925781 329.648438 354.238281 331.101562 353.476562 332.523438 C 352.71875 333.945312 351.890625 335.324219 350.996094 336.664062 C 350.101562 338.003906 349.144531 339.292969 348.121094 340.539062 C 347.101562 341.785156 346.019531 342.976562 344.882812 344.117188 C 343.746094 345.253906 342.554688 346.335938 341.308594 347.359375 C 340.0625 348.378906 338.773438 349.339844 337.433594 350.234375 C 336.09375 351.128906 334.714844 351.957031 333.296875 352.71875 C 331.875 353.476562 330.421875 354.167969 328.933594 354.785156 C 327.449219 355.402344 325.933594 355.945312 324.394531 356.414062 C 322.851562 356.882812 321.292969 357.277344 319.710938 357.589844 C 318.132812 357.90625 316.542969 358.144531 314.941406 358.304688 C 313.335938 358.464844 311.730469 358.546875 310.121094 358.546875 Z M 310.121094 358.546875 " fill-opacity="1" fill-rule="nonzero"/><path fill="#00f3f7" d="M 213.296875 125.507812 L 162.324219 125.507812 C 161.453125 125.507812 160.585938 125.59375 159.730469 125.761719 C 158.875 125.933594 158.046875 126.183594 157.238281 126.519531 C 156.433594 126.851562 155.667969 127.261719 154.941406 127.746094 C 154.21875 128.230469 153.546875 128.78125 152.929688 129.398438 C 152.3125 130.015625 151.761719 130.6875 151.277344 131.410156 C 150.792969 132.136719 150.382812 132.902344 150.050781 133.707031 C 149.714844 134.515625 149.464844 135.347656 149.292969 136.203125 C 149.121094 137.058594 149.039062 137.921875 149.039062 138.792969 L 149.039062 235.273438 C 149.039062 236.148438 149.121094 237.011719 149.292969 237.871094 C 149.464844 238.726562 149.714844 239.558594 150.046875 240.363281 C 150.382812 241.171875 150.792969 241.9375 151.277344 242.664062 C 151.761719 243.390625 152.3125 244.0625 152.925781 244.679688 C 153.542969 245.300781 154.214844 245.851562 154.941406 246.335938 C 155.664062 246.824219 156.429688 247.234375 157.238281 247.570312 C 158.042969 247.90625 158.875 248.160156 159.730469 248.332031 C 160.585938 248.503906 161.449219 248.589844 162.324219 248.59375 L 213.296875 248.59375 C 214.167969 248.589844 215.035156 248.503906 215.890625 248.332031 C 216.746094 248.160156 217.578125 247.90625 218.382812 247.570312 C 219.191406 247.234375 219.957031 246.824219 220.679688 246.335938 C 221.40625 245.851562 222.078125 245.300781 222.695312 244.679688 C 223.308594 244.0625 223.859375 243.390625 224.34375 242.664062 C 224.828125 241.9375 225.238281 241.171875 225.574219 240.363281 C 225.90625 239.558594 226.15625 238.726562 226.328125 237.871094 C 226.5 237.011719 226.582031 236.148438 226.582031 235.273438 L 226.582031 138.792969 C 226.582031 137.921875 226.5 137.058594 226.328125 136.203125 C 226.15625 135.347656 225.90625 134.515625 225.570312 133.707031 C 225.238281 132.902344 224.828125 132.136719 224.34375 131.410156 C 223.859375 130.6875 223.308594 130.015625 222.691406 129.398438 C 222.074219 128.78125 221.402344 128.230469 220.679688 127.746094 C 219.953125 127.261719 219.1875 126.851562 218.382812 126.519531 C 217.574219 126.183594 216.746094 125.933594 215.890625 125.761719 C 215.03125 125.59375 214.167969 125.507812 213.296875 125.507812 Z M 162.324219 134.820312 L 213.296875 134.820312 C 213.558594 134.820312 213.816406 134.84375 214.070312 134.894531 C 214.328125 134.945312 214.578125 135.023438 214.816406 135.121094 C 215.058594 135.222656 215.289062 135.34375 215.503906 135.488281 C 215.722656 135.632812 215.921875 135.800781 216.105469 135.984375 C 216.289062 136.167969 216.457031 136.367188 216.601562 136.585938 C 216.746094 136.804688 216.867188 137.03125 216.96875 137.273438 C 217.066406 137.515625 217.144531 137.761719 217.195312 138.019531 C 217.246094 138.273438 217.269531 138.53125 217.269531 138.792969 L 217.269531 210.191406 L 158.289062 210.191406 L 158.289062 138.792969 C 158.289062 138.53125 158.3125 138.269531 158.367188 138.011719 C 158.417969 137.753906 158.496094 137.5 158.597656 137.257812 C 158.699219 137.015625 158.824219 136.785156 158.972656 136.566406 C 159.117188 136.347656 159.285156 136.144531 159.472656 135.960938 C 159.660156 135.777344 159.867188 135.613281 160.085938 135.46875 C 160.308594 135.324219 160.539062 135.203125 160.785156 135.105469 C 161.027344 135.007812 161.28125 134.933594 161.539062 134.886719 C 161.800781 134.835938 162.0625 134.816406 162.324219 134.820312 Z M 213.296875 239.28125 L 162.324219 239.28125 C 162.0625 239.28125 161.800781 239.253906 161.546875 239.203125 C 161.289062 239.152344 161.039062 239.074219 160.796875 238.972656 C 160.554688 238.875 160.324219 238.75 160.105469 238.605469 C 159.890625 238.457031 159.6875 238.292969 159.503906 238.105469 C 159.320312 237.917969 159.152344 237.714844 159.007812 237.496094 C 158.863281 237.277344 158.742188 237.046875 158.644531 236.804688 C 158.546875 236.5625 158.472656 236.3125 158.421875 236.054688 C 158.371094 235.796875 158.347656 235.539062 158.351562 235.273438 L 158.351562 219.472656 L 217.332031 219.472656 L 217.332031 235.273438 C 217.335938 235.539062 217.308594 235.800781 217.261719 236.0625 C 217.210938 236.324219 217.132812 236.574219 217.03125 236.820312 C 216.933594 237.066406 216.808594 237.296875 216.660156 237.515625 C 216.511719 237.738281 216.347656 237.941406 216.15625 238.128906 C 215.96875 238.3125 215.765625 238.480469 215.542969 238.625 C 215.324219 238.769531 215.089844 238.894531 214.84375 238.992188 C 214.597656 239.089844 214.34375 239.164062 214.085938 239.214844 C 213.824219 239.261719 213.5625 239.285156 213.296875 239.28125 Z M 213.296875 239.28125 " fill-opacity="1" fill-rule="nonzero"/><path fill="#00f3f7" d="M 192.46875 228.941406 C 192.46875 229.25 192.4375 229.550781 192.378906 229.851562 C 192.316406 230.152344 192.230469 230.441406 192.113281 230.722656 C 191.996094 231.007812 191.851562 231.273438 191.683594 231.53125 C 191.511719 231.785156 191.320312 232.019531 191.101562 232.234375 C 190.886719 232.453125 190.652344 232.644531 190.398438 232.8125 C 190.144531 232.984375 189.875 233.128906 189.59375 233.246094 C 189.308594 233.363281 189.019531 233.449219 188.71875 233.507812 C 188.417969 233.570312 188.117188 233.597656 187.808594 233.597656 C 187.503906 233.597656 187.203125 233.570312 186.902344 233.507812 C 186.601562 233.449219 186.3125 233.363281 186.027344 233.246094 C 185.746094 233.128906 185.476562 232.984375 185.222656 232.8125 C 184.96875 232.644531 184.734375 232.453125 184.519531 232.234375 C 184.300781 232.019531 184.109375 231.785156 183.9375 231.53125 C 183.769531 231.273438 183.625 231.007812 183.507812 230.722656 C 183.390625 230.441406 183.304688 230.152344 183.242188 229.851562 C 183.183594 229.550781 183.152344 229.25 183.152344 228.941406 C 183.152344 228.636719 183.183594 228.332031 183.242188 228.035156 C 183.304688 227.734375 183.390625 227.441406 183.507812 227.160156 C 183.625 226.878906 183.769531 226.609375 183.9375 226.355469 C 184.109375 226.101562 184.300781 225.867188 184.519531 225.648438 C 184.734375 225.433594 184.96875 225.242188 185.222656 225.070312 C 185.476562 224.902344 185.746094 224.757812 186.027344 224.640625 C 186.3125 224.523438 186.601562 224.433594 186.902344 224.375 C 187.203125 224.316406 187.503906 224.285156 187.808594 224.285156 C 188.117188 224.285156 188.417969 224.316406 188.71875 224.375 C 189.019531 224.433594 189.308594 224.523438 189.59375 224.640625 C 189.875 224.757812 190.144531 224.902344 190.398438 225.070312 C 190.652344 225.242188 190.886719 225.433594 191.101562 225.648438 C 191.320312 225.867188 191.511719 226.101562 191.683594 226.355469 C 191.851562 226.609375 191.996094 226.878906 192.113281 227.160156 C 192.230469 227.441406 192.316406 227.734375 192.378906 228.035156 C 192.4375 228.332031 192.46875 228.636719 192.46875 228.941406 Z M 192.46875 228.941406 " fill-opacity="1" fill-rule="nonzero"/><path fill="#00f3f7" d="M 79.75 33.589844 L 71.554688 33.589844 C 70.609375 33.589844 69.675781 33.683594 68.753906 33.871094 C 67.828125 34.054688 66.929688 34.328125 66.058594 34.691406 C 65.1875 35.054688 64.359375 35.496094 63.578125 36.019531 C 62.792969 36.542969 62.066406 37.140625 61.398438 37.808594 C 60.734375 38.472656 60.136719 39.199219 59.613281 39.984375 C 59.089844 40.769531 58.644531 41.59375 58.285156 42.464844 C 57.921875 43.335938 57.648438 44.234375 57.460938 45.160156 C 57.277344 46.085938 57.183594 47.019531 57.179688 47.960938 L 57.179688 57.273438 L 51.5625 57.273438 C 51.257812 57.273438 50.953125 57.304688 50.652344 57.363281 C 50.355469 57.421875 50.0625 57.511719 49.78125 57.628906 C 49.5 57.746094 49.230469 57.890625 48.976562 58.058594 C 48.722656 58.230469 48.484375 58.421875 48.269531 58.636719 C 48.054688 58.855469 47.859375 59.089844 47.691406 59.34375 C 47.519531 59.597656 47.378906 59.867188 47.261719 60.148438 C 47.144531 60.429688 47.054688 60.722656 46.996094 61.023438 C 46.9375 61.324219 46.90625 61.625 46.90625 61.929688 C 46.90625 62.238281 46.9375 62.539062 46.996094 62.839844 C 47.054688 63.140625 47.144531 63.429688 47.261719 63.710938 C 47.378906 63.996094 47.519531 64.261719 47.691406 64.519531 C 47.859375 64.773438 48.054688 65.007812 48.269531 65.222656 C 48.484375 65.441406 48.722656 65.632812 48.976562 65.800781 C 49.230469 65.972656 49.5 66.117188 49.78125 66.234375 C 50.0625 66.351562 50.355469 66.4375 50.652344 66.496094 C 50.953125 66.558594 51.257812 66.585938 51.5625 66.585938 L 57.179688 66.585938 L 57.179688 91.917969 C 57.179688 92.222656 57.210938 92.527344 57.269531 92.828125 C 57.332031 93.125 57.417969 93.417969 57.535156 93.699219 C 57.652344 93.984375 57.796875 94.25 57.964844 94.503906 C 58.136719 94.757812 58.328125 94.996094 58.546875 95.210938 C 58.761719 95.425781 58.996094 95.621094 59.25 95.789062 C 59.503906 95.960938 59.773438 96.101562 60.054688 96.21875 C 60.339844 96.335938 60.628906 96.425781 60.929688 96.484375 C 61.230469 96.546875 61.53125 96.574219 61.835938 96.574219 C 62.144531 96.574219 62.445312 96.546875 62.746094 96.484375 C 63.046875 96.425781 63.335938 96.335938 63.621094 96.21875 C 63.902344 96.101562 64.171875 95.960938 64.425781 95.789062 C 64.679688 95.621094 64.914062 95.425781 65.128906 95.210938 C 65.347656 94.996094 65.539062 94.757812 65.710938 94.503906 C 65.878906 94.25 66.023438 93.984375 66.140625 93.699219 C 66.257812 93.417969 66.34375 93.125 66.40625 92.828125 C 66.464844 92.527344 66.496094 92.222656 66.496094 91.917969 L 66.496094 66.464844 L 72.113281 66.464844 C 72.417969 66.464844 72.722656 66.433594 73.019531 66.375 C 73.320312 66.3125 73.613281 66.226562 73.894531 66.109375 C 74.175781 65.992188 74.445312 65.847656 74.699219 65.679688 C 74.953125 65.507812 75.1875 65.316406 75.40625 65.097656 C 75.621094 64.882812 75.816406 64.648438 75.984375 64.394531 C 76.15625 64.140625 76.296875 63.871094 76.414062 63.589844 C 76.53125 63.304688 76.621094 63.015625 76.679688 62.714844 C 76.738281 62.414062 76.769531 62.113281 76.769531 61.808594 C 76.769531 61.5 76.738281 61.199219 76.679688 60.898438 C 76.621094 60.597656 76.53125 60.308594 76.414062 60.023438 C 76.296875 59.742188 76.15625 59.472656 75.984375 59.21875 C 75.816406 58.964844 75.621094 58.730469 75.40625 58.515625 C 75.1875 58.296875 74.953125 58.105469 74.699219 57.933594 C 74.445312 57.765625 74.175781 57.621094 73.894531 57.503906 C 73.613281 57.386719 73.320312 57.300781 73.019531 57.238281 C 72.722656 57.179688 72.417969 57.148438 72.113281 57.148438 L 66.496094 57.148438 L 66.496094 47.835938 C 66.496094 47.503906 66.527344 47.175781 66.589844 46.851562 C 66.65625 46.523438 66.753906 46.207031 66.878906 45.902344 C 67.007812 45.59375 67.164062 45.300781 67.347656 45.027344 C 67.53125 44.75 67.742188 44.496094 67.976562 44.257812 C 68.210938 44.023438 68.464844 43.816406 68.742188 43.628906 C 69.019531 43.445312 69.3125 43.289062 69.617188 43.164062 C 69.925781 43.035156 70.242188 42.9375 70.566406 42.875 C 70.894531 42.808594 71.222656 42.777344 71.554688 42.777344 L 79.75 42.777344 C 80.054688 42.777344 80.359375 42.746094 80.65625 42.6875 C 80.957031 42.628906 81.25 42.539062 81.53125 42.421875 C 81.8125 42.304688 82.082031 42.164062 82.335938 41.992188 C 82.589844 41.824219 82.824219 41.628906 83.042969 41.414062 C 83.257812 41.199219 83.453125 40.960938 83.621094 40.707031 C 83.792969 40.453125 83.933594 40.183594 84.050781 39.902344 C 84.167969 39.621094 84.257812 39.328125 84.316406 39.027344 C 84.375 38.730469 84.40625 38.425781 84.40625 38.121094 C 84.40625 37.816406 84.375 37.511719 84.316406 37.210938 C 84.257812 36.914062 84.167969 36.621094 84.050781 36.339844 C 83.933594 36.054688 83.792969 35.789062 83.621094 35.535156 C 83.453125 35.28125 83.257812 35.042969 83.042969 34.828125 C 82.824219 34.613281 82.589844 34.417969 82.335938 34.25 C 82.082031 34.078125 81.8125 33.9375 81.53125 33.820312 C 81.25 33.703125 80.957031 33.613281 80.65625 33.554688 C 80.359375 33.496094 80.054688 33.464844 79.75 33.464844 Z M 79.75 33.589844 " fill-opacity="1" fill-rule="nonzero"/><path fill="#00f3f7" d="M 82.265625 278.953125 L 49.109375 278.953125 C 48.203125 278.953125 47.304688 279.039062 46.414062 279.21875 C 45.523438 279.394531 44.660156 279.65625 43.820312 280 C 42.984375 280.347656 42.183594 280.769531 41.429688 281.273438 C 40.675781 281.773438 39.972656 282.34375 39.332031 282.984375 C 38.6875 283.625 38.113281 284.320312 37.605469 285.070312 C 37.097656 285.824219 36.667969 286.617188 36.316406 287.453125 C 35.964844 288.289062 35.699219 289.152344 35.515625 290.042969 C 35.335938 290.929688 35.238281 291.828125 35.234375 292.734375 L 35.234375 325.828125 C 35.234375 326.738281 35.324219 327.640625 35.5 328.535156 C 35.679688 329.429688 35.941406 330.296875 36.289062 331.136719 C 36.640625 331.980469 37.066406 332.78125 37.574219 333.535156 C 38.078125 334.292969 38.652344 334.996094 39.296875 335.640625 C 39.941406 336.285156 40.644531 336.859375 41.402344 337.367188 C 42.160156 337.871094 42.957031 338.300781 43.800781 338.648438 C 44.640625 338.996094 45.507812 339.257812 46.402344 339.4375 C 47.296875 339.613281 48.199219 339.703125 49.109375 339.703125 L 82.265625 339.703125 C 83.175781 339.703125 84.074219 339.613281 84.964844 339.433594 C 85.859375 339.253906 86.726562 338.988281 87.566406 338.640625 C 88.40625 338.289062 89.203125 337.859375 89.957031 337.355469 C 90.714844 336.847656 91.414062 336.273438 92.054688 335.628906 C 92.699219 334.984375 93.273438 334.285156 93.777344 333.527344 C 94.28125 332.769531 94.707031 331.972656 95.054688 331.132812 C 95.402344 330.289062 95.667969 329.421875 95.84375 328.53125 C 96.019531 327.640625 96.109375 326.738281 96.109375 325.828125 L 96.109375 292.734375 C 96.105469 291.828125 96.011719 290.933594 95.832031 290.042969 C 95.652344 289.15625 95.386719 288.292969 95.039062 287.457031 C 94.6875 286.621094 94.261719 285.824219 93.753906 285.074219 C 93.25 284.320312 92.675781 283.625 92.03125 282.984375 C 91.390625 282.347656 90.691406 281.777344 89.9375 281.273438 C 89.183594 280.769531 88.386719 280.347656 87.546875 280 C 86.710938 279.65625 85.847656 279.394531 84.957031 279.21875 C 84.070312 279.039062 83.171875 278.953125 82.265625 278.953125 Z M 86.796875 325.890625 C 86.796875 326.1875 86.769531 326.484375 86.714844 326.777344 C 86.65625 327.070312 86.574219 327.355469 86.460938 327.632812 C 86.347656 327.910156 86.207031 328.171875 86.042969 328.421875 C 85.878906 328.671875 85.691406 328.902344 85.480469 329.113281 C 85.269531 329.328125 85.039062 329.515625 84.792969 329.683594 C 84.542969 329.851562 84.28125 329.992188 84.003906 330.105469 C 83.730469 330.21875 83.445312 330.308594 83.152344 330.367188 C 82.859375 330.425781 82.5625 330.453125 82.265625 330.453125 L 49.109375 330.453125 C 48.808594 330.453125 48.515625 330.425781 48.21875 330.367188 C 47.925781 330.308594 47.640625 330.21875 47.363281 330.105469 C 47.085938 329.992188 46.824219 329.851562 46.574219 329.683594 C 46.324219 329.519531 46.09375 329.328125 45.882812 329.117188 C 45.671875 328.90625 45.480469 328.675781 45.316406 328.425781 C 45.148438 328.175781 45.007812 327.914062 44.894531 327.636719 C 44.78125 327.359375 44.691406 327.074219 44.632812 326.78125 C 44.574219 326.484375 44.546875 326.191406 44.546875 325.890625 L 44.546875 292.734375 C 44.546875 292.4375 44.574219 292.140625 44.632812 291.847656 C 44.691406 291.554688 44.78125 291.269531 44.894531 290.996094 C 45.007812 290.71875 45.148438 290.457031 45.316406 290.207031 C 45.484375 289.960938 45.671875 289.730469 45.886719 289.519531 C 46.097656 289.308594 46.328125 289.121094 46.578125 288.957031 C 46.828125 288.792969 47.089844 288.652344 47.367188 288.539062 C 47.644531 288.425781 47.929688 288.34375 48.222656 288.285156 C 48.515625 288.230469 48.8125 288.203125 49.109375 288.203125 L 82.265625 288.203125 C 82.558594 288.207031 82.851562 288.238281 83.140625 288.300781 C 83.429688 288.363281 83.707031 288.449219 83.980469 288.566406 C 84.25 288.683594 84.507812 288.824219 84.753906 288.988281 C 84.996094 289.15625 85.222656 289.34375 85.429688 289.554688 C 85.636719 289.761719 85.820312 289.992188 85.984375 290.238281 C 86.144531 290.484375 86.285156 290.742188 86.394531 291.015625 C 86.507812 291.289062 86.589844 291.570312 86.648438 291.859375 C 86.707031 292.148438 86.734375 292.441406 86.734375 292.734375 Z M 86.796875 325.890625 " fill-opacity="1" fill-rule="nonzero"/><path fill="#00f3f7" d="M 65.65625 294.351562 C 64.667969 294.347656 63.691406 294.441406 62.722656 294.632812 C 61.753906 294.824219 60.8125 295.109375 59.898438 295.484375 C 58.984375 295.859375 58.117188 296.320312 57.296875 296.871094 C 56.476562 297.417969 55.714844 298.039062 55.015625 298.734375 C 54.316406 299.433594 53.691406 300.191406 53.140625 301.011719 C 52.59375 301.832031 52.128906 302.699219 51.75 303.609375 C 51.371094 304.523438 51.085938 305.460938 50.890625 306.429688 C 50.699219 307.398438 50.601562 308.378906 50.601562 309.363281 C 50.597656 310.351562 50.695312 311.328125 50.886719 312.296875 C 51.078125 313.265625 51.363281 314.207031 51.742188 315.121094 C 52.121094 316.03125 52.582031 316.898438 53.132812 317.71875 C 53.679688 318.542969 54.300781 319.300781 55 320 C 55.699219 320.699219 56.457031 321.320312 57.28125 321.867188 C 58.101562 322.417969 58.96875 322.878906 59.878906 323.257812 C 60.792969 323.636719 61.734375 323.921875 62.703125 324.113281 C 63.671875 324.304688 64.648438 324.402344 65.636719 324.398438 C 66.621094 324.398438 67.601562 324.300781 68.570312 324.109375 C 69.539062 323.914062 70.476562 323.628906 71.390625 323.25 C 72.300781 322.871094 73.167969 322.40625 73.988281 321.859375 C 74.808594 321.308594 75.566406 320.683594 76.265625 319.984375 C 76.960938 319.285156 77.582031 318.523438 78.128906 317.703125 C 78.679688 316.882812 79.140625 316.011719 79.515625 315.101562 C 79.890625 314.1875 80.175781 313.246094 80.367188 312.277344 C 80.558594 311.308594 80.652344 310.332031 80.648438 309.34375 C 80.648438 308.359375 80.550781 307.386719 80.355469 306.421875 C 80.164062 305.457031 79.878906 304.519531 79.5 303.609375 C 79.121094 302.703125 78.660156 301.839844 78.113281 301.019531 C 77.566406 300.203125 76.945312 299.445312 76.25 298.75 C 75.554688 298.054688 74.796875 297.433594 73.980469 296.886719 C 73.160156 296.339844 72.296875 295.878906 71.390625 295.5 C 70.480469 295.121094 69.542969 294.835938 68.578125 294.644531 C 67.613281 294.449219 66.640625 294.351562 65.65625 294.351562 Z M 65.65625 315.054688 C 65.28125 315.058594 64.910156 315.023438 64.539062 314.953125 C 64.171875 314.878906 63.8125 314.773438 63.464844 314.632812 C 63.117188 314.488281 62.789062 314.316406 62.472656 314.109375 C 62.160156 313.902344 61.871094 313.664062 61.605469 313.402344 C 61.335938 313.136719 61.097656 312.847656 60.890625 312.539062 C 60.679688 312.226562 60.5 311.898438 60.355469 311.550781 C 60.210938 311.203125 60.101562 310.847656 60.027344 310.480469 C 59.953125 310.113281 59.914062 309.738281 59.914062 309.363281 C 59.910156 308.988281 59.945312 308.617188 60.019531 308.25 C 60.089844 307.878906 60.199219 307.523438 60.339844 307.175781 C 60.484375 306.828125 60.660156 306.496094 60.867188 306.183594 C 61.074219 305.871094 61.308594 305.582031 61.574219 305.316406 C 61.839844 305.050781 62.128906 304.8125 62.441406 304.601562 C 62.75 304.394531 63.082031 304.214844 63.425781 304.070312 C 63.773438 303.925781 64.132812 303.816406 64.5 303.742188 C 64.867188 303.671875 65.238281 303.632812 65.613281 303.632812 C 65.988281 303.632812 66.363281 303.667969 66.730469 303.738281 C 67.097656 303.8125 67.457031 303.921875 67.804688 304.0625 C 68.152344 304.207031 68.480469 304.382812 68.792969 304.589844 C 69.105469 304.800781 69.394531 305.035156 69.660156 305.300781 C 69.925781 305.566406 70.164062 305.855469 70.371094 306.167969 C 70.582031 306.480469 70.757812 306.808594 70.902344 307.15625 C 71.046875 307.503906 71.152344 307.859375 71.226562 308.226562 C 71.300781 308.597656 71.335938 308.96875 71.335938 309.34375 C 71.335938 309.71875 71.300781 310.085938 71.226562 310.453125 C 71.15625 310.820312 71.046875 311.175781 70.90625 311.523438 C 70.761719 311.867188 70.585938 312.195312 70.378906 312.507812 C 70.171875 312.820312 69.9375 313.105469 69.675781 313.371094 C 69.410156 313.636719 69.125 313.875 68.816406 314.082031 C 68.503906 314.292969 68.175781 314.46875 67.832031 314.613281 C 67.488281 314.757812 67.132812 314.867188 66.765625 314.941406 C 66.398438 315.015625 66.03125 315.054688 65.65625 315.054688 Z M 65.65625 315.054688 " fill-opacity="1" fill-rule="nonzero"/><path fill="#00f3f7" d="M 330.144531 298.042969 L 302.667969 282.800781 C 302.179688 282.527344 301.675781 282.289062 301.152344 282.078125 C 300.632812 281.871094 300.097656 281.699219 299.554688 281.558594 C 299.011719 281.421875 298.460938 281.320312 297.90625 281.25 C 297.347656 281.183594 296.789062 281.15625 296.226562 281.160156 C 295.664062 281.167969 295.109375 281.210938 294.550781 281.289062 C 293.996094 281.367188 293.449219 281.480469 292.90625 281.632812 C 292.367188 281.78125 291.839844 281.96875 291.320312 282.1875 C 290.804688 282.40625 290.304688 282.65625 289.820312 282.941406 C 289.339844 283.226562 288.875 283.542969 288.433594 283.886719 C 287.988281 284.230469 287.570312 284.601562 287.175781 285.003906 C 286.78125 285.402344 286.417969 285.824219 286.078125 286.273438 C 285.738281 286.71875 285.429688 287.1875 285.152344 287.675781 C 284.875 288.160156 284.628906 288.664062 284.414062 289.183594 C 284.203125 289.703125 284.023438 290.234375 283.882812 290.777344 C 283.738281 291.320312 283.632812 291.867188 283.558594 292.425781 C 283.488281 292.980469 283.453125 293.539062 283.453125 294.101562 L 283.453125 324.617188 C 283.453125 325.179688 283.488281 325.738281 283.558594 326.292969 C 283.632812 326.851562 283.738281 327.398438 283.882812 327.941406 C 284.023438 328.484375 284.203125 329.015625 284.414062 329.535156 C 284.628906 330.054688 284.875 330.558594 285.152344 331.046875 C 285.429688 331.53125 285.738281 332 286.078125 332.445312 C 286.417969 332.894531 286.78125 333.316406 287.175781 333.714844 C 287.570312 334.117188 287.988281 334.488281 288.433594 334.832031 C 288.875 335.175781 289.339844 335.492188 289.820312 335.777344 C 290.304688 336.0625 290.804688 336.3125 291.320312 336.53125 C 291.839844 336.75 292.367188 336.9375 292.90625 337.085938 C 293.449219 337.238281 293.996094 337.351562 294.550781 337.429688 C 295.109375 337.507812 295.664062 337.550781 296.226562 337.558594 C 296.789062 337.5625 297.347656 337.535156 297.90625 337.46875 C 298.460938 337.398438 299.011719 337.296875 299.554688 337.160156 C 300.097656 337.019531 300.632812 336.847656 301.152344 336.640625 C 301.675781 336.429688 302.179688 336.191406 302.667969 335.917969 L 330.144531 320.675781 C 331.152344 320.113281 332.070312 319.429688 332.894531 318.625 C 333.722656 317.820312 334.425781 316.917969 335.011719 315.921875 C 335.597656 314.929688 336.042969 313.875 336.34375 312.761719 C 336.648438 311.648438 336.800781 310.511719 336.800781 309.359375 C 336.800781 308.207031 336.648438 307.070312 336.34375 305.957031 C 336.042969 304.84375 335.597656 303.789062 335.011719 302.796875 C 334.425781 301.800781 333.722656 300.898438 332.894531 300.09375 C 332.070312 299.289062 331.152344 298.605469 330.144531 298.042969 Z M 325.609375 312.511719 L 298.136719 327.785156 C 297.863281 327.933594 297.574219 328.042969 297.273438 328.121094 C 296.972656 328.195312 296.664062 328.230469 296.351562 328.226562 C 296.042969 328.222656 295.734375 328.179688 295.433594 328.097656 C 295.136719 328.015625 294.851562 327.894531 294.582031 327.738281 C 294.3125 327.582031 294.066406 327.394531 293.84375 327.175781 C 293.621094 326.957031 293.433594 326.714844 293.273438 326.445312 C 293.113281 326.179688 292.992188 325.894531 292.90625 325.59375 C 292.820312 325.296875 292.773438 324.992188 292.765625 324.679688 L 292.765625 294.101562 C 292.769531 293.789062 292.8125 293.480469 292.894531 293.179688 C 292.980469 292.878906 293.097656 292.589844 293.257812 292.320312 C 293.414062 292.050781 293.605469 291.804688 293.824219 291.582031 C 294.046875 291.363281 294.292969 291.171875 294.566406 291.015625 C 294.835938 290.859375 295.125 290.738281 295.425781 290.65625 C 295.726562 290.574219 296.035156 290.535156 296.347656 290.53125 C 296.664062 290.53125 296.96875 290.570312 297.273438 290.648438 C 297.578125 290.726562 297.863281 290.84375 298.136719 290.996094 L 325.609375 306.238281 C 325.882812 306.398438 326.132812 306.59375 326.355469 306.816406 C 326.578125 307.042969 326.769531 307.292969 326.925781 307.566406 C 327.085938 307.84375 327.203125 308.132812 327.285156 308.441406 C 327.367188 308.746094 327.410156 309.058594 327.410156 309.375 C 327.410156 309.691406 327.367188 310.003906 327.285156 310.308594 C 327.203125 310.617188 327.085938 310.90625 326.925781 311.183594 C 326.769531 311.457031 326.578125 311.707031 326.355469 311.933594 C 326.132812 312.15625 325.882812 312.351562 325.609375 312.511719 Z M 325.609375 312.511719 " fill-opacity="1" fill-rule="nonzero"/><path fill="#00f3f7" d="M 276.996094 89.15625 C 276.953125 89.699219 277 90.234375 277.140625 90.761719 C 277.28125 91.289062 277.511719 91.773438 277.820312 92.222656 C 278.132812 92.671875 278.511719 93.050781 278.957031 93.367188 C 279.402344 93.683594 279.886719 93.914062 280.410156 94.058594 C 288.363281 96.363281 296.476562 97.59375 304.75 97.753906 C 307.066406 97.863281 309.375 97.761719 311.671875 97.457031 C 313.972656 97.152344 316.222656 96.644531 318.429688 95.933594 C 320.640625 95.222656 322.765625 94.320312 324.8125 93.230469 C 326.855469 92.136719 328.789062 90.875 330.609375 89.433594 C 342.3125 79.46875 342.746094 63.980469 342.527344 58.949219 L 347.496094 50.601562 C 347.582031 50.449219 347.652344 50.296875 347.714844 50.132812 C 347.957031 49.589844 348.125 49.023438 348.214844 48.433594 C 348.300781 47.84375 348.3125 47.253906 348.238281 46.664062 C 348.167969 46.070312 348.015625 45.5 347.789062 44.949219 C 347.5625 44.398438 347.261719 43.886719 346.894531 43.417969 C 346.527344 42.949219 346.105469 42.535156 345.625 42.183594 C 345.144531 41.828125 344.625 41.546875 344.070312 41.332031 C 343.511719 41.121094 342.9375 40.988281 342.34375 40.933594 C 341.75 40.875 341.160156 40.902344 340.574219 41.007812 L 333.804688 42.15625 C 333.167969 41.605469 332.492188 41.109375 331.777344 40.65625 C 331.066406 40.207031 330.324219 39.8125 329.554688 39.46875 C 328.785156 39.128906 327.992188 38.84375 327.179688 38.621094 C 326.371094 38.394531 325.546875 38.230469 324.710938 38.125 C 323.871094 38.023438 323.035156 37.980469 322.191406 37.996094 C 321.347656 38.015625 320.511719 38.097656 319.679688 38.238281 C 318.851562 38.378906 318.035156 38.582031 317.234375 38.84375 C 316.433594 39.105469 315.65625 39.421875 314.902344 39.796875 C 313.625 40.347656 312.441406 41.050781 311.347656 41.902344 C 310.253906 42.757812 309.285156 43.738281 308.441406 44.839844 C 307.597656 45.945312 306.910156 47.136719 306.375 48.417969 C 305.835938 49.699219 305.472656 51.027344 305.277344 52.402344 C 298.808594 49.222656 293.292969 44.847656 288.730469 39.269531 C 288.492188 38.878906 288.199219 38.527344 287.855469 38.222656 C 287.511719 37.914062 287.132812 37.664062 286.71875 37.464844 C 286.300781 37.269531 285.863281 37.140625 285.410156 37.070312 C 284.953125 37.003906 284.5 37 284.042969 37.066406 C 283.617188 37.125 283.207031 37.238281 282.8125 37.414062 C 282.417969 37.585938 282.054688 37.808594 281.722656 38.082031 C 281.390625 38.355469 281.105469 38.671875 280.859375 39.027344 C 280.617188 39.378906 280.425781 39.761719 280.289062 40.167969 C 275.632812 55.101562 278.921875 64.601562 282.460938 69.941406 C 284.851562 73.539062 287.957031 76.355469 291.773438 78.382812 C 290.335938 79.976562 288.695312 81.316406 286.847656 82.402344 C 285 83.488281 283.03125 84.269531 280.941406 84.746094 C 280.40625 84.828125 279.902344 85 279.429688 85.257812 C 278.953125 85.515625 278.539062 85.84375 278.179688 86.246094 C 277.820312 86.648438 277.539062 87.097656 277.335938 87.597656 C 277.132812 88.097656 277.019531 88.617188 276.996094 89.15625 Z M 290.253906 64.878906 C 288.996094 62.863281 288.125 60.691406 287.640625 58.363281 C 287.15625 56.035156 287.082031 53.695312 287.425781 51.34375 C 294.691406 57.738281 305.308594 64.382812 311.515625 62.304688 C 312.082031 62.109375 312.59375 61.824219 313.046875 61.441406 C 313.503906 61.054688 313.878906 60.601562 314.164062 60.082031 C 314.453125 59.558594 314.636719 59 314.714844 58.410156 C 314.792969 57.820312 314.761719 57.234375 314.621094 56.652344 C 314.507812 56.230469 314.429688 55.800781 314.394531 55.363281 C 314.355469 54.925781 314.359375 54.492188 314.402344 54.054688 C 314.445312 53.617188 314.523438 53.191406 314.644531 52.769531 C 314.765625 52.347656 314.921875 51.941406 315.117188 51.546875 C 315.3125 51.15625 315.539062 50.78125 315.800781 50.429688 C 316.0625 50.078125 316.355469 49.753906 316.675781 49.457031 C 316.996094 49.160156 317.339844 48.890625 317.710938 48.65625 C 318.082031 48.421875 318.46875 48.21875 318.875 48.054688 C 319.273438 47.84375 319.6875 47.671875 320.113281 47.53125 C 320.542969 47.394531 320.976562 47.292969 321.421875 47.226562 C 321.867188 47.164062 322.316406 47.136719 322.765625 47.148438 C 323.214844 47.15625 323.660156 47.207031 324.101562 47.292969 C 324.542969 47.378906 324.976562 47.503906 325.394531 47.664062 C 325.816406 47.824219 326.21875 48.019531 326.605469 48.246094 C 326.996094 48.476562 327.359375 48.734375 327.703125 49.027344 C 328.046875 49.316406 328.363281 49.636719 328.652344 49.980469 C 329.183594 50.625 329.839844 51.089844 330.621094 51.378906 C 331.40625 51.667969 332.207031 51.738281 333.03125 51.59375 L 336.382812 51.035156 L 333.710938 55.503906 C 333.203125 56.371094 333 57.300781 333.09375 58.300781 C 333.09375 58.453125 334.550781 73.820312 324.460938 82.386719 C 318.253906 87.757812 308.445312 89.527344 295.621094 87.726562 C 298.898438 85.148438 301.628906 82.085938 303.816406 78.539062 C 304.011719 78.199219 304.160156 77.84375 304.265625 77.46875 C 304.371094 77.09375 304.425781 76.710938 304.433594 76.320312 C 304.445312 75.933594 304.402344 75.546875 304.316406 75.167969 C 304.226562 74.789062 304.09375 74.425781 303.914062 74.078125 C 303.734375 73.734375 303.515625 73.414062 303.257812 73.125 C 303 72.832031 302.707031 72.578125 302.382812 72.359375 C 302.0625 72.144531 301.714844 71.96875 301.347656 71.835938 C 300.984375 71.707031 300.605469 71.621094 300.21875 71.585938 C 298.175781 71.179688 296.289062 70.398438 294.558594 69.234375 C 292.832031 68.074219 291.394531 66.621094 290.253906 64.878906 Z M 290.253906 64.878906 " fill-opacity="1" fill-rule="nonzero"/></svg>