<svg xmlns="http://www.w3.org/2000/svg" xmlns:xlink="http://www.w3.org/1999/xlink" width="500" zoomAndPan="magnify" viewBox="0 0 375 374.999991" height="500" preserveAspectRatio="xMidYMid meet" version="1.0"><defs><clipPath id="e986f3de37"><path d="M 10.804688 10.804688 L 364.054688 10.804688 L 364.054688 364.054688 L 10.804688 364.054688 Z M 10.804688 10.804688 " clip-rule="nonzero"/></clipPath></defs><path fill="#00f3f7" d="M 263.699219 42.273438 L 270.316406 36.75 C 272.546875 34.554688 273.078125 31.226562 270.882812 29.03125 C 268.65625 26.804688 265.359375 26.273438 263.132812 28.46875 L 256.515625 33.988281 C 254.316406 36.214844 253.753906 39.511719 255.980469 41.738281 C 257.613281 43.933594 261.503906 43.933594 263.699219 42.273438 " fill-opacity="1" fill-rule="nonzero"/><path fill="#00f3f7" d="M 267.023438 61.597656 C 268.089844 64.359375 270.882812 66.019531 274.175781 64.921875 L 282.457031 62.160156 C 285.21875 61.0625 286.882812 58.304688 285.785156 54.976562 C 284.65625 52.214844 281.925781 50.554688 278.601562 51.683594 L 270.316406 54.414062 C 268.089844 55.542969 266.457031 58.835938 267.023438 61.597656 " fill-opacity="1" fill-rule="nonzero"/><path fill="#00f3f7" d="M 276.402344 79.289062 C 273.644531 79.289062 270.882812 81.488281 270.316406 84.246094 C 270.316406 87.542969 272.546875 89.769531 275.273438 90.335938 L 284.121094 90.867188 L 284.6875 90.867188 C 287.445312 90.867188 290.207031 88.671875 290.207031 85.910156 C 290.207031 82.585938 287.980469 80.390625 285.21875 79.824219 L 276.402344 79.289062 " fill-opacity="1" fill-rule="nonzero"/><path fill="#00f3f7" d="M 142.757812 109.628906 L 144.984375 109.09375 C 147.746094 107.996094 149.410156 105.234375 148.277344 101.910156 C 147.179688 99.148438 144.421875 97.488281 141.125 98.585938 L 139.464844 99.148438 C 136.703125 100.246094 135.039062 103.007812 136.136719 106.335938 C 136.703125 109.09375 139.996094 110.757812 142.757812 109.628906 " fill-opacity="1" fill-rule="nonzero"/><g clip-path="url(#e986f3de37)"><path fill="#00f3f7" d="M 320.578125 353.140625 L 54.445312 353.140625 C 38.414062 353.140625 25.171875 341.53125 22.414062 326.097656 L 352.574219 326.097656 C 349.847656 341 336.578125 353.140625 320.578125 353.140625 Z M 36.214844 117.941406 C 36.214844 113.519531 39.511719 110.191406 43.933594 110.191406 L 116.8125 110.191406 C 116.8125 110.757812 117.378906 111.289062 117.378906 111.855469 C 118.476562 114.617188 119.574219 117.378906 120.703125 121.234375 C 122.335938 126.757812 125.09375 130.617188 129.519531 132.277344 C 132.84375 133.378906 136.703125 133.378906 139.464844 131.714844 C 140.5625 131.179688 141.660156 130.617188 142.757812 130.082031 C 143.320312 131.179688 143.886719 131.714844 144.421875 132.277344 C 152.167969 137.800781 160.453125 151.070312 162.113281 153.265625 C 166.507812 163.746094 173.691406 165.410156 174.253906 165.972656 C 184.199219 168.167969 200.199219 160.453125 201.863281 152.703125 C 204.625 141.660156 193.015625 135.039062 185.832031 132.84375 C 178.679688 130.082031 174.253906 122.898438 172.058594 118.476562 C 220.058594 105.769531 250.992188 130.082031 252.65625 131.179688 C 254.316406 132.84375 257.078125 132.84375 259.304688 131.179688 C 261.503906 129.519531 262.035156 127.320312 261.503906 125.09375 L 256.515625 110.757812 L 331.621094 110.757812 C 336.011719 110.757812 339.335938 114.050781 339.335938 118.476562 L 339.335938 315.054688 L 36.214844 315.054688 Z M 123.996094 94.726562 C 136.136719 93.0625 146.648438 90.300781 156.027344 86.445312 L 163.746094 109.09375 C 154.367188 111.855469 143.886719 116.277344 133.378906 122.332031 L 132.84375 122.332031 C 130.617188 121.234375 129.519531 113.519531 123.996094 99.714844 C 122.335938 94.191406 124.5625 94.726562 123.996094 94.726562 Z M 190.820312 149.941406 C 189.722656 151.605469 185.296875 155.464844 175.886719 155.464844 C 173.15625 153.800781 172.027344 149.410156 170.929688 148.277344 C 170.363281 147.746094 161.550781 133.378906 152.167969 125.09375 C 155.464844 123.996094 158.222656 122.332031 160.984375 121.234375 C 172.027344 145.550781 190.253906 143.320312 190.820312 149.941406 Z M 217.863281 32.890625 L 245.472656 114.617188 C 231.101562 107.433594 206.285156 99.714844 174.253906 106.867188 L 166.507812 82.585938 C 196.339844 68.214844 211.242188 46.695312 217.863281 32.890625 Z M 250.457031 67.117188 C 252.089844 72.640625 250.457031 78.160156 246.570312 82.019531 L 238.316406 57.738281 C 243.839844 58.304688 248.230469 61.597656 250.457031 67.117188 Z M 358.664062 315.054688 L 349.847656 315.054688 L 349.847656 117.941406 C 349.847656 107.433594 341.53125 99.148438 331.054688 99.148438 L 253.1875 99.148438 L 253.1875 101.378906 L 249.894531 92.53125 C 259.839844 86.445312 264.230469 74.304688 260.371094 63.257812 C 256.515625 52.214844 246.003906 45.597656 234.425781 46.695312 L 223.382812 14.664062 C 222.851562 12.46875 220.625 10.804688 218.394531 10.804688 C 216.199219 10.804688 214.003906 12.46875 213.441406 15.230469 C 213.441406 15.761719 199.101562 72.640625 122.898438 83.683594 C 120.136719 84.246094 116.8125 85.910156 114.617188 89.203125 C 112.953125 91.964844 112.390625 95.289062 113.519531 99.148438 L 43.933594 99.148438 C 33.457031 99.148438 25.171875 107.433594 25.171875 117.910156 L 25.171875 314.488281 L 16.328125 314.488281 C 13 314.488281 10.804688 316.6875 10.804688 320.011719 C 10.804688 344.292969 30.128906 364.183594 54.414062 364.183594 L 320.578125 364.183594 C 344.859375 364.183594 364.183594 344.859375 364.183594 320.578125 C 364.183594 317.25 361.957031 315.054688 358.664062 315.054688 " fill-opacity="1" fill-rule="nonzero"/></g><path fill="#00f3f7" d="M 172.027344 344.859375 L 203.496094 344.859375 C 206.820312 344.859375 209.015625 342.664062 209.015625 339.335938 C 209.015625 336.011719 206.820312 333.816406 203.496094 333.816406 L 172.027344 333.816406 C 168.734375 333.816406 166.507812 336.011719 166.507812 339.335938 C 166.507812 342.664062 168.734375 344.859375 172.027344 344.859375 " fill-opacity="1" fill-rule="nonzero"/><path fill="#00f3f7" d="M 112.953125 211.242188 L 136.136719 223.949219 L 112.953125 236.625 Z M 104.671875 250.457031 C 106.335938 251.527344 108.53125 251.527344 110.191406 250.457031 L 150.507812 228.371094 C 152.167969 227.273438 153.265625 225.582031 153.265625 223.382812 C 153.265625 221.1875 152.167969 219.527344 150.507812 218.425781 L 110.191406 196.339844 C 108.53125 195.242188 106.335938 195.242188 104.671875 196.339844 C 103.007812 197.441406 101.910156 199.101562 101.910156 201.296875 L 101.910156 244.9375 C 101.910156 247.667969 103.007812 249.328125 104.671875 250.457031 " fill-opacity="1" fill-rule="nonzero"/><path fill="#00f3f7" d="M 184.167969 264.796875 L 130.082031 264.796875 C 128.953125 264.796875 128.421875 264.796875 127.320312 265.359375 L 95.824219 281.359375 L 95.824219 270.316406 C 95.824219 266.992188 93.628906 264.796875 90.304688 264.796875 L 70.976562 264.796875 L 70.976562 182.507812 L 184.167969 182.507812 Z M 189.691406 171.496094 L 65.457031 171.496094 C 62.160156 171.496094 59.933594 173.691406 59.933594 177.015625 L 59.933594 270.316406 C 59.933594 273.613281 62.160156 275.839844 65.457031 275.839844 L 84.78125 275.839844 L 84.78125 290.742188 C 84.78125 292.402344 85.910156 294.601562 87.542969 295.730469 C 89.203125 296.828125 91.402344 296.828125 93.0625 295.730469 L 131.714844 275.839844 L 189.691406 275.839844 C 193.015625 275.839844 195.210938 273.613281 195.210938 270.316406 L 195.242188 177.015625 C 195.242188 174.222656 193.015625 171.496094 189.691406 171.496094 " fill-opacity="1" fill-rule="nonzero"/><path fill="#00f3f7" d="M 273.613281 229.472656 C 272.546875 230.003906 271.414062 231.101562 270.882812 232.230469 L 263.132812 251.527344 L 249.328125 207.351562 L 293.5 221.1875 Z M 315.054688 221.1875 C 315.054688 218.960938 313.390625 216.765625 311.195312 216.199219 L 242.710938 194.679688 C 240.515625 194.144531 238.851562 194.679688 237.1875 195.777344 C 235.527344 197.441406 234.992188 199.636719 236.089844 201.296875 L 257.613281 269.753906 C 258.175781 271.980469 260.402344 273.613281 262.601562 273.613281 C 264.796875 273.613281 267.023438 272.546875 268.121094 270.316406 L 278.601562 244.371094 L 305.109375 270.882812 C 307.304688 273.078125 310.632812 273.078125 312.828125 270.882812 C 315.054688 268.65625 315.054688 265.359375 312.828125 263.132812 L 286.316406 236.625 L 312.292969 226.144531 C 313.390625 225.582031 315.054688 223.382812 315.054688 221.1875 " fill-opacity="1" fill-rule="nonzero"/></svg>