<svg xmlns="http://www.w3.org/2000/svg" xmlns:xlink="http://www.w3.org/1999/xlink" width="500" zoomAndPan="magnify" viewBox="0 0 375 374.999991" height="500" preserveAspectRatio="xMidYMid meet" version="1.0"><defs><clipPath id="e19864512c"><path d="M 7.140625 74.777344 L 312 74.777344 L 312 300.527344 L 7.140625 300.527344 Z M 7.140625 74.777344 " clip-rule="nonzero"/></clipPath><clipPath id="39c607dc47"><path d="M 250 131 L 367.890625 131 L 367.890625 249 L 250 249 Z M 250 131 " clip-rule="nonzero"/></clipPath></defs><path fill="#00f3f7" d="M 136.773438 243.859375 C 133.675781 243.859375 131.136719 246.394531 131.136719 249.496094 C 131.136719 252.597656 133.675781 255.132812 136.773438 255.132812 L 181.863281 255.132812 C 184.960938 255.132812 187.5 252.597656 187.5 249.496094 C 187.5 246.394531 184.960938 243.859375 181.863281 243.859375 Z M 136.773438 243.859375 " fill-opacity="1" fill-rule="nonzero"/><path fill="#00f3f7" d="M 58.148438 247.804688 C 58.148438 248.121094 58.117188 248.429688 58.058594 248.738281 C 57.996094 249.046875 57.90625 249.347656 57.785156 249.636719 C 57.664062 249.929688 57.515625 250.207031 57.34375 250.464844 C 57.167969 250.726562 56.96875 250.96875 56.746094 251.191406 C 56.523438 251.414062 56.28125 251.613281 56.019531 251.789062 C 55.757812 251.964844 55.484375 252.109375 55.191406 252.230469 C 54.902344 252.351562 54.601562 252.441406 54.292969 252.503906 C 53.984375 252.566406 53.671875 252.597656 53.359375 252.597656 C 53.042969 252.597656 52.734375 252.566406 52.425781 252.503906 C 52.117188 252.441406 51.816406 252.351562 51.527344 252.230469 C 51.234375 252.109375 50.957031 251.964844 50.699219 251.789062 C 50.4375 251.613281 50.195312 251.414062 49.972656 251.191406 C 49.75 250.96875 49.550781 250.726562 49.375 250.464844 C 49.199219 250.207031 49.054688 249.929688 48.933594 249.636719 C 48.8125 249.347656 48.722656 249.046875 48.660156 248.738281 C 48.597656 248.429688 48.566406 248.121094 48.566406 247.804688 C 48.566406 247.492188 48.597656 247.179688 48.660156 246.871094 C 48.722656 246.5625 48.8125 246.261719 48.933594 245.972656 C 49.054688 245.679688 49.199219 245.40625 49.375 245.144531 C 49.550781 244.882812 49.75 244.640625 49.972656 244.417969 C 50.195312 244.195312 50.4375 243.996094 50.699219 243.820312 C 50.957031 243.648438 51.234375 243.5 51.527344 243.378906 C 51.816406 243.257812 52.117188 243.167969 52.425781 243.105469 C 52.734375 243.046875 53.042969 243.015625 53.359375 243.015625 C 53.671875 243.015625 53.984375 243.046875 54.292969 243.105469 C 54.601562 243.167969 54.902344 243.257812 55.191406 243.378906 C 55.484375 243.5 55.757812 243.648438 56.019531 243.820312 C 56.28125 243.996094 56.523438 244.195312 56.746094 244.417969 C 56.96875 244.640625 57.167969 244.882812 57.34375 245.144531 C 57.515625 245.40625 57.664062 245.679688 57.785156 245.972656 C 57.90625 246.261719 57.996094 246.5625 58.058594 246.871094 C 58.117188 247.179688 58.148438 247.492188 58.148438 247.804688 Z M 58.148438 247.804688 " fill-opacity="1" fill-rule="nonzero"/><path fill="#00f3f7" d="M 39.269531 247.804688 C 39.269531 248.121094 39.238281 248.429688 39.175781 248.738281 C 39.113281 249.046875 39.023438 249.347656 38.902344 249.636719 C 38.785156 249.929688 38.636719 250.207031 38.460938 250.464844 C 38.285156 250.726562 38.085938 250.96875 37.867188 251.191406 C 37.644531 251.414062 37.402344 251.613281 37.140625 251.789062 C 36.878906 251.964844 36.601562 252.109375 36.3125 252.230469 C 36.019531 252.351562 35.722656 252.441406 35.414062 252.503906 C 35.105469 252.566406 34.792969 252.597656 34.476562 252.597656 C 34.164062 252.597656 33.851562 252.566406 33.542969 252.503906 C 33.234375 252.441406 32.933594 252.351562 32.644531 252.230469 C 32.355469 252.109375 32.078125 251.964844 31.816406 251.789062 C 31.554688 251.613281 31.3125 251.414062 31.089844 251.191406 C 30.867188 250.96875 30.667969 250.726562 30.496094 250.464844 C 30.320312 250.207031 30.171875 249.929688 30.050781 249.636719 C 29.929688 249.347656 29.839844 249.046875 29.777344 248.738281 C 29.71875 248.429688 29.6875 248.121094 29.6875 247.804688 C 29.6875 247.492188 29.71875 247.179688 29.777344 246.871094 C 29.839844 246.5625 29.929688 246.261719 30.050781 245.972656 C 30.171875 245.679688 30.320312 245.40625 30.496094 245.144531 C 30.667969 244.882812 30.867188 244.640625 31.089844 244.417969 C 31.3125 244.195312 31.554688 243.996094 31.816406 243.820312 C 32.078125 243.648438 32.355469 243.5 32.644531 243.378906 C 32.933594 243.257812 33.234375 243.167969 33.542969 243.105469 C 33.851562 243.046875 34.164062 243.015625 34.476562 243.015625 C 34.792969 243.015625 35.105469 243.046875 35.414062 243.105469 C 35.722656 243.167969 36.019531 243.257812 36.3125 243.378906 C 36.601562 243.5 36.878906 243.648438 37.140625 243.820312 C 37.402344 243.996094 37.644531 244.195312 37.867188 244.417969 C 38.085938 244.640625 38.285156 244.882812 38.460938 245.144531 C 38.636719 245.40625 38.785156 245.679688 38.902344 245.972656 C 39.023438 246.261719 39.113281 246.5625 39.175781 246.871094 C 39.238281 247.179688 39.269531 247.492188 39.269531 247.804688 Z M 39.269531 247.804688 " fill-opacity="1" fill-rule="nonzero"/><path fill="#00f3f7" d="M 133.109375 119.582031 C 131.417969 117.046875 127.757812 116.203125 125.21875 117.890625 L 74.496094 151.710938 C 72.804688 152.835938 71.957031 154.527344 71.957031 156.5 C 71.957031 158.472656 72.804688 160.164062 74.496094 161.289062 C 74.496094 161.289062 125.21875 195.105469 125.21875 195.105469 C 127.757812 196.796875 131.417969 196.234375 133.109375 193.417969 C 134.800781 190.878906 134.238281 187.214844 131.417969 185.527344 L 87.738281 156.5 L 131.417969 127.472656 C 133.957031 125.78125 134.800781 122.121094 133.109375 119.582031 Z M 133.109375 119.582031 " fill-opacity="1" fill-rule="nonzero"/><path fill="#00f3f7" d="M 185.527344 193.417969 C 187.21875 195.953125 190.878906 196.796875 193.417969 195.105469 L 244.140625 161.289062 C 245.832031 160.164062 246.679688 158.472656 246.679688 156.5 C 246.679688 154.527344 245.832031 152.835938 244.140625 151.710938 L 193.417969 117.890625 C 190.878906 116.203125 187.21875 116.765625 185.527344 119.582031 C 183.835938 122.121094 184.398438 125.78125 187.21875 127.472656 L 230.898438 156.5 L 187.21875 185.527344 C 184.679688 187.214844 183.835938 190.878906 185.527344 193.417969 Z M 185.527344 193.417969 " fill-opacity="1" fill-rule="nonzero"/><path fill="#00f3f7" d="M 165.234375 112.820312 L 142.691406 197.363281 C 141.847656 200.460938 143.820312 203.5625 146.636719 204.125 C 147.199219 204.125 147.480469 204.40625 148.046875 204.40625 C 150.582031 204.40625 152.835938 202.714844 153.398438 200.179688 L 175.945312 115.636719 C 176.789062 112.539062 174.816406 109.4375 172 108.875 C 169.179688 108.027344 166.082031 109.71875 165.234375 112.820312 Z M 165.234375 112.820312 " fill-opacity="1" fill-rule="nonzero"/><g clip-path="url(#e19864512c)"><path fill="#00f3f7" d="M 136.773438 288.949219 L 119.867188 288.949219 C 116.765625 288.949219 114.230469 291.484375 114.230469 294.585938 C 114.230469 297.683594 116.765625 300.222656 119.867188 300.222656 L 198.769531 300.222656 C 201.871094 300.222656 204.40625 297.683594 204.40625 294.585938 C 204.40625 291.484375 201.871094 288.949219 198.769531 288.949219 L 181.863281 288.949219 L 181.863281 272.039062 L 294.585938 272.039062 C 301.914062 272.039062 308.113281 267.25 310.367188 260.769531 L 304.449219 260.769531 C 301.914062 260.769531 299.65625 260.488281 297.402344 259.640625 C 296.558594 260.203125 295.429688 260.769531 294.304688 260.769531 L 24.050781 260.769531 C 20.953125 260.769531 18.414062 258.230469 18.414062 255.132812 L 18.414062 238.222656 L 256.824219 238.222656 L 255.976562 237.378906 C 253.160156 234.558594 250.90625 230.898438 249.777344 226.953125 L 18.414062 226.953125 L 18.414062 91.683594 C 18.414062 88.585938 20.953125 86.046875 24.050781 86.046875 L 294.585938 86.046875 C 297.683594 86.046875 300.222656 88.585938 300.222656 91.683594 L 300.222656 120.429688 C 301.628906 120.148438 303.039062 119.863281 304.730469 119.863281 L 311.492188 119.863281 L 311.492188 91.683594 C 311.492188 82.382812 303.886719 74.777344 294.585938 74.777344 L 24.050781 74.777344 C 14.75 74.777344 7.144531 82.382812 7.144531 91.683594 L 7.144531 255.132812 C 7.144531 264.433594 14.75 272.039062 24.050781 272.039062 L 136.773438 272.039062 Z M 148.046875 272.039062 L 170.589844 272.039062 L 170.589844 288.949219 L 148.046875 288.949219 Z M 148.046875 272.039062 " fill-opacity="1" fill-rule="nonzero"/></g><g clip-path="url(#39c607dc47)"><path fill="#00f3f7" d="M 356.863281 172.5625 C 356.300781 171.152344 355.738281 170.027344 355.175781 168.617188 C 358.835938 163.261719 358.273438 155.9375 353.484375 151.144531 L 347.847656 145.507812 C 345.3125 142.972656 341.648438 141.5625 337.984375 141.5625 C 335.164062 141.5625 332.628906 142.410156 330.375 143.820312 C 329.246094 143.253906 327.839844 142.691406 326.429688 142.128906 C 325.019531 135.644531 319.382812 131.136719 312.902344 131.136719 L 305.011719 131.136719 C 298.25 131.136719 292.613281 135.929688 291.484375 142.128906 C 290.078125 142.691406 288.949219 143.253906 287.539062 143.820312 C 285.285156 142.410156 282.75 141.5625 279.929688 141.5625 C 276.269531 141.5625 272.605469 142.972656 270.066406 145.507812 L 264.433594 151.144531 C 259.640625 155.9375 259.078125 163.261719 262.742188 168.617188 C 262.175781 169.746094 261.613281 171.152344 261.050781 172.5625 C 254.570312 173.972656 250.058594 179.609375 250.058594 186.089844 L 250.058594 193.980469 C 250.058594 200.742188 254.851562 206.378906 261.050781 207.507812 C 261.613281 208.914062 262.175781 210.042969 262.742188 211.453125 C 261.332031 213.707031 260.488281 216.242188 260.488281 219.0625 C 260.488281 222.722656 261.894531 226.386719 264.433594 228.925781 L 270.066406 234.558594 C 272.605469 237.097656 276.269531 238.503906 279.929688 238.503906 C 282.75 238.503906 285.285156 237.660156 287.539062 236.25 C 288.667969 236.816406 290.078125 237.378906 291.484375 237.941406 C 292.894531 244.421875 298.53125 248.933594 305.011719 248.933594 L 312.902344 248.933594 C 319.667969 248.933594 325.300781 244.140625 326.429688 237.941406 C 327.839844 237.378906 328.964844 236.816406 330.375 236.25 C 332.628906 237.660156 335.164062 238.503906 337.984375 238.503906 C 341.648438 238.503906 345.3125 237.097656 347.847656 234.558594 L 353.484375 228.925781 C 356.019531 226.386719 357.429688 222.722656 357.429688 219.0625 C 357.429688 216.242188 356.582031 213.707031 355.175781 211.453125 C 355.738281 210.324219 356.300781 208.914062 356.863281 207.507812 C 363.347656 206.097656 367.855469 200.460938 367.855469 193.980469 L 367.855469 186.089844 C 367.855469 179.609375 363.0625 173.972656 356.863281 172.5625 Z M 356.582031 194.261719 C 356.582031 195.671875 355.457031 196.796875 354.046875 196.796875 L 348.128906 196.796875 C 347 202.996094 344.746094 208.351562 341.367188 213.144531 L 345.59375 217.371094 C 346.71875 218.496094 346.71875 220.1875 345.59375 221.035156 L 339.957031 226.667969 C 339.394531 227.234375 338.828125 227.515625 337.984375 227.515625 C 337.136719 227.515625 336.574219 227.234375 336.011719 226.667969 L 331.785156 222.441406 C 326.992188 225.824219 321.355469 228.359375 315.4375 229.207031 L 315.4375 235.125 C 315.4375 236.53125 314.3125 237.660156 312.902344 237.660156 L 305.011719 237.660156 C 303.601562 237.660156 302.476562 236.53125 302.476562 235.125 L 302.476562 229.769531 C 296.277344 228.640625 290.921875 226.386719 286.132812 223.007812 L 281.339844 226.953125 C 280.777344 227.515625 280.214844 227.796875 279.367188 227.796875 C 278.523438 227.796875 278.242188 227.515625 277.675781 226.953125 L 272.039062 221.316406 C 270.914062 220.1875 270.914062 218.496094 272.039062 217.652344 L 276.269531 213.425781 C 272.886719 208.632812 270.351562 202.996094 269.503906 197.078125 L 263.585938 197.078125 C 262.175781 197.078125 261.050781 195.953125 261.050781 194.542969 L 261.050781 186.652344 C 261.050781 185.242188 262.175781 184.117188 263.585938 184.117188 L 269.222656 184.117188 C 270.351562 177.917969 272.605469 172.5625 275.984375 167.773438 L 272.039062 162.980469 C 270.914062 161.855469 270.914062 160.164062 272.039062 159.316406 L 277.675781 153.683594 C 278.242188 153.117188 278.804688 152.835938 279.648438 152.835938 C 280.496094 152.835938 281.058594 153.117188 281.621094 153.683594 L 285.847656 157.910156 C 290.640625 154.527344 296.277344 151.992188 302.195312 151.144531 L 302.195312 145.226562 C 302.195312 143.820312 303.320312 142.691406 304.730469 142.691406 L 312.621094 142.691406 C 314.03125 142.691406 315.15625 143.820312 315.15625 145.226562 L 315.15625 150.863281 C 321.355469 151.992188 326.710938 154.246094 331.503906 157.628906 L 335.730469 153.398438 C 336.292969 152.835938 336.855469 152.554688 337.703125 152.554688 C 338.546875 152.554688 339.109375 152.835938 339.675781 153.398438 L 345.3125 159.035156 C 346.4375 160.164062 346.4375 161.855469 345.3125 162.699219 L 341.082031 166.925781 C 344.464844 171.71875 347 177.355469 347.847656 183.269531 L 353.765625 183.269531 C 355.175781 183.269531 356.300781 184.398438 356.300781 185.808594 L 356.300781 194.261719 Z M 356.582031 194.261719 " fill-opacity="1" fill-rule="nonzero"/></g><path fill="#00f3f7" d="M 308.675781 167.773438 C 296.277344 167.773438 286.132812 177.917969 286.132812 190.316406 C 286.132812 202.714844 296.277344 212.859375 308.675781 212.859375 C 321.074219 212.859375 331.21875 202.714844 331.21875 190.316406 C 331.21875 177.917969 321.074219 167.773438 308.675781 167.773438 Z M 308.675781 201.589844 C 302.476562 201.589844 297.402344 196.515625 297.402344 190.316406 C 297.402344 184.117188 302.476562 179.042969 308.675781 179.042969 C 314.875 179.042969 319.949219 184.117188 319.949219 190.316406 C 319.949219 196.515625 314.875 201.589844 308.675781 201.589844 Z M 308.675781 201.589844 " fill-opacity="1" fill-rule="nonzero"/></svg>